<svg id="Layer_1" data-name="Layer 1" xmlns="http://www.w3.org/2000/svg" viewBox="0 0 33.36 13.66"><defs><style>.cls-1{fill:#fff200;}</style></defs><title>Artboard 1</title><path class="cls-1" d="M17.61,13.66a43.18,43.18,0,0,1-9.1-1A18.43,18.43,0,0,1,2.78,10.5a6,6,0,0,1-2.1-2A4.76,4.76,0,0,1,0,6,3.26,3.26,0,0,1,1.34,3.69,9.63,9.63,0,0,1,3.63,2.1,21.45,21.45,0,0,1,9.06.53a33.69,33.69,0,0,1,6-.53c1.37,0,2.74,0,4.09.07a32.84,32.84,0,0,1,9.24,1.8,8.9,8.9,0,0,1,4.33,2.95c1.08,1.6.7,3.14-.7,4.59a11.5,11.5,0,0,1-4.84,2.76,27.37,27.37,0,0,1-5.66,1.2C20,13.53,18.53,13.6,17.61,13.66Zm10-4.71a2.65,2.65,0,0,1,.19-.28,4.63,4.63,0,0,0,1.36-2.75c.07-1.63-1.22-2.77-3.45-3.53a29.28,29.28,0,0,0-7.45-1.27,36.5,36.5,0,0,0-5.39.07A29.77,29.77,0,0,0,6,2.41a16.56,16.56,0,0,0-2.63,1.1,1.83,1.83,0,0,0-.92,2.25A6.27,6.27,0,0,0,3.8,8.39,9.7,9.7,0,0,0,6.66,11a15.26,15.26,0,0,0,3.9,1.46,16.71,16.71,0,0,0,4.49.58c1.17,0,2.36,0,3.51-.13s2.51-.36,3.72-.61a15,15,0,0,0,3.79-1.44,21.67,21.67,0,0,0,3.56-2.29c.27-.21.48-.44.76-.64a8.53,8.53,0,0,1,.85-.45l-.34.5.4-.19c.12-.06.34-.1.36-.16a2.74,2.74,0,0,0-.11-2.26,6.68,6.68,0,0,0-3.35-2.79,21.36,21.36,0,0,0-4.13-1.34A31.88,31.88,0,0,0,17.8.36c-1.29,0-2.6,0-3.9,0a30.67,30.67,0,0,0-5.44.76,1.89,1.89,0,0,0-.25.1h.21A36.5,36.5,0,0,1,14.77.72c1.61,0,3.22.08,4.82.17a30.92,30.92,0,0,1,6.23.94,8.78,8.78,0,0,1,3.33,1.46A2.91,2.91,0,0,1,30.21,6.5a5.19,5.19,0,0,1-.36.79l-.09,0L30,6.17A6.38,6.38,0,0,1,27.61,8.94Zm-3.68,3.5a17.81,17.81,0,0,0,4.55-1.64,6.49,6.49,0,0,0,3.05-2.94A16.69,16.69,0,0,1,23.93,12.45ZM5.54,11.14a10.8,10.8,0,0,1-4.16-4.4C1.1,8,3.42,10.45,5.54,11.14Z"/></svg>