<?xml version="1.0" encoding="utf-8"?>
<!-- Generator: Adobe Illustrator 21.0.2, SVG Export Plug-In . SVG Version: 6.00 Build 0)  -->
<svg version="1.1" id="oldlady_xA0_Image_1_" xmlns="http://www.w3.org/2000/svg" xmlns:xlink="http://www.w3.org/1999/xlink"
	 x="0px" y="0px" viewBox="0 0 1032.8 1253.9" style="enable-background:new 0 0 1032.8 1253.9;" xml:space="preserve">
<style type="text/css">
	.st0{fill:#242424;}
</style>
<g>
	<path class="st0" d="M619.2,539.5c-6.8-3.2-8.5-8.1-9.1-13.9c-0.1-1.4-2.6-3.8-4-3.7c-8.4,0.2-17,0.1-25.2,1.6
		c-17.3,3.2-34.5,6.9-51.5,11.4c-8.8,2.3-17,6.6-25.4,10.3c-9.9,4.5-19.7,9.4-29.5,14.2c-1,0.5-2.3,1.2-2.7,2.1
		c-3.3,7.6-11.1,7.9-17.2,10.7c-3.7,1.7-8,2-12,3.2c-7.9,2.4-15.8,5-23.7,7.5c-5.3,1.7-10.2-2.6-8.6-8.4c0.8-3,2.8-6.6,5.4-8
		c14.2-8.2,28.4-16.3,43.9-22c20.6-7.5,40.6-16.4,60.7-25.1c8.2-3.5,16-7.9,24.1-11.8c1.6-0.8,3.5-0.9,5.3-1.3
		c12.3-2.6,24.6-5.3,36.9-7.8c1.9-0.4,4-0.4,5.8,0.1c8.5,2.1,17,4.4,25.5,6.8c8.6,2.5,11.8,11.9,6.7,19.1c-0.5,0.8-1.1,1.7-1.1,2.6
		c-0.1,3.2-0.1,6.4-0.1,10.4c4.1,1.3,8.9,0.2,13.6-0.8c6.9-1.4,13.8-3.3,20.8-4.2c11.8-1.5,23,1.9,34.2,5.2
		c12.9,3.9,25.9,7.1,38.8,10.7c7.3,2,14.6,4,21.9,5.9c1.4,0.4,3,0.2,4.5,0.2c4.2,0.2,8-1.1,9.4-5c1.5-4.2-0.1-8.4-3.7-11.1
		c-6.5-4.9-13.3-9.3-19.7-14.3c-7.1-5.5-13.8-11.4-17.9-19.5c-1.9-3.7-3.5-7.9,0.4-11.5c2.6-2.4,9.9-1.7,13.2,1.2
		c6.3,5.4,13.1,9.6,21.7,10.2c2.2,0.2,4.3,2.3,6.4,2.4c2.7,0.1,5.7-0.6,8.1-1.8c0.6-0.3-0.1-4.1-0.9-6.1c-1.6-4.5-2.9-9.4-5.7-13.2
		c-5.9-7.8-13.1-13.5-24.1-13.1c-19.7,0.7-38.6-2.7-53.5-17c-5.4-5.2-9.8-11.5-13.9-17.8c-1.1-1.7-0.3-5.6,1-7.7
		c1.8-2.9,5.3-3.2,8.6-1.7c13.7,6.3,27.3,12.9,41.1,18.7c12.7,5.3,25.7,9.7,38.5,14.6c3.4,1.3,6.6,3.1,10,4.5
		c2.4,0.9,5.2,1.1,7.6,2.2c3.1,1.3,6,3.4,9.1,4.7c5.8,2.5,11.6,4.9,17.6,6.8c1.4,0.5,3.8-0.5,5.1-1.5c6-4.5,7.6-4,13.4,0.7
		c4.3,3.4,9.8,5.3,14.6,8c2.1,1.2,4.6,2.3,5.7,4.2c2.1,3.5,4.6,6,8.6,6.9c8.7,1.9,17.3,4.2,26.1,5.6c7.6,1.2,10.4-3,8.3-10.5
		c-5.7-20.6-20-32.1-39.8-37.5c-10.7-2.9-16.7-10.3-20.1-20.1c-2-5.7,2.9-12.2,9-13c10.3-1.3,20,0.8,29.5,5.2
		c6.3,2.9,13.1,4.6,19.5,7.2c7.3,3,14.5,6.2,21.7,9.5c11.2,5.2,22.5,10.3,33.6,15.8c11.9,5.9,22.8,12.4,29.1,25.6
		c4.9,10.1,7.2,20.1,7.1,31c-0.1,4.9,1.4,10.1,0.5,14.8c-1.9,10.2-5.4,20.2-7.4,30.4c-2.3,11.3-4.1,22.8-5.5,34.2
		c-0.6,4.8-0.2,9.8,0.7,14.5c1.3,6.4,5,11.7,10.2,15.9c2,1.6,3.8,3.6,5.3,5.7c7.1,10,14.4,19.9,20.7,30.3c2.1,3.5,2.8,8.7,2.2,12.8
		c-1.2,7.5-2.7,15.3-6.2,21.9c-3.1,6.1-8.4,11.5-13.7,15.9c-4.9,4.1-11.3,6.3-16.7,9.8c-4.5,2.9-5,6.3-1.3,10.1
		c2.5,2.6,5.6,4.6,8.8,6.3c6.1,3.2,12.7,5.5,18.6,8.9c9.2,5.4,15.4,13.7,21.7,22.2c4.5,6.2,7.6,12.7,8.6,20.2
		c0.2,1.7,0.3,3.5,0.4,5.2c0.2,2.1-0.3,4.6,0.6,6.4c5,9.2,2.8,18.1-0.2,27.2c-2.8,8.6-6,16.9-12.9,23.3c-4,3.7-7.8,7.5-11.6,11.3
		c-0.4,0.3-0.8,0.8-1.2,0.9c-9.3,0.8-12.2,9.4-17.8,14.7c-2.5,2.4-1.1,9.3,2.4,11.3c4.2,2.4,8.7,5,13.4,5.5c6,0.7,12.3-0.6,18.5-1
		c1-0.1,2.3-0.6,2.9-0.1c2.9,1.9,6.5,3.5,8.2,6.3c0.9,1.4-1.2,5.6-3,7.5c-4.3,4.4-9.3,8.1-14,12c-2.7,2.3-4.3,4.8-3.2,8.6
		c0.4,1.2-0.1,3-0.8,4.1c-2.5,4.2-10.9,4.4-15.9,0.6c-3.3-2.5-3.5-7.5-0.5-11.5c1.4-1.8,2.9-3.6,4.6-5.1c2.2-2,2.3-3.7-0.3-5
		c-1.9-0.9-4.3-2-6.1-1.6c-4.7,1.1-7.5-1-10.2-4.3c-4.2-5-8.7-9.6-13-14.5c-1.9-2.2-3.5-1.8-4.9,0.1c-2.4,3.5-5.1,7-6.7,11
		c-1.2,3-1.1,6.7-1.2,10.1c-0.2,4.3,0.4,8.7-0.2,12.9c-0.3,2-2.9,3.6-4.4,5.4c-5.8,6.9-11.6,13.9-17.5,20.7
		c-2.1,2.4-3.7,3.2-7.8,1.5c-5.6-2.3-12.4-1.7-18.7-2.2c-0.7-0.1-1.6,0.5-2.3,0.9c-10.2,5.8-8.1,2.8-15.4-3.7
		c-0.9-0.8-1.8-2.6-1.4-3.5c2.2-5.8-2-8-5.5-10.6c-5.5-4-7.9-9-9.4-15.9c-2.1-9.7-6.6-19.2-11.8-27.7c-2.1-3.3-9-4.3-13.9-5.1
		c-5.6-0.9-11.5-0.5-17.2-0.4c-0.7,0-1.8,1.4-2.1,2.3c-0.8,2.7-1.8,5.6-1.7,8.3c0.7,12.3-2.5,24.7,0.8,37c1.2,4.6,1.4,9.1-4.8,10.7
		c-0.7,0.2-1.5,1-1.7,1.7c-3.9,9.7-7.9,19.3-11.5,29.1c-2.1,5.8-5.2,10.7-11.2,13.7c1.3,1.5,2.3,2.7,3.7,4.3c-3.5,4.4-7,9-10.7,13.4
		c-6.3,7.4-12.8,14.7-19.3,22c-0.4,0.5-1,1.2-0.9,1.7c1,6.3-4.2,8-7.6,11.4c-6.3,6.3-11.6,13.6-17.4,20.5c-1.3,1.5-2.3,3.8-3.9,4.4
		c-10.2,4-10.1,13.4-11.8,21.9c-0.2,1.1-0.5,2.7-1.2,3.1c-6.5,3.1-6.3,9.6-7.9,15.3c-1.6,5.9-3.3,11.8-5.1,17.6
		c-5.5,18.2-12.5,35.9-24.2,50.9c-8.5,10.9-15.8,22.9-26.6,31.9c-4.2,3.5-7.4,8.3-11.3,12.2c-1.7,1.7-4,3.7-6.1,3.9
		c-6.7,0.4-11.1,5.1-15.1,8.9c-3.4,3.2-6.9,5.4-10.8,7.3c-6.9,3.3-13.6,7-20.5,10.1c-5.5,2.5-10.7,1.8-16-1.7
		c-2.5-1.6-6.7-1.4-10-0.8c-8.8,1.6-17.5,4.3-26.3,5.6c-6.9,1-14,0.6-21,0.4c-3.9-0.1-7.8-0.9-11.7-1.6c-7.6-1.4-15.3-2.7-22.8-4.7
		c-3.9-1.1-7.4-3.7-11.1-5.5c-7.1-3.6-14.4-6.9-21.3-10.7c-5-2.8-9.6-6.5-14.5-9.6c-15.8-9.9-28.7-23.4-42.8-35.4
		c-11.7-9.9-22.1-21.5-33.1-32.2c-3.9-3.7-8.1-7-12.1-10.7c-8-7.3-16.2-14.5-23.9-22.2c-5.7-5.7-10.3-12.5-15.8-18.3
		c-5-5.2-10.6-9.7-15.9-14.5c-0.4,0.3-0.7,0.5-1.1,0.8c0.1,0.7,0,1.5,0.3,2.2c3.1,8.2,0.2,13-8.5,14.6c-4.2,0.8-8.3,1.9-12.3,3.2
		c-3.9,1.3-7.1,0.1-9.4-2.7c-2.6-3.2-5.3-6.6-6.8-10.4c-5.6-14-10.8-28.2-16-42.3c-1.2-3.2-2.6-4.7-5.8-2.4
		c-7.7,5.5-16.4,6.6-25.2,3.9c-4.8-1.5-9.3-4.1-13.5-6.9c-7.4-5.2-14.5-10.8-21.6-16.5c-4.4-3.5-5.9-8.5-7-13.9
		c-3.4-16.3-3.1-32.7-2.2-49.1c0.1-1.5,1-2.9,1-4.3c0.1-2.5,0.7-6.8-0.4-7.3c-2.8-1.4-6.5-1.9-9.7-1.4c-6.8,1.1-13.5,2.9-20.2,4.7
		c-2.5,0.7-5.2,1.6-7.1,3.2c-7.9,7-19.8,8.8-29.1,4.2c-4.6-2.3-5.6-5.9-3-10.2c3.7-6.1,7.4-11.5,15.9-11.2c4.4,0.1,5.7-4.4,3.1-9.2
		c-3.9-7.5-2.3-11,5.6-13.9c8-3,15.5-7,21.3-13.4c0.9-0.9,0.9-4,0-4.9c-1.7-1.9-4.1-3.5-6.5-4.3c-16-5.7-24.3-17.6-27.1-33.8
		c-0.8-4.6,0.6-8.5,5.1-10.9c5.7-3.1,11.3-5.7,18-5.9c6.5-0.2,12.7-1.2,18.9,1.9c1.4,0.7,4.2-0.6,5.9-1.6c4.5-2.7,8.8-5.8,12.8-8.5
		c8.8,2.6,9,10.7,11.7,17c2.9,6.8,3.9,14.5,7.5,20.8c3.4,5.8,7.5,12.1,15.2,13.8c0.8,0.2,1.7,0.4,2.3,0.9
		c4.9,4.6,10.3,8.9,14.6,14.1c6.6,8,17.7,10.6,27,5.5c3.4-1.9,2.8-9.2-1.2-11.5c-8.9-5.3-18-10.2-26.8-15.7
		c-2.9-1.8-6.4-4.7-7.2-7.7c-2.3-7.9-7.8-13.6-11.9-20.3c-4.8-8-9.3-16.3-12.9-24.9c-2.3-5.5-2.7-11.7-4.3-17.5
		c-0.6-2.2-2.1-4.4-3.7-6c-3-3.2-3.1-5.4-0.2-9.2c7.3-9.9,13.8-20.3,20.4-30.6c2.2-3.3,7.9-4.7,11.9-2.2c3.9,2.4,2.7,5.3,1.3,9
		c-3.6,9.4-6.5,19.1-9.4,28.8c-0.4,1.3-0.3,3.4,0.5,4.3c5.4,5.6,10,12.7,18.8,13.3c2,0.1,4.5-1.3,6-2.8c2.5-2.6,4.4-5.8,6.4-8.9
		c3.6-5.7,7.1-11.5,10.6-17.3c4.4-7.6,8.9-15.1,12.9-22.9c3.3-6.5,6.4-13.2,8.8-20.1c1.3-3.8,3.3-5.3,6.9-4.6
		c3.8,0.6,6.9,2.8,6.9,6.8c0,4.8,0.7,9.4-2.4,14.3c-2.3,3.7-5.7,9.1-1.6,14.8c1.1,1.5,0,5.4-1.3,7.4c-3.7,5.7-7.6,11-8.5,18.2
		c-0.4,3.4-3.4,6.7-5.9,9.5c-4.3,4.6-9.1,8.7-13.7,13.1c-4.2,4-5.3,8.2-3,11.4c3.3,4.5,11.7,7.4,15.5,4.8c6.2-4.2,11.7-9,15.3-16
		c2.9-5.6,7.5-10.4,11.3-15.6c2-2.7,4.1-5.2,5.8-8c4.7-8.1,10.1-16.1,13.5-24.7c3.7-9.3,5.5-19.4,7.9-29.2c0.8-3.4,2.2-6,5.7-6.8
		c5.3-1.1,6-5.1,6-9.5c0-2.5-0.6-5-0.7-7.4c-0.3-6-3.4-9.3-8.9-11.5c-9.3-3.8-18.7-1.6-28.1-1.5c-8,0-16.2,0.8-24-0.6
		c-6.9-1.2-12.4,0.7-17.9,3.7c-2.8,1.5-5.3,3.4-7.8,5.4c-3.5,2.8-7,3.6-11,1.2c-1-0.6-2.7-0.5-3.7-0.1c-9.8,4.2-18.6,10-27.2,16.3
		c-7.2,5.3-14.8,9.9-22.4,14.5c-11.4,6.9-25,9.8-35.3,18.7c-5,4.3-10.2,8.3-15.3,12.5c-3.2,2.7-6.6,3.4-10.7,2.6
		c-5.4-1-7,0.5-8.5,5.7c-1,3.6-2.2,7.5-4.6,10.1c-2.6,2.9-6.5,4.6-10.8,2.4c-7.1-3.6-14.2-7.3-21.5-10.5c-2.3-1-5.3-0.7-8-0.6
		c-5.8,0.4-11.6,1-17.3,1.6c-1.6,0.2-3.3,0.5-4.7,1.2c-7.4,3.7-14.5,8.5-22.2,11.1c-5.9,1.9-12.8,2-19.1,1.2
		c-6.5-0.8-7.9-7.5-4-12.7c1.6-2.1,1.7-5.4,3.1-7.7c7.3-11.4,3.6-24.6,6.1-36.8c0.6-2.8-0.6-5.9-0.4-8.8c0.5-4.7,3.8-7.4,8.1-8.5
		c3.9-1,11.1,1.9,12,5.4c0.6,2.5-1.2,5.6-2.2,8.4c-0.8,2.2-2.8,4.1-2.9,6.3c-0.4,5.3-0.3,10.6,0.2,15.9c0.1,1.5,2.1,4.2,3.2,4.2
		c6.4-0.1,12.8-0.6,19.2-1.5c1.7-0.2,3.2-2.8,4.9-2.9c3.3-0.2,6.9,0.1,10.1,1c3.1,0.9,4.6,0.6,6.2-2.6c1.6-3.2,4.2-6.1,7-8.4
		c3-2.6,6.7-4.3,9.9-6.7c2.5-1.8,0.2-7.3-3.4-9.6c-8.8-5.8-17.5-11.7-26-18c-5.4-4-11-8.2-15.2-13.3c-5.2-6.3-8.9-13.8-13.3-20.7
		c-2.1-3.3-4.2-6.6-6.4-9.9c-6.1-9.4-3.3-19.3-1.6-29c0.8-4.4,2.8-8.5,3.5-12.9c0.3-1.9-1.2-4.2-2.2-6.2c-0.6-1.1-2.2-1.7-2.7-2.8
		C15,625.4,9.1,615.1,6.9,604.2c-2.6-13.3-4.4-27.1,0.9-40.7c3.8-9.9,6.4-20.2,9.5-30.4c3.4-11.1,6.4-22.2,10.1-33.2
		c2.3-6.7,5.3-13.2,8.1-19.8c2.5-5.6,13.2-10.6,19.1-9.1c4.6,1.2,7,4.5,6,9.3c-3.8,18.6-7.5,37.1-11.8,55.6c-3,13-6.3,25.9-5.4,39.3
		c0.4,6.3,0.5,12.9,5.6,18.8c3.9-5.3,7.7-9.9,10.9-15c5.1-8.1,9.9-9.9,18.6-6.1c3.4,1.5,5.9,0.2,7.3-2.3c2.8-5,5.1-10.3,7.5-15.6
		c1.3-2.8,2.2-5.9,3.7-8.6c4.1-7.6,8.3-15.2,12.5-22.7c4.6-8.2,9.1-16.5,14.2-24.4c1.8-2.8,4.9-5.1,7.9-6.6
		c4.8-2.5,10.5,1.2,10.1,6.5c-0.5,6.8-2.5,13.6-2,20.2c1.1,13.9-6.8,25.3-9.3,38.1c-0.8,3.9-2,7.7-2.7,11.7
		c-0.3,1.5,0.1,3.3,0.7,4.7c2.2,5.1,0.6,6.7-2.8,10.6c-4.5,5.1-8.9,8.7-15.6,10.8c-8.3,2.7-8.1,12.1-11.2,18.8
		c-3.2,7-3.3,14.7-3.4,22.4c0,1.8-2.6,3.6-4,5.3c-1.1,1.4-3,2.5-3.4,4.1c-3,11.8-2.3,23.7-1.7,35.7c0.6,11.8-0.6,23.9,0.7,35.6
		c1.2,10.2,1.8,20.8,8,30c2.4,3.5,3.3,8.3,3.9,12.7c0.6,4.3-1,8-5.7,10.1c-1.6,0.7-2.3,3.2-3.5,4.8c1.7,0.7,3.3,2.1,5,2.1
		c3.6-0.1,7.2-1,10.8-1.4c2.9-0.3,5.9,0.1,8.7-0.6c2.4-0.6,4.8-1.9,6.9-3.4c7-5.1,13.8-10.2,22.4-12.4c1.4-0.4,3-1,4-2
		c6.5-7.2,15.7-9.5,23.9-13.6c12.7-6.4,25.3-13.1,37.9-19.8c4.2-2.2,8-5.4,12.4-7.2c5-2.1,10.5-3.1,15.7-4.5
		c0.8-0.2,1.7-0.2,2.4-0.5c11.4-4.9,23.6-8.6,34-15.1c9.3-5.8,19.3-6.2,29-8.6c7.7-1.9,15.2-3.6,22.4-7.4c5.4-2.9,12-3.8,17.8-5.9
		c7.2-2.7,14.2-6,21.5-8.5c7.2-2.6,14.5-4.8,21.9-6.6c1.3-0.3,4.6,1.8,4.6,2.6c-0.3,3.3-1,6.7-2.5,9.6c-1.9,3.6-4.9,6.6-7,10.1
		c-1.3,2.1-0.5,4,2.2,4.3c3.8,0.4,7.6,0.8,11.4,1c7.3,0.3,14.6,1.2,21.8,0.4c4.2-0.5,8.6-3.3,11.9-6.2c2-1.7,2.9-1.3,4.9-0.9
		c2.6,0.5,6.7,1,8.1-0.5c7.6-7.9,16.8-8.2,26.8-7.6c21.6,1.2,39.9,10.5,57.7,21.7c9.5,6,19.2,11.8,29.1,17.1
		c5.1,2.7,8.9,0.3,9.2-5.5c0.3-4.4,0.3-9.1-0.8-13.3c-1.1-4.2-3.6-8.1-5.6-11.9c-0.9-1.7-3-3-3.6-4.8c-2.8-9-9.9-11.7-18.2-13
		c-8-1.2-16-2.6-24-4c-2.3-0.4-4.4-1.3-6.6-2.1c-6.7-2.4-13.4-4.8-20.1-7.2c-7.2-2.6-9.4-7.9-6-14.6c0.5-1,1.2-2,1.6-3.1
		c4-10.3,13.3-13.1,23-7.3c3,1.8,6.9,2.1,10.3,3.2c2.4,0.8,4.6,1.9,7.5,3.2c6.4-6.3,15.7-4.3,24.2-5.4c17.1-2.1,34.4-3.5,51.5-5.2
		c0.8-0.1,1.8-0.2,2.3-0.7c7.1-6.9,16-5,24.4-4.5c10.6,0.7,21.1,1.9,31.7,3.2c6.9,0.8,13.7,2.5,20.6,3.3c6,0.7,12,0.9,18.1,1.3
		c1.7,0.1,3.5,0.4,5.2,0.7c7.7,1.7,15.4,3.6,23.1,5.1c4.1,0.8,8.2,1.3,12.3,1.8c4,0.5,8.4-0.1,12.1,1.3c3.1,1.2,5.9,4.2,7.8,7
		c1.5,2.2,0.5,5.2-2.7,5.7c-7.3,1.2-14.6,2.3-22,3.2c-6.4,0.8-12.9,1.2-19.2,2.1c-6.4,1-12.7,3-19.1,3.6c-9.7,1-16.2,12.4-13.7,20
		c0.4,1.1,0.8,2.2,1.5,3c2.3,2.6,4.7,5,7,7.6c1.8,2,3.3,2.7,6,0.9c2.5-1.7,5.5-3.4,8.4-3.5c13.4-0.4,25.7-5.2,38.2-9.2
		c11.2-3.5,22-8.7,33.4-11.2c9.9-2.2,18.2-6.7,26.6-11.8c2.1-1.2,5.7-0.2,8.5,0.3c1.4,0.2,2.5,1.6,3.9,2.2c5.3,2.3,7.9,1.3,9.3-4.3
		c1-4.1,1.3-8.5,1.8-12.8c0.5-4.1,2.5-6.6,6-9c12.6-8.6,20.7-19.8,18.1-36.2c-2.5-15.9,0.7-30.7,8.7-44.6c2-3.5,4.8-6.8,6.2-10.5
		c0.9-2.4,0.4-5.6-0.3-8.2c-1-3.5-5.9-4.9-9.1-2.4c-2.9,2.2-5.8,4.7-7.5,7.8c-2.8,5-4.9,10.5-6.8,16c-2.6,7.9-5.1,15.8-6.9,23.9
		c-2.2,10.2-3.8,20.5-5.1,30.9c-0.9,7.5-5,13.2-10.1,17.7c-5.4,4.7-14.5,2.7-21.5-4.1c-5.6-5.3-12.1-9.8-15.4-17.4
		c-0.9-2.1-4.7-4-7.3-4.3c-8.3-0.9-15-4.3-22.1-8.9c-11.4-7.3-24.5-12.7-38.8-11c-13.6,1.7-26.8-0.6-40.2-1.6
		c-9.3-0.7-18.6-0.3-27.9-0.3c-12.3,0-24.6,0.1-36.8,0c-10.1-0.1-20.3-0.8-30.4-0.2c-4.9,0.3-9.7,3.2-14.6,4.5
		c-3.3,0.9-6.7,1.1-10.1,1.6c-4.6,0.7-6.3-2.3-7.2-5.9c-1-3.9,1.3-6.2,4.5-7.3c13.3-4.5,26.7-8.8,40-13.1c4.1-1.3,8.2-2.6,12.3-4
		c4-1.4,8.1-2.8,12-4.5C614.8,542.7,616.5,541.2,619.2,539.5z M593.2,671.1c5,1.9,9.7,3.5,14,5.6c1.3,0.6,2.6,2.8,2.5,4.3
		c-0.2,12.4-0.2,24.9-1.1,37.2c-0.9,12.4-2.9,24.5-9.7,35.7c-5.7,9.4-13.9,16.4-20.6,24.8c-4.9,6.1-9.2,12.9-13.2,19.7
		c-3,5.1-4.9,10.9-7.6,16.2c-2.1,4.3-5.8,8.3-6.5,12.8c-1.3,8.6-1.6,17.6-1,26.3c0.5,8.6,2.6,17,3.8,25.6c0.9,6.6-1.8,13-9.7,12.4
		c-2.3-0.2-4.7,0.3-6.9,0.7c-1,0.2-2.4,0.7-2.8,1.5c-2.4,5.9-5.6,11.8-6.7,18c-1.2,6.3-3.1,11.3-8.6,15.1c-3.3,2.3-5.2,6.4-8.3,8.9
		c-6.7,5.4-14,10.1-20.6,15.7c-4.9,4.1-11.3,8.3-13,13.8c-2.7,8.2-8.4,11.7-14.8,14.8c-10,4.9-16.1,1.4-18-9.4
		c-1.5-8.4,1.2-13.5,9.1-17.1c8.6-3.9,16.6-8.1,22.8-15.8c5.2-6.5,5.6-7,0.1-13.4c-5.8-6.8-5.9-12,3.1-17.8
		c9.3-6,19.3-10.4,30.6-10.6c7.3-0.2,9.6-5.5,12.2-10.8c2-4.1-1.4-6.3-3.3-8.6c-2.4-2.9-5.4-5.8-8.8-7.2c-2.3-1-6.1-0.1-8.5,1.3
		c-2.1,1.2-3.5,4-4.6,6.3c-4.8,9.6-12.3,13.1-22.8,11.6c-11.7-1.6-17.9-11.9-13-22.5c1.4-3.1,2.2-7.1,4.6-9
		c4.5-3.5,10.1-5.5,15.1-8.5c5.7-3.5,12.9-4.1,17.6-9.7c3.4-4,3.5-8.5-1.2-10.9c-2.1-1.1-4.7-1.7-7.1-2c-9.6-1-18.8-2.7-25.3-11
		c-2.8-3.6-3.6-7.2-0.2-10.1c3.9-3.4,8.4-6.4,13-8.8c5.2-2.7,7.2-5.6,4.6-10.5c-3-5.5-3-11.1-2.3-16.9c0.8-6.6,4.1-9.6,10.9-9.6
		c2.5,0,5,0.2,7.5-0.2c1.2-0.2,2.3-1.6,3.4-2.4c-1.1-0.9-2-1.9-3.2-2.6c-2.4-1.4-5.3-2-7.3-3.8c-6-5.3-11.9-10.8-17.6-16.5
		c-5.6-5.6-4.5-12,2.5-15.9c1.3-0.7,2.6-1.5,3.7-2.5c4.9-4.1,4.5-7.3-0.3-11.7c-9.3-8.6-19.9-7.8-30.9-4.8c-1.2,0.3-3,1.4-3,2.3
		c-0.4,6-4.2,6.3-8.8,5.7c-1.1-0.1-2.4,0.1-3.4,0.6c-14.5,8.3-31.8,9.1-46.3,17.7c-7.7,4.5-12.2,11.2-16.4,18.3
		c-2,3.4-3.5,7.1-5.5,10.6c-4.4,7.8-10.4,15.1-13.1,23.4c-2.7,8.5-7.3,15.3-11.9,22.6c-3.5,5.6-8.7,12-2.1,19.1c0.9,1,1.7,2,2.6,3
		c8.4,10.7,16,21.5,15.7,36.2c-0.1,4.5,2.3,9.2,3.7,13.7c2.8,9.2,11.5,13,17.5,19.2c1.5,1.5,2.3,4.1,2.7,6.3
		c0.8,5.5,1.2,11.1,1.7,16.6c0.5,5.7,1.1,11.4,1.5,17.1c0.5,6.4,0.8,12.9,1.4,19.3c0.6,6,2.6,12.2,1.8,17.9
		c-1.5,11.1-7.7,20.7-13.5,30.2c-2.2,3.6-5.9,5.2-10,3.6c-7.2-2.9-14.5-5.9-21.4-9.4c-9.6-4.8-10-9.3-7.1-19.9
		c2.1-7.6,4.7-15.2,6-23c0.9-5.4,0.5-11.2,0-16.7c-0.3-2.9-3.7-5.4-5.7-2.8c-3.6,4.5-8,8.6-8.9,15.1c-1.5,11.5-6.3,20.6-19,23.7
		c-8,2-13.1,10-12.1,18.5c0.7,5.8-1.3,10.4-4.6,14.7c-3.8,5-7.8,9.9-11.1,15.2c-1.2,1.9-1.2,5.8,0,7.6c2.9,4.6,6.6,8.7,10.4,12.6
		c9.5,9.7,20.9,17.5,28.8,28.9c4.8,6.9,10.5,13.1,16.3,19.3c10.4,11.2,21,22.1,31.7,33c9.1,9.4,18.4,18.6,27.7,27.9
		c3.1,3.1,6.3,6.2,9.6,9.1c5.1,4.5,10.2,9,15.4,13.3c10.2,8.5,20.3,17.1,30.7,25.2c10.5,8.2,21.3,15.8,32.1,23.7
		c5.1,3.7,10.1,7.5,15.4,11c3.4,2.3,7.5,6,10.7,5.5c6.4-0.9,12.5,0.3,18.6,0c13.7-0.7,27.3-3.1,40.9-4.8c6.6-0.8,13.1-1.5,19.7-2.4
		c3.9-0.5,8-0.6,11.7-1.9c9.6-3.5,19-7.5,28.5-11.3c4.2-1.7,8.7-2.8,12.4-5.1c11.7-7.5,13.4-8.9,8.9-22.4c-1.1-3.4-2.1-7-2.4-10.6
		c-1-9.7-5.4-17.7-12-24.5c-2.9-3-6.5-4.1-10.5-2.6c-6.2,2.3-12.4,4.7-18.6,7c-7.3,2.8-14.4,6.8-22,8c-15.7,2.5-30.9,7.9-47.2,7.2
		c-7.2-0.3-16.8-5.5-19.8-12.1c-1.5-3.4-3.2-6.8-4.3-10.3c-0.9-2.8-2.4-6.3-1.5-8.7c0.9-2.4,4.2-4.4,6.9-5.3
		c5.1-1.8,10.7-2.4,15.8-4.2c8-2.7,15.7-6.7,23.8-8.7c9.4-2.4,19.3-3,28.9-4.9c6.7-1.3,13.1-3.6,16.7-12.2c-4.6,0.4-8,0.9-11.5,1
		c-21.1,0.3-42.2,0.1-62.9-5.3c-7.1-1.9-14.1-4.7-18-10.8c-5.9-9.1-5-19.3-1-29.1c4.3-10.5,13-17.4,20.8-25.1
		c3.3-3.2,7-6.1,10.9-8.5c6.3-3.9,14.2-2.6,19.8,2.1c2.9,2.4,6.1,5,9.6,6c10.9,3.3,20.7-0.6,29.8-6.3c1-0.7,2.1-3.4,1.6-4
		c-4.4-5.7-8.5-11.8-13.8-16.6c-7.4-6.8-19.2-10.2-16.4-24c0.3-1.3,0.3-2.7,0-3.9c-0.4-1.3-1.1-2.9-2.1-3.5
		c-8.2-5.3-16.8-9.9-24.6-15.7c-4.8-3.6-9.9-8.2-11.9-13.5c-3.4-8.8,7.2-21.9,16.7-21.4c7.7,0.4,15.4,2,23,3.5
		c4.7,0.9,9.4,2.2,13.7,4.2c3.1,1.5,6.3,3.9,8.2,6.8c4.1,6.3,5.2,13.3,4,21c-1.5,9,2.9,13.4,11.9,12.6c6.9-0.6,13.7-1.6,20.6-2.5
		c11.4-1.4,13.1-8.7,10.5-19.3c-1.6-6.6-2.4-13.8-1.7-20.5c1.1-10.4,3.9-20.7,5.9-31.1c0.4-2,1-3.9,1.3-5.8c1.6-10,3.7-19.9,4.7-30
		c1-9.8-3.5-18.4-7.5-27c-2.8-6-5.5-12.1-7.6-18.3c-2-6.1-3.2-12.4-4.7-18.7c-3.7-15.3-3.7-30.7,2.7-45c5.1-11.4,5.3-23.2,6.8-35
		c0.4-3.1,0.7-6.3,0.3-9.4c-1.1-8.8-3.6-17-9.2-24.2c-2.6-3.3-1.2-7.2,2.1-10c3.2-2.7,6.1-5.6,9-8.6c2.2-2.3,1.6-4.8-0.9-6.3
		c-4.4-2.6-9.1-4.6-13.5-7.2c-4.1-2.4-8.5-4.6-11.7-7.9c-2.6-2.7-5.3-3.9-8.3-2.8c-2.1,0.7-3.6,3.3-5.3,5c-2.1,2.1-4.2,4.2-6.3,6.2
		c-1.3,1.2-3.4,2.2-3.7,3.6C593.4,663.7,593.4,667.8,593.2,671.1z M793.4,865.7c-2.3-5-4.2-11-7.6-15.7c-2.3-3.1-7.5-3.9-10.4-6.8
		c-6.6-6.6-13.1-4.3-19.9-1.1c-5.8,2.7-11.6,5.7-17.7,7.7c-14,4.6-27.2,10.1-37.9,20.9c-3.2,3.3-3.6,5.4-0.8,8.7
		c6.7,7.7,13.8,15.2,19.8,23.5c4.4,6,9.6,8.8,16.7,8.9c4.2,0,7.5-1.1,9.8-5.1c2.7-4.7,5.6-9.5,9.4-13.2c4.3-4.2,9.7-7.4,14.8-10.8
		c2.5-1.7,5-2.5,8.6-1.1c2.5,1,7.1,3.6,9.3-0.9C789.7,876.2,791.2,871.4,793.4,865.7z M755.9,802.4c-3.9-2.8-7.8-5.7-11.8-8.4
		c-0.7-0.5-1.9-0.2-2.9-0.1c-1.7,0.1-3.5,0.7-4.9,0.2c-8.7-2.6-16.4,1.2-24.2,3.6c-6.2,1.9-12.1,5.1-18.2,7.3
		c-3.6,1.3-7.4,2.1-6.4,7.4c0.1,0.7-0.8,1.8-1.4,2.5c-3.7,4.9-1.4,11.3,4.3,13.2c5.2,1.7,11.4-0.6,16,4c0.4,0.4,1.6-0.1,2.4-0.2
		c7.1-0.8,14.2-1.2,21.1-2.7c5.9-1.3,12.8-2.6,16.7-6.4C751.8,817.6,757.3,811.2,755.9,802.4z M978.4,809.6
		c-6.1,1.1-10.8,2-15.5,2.8c-6.2,1.1-12,2.6-16.8,7.6c-4.1,4.3-9.2,7.9-14.4,10.8c-4.7,2.7-10.2,3.8-15.1,6.1c-2.2,1-4.7,3-5.5,5.2
		c-2.4,6.8,2,11.4,6.3,15.6c2.9,2.8,11.5,2.8,15.3,0.8c11.3-6,22.7-11.8,34.1-17.7c0.9-0.4,1.9-0.8,2.9-0.8c8.2,0.5,11-4.4,12-11.9
		C982.5,822.2,979.7,815.9,978.4,809.6z M749.8,695.9c-13,1.3-24.6,3.1-34,11.1c-1.2,1-2.8,3.7-2.5,4.1c3.4,3.8,6.6,8.6,11,10.7
		c12.5,6,25.7,10,39.7,11c5.7,0.4,11.7,1.3,15.6-4.1c4.4-6.1,3.6-11.3-1.8-19.2c-0.7-1-1.1-3-0.6-4c2.1-3.9-0.4-5.5-3.3-6
		C765.5,698,757.1,696.9,749.8,695.9z M969.9,663.3c0.7-6.9-4.2-10.6-8.7-14c-4.2-3.2-7.9-1.9-10.7,2.7c-1.3,2-2.9,4.2-4.9,5.2
		c-8.1,4.2-15.1,9.5-19.6,17.5c-4.5,7.9-6.9,16.1-1.9,24.8c3,5.3,5,6,10.3,3.6c1.3-0.6,2.8-1.1,4.2-1.3
		C960.3,697.9,968.3,681.9,969.9,663.3z M227.8,966.1c0-3.3-1.8-6.7-5.4-5.7c-6.6,1.8-13.4,4-19.3,7.4c-2.4,1.4-2.9,6.4-3.8,9.8
		c-2.9,10.8-2,21.4,1.9,31.7c0.4,1.1,1.4,2.6,2.5,2.9c6,1.9,9.3,6.4,12.4,11.5c3.3,5.4,8,5.9,13.1,2.2c2-1.5,3.7-3.3,5.4-5.1
		c2.7-2.8,2.9-5.4,0.2-8.7c-4.1-4.9-7.4-10.2-7.2-17C228,986.4,227.8,977.8,227.8,966.1z M880.3,714.2c-0.3-0.4-0.6-0.7-0.9-1.1
		c-1.6,1.3-3.7,2.3-4.7,4c-2.6,4.3-5.4,7.4-11.1,6.2c-0.9-0.2-2.8,1.3-3.4,2.5c-4.2,8.2-8.7,16.3-12.1,24.9
		c-5.9,15.1-10.4,30.9-16.8,45.8c-3.8,8.8-6.1,17.6-5.2,26.9c1.1,10.9,3.2,21.7,4.8,32.2c2.6,0.8,4.5,1.4,7,2.2
		c0-4.4,0.8-8.5-0.1-12.2c-2.7-10.7-1-21.2,1.3-31.5c1.9-8.6,5.4-16.8,8-25.3c0.8-2.6,0.7-5.6,1.6-8.2c3.2-8.9,6.3-17.7,10.1-26.4
		c4.2-9.7,8.8-19.2,13.6-28.5C874.6,721.6,877.6,718,880.3,714.2z M922.5,655.2c1.5-0.2,2.1-0.1,2.5-0.3c8.4-5.2,14.5-12.4,19.2-21
		c0.5-0.9-0.6-3.2-1.6-4.2c-3.5-3.4-8-6-10.7-9.9c-3.3-4.8-5-6.5-10.1-3.6c-3.6,2-6.4,5.5-9,8.8c-1.1,1.4-1.8,4.4-1,6
		c1.9,4,4.2,8,7.2,11.2C922.4,645.9,925.6,649.2,922.5,655.2z M287,885.1c1.6,4,2.6,7.2,4.3,10.2c0.6,1.1,2.8,1.1,4.2,1.8
		c0.9,0.4,1.4,1.5,2.3,1.8c2.5,0.9,5.4,2.7,7.6,2.1c3.4-0.9,6.5-3.5,9.6-5.5c4.5-3,4.8-8.4,1.3-12.5c-2.8-3.3-5.5-6.8-7.7-10.5
		c-3-4.8-7.5-5.5-11.5-1.4c-1.7,1.8-3.7,3.4-5.1,5.4C290.1,879.3,288.6,882.3,287,885.1z M281,956.1c0.4,0.3,0.9,0.7,1.3,1
		c1.5-1.3,2.9-2.7,4.4-3.9c0.9-0.7,2.3-1.9,3.1-1.6c3.8,1.4,7.1,1.4,8.5-3c1.1-3.2,2.5-6.7,2-9.8c-0.6-3.7-2.8-7.3-4.7-10.7
		c-0.6-1.1-2.8-2.2-4.1-2c-4.5,0.9-8.9,2.2-13.3,3.6c-2.7,0.9-3.3,2.4-1.1,4.8c1.1,1.2,2.1,3,2.3,4.6
		C280.1,944.7,280.5,950.4,281,956.1z"/>
	<path class="st0" d="M946.8,319.3c6.1-3.3,9.5-2,14.6,5.9c2.1,3.3,3.8,6.8,5.9,10.1c0.6,0.9,1.6,1.7,2.6,2.1
		c7.3,2.5,11.9,7.4,13.9,14.9c0.4,1.5,1.8,2.8,2.4,4.3c2.3,5.7,6.2,11.3,2,17.8c1.8,11.5,0.8,23.2,7.8,34c7.6,11.8,9.1,25.3,0.8,38
		c-2.4,3.7-6.5,6.6-10.2,9.3c-3.5,2.6-7,0.5-10.2-1.3c-3.4-1.9-6.9-3.6-10.3-5.6c-5-2.9-10.1-5.6-14.8-8.8c-9-6-18.2-11.5-29.1-13.7
		c-4.1-0.9-7.9-3.5-11.8-5.2c-4.7-2.1-9.4-4.1-14.1-6.2c-4.9-2.3-9.9-4.6-14.7-7.1c-11.3-6-23.2-8.3-35.9-6.3
		c-2.3,0.4-5.1,0.2-7.1-0.8c-4.6-2.2-4.9-6.4-2-9.9c3.1-3.6,3.6-7.6,3.6-11.9c0-6,2.7-10.6,7.6-13.7c3.7-2.4,3.5-5,1.6-8.4
		c-2.5-4.4-4.5-9-6.8-13.6c-0.4-0.7-1.1-1.9-0.9-2.3c3.5-5.5,6.4-11.8,11.1-16c2.9-2.5,8.8-2.2,13.4-2.2c14.9-0.1,26,8.8,37.5,16.7
		c8,5.5,16.5,10.2,24.7,15.3c1.4,0.8,2.9,1.9,3.6,3.2c2.1,3.8,4,7.6,5.6,11.6c2.8,6.9,5,14,7.9,20.8c4.2,9.6,5.5,20.7,13.7,28.3
		c2.2,2,5.2,3.2,7.9,4.6c0.7,0.4,1.6,0.5,2.3,0.9c2.1,1.1,4.6,3.6,6.1,3.1c3.2-1,6.2-3.3,8.6-5.7c3.5-3.4,1.1-8.6-2-13
		c-1.2-1.6-2.1-3.4-3.1-5.2c-0.4-0.7-0.5-1.6-0.9-2.3c-3.3-7.5-6.7-15-9.9-22.5c-0.9-2.3-1.2-4.8-1.6-7.3
		c-1.7-10.1-8.7-16.5-15.6-22.9c-6.6-6-13-12.7-20.6-17c-6.8-3.9-11.9-10-19.8-12.7c-6.8-2.2-12.5-7.8-18.8-11.7
		c-3-1.8-6.3-3-9.5-4.5c-1.2-0.6-2.7-0.8-3.6-1.6c-5.8-5.4-12.3-4-19.2-2.7c-7.5,1.4-15.1,2-22.7,2.7c-3.3,0.3-6,0.2-7,4.6
		c-0.4,1.6-3.8,3.2-6,3.5c-10.3,1-19.1-3.5-27.8-8.2c-6.5-3.6-13.1-7.1-19.9-10.2c-6.5-3.1-13-6.7-20-8.2
		c-5.7-1.3-12.1-0.5-18.1,0.2c-18.9,2.4-37.9,4.8-56.7,8c-7.9,1.4-15.4,4.8-23.1,7.4c-1.1,0.4-2,1.7-2.7,2.8
		c-3.4,4.9-7,9.7-10.1,14.8c-2.3,3.8-5,5.5-9.5,4c-4.9-1.6-8.9-1.2-11.3,4.7c-0.7,1.7-4.3,3-6.6,3c-2.9,0.1-5.4-1.4-6.7-4.8
		c-1.8-4.7-4.7-9-6.8-13.6c-0.8-1.8-1.8-4.6-1-5.8c2.9-4.2,6-8,11.6-10c6.6-2.4,12.4-7.1,18.4-11.2c6.2-4.2,12.1-8.6,18.1-13.2
		c2.7-2,5-4.5,7.5-6.7c1.5-1.3,3-3,4.7-3.5c6.3-1.8,12.7-3.4,19.1-4.4c7.3-1.1,14.9-1.1,22.2-2.4c2.4-0.4,4.5-3.2,6.7-4.9
		c-2.4-2.1-4.7-5.8-7.1-5.9c-8.3-0.4-16.5-2.5-25.1,1c-6.6,2.7-14.6,1.4-21.5,3.5c-9.3,2.8-18.3,6.7-27,10.9
		c-4.8,2.3-8.7,3.4-13.9,0.9c-4.3-2.1-9.5-3.5-14.3-3.7c-9.6-0.4-19.2-2.4-28.9,1.7c-3.9,1.6-9.5-0.7-14.3-1.4
		c-1.9-0.3-3.8-1.1-5.7-1.7c-5.1-1.6-5.7-4.6-2.6-8.8c2.8-3.8,6.1-5.7,10.8-6.1c2.4-0.2,4.7-1.5,7.1-2.3c7.1-2.7,14-5.9,21.2-8.1
		c11-3.3,22.2-5.6,33.3-8.7c8.6-2.4,17.1-5.3,25.6-8.1c2.1-0.7,4-2,6-3c0-0.4-0.1-0.9-0.1-1.3c-4-0.5-7.9-1.1-11.9-1.4
		c-4.6-0.3-9.2-0.5-13.7-0.4c-10.2,0.2-20.5,0.7-30.7,0.9c-11.9,0.2-22.8,4.1-33.6,8.7c-12.4,5.2-25.1,8.6-38.7,6.3
		c-5.1-0.8-9.2-7.6-7-12.4c5.6-12.3,13.5-18.7,23-16.9c4.9,0.9,9.1,0.3,13.6-0.7c9-2.1,17.2-5.4,21.8-14.1c1-1.9,0.9-4.6,0.7-6.9
		c-0.2-2.1-1.4-4.1-2-6.1c-2.3-7.5-8.2-10.2-15.4-6.9c-1,0.5-2.2,0.7-3.3,1c-15.7,3.2-31.3,6.5-47.4,4.4c-9.4-1.2-18.9-1.6-28.1-3.4
		c-14.5-2.9-26.1-11-35.1-22.6c-1.5-1.9-1.3-5.2-1.9-8.2c-6.7,2.6-13,3.6-19-1c-0.8-0.6-2.3-0.7-3.4-0.5
		c-15.4,2.7-30.3-2.5-45.5-3.4c-3.3-0.2-6.3-3.8-9.6-5.5c-4.1-2.1-4.2-5.5-3.7-9.4c0.1-1.1-0.8-2.4-1.2-3.6c-1.3,0.5-3,0.6-3.8,1.5
		c-2.3,2.9-4.5,6-6.3,9.2c-4.5,7.8-12.6,9.9-19.9,13.2c-4.8,2.2-10,3.6-14.8,5.8c-1.2,0.5-2.3,2.7-2.3,4.1c-0.1,3.5-1.7,4.5-4.8,3.7
		c-4.2-1.1-7.8-0.3-11.4,2c-2.3,1.5-5.3,2-7.8,3.3c-4,2-7.9,3.6-10.7,8.1c-2.6,4.2-8.3,6.3-12.2,9.8c-8,7.1-15.6,14.5-23.5,21.7
		c-2.4,2.2-2.3,3.7,0,6.2c3.1,3.3,6.2,7,8.2,11c2.8,5.7,20.5,12,26.7,8.9c7.1-3.6,14.9-5.8,22.2-9.1c4.5-2,8.7-4.9,12.8-7.6
		c3.7-2.4,6.8-1.5,9,1.9c2.3,3.5,0.1,6-2.7,7.9c-7.4,5.2-14.4,11-22.3,15.4c-5.1,2.8-11.3,3.5-17,5.3c-2.2,0.7-4.6,1.2-6.5,2.4
		c-13.2,8.7-28.5,10.5-43.6,13.1c-17.9,3.1-29.4,13.2-36.8,29.7c-2.8,6.1-8.4,11.9-14.1,15.6c-12.5,8.1-25.9,14.9-39.1,21.8
		c-4.2,2.2-9.2,2.9-13.6,4.7c-1.9,0.8-4.3,2.5-4.8,4.3c-1.8,6.1-5.7,10.3-10.1,14.4c-2.9,2.7-4.9,6.3-7.4,9.5c-1.6,2-4,3.7-4.7,6
		c-1.3,3.9-1.6,8-2.2,12.1c-0.6,4.8-1.1,9.5-1.5,14.3c-0.1,1.3-0.3,2.9,0.3,3.9c4.5,7.5,5.1,15.6,4.3,23.9c-0.2,2.8-0.6,5.6-1.6,8.2
		c-2.3,6.4-1.8,12.5,0.5,18.9c2.5,7,0.1,13.7-4.2,19.2c-7,8.9-17,11.2-27.7,10.6c-1.5-0.1-3.8-1.9-4.1-3.3c-0.9-4.3-1.8-8.8-1.2-13
		c1.7-12.1,4.6-24.1,6-36.3c0.7-6.1-1.8-12.5-1.6-18.7c0.2-8.2,1.7-16.3,2.7-24.5c0.5-4.1,0.7-8.3,1.3-12.4
		c1.2-8.9,2.1-18.4,9.8-24.3c5.1-3.9,11.3-6.9,17.5-8.6c6.9-1.9,9.7-3.8,9.4-10.9c-0.3-9.7,4.2-16,13.7-18.6
		c10.3-2.8,20.6-5.3,30.9-8.2c6.7-1.9,10.1-7.3,12.5-13.2c1.7-4.3,2.3-9,3.4-13.5c0.8-3.4,1.6-6.7,2-10.2c0.8-6.5,3.4-8.9,10-8.9
		c7.5,0,20-9.4,23.1-17.5c0.8-2.2,1.2-4.6,2.4-6.5c2.1-3.2,4.4-6.3,7.2-9c6.8-6.4,14.6-11.7,19.3-20.2c2-3.5,5.7-6,8.5-9
		c9.7-10.4,19.4-20.9,29.1-31.2c4.6-4.9,10.2-8,16.9-10c6.3-1.9,12.2-5.6,17.8-9.3c7.9-5.1,16.8-9.1,21.8-17.7c2.6-4.5,5-9.1,7-13.8
		c1.5-3.3,5.8-4.8,9.8-2.7c1.3,0.7,2.4,1.6,4.7,3.2c0.8-1.2,1.4-2.7,2.4-3.7c9.7-10.6,18.8-21.8,29.3-31.6
		c8.3-7.7,19.8-9.8,30.6-12.2c5.6-1.2,11.5-0.9,17.3-1.4c1.2-0.1,3-0.4,3.3-1.2c2.4-4.6,5.5-2.8,9.3-2.2c9.2,1.5,18.7,2.4,27.8-1.1
		c0.7-0.3,1.3-1,2.5-1.9c-3-5.7-5.7-11.5-9.1-16.9c-2.7-4.3-4.9-8.4-2.3-13.4c2.6-5,7.8-4.5,12-4.3c8.7,0.5,17.5,1.6,25.9,3.6
		c9.5,2.3,18.6,6,27.9,8.9c2,0.6,4.2,0.7,6.3,1c1.6,0.3,3.4,0.3,4.7,1.1c6.3,4.2,12.7,8.2,18.5,13c6.5,5.3,12.4,11.2,18.4,17.1
		c1.4,1.4,2.8,3.6,2.9,5.5c0.6,7.5,4.1,13.4,8.1,19.5c5.9,9,10.8,18.5,16.4,27.6c1.6,2.5,4.3,4.3,6.5,6.4c2.9,2.7,6,5.2,8.7,8
		c6.2,6.3,11.8,13.1,18.4,18.9c4.9,4.3,11.3,6.9,16.5,10.9c11.9,9.4,23.7,19,35.2,29c6.1,5.3,13.1,8,20.3,11
		c7.2,3,14.2,7.1,20.5,11.8c5.5,4.1,11.7,2.8,17.5,3.6c2.1,0.3,4.8-3,6.9-5c7.3-7.3,10.3-7.1,18.9-1.4c7.2,4.8,15.4,8.1,23.2,12.2
		c5.7,3,11.4,6.1,17.1,9.1c6.4,3.4,13,6.4,19.3,10c6.1,3.6,11.9,7.7,17.7,11.9c1.3,1,2,2.8,3,4.3c1.8,3,2.9,7.4,5.6,8.7
		c10.3,5.1,16.9,14.4,25.8,20.9c6,4.4,11.7,9.1,17.4,13.8c1.1,0.9,1.9,2.7,2,4.2c0.2,3.6,2.3,4.9,5.2,6.5c4.6,2.5,8.7,5.9,13.1,8.8
		c6,4.1,12.1,8,18.1,12.1C941.4,315.2,944,317.3,946.8,319.3z M851.5,266.1c0.3-0.7,0.5-1.3,0.8-2c-8.8-6.9-17.2-14.3-26.4-20.5
		c-8.7-6-18.2-10.8-27.5-16c-5.8-3.2-11.7-6.2-17.6-9c-1.6-0.7-3.7-1.1-5.3-0.7c-3.5,0.9-5.6-0.7-8.5-2.2c-3.3-1.7-7.9-1.5-11.7-1.1
		c-1.1,0.1-2.9,4.4-2.5,6.3c1.1,4.9,4,8.8,9.1,11.1c4.8,2.2,9.5,4.7,13.6,8c7.6,6.1,16.2,10.2,25,13.7c3.7,1.5,6.2,3.2,6.9,6.9
		c0.7,3.5,2.7,4.7,5.9,4.7c5.1,0.1,10,0.7,14.6,3.8c2.3,1.5,6.1,1.8,9,1.3C841.8,269.5,846.6,267.5,851.5,266.1z M552.6,113.4
		c1.2-3.9,0-7.4-4.9-7.9c-11.7-1.4-23.4-2.7-35.2-3.4c-15.3-0.9-29.6,4.6-44.3,8c-1,0.2-2.2,1.2-2.4,2c-0.2,0.8,0.5,2.3,1.3,2.9
		c10.9,7.7,22.9,12,36.4,10.7c13.9-1.3,27.9-2.7,41.8-4C552.2,121,552.6,120.8,552.6,113.4z M376.3,85.2c2.5,2.6,3.6,4.5,5.2,5.4
		c3.1,1.7,6.8,4.4,9.6,3.8c10.4-2.5,20.4-6.4,30.7-9.2c5-1.4,10-3.3,15.5-0.8c1.8,0.8,5.3,0.2,7-1.1c3.4-2.5,6.6-5.7,9.1-9.1
		c3.7-4.8-2.1-16.5-8.1-16.2c-6.2,0.3-13.6-2.3-17.9,5.1c-0.4,0.7-1.6,1.1-2.6,1.4c-8.8,2.7-18,4.7-26.5,8.3
		C391,75.9,384.2,80.7,376.3,85.2z"/>
	<path class="st0" d="M388.8,181.6c9.3-0.6,16.2,5,23.4,9.1c12.8,7.5,24.7,16.5,37.7,23.7c7.3,4,15.9,5.7,23.9,8.4
		c5.8,2,11.6,3.9,17.4,5.9c0.6,0.2,1.4,0.4,1.7,0.9c5.7,7,12.4,13.4,12.6,23.5c0,1.9,1.2,4.1,2.5,5.6c5.9,7.1,13.6,11.8,22,15.7
		c3.9,1.8,7.7,3.9,11.2,6.4c1.6,1.1,2.8,3.5,3.2,5.4c1.5,8.7-5.3,23.1-13.1,27.3c-6.8,3.7-13.8,7-20.8,10.4
		c-3.4,1.7-6.6,0.5-7.1-2.9c-1.3-9.3-8.7-12.1-15.5-12.7c-12.1-1.1-24.5,0.1-36.7,0.2c-5.7,0-11.5-0.8-17.2-0.7
		c-6.9,0.1-13.9,0.2-20.8,1c-13.8,1.6-22.6-9.5-25.5-19.3c-1.9-6.5,2.9-14.3,9.6-15.4c12.8-2,25.6-3.5,38.4-5.3
		c3.3-0.5,6.6-0.9,9.7-2.1c3.7-1.4,2.7-4.8,0.6-6.4c-4.9-3.8-9.9-8.3-15.7-10.1c-7.1-2.2-15-2.4-22.6-2.7
		c-8.1-0.2-12.5-2.8-14.3-10.8c-1.2-5.2-5.7-5.3-9.3-6.2c-8-2.1-16.2-3.3-24.3-5c-1.8-0.4-3.5-1.2-5.1-1.9c-3.7-1.5-4.5-4.3-1.7-6.9
		c3.4-3.2,3.9-6.9,3.7-11.3c-0.2-6.4,8.2-17.3,14.3-19.3c3-1,5.8-2.7,8.8-3.4C382.8,181.8,385.8,181.9,388.8,181.6z"/>
	<path class="st0" d="M344.3,477.3c-2,1.6-3.9,3.1-5.8,4.7c-0.9,0.7-1.5,1.7-2.4,2.3c-3,2-5.9,4.2-9.2,5.6c-3,1.3-6.8,3-9.5,2.1
		c-3.9-1.3-5.2-5.7-4-9.7c1.6-5.2-0.3-8-4.9-9.6c-5.2-1.9-10.5-3.6-15.6-5.8c-1.7-0.7-2.7-2.9-4.4-3.9c-2.4-1.5-5.1-3.7-7.5-3.5
		c-13.3,1-26.5,2.4-39.7,4.2c-9,1.3-17.9,3.6-26.8,5.5c-4.6,1-17.5-4.8-19.6-9c-3-5.7-1.2-10.7,3.7-15c9.2-7.9,19.9-12.3,31.1-16.3
		c6.4-2.3,11.9-7,17.8-10.5c4-2.4,8.3-4.3,12.1-7c5.4-3.8,10.3-8.1,15.5-12.2c1.3-1,2.5-2.2,4-2.8c8.7-3.6,17.6-7,26.3-10.6
		c2.6-1.1,5.1-2.5,7.4-4.1c8.4-5.5,17.7-2.9,26.6-2.9c4.6,0,9.3,0.9,13.9,1.5c3.8,0.5,7.3,0.9,9.1-3.7c0.3-0.8,1.9-1.5,2.8-1.4
		c13.8,0.4,27.5,1.1,41.3,1.4c9.4,0.3,18.9,0.2,28.3,0.2c1,0,2.1-0.3,3,0.1c6.1,2.7,12.1,1.6,18.4,0.7c3.8-0.5,8.3,2.1,12,4.2
		c2.6,1.5,1.4,4.9-1,5.5c-8.7,2.1-14.2,9-21.5,13.2c-9.7,5.6-19.5,11.2-29.2,16.8c-0.7,0.4-1.8,0.7-2.1,1.3c-2.3,5.7-7,4.5-10.9,3.1
		c-6-2.1-11.7-5.1-17.5-7.8c-1.1-0.5-2-1.4-3-1.7c-13.8-3.6-27.5-8.9-41.9-6.6c-12.1,1.9-24,5.1-35.9,8.3c-5.6,1.5-11,3.7-16.1,6.5
		c-5.6,3.1-5.3,5.6-0.5,9.7c7.2,6.1,13.8,13.1,21.5,18.5c6.5,4.6,14,7.8,21.3,11.2c3.5,1.7,7.7,2.1,11.2,3.6
		c1.5,0.7,2.5,2.8,3.5,4.4c0.9,1.5,1.6,3.2,2.2,4.8c0.5,1.5,1.5,3.2,1.1,4.4c-0.4,0.9-2.6,1.2-3.9,1.7
		C345,478.5,344.7,477.9,344.3,477.3z"/>
	<path class="st0" d="M307.5,296.1c1.9-0.3,4-1,6.1-1.1c7.9-0.2,15.8-0.1,23.7-0.2c4,0,8.1-0.5,12.1-0.1c8.6,0.8,17.2,1.4,25.6,3.1
		c4.8,1,9.7,3.3,10.6,9.6c0.3,2.2,1.9,4.2,2.8,6.4c2.3,5.6-0.6,10.1-6.8,10.1c-3,0-5.9-0.8-8.8-1.4c-3.8-0.7-7.7-1.5-11.5-2.4
		c-4.7-1.1-9-1.2-12.9,2.8c-1.3,1.3-4.6,1.1-6.9,0.9c-4.9-0.4-9.7-1.9-14.5-1.8c-10.8,0.3-21.5,1.4-32.3,2
		c-6.6,0.3-13.2,0.5-19.9,0.4c-13.7-0.1-27.3-0.8-40.8,2.7c-4.4,1.2-9.3,0.6-13.9,1.4c-5.4,0.9-10.8,3.9-15.9,3.4
		c-6.4-0.7-11.9,0.1-17.8,2c-3.6,1.1-6.1-1.6-4.8-5.2c0.9-2.6,2.8-5.6,5.1-6.9c7-4,14.4-7.4,21.7-10.9c4-2,8.1-5.5,12-5.3
		c5.3,0.2,6.8-3.1,9.4-5.9c0.6-0.7,1.4-1.8,1.2-2.6c-1-4.7,2.7-6.2,5.6-7.7c4.8-2.5,7.8-5.9,9.4-11c0.8-2.5,2.3-4.8,3.5-7.1
		c1.8-3.4,4.2-4.1,8.3-3.4c4.5,0.8,10.2,2.5,12.8-4c0.2-0.4,0.7-0.8,1.1-1c8.8-2.9,17.4-6.4,26.3-8.4c13-2.9,26.3-4.6,39.5-6.7
		c7.4-1.2,14.8-2,22.2-3c2.3-0.3,4.6-0.6,6.8-1.2c3.2-0.9,5.7-0.4,6.8,3c1.1,3.3,0.5,5.9-3.7,6.6c-3.3,0.5-6.6,1-9.7,1.9
		c-2.5,0.7-4.8,1.9-7.1,3c-2.1,0.9-4,2.3-6.2,2.9c-7.4,2.2-15,4.1-22.4,6.4c-2.1,0.6-4.3,2-5.5,3.8c-4.6,6.7-11.2,9.5-18.7,11.4
		c-3,0.8-5.9,2.2-8.6,3.7c-1.2,0.7-2.4,2.8-2.1,3.9c0.3,1.2,2.1,2.6,3.5,2.9C297.7,294.4,302.5,295.1,307.5,296.1z"/>
	<path class="st0" d="M798.3,309.9c3.8,1,8.4,1.9,12.7,3.5c3.8,1.4,8.9,11.8,8.3,15.8c-1.6,11.7-2.5,23.5-5,35
		c-1.7,7.8-5.3,15.2-8.6,22.5c-2.4,5.2-7.6,2.8-11.1,1.8c-1.9-0.5-3.4-4.2-4.4-6.7c-2.4-5.9-4.1-12.1-6.8-17.9
		c-0.5-1.1-4.5-1.7-6-0.9c-9.4,4.8-18.6,10.1-28,15c-4.2,2.2-9,3.3-13.1,5.6c-4.8,2.7-9.1,6.4-13.8,9.5c-2.4,1.5-5.2,2.4-7.8,3.7
		c-1.6,0.8-3.3,1.4-4.7,2.5c-4.3,3.5-8.7,4-13.3,0.8c-5.4-3.8-10.4-8.2-16.1-11.4c-4.8-2.8-10.4-4.2-15.5-6.4
		c-1.4-0.6-2.7-1.2-3.9-2.1c-2.4-1.9-5.9-3-4.9-7.2c1.2-4.6,3.9-7.9,8.5-8.8c10.2-2,18.6-7.7,27.3-12.7
		c15.3-8.8,29.9-18.8,48.2-21.3c7.6-1.1,15.7-3,21.7-8.9c0.6-0.6,1.4-1.3,2.1-1.2c9.7,0.5,16.7-6.9,25.7-8.6
		C792.6,311,795,310.6,798.3,309.9z"/>
	<path class="st0" d="M161.4,662.6c-1-0.7-4.4-2-5-4c-0.8-2.8-0.4-6.9,1.3-9.1c3.7-4.8,8.3-8.9,12.8-13.1c7.6-7,13.2-15.6,19.1-23.9
		c7-9.8,14.8-19.1,25.7-25.3c3.4-1.9,6.1-5,9.1-7.6c7.8-6.9,15.9-13.5,23.4-20.7c2.7-2.6,3.5-7,5.8-10.2c3.1-4.5,6.2-9.1,10.1-12.8
		c10.5-10.1,21-20.2,32.2-29.4c3.5-2.9,9.3-3.6,14.1-4.1c1.7-0.2,4.5,3.1,5.4,5.4c0.4,1.1-2.1,4.1-3.8,5.1c-3.2,1.7-4.1,3.8-4,7.2
		c0,1.9-1.1,4.2-2.5,5.5c-4.2,3.8-8.8,7.1-13.1,10.7c-0.8,0.7-1.4,1.8-2,2.8c-1.4,2.5-2.2,5.6-4.2,7.4
		c-15.4,13.9-31.2,27.2-46.3,41.3c-6.9,6.4-12.3,14.3-18.4,21.5c-0.3,0.4-0.6,0.8-0.9,1.2c-6.1,6.1-12.4,12.1-18.4,18.4
		c-8.1,8.5-15.9,17.3-24.1,25.7C173.6,658.4,169.5,662.6,161.4,662.6z"/>
	<path class="st0" d="M120.7,413.2c-2.2,2.4-3.9,4.7-5.9,6.6c-2.5,2.4-4.5,2.2-6.1-1.3c-3.3-7.1,1.1-11.9,5-16.5
		c8.5-10,17.6-19.5,26.2-29.4c1.9-2.1,2.3-5.4,4.1-7.7c7.3-9.3,18.1-13,28.6-17c3.8-1.5,8.5-1,12.8-0.9c3.2,0.1,3.7,2.7,2.8,5.1
		c-1.8,4.9-3.6,9.8-6.1,14.3c-1.4,2.6-3.9,4.9-6.4,6.7c-13.9,9.8-26.7,20.7-37.9,33.5c-1.1,1.2-1.9,2.7-2.5,4.3
		c-2.7,6.8-5.3,7.7-11.6,3.8C122.8,414.3,121.9,413.8,120.7,413.2z"/>
	<path class="st0" d="M468.2,376.6c2.1-3.4,3.9-7.1,6.3-10.2c6.6-8.5,13.7-16.6,20.1-25.2c4.3-5.7,4.8-6,12-4.3
		c8.2,2,16.2,1.9,24.4-1.2c10.4-3.9,21.5-4.7,32.5-5.3c1.6-0.1,4.6,2.2,4.9,3.8c0.4,2.1-0.4,5.5-2,6.8c-2.9,2.3-6.7,3.5-10.1,5.2
		c-4.5,2.4-9.3,4.4-13.5,7.4c-8.9,6.3-19.1,8-29.3,10.3c-6.5,1.5-12.4,4.9-18.7,7.1c-3,1.1-6.4,2.3-9.4,2c-3.9-0.5-6.7,0.7-9.6,2.8
		c-1.7,1.2-3.9,1.9-5.8,2.8C469.4,377.9,468.8,377.2,468.2,376.6z"/>
	<path class="st0" d="M168.7,446.5c5.2,0.1,7.8-4.9,11.8-7.1c0.5,0.2,0.9,0.4,1.4,0.7c-0.8,1.7-1.1,3.9-2.4,5
		c-6.8,5.5-13.3,11.4-22.3,13.1c-1.3,0.2-2.9,1.4-3.4,2.6c-1.3,3-3.4,4.1-6.5,4.5c-1.3,0.2-2.3,2.2-3.6,3.2c-2.2,1.7-4.3,4-6.8,4.7
		c-1.3,0.3-4-2.1-4.8-3.9c-1.4-3.2,0.1-5.5,2.9-8c2.8-2.6,4.9-6.7,5.7-10.5c1.5-6.9,3.9-12.7,9.3-17.6c7-6.4,13-14.1,20.4-20.1
		c5.2-4.2,12-6.5,18.1-9.7c0.7-0.4,1.5-0.7,2.2-1.1c6.4-3.9,10.9-1.4,11.3,6.1c0.1,2.1,0.6,4.2,0.6,6.3c0,2,0,4.4-1,6
		c-1.8,3.1-4.1,6-6.7,8.6c-1.5,1.5-3.7,3.7-6.2,0.8c-0.4-0.5-2-0.7-2.5-0.4c-6.3,4.9-12.5,10-18.7,15
		C167.9,445.4,168.3,445.9,168.7,446.5z"/>
	<path class="st0" d="M391,432.9c0.3,11.1-5.3,18.8-15.1,22.8c-7.6,3.1-15.5,1.5-22-3.8c-5.2-4.3-3.7-12,2.5-15
		c2.2-1.1,4.2-3,5.7-4.9c5.5-7,12.8-10.5,21.4-11.1C388.4,420.6,390.9,425.2,391,432.9z"/>
	<path class="st0" d="M623,397.2c-2-1.2-4.6-2.6-6.9-4.2c-2.1-1.5-4.3-3.1-6.1-5c-1.6-1.8-2.6-4-3.9-6.1c2.9-1.3,5.7-2.7,8.6-4
		c0.4-0.2,1.3,0.4,1.8,0.7c3.7,2.3,7,4.2,8.2-2.6c0.2-1.3,3.3-3,5.1-3c8.8-0.4,16.3,3.9,23.8,7.9c1,0.5,1.8,3.5,1.3,4.3
		c-1.7,2.5-3.8,5.7-6.3,6.4C640.6,393.9,632.4,395.2,623,397.2z"/>
	<path class="st0" d="M422.7,780c-5.9-1.8-11.1-3.3-16.3-5c-0.9-0.3-1.6-1.2-2.2-2c-3.2-4.4,0.8-17.2,5.6-19.8
		c4.2-2.3,7.9-5.7,11.8-8.7c6.9-5.2,13.3-12.2,23.4-7.3c0.3,0.1,0.7,0.3,1,0.2c8.1-2.4,10.1,2.7,11.5,9c1.1,4.7,2.6,9.3,3.8,13.9
		c0.9,3.6,0.5,6.1-4.2,7.3c-4.2,1.1-7.7,4.4-11.8,5.9C437.7,776.1,430,778,422.7,780z"/>
</g>
</svg>
