<?xml version="1.0" encoding="utf-8"?>
<!-- Generator: Adobe Illustrator 21.0.2, SVG Export Plug-In . SVG Version: 6.00 Build 0)  -->
<svg version="1.1" id="poisonbottle_xA0_Image_1_" xmlns="http://www.w3.org/2000/svg" xmlns:xlink="http://www.w3.org/1999/xlink"
	 x="0px" y="0px" viewBox="0 0 677.5 1099.7" style="enable-background:new 0 0 677.5 1099.7;" xml:space="preserve">
<style type="text/css">
	.st0{fill:#242424;}
</style>
<g>
	<path class="st0" d="M188,336.3c-0.9-10.2-2.2-20.4-2.6-30.7c-0.3-7.6,0.6-15.2,0.5-22.8c-0.1-15.4-0.3-30.9-0.9-46.3
		c-0.3-6.3-1.5-12.6-3.1-18.6c-0.7-2.6-3.2-4.9-5.4-6.8c-6-5.1-8.9-11.7-10.5-19.2c-1.4-6.4-3.6-12.7-5.3-19c-0.7-2.6-1.7-5.4-1.6-8
		c0.3-8-2.3-15.1-4.9-22.6c-1.8-5.2-6.2-11.5-0.1-17.3c0.5-0.4,0.4-2,0-2.7c-2.4-4.7-0.7-9.1,1.2-13.3c6.1-13.5,15.9-22.4,31-24.6
		c2.4-0.4,4.7-1.5,7-2.5c5-2.2,9.9-4.4,14.7-6.8c1.6-0.8,3.8-2.3,3.8-3.6c0.2-2.9-0.7-5.8-1.4-8.7c-0.4-1.5-1.3-2.9-1.7-4.5
		c-0.3-1.1,0.1-2.4-0.4-3.3c-2.8-6.3-0.8-12.4,2.1-17.6c4.5-8.2,10.8-14.8,20.2-18.1c3.3-1.2,5.6-5.1,8.9-6.6
		C248.9,8,259,6,269.5,6.1c1.5,0,3.1-0.3,4.3-1c11-6.3,23.1-5.1,35-4.9c11.3,0.2,22.6-0.1,33.9,0.7c9.5,0.7,19,2.6,28.5,3.9
		c2.8,0.4,5.7,1.3,8.3,0.9c11.2-1.9,19.8,5.3,29.8,7.7c1.5,0.4,2.8,1,4.3,1.3c7.5,1.2,15.1,1.1,21.5,7.1c3.1,2.9,9,2.7,13.5,4.4
		c2.1,0.8,4.5,2.3,5.3,4.1c1.1,2.4,1.8,4,4.7,3.9c3.5-0.1,5.5,2.2,5.3,5.3c-0.2,3.9-0.2,8.4-2.2,11.4c-3.8,5.8-3.6,11.8-3.4,18.1
		c0.1,2.6,0.8,5.5,0.2,7.9c-1.1,4,0.8,5.8,3.8,7.5c6.1,3.4,12,7.1,18.1,10.4c2.7,1.5,6.1,1.8,8.7,3.5c6.6,4.4,13,9.1,19.1,14.2
		c1.6,1.3,2.3,4.6,2.2,6.9c-0.8,10-2.1,20-3.1,30.1c-0.6,5.6-0.8,11.2-1.5,16.8c-0.6,4.4,1.1,9.3-3.8,13c-1.8,1.3-1.2,5.6-2,8.5
		c-0.9,3.1,0.2,4.5,3.3,5.4c1.6,0.4,3.5,2,3.9,3.5c0.3,1.1-1.3,3.1-2.6,4.1c-3.4,2.8-6.9,5.7-10.7,8c-9.5,5.8-10.1,14.9-9.3,24.4
		c0.7,9.4,1.9,18.8,2.7,28.1c0.2,2.1-0.3,4.3-0.5,6.4c-0.3,4.2-1.8,8.6,2.5,12c0.9,0.8,0.9,3,0.9,4.6c-0.1,6.9-0.9,13.9-0.6,20.7
		c0.6,11.2,2,22.4,2.7,33.6c0.3,5.1,3.1,8.6,7.1,10.5c12.6,6.2,25.7,11.4,37,20c0.7,0.6,1.8,0.8,2.8,1c10.5,1.5,19,6.4,26.4,14
		c2,2.1,5.3,2.8,7.6,4.5c9.3,7.1,18.8,14,27.7,21.6c6.1,5.2,11.3,11.4,17,17.1c1.8,1.8,3.5,3.7,5.7,4.8c6.1,3,7.8,8.5,9,14.5
		c0.3,1.7,0.7,3.7,1.8,5.1c5,6.8,10.6,13.2,15.3,20.2c2.9,4.3,5,9.2,6.8,14.1c2.9,8,5.7,16.2,7.8,24.5c2.5,9.7,4.2,19.6,6.3,29.3
		c0.3,1.3,0.5,3,1.3,3.7c4.3,3,3.3,7.5,3.9,11.7c0.4,2.7,1.7,5.3,1.8,8c0.1,2.2-0.3,5.6-1.7,6.5c-6.5,3.8-5.5,10.5-7.3,16.1
		c-0.7,2.2-0.7,4.6-1.6,6.7c-2.7,6.4-2.8,12.9-1.9,19.6c0.2,1.1,0.4,2.4,0.2,3.4c-3.2,12.1-1.1,24.4-2,36.6c-0.1,0.8-0.1,2,0.4,2.4
		c7.9,5.9,3.7,14.3,4.6,21.7c1.4,10.9-3.5,21.8,0.1,32.7c0.5,1.5,0.5,3.4,0.1,5c-3.9,13.2,1.1,26.3,0.6,39.4
		c-0.4,9.5,0.3,19,0.6,28.5c0.1,2.6,0.7,5.3,0.8,7.9c0.4,10.7,0.8,21.4,1.1,32.2c0.2,5.1,0.5,10.2,0.4,15.3
		c-0.1,2.8-0.9,5.6-1.4,8.4c-0.2,1-0.3,2-0.2,3c1,9.5,2.4,19.1,2.8,28.6c0.4,8.1-0.7,16.2-0.7,24.3c0.1,12.1,0.5,24.2,1,36.3
		c0.4,9.5,0.7,19,2,28.4c0.8,5.7,0.6,10.9-1.3,16.2c-0.4,1.1,0.2,2.6,0.3,3.9c0.9,7.5,3.1,15.2,2.3,22.5c-0.6,5.1-2.2,11.4-7.8,14.8
		c-1.7,1-3.5,2-5,3.2c-3.6,2.8-6.8,3.3-11.3,0.8c-3.4-1.9-8.4-2.4-12.4-1.8c-16,2.6-31.8,6.2-47.8,8.9c-14.8,2.6-29.8,4.4-44.7,6.9
		c-5.5,0.9-10.9,3-16.3,4.3c-8,1.9-16.2,3.3-24.2,5.2c-13.1,3-26.1,6.3-39.2,9c-2.7,0.6-5.8-1.3-8.7-1.3c-3.8,0-8.2-0.3-11.3,1.4
		c-6.6,3.7-13.2,5.3-20.8,5.1c-3.8-0.1-7.6,2.7-11.5,3.7c-6.6,1.7-13.2,2.9-19.8,4.4c-6.6,1.5-13.2,3.2-19.8,4.7
		c-14,3.3-28,6.4-42,9.7c-9.7,2.3-19.3,4.9-29,7.1c-3.2,0.7-6.6,0.5-9.9,1.1c-3.1,0.6-6.2,1.8-9.3,2.7c-1.3,0.4-2.5,1.1-3.8,1.1
		c-11.5-0.7-23.4-0.2-34.4-2.9c-6.7-1.7-13.5-5.3-20.5-6c-11.9-1.2-19.9-8.7-29-15c-8.9-6.2-18.5-11.4-27.7-17.2
		c-11.3-7.1-22.5-14.4-33.6-21.7c-6.3-4.1-12.4-8.3-18.6-12.5c-16.5-11-32.8-22.3-49.5-32.9c-8.1-5.1-17.1-8.6-25.4-13.4
		c-4.8-2.8-9.1-6.5-13.6-9.8c-1.2-0.8-2.5-1.9-3.9-2c-8.6-0.8-11.3-7.5-14.3-14c-5.3-11.6-5.4-24.1-6.8-36.4
		c-0.3-2.3,1.3-4.7,1.5-7.1c0.4-4,0.5-8.1,0.4-12.1c-0.2-7.4-0.5-14.9-1-22.3c-0.4-5.3-1.5-10.5-1.6-15.8c-0.1-3.7,0.8-7.3,1.2-11
		c0.3-2.8,0.5-5.6,0.6-8.4c0.3-7.6,0.7-15.2,0.8-22.9c0-7.9-0.5-15.8-0.6-23.8c-0.1-5.4,0.2-10.7,0.4-16.1c0-0.8,0.3-1.8,0-2.4
		c-5.1-10.9-0.8-22.4-2.6-33.5c-1.2-7.1-2.1-14.3-2.7-21.5c-0.3-4.6,0.5-9.2,0.5-13.9c-0.3-15.3-0.7-30.6-1.1-45.8
		c-0.2-7.6-0.8-15.3-0.7-22.9c0.1-4,2.1-7.9,2.1-11.9c-0.1-11.7-0.9-23.4-1.1-35.1c-0.2-14.3,0.8-28.8-0.4-43
		c-0.8-9.2,2.1-17.1,4.5-25.5c3-10.6,5.7-21.4,9-31.9c2.2-7.1,5.5-13.8,8-20.8c3.6-10.3,6.8-20.7,10.6-30.9c1-2.8,3-5.6,5.2-7.7
		c6.6-6.2,13.5-12.2,20.4-18.1c8-6.9,15.8-14.1,24.4-20.2c7.1-5,15.2-8.5,22.8-12.8c5.7-3.2,11.2-6.8,17-9.8c2.7-1.4,6-1.9,9.1-2.3
		c11.2-1.4,20.3-8.6,31-11.3c3.7-0.9,7.7-1.7,11.4-1.4c8,0.7,12.4-3.5,12.7-12.7c0-1.7,0-3.3,0-5C187.1,336.3,187.6,336.3,188,336.3
		z M375.6,1021.3c-1.1-2.4-1.3-3.1-1.7-3.5c-8.4-8.5-13.8-18.9-18.9-29.6c-2.7-5.6-2.9-11.4,0.3-13.2c2.9-1.6,5.7-4.7,9.8-2.1
		c1,0.6,2.7,0.5,3.9,0c6.7-2.3,13.6-4.3,19.9-7.4c9.5-4.6,18.4-10.4,27.9-14.9c4.1-1.9,8.2-3.1,10.8-7.8c-9.6-1.1-18.9-2.1-28.2-3.4
		c-3.6-0.5-7-1.9-10.6-2.6c-6-1.2-12.1-2-18-3.4c-1.2-0.3-2.1-2.3-3.1-3.6c1.3-0.9,2.7-2.8,3.9-2.7c8.3,0.8,16.5,2.1,24.8,3.1
		c8.2,1,16.4,1.9,24.6,2.9c1.1,0.1,2.8,0.1,3.2,0.7c2,3,4.4,1.8,7.1,1.5c3.8-0.5,8-1.3,11.6-0.4c7.6,1.8,14.9,5,22.5,7.1
		c6.9,1.9,14,3,21,4.5c-2.1,5.4-6.3,8.3-10.7,11.7c-12.2,9.5-23.6,20-35.4,30c-1.6,1.3-3.7,2-5.6,2.9c-0.2-0.4-0.4-0.7-0.6-1.1
		c5.5-7.2,11-14.5,16.6-21.8c-0.9-0.3-1.3-0.5-1.5-0.4c-10.2,5.4-20.5,10.8-30.6,16.5c-2.6,1.4-3.1,4.1-0.6,6.2
		c3.6,3,1.9,5.2-0.5,7.8c-4.3,4.7-8.3,9.6-12.4,14.5c1.6,0.9,2.4,0.8,3.2,0.7c8.8-1.5,17.6-3.1,26.5-4.4c2.7-0.4,5.6,0.6,8.3,0.2
		c7.5-1,14.9-2.3,22.3-3.5c4.1-0.7,8.1-1.7,12.1-2.2c10.3-1.2,19.3-9.4,31-4.5c4.2,1.8,10.1-0.3,15.2-1.1c11.3-1.8,22.5-3.9,33.7-6
		c4.1-0.7,8.1-1.6,12.8-2.6c-2.1-2.5-3.4-4.2-4.8-5.8c-6.1-7-11.9-14.3-21.9-15.8c-0.6-0.1-1.3-0.7-1.5-1.2c-1.4-4.8-5.6-4.9-9.4-6
		c-4.8-1.3-9.3-3.8-14.1-4.5c-7.6-1.2-15.4-1.4-23-2.3c-0.9-0.1-2.1-1.4-2.4-2.4c-1.3-4.3,2.8-4.2,6.2-5.8c-2.5-1.2-4-2.1-5.6-2.7
		c-6.5-2.8-13.1-5.5-19.6-8.3c-3-1.3-5.7-3.5-8.8-4c-6.2-0.9-12.7-0.3-18.9-1.5c-9.7-1.8-19.2-4.4-28.8-6.7
		c-3.5-0.9-6.9-2.3-10.5-2.9c-5.2-0.9-10.5-1.3-15.7-1.7c-0.9-0.1-2.3,0.1-2.7,0.7c-3.5,5.3-9.4,3.1-11.9,1.4
		c-4.6-3.1-7.3-1.9-11,0.6c-5.1,3.4-12.5,4.9-9.4,13.7c0.1,0.2-0.6,0.7-0.9,1c-7.1-2.5-8.3-6.2-3.6-11.7c3.7-4.4,8-8.2,11.9-12.5
		c1.9-2.1,4.3-4.1,2-7.8c-0.8-1.4,0.5-5,1.9-6.4c0.8-0.8,5.1,0.1,5.9,1.3c5.8,9.4,15.8,8.4,24,8.3c7.2-0.1,13.9,1.7,20.9,2.1
		c7.4,0.5,14.7,1.6,22.1,2.3c2.6,0.3,6-0.9,7.8,0.4c7.3,5.2,15.7,3,23.5,4.8c2.9,0.7,5.8,1.7,8.7,2.5c0,0.6,0,1.1,0,1.7
		c6.7-3,13.4-6.1,20.1-8.9c14.2-5.9,24.4-17.5,36.9-25.9c8.7-5.9,14.4-16.1,25.5-19.1c1.3-0.4,2.4-1.7,3.5-2.7
		c4.5-4,8.9-8.3,13.6-12.1c1.8-1.4,5-3,6.7-2.3c5.3,2,10.4,4.8,15.1,8c1.6,1.1,1.8,4.3,2.3,6.6c0.7,3.1,1.1,6.3,1.4,9.5
		c0.3,3,1.3,6.5,0.3,9c-1.5,3.6-4.6,6.6-6.7,9.3c-3-0.2-6.3-1.3-8.7-0.3c-3.9,1.6-7.2,4.7-11,6.7c-2.8,1.5-5.9,2.3-8.9,3.4
		c-1.2,0.4-2.8,0.1-3.8,0.7c-6.5,3.8-13,7.7-19.4,11.7c-4.8,3-9.2,6.4-14.1,9.1c-5.4,2.9-11.1,5.2-16.6,7.9
		c-0.8,0.4-1.1,1.9-1.6,2.9c0.9,0.4,1.9,1.3,2.8,1.2c1.4-0.1,3.7-0.5,4.1-1.4c2.6-5.9,6.7-3.3,10.5-2.2c3.8,1.2,7.7,4.3,11.2-0.8
		c0.5-0.7,2.5-0.6,3.8-0.6c8.1-0.3,16.3,0.2,24.2-1.2c8.3-1.5,17.3-0.5,24.9-5.5c2.7-1.8,4.7-0.7,5,2.9c0.1,1.4,0.2,3.1,1,4.1
		c2.3,3,2.3,5.8,1.2,9.3c-3,9.8-5.6,19.8-8.6,29.6c-0.9,2.8-2.1,6.2-4.2,7.6c-5.2,3.3-2.9,7.3-3,12.3c13.6-2.9,26.6-4.8,39-8.5
		c7-2,7.1-3.8,6.5-10.1c-0.7-8.2,0.8-16.6,1.4-24.9c0-0.3,0.1-0.7,0.3-1c2.1-5.7,5.1-11.2,6.2-17c1.4-7,1.5-14.2-2.1-20.9
		c-1.2-2.1-2.3-4.4-2.9-6.7c-1.1-4.8-2.1-9.7-2.6-14.6c-0.8-8.2-0.9-16.4-2-24.6c-0.6-4.8,0.5-8.7,2.6-12.6c1.6-2.9,2.7-6.1,4.3-9
		c3.8-7,4.2-14.2,1.1-21.6c-1.3-3.2-3.2-6.3-3.7-9.6c-0.5-3.4-0.9-6.2-3.9-8.6c-1.4-1.2-2.2-4.8-1.5-6.6c2-4.9,4.7-9.5,7.4-14
		c3.9-6.4,3.1-10.5-1.6-16.2c-2.4-2.9-4.7-7.5-4.3-11c0.9-7.8-2.1-14.1-6.3-19.6c-5.3-6.8-5.9-11.9,0.2-17.7
		c9.8-9.2,14.3-20.9,14.5-33.7c0.3-15.5-1.2-31-1.7-46.6c-0.1-3.9-0.8-8.7,1-11.7c3.2-5.2,1.5-10.3,1.7-15.3c0.2-4-0.9-8.1-1-12.2
		c0-2.4,0.8-4.7,1.2-7.2c-1.5-0.3-2.5-0.8-3.4-0.7c-7.4,0.7-14.7,1.3-22,2.4c-8.3,1.2-16.5,2.8-24.8,4.1c-1.2,0.2-3,0.1-3.8-0.6
		c-3-2.5-4.7-0.8-7.3,0.9c-3.5,2.2-7.8,4.4-11.6,4.3c-9.1-0.4-18,0.3-26.9,2.3c-2.6,0.6-5.2,1.2-7.8,1.1c-3.7-0.1-7.4-1.7-11-1.3
		c-8.6,1-17.1,2.8-25.7,4.4c-0.8,0.2-1.6,0.8-2.3,1.3c-2.6,1.6-5.1,4.4-7.7,4.5c-16.5,0.6-32.7,2.6-49,5.3
		c-11.4,1.9-23,2.7-34.5,4.1c-12.1,1.5-24.3,3.2-36.4,4.9c-9.1,1.2-18.3,2.3-27.4,3.7c-7.6,1.2-15.3,2.6-22.8,4.3
		c-9.4,2.2-19.3,3.1-27.4,9.2c-3.3,2.5-6.9,2.5-9.2-0.8c-2.8-3.9-6.3-3.4-9.9-3.3c-1.8,9.1-0.7,22.5,2,26.9c2.6-0.2,5.3-0.2,7.9-0.6
		c4.4-0.7,9-1.2,13.2-2.6c11.8-4.1,24.2-2.3,36.2-4.7c5.8-1.2,11.9-0.7,17.8-3c4.8-1.9,10.2-2.2,15.4-2.7c6.4-0.6,13-0.3,19.4-1.2
		c12.4-1.6,24.9-3.3,37.2-5.9c11.2-2.3,22.1-5.8,33.2-8.8c6.3-1.7,12.4-4.3,19.4-2.2c3.6,1.1,8.3,1.6,11.5,0.1
		c6.5-3.2,12.6-6.3,19.7-3.6c2.5-1.6,5.1-3.1,7.8-3.4c4.4-0.5,8.9,0,13.4-0.2c2.8-0.1,5.6-0.7,8.4-0.7c6-0.1,12.1,0.3,18-0.1
		c2.4-0.2,4.6-1.9,6.9-2.8c8-3.1,16.5-2.6,24.8-3c10.1-0.5,20.1-1.1,30.2-1.5c4.9-0.2,9.9,0,14.8,0c0.1,0.5,0.2,1,0.3,1.5
		c-6.2,1.5-12.4,3.6-18.7,4.4c-7.5,1-15.2,0.4-22.6,1.3c-8.3,1.1-16.4,3.4-24.7,4.7c-6.4,1-12.9,0.8-19.2,1.7
		c-2.5,0.4-4.7,2.8-7.3,3.2c-6.1,1.1-12.3,1.8-18.5,2.1c-4,0.2-9,3-8.8,6.3c0.3,4.2,3.9,4.5,7.1,5.3c3.2,0.7,6.9,1.4,9.1,3.5
		c4.3,4.1,9.2,6.4,14.8,7.6c2.2,0.5,4.6,1.2,6.2,2.6c6.2,5.6,12,11.6,18.1,17.3c3.2,3,6,7.4,9.7,8.6c6.2,1.9,9.8,6.5,13.2,10.8
		c2.8,3.6,8.4,8.4,2,14c-0.4,0.3-0.5,1.3-0.3,1.9c0.9,5.2,1.9,10.3,2.8,15.5c0.6,3.4,1.1,6.9,1.7,10.4c0.7,3.7,0.6,8,2.3,11.1
		c4.4,7.8,5.1,16.3,5.8,24.8c0.3,3.2,0,8.2-1.9,9.4c-3.9,2.4-3.3,5.6-3.8,8.9c-3.3,1.2-7,1.8-6.6,6.7c0.1,0.9-1.4,2.2-2.4,2.9
		c-4.5,2.7-5.1,7.4-6.7,11.7c-1.4,3.7-3.7,7-5.8,10.4c-3.3,5.1-9.4,4.2-14.1,6.4c-4.4,2.1-8.2,1.9-11.9-3.6
		c-3.2,4.2-7.6,7.5-8.3,11.4c-0.9,5.1,1.1,10.6,2,16.3c-1.1,1.7-3.8,3.9-4.2,6.5c-1.1,7-6,9-11.5,11.5c-3.2,1.5-8,4.7-8.1,7.1
		c0,6.3-4.1,8.6-7.9,11.6c-2.4,2-5.9,3.1-7.6,5.5c-3.1,4.6-7.3,7.8-12.2,8.5c-10.4,1.4-21,2.1-31.5,1.9c-6.5-0.1-13.8,0.2-18.9-5.7
		c-2.2-2.5-4.6-4.8-7.2-6.8c-1.4-1.1-3.3-1.7-5.1-1.9c-3.7-0.5-7.5-0.5-11.2-1c-2.5-0.3-5.9-0.4-7.2-2c-5.1-6.2-11.2-12.2-10.8-21.1
		c0.1-2.9-0.7-4.5-3.2-5.3c-7.5-2.6-12.8-8-18.4-13.2c-6.3-5.8-8.6-12.7-7.3-21c0.7-4.4,1.4-8.9,1.7-13.3c0.1-1.2-1.1-3.1-2.2-3.6
		c-8.1-3.9-11.8-11.3-13.6-19.2c-1.8-8.2-3-16.9,0.2-25.2c1.4-3.7,2.9-7.5,4.5-11.2c5.2-12.2,10.4-24.4,15.6-36.6
		c0.9-2.1,2.3-4.4,2.2-6.5c-0.2-5.1,2.9-7.6,6.1-10.6c6.7-6.3,12.9-13.1,19.4-19.7c3.6-3.6,6.9-7.5,10.8-10.7
		c5-4.2,10.5-7.8,15.7-11.7c2.7-2.1,5.3-4.3,8-6.4c2.4-1.9,5-3.5,7.4-5.5c0.7-0.6,0.9-1.9,1.3-3c-1.2-0.4-2.4-1.3-3.5-1.2
		c-5.4,0.5-10.8,1.1-16.1,2.1c-12.1,2.1-24.1,4.6-36.2,6.6c-13.8,2.3-27.6,4.1-41.4,6.2c-1.1,0.2-2,0.9-3,1.4
		c-2.1,0.9-4.2,2.5-6.3,2.6c-11.9,0.6-23.8,0.9-35.7,1.3c-0.7,0-1.4,0.4-2.1,0.6c2.4,0.9,4.7,1.8,6.9,2.7c-7.4,3-14.3,4.7-21.2,6.4
		c-1.6,0.4-3.2,1.1-4.9,1.6c0.6,1.6,0.9,3.5,1.9,4.8c2.5,3.3,2.2,6.8,1.8,9.8c-3.8-0.8-7.1-1.9-10.5-2c-6.1-0.1-6.7-0.5-5.3-6.5
		c0.7-2.9,0.2-4.6-3.4-3.7c-1.1,0.3-2.3,0.2-4.3,0.3c-0.2,5.9-0.6,11.6-0.6,17.4c0.3,24.3,0.7,48.5,1.2,72.8
		c0.1,5.1,0.6,10.2,0.8,15.3c0.3,5.8,0.6,11.5,0.8,17.3c0.4,10.5,0.6,21,0.9,31.4c0,0.8,0,1.6-0.2,2.4c-0.7,4.6-2.2,9.3-2.1,13.9
		c0.3,18.2,0.9,36.5,1.8,54.7c0.6,11.7,2,23.4,2.8,35.1c1,14.2,1.9,28.4,2.8,42.6c0.4,6.9,0.7,13.9,1.3,20.7c0.4,4,1.4,7.7,5.8,9.8
		c1.8,0.8,3.3,3.4,3.8,5.5c1,3.8,3.9,8.2-1.7,11.1c0.8,4.4-2.4,5.7-5.5,7.3c-0.7,0.4-0.8,1.9-1.1,2.9c4.9-1.5,9-3.5,13.3-4
		c15.8-1.8,31.6-2.9,47.3-4.5c5.2-0.5,10.2-0.9,14.6-5c2.4-2.3,6.6-2.8,10.1-3.6C364.3,1023,369.6,1022.3,375.6,1021.3z M223,572.3
		c2.7-4,5.2-7.7,7.5-11.3c5.3-8.1,10.4-16.4,15.8-24.4c4.3-6.3,9.1-12.4,13.8-18.5c1.9-2.5,4.1-4.7,6.5-6.8
		c8.7-7.9,20.6-9,30.7-14.1c5.5-2.8,10.3-5.6,14.1-10.5c1.3-1.7,4.3-2.1,6.6-2.8c2.3-0.7,5.4-0.4,6.8-1.9c3.6-3.7,7.8-5.1,12.5-6.3
		c3.3-0.9,5.7-0.1,6.5,2.5c0.6,2.1-0.1,5.5-1.6,7c-8.6,8.4-17.2,16.7-23.8,27c-3.9,6.1-9.5,11.2-12.8,17.5c-4.8,9-8.2,18.7-12.3,28
		c-2.6,5.9-5.6,11.5-8.3,17.4c-2,4.3-3.8,8.7-5.5,13.1c-0.9,2.2-1.3,4.6-1.9,6.9c0.7,0.3,1.4,0.7,2.1,1c3.4-5.6,6.8-11.2,10.3-16.8
		c1.1-1.7,1.9-3.8,3.4-5.1c2.8-2.3,6.3-3.8,8.9-6.2c5.4-5,10.1-10.6,15.5-15.5c8.2-7.4,16.8-14.5,25.3-21.6
		c3.3-2.8,6.8-5.5,10.5-7.8c2.7-1.7,6.1-2.4,8.9-4.1c14.2-8.4,28.2-17.1,44.2-21.7c3.2-0.9,6.4-1.5,9.5-2.8c4.8-2,9.2-4.8,14-6.5
		c6.2-2.3,12.5-4.3,18.9-5.7c4.2-0.9,8.8-0.5,13.2-0.6c1.6,0,3.3,0.6,4.9,0.4c11.9-1.8,23.3,1.5,34.9,2.7c7.9,0.9,16.5,6.5,23-2.4
		c2,1.5,3.9,3.9,5.1,3.6c5.6-1.3,7.9,1.8,9.9,6c0.4,0.8,1.3,1.5,2.2,2c12.2,7.8,24.4,15.7,36.8,23.3c7.6,4.6,15.3,9,23.4,12.6
		c5.9,2.6,10.7,6.1,14.9,10.8c3,3.4,6.2,6.7,9.4,9.8c3.5,3.4,7.2,6.6,10.6,10.1c3.7,3.7,7.1,7.7,10.7,11.4c1.8,1.9,3.6,2.1,5.1-0.7
		c1.7-3.3,3.8-6.3,5.6-9.5c0.6-1,1.3-2.3,1-3.2c-1.2-4.2-2.2-8.7-4.4-12.4c-4.7-7.9-10.2-15.4-15.4-23.1c-3.1-4.7-5.6-10.1-9.7-13.7
		c-4.2-3.8-6.6-7.7-7.8-13.2c-0.8-3.7-2.4-7.8-7.9-8.4c-1.7-0.2-4.1-4.6-4.3-7.2c-0.3-5.8-4.1-10.5-10-10.4
		c-4.1,0.1-6.3-1.1-5.7-5.8c0.3-1.9,0-4.6-1.1-6c-4-4.7-8.2-9.4-13-13.4c-5.3-4.5-8.8-11.4-16.5-13c-1.3-0.3-2.3-2.2-3.4-3.4
		c-1.4-1.5-2.6-3.4-4.2-4.6c-4.3-3.3-8.6-6.7-13.3-9.4c-3.2-1.8-6.9-2.7-10.5-3.7c-2.7-0.8-5.7-0.6-8.2-1.7
		c-6-2.7-11.7-6.1-17.8-8.8c-9.5-4.1-19.1-7.7-28.7-11.6c-1.5,3-2.6,4.8-4.1,5.8c-2.2,1.4-4.7,2.4-7.2,3.4
		c-9.1,3.4-18.2,6.6-27.3,10c-4.7,1.7-11,1.1-12.3,8.2c-0.2,1-2.7,2.2-4,2.1c-5.4-0.3-10.7-1.7-15.8,1.5c-0.7,0.4-2.2,0.3-2.9-0.2
		c-4.2-3-7.6-2.3-10.4,2c-0.5,0.7-1.9,0.7-2.6,1.3c-1.3,1.1-2.5,2.4-3.7,3.6c-1.5,1.5-3,4.1-4.6,4.2c-1.7,0.1-4.3-1.9-5-3.7
		c-1.9-4.2-4.9-4.4-8.6-3.9c-3.9,0.6-7.9,1.3-11.8,1.2c-7.8-0.1-15.7-0.9-23.5-0.9c-9.9,0.1-19.8,0.9-29.7,1
		c-4.2,0.1-8.5-0.2-12.5-1.3c-9.7-2.7-19.2-6.1-28.9-9c-12-3.6-24.5-6.1-36-10.8c-8-3.2-17.8-2.2-24.6-10.2
		c-0.7,1.9-1.5,3.4-1.7,4.9c-0.4,3-2.2,4.4-4.8,3.5c-5.4-1.8-8.3,1.6-11.5,4.8c-3.8,3.8-6.8,9.5-13.9,6.5c-0.8-0.4-2.2,0.4-3.3,0.8
		c-9.5,3.1-15.4,10.9-22,17.6c-4.1,4.2-7.8,8.8-12.2,12.7c-3,2.7-7.4,4-9.9,7c-2.9,3.5-6,3.7-9.7,3.1c-3.9-0.6-4-4-4.4-7
		c-0.1-1-0.1-2-0.3-3c-0.6-3.1-2.1-3.9-4.9-2.1c-3.2,2.1-6.6,3.8-9.5,6.1c-0.9,0.7-1.5,3.5-1,4.1c4.6,4.9,9.1,10.7,16.1,11.6
		c13.8,1.8,26.4,7,38.9,12.5c5.1,2.3,9.5,6.2,14.7,8.1c6.3,2.2,11.4,5.5,15.7,10.5c0.6,0.6,3.1,0.6,3.5,0.1c2-3,4.5-6.1,5.1-9.5
		c1.3-7.5,6.7-12.3,11-17.6c5.9-7.4,13.1-13.8,20.1-20.2c7.4-6.7,14.9-13.5,23.3-18.9c5.1-3.3,11.8-4.1,17.8-6
		c5.4-1.7,10.8-1.2,15.3,1.7c3.1,2,6.4,5.6,6.9,8.8c0.3,2-4.2,6.6-7,7c-12.1,1.7-19.5,10.6-28.6,16.9c-2.9,2-6.1,3.5-9.1,5.4
		c-1.8,1.1-4.4,2-4.9,3.6c-1.9,5.3-5.5,4.5-9.2,3.1c-3.1-1.1-5.6-1.1-8.1,1.5c-4.9,5.2-10.2,9.9-15,15.1c-2.4,2.6-4.2,5.7-6.3,8.7
		c-2.1,2.9-3.4,7.1-8.8,4.7c2.5,4.7,4.2,9.1,6.9,12.8c11.1,14.9,22.4,29.5,33.7,44.2c1.7,2.2,2,4.1-1,5.5
		C220.6,563.6,219.8,567.6,223,572.3z M394.3,766.5c-2.9,5.7-5.3,10.4-7.5,15.2c-0.3,0.6,0.3,2.2,0.9,2.6c0.8,0.4,2.1,0.2,3.1,0
		c9.8-2.1,17.6-8,25.5-13.7c12.8-9.3,33.7-10.2,46.7-1.5c7,4.7,13.1,10.5,13.9,20c0.4,4.1,2.9,7.2,7.1,8.4c1.4-3.1,3.3-5.9,3.8-8.8
		c1.5-10.2,8.1-17.5,14.1-25c2.1-2.6,4.8-5.2,7.8-6.6c5.8-2.6,12.3-3.1,17-8.6c1.6-1.9,6.3-1.6,9.4-1.2c1.1,0.1,1.6,3.7,2.6,5.5
		c0.6,1,1.8,2.2,2.8,2.2c1,0,2.9-1.1,3-1.9c0.4-3.2,0.2-6.5,0.2-9.7c0-2.9,0.1-5.8,0.1-8.8c0-2.2,0.2-4.4-0.2-6.6
		c-0.7-3.4-2.1-6.7,2.2-9c0.8-0.4,1.4-3,0.8-3.7c-3-4.1-6-8.3-9.7-11.8c-4-3.8-8.6-7.1-13.1-10.3c-7.2-5.3-14.4-10.6-21.9-15.3
		c-2.5-1.6-6.3-2.2-9.4-1.8c-4.2,0.5-8.5,1.9-12.3,3.8c-4.1,2-7.7,4.9-11.3,7.7c-3.2,2.5-5.8,6.6-9.4,7.7
		c-8.1,2.3-13.8,7.6-19.8,12.8c-4.8,4.2-9.8,8.3-15,12c-3.5,2.5-7.1,4.2-6.3,9.5c0.2,1.3-1.2,3-2.3,4.2
		c-6.3,7.2-12.1,14.7-12.5,24.8c-0.2,3.5,0.4,7.1-0.4,10.4c-0.5,2.1-2.9,3.8-4.4,5.7c-1.6-1.8-3.3-3.6-4.9-5.5
		C394.6,768.9,394.7,768.1,394.3,766.5z M170.3,779.7c1.9-3.4,4.9-6.7,4.2-8c-2.7-5.1-0.4-9.4,0.7-14c0.8-3.2,0.3-6.9,1.9-9.6
		c2.1-3.6,1.5-6.4,0.2-9.8c-2.8-7.3-5.8-14.5-7.8-22c-1.5-5.8-3.4-12,0.2-17.9c3.7-5.9,6.3-11.8,4.5-19c-0.4-1.5,0.3-4.1,1.5-5.2
		c4.8-4.4,10.4-8.1,10.2-15.7c0-1.1,1.5-2.4,2.3-3.5c1.5-1.9,3.1-3.7,5.4-6.6c2.6,1.4,5.4,3.1,8.3,4.6c1.3,0.6,2.8,0.8,4.1,1.3
		c3.4,1.1,6.8,2.1,10.1,3.5c2.1,0.9,3.9,2.7,6,3.4c0.9,0.3,3.2-0.9,3.4-1.7c1.6-7.1,3.1-14.2,4.1-21.4c0.2-1.2-1.6-3.7-2.7-3.9
		c-5.8-1-11.7-1.7-17.6-1.9c-4.9-0.1-9.4-0.3-13.3-3.8c-2.6-2.3-5.4-4.6-8.5-6c-4.6-2-9.8-5-14.4-4.4c-12,1.6-23.7,1.6-35.5-0.8
		c-1.5-0.3-4.7,1.1-4.8,1.9c-0.5,5.4-1.4,11.2,0.1,16.2c1.1,3.8,1,7.8,1.9,11.6c1.3,4.9,2.3,9.3,6,12.9c1,1,1.6,2.5,2.1,3.9
		c4.5,11.3,8.2,22.9,13.6,33.7c2.8,5.7,2.1,10.7,0.9,15.7c-1.2,4.9-1.5,9.1,0.8,13.3c-0.9,1.6-2.4,3.1-2.4,4.6
		c-0.1,4-0.2,8.3,0.9,12c2.9,9.6,0.8,19.2,0.6,28.8c-0.1,4-1.6,8.1-2.4,12.1c-1.5,7.8-2.8,15.7-4.5,23.5c-0.9,4.3-4.3,8.9-3.3,12.6
		c1.7,6.9,2,13.5,1.4,20.4c-1.5,15.8,3.4,31.2,3.1,46.9c-0.1,5,8.5,8.9,12.8,6.2c0.5-0.3,1.1-0.9,1.2-1.5c0.9-5.1,2.8-10.3,2.4-15.4
		c-0.5-7,0.8-13.2,3.5-19.9c0.8,1,1.5,1.5,1.5,2c0.3,11.9,6.5,24.2-2,35.7c-1.4,1.9-2,4.4,1.2,5.7c2.7,1.1,5.1,1.1,5.7-2.4
		c1.1-5.9,2.8-11.8,2.6-17.7c-0.3-11-1.8-22-2.5-33c-0.2-3.5,0.5-7.1,0.7-10.6c0.1-3.2-1-5.1-3.9-3.7c-1.5-8.2-3-16.2-4.8-25.7
		C176.1,798.7,173.8,788.4,170.3,779.7z M222.3,1063.3c3.1,0.4,7.7-0.3,9.2,1.5c4.2,5.1,8.8,3.7,13.9,3.3c8-0.7,16.4-2.5,24-0.9
		c5.9,1.2,7.6-2.2,11.4-3.9c6.6-3,14.1-4.5,21.3-5.6c10.4-1.6,21-2.1,31.4-3.6c8.9-1.3,17.7-3,26.5-4.9c7.9-1.7,15.6-4.1,23.5-5.9
		c7.1-1.7,13.8-5.2,21.7-3.4c4.4,1,9.3,0.3,13.9-0.2c9.7-0.9,19-3.7,28.8-4.4c15.7-1,31.3-4.5,46.9-7c5.4-0.9,10.7-2.2,16.1-3
		c10-1.5,19.9-3,30-3.9c7.2-0.6,14.4-0.8,21.5-3.1c3.3-1.1,7.2-0.4,10.8-0.7c2.5-0.2,5-0.7,7.6-1.1c5.1-0.9,10.6-3.4,15.3-2.4
		c4.8,1,9.3,1.8,14,0.5c9.5-2.6,18.8-5.7,28.3-8.4c6.6-1.9,8.9-7.5,5.2-13.4c-3.6-5.8-5.1-6-11.7-3c-1.8,0.8-4.3,0.1-6.5-0.2
		c-2-0.2-4-1.5-5.9-1.2c-9.4,1.6-18.8,3.9-28.2,5.3c-12.8,1.9-25.7,3.1-38.5,4.8c-8.7,1.2-17.2,3.1-25.9,4.1
		c-11.3,1.4-22.8,1.6-34.1,3.4c-23.7,3.8-47.4,7.7-70.9,12.7c-11.1,2.3-22.7,4.7-31.1,13.8c-0.6,0.7-1.7,1.1-2.6,1.2
		c-14.2,1.4-28.4,2.5-42.6,4c-10.8,1.2-21.6,2.7-32.3,4.5c-8.4,1.4-16.6,3.7-25,5.2c-5.3,1-10.9,2.2-15-3.3
		c-1.5,1.9-2.4,3.6-3.8,4.6c-1.8,1.3-4,2.7-5.9,2.5c-1.2-0.1-2.5-3-3.1-4.9c-0.6-1.8,0-4.1-0.6-5.9c-0.6-1.9-1.7-4.3-3.3-5
		c-3.6-1.4-7.5-1.9-11.3-2.8c-2.7-0.7-5.6-1-8.1-2.2c-7-3.3-10-1.7-10.3,5.8c0,1.1,0.6,2.2,0.7,3.4c0.8,8.2,5.4,17.3-5.5,22.8
		C222.1,1062.7,222.2,1062.9,222.3,1063.3z M222.4,218.7c1,0.7,1.5,1.2,2,1.5c5.3,2,10.7,4,16.1,6c2,0.8,3.8,2.3,5.8,2.6
		c4.8,0.8,9.8,1.1,14.7,1.6c11.6,1.2,23.2,2.5,34.9,3.6c4.2,0.4,8.5,0.6,12.7,1.1c7.2,0.9,14.4,2.1,21.6,2.8
		c3.1,0.3,6.2-0.8,9.3-0.8c7.6-0.1,15.3-0.1,22.9,0c8.4,0.1,16.4-0.5,24.6-3.6c10.7-4.1,22.2-6.5,33.6-8.6c8-1.5,7.6-7.2,8.7-11.7
		c-4.1-1-8-1.4-11.3-3c-1.8-0.9-3-3.8-3.5-6.1c-0.2-0.7,2.7-2.2,4.4-3.1c1-0.6,2.2-0.6,3.3-1c9.2-3.4,11.3-6.3,10.4-12.7
		c-4.1-1.6-8.5-2-11-4.4c-4.9-4.8,3.7-6,3.7-10.9c-4.2,0.6-8.1,1.2-12.1,1.8c-9.3,1.2-18.7,2.7-28.1,3.6
		c-12.6,1.2-25.2,1.8-37.8,2.9c-1.9,0.2-5.1,1.2-5.3,2.3c-0.4,2.4,1,4.4,4.2,5c5.7,1.2,7.6,5.9,4.7,10.9c-1.2,2-3,3.5-4.4,5.3
		c-0.8,1-1.6,2.2-2.6,3.7c1.5,0.3,2.2,0.3,2.7,0.6c2.3,1.7,5.2,3,6.4,5.3c0.6,1.2-1.5,4.3-2.9,6.1c-1.5,1.9-3.7,3.2-5.7,4.7
		c-3.6,2.7-6.2,0.9-8.3-2.1c-2.5-3.4-9.3-6-14.2-3.9c-2.1,0.9-2.9,4.9-4.3,7.5c-0.1,0.3-0.4,0.5-0.8,1c-1.2,0-2.7,0-4.1,0
		c-0.4,5.2-3.3,6.6-8.5,5.3c-6.1-1.5-12.5-1.9-18.7-3.3c-4.4-1-9.6-1.6-11.5-6.6c-4.5-11.7-5.2-23.5,1.1-35c1.1-2,2.2-3.9,3.5-6.1
		c-2-0.8-3.5-1.7-5.1-1.9c-7.6-0.9-15.2-1.7-22.8-2.2c-1.8-0.1-3.8,1.3-5.7,2.1c0.8,1.9,1,4.5,2.4,5.5c4.2,3.2,4,7.2,2.6,11.2
		c-1.6,4.8-4,9.4-5.9,14.1c-2.5,6.4-3.4,7.1-9.8,5.5C229.7,214.1,226.2,215.4,222.4,218.7z M462.3,834.5c-5.8,4-11,7.1-15.7,10.9
		c-5.3,4.3-10.6,4.5-16.7,2.5c-6.1-1.9-12.4-3.3-18.8-4.3c-7.5-1.2-14-3.6-18.1-10.5c-0.7-1.3-1.8-2.4-2.9-3.4
		c-2.6-2.3-5.1-1.8-5.3,1.6c-0.2,4.1-0.4,9,1.5,12.3c2.9,5.1,8.1,9,11.5,13.9c3.3,4.7,6.3,4,10.8,2c3.8-1.7,8.4-2.9,12.3-0.2
		c3.1,2.1,5.7,1.7,8.8,0.4c6.5-2.7,9.8-0.9,11.7,6c0.7,2.4,1.9,4.7,1.9,7.1c0.1,3.4,2.1,4.5,4.7,4.8c6.4,0.7,12.8,1.1,19.3,1.4
		c5.3,0.3,10.5,0.5,15.8,0.5c1.8,0,4.5-0.4,5.3-1.6c5.6-8.4,14.3-9.2,23-9.9c10.1-0.7,18-9.7,17.6-20.1c-0.2-5.5,1.2-11.2,2.2-16.7
		c0.2-1.1,1.5-2.1,2.4-3.1c2-2,4.2-3.7,6.1-5.8c5.4-6.2,10-7.1,17.5-3.5c1.2,0.6,4.3-0.1,4.8-1.1c1.9-3.8,3.9-7.9,4.5-12.1
		c0.8-6,3.1-10.6,7.6-14.6c3.7-3.2,5.9-7.3,4.2-12.4c-1-2.9-3.4-5.6-3.7-8.5c-0.6-6.7-5.4-10.4-9.2-14.8c-0.7-0.8-3.1-1.5-3.6-1.1
		c-3.5,3.5-6.7,7.3-10.4,11.3c4.6,2.3,7.9,3.9,11.1,5.6c4.9,2.6,9.3,11.1,7.4,15.6c-2.6,6.1-4.8,12.5-11.5,16.2
		c-5,2.7-9.1,6.7-15.4,5.2c-0.6-0.1-1.3,0.2-1.9,0.5c-7.6,2.9-15.2,5.9-22.8,8.5c-9.1,3.2-18,3.9-26-3.1c-1.1-1-2.6-1.6-4.9-3.1
		c0.6,2.3,0.8,3.3,1.1,4.3c1.1,3.5,2.9,6.8,3.2,10.4c0.7,7.7-0.6,15.8,1.2,23.2c2.1,8.6-1.1,12.6-8.3,15.3c-0.1,0.1-0.2,0.2-0.4,0.3
		c-7.1,4.2-16.5,0.2-18.2-8C464.5,849.7,463.6,842.6,462.3,834.5z M203.9,140.6c-0.2,0.8-0.5,1.6-0.7,2.3c3.4,2,6.8,4.1,10.3,6.1
		c1.7,1,3.5,1.8,5.2,2.7c6.6,3.7,12.8,8.4,19.8,11c9.2,3.4,18.9,5.6,29.1,4.6c3.1-0.3,6.4,2.2,9.6,3.5c1.3,0.6,2.6,1.4,3.9,2
		c9,4.5,17.7,0.5,26.5-0.6c7.7-1,15.4-1.4,23.1-1.6c3.9-0.1,7.9,1.5,11.8,1.3c9.2-0.4,18.5-1.4,27.7-2c3.6-0.3,7.3-0.1,10.9-0.6
		c7.9-1,15.7-2.1,23.5-3.5c6.7-1.2,13.3-2.6,19.8-4.5c2.2-0.6,4-3,7-5.4c-10-2.3-18.3-3.7-26.5,1.8c-1.8,1.2-5,0.9-7.4,0.3
		c-3-0.7-5.7-3.3-8.7-3.4c-6.1-0.2-12.3,1.1-18.5,0.9c-6.9-0.2-13.7-1.4-20.5-2.1c-7.6-0.7-15.1-1.3-22.7-2c-3.9-0.4-7.2,0-9.5,3.8
		c-0.6,1-3.3,1.5-4.7,1.1c-3.3-0.9-6.2-3.1-9.5-3.7c-6.2-1.1-12.5-1.3-18.7-2c-11.7-1.4-23.3-3.4-35-4.1c-11.1-0.7-22-1-32.8-4.3
		C212.9,141.2,208.3,141.2,203.9,140.6z M428,60c8.7,0.3,11.5-2.1,13-10.4c0.1-0.5,0.3-0.9,0.4-1.4c1.2-5.1,0.2-6.1-4.8-4.9
		c-6.4,1.5-12.9,2.8-19.3,4.1c-5.8,1.2-11.6,2.8-17.4,3.4c-8.2,0.8-16.5,0.8-24.8,1.2c-4.4,0.2-9-0.1-13.3,0.9
		c-11.8,2.8-23.7,2.3-35.6,2.3c-6.8,0-13.8-1.3-20.5-0.4c-13.3,1.8-25.8-1.2-38.5-4c-5.5-1.2-11-2.2-16.6-2.9
		c-1.1-0.1-3,1.2-3.6,2.4c-0.5,1-0.3,3.2,0.4,3.9c2.5,2.4,5.3,4.6,8.2,6.3c10.4,6.1,21.8,8.5,33.8,8.5c10.4,0,20.9,0.5,31.3,1
		c11.2,0.5,22.5,1.5,33.7,1.7c11.6,0.2,22.7-3.4,34-5.5C401.5,63.7,414.4,59.5,428,60z M415.9,348.8c1,4.6,1.8,9.2,2.9,13.6
		c0.4,1.6,1.5,4,2.7,4.3c3.4,0.8,7.1,0.8,10.6,0.9c0.3,0,1-1.3,1-2.1c-0.2-8.3-0.6-16.5-0.6-24.8c0-4.7,0.2-9.4,0.9-14.1
		c0.2-1.4,2.5-2.5,3.9-3.8c1.1,1.7,2.9,3.2,3,5c0.9,10.3,1.7,20.6,2,30.9c0.1,3.6-1.2,7.2-2.1,10.8c-0.3,1.2-2.1,2.9-1.9,3.1
		c1.3,1.3,2.9,3,4.5,3.1c2.7,0.2,5.7-0.2,8.2-1.2c1.6-0.7,3.4-2.9,3.6-4.6c0.7-5.7,0.9-11.6,0.9-17.4c-0.1-13.2-0.5-26.4-0.7-39.5
		c0-2.3,0.6-4.6,0.3-6.8c-1.5-13.4-2-26.7-0.4-40.1c0.8-7.3,0.3-14.8,0.1-22.2c-0.1-3.4-3.4-5-5.7-2.7c-2.9,2.9-6.4,6.3-7.3,10.1
		c-2.9,13.4-5.3,26.9-6.9,40.6c-0.7,5.8-1.5,12.2,2,17.9c1.7,2.7-4.7,11.3-7.9,11.1c-4.2-0.3-11,5.6-11.4,9.9
		C417,336.7,416.5,342.7,415.9,348.8z M467.5,949.8c-9.4-5.1-18-4.2-26-0.8c-6.4,2.8-12.1,7.2-18.3,10.6c-8.4,4.7-16.5,9.7-21,18.8
		c-0.6,1.3-2.3,2.6-3.8,2.9c-3.6,0.8-7.4,0.7-11,1.4c-6.4,1.3-12.6,3.1-18.8,4.6c4.5,11,8.6,21.4,12.9,31.8c3.2-0.9,5.7-1.4,8-2.2
		c4.9-1.6,9.5-7.8,8.5-12.1c-1.8-7.9,2.6-12.9,8-17.1c5.9-4.6,12.2-8.9,18.7-12.8c7.9-4.7,16.2-8.7,24.1-13.3
		C455.2,957.9,461.3,953.8,467.5,949.8z M358.4,288.8c-1-0.3-1.9-0.6-2.9-1c-1,1.6-2.4,3.1-2.9,4.8c-0.8,2.9-0.7,5.9-1.4,8.8
		c-0.9,3.7-1.2,7,1.5,10.3c0.8,1,0.4,3.6-0.4,4.9c-3.6,5.9-7.6,11.6-11.4,17.4c-0.8,1.3-2.2,3.2-1.7,4.3c1.3,3.4-0.5,5.3-2.3,7.5
		c-3.3,4.1-2.9,7.3,0.1,11.6c1.5,2.1,1.6,5,3,7.2c0.9,1.5,2.9,3.2,4.5,3.3c8.2,0.3,16.5,0,24.8,0.2c3,0.1,4.4-1.3,4.3-4.1
		c-0.2-5.7-0.3-11.4-0.8-17.1c-0.1-1.1-1.4-2.1-2.2-3.2c-1.9-2.6-4.9-5.1-5.5-8c-2.4-11.5-4.2-23.1-6-34.8
		C358.5,297,358.6,292.8,358.4,288.8z M390.7,276.9c-0.4,0.2-0.7,0.5-1.1,0.7c-1.3,6.4-2.5,12.8-3.9,19.1c-0.7,3-2.7,5.9-2.7,8.9
		c0.1,8.6,1,17.1,1.5,25.7c0.1,1.1-0.1,2.3-0.3,3.4c-1.1,7.8-2.7,15.5-3.3,23.3c-0.4,5.3,0.1,10.7,0.9,16c1.2,7.9,3.8,15.7,4.4,23.7
		c0.3,4.8-0.2,9.3,2.4,12.7c1.8-1,3.2-1.7,4.6-2.6c1.4-1,3.6-2,3.8-3.3c0.5-3.5,1-7.5-0.2-10.6c-2.3-6.1-4.6-11.7,0-17.7
		c0.4-0.6,0.3-1.6,0.3-2.4c-0.4-6.4-0.9-12.8-1.3-19.2c-0.6-9.2-1.8-18.4-1.6-27.6c0.2-12.1,2.7-24.1-2-35.9
		c-0.5-1.2,0.6-2.9,0.4-4.3C392.1,283.4,391.3,280.1,390.7,276.9z M505,932.8c-0.9-5.6,2.1-6.9,5.6-8.4c7.6-3.2,15.1-6.7,22.5-10.3
		c5.8-2.7,11.4-5.8,17.2-8.5c15-7,30.1-13.9,45.1-21c1.2-0.5,2.6-2.6,2.3-3.6c-1.3-5.2-2.9-10.4-4.7-15.4c-1.1-3.3-3.7-4.2-6.7-2.6
		c-2.2,1.2-4.3,2.6-6,4.4c-5.1,5.4-8,13.3-16.9,14.3c-0.7,0.1-1.3,1-1.9,1.6c-9.2,9.5-19.5,17.3-31.5,22.9c-5.1,2.4-10.1,5-14.8,8
		c-4.5,2.8-8.4,6.5-12.9,9.4c-3,2-6.5,3.3-9.8,4.9c0,0.6,0,1.1,0,1.7C496.3,931,500.1,931.8,505,932.8z M317.5,179.6
		c-3.3,1.8-5.9,3.4-8.7,4.6c-3,1.3-6.1,2.4-9.2,3.1c-2.4,0.5-3.4,1.8-4.9,3.7c-3.4,4.3-9.6,6.1-10.8,12.5c-0.1,0.4-2.7,0.4-4,0.6
		c-0.5,6.8,2,8.8,8.6,8c1.5-0.2,3.1,1.7,5.2,3c-3.4,1.9-5.4,3-8.4,4.7c5.9,1.4,10.9,2.5,15.4,3.6c1.1-2.9,1.3-5.1,2.5-6.4
		c3.3-3.6,7-6.7,10.4-10.1c1.6-1.5,3.1-4.5,4.5-4.5c4.5,0.3,6.4-3.3,9.5-5.1c2.6-1.5,5.1-3.1,8-5c0.1-2.1-1.1-3.2-4.2-3.9
		c-3.2-0.8-5.9-3.2-8.9-4.9C320.7,183.7,317.9,185.9,317.5,179.6z M574.1,984.1c0.7-0.6,1.4-1.3,2.1-1.9c2.6-8.9,5.3-17.7,7.7-26.6
		c1.5-5.5,1.1-5.7-4.5-6c-7.1-0.3-14.2-0.6-21.2-1.5c-13.8-1.8-27.4-5.7-41.4-3.3c-2,0.3-3.9,0.9-5.8,1.4c0,0.5,0,0.9,0,1.4
		c6.2,2.6,12.3,5.3,18.5,7.7c5.7,2.2,11.5,3.9,17.3,5.8c3.4,1.1,7.5,1.3,10.1,3.3c5.2,4.2,9.6,9.3,14.2,14.2
		C572.3,980,573.1,982.2,574.1,984.1z M257.1,341.6c-3.7,2.5-7,4.8-10.4,7c-3.9,2.5-4.1,5.5-0.8,8.5c4.8,4.2,9.5,8.5,14.8,12
		c5.2,3.5,8.5,2.4,11.5-3.2c3.6-6.6,7-13.4,10.3-20.2c2.5-4.9,1.8-6.2-3.3-8.7c-4.5-2.2-8.8-4.8-13.3-7.2c-2.6-1.4-5.2-3.1-8-4
		c-1.8-0.6-5.2-0.5-5.7,0.4c-1,1.7-0.9,4.6-0.2,6.6C253.2,335.7,255.1,338.2,257.1,341.6z M273.7,528.7c-0.6-0.4-1.1-0.8-1.7-1.3
		c-4.4,0-8.4,1.2-10.8,5.1c-2.6,4.2-4.5,8.8-7.1,13c-4.3,7.1-9,13.8-13.2,21c-1.7,2.9-3.2,6.4-3.5,9.7c-0.6,6.6-3.8,10.7-10.2,11.6
		c-5,0.7-5.5,3.7-4.6,7.4c1.4,5.9,3.1,11.7,5.1,17.4c0.5,1.4,2.7,2.3,4,3.4c0.7-1.5,1.7-2.9,1.9-4.5c1.3-10.8,4.3-20.9,10-30.2
		c2.7-4.3,5.9-8.3,8-12.9c3.6-8,6.3-16.3,9.8-24.4c0.8-1.8,3.1-2.8,4.4-4.4C268.6,536.1,271.1,532.4,273.7,528.7z M289.1,1075.5
		c-4-5.1-8.9-3.4-14-1.3c-2.8,1.2-6.2,2.5-9,2c-7.1-1.3-13.5,0.4-19.9,2.5c-1.4,0.5-3.2,2.4-3.3,3.8c-0.1,1.1,2,2.5,3.4,3.5
		c1,0.8,2.7,0.8,3.5,1.7c3.3,3.6,7.2,2.9,11.1,2.1c3.4-0.7,6.9-2.4,10.1-1.9c5.1,0.9,8.7-1.6,12.2-4c5.4-3.7,10.5-8,15.7-12.1
		c-0.4-0.5-0.7-1-1.1-1.6C295.1,1071.8,292.4,1073.4,289.1,1075.5z M606,441.1c-0.6,0.3-1.1,0.5-1.7,0.8c-0.5,2.2-1.1,4.4-1.5,6.6
		c-0.7,4.1-0.1,7.2,5,7.8c1.3,0.2,3.6,2.4,3.4,3.4c-0.9,4.8,2.5,7.7,4.4,11.1c0.5,0.9,2.9,1.7,3.9,1.3c4.5-1.8,6.3-0.8,6.5,4.1
		c0.2,6.1,3.2,10.7,9.1,12.4c3,0.9,3.9,2.6,3.9,5.4c0.1,4.1-0.1,8.3,0.6,12.4c0.4,2.3,2.2,4.4,3.3,6.6c0.5-0.2,1-0.5,1.5-0.7
		c0-1,0.3-1.9,0.1-2.9c-1.2-6.6-2.3-13.3-3.8-19.8c-1.3-5.7-2.1-11.8-8.5-14.9c-1.7-0.8-3.2-2.5-4.3-4.1c-4.4-6.5-8.4-13.3-13-19.6
		C612.5,447.4,609.1,444.4,606,441.1z M492.4,139.4c-3.8,3-6.7,5.8-10,7.9c-4,2.4-7.4,4.9-10.1,9c-1.2,1.9-5,2.2-7.7,3
		c-0.8,0.2-2.1-0.7-2.8-0.5c-7.6,2.8-15.2,5.8-22.8,8.8c0,0.7,0.1,1.3,0.1,2c3.7,0.6,7.8,2.3,11.1,1.4c6.2-1.6,12.2-4.5,18.1-7.1
		c5-2.3,10.5-4.1,12.6-10.2c0.2-0.7,2.2-0.7,3.4-1c2.4-0.6,4.9-0.8,7-1.8c1.3-0.6,2.8-2.4,2.8-3.7
		C494.2,144.9,493.2,142.5,492.4,139.4z M142.2,1026.2c2.3,2.1,4.2,4.3,6.4,5.9c6.8,5,13.7,9.8,20.6,14.6c4.1,2.9,5.8-1.4,8.4-2.9
		c-1.1-1.6-1.8-3.5-3.2-4.7c-5.9-4.7-12-9.2-18-13.8C149.8,1020.2,149.4,1020.1,142.2,1026.2z M421.3,143.8
		c16.7,1.2,36.1-22.5,29.9-37.4c-1.8,4.2-3.9,8.3-5.3,12.5c-2.1,6.3-3.8,7.3-10.1,4.6C431,130.3,426.2,137.1,421.3,143.8z
		 M157.3,387.5c0.1,0.4,0.2,0.8,0.2,1.2c1.1,0.1,2.1,0.4,3.2,0.3c6.4-0.6,12.7-1.5,19.1-2c5-0.3,9.5-0.5,8.3-7.5
		c-0.1-0.7,0.8-1.5,0.8-2.3c0.1-1.3,0.5-3.3-0.2-3.8c-1.1-0.9-3.3-1.5-4.4-1C175.3,377.3,166.3,382.5,157.3,387.5z M221.1,1031.4
		c-1.7-1.9-3-4.5-5.1-5.5c-4.2-2.1-8.9-3.5-13.4-5.1c-2.6-1-5.3-1.9-8-2.6c-0.7-0.2-1.9,0.3-2.4,0.9c-0.3,0.4-0.1,1.6,0.3,2.2
		c0.6,0.9,1.6,1.7,2.5,2.4c4.9,4,9.6,8.4,14.8,12c2.2,1.5,5.5,2.1,8.2,2.1C218.9,1037.7,219.7,1034.3,221.1,1031.4z M218.7,1057.9
		c-0.2-4.7,1.1-10.1-0.9-12c-3.9-3.7-9.5-5.8-14.7-7.7c-1.3-0.5-4.1,2.5-5.8,4.2c-0.4,0.4,0.5,2.9,1.3,3.4
		C204.7,1049.8,211,1053.4,218.7,1057.9z M569.7,417.2c0.4-0.7,0.9-1.4,1.3-2.1c-2-1.9-3.8-4.3-6.2-5.7c-3.6-2.2-7.6-4-11.6-5.6
		c-1.2-0.5-2.8-0.1-4.2-0.1c0.7,1.2,1.2,2.8,2.3,3.6c3.9,2.7,7.9,5.2,12,7.6C565.2,415.8,567.5,416.4,569.7,417.2z M175.8,996
		c-0.5,3.3-0.1,5.8,3.9,7.9c5,2.6,9.5,6.2,16.2,4.8C189.3,1004.5,182.8,1000.4,175.8,996z M526.5,393.4c-0.1,0.4-0.2,0.7-0.4,1.1
		c3,1.5,5.9,3.6,9.1,4.3c1.5,0.3,4.9-1.7,5-3c0.4-2.6-1.6-4.7-4.8-4.2C532.5,392.1,529.5,392.8,526.5,393.4z M422.5,1048.9
		c-1.6-0.5-3.2-1.6-4.6-1.4c-3.4,0.4-6.7,1.3-9.9,2.3c-0.7,0.2-1.6,1.3-1.7,2c-0.1,0.7,0.7,1.9,1.4,2.3
		C410.2,1055.5,420.3,1052.1,422.5,1048.9z M374.4,1028.7c0.1,0.7,0.2,1.3,0.3,2c3.4,0,6.9,0.2,10.3-0.2c0.5-0.1,0.7-3,1.3-6
		C381.5,1026.2,377.9,1027.4,374.4,1028.7z M598.4,436.3c-3-1.8-5.1-3.2-7.3-4.2c-0.3-0.1-2.2,2.1-2.1,2.4c1.4,2,3.1,3.9,4.9,5.5
		C594.2,440.1,596.2,438.2,598.4,436.3z M580,430.3c1.8-2.2,2.8-3.5,3.9-4.8c-1.7-1.3-3.4-2.6-5.1-3.9c-0.8,1.2-2.3,2.5-2.1,3.5
		C576.9,426.7,578.4,428,580,430.3z M385.5,818.6c-1,0-1.9,0.1-2.9,0.1c-0.1,2.3-0.2,4.7-0.3,7c1.2-0.2,3.4-0.4,3.4-0.8
		C385.9,822.8,385.6,820.7,385.5,818.6z"/>
</g>
</svg>
