<?xml version="1.0" encoding="utf-8"?>
<!-- Generator: Adobe Illustrator 21.0.2, SVG Export Plug-In . SVG Version: 6.00 Build 0)  -->
<svg version="1.1" id="revolver_xA0_Image_1_" xmlns="http://www.w3.org/2000/svg" xmlns:xlink="http://www.w3.org/1999/xlink"
	 x="0px" y="0px" viewBox="0 0 1339.2 808.2" style="enable-background:new 0 0 1339.2 808.2;" xml:space="preserve">
<style type="text/css">
	.st0{fill:#242424;}
</style>
<g>
	<path class="st0" d="M315.2,512.6c-4.4,6-8.8,12-12.9,18.2c-1,1.6-1.8,4.5-1.1,5.9c2.6,4.7,0.9,8.8-1.2,12.7
		c-7.3,13.5-11.7,28.6-22.9,39.9c-1.2,1.2-1.3,3.4-2.3,4.9c-2.6,3.9-5.4,7.6-8.2,11.4c-2,2.8-4.9,5.2-6,8.2
		c-5.2,15-10.1,30.1-14.9,45.2c-2.6,8.3-4.8,16.7-7,25.2c-4.1,15.9-8.1,31.8-12.1,47.7c-1,3.8-2,7.7-2.7,11.5
		c-1,5.5-1.6,11.2-6.5,15.1c-0.9,0.7-1.4,2.3-1.7,3.5c-2.2,8.8-4.2,17.8-6.6,26.6c-1,3.6-2,8.2-4.6,10.2c-3.9,3-9.1,4.5-14,6
		c-3.8,1.1-7.9,1.2-11.8,1.6c-4.1,0.4-8.2,0.7-12.3,0.9c-3.8,0.2-7.7-0.1-11.5,0.3c-17.2,1.9-33.2-2.8-49.1-8.3
		c-9.1-3.2-18.3-5.9-27.5-8.8c-3-0.9-6.4-1-8.9-2.7c-5.6-3.7-10.2-8.4-16.5-11.6c-6.5-3.3-11.6-9.3-17.1-14.3
		c-4.7-4.3-9.3-8.7-13.8-13.2c-3.2-3.3-6.7-6.6-8.9-10.5c-3.1-5.7-5-12.1-7.4-18.2c-1.6-4.2-3.8-8.3-4.2-12.6
		c-1-10.2-1.4-20.5-1.7-30.7c-0.2-6.3,0.2-12.6,0.3-18.9c0.2-7.4,0.4-14.8,0.8-22.2c0.2-3.3,0.8-6.6,1.5-9.8
		c1.1-5.5,2.6-10.8,3.6-16.3c1.2-6.8,1.8-13.7,3.2-20.4c1-4.5,1.6-10.1,4.6-12.9c3.7-3.4,3.1-7.3,4.3-11c1.1-3.6,1.2-7.5,2.4-11.1
		c4.7-14.6,9.7-29,14.5-43.5c0.7-2,0.7-4.2,1-6.3c-0.6-0.2-1.2-0.4-1.8-0.6c-4.9,7.5-9.8,15.1-14.6,22.6c2.3-7.2,4.5-14.5,8-21.3
		c3.4-6.6,8.1-12.5,12.1-18.8c0.7-1.1,0.9-2.4,1.5-3.6c2.5-4.9,4.9-9.7,7.5-14.5c1.5-2.7,3.5-5,5.1-7.6c2-3.2,3.8-6.5,5.9-9.7
		c4.2-6.3,9-12.2,12.8-18.7c2.7-4.5,3.5-5.3,7.4-2.8c5.1-3.7,9.8-7.8,15.1-10.8c11.1-6.5,19.1-16.4,28.1-25.1
		c4.7-4.5,4.8-5.1,8.1,0.9c2.9-2.6,6.4-4.6,8.4-7.7c9-14,22.1-23.7,35.1-33.3c10.1-7.5,21.4-13.2,32.2-19.8c4-2.4,8-4.8,11.7-7.5
		c5.9-4.3,11.4-9.1,17.4-13.3c3.2-2.3,6.7-3.8,8.5-7.8c0.8-1.7,3.1-3.7,4.9-3.8c7.8-0.5,15.1-1.8,20.7-8c0.1-0.1,0.3-0.1,0.5-0.2
		c8.2-3.4,16.6-6.5,24.7-10.2c8.9-4.1,17.6-8.9,26.4-13.2c3.5-1.7,7.2-2.9,10.5-4.9c3.4-2.1,7.7-4.4,9.3-7.7
		c2.8-5.8,4.6-12.3,5.6-18.7c1.1-7,0.7-14.2,1.3-21.2c0.3-3.5,0.7-7.3,2.2-10.4c1.6-3.4,2-5.7-1-8.3c-1.2-1.1-2.2-3.1-2.2-4.7
		c0-5.1,0.2-10.3,0.9-15.4c0.5-3.4-0.9-4.3-3.7-5c-5.9-1.6-11.8-3.4-17.6-5.2c-3-0.9-5.8-2.9-8.8-3.1c-13.3-1-24.9-6.1-35.9-13.1
		c-5.3-3.3-10.5-6.7-15.9-9.8c-2.6-1.5-6-2-5.5-6c0.4-3.2,5.2-6.2,8.8-6c1.9,0.1,3.9-0.2,5.8-0.6c11-1.9,21.7-0.9,32.1,3.3
		c7.8,3.1,15.7,6,23.6,8.9c2,0.7,4.3,0.9,6,2.1c8.2,5.9,16.9,6.9,26.5,3.9c5.2-1.6,8.1-4.3,8.5-9.6c0.5-6.9,0.7-13.8,1.3-20.6
		c0.4-4.6,1.8-9.1,2-13.7c0.2-6-1-12.3,4.8-16.7c0.7-0.5,1-1.8,1-2.8c0.2-8.1,4.5-14.4,8.9-20.7c4.9-7,17.9-6,22.2,1.2
		c3.1,5.1,5.4,10.2,5.1,16.4c-0.1,1.4,1.5,2.9,2.4,4.4c1.4-1.1,3.8-2,4.2-3.4c2-7,3.9-14.1,5-21.3c0.9-5.3,1.9-10,6.4-13.5
		c1.4-1.1,1.9-3.3,3-4.9c1.6-2.6,3.2-5.2,5-7.5c1-1.3,3.2-1.9,3.6-3.3c1.4-4.4,5.1-5.4,8.3-4.6c5.7,1.3,11.4,3.2,16.3,6.2
		c4.6,2.8,9.3,5.8,14.4,6.1c0.7,0,1.3,0.1,2,0.2c8.8,1.7,17.7,1.8,26.4-0.6c2.8-0.8,4.2-0.1,5.6,2.4c0.9,1.6,2.4,3.4,4.1,4.1
		c5.4,2.4,11,4.5,16.6,6.4c3.1,1.1,6.4,1.7,10.9,2.9c-9.7,3.2-17.3,2.2-24.4-2.9c-1.5-1.1-3.1-2.1-4.7-2.8c-1.1-0.5-2.7-0.9-3.7-0.5
		c-11.2,4.9-22.5,6.2-34.5,2.9c-1.2-0.3-4.4,2-4.4,2.8c0.7,9.3,2,18.6,2.9,27.9c0.4,3.9,2.6,5.8,6.2,5.8c5.6,0,11.2-0.3,16.7-0.7
		c13.2-0.7,26.7-0.4,39.7-2.7c9.1-1.6,19.5,2.1,27.6-5.4c0.5-0.5,1.6-0.4,2.4-0.4c11.1,0.1,22.2,0.4,33.3,0.5
		c9.1,0,18.3,0.1,27.4-0.3c13.9-0.5,27.9-1.4,41.8-2c1.2-0.1,2.8,0.3,3.7,1c4.5,3.5,9.3,2.6,14.3,1.5c4.4-0.9,8.8-1.3,13.2-2
		c3-0.5,6-1.3,9-1.8c1.5-0.2,3.3-0.4,4.6,0.2c5.3,2.8,9.4,2.4,14-1.8c0.7-0.6,1.7-1,2.6-1c4.9-0.1,9.9,0.1,14.8-0.2
		c9.4-0.6,17.2,3.7,24.7,8.5c0.5,0.4,0.4,3.4-0.3,3.9c-3.2,2.3-6.6,4.7-10.3,5.9c-3.9,1.3-7.2,2.8-9.5,6.5c-0.8,1.3-2.9,1.7-4.5,2.4
		c-1.6,0.7-3.6,0.9-5,1.9c-4.4,3.2-8.6,6.7-12.8,10.3c-0.8,0.7-1.3,2.4-1.2,3.5c1.5,11.6,8.7,20,15.9,28.5c0.8,1,2.4,1.3,3.3,2.1
		c6.4,5.7,14.6,5.4,22.4,6.6c3.4,0.5,6.9,1.3,10.3,1.2c11.3-0.4,22.5-1.2,33.8-1.9c5.2-0.3,10.2,0.6,15.3,1.2
		c6.8,0.8,15,2.2,21.1-3.9c0.6-0.6,1.9-0.8,2.8-0.7c3.3,0.6,6.5,2.1,9.7,1.9c13.9-0.6,28.3,3.4,41.7-4.1c3.3-1.9,7.2-1.8,11.4-1
		c4.4,0.9,9.4-1.2,14.2-1.6c8.1-0.6,16.3,0,24.2-1.5c8.1-1.5,14.7-0.1,22.5,2.7c7.4,2.7,16.6,0.5,25,0.2c9.1-0.3,18.3-0.4,27.3-1.3
		c9.1-0.9,18.5,1.2,27.3-3.4c2.2-1.1,6.8-0.7,8.4,0.9c4.7,4.6,10.4,4.4,15.9,4.3c15.2-0.4,30.4-1.7,45.7-2.4
		c13.9-0.6,27.8-0.6,41.7-1.1c15-0.6,30.1-1.5,45.1-2.2c3.5-0.2,6.9-0.4,10.4-0.4c11.9-0.1,23.8-0.1,35.8-0.1c0.3,0,0.7-0.1,1-0.2
		c8.1-2.8,16.2-2.2,24.6-1.3c6.9,0.7,14,0.1,21,0c5.6,0,8.9-2.6,9.3-8.2c0.6-9.9,0.7-19.9,0.8-29.8c0-1.1-1.3-2.9-2.2-3.1
		c-2.4-0.4-4.9-0.2-7.2,0.1c-13.2,1.9-26.7,3.3-39.7,6.3c-10.6,2.5-20.4-1.8-31.1-0.4c-18.8,2.5-38.1,2-57.1,2.6
		c-5.8,0.2-11.5,0.1-17.3,0c-15.5-0.1-31-0.2-46.5-0.5c-6.4-0.1-12.9-0.8-19.3-1c-5.3-0.2-10.6,0.2-15.8-0.3
		c-5-0.4-9.8-1.8-14.8-2.3c-6.1-0.7-12.1,1.8-18.4,0.4c-4.8-1-9.9-0.2-14.9-0.2c-16.9,0.1-33.9-0.3-50.8,0.3
		c-10.8,0.4-21.5,0.3-32.3-0.8c-12-1.2-24.2-0.4-36.2-1.4c-10.2-0.8-20.5-2.2-30.4-4.7c-9.5-2.4-18.6-6.6-27.9-10
		c-0.8-0.3-1.6-0.2-2.5-0.5c-8.4-2.1-16.6-4.5-25.1-6.2c-5.6-1.1-8.8-5.5-13.3-7.9c-6.8-3.6-14.8-5.2-21.5-8.9
		c-10.6-5.7-21.1-9.5-33.2-6.2c-1.2,0.3-2.8,0.1-3.9-0.4c-6.5-2.7-13-1.1-19.6-0.3c-9.2,1.1-18.5,1.8-27.8,2.1
		c-7.9,0.3-15.9-0.7-23.9-0.4c-11.6,0.4-23.2,1.5-34.7,2.4c-7,0.5-13.9,1.2-20.9,1.4c-8.6,0.2-17.1-0.1-25.7-0.2
		c-2.1,0-4.3-0.2-6.3,0.1c-7.2,0.8-14.4,1.9-21.6,2.7c-1.2,0.1-3-0.2-3.7-1.1c-1.1-1.4-1.8-3.3-2-5.1c0-0.4,2.4-1.5,3.9-1.7
		c3.9-0.5,7.9-0.6,11.9-1.1c8.2-1.1,16.4-3,24.6-3.4c10.2-0.5,20.5,0.4,30.8,0.3c4.3,0,8.6-1.3,12.9-1.6c16.7-1.2,33.5-2.1,50.2-3.3
		c3.9-0.3,7.8-1.1,12.2-1.8c-1.4-4.4,0.2-7.8,4.3-6.8c2,0.5,3.2,4.7,4.8,7.2c-0.4,0.5-0.9,1.1-1.3,1.6c2.2,0.2,4.4,0.6,6.7,0.6
		c14.4-0.1,28.6-5.4,43.2-2.3c0.2,0,0.3-0.1,0.5-0.1c9.6-0.1,19.1-0.2,28.7-0.1c1,0,2.5,0.4,3.1,1.2c4.2,5.2,10.2,4.7,15.9,5.5
		c5.3,0.7,10.5-0.4,16,2c4.6,2,10.3,2,15.6,3.7c5.9,1.9,12.7,1.3,19.1,1.3c15.6-0.1,31.1-0.5,46.7-0.7c1.3,0,2.6,0.4,4,0.4
		c6-0.3,12.4,0.6,17.8-1.3c7.6-2.5,15-2.3,22.6-2.3c4,0,7.9,1,11.9,1c13.2-0.1,26.4-0.5,39.6-0.6c13.8-0.2,27.6-0.1,41.3-0.2
		c3.7,0,8.1,1,10.8-0.7c6.2-4,12.9-2.7,19.3-3.1c14.2-0.9,28.4-0.7,42.6-1.3c15.6-0.7,31.2-2.2,46.8-2.4c6.2-0.1,8.5-3.2,10.3-7.8
		c1.4-3.4,2.5-6.9,3.3-10.5c1.1-4.8,3.8-8.1,8.2-10.1c4.7-2.2,9.4-4.2,14.2-6.1c9.7-3.9,19.3-7.9,29.1-11.5c1.9-0.7,4.6-0.9,6.2,0
		c6.3,3.4,12,7.6,15.5,14.3c2.8,5.3,3.3,11.7,9.1,15.6c3.9,2.7,6.8,7,10.3,10.4c2.1,2.1,4.6,3.8,6.8,5.7c1.1,1,2.4,2,2.7,3.3
		c1.7,5.8,6.5,8.6,11.4,10.2c8.5,2.7,17.1,4,23.5,11.6c3.8,4.5,9,18.7,5.5,23.7c-4.4,6.4-0.2,12.9-1.4,19.3c-1,5.3,1.2,11,1.3,16.6
		c0,2.5-1.2,5.3-2.7,7.4c-4.2,5.8-8.8,11.2-13.2,16.8c-0.7,0.9-1.6,2.2-2.5,2.3c-6.9,0.8-10.2,6.3-14.6,10.5c-1.1,1.1-3,1.4-4.5,2
		c-0.4-1.5-0.9-3-1.2-4.5c-0.1-0.8,0.1-1.6,0.1-2.4c-5.1-1.1-9.8-2.8-14.7-3.1c-11.8-0.7-23.5-0.9-35.3-1.2
		c-11.4-0.3-22.8-0.5-34.3-0.8c-6.1-0.2-12.2-0.9-18.3-0.7c-7.9,0.3-15.8,1.3-23.7,1.9c-11.4,0.8-22.9,1.7-34.4,2.1
		c-10.9,0.4-21.8,0.2-32.7,0c-6-0.1-12.1-1.2-18.1-1.1c-4.6,0.1-9.1,1.7-13.7,2.5c-9.8,1.7-19.3,4.4-27.9,9.8
		c-6.5,4.1-12.9,8.5-19.5,12.4c-6.4,3.8-11.6,8.4-12.4,16.3c-0.3,3.6-2.3,4.8-5.7,4.7c-1.6,0-3.9,0.3-4.8,1.4
		c-4.1,5-7.6,10.5-11.6,15.5c-3,3.8-5.8,9.2-9.8,10.5c-7.6,2.4-15.6,3.4-23.1,6.6c-8.2,3.5-16.6,6.5-24.9,9.9
		c-4.1,1.7-7.9,4.7-12.1,5.3c-8.2,1.3-12.8,7.5-17.4,12.7c-5.4,6.1-8.8,13.9-13,21c-2.2,3.7-4.3,7.5-2.8,12.2c0.3,1-0.4,2.6-1.1,3.6
		c-5.7,7.8-11.5,15.4-17.3,23.1c-0.6,0.7-1.5,1.2-2.4,1.8c-5.6,3.8-12.1,6.6-14.1,14.1c-0.5,1.8-2.1,3.4-3.4,4.8
		c-9.6,9.7-19,19.4-28.9,28.8c-3.1,2.9-7,5.1-10.9,6.9c-4,1.9-8,1.8-11.3-2.1c-0.8-1-2.7-1.9-3.8-1.7c-10.3,2.3-20.3-1.9-30.4-1.6
		c-1.4,0-3.1,1.5-4.1,2.8c-2.2,2.8-4,5.9-5.9,9c-0.7,1.2-1.9,2.7-1.7,3.8c0.7,3.3-0.3,5.3-3.2,6.9c-1.1,0.6-1.6,2.4-2.1,3.8
		c-2.3,7.1-6.7,8.8-13.5,5.5c-1.5-0.7-3.7-1.4-5.1-0.9c-7.9,2.6-15.7,5.5-23.4,8.5c-1.2,0.5-2.5,2.4-2.5,3.6
		c0.4,16.1,1.1,32.3,1.4,48.4c0.2,6.6,1,13.5-0.6,19.7c-3.7,14.2-7.2,28.4-15,41.5c-6.3,10.7-14.2,19.2-24,26
		c-8.9,6.1-18.6,11-28,16.2c-2.4,1.3-5.2,1.9-7.7,3.2c-8,4.3-15.6,9.9-24,12.8c-12.3,4.2-25.2,7-38.1,9.3
		c-8.7,1.6-17.8,1.7-26.7,1.9c-5.1,0.1-10.2-1.1-15.3-1.4c-7.2-0.5-14.5-0.6-21.7-1.1c-13.8-1.1-26.3-6.6-38-13.5
		c-8.1-4.8-15.4-10.8-22.9-16.6c-4-3.1-7.7-6.7-5.1-12.7c0.3-0.7,0.2-1.8-0.2-2.4c-4.3-5.6-8.7-11.2-13.3-16.6
		c-3.5-4.1-7.9-7.6-11.1-12c-2.3-3.1-3.2-7.3-5-10.8c-6.4-12.2-12.8-24.4-19.6-36.3c-1-1.8-4.8-3.8-6.2-3.1
		c-7.2,3.3-14.3,7-20.9,11.4c-3,1.9-5.8,5.3-6.8,8.6c-2.3,7.9-7.1,10.2-14.1,5.7c-3.6-2.3-7-5-10.9-7.8
		C324.9,499.6,320,506.1,315.2,512.6z M477.8,171.1c-1.4,13.6-5.8,26.3-13.1,37.7c-3,4.6-6.8,8.8-10.5,12.9
		c-1.8,1.9-2.8,3.3-1.2,5.9c1.8,2.9,1.1,5.3-1.8,7.7c-6.6,5.6-12.4,12.1-19.2,17.3c-4.9,3.7-11,5.8-16.6,8.6
		c-2.6,1.3-5.3,2.4-7.9,3.8c-5.1,2.8-10.1,5.6-15,8.7c-5.8,3.7-11.8,7.1-17,11.6c-9.3,8-19.8,8.9-30.9,6.7c-4.8-0.9-8.3-3.9-9.5-9.1
		c-0.5-2.2-2.4-4.1-3.6-6.1c-2,1.4-4,2.7-5.9,4.1c-1.7,1.3-3,3.2-4.9,4.1c-12.9,7-25.1,15.4-39.3,19.8c-0.9,0.3-1.7,1.3-3.4,2.7
		c3,0.8,4.9,1.4,6.9,1.9c6.8,1.6,14.1,2,20.3,4.9c9.5,4.5,20.3,6.3,28.5,13.7c2.1,1.9,6.1,1.6,9,2.8c2.7,1.2,6.2,2.5,7.5,4.8
		c8.1,14.5,16.3,29,23.3,44c3.3,7.1,4.4,15.2,6.2,22.9c1.5,6.4,1.9,13.1,4.3,19.1c0.7,1.9,6.2,3.1,9.3,2.8
		c7.1-0.6,14.1-2.5,21.1-3.7c8.8-1.6,17.6-2.8,26.3-4.7c12.8-2.8,25.3-6.7,38.2-9.1c19.4-3.5,39-5.9,58.4-9.2
		c11.7-1.9,23.3-4.6,35-6.8c4.2-0.8,8.5-0.9,12.8-1.4c1.7-0.2,3.3-0.3,4.9-0.6c7-1,14.1-1.9,21-3.2c10.4-1.9,20.7-4.3,31.1-6.2
		c9.5-1.7,18.9-3.4,28.5-4.5c3.6-0.4,7.7,0.3,9.3,5.1c0.4,1.1,2.6,2.5,3.8,2.3c7.8-1.3,15.6-2.9,23.3-4.8c1.3-0.3,2.6-2.3,3.3-3.8
		c2.4-5.4,4.5-10.9,6.8-16.4c0.1-0.3,0.6-0.6,0.5-0.8c-1.3-9,9.1-9.8,11.3-16.3c0.6-1.9,1.8-3.6,2.8-5.3c-1.9-0.5-4-1.8-5.8-1.5
		c-10.8,1.5-21.6,3.2-32.3,5c-6.4,1.1-12.3-0.1-18.5-1.3c-8-1.5-16.4-1.4-24.7-1.5c-10.1-0.1-20.2,0.2-30.3,0.6
		c-10.6,0.5-21.1,1.3-31.7,2c-0.7,0-1.4,0.2-2-0.1c-11.1-5.8-22.6-1.1-33.8-1c-13,0.1-26,2.5-39,3.9c-8.5,0.9-16.8,0.8-25-1.7
		c-4.6-1.4-6.4-4.2-6-9.5c0.7-10.2,1.3-20.4,1.8-30.7c0.2-3.3-2.2-3.1-4.5-3c-4.6,0.1-9.3,0.7-13.8,0.1c-2.2-0.3-5.4-2.2-5.9-4
		c-0.6-2.2,0.4-6.2,2.2-7.3c7.2-4.7,6.6-12.1,7.7-19c0.2-1.1-0.4-2.5,0-3.5c3.6-8,5.2-16.4,5.2-25.1c0-0.6,0.4-1.4,0.9-1.7
		c6.7-4.4,5.3-12,7-18.3c0.2-0.8,0.4-1.9,0-2.4c-5.7-8.1-1-16.9-1.3-25.3c-0.4-9,0.6-18,0.8-27c0-1.7-0.6-3.5-0.9-5.3
		c-0.5,0-1-0.1-1.5-0.1C479.3,162.2,478.2,166.6,477.8,171.1z M670.1,446.8c0.7,0.9,0.8,2.3,1.1,3.5c0.6,2,1,4.2,2,6
		c0.5,0.8,2.4,1.5,3.3,1.2c1.1-0.4,1.9-1.9,2.5-3c0.3-0.6-0.1-1.6-0.4-2.4c-6.2-18.2-10-26.4-29.5-30.8c-7.3-1.6-14.2-5.3-21.4-7.4
		c-9.8-2.8-19-7.9-29.7-6.7c-3.3,0.3-6.2,0.5-5.4,5c0.1,0.7,0,1.9-0.4,2.3c-3.9,3.3-7.5,7.5-12,9.3c-9,3.6-15.7,9.7-21.2,17.2
		c-1.9,2.6-2.8,6-4.1,9c-1.1,2.8-2.2,5.5-2.9,8.4c-0.6,2.2-0.6,4.6-0.8,7c-0.1,1.6,0.7,3.5,0.1,4.8c-1.8,4.3-2.4,8.3,0.6,12.2
		c0.3,0.4,0.6,1.2,0.4,1.4c-4.2,4.2-0.8,8.1,0.1,12.3c1.4,6.3,1.3,13,3.4,18.9c2.5,7,6.9,13.4,10.3,20.1c3.5,6.8,9.4,10.5,16.1,13.3
		c1.5,0.6,3.2,1.2,4.8,1.1c5.2-0.1,7.8,2.1,7.8,6.9c0,4.4-3.7,7.7-8.4,7c-3.7-0.5-7.3-1.9-11-2.5c-2.1-0.3-4.9-0.5-6.4,0.6
		c-4,3-7.4,0.9-10.6-0.8c-4-2.3-7.7-5.1-11.6-7.6c-4.8-3-4.6-2.8-6.1,2.6c-0.5,1.8-3.2,3.9-5.1,4.1c-1.7,0.2-5-2-5.2-3.3
		c-0.8-8.5-5.3-14.5-12-19.1c-7-4.8-9-12.3-9.9-19.8c-1.9-15.8-2.9-31.7-4.4-47.5c-0.1-1-0.2-2.1-0.7-2.9
		c-4.7-7.4-1.7-16.4-4.9-24.3c-1.4-3.5,1.3-8.6,1.6-12.9c0.1-2.1-1-6.2-1.9-6.2c-2.7-0.2-6.5,0.1-8.1,1.8c-3.7,4.1-8.4,4-13,4.8
		c-3.7,0.6-7.7,0.8-11.1,2.2c-2.2,0.9-4.4,3.1-5.6,5.3c-8.9,16.6-10.4,34.3-7,52.6c0.7,3.9,1.2,8-3,10.7c-0.7,0.5-1.6,1.6-1.6,2.4
		c0.4,7.6,0.1,15.1,6.7,21.1c5.7,5.2,11.1,11,11.4,19.7c0.2,6,3.9,8.9,9.5,10.5c9.7,2.8,19.1,6.2,28.7,9.4c3,1,6,3,9-0.7
		c0.5-0.7,3.3-0.4,4.5,0.3c7.1,4.1,14.1,8.5,21.2,12.9c0.7,0.4,1.3,1.5,1.9,1.5c8.8-0.4,17.3,5.7,26.3,1.1c3.2-1.6,7.8-1,8.9-6
		c0.1-0.6,2-1.2,3-1.2c12.6,0.9,23.4-5.1,34.9-8.8c9.1-3,18.2-6.2,27.3-9.1c3.2-1,5.4-2.4,6.4-6.1c0.6-1.9,3.2-3.3,5-4.8
		c2-1.6,4.6-2.8,6-4.8c2.8-4.1,4.9-8.7,7.5-12.9c3.1-5,2.9-9.8,0.6-15c-2.8-6.1-3-12.5-0.7-19c0.1-0.3,0.3-0.6,0.3-0.9
		c-0.2-10.4-0.1-20.8-0.9-31.1c-0.4-6.1-2.3-12-3.4-18.1c-0.1-0.5,0.9-1.1,1.3-1.6C666.4,442.4,668.4,444.5,670.1,446.8z
		 M803.9,275.4c4.4,1.6,8.5,4.3,12.1,7.3c3.2,2.8,1.4,7.7-2.8,7.3c-5-0.4-9.8-2.5-14.6-4c-5-1.6-9.9-3.7-15.1-4.8
		c-2.1-0.5-5.5,0.3-6.9,1.8c-3.3,3.7-6,7.9-8.4,12.3c-1.7,3.2-0.4,5.9,3.4,6.7c5.7,1.1,11.4,2.1,17.2,2.9c7.2,0.9,14.5,1.7,21.8,2.3
		c1.4,0.1,2.9-0.8,4.4-1.2c-0.5-1.5-0.6-3.3-1.5-4.4c-4.8-6.3-4.5-6.3,2.7-9.5c8-3.6,16.4-7,23.2-12.2c5.6-4.3,9.1-11.3,13.5-17.1
		c1.5-2,3-4.1,3.9-6.3c0.8-1.8,1-3.9,1-5.9c0.2-9.6-2.7-19.2,1.5-29.5c1.2,1.9,2.9,3.6,3.4,5.6c1.7,7.4,3.1,14.9,4.5,22.4
		c0.2,1.2,0.2,2.7-0.3,3.8c-5.4,10.3-9.5,21.2-13.5,32.1c-0.5,1.4-0.3,4.5,0.4,4.8c3.8,1.8,4.6,8.4,10.8,6.2
		c3.7-1.3,5.9-2.7,7.7-6.8c9.1-20.6,23.4-37,41.5-50.6c11.3-8.6,24.2-11.9,37.6-14.6c8.4-1.7,16.8-4.1,25-6.5c1.6-0.5,3.1-2.5,4-4.1
		c4.1-7.2,8-14.5,12-21.8c0.6-1,1.3-1.9,2.2-2.7c8.7-7.8,17.4-15.7,26.3-23.2c2.6-2.2,6-3.4,8.9-5.2c1-0.6,2-1.4,3.7-2.6
		c-1.7-0.6-2.6-1.2-3.4-1.2c-13.3,0.2-26.5,0.3-39.8,0.7c-9.9,0.3-19.9,1-29.8,1c-3,0-6-1.9-9.7-3.2c-11,0.2-23.2,0.2-35.4,0.6
		c-9.6,0.4-19.1,1.2-28.7,2c-17.7,1.4-35.4,2.7-53.1,4.2c-5.8,0.5-11.5,1.8-17.3,2c-6.4,0.2-12.8-0.7-19.2-0.6
		c-4.7,0-9.5,1.5-14.1,1c-8.5-0.9-14.8,1.1-17.7,9.9c-0.5,1.5-1.9,2.8-2.6,4.2c-4.8,9.2-3,7.5,4.6,10c3.2,1.1,7,0.1,10.6-0.1
		c3.5-0.2,7,0,10.4-0.8c5.4-1.2,10.7-3,16-4.6c1.3-0.4,2.3-1.4,3.6-1.7c2.3-0.5,4.6-0.8,6.9-1.1c-0.4,2.1-0.7,4.3-1.2,6.9
		c3.1,0.2,6.4,0.7,9.6,0.4c10.7-0.8,21.5-1.7,32.2-3c7.9-1,13.3,4.8,11.5,12.9c-0.6,2.9-0.7,5.9-1.5,8.7c-0.4,1.6-1.4,3.8-2.6,4.3
		c-5.7,2.5-11.7,4.4-17.5,6.6c-1.6,0.6-3.2,1.4-5.1,2.3c0.9,1.2,1.2,2,1.8,2.4c6.3,4.8,5.6,9.8-0.1,15.1c-4.2,4-10,6.3-15.2,9.1
		c-2.5,1.3-14.3-4.3-15.8-7c-1.8-3.2-0.6-4.6,2.7-4.9c3.6-0.4,7.2-0.7,10.7-1.6c3.6-0.9,6.3-2.6,3.1-6.9c-0.5-0.7-0.4-1.9-0.7-3.3
		c-2.6,0.1-5.1,0-7.5,0.4c-14.3,2.6-28.6,5.2-42.9,7.9c-9.3,1.7-16.2,7.9-22.5,14.2c-5.4,5.5-10.7,11.7-13.7,18.6
		c-3.5,8.2-5.7,17.4-3.8,26.7c0.8,4,4.3,6.4,8.4,5.7c4.5-0.8,7.7-2.1,11.2-6.4c8.1-10,15.6-21.6,29.5-25.3c0.5-0.1,1-0.4,1.4-0.4
		c2.4,0.3,4.7,0.7,7,1.1c-1.3,1.7-2.5,3.4-3.8,5c-0.5,0.6-1,1.2-1.9,2.4C793.7,273.2,799,273.6,803.9,275.4z M702.2,138.1
		c0.6,4.4-2.3,8.2-6.5,9.1c-7.2,1.5-14.7,2.5-21.5,5.2c-5.6,2.2-10.7,0.6-16.1,0.6c-1.2,0-2.6-0.5-3.4,0c-7.9,4.6-15.9,0.4-23.8,0.3
		c-8.3-0.1-16.5-0.5-24.8-0.5c-10.4,0-20.9-0.1-31.3,0.6c-6.6,0.4-12.6-0.7-18.7-2.7c-1.5-0.5-3.3-0.1-4.9,0.1
		c-8.2,0.8-16.4,1.6-24.7,2.5c-4.6,0.5-9.1,1.6-13.7,1.8c-7.6,0.3-15.2,0.1-23.5,0.1c0.4,4.4,0.9,8.1,1,11.8c0.2,3.8-0.3,7.6,0,11.4
		c0.5,6.6,1.3,13.3,2,19.9c0.1,0.6,0.6,1.3,0.5,1.9c-0.8,11-2.1,22-2.5,33c-0.1,4,1.3,8.3,2.9,12.1c1.3,2.9,5.6,2,6.5-1.2
		c1.7-6.3,4-12.4,2.7-19.5c-1-5.5,0.1-11.5,0.2-17.2c0-1.4,0-3-0.4-4.3c-2.5-9.6-1.2-18.3,5.6-25.9c0.4-0.5,0.9-1.1,0.9-1.7
		c0.2-6.1,4.6-4.7,8.9-5c-0.7,6.8-1.4,13.1-2,19.5c-0.1,0.5-0.1,1.1-0.4,1.4c-6.8,8.6-2.4,17.2-0.2,25.8c0.6,2.5,0.6,5.3,0.2,7.8
		c-0.7,5.9-1.9,11.7-2.7,17.6c-0.6,4.7-4.1,9.8,1.9,13.8c1.3,0.9,1.4,3.6,2.1,5.4c2.4,5.7,10.1,6.9,14.2,2.2
		c1.6-1.9,3.3-3.7,4.6-5.8c2.4-3.8,4-7.5,3-12.6c-1.4-6.7-1.3-13.7-1.8-20.5c-0.1-1.3,0-2.8-0.5-3.9c-3.8-8.9-0.6-17.5,0.2-26.4
		c0.5-5.4-0.7-11-1.1-16.4c-0.1-0.7-0.5-1.5-0.2-2c1.2-1.9,2.6-3.7,3.9-5.6c1.5,1.5,4.1,2.8,4.4,4.5c1,6.4,1.3,12.8,1.8,19.3
		c0.2,2.1,0.2,4.3,0.3,6.4c0.4,10,1,19.9,1.2,29.9c0.2,7.2-0.1,14.5,0.2,21.7c0.1,1.7,1.4,3.4,2.6,6.4c3.2-7.1,8.6-7.3,14.1-8.8
		c14-3.8,28-1.1,42-2.3c4.9-0.4,9.8-1,14.7-0.8c5.5,0.1,11,1.3,16.6,1.4c6.5,0.2,13-0.6,19.4-0.3c5.9,0.3,11.7,1.7,17.5,2.2
		c4.6,0.4,9.4,0.8,13.8-0.2c3.9-0.9,7-0.6,10.4,1.2c1.6,0.8,3.8,0.3,5.7,0.4c-0.1-2.6,0.7-5.7-0.5-7.5c-0.8-1.2-5.3-1.7-6.7-0.6
		c-7.8,6.1-15.9,3.1-23.7,1.1c-6.3-1.7-12-3.8-18.9-2.5c-13.7,2.6-26.8,1.3-38.8-7.2c-4.2-3-6.1-6.7-8-11c-2.5-5.8-5-11.6-3.9-18.2
		c0.2-1.5,0.3-3.5,1.2-4.2c6-4.4,11.9-9,18.4-12.4c3.7-1.9,8.5-1.6,12.8-2.3c0.5-0.1,1-0.2,1.4-0.5c10.2-7.8,22.5-7.7,34.4-9.3
		c7.7-1,15.3-1.3,21.3-7.6c2.3-2.5,6.5-3.2,9.8-4.7c8.1-3.8,8.9-6.4,6.1-14.7c-1.6-4.8-2.2-10-3.4-14.9c-0.4-1.5-1.4-2.9-2.2-4.3
		c-0.5,0.1-1,0.3-1.5,0.4C701.8,133.4,701.9,135.7,702.2,138.1z M22.9,705.1c-3.8-15.2-1.3-30.4-1.9-45.6c-0.1-1.8,0.4-3.7,0.2-5.5
		c-1.7-12.6,1.3-24.8,3.8-36.8c2.4-11.8,5.8-23.5,9.4-35.1c3.5-11.2,7.9-22.1,11.6-33.2c1.7-5,2.5-10.3,3.8-15.5
		c2.7-10.8,6.2-21.3,11.7-31.1c2.7-4.8,4.8-9.8,7.7-14.5c8.3-13.2,16.2-26.8,25.4-39.3c6.3-8.6,13.9-16.3,22-23.2
		c5.3-4.5,12.8-6.4,18.6-10.4c14.5-10,28.4-20.7,40.8-33.3c6-6.1,13.4-10.8,19.9-16.3c5.5-4.7,10.7-9.9,16.2-14.7
		c5.3-4.7,10.9-9.2,16.1-14c3.4-3.1,6.4-6.6,9.6-9.9c-0.3-0.3-0.5-0.7-0.8-1c-0.8,0-1.7-0.2-2.3,0.2c-9,6.2-20,9.4-27,19
		c-2.9,4-8.3,7.1-13.2,8.6c-7.6,2.3-12.7,7.7-18.6,12.1c-6.6,4.9-13.8,9.2-19.2,15.1c-4.7,5.1-8.7,10.7-14.4,14.9
		c-14.1,10.3-27.9,21-44.7,27.1c-3.3,1.2-6.2,4.8-8.4,7.9c-3.9,5.5-7.5,11.3-10.7,17.2c-4.5,8.1-8.5,16.4-12.8,24.6
		c-1.6,3-3.5,5.9-5,9c-2.5,5.2-5,10.3-7.1,15.7c-4,9.9-7.8,19.9-11.6,29.9c-5,13.4-10.5,26.6-14.6,40.2c-2.6,8.5-2.9,17.6-4.7,26.4
		c-0.9,4.4-2.9,8.6-4.2,12.9c-1.5,4.9-3.2,9.8-4,14.8c-1.5,10-2.3,20.2-3.7,30.2c-1,7-2.7,13.7-1.7,21.1c1,7.1-0.2,14.4,0.1,21.6
		c0.5,10.2,3.1,19.8,10.2,29.1C23.1,716.6,24.3,710.6,22.9,705.1z M736.5,312.4c1.2,5.3,2.2,10.6,4,15.7c0.7,2.1,3,3.7,4.8,5.9
		c3.9-5.9,1.8-11.1-0.4-17.4c5.7,2.5,7.5,6.4,9,10.3c1.6,3.8,2.9,7.8,4.1,11.8c1.4,4.5,4.6,6.8,9,7.6c4.3,0.8,4.5,3.7,3.9,7.1
		c-0.9,4.8-2.1,9.6-2.7,14.4c-0.1,1.1,1.7,3.4,2.6,3.5c17.2,0.6,33.8-2.1,48.3-12c3.3-2.3,5.2-6.6,7.9-9.8c0.8-1,2-2.2,3-2.3
		c7.6-0.8,8.9-7,11.3-12.4c0.4-0.8,0.5-2.5,0-2.8c-4.1-3.3-1.2-5.9,0.3-9c3.7-7.7,7.8-15.5,0.2-24.9c2.7-1.9,5.3-3.8,8.8-6.3
		c-9.5-1.5-16,2.6-22.7,6c-0.9,0.5-1.5,3.1-1.1,4.3c4.7,12.6-0.9,22.9-7.9,32.3c-7.5,10.1-18,16.2-30.8,17.4c-2.4,0.2-5,0.1-7.4-0.4
		c-4.1-0.8-7.2-3.3-7.5-7.6c-0.3-4.8,4.3-9.3,8.9-10.3c7.1-1.7,13.2-5.5,17.9-11.1c3.8-4.5,2.8-6.3-2.9-7.5
		c-9.3-1.8-18.8-2.9-27.8-5.7c-7.8-2.5-15-3.6-22.8-1c-2.8,0.9-6.2,0.1-10,0.1C736.5,309.5,736.2,311.1,736.5,312.4z M429.5,155.3
		c0,5.9-1.4,11.5,0.3,15.9c2.7,7.2,0.8,13.3-1.6,19.6c-0.3,0.7-1,1.6-1.6,1.8c-11.8,2.9-13.7,13.8-17,22.6
		c-5.6,15.1-15.6,25.6-29,33.4c-7.9,4.6-16,8.7-23.7,13.4c-3.3,2-6.2,5-8.8,8c-2.9,3.5-2.9,8.2,0.1,11c1.9,1.8,6.9,2.3,9.5,1.1
		c6.8-3.2,15-6.2,19.2-11.8c6.2-8.4,15.4-11,22.8-16.7c8-6.1,15-13.5,22.3-20.4c4.8-4.6,9.5-9.3,14.3-13.9
		c9.6-9.1,18.5-18.5,20.2-32.7c0.7-5.7,3.1-11.1,4.9-16.6c0.4-1.1,1.7-1.9,2.5-2.9c0.9-1.3,1.7-2.7,2.5-4.1
		C452,169.8,443.2,168.3,429.5,155.3z M468.3,133c-0.7-18.7-1.6-37.4-2.2-56.1c-0.1-4.7,0.7-9.5,1.3-14.2c0.6-4.7,1.2-9.5,2-14.2
		c0.9-5.3-2.6-7.9-6.2-10.4c-2.3-1.6-4.6-1.6-7.2,0.5c-10,8-13.7,18.8-16.4,30.9c-2.4,10.8-3.4,21.6-3.4,32.6
		c0,4.6-1.7,9.1-2.3,13.7c-1.3,8.8-2.4,17.5-3.6,26.3c0.4,0.1,0.9,0.2,1.3,0.3c2.4-3.7,4.8-7.4,7.6-11.7c-0.2-0.5-0.8-1.8-1.5-3.7
		c12.8-7.9,20.7,2,30,8.6C468,134.2,468.3,133.6,468.3,133z M565.9,406.1c-4.5,7.7-12,11.3-19.3,15.1c-6.7,3.5-13.3,6.6-17.4,13.5
		c-2.2,3.6-6.2,3.4-11.5,0.2c-1.2-0.8-2.3-1.8-4.4-3.5c-0.1,5.7-2.7,10.2-0.5,15.5c1.3,3.1,0.9,6.8,1.4,10.3
		c1.8,13.9,3.2,27.9,5.6,41.7c1.1,6.6,4.1,12.9,6.2,19.3c1,3,1.5,6.3,3.2,8.8c2.8,4.2,5.8,8.6,9.7,11.7c4.7,3.7,10.4,6.1,15.6,9
		c0.4-0.5,0.9-1,1.3-1.5c-2.8-5.3-6.2-10.4-8.4-15.9c-2.9-7.3-5-14.9-7-22.6c-3-11.5-6.1-23.1-8.3-34.8c-0.8-4.5,0-9.5,1.1-14.1
		c2.5-10.4,8.5-19.2,14.8-27.5c5.9-7.8,15.1-11.7,23.4-16.6c0.3-0.2,0.6-0.4,0.9-0.5c8-3.3,15.1-7.7,19.1-17
		C581.8,397.9,571.7,396,565.9,406.1z M628.1,404.5c10.1,6.8,20.2,13.4,33.1,14.4c8.7,0.7,16.5,5.2,22,12.3c2.1,2.7,3.3,6.1,5,9.1
		c0.4,0.8,1.2,1.4,1.7,2.1c0.5-0.1,1-0.2,1.5-0.3c-0.4-6.5-0.9-13-1-19.5c0-1.8,0.7-4.3,2-5.3c5.4-4.2,11.7-7.4,16.7-12
		c6.3-5.7,13.9-5.7,21.3-7.1c1-0.2,2.1,0.2,3-0.2c1.3-0.7,2.4-1.8,3.6-2.7c-1.1-0.8-2.1-2-3.3-2.5c-3.4-1.2-6.9-2.2-10.4-3.2
		c-1.2-0.3-2.7-0.7-3.8-0.4c-8,2.6-15.9,1.6-23.9-0.1c-0.8-0.2-1.7-0.2-2.5,0c-9.5,2.8-19.1,1.1-28.8,0.7c-9.2-0.4-18.4-1.2-27.1,4
		c-3.7,2.2-9,2-15.2,3.2C624.5,400.1,625.9,403,628.1,404.5z M702.5,198.6c-1.2,1.2-3.6,2.3-5.2,2c-10.2-1.6-20.1,1-30.1,2.2
		c-9.8,1.2-19.7,1.5-30.3,2.2c-0.1,0.4-0.9,1.7-0.5,2.7c2.2,6.9,4.2,13.9,11.3,17.8c9.9,5.5,20.6,8.4,31.8,9.2
		c6.6,0.5,13.2-0.5,19.8-0.9c0.3,0,0.8-0.2,0.9-0.4c2.6-4.9,6.1-9.6,7.3-14.8c1.8-7.4,1.8-15.3,2.7-23c0.2-1.8,0.7-3.5,1.1-5.2
		c-0.6-0.3-1.1-0.6-1.7-0.9C707.3,192.7,705.2,195.9,702.5,198.6z M455.9,549.8c-3.6-5.9-7.2-12.1-12.1-17
		c-6.1-6.1-7.8-13.5-9.6-21.2c-0.1-0.6,0-1.4-0.3-2c-5.2-9.6-0.7-18.8,1.2-28.1c1.6-7.9,3.4-15.8,5.4-23.6c1.3-4.9,3.2-9.7,4.8-14.6
		c0.5-1.5,1-3,2.1-5.9c-3.5,1-5.7,1.3-7.6,2.2c-6.5,2.9-13.1,5.6-19.3,9.1c-4.6,2.6-9.9,5.4-12.4,9.5c-1.9,3.1,0.2,8.6,0.6,13.1
		c0.3,3,1.5,6,1.2,8.8c-0.7,5.6,3.9,16.3,9.6,18.9c4.6,2.1,5.1,5.5,5.3,9.6c0.1,2.3,1,4.6,1.9,6.7c2.2,5.2,4.1,10.5,7,15.3
		c6.9,11.8,14.6,23.2,24.3,32.9c1.2,1.2,2.7,2,4.1,3c0.6-0.5,1.2-0.9,1.8-1.4C461.3,560.1,459,554.7,455.9,549.8z M390.3,98.9
		c-1.5,7-3.4,14-4.6,21c-0.5,3.1,0.8,6.5,0.5,9.7c-0.3,3.1-1.5,6-2.4,9c-0.1,0.4-0.8,0.7-0.9,1.1c-3.4,11.4-13.5,14.6-22.8,18.9
		c-1,0.5-2.4,0.9-3.3,0.6c-14.7-5.4-29.3-11-44-16.3c-3.4-1.2-7-1.7-10.6-2.6c-5.6-1.4-11.1-3.2-16.8-4.3c-1.7-0.3-3.7,1.1-5.6,1.8
		c1.1,1.5,1.8,3.6,3.3,4.4c4.8,2.5,9.9,4.5,14.8,6.8c1.7,0.8,3.2,1.7,4.8,2.5c3.9,2,7.5,5,11.6,5.9c12.2,2.5,24.7,3.4,36.7,6.5
		c10.9,2.9,19-2,27.5-6.8c1.6-0.9,2.6-2.9,3.7-4.4c1.1-1.5,1.6-3.5,3-4.5c8.7-6.7,10.8-16.6,13.1-26.3c1.6-6.5,2.3-13.3,3.6-20
		c1-4.9,2.5-9.8,3.5-14.7c0.8-4,1.5-8.1,1.5-12.2c0-1.5-2-4.1-3.5-4.4c-1.8-0.3-5.2,0.7-5.8,2c-2.9,6.8-5.2,13.9-7.6,20.9
		c-0.3,0.7,0,1.6,0,2.5c0.1,0,0.2,0,0.3,0C390.5,96.9,390.5,97.9,390.3,98.9z M339.1,414.6c1.4-0.4,2.8-4.5,2.5-6.5
		c-2.1-13-8.6-24-16.8-34.3c-2.7-3.5-4.2-8.1-9-9.3c-2.1-0.5-5.2-0.8-6.7,0.4c-7.3,5.4-14.2,11.3-21.1,17.1
		c-2.5,2.1-1.4,7.3,2.3,9.2c5.1,2.7,10.4,5.1,15.9,6.9c7.8,2.5,10.7,9.8,15.7,15c0.3,0.3-0.8,2.6-1.7,3.3c-1.6,1.1-3.6,1.5-5.4,2.3
		c0.1,0.5,0.2,1,0.2,1.5C323.1,418.3,331.2,416.8,339.1,414.6z M354.9,473c1.3-1.2,2.8-3.5,3.7-3.3c4.6,0.9,7.5-1.8,10.9-3.8
		c6.4-3.7,12.6-8.8,19.6-10.4c12.1-2.8,20.3-11.4,30.3-17.1c13.9-7.8,28-14.2,44.6-13.9c5.3,0.1,10.6-2.3,15.8-3.8
		c0.9-0.3,1.5-1.8,2.2-2.8c-1.1-0.6-2.2-1.7-3.2-1.6c-7.6,0.7-15.2,1.2-22.7,2.5c-11.3,2-22.6,4.1-33.6,7
		c-7.1,1.9-13.9,5.2-20.9,7.8c-2.2,0.8-4.6,0.9-6.7,1.8c-5.8,2.4-12,4.3-17.2,7.7c-3.9,2.6-6.5,7.3-9.9,10.8
		c-2.2,2.3-5.3,3.9-7.3,6.4c-4.8,5.7-9.1,11.7-13.7,17.6c0.4,0.5,0.8,1,1.2,1.4C350.3,477.2,352.6,475.1,354.9,473z M366,244.6
		c8.5-7.2,19.6-11.2,26.1-20.9c4.6-6.9,8.9-14,13.2-21.1c0.5-0.9,0.5-2.8-0.1-3.6c-0.5-0.7-2.3-1.1-3.3-0.9
		c-10.5,2.4-20,6.9-28.5,13.5c-0.4,0.3-0.8,0.8-1.2,0.9c-7.4,1.3-7.2,7.2-8.2,12.7c-1,5.6-3.2,11.1-4.9,16.6c-0.6,2-1.2,4-1.8,6
		c0.4,0.4,0.7,0.8,1.1,1.2C361,247.5,363.8,246.5,366,244.6z M1254.2,15.4c-1.6-3-3.8-3.5-7.4-2.8c-11.3,2.2-21.1,8-30.9,13.4
		c-3.7,2-6.4,5.8-9.6,8.7c0.2,0.5,0.5,1,0.7,1.5c2.6,0.2,5.1,0.7,7.7,0.6c4-0.2,7.2-2.9,12.1-1c4.9,1.9,11.2-0.3,16.8-0.2
		c5.1,0.1,10.1,1,15.2,1.4c1.4,0.1,2.9-0.2,6.1-0.4C1261,28.8,1257.6,22.1,1254.2,15.4z M135.7,517.9c-1.8-3.8-4.9-4-7.8-0.8
		c-2.5,2.7-5.1,3.8-8.9,2.6c-5.8-1.8-12.2,3-10.9,9.1c1,4.8,4.1,9.1,6.4,13.5c0.9,1.7,2.1,3.6,3.7,4.6c3.4,2,7,4.3,10.8,4.8
		c1.7,0.2,4.5-3.6,5.6-6.2c2.1-5,3.3-10.3,5-15.9C138.3,525.6,137.4,521.5,135.7,517.9z M749.6,374.2c1.1-4.2,5.4-7.6,8.1-11.5
		c0.6-0.9,0.8-3.3,0.2-3.7c-5.4-4-10.9-7.9-16.6-11.5c-0.5-0.3-2.6,1-3.1,2c-3.6,6.7-6.9,13.5-10.5,20.2c-0.7,1.4-2,2.6-2.8,4
		c-0.8,1.3-2.4,3.3-2,4.1c0.8,1.4,2.7,2.5,4.3,2.8c3.2,0.6,6.6,0.6,10.7,0.9C741.8,380.1,747.7,381.6,749.6,374.2z M514.7,408.3
		c-1.5,0.2-3.2,1.4-4.1,2.7c-1.5,2.1-2.5,4.5-4.2,7.6c6.6,0.4,12.2,6.5,20.8,2.7c9.8-4.4,18.7-9.7,25.6-17.5
		C540.3,405.2,527.5,406.6,514.7,408.3z M672.3,103.1c7.1,0.4,14.2,0.2,21.3,0.5c1.4,0,3.1,0.5,4.2,1.4c3.6,2.8,6.3,1,8.4-1.8
		c2.7-3.4,6.4-6.6,4.2-12.3c-17.8,2.5-35.8,5-53.7,7.4c-0.1,0.9-0.1,1.9-0.2,2.8C661.8,101.8,667,102.8,672.3,103.1z M523.4,581.7
		c-9.1-0.1-15.7-6.6-23.8-9.3c-6.4-2.2-12.5-5-18.9-7.1c-1.6-0.5-3.8,0.4-5.7,0.7c1,2.4,1.2,6,3,7c4.8,2.8,10.2,4.6,15.4,6.7
		c0.9,0.4,2.3,0.7,2.6,1.4c3,7.2,9.3,5.3,14.7,5.6c4.8,0.2,9.5,0.1,14.3,0.1c0.5,0,1.1-0.7,2.4-1.6
		C525.7,583.6,524.6,581.7,523.4,581.7z M1264.3,53.3c4.7,0.2,9.4-0.3,14.1-0.8c3.2-0.3,3.6-2.7,1.6-4.5c-1.5-1.4-4.8-2.9-6.1-2.2
		c-7.1,4-14.4,0.4-21.5,0.8c-5.7,0.3-11.6-0.9-17.3-1.1c-1.3,0-2.7,1.2-4.1,1.8c1.3,1,2.4,2.6,3.8,2.8c3.9,0.8,7.9,1.1,11.8,1.5
		c0-0.1,0-0.2,0-0.3C1252.5,52,1258.4,53,1264.3,53.3z M717.8,196.8c-0.1,4.8-0.1,9.6,0.1,14.4c0.1,3.1,1.3,4.8,5,4.4
		c5.5-0.6,11.2-0.7,17.6-1c-7.2-7.3-13.8-14.2-21.1-21.7C718.6,194.4,717.8,195.6,717.8,196.8z M444.1,148.2
		c-0.6,3.8,1.2,6.9,4.7,8.5c3.3,1.5,6.4,0.5,8.3-2.3c2.1-3.1,3-6.5,0.2-10c-1.5-1.9-2.4-4.3-3.9-6.3c-1.2-1.6-2.9-2.9-4.4-4.3
		c-0.6,0.2-1.2,0.4-1.8,0.6C446.2,139,444.8,143.5,444.1,148.2z M689.5,297.7c2.2-0.3,4.5,0,5.7-1c3.4-3,6.5-6.4,9.4-9.8
		c0.7-0.9,1.1-2.7,0.8-3.7c-1.5-3.9-3.4-7.7-5.8-13.1C696.1,279.7,693,288.2,689.5,297.7z M418.5,156.1c1-6.5,1.8-13,2.5-19.5
		c0.1-0.9-0.9-1.9-1.4-2.8c-0.9,0.6-2.3,1.1-2.5,1.9c-1.4,6.4-2.6,12.8-3.6,19.2c-0.2,1.3,0.7,2.8,1.6,5.9
		C416.8,158.5,418.3,157.4,418.5,156.1z M364.9,177.4c1.3-0.7,2.2-2.1,3.3-3.2c-1-0.7-1.9-1.9-3.1-2.1c-2.4-0.5-5.1-1-7.5-0.4
		c-1.4,0.3-2.4,2.5-3.5,3.8c1.5,0.7,2.9,1.6,4.4,2.2c0.8,0.3,1.9-0.1,2.9-0.2c0-0.1,0-0.2,0-0.2C362.6,177.3,364,177.8,364.9,177.4z
		"/>
	<path class="st0" d="M572.6,375.1c1.1,3.4,1.9,6.9,3.5,10.1c0.6,1.2,2.9,2.2,4.4,2.1c1,0,2.3-1.9,2.9-3.2c4-8.4,2-16.3-2.2-24
		c-0.8-1.4-1.2-3.1-1.4-4.7c-1.3-7.3-3.6-9.7-10.8-11c-7.2-1.3-14.3-1.8-21.7,0.4c-11.1,3.3-18.7,21.3-12,30.6
		c4.2,5.8,10.6,10.8,17.6,10.7c5.1-0.1,10.2-4.6,15-7.6c0.8-0.5-0.1-3.6-0.2-5.5c-1.5,0.1-3.2-0.1-4.5,0.5
		c-5.4,2.5-14.2-0.8-16.2-6.2c-1.3-3.5,3.9-11.8,8.1-13.1c0.3-0.1,0.7-0.1,1-0.2c11.6-2.6,14.1-1.1,16.4,10.5
		c0.7,3.4,0.9,6.9,1.3,10.3C573.3,374.9,573,375,572.6,375.1z"/>
	<path class="st0" d="M365,343.4c-3.5-1.9-7.9-3.1-10.2-5.9c-3.1-3.7-4.7-8.7-6.8-13.2c-1.3-2.8-0.7-4.7,2.7-5.5
		c1.5-0.3,2.8-1.4,4.2-2.3c5.2-3.2,10.3-6.4,15.5-9.6c2.8-1.7,5.8-3.3,8.7-4.9c1.1-0.6,2.3-1.4,3.5-1.4c6.5-0.2,16.3,8.6,18.4,14.9
		c2.1,6.3-2.4,10.4-3.9,15.4c-1.5,5.2-13,12.4-17.7,11.9c-4.6-0.5-9.1-1.1-13.7-1.6C365.5,342.2,365.2,342.8,365,343.4z
		 M364.7,328.9c1,1.1,2.6,3,3.4,2.8c4.4-1.3,8,5.5,12.4,1c2.9-2.9,5.7-5.9,8.8-8.7c2.7-2.5,2.8-5.5,0-7.4c-6-4.1-20-0.8-23.7,5.6
		c-0.8,1.4-0.9,3.1-1.1,3.6C364.6,327.6,364.3,328.5,364.7,328.9z"/>
</g>
</svg>
