<?xml version="1.0" encoding="utf-8"?>
<!-- Generator: Adobe Illustrator 21.0.2, SVG Export Plug-In . SVG Version: 6.00 Build 0)  -->
<svg version="1.1" id="skull_xA0_Image_1_" xmlns="http://www.w3.org/2000/svg" xmlns:xlink="http://www.w3.org/1999/xlink" x="0px"
	 y="0px" viewBox="0 0 967.3 1213.2" style="enable-background:new 0 0 967.3 1213.2;" xml:space="preserve">
<style type="text/css">
	.st0{fill:#242424;}
</style>
<g>
	<path class="st0" d="M691.5,34c-0.2,8.2-0.2,8.2,8,8.8c1.1,0.1,2.8,0.2,3.2,0.9c3.1,5.2,9,6.7,13.4,10.2c7.9,6.3,16,12.9,25.1,16.8
		c7.1,3.1,13.9,8,21.5,9.1c10.8,1.6,17.9,6.9,24.2,15.2c3.3,4.2,9,6.5,13.4,9.9c5.5,4.3,10.9,8.7,16.1,13.3c2,1.7,3.2,4.2,5.1,6
		c7.3,6.6,14.9,12.9,22,19.6c4.5,4.3,8.1,9.7,12.9,13.5c6.4,5,10,13.4,19,15.2c2.1,0.4,4.5,2.1,5.7,3.9c3.7,5.6,6.9,11.6,10.5,17.3
		c1.6,2.4,3.7,4.6,5.8,6.6c2.4,2.3,5.8,3.9,7.3,6.7c5.4,9.9,10.3,20.1,15.3,30.2c2.9,5.8,6.1,11.4,8.3,17.4
		c4,11.4,8.8,22.9,10.4,34.7c1,7.1,2.1,14.2,3.4,21.2c0.4,2,2.9,3.5,4,5.4c2.1,3.5,4.9,7,5.7,10.9c5.5,26.9,7.9,54.1,8,81.5
		c0.1,8.8-0.4,17.5-0.3,26.3c0,1.4,1.7,3.7,2.8,3.9c4.4,0.7,4.9,3.6,4.6,6.9c-1.1,13.1-2.4,26.1-3.6,39.2
		c-0.5,5.8-1.3,11.6-1.3,17.4c0,3,1.4,5.9,2.1,8.9c0.4,1.5,1.1,3.3,0.7,4.7c-3.4,11.3-2.4,22.9-2.7,34.5c-0.2,8.1-2.9,16.2-4.8,24.3
		c-0.9,4-2.6,7.8-3.6,11.7c-2.3,8.8-4.2,17.8-6.5,26.6c-0.9,3.5-2.1,7.2-4.2,10c-10.9,14.3-21.6,28.9-33.6,42.3
		c-11.5,12.8-24.6,24.2-36.9,36.2c-5.3,5.2-10.7,10.3-16,15.6c-0.7,0.7-1.6,1.6-1.6,2.4c0,9.5-8.2,11.5-14.1,15.6
		c-1.1,0.7-2.9,1.2-3.2,2.1c-2.6,9.4-11.7,10-18.5,13.5c-5.3,2.7-11.5,3.4-17,5.8c-12.3,5.2-24.3,11-36.5,16.3
		c-5,2.2-10.3,3.7-15.3,5.9c-4.2,1.8-7.8,4.1-9.9,9c-1.2,2.8-5.1,4.5-7.9,6.4c-8.3,5.8-15,12.7-18.6,22.6c-1.6,4.4-5.2,8-7.4,12.3
		c-2.6,5.2-4.7,10.8-7,16.2c-0.2,0.5-0.2,1.2-0.5,1.4c-8.6,4.6-9.6,13.9-13.3,21.5c-4.4,9.1-9.8,18.1-12.2,27.7
		c-3.7,14.7-9.8,28.2-16.3,41.6c-3.1,6.5-8.3,11.9-12.1,18.1c-4.7,7.8-10.8,15.5-12.7,24c-1.7,7.2-7.7,11.8-8.3,19
		c-0.2,2.1-0.9,4.8,0.1,6.4c1.9,3.2,1.4,6-0.8,8.2c-9,9.6-12.3,22-16.9,33.7c-1.7,4.4-3.6,8.7-2.4,14c0.5,2-2.3,4.9-3.7,7.3
		c-6.5,11.3-13.3,22.5-19.5,34c-1.8,3.4-4.5,4.4-7.5,5.8c-9.1,4.1-15.8,11.4-22.9,18.1c-9.3,8.6-18.8,16.8-30.2,22.9
		c-9.3,5-17.5,11.8-26.2,17.9c-6.5,4.5-12.4,10.1-21.5,7.5c-2.9-0.8-16,7.5-17.5,10.1c-0.9,1.5-2,3.3-3.5,4
		c-9.3,4.3-19,7.9-28.1,12.6c-13,6.6-27.3,6.8-41.1,9.5c-3.4,0.7-7.1-0.3-10.6-0.5c-1-0.1-2-0.5-2.9-0.3c-12,2.8-24.1,2.1-36.2,0.5
		c-4.3-0.6-8.9,0.6-13.3,0.9c-13.9,1-27.8,2.7-41.7,2.5c-7.1-0.1-14.2-3.2-20.5-8c-5.7-4.4-12.5-8.4-20.6-4c-1,0.5-3.7-1-4.9-2.2
		c-3.2-3.3-6.2-6.5-11-8.1c-2.9-0.9-5-4.5-7.2-7.2c-3.1-3.8-5.4-7.9-11.8-7.4c-2.7,0.2-6.4-3.3-8.3-6.1c-3.7-5.4-6-11.6-9.5-17.1
		c-4.7-7.2-9.8-14.2-15.1-21c-2.5-3.2-6.1-5.4-8.9-8.4c-4.7-4.9-9.2-9.9-13.7-15c-5.2-5.9-10.3-12-15.5-18c-1-1.1-2.5-2.1-2.9-3.4
		c-4-10.6-14.8-14.9-21.5-23.1c-1.1-1.3-3.1-1.8-4.6-2.8c-3.3-2.2-6.5-4.5-9.8-6.6c-11.7-7-16.2-20.8-27.5-28.2
		c-0.7-0.4-1.4-1.2-1.5-1.9c-1.2-6.5-2.6-13-3.1-19.5c-0.2-3.2,0.4-6.1-2.4-8.6c-1.1-1-2-3.7-1.4-4.9c1.6-3.8,0.4-7.3,0.4-11
		c-0.1-3.9,1.8-7.9,2.8-11.8c3.5-13.7,7.1-27.3,10.3-41c0.6-2.8-0.5-5.9-0.4-8.9c0.6-10.1,1.9-20.2,2-30.3
		c0.1-16.7,4.9-33.2,1.9-50.1c-1.7-9.4-1.3-19.3-3.6-28.5c-2.9-11.6-3.6-23.9-10.1-34.6c-1.9-3.2-1.6-8.1-1.4-12.2
		c0.2-8-2.6-14.9-6.1-21.7c-5.5-11-11.2-21.8-16.5-32.9c-0.8-1.8-0.6-4.6,0.1-6.5c1.3-3.3,0.6-6.3-2-7.3c-4.9-1.9-5.8-6.3-7.7-10.1
		c-6.7-12.9-13.8-25.7-19.7-39c-5.1-11.5-7.5-23.7-5-36.4c0.5-2.4,0.3-4.9,0.6-7.4c1.2-8,2.2-16.1,4-24c0.9-4.1,4.3-4.8,10.4-2.7
		c5-9,14-13,22.7-17.6c5.8-3,6.1-5.3,2.9-11.2c-4.2-7.8-9-15.5-11.8-23.9c-3-8.9-3.9-18.4-5.8-27.6c-0.5-2.6-1.5-5-2.2-7.5
		c-0.4-1.8-0.8-3.7-0.9-5.6c-0.8-11.4,7.3-21,6.4-32.5c-0.5-5.7,1.2-11.5,1.4-17.3c0.1-4.7-0.7-9.4-0.7-14.1
		c0-10.1,0.1-20.2,0.5-30.3c0.2-3.6,1.5-7.1,2.1-10.6c1.9-10.1-0.3-19.9-1.8-29.7c-1.4-9.3-2.8-18.7-3.5-28.1
		c-0.6-8.7,5-15.2,9.3-22.1c3.6-5.7,6.5-11.9,10.1-17.7c4.1-6.7,8.5-13.3,12.9-19.8c8.6-12.5,17.6-24.8,26.2-37.3
		c7.5-10.9,14.9-21.9,21.9-33.1c5.1-8.1,9.6-16.5,14.5-24.7c1.7-2.8,3.4-5.8,5.7-8.1c7.9-7.9,13.4-17.5,18.9-27.1
		c0.9-1.6,2.9-2.6,4.5-3.6c1.4-0.9,3-1.2,4.5-2c4.9-2.7,5.2-6.4,1.5-9.7c1.4-1,3.5-1.8,4.4-3.3c2.3-4,5.4-5.5,9.9-6.2
		c4.2-0.7,8.2-3.3,12.2-5.1c12.3-5.5,24.6-10.9,36.8-16.6c4.6-2.1,9-4.9,13.5-7.2c3.1-1.5,6.3-2.8,9.5-4
		c11.4-4.2,22.9-8.3,34.3-12.5c0.3-0.1,0.7-0.2,1-0.2c12.5,1.9,22.1-5.6,32.6-10.3c6.5-3,12.8-6.7,19.4-9.6c3.2-1.4,7-1.9,10.5-2.1
		c9.4-0.4,17.1-5.5,25.7-8.2c4.7-1.4,9.8-2.2,13.9-4.6c7.2-4.3,15.4-4.3,23.1-6.1c3.4-0.8,7.2,0.8,10.8,0.5
		c9.2-0.8,18.4-2.1,27.5-3.1c10.1-1.1,19.1-5.1,28.1-9.7c5.4-2.7,11.5-4,17.2-5.9c0.5-0.1,1-0.2,1.5,0c6.3,1.8,12.5,3.7,18.8,5.4
		c3.5,0.9,7,1.5,10.5,2.3c5.9,1.4,11.6,3.4,17.5,4.2c7.6,1.1,15.4,1,23,2c4.9,0.7,9.7,2.2,14.4,3.8c3.1,1,5.7,3.5,9,0.2
		c0.8-0.8,2.5-1,3.7-1c10.1,0.2,20.2-0.3,30.1,1.1c12.7,1.9,25.1,5.2,37.6,8.2c4.3,1,7.7,4.5,13,2.9c1.8-0.6,4.9,2.5,7.3,4.1
		c1.6,1.1,2.8,2.9,4.4,3.8c6.6,3.8,7.1,3.7,12.7-1.7C689.8,35.1,690.4,34.8,691.5,34z M253.3,1169.1c4.3,1.7,7.9,3,11.4,4.4
		c4.9,1.9,9.6,4.1,14.6,5.8c1.2,0.4,3.8-0.6,4.4-1.6c2-3.8,4.8-3.9,8.4-3c9.5,2.4,18.7,6.3,28.9,3.5c7.8-2.2,15.8-3.4,23.5-5.7
		c3.2-0.9,5.8-4,8.9-5.1c6.6-2.4,13.6-4,20.3-6.2c5.1-1.6,10.7-2.8,11.8-9.6c0.1-0.7,0.8-1.4,1.4-1.9c3.4-2.6,7.4-4.7,10.2-7.9
		c4.4-5,9.1-9.7,11.3-16.6c1-3.2,4.6-7.1,7.7-7.8c8.1-2.1,14.3-9.3,23.4-8.5c0.9,0.1,2-0.1,2.9-0.6c4-2.1,9.3-3.4,11.6-6.8
		c5.1-7.2,8.5-15.6,12.8-23.4c3.7-6.7,7.9-13.2,11.6-20c0.6-1.1,0.6-3.8-0.1-4.3c-4.8-3.2-9.7-6.2-14.8-8.7
		c-3.3-1.6-7.2-1.9-10.5-3.3c-1.4-0.6-2.2-2.6-3.1-4.1c-0.8-1.4-1.2-3.1-2.1-4.3c-6.3-7.9-9.4-16.5-9.2-27
		c0.1-8.1-2.4-16.2-4.1-24.2c-0.7-3.5,0.8-7.5,3.8-7.8c2.8-0.2,5.7-0.3,8.6-0.2c0.9,0,2.2,0.3,2.6,1c4.9,7,12.7,9.5,19.7,13.4
		c7.6,4.2,13.4,0.8,18.9-2.7c5-3.2,4.6-9.2,3.3-14.5c-2.6-10.3-5.8-20.5-8.2-30.8c-3.4-14.9-9.2-28.8-17-41.9
		c-3-5.1-2.3-6.8,3.3-9.6c1.9-0.9,4.2-1.8,5.2-3.4c5.2-8.1,7.4-17,5.2-26.5c-1-4.3-6.8-9.2-10.1-8.9c-5.2,0.6-11.6,6.4-12.9,11.7
		c-0.5,2.3-0.9,4.7-1.4,7.6c-1.3-0.7-2.2-1.6-3.2-1.7c-5.2-0.6-9.4-6.7-15.7-2.9c-0.9,0.5-4.4-2.7-6.3-4.7c-1-1.1-0.7-3.2-1.5-4.6
		c-4.2-6.9-5.5-14.4-5.1-22.3c0.5-9.6,1-19.2,1-28.8c0-5.1,1.6-8.8,5.2-12.3c2.1-2.1,3.1-5.2,4.9-7.7c1-1.3,2.5-3,3.9-3.1
		c1.3-0.1,2.9,1.5,4.2,2.5c1.6,1.2,2.9,3.2,4.7,3.9c4.6,1.8,9.5,2.8,14.2,4.5c2.1,0.8,4.2,2.3,5.8,4c5.1,5.2,9.6,10.9,14.9,15.7
		c4.9,4.4,10.5,7.9,15.9,11.7c4.5,3.1,9,6.8,14.9,3.1c3.9-2.4,7.9-4.7,11.3-7.7c10.7-9.6,22.7-17.4,34.5-25.7
		c9.3-6.5,18-13.1,29.6-14.8c2.7-0.4,17.4,3.3,18.9,5.6c1.9,3,3.6,6,5.6,9.5c0.3-0.4,0.1,0.2-0.3,0.4c-7.6,3.3-13.4,8.7-18.1,15.3
		c-3.7,5.3-6.9,11-10.6,16.5c-6.8,10.1-6.8,14.7,0.6,24c-2.1,2.4-2.8,5.3,0.8,6.7c1,0.4,3.6-2,4.7-3.7c2-3.2,3.1-7,5.3-10
		c6.7-9.1,11.6-19.1,15.3-29.8c1.5-4.3,3-8.6,8.2-10.4c2-0.7,3.5-3.4,4.9-5.4c2.6-4,4.5-8.5,7.4-12.1c4.3-5.3,9-10.3,14-14.9
		c3.1-2.8,6.8-5.2,10.6-6.9c6.7-3.1,13.7-5.5,20.6-8.2c4.3-1.6,8.5-3.4,12.9-4.6c7.2-1.9,14.5-3.3,21.7-4.9
		c7.6-1.7,15.1-3.9,22.8-4.8c3.3-0.4,6.5,0.4,9.8-1.2c4.8-2.4,10-4,15.1-5.9c8.7-3.1,17.5-5.9,26.1-9.3c1.4-0.6,3.1-3.9,2.6-5.3
		c-1.8-5.1-4.5-9.8-6.7-14.7c-0.9-2.2-2.3-4.8-1.8-6.8c1.7-7.4,1-9.2-6.4-11c-6.6-1.6-13.3-2.7-20-4c-5.7-1.1-8.1-4.7-7.2-9.6
		c0.7-4,1-8.2,1.3-12.3c0.7-9.6,1.8-19.1,1.6-28.7c-0.2-9.2,2.4-19.3-6.2-26.7c-0.8-0.7-1.3-2-1.4-3.1c-1.3-10.3-2.6-20.6-3.8-31
		c-1.4-12-2.4-24-4-36c-1.1-9-2.7-18-4.3-26.9c-0.4-2-1.8-3.8-2.6-5.7c-0.8-1.7-2.1-3.5-2.1-5.3c-0.3-6.3-0.2-12.7,0-19
		c0.1-1.9,0.5-4.2,1.7-5.5c4.9-5.2,15.3-6.1,21.6-2.5c1.9,1.1,3.7,2.8,5.7,3c4.5,0.3,5.7,2.9,6.9,6.7c0.9,2.9,3.8,5.3,5.8,7.9
		c0.5-0.2,0.9-0.4,1.4-0.6c0.3-2.6,1.1-5.3,0.7-7.7c-2.1-11,2.1-21.3,2.7-32c0.3-4.8-1.3-9.9,2.4-14c4.9-5.5,6-12.3,6.8-19.2
		c0.5-4.7,2-9.5,1.5-14.2c-0.4-3.9,0.4-6.6,3.5-8.3c12.4-7,18-19,22.3-31.6c1.5-4.5,2-10,1-14.5c-1.9-8.4-1.4-16.3,1.1-24.4
		c0.9-2.8,1.6-5.8,1.5-8.6c-0.1-4.4,2-6.9,5.3-9.3c9.2-6.6,17.4-13.7,19.2-26.1c1.2-8.4,4.3-16.5,6.4-24.7
		c2.6-10.1,11.2-16,16.6-24.1c4.9-7.3,11.2-13.7,16.6-20.8c0.9-1.1,0.8-3.8,0-5.1c-1-1.8-3.2-2.8-4.7-4.3
		c-3.5-3.8-10.2-5.9-7.3-13.3c0.3-0.7-0.4-1.9-1-2.6c-6.8-7.6-13.2-15.7-20.7-22.6c-13.5-12.5-27.6-24.4-41.7-36.2
		c-4.8-4-10.4-7.2-15.6-10.7c-5.5-3.7-10.8-7.5-16.5-11c-7.6-4.7-14.5-9.8-25-4.9c-8.8,4.2-19.1,2.5-27.7-3
		c-6.8-4.4-12.9-9.8-19.4-14.7c-3.8-2.9-7.7-5.7-11.6-8.5c-3.1-2.2-7.5-3.6-9.1-6.6c-5.4-10-13.8-13.2-24.2-13.3
		c-1.5,0-3.9-0.6-4.4-1.6c-1.9-3.7-5.3-4-8.7-5c-3.2-0.9-6.6-1.8-9.2-3.7c-7.1-5.2-14.4-7.8-23.1-4.9c-1.8,0.6-4,0.2-5.9,0.4
		c-1.4,0.2-2.8,0.6-4.2,0.9c1.3,1,2.4,2.6,3.8,2.9c3.7,0.6,6,2.1,7.2,5.9c0.6,1.9,2.6,3.3,3.9,4.9c2,2.5,4.4,4.7,6,7.4
		c3,5,5.2,10.5,8.2,15.5c2.5,4.3,3.1,10.9-0.3,12.3c-5.5,2.3-6.7,6.7-8.5,11.4c-0.6,1.7-3.3,3.3-5.3,3.6c-1.2,0.2-3-2-4.3-3.3
		c-0.8-0.8-1.1-2.5-1.9-2.7c-5.6-1.5-4.6-5.7-4.3-9.6c0.2-2.7,0.3-5.3,0.8-8c0.9-4.9-1.3-8.1-5-11.1c-3.4-2.6-6.2-6-9.3-8.9
		c-2-1.9-4-3.9-6.3-5.6c-4.5-3.3-9.4-6.3-13.8-9.8c-6.7-5.3-13.4-10.2-22-12.2c-14.6-3.3-29.2-6.7-43.6-10.8
		c-8-2.3-14.9-1.4-21.9,2.7c-2.7,1.6-5.6,2.9-8.7,3.8c-12.6,3.8-25.4,7.2-38,11c-4.8,1.4-9.3,4-14.1,4.9c-3,0.6-6.5-0.7-9.7-1.2
		c-1.5-0.2-3.1-0.9-4.6-0.8c-4.7,0.5-9.4,1.3-14,2.2c-1.3,0.2-2.6,0.8-3.7,1.4c-5.2,3.2-10.2,6.7-15.4,9.8
		C355,61.4,340,70.1,324.9,79c-3.7,2.2-7.3,4.4-10.8,6.8c-6.7,4.4-13,9.5-20,13.2c-7.1,3.8-14.9,6.3-22.5,9.3
		c-5.1,2-10,5.3-16.1,2.8c-1.3-0.6-3.3,0.1-4.9,0.4c-4.6,0.9-9.1,2.7-13.6,2.8c-12.1,0.3-23.2,4.1-34,8.8
		c-11.2,4.9-21.8,11-32.6,16.7c-0.9,0.4-1.8,1.1-2.3,1.9c-7.1,10.6-14.1,21.2-21.2,31.8c-1.1,1.7-1.9,3.5-3,5.1
		c-8,12-16.6,23.7-23.9,36.1c-6.3,10.5-11.1,21.9-16.8,32.8c-3.4,6.4-7,12.7-10.7,19c-3.4,5.8-6.6,11.9-10.7,17.2
		c-2.3,2.9-6.3,4.5-9.5,6.7c-1.8,1.2-3.9,2-5.5,3.4c-6.5,6.2-12.9,12.6-19.2,19.1c-3,3.1-4.8,6.7-3.9,11.2c0.6,2.9,1.4,5.8,1.9,8.7
		c1.9,11,3.9,22.1,5.6,33.1c2.5,16.5,2.5,33,0,49.5c-0.4,2.6-1.3,5.8-0.1,7.7c2,3.4,0.4,5.7-0.2,8.8c-1.4,7.1-7.3,14.5,0.2,21.6
		c0.6,0.6,0.5,2.2,0.4,3.3c-1.9,11.8,0.1,22.6,6.5,32.8c2.7,4.2,3.6,9.6,5.4,14.4c1.4,3.7,2.9,7.4,4.5,11.7c1.5-1.3,2.2-1.6,2.4-2.2
		c3.3-7.1,6.5-14.2,9.7-21.3c1.8-4.1,3.7-8.1,4.9-12.4c3.9-13,7.4-26.1,11.6-39c0.6-1.9,4.1-3.1,6.5-4.1c2.2-1,5-0.9,6.9-2.2
		c3.7-2.5,10.6-3.6,14.2-1.2c0.8,0.5,1.6,2.5,1.2,3.2c-2.3,4.7-4.2,9.9-10.1,11.4c-1,0.3-1.7,1.5-2.5,2.2c-4,3.2-0.2,7.1-0.9,10.6
		c-2.6,13.7-4.9,27.5-8.2,41.1c-0.9,3.7-4.9,6.7-7.8,9.7c-1.8,1.9-4.7,3.1-5.9,5.3c-6.6,12.1-12.9,24.3-19.3,36.5
		c-0.2,0.4-0.6,0.7-1,1.1c-4,4.1-7.6,8.5-12,12.1c-7.7,6.2-15.3,12.7-23.8,17.7c-8.6,5-10.8,8.2-7,16.3c-1.6,0.3-3.1,0.7-4.8,1.1
		c-0.3,6.9,1.5,13.9-2.8,20c-0.6,0.9-0.2,2.7,0.2,3.9c3.7,11.2,7.4,22.4,11.3,33.6c1.5,4.3,3.3,8.5,5.7,12.4c2.4,4,6.3,7.3,8.4,11.4
		c2.7,5.5,5.7,9.7,12.1,10.7c1.4,0.2,3,0.9,3.9,2c5.6,6.7,12,13,16.4,20.5c7.5,12.6,20.1,16.6,32.1,21.8c0.7,0.3,1.6,0.3,2.5,0.3
		c8.7,0.4,14.5,5.8,18.9,12.2c3.1,4.5,6.8,5.6,11.6,6.4c7.2,1.3,13.8-1.1,20.4-3.2c3.6-1.1,7.7-2.5,10.1-5.1c3.8-4.1,6.4-9.3,9.5-14
		c0.6,0.2,1.2,0.3,1.8,0.5c1.2,4.2,3.6,8.4,3.4,12.5c-0.4,8.6-2.2,17-3.3,25.6c-1.4,10.4-2.6,20.8-9.1,29.7c-2,2.7-3.7,5.5-5.5,8.3
		c-5.1,7.9-10.2,15.7-15.4,23.6c-1.7,2.6-3.9,4.9-5.4,7.7c-5.1,9.6-10.2,19-22,22c-3.3,0.8-4,5-2.5,8c0.9,2,1.4,4.4,1.2,6.6
		c-0.2,3.3-1.7,6.6-1.6,9.8c0.1,3.8,0.9,7.7,2,11.3c1,2.9,3.2,5.5,4.4,8.3c3,6.8,5.2,14,9,20.2c1.7,2.8,3.3,4.8,2.2,7.8
		c-2.9,7.8-4.2,16.7-12.8,21.1c-1.5,0.8-2.7,2.5-3.6,4.1c-4.6,8.4-12.5,12.6-20.7,16.7c-10,5.1-12.1,3.7-10.5,17.5
		c0.3,2.3,0.2,4.7,0.5,7c0.3,1.6,0.6,3.5,1.6,4.6c4.7,5.5,9.6,10.8,14.5,16.1c2.4,2.6,4.7,5.2,8.9,4.2c0.8-0.2,2.5,0.7,2.8,1.5
		c3,7.6,8.5,12.9,14.5,18.3c10,9.1,18.3,20,27.9,29.5c4.4,4.3,9.9,9,15.5,10.2c9.4,2.1,17,6.4,24.1,12.2c2.9,2.4,4.8,2.7,7.7,0.3
		c1.1-1,3.3-1.7,4.4-1.2c1,0.4,1.7,2.7,1.7,4.1c-0.1,3.8,0,7.1,4,9.4c1.4,0.8,2.1,3.3,2.7,5.2c2.9,8.6,5.9,17.3,8.4,26
		c2.6,8.9,9.7,14.2,16.1,19.7C251.8,1165.1,254.1,1166.6,253.3,1169.1z M549.5,929.5c-1.2-3.8-2.3-6.3-2.7-8.9
		c-1.6-9-2.7-18.1-4.4-27.1c-0.7-3.6-1.3-7.8-3.5-10.5c-4-4.9-9.7-6.9-16.2-7.5c-6-0.6-7.9,2.7-9.1,7.1c-0.5,1.7,0.4,3.8,0.4,5.7
		c0,2-0.3,4-0.8,5.9c-0.5,1.8-1.8,3.5-1.9,5.3c-0.3,5.4-0.5,10.8,0,16.1c0.5,5,1.5,10,3.3,14.7c1,2.7,3.3,5.9,7.5,4.4
		c1-7.8,3.8-9.5,11.5-7.9C538.3,927.8,543.1,928.4,549.5,929.5z M795.2,486.7c1.2,4.6,2,9.3,3.6,13.8c1.6,4.4,5,5.7,8.5,3.6
		c7.8-4.6,15.7-9.2,23.4-14c6.1-3.8,7.3-9.3,3.2-15.1c-2.3-3.4-4.9-6.7-7.9-9.5c-1.4-1.2-4.1-1.7-6.1-1.4
		c-7.6,0.9-13.2,5.4-18.6,10.5C797.7,477.9,794.7,481.2,795.2,486.7z M502.4,1135.9c0.6,0.5,1.2,1,1.8,1.6c3.8-1.6,7.9-2.8,11.5-4.9
		c7.6-4.5,12.5-11.4,14-20.2c0.8-4.7,0.6-9.7,0.5-14.6c0-1.4-0.8-3.2-1.8-3.9c-1-0.7-3.8-0.6-4.1-0.1c-1.7,3.7-2.9,7.5-4.3,11.3
		c-1.2,3.3-2.2,6.7-3.9,9.7c-2.1,3.6-5.1,6.6-7.4,10C506.5,1128.4,504.6,1132.2,502.4,1135.9z M538.1,945.7c0.5,5.1-1.1,9,4,11.9
		c1.5-3.1,2.9-6,4.2-8.9C543.9,947.8,541.5,946.9,538.1,945.7z"/>
	<path class="st0" d="M482.8,535.3c-1.4-4.7-2.8-9.3-4.2-14c-1-3.6-2.6-7.2-2.9-11c-0.6-7.9,4.4-11.4,12.3-11.5
		c4.3-0.1,8.9-3,12.9-5.4c6.3-3.8,12.6-7.9,18.1-12.8c4.6-4.1,7.7-9.9,11.9-14.4c2.1-2.2,5.3-4.2,8.2-4.8c6.8-1.3,13.8-2,20.7-2.1
		c3.4-0.1,7.8,0.7,10.2,2.8c9,8,20.3,10.2,31.2,13.4c2.1,0.6,4.1,1.5,6.1,2.1c1.2,0.3,3.2,0.8,3.8,0.2c5.3-5.1,10.2-1.4,15.1,0.5
		c12.8,5,25.6,10.1,38.4,15.1c0.9,0.4,2,0.6,2.9,0.5c12.5-0.9,20.4,5.6,26.7,15.6c2.2,3.5,5.7,7.1,9.4,8.6
		c7.6,3.1,8.8,9.9,10.6,16.1c3,10.1,0.7,19.8-3.4,29.3c-3.6,8.3-8.8,16.5-6.9,26.2c1,5.1,3.1,10,4.4,15.1c0.9,3.7,0.9,7.6,1.7,11.4
		c1.1,5.4,2.7,10.7,3.8,16.1c0.6,3.2,2.1,7.4,0.8,9.6c-3.4,5.5-6.1,11.6-12.1,15.3c-2.8,1.7-4.3,5.6-6.7,8.2
		c-1.4,1.5-3.4,2.5-5.3,3.5c-1.7,0.9-3.6,1.8-5.5,2c-2.1,0.3-4.8,0.6-6.4-0.5c-6.8-4.6-17.9-2.4-22.3,4.6c-1.2,2-3.1,3.5-4.3,5.5
		c-1,1.7-2.3,4.1-1.9,5.8c1.3,4.8-1.8,6.4-5.1,7.5c-4,1.4-8.4,1.8-12.3,3.5c-5.2,2.3-10.1,1.6-15.4,0.6c-2.7-0.5-6,0.3-8.5,1.5
		c-9.1,4.4-18.2,0.9-24.7-8.6c-1.2-1.7-3.9-3.5-5.6-3.3c-6.9,1.1-12.9-1.3-19-3.7c-4.1-1.6-8.8-2.5-12.4-5c-6.3-4.3-12-9.5-18-14.3
		c-5.5-4.5-11-8.9-16.4-13.6c-2.8-2.5-5.5-5.2-7.8-8.1c-4.6-5.8-8.9-11.8-13.3-17.9c-0.9-1.3-1.6-2.9-1.9-4.5
		c-1.8-7.4-5.5-15-4.6-22.1c1.6-11.7-5.1-18-11.5-25.1c-3-3.3-6.1-6.5-9-9.8c-2.8-3.3-3.2-10.5-0.6-14.1c0.6-0.8,2.3-1.2,3.4-1.1
		C477.1,549.7,481.9,545.5,482.8,535.3z M583.1,650.9c14.5-1.5,28-4,36.6-16.8c0.3-0.4,0.7-0.7,1-1.1c3.3-3.6,4.2-9.1,1.8-13.6
		c-2.3-4.4-7.1-5.4-10.7-4.4c-8.2,2.3-16.2,5.6-24,9.1c-5.2,2.3-9.9,6-15,8.6c-2.8,1.4-6.1,1.7-9,2.9c-1.9,0.8-4.8,2.4-2.1,4.6
		C568.1,645.8,575.2,649.9,583.1,650.9z M670.7,635.9c4.4,0,7.9-3.4,8.2-7.3c0.4-4.2-2.6-5.1-5.8-6c-3.7-0.9-7.2-2.4-10.9-3.2
		c-1.6-0.3-4.6,0.1-4.9,0.9c-0.7,1.9-1,5,0.1,6.2c2.5,3,5.9,5.3,9.1,7.6C667.9,635.2,669.8,635.6,670.7,635.9z"/>
	<path class="st0" d="M276.8,605.5c2.2-2.1,4-3.5,5.3-5.3c3.8-5.3,9.7-6.3,15.3-8.1c3.3-1,6.8-1.7,10-3.1c2.8-1.2,3.2-3.1,0.1-5
		c-7.7-4.7-14.8-2.4-21,4.4c-2.7,3-8.4,3.4-12.8,4.8c-1.9,0.6-4,0.8-5.9,1.2c0.4,1.6,1,3.2,1.3,4.8c0.2,0.8,0,1.7,0,2.5
		c0,2.6,0,5.2,0,8.8c-14.3,8.4-30.3,13.1-48.9,10c1-1.4,2.1-2.4,2.5-3.6c0.4-1.1,0.5-3.3,0-3.6c-1.1-0.6-3.2-0.8-4-0.1
		c-2,1.9-3.4,4.5-5.2,6.5c-1.6,1.8-3.6,3.4-5.5,5c-1.5,1.2-3.2,2.2-4.7,3.5c-7.4,6.2-15.5,9.8-25.6,8.8c-3.8-0.3-8.7-0.9-12,3.8
		c-2,2.8-6.6,6.5-8.9,5.8c-6.3-1.9-12.7-4.9-17.7-9.1c-7.2-6-9.8-15.1-12.5-23.9c-1.7-5.5-3.5-11-5-16.5c-0.5-1.9-0.5-3.9-0.5-5.8
		c0-1,0.7-2.1,0.5-2.9c-4.1-12.9-3.5-27.2-12-38.8c-1.6-2.1-1.9-5.2-2.6-7.9c-2.3-9.9-2.4-19.4,3.1-28.9
		c5.8-9.9,11.7-19.5,19.4-28.1c4.6-5.1,8.3-11,12.7-16.4c6.5-8.1,13.9-14.9,24.5-17.6c6.5-1.7,12.7-4.6,19.1-6.8
		c3.4-1.2,7.1-1.7,10.4-2.9c9.7-3.6,19.2-7.5,28.9-11c3.2-1.1,6.8-1.3,10.2-2c4.8-1,9.6-2.8,14.4-3c6.8-0.3,13.8,0,20.6,1.2
		c4.7,0.8,9.1,3.6,13.7,5.5c7.2,3,12.2,10.1,20.5,11.2c1.8,0.2,3.6,1.1,5.3,0.9c7.3-0.7,13.9,1.9,20.2,4.9c1.9,0.9,3.9,3.4,4.3,5.4
		c1.6,8.1,2.9,16.2,3.8,24.4c1.9,17.8,4,35.6,5,53.5c0.6,11.2-0.2,22.6-1.3,33.8c-0.4,3.5-3.9,6.6-6.1,9.9c-2,2.9-4,5.7-6.2,8.5
		c-0.9,1.2-2.3,3.3-3.2,3.2c-5.7-0.9-7.2,4.2-10.5,6.8c-6.3,4.9-12.3,9.8-21.5,7.9c-3-0.6-6.7,1.8-10,3.2
		C281.4,606.7,278.9,607.9,276.8,605.5z M192.4,583.6c-3.3,1.2-7.3,1.8-9.8,3.9c-2.7,2.3-3.8,6.4-6.2,9.4
		c-4.5,5.6-3.7,11.2-0.5,16.9c0.9,1.6,2,3,2.9,4.6c2.4,4.7,5.2,5.8,9.9,3.3c3.4-1.8,7.1-3.2,9.8-5.8c4.2-3.9,8-8.3,11.1-13.1
		c0.9-1.3-1.3-4.6-1.9-7C205.9,589.5,199.3,584.3,192.4,583.6z M175.8,625.3c-4.2-5.7-7.9-10.7-11.8-15.5c-0.5-0.6-3-0.3-4.1,0.4
		c-0.7,0.4-0.9,2.6-0.5,3.6c1.1,2.6,2.5,5,3.9,7.4c1.1,1.9,2.2,3.8,3.6,5.4c1.1,1.4,2.9,3.6,3.9,3.3
		C172.5,629.4,173.8,627.4,175.8,625.3z"/>
	<path class="st0" d="M329.6,755.2c-2.8-3.7-5.3-7-7.8-10.1c-0.6-0.7-1.5-1.6-2.2-1.6c-8.5-0.1-10.1-7.1-12.5-12.8
		c-3.5-8-1.6-16.1-0.1-24.4c1.1-6,1-12.3,1.1-18.5c0-4.3,1.9-6.7,5.5-8.5c1.9-0.9,4.2-2.3,5-4c3.5-7.3,6.5-14.8,9.8-22.2
		c1.3-3,2.8-6,4.1-9c2.9-6.4,5.9-12.8,8.8-19.2c4.7-10,8.1-21,14.5-29.8c4.5-6.2,11.4-11.9,20.5-12.7c4.4-0.4,7.9-1.4,11.6,2.4
		c2.2,2.3,6.8,2.2,9.1,4.4c4,3.7,8.1,8,10.5,12.8c4.1,8.6,8.3,17.1,10.1,26.9c2,11.2,6.4,22,9.8,32.9c0.2,0.6,0.9,1.3,0.7,1.8
		c-2,5.9,0.5,10.4,2.8,15.9c2.9,6.8,2.7,15,3.7,22.5c0.6,4.7,1.3,9.4,1.4,14.1c0.1,5.4-2.4,9.8-6.7,13.3c-4.3,3.6-8.4,7.4-12.4,11.4
		c-4.8,4.7-10.8,3.7-16.5,3.7c-3.4,0-6.7-1.2-9-1.7c-2.7-2.9-5.3-5.1-7.1-7.7c-1.7-2.4-3.8-5.6-3.4-8.1c0.8-5.1,2.6-10.2,5-14.8
		c2.4-4.7,0.3-12.6-4.8-14c-7-1.8-14.3-0.9-19.4,3.6c-5.7,5-9.2,12.1-5.7,20.5c1.4,3.5,1.8,7.4,2.6,11.1c1.7,7.2-1.6,13.5-3.6,20
		c-0.4,1.2-0.3,3,0.3,3.8c2,2.4,4.2,4.8,6.7,6.6c8.2,5.9,10.3,13.6,7.7,23c-1,3.7-2,7.4-3.2,11c-2.7,8.3-14.4,14-22.8,11.8
		c-11.5-3-20.2-10.2-25.4-20.1c-6.1-11.6-4.9-26,9.3-33.5C328.3,756,329,755.6,329.6,755.2z"/>
	<path class="st0" d="M363.6,910.7c-6.5-9.8-12.2-18.7-18.3-27.5c-2.5-3.6-5.6-6.7-8.6-9.9c-0.6-0.7-2.2-0.9-3.2-0.7
		c-7.2,1.7-14.3,3.4-21.4,5.3c-7.3,2-19.1-2.7-22.5-9.6c-0.8-1.7-1.4-4.8-0.5-5.9c1.7-1.9,5.1-4.5,6.9-3.9
		c10.2,3.2,19.5-1.2,29.1-2.8c6.8-1.1,13.4-3.6,20.1-5.4c4.2-1.1,9.5,2,11.4,5.9c1.2,2.6,3,5,5.1,6.9c1,0.9,3.8,1,4.9,0.2
		c6.5-5.1,13-10.3,19-16.1c4.1-3.9,12.6-4.7,14.9,2.5c0.8,2.5,2.6,4.6,3.9,6.9c2.7,4.9,2.1,9.9-2,13.9c-4.7,4.6-9.5,9-14.2,13.6
		c-0.7,0.7-1.1,1.7-1.6,2.5c-2.9,4.3-3.1,10.2-9,13C372.8,901.9,369.1,906.3,363.6,910.7z"/>
	<path class="st0" d="M284.6,847.1c-0.6,1.2-1.2,4-3,5.8c-5.5,5.7-11.2,11.2-17.2,16.4c-1.2,1.1-4.3,1.4-5.8,0.7
		c-6.7-3.5-13.7-6.6-18.1-13.4c-2.2-3.5-14-6.3-17.6-4.5c-1,0.5-1.2,2.4-1.8,3.6c-0.7,1.3-1.5,2.6-2.3,3.8c-1.3-0.8-3.6-1.5-3.7-2.5
		c-0.8-5-4.7-6.2-8.3-7.6c-2.9-1.1-4.7-2.6-5.1-5.9c-0.6-5.9-1.5-11.9-2.5-17.7c-0.7-3.9-2.7-7.6-2.7-11.4c-0.1-4.5,1.2-9,2.2-13.5
		c0.6-2.6,1.4-5.3,2.9-7.4c1.5-2.1,4-3.6,6.3-5c0.2-0.1,2.1,2.5,3.3,3.8c0.5,0.6,1,1.8,1.5,1.8c4.9,0.3,5,4.2,5.5,7.5
		c0.6,4.6,3.1,7.5,6.8,9.8c1.6,1,3.9,2.6,3.9,4c0.5,8.3,6.8,12.7,11.4,18.2c2.9,3.6,6.4,6.7,9.5,10.1c3.5,4,6.4,1.7,9.2-0.8
		c1.2-1.1,2.1-2.6,3.2-3.8c3.2-3.6,6.6-5.4,11.2-2.2c1.4,1,3.4,1.3,5.2,1.5C283,839,284.4,841.8,284.6,847.1z"/>
	<path class="st0" d="M209.3,996.5c-7,1.7-12.2-2.5-17.6-5.6c-0.3-0.2-0.5-0.5-0.8-0.6c-12.2-3.5-18.6-14-26.3-22.6
		c-3.2-3.6-4.4-9.4-5.6-14.4c-1.1-4.6-1.3-9.5-1.6-14.3c-0.2-3.2,1.3-4,4.8-4.6c7.3-1.2,12,3.3,17.6,6.2c1.5,0.8,2.6,2.9,3.3,4.6
		c1.7,4.3,4.5,7.1,8.9,8.8c3.8,1.5,7.5,3.5,10.9,5.7c7,4.7,13.9,6.1,21.7,1.6c5.7-3.4,11.7-0.6,17.4,0.4c2,0.4,4,1.3,5.9,2.3
		c1.2,0.7,2.5,1.8,2.8,3c0.2,0.7-1.2,2.4-2.2,2.8c-5.8,2.4-8.5,7.2-10.5,12.8c-1.5,4.4-4,8-9.4,8.5c-1.6,0.1-3.1,1-4.7,1.6
		c-4.7,1.7-9.5,3.5-14.2,5.2C209.6,997.4,209.4,997,209.3,996.5z"/>
	<path class="st0" d="M312,939c-3.1,2-5.3,3.4-7.5,4.8c-1.1,0.7-2.1,1.9-3.3,2.1c-5.4,1.1-6.5,4.8-6.2,9.6c0.7,10,0.1,19.9-4.1,29.1
		c-2.8,6.2-6,12.3-9.5,18.1c-1.7,2.9-4.1,2.2-5.8-0.6c-1.3-2.1-2.6-4.2-4.1-6.1c-5.7-7.5-4.2-15.6-2.9-24c1.3-8.5,2.4-17,2.7-25.6
		c0.1-2.5-2-6.2-4.2-7.5c-6.8-4.2-14.2-7.3-18.5-15c-1.4-2.6-6-3.3-8.5-5.5c-1.4-1.3-2.8-4.3-2.2-5.8c0.7-1.8,3.2-3.6,5.2-4.1
		c8.7-2.2,15.9,2.6,23.3,6.1c5.3,2.5,10.9,4.4,16.3,6.9c3.7,1.7,7.1,4,10.8,5.8c3.6,1.7,7.2,3.5,11,4.1
		C312.3,932.5,312.4,932.2,312,939z"/>
	<path class="st0" d="M86.8,342.4c0,13.4,0.3,26.8-0.1,40.3c-0.3,8.8-1.8,17.5-2.6,26.2c-0.6,6.4-0.9,12.8-1.8,19.1
		c-0.8,6.3-8.9,11-12.7,7.3c-2.7-2.6-5.1-6.2-6-9.8c-1.1-4.7-1.1-9.9-0.7-14.8c1.1-14,2.3-28,4-42c0.9-7.9,2.9-15.6,4.2-23.4
		c1-6.3,2-12.7,2.6-19.1c0.2-2.6,0.4-5.2,3.4-4.9c3.1,0.3,7.6-0.4,8.5,4.1c1,5.5,1.2,11.2,1.7,16.8
		C87.1,342.4,86.9,342.4,86.8,342.4z"/>
	<path class="st0" d="M722.8,336c-0.7,2.3-0.9,3.3-1.3,4.2c-3.8,6.5-7.3,13.2-11.5,19.5c-4.9,7.4-3.9,14.9-0.9,22.3
		c1.6,3.8,4.7,7.1,7.7,10c5.4,5.1,7.3,9.3,4.6,13.6c-0.8,1.2-3.3,2.5-4.5,2.1c-5.8-1.8-11.8-3.5-17-6.6c-4.7-2.7-8.5-7-12.7-10.7
		c-2.6-2.3-4.8-5-7.6-7.1c-8.5-6.2-10.2-13.4-3.8-21.6c3.6-4.7,7.6-10,12.7-12.3c7-3.2,11.7-8.6,17.2-13.2c1.3-1.1,2.1-2.8,3.5-3.4
		c2.4-1,5.4-2.3,7.7-1.6C719.3,331.7,721.1,334.5,722.8,336z"/>
	<path class="st0" d="M338.1,985c-0.8-1.5-1.2-3.9-2.4-4.4c-5.5-2.6-7.4-7.5-8.1-12.6c-1-7.4-1.3-15-1.3-22.5
		c0-6.4,4.3-10.5,9.1-13.8c2.3-1.5,5.6-1.5,8.4-2.3c3.9-1.1,4.1,3.1,6.1,4.1c6.8,3.6,2.6,8.4,2.5,12.9c-0.1,5.7,0.2,11.4,0.3,17
		c0.1,6,1.8,12.4,0.1,17.8c-1.5,4.9-6.6,8.8-10.3,13c-0.2,0.3-2.7-0.6-3.1-1.5c-1.2-2.2-1.8-4.8-2.6-7.2
		C337.2,985.4,337.7,985.2,338.1,985z"/>
	<path class="st0" d="M412.9,986c-0.5-0.2-1.4-0.5-2.3-1c-3.4-1.6-5.6-0.5-7.3,2.7c-6.3,12-14.7,22.4-24.8,31.2
		c-1.7,1.5-5.6,1-8.2,0.4c-0.9-0.2-1.9-4.2-1.3-5.7c1.7-4.1,4-8.1,6.6-11.7c5.4-7.8,11.4-15.2,16.8-23c3-4.3,5.2-9.2,7.9-13.6
		c3.6-5.8,12.3-5.3,15.7,0.8c2.1,3.8,3.7,7.7,5.3,11.7C422.8,981.7,418.4,986.1,412.9,986z"/>
	<path class="st0" d="M504.2,301c-2.7-1.3-6.3-2-7.1-3.9c-0.8-2,1.1-5.1,2-7.6c0.6-1.7,1.2-3.5,2.3-4.9c1.8-2.1,3.8-4.2,6.1-5.7
		c5.2-3.5,10.7-6.6,16-9.8c4.1-2.4,8.2-5.1,12.6-6.9c2.3-0.9,5.9-1.1,7.9,0.2c1.5,1,2.3,4.8,1.8,7c-2.9,12.4-9.5,21.6-23,24.3
		c-2.4,0.5-4.5,2-6.8,2.9C512.3,298.2,508.5,299.5,504.2,301z"/>
	<path class="st0" d="M395.3,952.4c-0.6-0.4-1.5-0.9-2.1-1.6c-2.8-3.4-5.6-2.7-8.5-0.2c-1.2,1.1-2.6,2.2-4.1,2.7
		c-3.6,1.1-7.5,4.1-10.7-0.1c-3.6-4.8-2.7-12.4,1.6-15.7c6-4.4,10.5-9.9,14.8-16c2.7-4,8.6-6.6,13.6-8c2.7-0.8,6.1,2.7,6.2,6.9
		c0.3,8.1-0.1,16.1-2.8,23.7c-0.4,1.1-1.1,2.3-2,3.1C399.5,949,397.5,950.6,395.3,952.4z"/>
	<path class="st0" d="M156.9,901.2c-7.7-0.6-11.4-7.3-9.4-14.1c2.6-9,10.1-12.6,16.4-17.4c3.4-2.6,7.8-4.1,11.7-6.1
		c0.4-0.2,1.2-0.6,1.4-0.4c4.5,3.5,9.8,6.5,13.2,10.8c2.4,3-2.1,7.9-7.2,10.8c-6,3.4-11.5,7.8-17.3,11.5
		C162.9,898.2,159.8,899.6,156.9,901.2z"/>
	<path class="st0" d="M196.5,940.6c-2.3-1.4-4.9-2-5.8-3.6c-2.5-4.2-4.4-8.9-6.3-13.4c-0.3-0.7,0.2-2,0.7-2.8
		c2.7-4.3,5.5-8.6,8.2-12.8c3-4.7,7-4.7,12.1,0c1.9,1.8,3.6,3.9,5,6.2c4.3,6.9,3.9,9.8-1.7,15.8c-2,2.2-3.8,4.6-6,6.6
		C201,938.2,198.8,939.2,196.5,940.6z"/>
	<path class="st0" d="M581.2,250.3c2.1,0.6,5.8,0.8,6.1,1.9c1.2,4.2,2.4,9,1.4,13c-1.2,4.8-4.7,9-7.3,13.4c-0.6,1-1.5,2.5-2.3,2.5
		c-5.5,0-11-0.3-16.5-0.7c-0.5,0-1.4-2.4-1-3.3c1.8-4.9,3.9-9.7,6.1-14.5c1-2.1,2.9-3.7,3.7-5.9C573.2,252.2,576,250,581.2,250.3z"
		/>
	<path class="st0" d="M438.8,952.7c-1.2-1-3.3-2.3-4.5-4.1c-2.2-3.1-0.3-6.1,1.8-8.4c5.7-6.5,13-10.4,21.6-11.8
		c4-0.7,7.4,0.8,8.7,4.1c0.7,2-0.5,5.6-2.1,7.4C457.8,946.9,449.3,950.5,438.8,952.7z"/>
</g>
</svg>
