<?xml version="1.0" ?><svg enable-background="new 0 0 32 32" version="1.1" viewBox="0 0 32 32" xml:space="preserve" xmlns="http://www.w3.org/2000/svg" xmlns:xlink="http://www.w3.org/1999/xlink"><g id="OUTLINE"><path d="M20.925,21.379h2.454c0-7.035-5.723-12.762-12.757-12.762v2.447C16.301,11.063,20.925,15.692,20.925,21.379z M12.32,21.383   c0.941,0,1.701-0.756,1.701-1.693c0-0.932-0.76-1.696-1.701-1.696c-0.937,0-1.699,0.764-1.699,1.696   C10.621,20.627,11.383,21.383,12.32,21.383z M16.588,21.38L16.588,21.38h2.457c0-4.646-3.78-8.425-8.424-8.425V15.4   c1.593,0,3.091,0.623,4.218,1.751C15.966,18.277,16.588,19.781,16.588,21.38z"/><g><g id="Shopping_10_25_"><g><g><g><g><path d="M16,1c8.271,0,15,6.729,15,15s-6.729,15-15,15S1,24.271,1,16S7.729,1,16,1 M16,0         C7.164,0,0,7.163,0,16s7.164,16,16,16s16-7.163,16-16S24.836,0,16,0L16,0z" fill="#1A1718"/></g></g></g></g></g><g><g><g><path d="M16,3.007c7.165,0,12.994,5.829,12.994,12.993S23.164,28.993,16,28.993S3.006,23.164,3.006,16       S8.835,3.007,16,3.007 M16,2.507C8.547,2.507,2.506,8.547,2.506,16S8.547,29.493,16,29.493S29.493,23.452,29.493,16       S23.452,2.507,16,2.507L16,2.507z" fill="#1A1718"/></g></g></g></g></g></svg>