<?xml version="1.0" encoding="utf-8"?>
<!-- Generator: Adobe Illustrator 21.0.0, SVG Export Plug-In . SVG Version: 6.00 Build 0)  -->
<svg version="1.1" id="Layer_1" xmlns="http://www.w3.org/2000/svg" xmlns:xlink="http://www.w3.org/1999/xlink" x="0px" y="0px"
	 viewBox="0 0 800 1303" style="enable-background:new 0 0 800 1303;" xml:space="preserve">
<g>
	<path d="M13.5,856.6c225.1-225.1,450-450,674.8-674.8c3.2,3.2,6.5,6.6,9.6,9.7C473.3,416.2,248.2,641.3,23.1,866.4
		C20.1,863.4,16.8,860,13.5,856.6z"/>
	<path d="M111.3,955.5c-3.3-3.3-6.6-6.6-9.6-9.5c225.1-225.1,450.2-450.2,675.1-675.1c3,3,6.5,6.3,9.7,9.5
		C561.4,505.4,336.5,730.3,111.3,955.5z"/>
	<path d="M296.6,735.1c-5,5-9.8,9.7-15,14.9c-17.2-16.1-34.7-32.4-52.7-49.3c0.6,1.5,0.8,2.4,1.2,3.2c10.5,19.7,21,39.3,31.6,58.9
		c1.4,2.5,1.6,4.3-0.8,6.4c-3.1,2.8-5.7,6-9,9.5c-21-12.2-41.6-24.2-63.2-36.8c16.6,18.2,32.4,35.6,48.2,52.9
		c-4.8,4.6-9.4,8.9-14.4,13.7c-20.3-23-41-46.6-61.4-69.8c6.9-6.9,13.4-13.4,20.7-20.7c18.1,10.4,37.1,21.3,56.3,32.3
		c-0.7-1.2-1.3-2.5-2-3.7c-9.1-16.8-18.2-33.6-27.5-50.4c-1.7-3.1-1.7-5.1,1.1-7.6c5.6-5.2,10.9-10.8,16.6-16.5
		C249.9,693.3,273.3,714.2,296.6,735.1z"/>
	<path d="M621.1,276.8c5.1-4.9,10.5-10.3,16.1-15.4c0.9-0.8,3.1-0.8,4.4-0.4c21.5,6.5,42.9,13.1,64.3,19.7c0.4,0.1,0.9,0.1,1.7,0.2
		c-15.3-14.8-30.3-29.4-45.3-43.9c4.9-4.7,9.4-9,13.3-12.8c21.6,21.6,43.8,43.8,66.4,66.4c-3.8,3.7-8.4,8.3-13.2,12.6
		c-1.2,1-3.6,1.4-5.2,0.9c-22.9-6.9-45.8-14-68.6-21.1c-0.6-0.2-1.2-0.3-1.1-1c15.5,16.4,30.9,32.8,46.4,49.2
		c-3.9,3.9-8.3,8.3-12.4,12.4C665.9,321.6,643.8,299.5,621.1,276.8z"/>
	<path d="M391.2,641.5c-3.9,3.8-8.4,8.5-13.4,12.7c-1.2,1.1-4,1.2-5.7,0.7c-22.7-6.9-45.4-13.9-68.1-21c-0.6-0.2-1.1-0.3-2.9-0.9
		c9,8.7,17.2,16.5,25.3,24.4c8,7.8,15.8,15.7,23.4,23.3c-4.8,4.6-9.4,9.1-13.6,13.2c-21.5-21.5-43.6-43.6-66.1-66.1
		c5.1-4.9,10.3-10.2,15.9-15.3c0.9-0.8,3-1.1,4.3-0.7c21.3,6.4,42.6,12.9,63.9,19.4c0.8,0.2,1.5,0.5,2.8,0.9
		c-15.6-15.1-30.7-29.7-45.7-44.3c4.9-4.7,9.4-9,13.4-12.9C346.4,596.8,368.6,619,391.2,641.5z"/>
	<path d="M146.5,767.7c29.3,0.2,56.1,32.5,49.9,60c-7.6,33.7-44,47.5-71.7,27c-12.8-9.5-21.3-21.8-22.9-38.1
		C99.2,791.4,121,767.5,146.5,767.7z M144.5,788c-16.7-0.2-26.5,11.7-23,24.5c4.2,15.5,14.6,26.1,29.8,30.9
		c15.1,4.8,28.8-8.3,25.4-23.8c-2.2-10.4-8.9-18-17.1-24.4C154.3,791,148.2,788.1,144.5,788z"/>
	<path d="M609.4,304.7c29.3,0.2,56.1,32.5,49.9,60c-7.6,33.7-43.9,47.6-71.7,27.1c-12.8-9.4-21.3-21.7-23-38.1
		C562.2,328.4,583.9,304.5,609.4,304.7z M607.6,325c-16.7-0.2-26.5,11.7-23,24.6c4.2,15.5,14.6,26.1,29.9,30.9
		c15.1,4.8,28.8-8.3,25.4-23.8c-2.2-10.4-8.9-18-17.1-24.4C617.3,328,611.2,325.1,607.6,325z"/>
	<path d="M589.3,427.5c0.7,25.1-30,58.4-65.2,39.8c-17.1-9.1-28.2-23-30.4-42.9c-3.3-30.2,28.2-55.9,57.2-46.7
		C572.2,384.5,589.4,406.7,589.3,427.5z M533.8,394.7c-0.2,0.4-0.4,0.9-0.6,1.3c-13.5-0.2-23.2,11.8-19.5,24.9
		c4.3,15.3,14.6,25.7,29.6,30.5c15.1,4.8,28.9-8.1,25.6-23.6c-2.3-11-9.2-19.2-18.3-25.2C545.5,399.2,539.4,397.3,533.8,394.7z"/>
	<path d="M393.9,509.6c3.1,5.2,5.9,10,8.6,14.7c-4.9,3.5-9.7,6.8-14.4,10.1c-1.2,0.9-2.3,2-3.3,3c-8.5,8.8-13.9,18.8-9.1,31.1
		c5.1,13,14.7,21.8,29,22.8c12.7,1,21.3-6.9,28.1-16.7c-4.9-4.6-9.5-9-15.1-14.3c-2.1,2.8-4.9,6.5-7.6,10.1
		c-4.7-4.7-8.4-8.5-11.7-11.9c7.8-7.8,16-15.9,24.5-24.4c8.9,8.9,18.3,18.3,27.7,27.7c7.1,7.1,7.1,7.1,1.6,15.7
		c-6,9.5-13.2,18-22.2,24.8c-28.3,21.4-68,6.1-75.1-28.8c-3.1-15.1,1.2-28.4,10.1-40.3C372.6,523.1,381.9,515,393.9,509.6z"/>
	<path d="M486,539.2c-3.3-5.4-6.3-10.4-9.1-15.2c5.3-3.1,10.6-5.5,15.2-9c3.9-3,7.1-6.9,10-10.9c2.2-3.1,2.1-7-0.6-10.2
		c-2.6-3.1-5.9-4.5-9.8-3.2c-4.4,1.5-8.6,3.4-13.1,4.8c-5.3,1.7-10.7,3.8-16.2,4.5c-18.9,2.4-31.2-14.8-27.2-31.3
		c4.2-17.2,16.8-27.1,32.5-34.6c3.1,5.4,5.9,10.3,8.5,14.9c-5.1,3.5-10.3,6.5-14.9,10.2c-2.6,2.1-4.8,5.1-6.3,8.2
		c-3,6.4,1.1,12.4,8,11.3c5.5-0.9,10.7-3.3,15.9-5.4c7.6-3.1,15.4-5.8,23.7-4c17.4,3.9,25.7,23.1,17.1,40.1
		C512.6,523.5,501,532.9,486,539.2z"/>
	<path d="M82.6,819.9c2.9,4.9,5.7,9.6,8.6,14.6c-14.8,8.8-28.5,18.9-23.3,38.8c3.7,13.8,13.8,23.4,28.2,25
		c17.4,1.9,26.3-10.8,34.6-24.1c4.5,3,9,6.1,13.8,9.3c-3.5,9.3-9.8,16.2-16.7,22.4c-14.6,13.2-31.2,19.2-50,10.3
		c-19.1-9-31-24.2-31.6-46C45.9,850.1,62.6,827.4,82.6,819.9z"/>
	<path d="M321.7,708.6c-4.7,4.7-9.5,9.5-14,14c-21.9-21.9-44-44-66.2-66.2c4.6-4.4,9.6-9.2,14.2-13.6
		C277.7,664.5,299.8,686.6,321.7,708.6z"/>
	<path d="M704,195.8c13.8,15.2,27.8,30.7,41.7,46c-3.9,3.9-7.5,7.6-11.4,11.5c-15.4-13.9-30.9-27.9-46.2-41.7
		C693.6,206.1,698.7,201,704,195.8z"/>
	<path d="M754.5,274.7c-6.9,0-13.2-6.3-13.1-13.2c0.1-6.6,6-12.5,12.5-12.5c7-0.1,13.2,6,13.2,12.9
		C767.2,268.8,761.3,274.7,754.5,274.7z"/>
</g>
</svg>
