<?xml version="1.0" encoding="utf-8"?>
<!-- Generator: Adobe Illustrator 22.0.1, SVG Export Plug-In . SVG Version: 6.00 Build 0)  -->
<svg version="1.1" id="Layer_1" xmlns="http://www.w3.org/2000/svg" xmlns:xlink="http://www.w3.org/1999/xlink" x="0px" y="0px"
	 viewBox="0 0 612 792" style="enable-background:new 0 0 612 792;" xml:space="preserve">
<g>
	<path d="M576.7,726.8c-0.1-50.2-0.2-100.3-0.2-150.5c0-10.7,0-21.4,0-32c-3.3-2.3-6.4-4.9-9.1-7.6c-6.4-6.5-11.6-14.4-15.5-22.6
		c-2.4-5-4.6-10.1-7.5-14.8c-3.6-5.7-7.7-11.1-11.6-16.7c-1.8-2.5-3.5-5.1-5.2-7.7c-19-4.2-32.3-21.3-33.2-41.2
		c-0.1-3,0.2-6,0.9-9.1c-0.5-2.4-0.8-4.9-0.9-7.4c-0.2-4.8,0.8-9.9,2.7-14.7c-0.2-1.2-0.4-2.3-0.6-3.5c-0.7-4.2-1.4-8.5-2.1-12.7
		c-1.8-3.7-3.4-7.5-5-11.3c-0.8-2-1.5-4-2-6c-1.7-2.5-3.1-5.2-4-8.2c0.1,2.1,0.2,4.2,0.5,6.2c0.5,3.1,1.8,6.1,2.9,9.5
		c-0.9-0.5-1.7-1-2.6-1.6c1,3.2,2,6.2,3.1,9.9c-1.4-1-2.3-1.6-3.3-2.3c1.8,3.3,1.5,8.8,7.7,7.5c0.4-0.1,1.7,2,1.6,2.9
		c-0.1,1.1-1.2,2.5-2.2,3c-0.9,0.4-2.3-0.2-2.7-0.2c0,2.2,0.1,4.5,0,6.9c-0.2,4.7,3.8,9.6-1.2,14.4c-1.1,1,1,5.3,1.6,8
		c0.3,1.1,0.8,2.2,0.6,3.6c-0.8-1-1.5-2-2.3-3.1c-0.3,0.1-0.2,0.1-0.5,0.3c1.6,6.2,3.2,12.4,5,19.2c-1.1-1.2-1.9-2-3.4-3.6
		c0,4.6-0.9,8.6,0.3,11.9c1,2.7,4.3,4.6,6.8,6.7c1,0.8,2.8,0.8,3.6,1.7c2.6,3,5,6.2,7.5,9.4c0.8,0.9,1.6,2.2,2.6,2.5
		c6.8,2.1,10.6,7.7,15,12.5c1.2,1.3,3.1,2,4.3,3.3c2,2.1,3.6,4.5,5.6,6.6c2.8,3,6,5.6,8.8,8.6c3.1,3.4,5.9,7.2,8.8,10.8
		c-0.6,0.5-1.1,1-1.7,1.6c-7.4-6.9-14.7-13.8-22-20.6c0.5-0.1,1.8-0.2,4.4-0.6c-1.6-1.6-2.5-2.8-3.7-3.6c-5.7-3.6-11.4-7-17.1-10.6
		c-0.6-0.4-1.4-1-1.6-1.6c-2.1-7.1-7.6-9.7-14.3-10.8c-1-0.2-2-0.6-3.2-1c-0.9,1.6-1.8,3.2-3.2,5.7l2.8,1.4
		c-1.4,0.5-2.7,0.6-3.2,1.3c-2.8,4.2-5.6,8.4-8.1,12.8c-1,1.8-1.1,4.1-1.7,6.2c0.1,0.1-0.8-0.4-1.1-0.5c-0.9,2.5-1.1,5.5-2.7,7
		c-5.3,5.2-3.1,11.6-3.6,18.7c-1-1.4-1.4-2-1.6-2.3c-2.8,2.2-5.7,4.1-8.2,6.6c-1,1-0.7,3.2-1,4.8c-5.1-0.9-10.1,2.6-9.7,7.2
		c-0.8-0.4-1.6-0.9-2.5-1.3c-0.5,1.9-0.9,3.6-1.5,5.6c-0.8-0.9-1.7-1.8-2.5-2.8c-0.3,0.2-0.2,0.1-0.5,0.3c0.6,2,1.2,4,2,6.3
		c-2.5-0.6-4.6-1.1-6.8-1.6c1.2,2,2.3,3.7,3.3,5.4c-0.4,0.3-0.9,0.6-1.3,0.8c-0.4-0.6-0.8-1.2-1.5-2.4c-2.8,9.5-10.3,11.9-18.5,13.9
		c0,0,0,0.7,0,1.4c0,0.1-0.2,0.2-0.4,0.3c-3.4-0.8-6.7-1.6-10.3-2.4c0.5,2.8,0.9,4.6,1.3,6.5c-3.6-3.1-15.7-7.4-20.5-6.4
		c1.5,2.2,2.9,4.2,4.8,6.9c-2.2-0.5-3.6-0.9-5.1-1.2c-0.2,0.5-0.1,0.3-0.3,0.8c1.9,1,4.1,1.6,5.5,3.1c1.5,1.5,2.1,3.9,3.4,6.6
		c-3-2.1-5.3-3.6-7.8-5.3v10.6c-1.2-0.1-2.5-0.3-3.8-0.4c0.2,3.7,0.3,7.3,0.4,10.6c-0.2-0.2-1.2-1.2-2.4-2.5
		c-3.8,6.7-9.8,5.3-15.7,4.7c-3.8-0.4-7.6-0.5-10.9,2.1c-0.4,0.3-1.2,0-2.2-0.1c1.1-0.7,1.9-1.1,2.8-1.6c-0.1-0.7-0.1-0.7-0.3-1.4
		c-4.8-0.8-9.4-5.7-14.7,0c-0.8,0.9-3.4,0.1-5.4,0.1c-0.4,1.3-0.8,2.9-1.1,4c-3.4-1-6.6-1.9-9.7-2.8c-0.1,0.3-0.1,0.6-0.2,0.9
		c-2.9-1.4-5.7-2.7-9-4.2c0.7,2.2,1.2,3.9,1.8,5.8c-3.6-2.9-6.7-5.4-10.4-8.4l0.7,4.9c-0.4,0.1-0.3,0.1-0.7,0.2
		c-1.3-2.8-2.5-5.6-4.3-9.6c-0.9,2.1-1.2,2.9-1.7,4c-4.2-5.9-8.3-11.6-12.4-17.4c-0.5,0-1,0.1-1.6,0.1c5.4,10.7,1.7,21-0.6,31.5
		c0-5.5-0.1-10.9,0-16.3c0-2.2,0.8-4.2-2.2-5.3c-1.2-0.4-1.7-3-2.6-4.6c-0.3,0.9-0.8,2.1-0.7,2c-2.3,0.8-3.8,1.3-5.3,1.9
		c-0.1,0-0.2,0.4-0.3,0.3c-4.1-1.9-5.7-1.7-4.4,3.7c0.6,2.7-1.1,6.1-1.8,9.1c-0.4,1.9-1,3.8-1.4,5.7c-0.7,0-0.7,0-1.4,0l-1.2-3.8
		c-3.3-0.6-7.8-0.1-4.6-5.8l0.1,0.1c-0.9-1.7-1.7-3.5-2.8-5.5c-0.2,1.6-0.4,3-0.6,4.6c-2.4-2-2.3-2-0.9-6.1c0.7-2.1,1.1-4.4,1.6-6.5
		c-0.6-0.2-1.2-0.4-1.8-0.6c-0.9,1.9-1.8,3.7-2.6,5.3c-1.5,0.3-3.7,1.4-5,0.8c-1.4-0.7-2-3-3.5-5.4c-0.2,0-0.7,0.1-1.2,0.1
		c0.2-1.3,0.3-2.6,0.6-4.4c-1.1,1.2-2.1,2.2-3.1,3.2c-0.6-0.6-1.1-1.2-1.7-1.8c-3.4,0.7-6.8,1.4-11.2,2.3c1-2.9,1.7-4.8,2.4-6.7
		c-5.2-1.1-6.2-0.2-5.3,5.2c-3.3-0.4-5.2,0.6-3.3,4.8c-4.4-1.2,0.7-8.2-4.9-7.4c0.6-2,1.2-4,1.7-6c-5.5,3.9-10.3,2.7-14.8-0.4
		c0.8-1.9,1.6-3.7,2.3-5.6c-0.4-0.3-0.4-0.3-0.8-0.6c-1.6,1.3-3.3,2.6-5.3,4.3c-2.6-5.3,3.8-7.6,3-11.7c-2,0.2-4,0.4-6.6,0.7
		c3.2-2.4,5.9-4.4,8.9-6.6c-4.1-1.9-9,0-9.3,2.9c-2.2,0.7-4.3,1.3-5.7,1.7c0.6-4,1.3-8.6,2-13.2c-0.8-0.4-0.8-0.4-1.6-0.7
		c-1.2,1.4-2.4,2.8-4,4.5c-0.2-3-0.3-5.2-0.4-6.6c-3-1.6-5.5-2.9-8.4-4.4c0.8-1.1,1.7-2.2,3.4-4.4c-2.4,1-3.6,1.5-4.8,2
		c-2.4-2.7,0-8.8,5.9-14.3c1.4,0.5,2.8,1,4.5,1.6c-0.9,0.8-1.9,1.6-2.6,2.3c1.7,3,3.2,5.7,4.7,8.5l-1.3,0.7
		c-0.4-0.8-0.7-1.7-1.1-2.6c-3.8,1.1-2.3,3.1-0.9,5.2c1.8,2.8,3.3,2,4.4-0.1c0.6,0.7,1.1,1.3,1.5,1.9c0.7-1.2,2.2-2.5,2-3.5
		c-0.9-4.8,1.1-8.2,4.5-11.2c0,0,0,0,0,0c1.4-1.4,2.8-2.8,4.2-4.2c-0.3-0.9-1.1-2.4-0.7-2.8c2.2-2.6,4.7-4.9,7-7.3
		c2.3-1.7,4.5-3.3,7.3-5.3c-0.4,2-0.6,3.5-1.1,5.9c2.4-1.9,4.2-3.3,6.1-4.8c0.4,0.3,0.3,0.3,0.7,0.6l-5.2,9c0.7,0.7,0.6,0.7,1.3,1.4
		c1.4-0.7,2.8-1.4,4.7-2.4c-0.4,1.3-0.6,2.2-0.9,3.2c1.4-0.4,2.8-0.7,5-1.3c-0.9,2-1.3,3.1-1.8,4.2c0.5,0.5,1,0.9,1.6,1.4
		c0.8-2.1,1.6-4.1,2.3-6.2l1.5,1.5c-2.1,2.9-4.2,5.7-6.3,8.6c0.4,0.4,0.3,0.3,0.7,0.7c2.1-1.5,4.3-3.1,6.5-4.7
		c0.4,1.7,0.8,3.3,1,4.5c1.8-1.5,3.5-3,5.2-4.5c0.3,0.3,0.6,0.7,0.9,1c-0.7,0.8-1.4,1.7-2.1,2.5c0.4,0,0.7,0,1.1,0v11.9
		c2.7-2.6,4.8-4.7,7-6.7c0.4,0.3,0.3,0.2,0.7,0.5c-1,2.6-2.3,5.2-3,7.9c-0.3,1,0.4,2.5,1,3.5c2.7,4.4,5.3,8.9,4.1,14.4
		c1.3-1.4,2.6-2.8,4.3-4.6c0.2,0.3,1.4,1.5,3,3.2c-2.5,1.7-4.9,3.4-7.6,5.2c3.6,1.4,6.3,1.6,9.1-1.4c1.3-1.4,4.1-1.5,6.2-2.1
		c1.1,0.4,2.2,0.7,3.6,1.2c0.6-0.9,1.8-2.5,2.9-4c0.5,0.2,0.5,0.2,1,0.4c-0.1,1.2-0.3,2.4-0.5,4.1c3.2-2,0.8-7.7,6.3-7.7
		c-1.9,4.6,3.7,9.6-3.4,13.7c1,0.2,1.9,0.4,2.9,0.6c1.8-3.8,3.7-7.7,5-10.5c1.6,1.3,4.1,3.2,6.5,5.1l0.7-0.8
		c0.3,2.3,0.6,4.5,0.8,6.8c0.5,0,0.9,0.1,1.4,0.1c0.3-2.8,0.7-5.6,0.8-8.5c0.1-3-1.5-6.6,3.4-8.1c-0.5-1.9-1.1-4.2-1.7-6.3
		c1.7,0.3,2.9,0.6,3.8,0.8c2.1,3.7,4.2,7.5,6.4,11.4c4.2-2.5,3.5-5.3,0.9-8.1c0.9-1.8,1.7-3.5,2.6-5.3c1.9,3.2,3.8,6.5,5.7,9.9
		c0.7-0.3,0.5-0.2,1.2-0.5c-0.3-1.6-0.6-3.3-0.9-4.9c1.6,1,3.1,2.1,4.7,3.1c0,0-0.1-0.1-0.1-0.1c4.3,0.1,1.4-1.5,0.7-2.7
		c-1.4-2.4-2.7-4.8-3.8-6.9c4.8,0.6,9.2,0.2,12.8,1.7c3.5,1.5,6.3,4.9,9.3,7.5c0.9,0.8,1.7,1.9,2.8,2.3c1.2,0.4,2.6,0.1,3.8,0.1
		c-0.2-1.2-0.5-2.5-0.6-3.7c-0.2-2.4-0.3-4.8-0.5-8.3c5.4,1.4,9.7,2.5,14.7,3.8c-1.4,1.1-2.4,1.9-3.5,2.7c0.6,0.2,1,0.6,1.4,0.6
		c1.5-0.2,3-0.4,4.5-0.7c1.4-0.3,2.9-0.7,4.3-1.1c-0.7-1.3-1.1-3.4-2.1-3.8c-4.9-2-6.7-6.2-8.1-10.9c2.9,1.8,6,3.8,9,5.7
		c0.7-0.8,0.5-0.6,1.2-1.4l-7.7-9.8c0.9-0.8,0.5-0.5,1.4-1.3c3.3,3.1,6.7,6.2,10.3,9.6c-0.7-2.7-1.3-5.1-1.9-7.6
		c-0.2-0.9-0.5-1.8-0.7-2.7c-0.3-1.8-0.5-3.7-0.8-6c5.8-2,8.4,3.6,13.1,7.7c-0.7-2.5-1.1-3.8-1.6-5.7c3.1,3.7,5.7,6.9,9.2,11
		c0.4-2.3,0.5-3.1,0.7-4.1c0.7,0.9,1.4,1.7,2.1,2.5c0.4-0.2,0.8-0.4,0.8-0.4c-0.2-1.5-0.3-3.1-0.8-4.5c-1.6-3.9-6.2-7.2-2.4-12.3
		c1.7,0.6,3.1,0.9,4.1-1.4c0.5-1.1,2.2-1.6,3-2.7c2.9-4-3.3-7.1-1.2-11.1c-1.8-0.9-3.7-1.8-5.5-2.7c-0.2,0.4-0.5,0.8-0.7,1.2
		c-3.2-5.2-6.3-10.5-9.6-15.9c-0.2,0.3-0.4,0.8-0.9,1.6c-1.1-1.8-2.1-3.4-3-5.1c-0.4,0.2-0.3,0.1-0.7,0.3c1,3.1,2,6.3,3.2,10.2
		c-1.3-0.8-2-1.3-3.7-2.5c1.1,2.4,1.7,3.8,2.6,5.7c1.1-1.3,1.8-2.2,2.6-3.2c1.4,2.6,2.7,5,4.4,8.1h-8.6c-0.1-0.5-0.1-0.9-0.2-1.4
		c-0.6,0.9-1.2,1.7-1.9,2.6c2.1-5.7-4.8-4.4-5.6-7.6c0.1,0.1,0.1,0.3,0.1,0.4c-2.1,0.2-3.8,0.4-5.5-2.1c-1.4-2-3.7-6.3-7.7-1.8
		c-0.5,0.6-4.5-1.3-6.5-2.6c-1.3-0.8-1.9-2.7-3.8-3.6c0.6,1.7,1.2,3.3,2.3,6.4c-1.9-0.9-3-1.3-3.8-1.9c-0.8-0.6-1.5-1.4-2.2-2.1v4
		c-3.9-4.5-7.2-8.2-10.7-12.3c-2.5,3.4-0.2,10.2-6.4,12c-0.3-4.8-0.7-9.7-1.1-14.6c-0.1-1.6-0.7-3.1-1.1-5.2
		c0.1-0.1,0.8-0.5,0.3-0.3v-6.7c2.6,2.4,4.6,4.4,6.8,6.7c0.5-0.4,1.7-1.2,3-2.2c0.5,1.1,1.1,2.4,1.6,3.7c1.5-0.9,2.8-1.7,4.2-2.5
		c-2-2.2-5.4-4-1.2-7.6c0.6,1.5,1.2,3,1.8,4.2c1.4-1.3,2.8-2.7,4.9-4.7c2-4.1,4.6-9.4,7.7-15.7c3.6,2.4,7.5,4.2,10.4,7.1
		c7,7,12.8,15.3,20.4,21.5c3.8,3.2,5.8,9.3,12.1,9.2c0.1,0,0.4,0.1,0.4,0.2c-0.1,5.9,7.1,5,8.8,9.6c0.6,1.6,3.6,2.2,5.4,3.3
		c0.9-1.6,1.8-3.3,3-5.4c1.2,0.4,3.3,1,4.2,1.2c3.3,5.5,6.1,10.2,9.7,16c0.1-2.2,0.2-3.1,0.3-4.2c1.5,1.1,2.9,2.2,4.3,3.3
		c-2.1-5.1-4.2-10.3-6.5-15.3c-1.1-2.4-2.7-4.6-3.7-7.1c5.3,2,6.6,7.2,8.9,11.5c0.9,1.7,1,3.8,2,5.5c0.6,1,2.3,1.3,3,1.7
		c0.3-2.3,1-4.2,0.6-5.9c-0.4-1.8-1.9-3.4-2.5-5.2c-0.5-1.6-0.4-3.4-0.5-5.1l-0.1,0.1c-0.1-2.1-0.3-4.2-0.3-6.3
		c-0.1-1.2,0.2-2.4-0.1-3.6c-1-3.8-2.1-7.5-2.2-11.6c2.4,4.9,4.7,9.8,7.5,15.6c-0.2-2.5-0.4-4.1-0.6-5.6c0.4-0.1,0.7-0.2,1.1-0.2
		c0.4,1.8,0.7,3.6,1.2,5.4c1.3,4.7,2.5,9.5,8.5,10.6c1,0.2,1.8,1.7,2.5,2.8c1,1.5,1.8,3,2.7,4.6c0.4-0.2,0.8-0.4,1.2-0.7
		c-3.2-6.4-6.4-12.8-9.6-19.2c0.1-0.1,0.3-0.2,0.4-0.4c1.4,1.7,2.7,3.3,4.6,5.6c-0.5-2.6-1.6-4.8-1-6.4c0.6-1.5,2.9-2.3,4.8-3.6
		c1.5,2.5,3.2,5.4,5,8.3c-2.5-7.7-5.2-15.3-4.1-24.2c1.1,1.6,1.9,2.7,2.6,3.8l1-0.5c-1.2-2.4-2.4-4.8-4-8c2.1,1.8,3.4,3,5.2,4.6
		c0.3-1.5,0.5-2.5,0.9-4.3c0.5,2.4,0.9,4.1,1.6,7c2-3.9,1.3-5.9-1-7.8c-4.2-3.4-4.8-6.4-2.2-9.7c2.2,2.4,4.4,4.8,6.7,7.2
		c0.5-0.3,0.9-0.5,1.4-0.8c-1.1-3.3-2.2-6.7-3.3-10c0.5,0.3,1.2,0.6,1.4,0.8c-0.3-5-0.6-10.1-0.8-15.2c0.5-0.1,1.1-0.3,1.6-0.4
		c1.4,1.3,2.8,2.5,4.2,3.8c-2.3-5.2-7.1-9.8-1.9-16.1c0.6,0.5,1.6,1.3,2.6,2.1c0.2-0.2,0.4-0.3,0.6-0.5c-1.9-2.4-3.8-4.8-4.8-6.1
		c-3.6,1.8-6.2,3.1-9.9,5c-0.5,2.6-2.5,1.3-4.7-0.8c-1.7-1.6-3.6-3-5.4-4.5c-0.1,2.4-0.3,4.8-0.4,7.2c0,0.3-0.1,0.6-0.1,1
		c-1.5,0.2-3.1,0.3-4.7,0.5c0.2,0.2,0.5,0.5,0.7,0.7c-1.3,1.8-2.6,3.7-3.9,5.5c-0.2-0.2-0.3-0.3-0.5-0.5c-0.6,1.8-1.2,3.6-1.9,5.5
		c0.6,0.1,1.5,0.4,2.5,0.6c0,0.3,0,0.7,0,1c-2.4,0.1-4.7,0.2-7.1,0.3c0,0.4,0,0.7,0,1.1c1.7,0.7,3.4,1.4,5.1,2.1
		c-2.5,2.8-5.4,1.9-11.2-3.2c0.4,0.9,0.8,1.9,1.4,3.5c-2.8-0.9-5.5,2.9-7.1-1.6c-0.6,2.6-0.5,6.6-2,7.4c-4.1,2.2-5,6.4-7.7,9.4
		c-0.9,1-3.7,0.4-5.8,0.5c1.1,3.5,2.2,6.7,3.5,10.8c-3,3.9,3.2,5.7,4.2,9.2c-4.5,1.2-4.5,1.2-6.5-5.7c-0.2,2.8-0.3,4.3-0.4,5.8
		c-1.8,0.2-3.7,0.4-6,0.7c1.1,1.6,1.8,2.7,2.7,4c-5.7,3.5-8.4-1.2-11.8-3.9c1.2-1.1,2.4-2.1,3.8-3.4c5.1,5.6,6.7-0.6,10.4-4.2
		c-1.8-0.5-3.2-0.9-4.5-1.3c-0.7-0.2-1.5-0.3-2.2-0.5c-1.7-0.3-3.6-1.3-5-0.7c-7.9,3.3-10-3-13.9-7.5c-5.4-6.2-12.1-11.2-17.5-17.4
		c-4-4.6-6.5-10.5-9.9-15.6c-2.1-3.1-4.6-5.9-6.4-8.2c-2.9,1.6-5.2,2.9-7.4,4.1c-0.3-0.5-0.6-0.9-0.9-1.4c0.8-1,1.5-2,3-4
		c-2,0.7-2.8,1.1-4.6,1.7c4.1-7.2-1.5-7.7-5.5-9.4c-0.3,0.2-0.6,0.5-0.8,0.7c-0.2,0.2-0.4,0.4-0.6,0.6c-0.2-0.1-0.4-0.1-0.4-0.1
		c-3.7-1.1-5.4,1.3-5.7,4.2c-0.1,1.3,2.1,2.9,3.6,4.7c-2,4.6-3.6,10.4-2.6,16.9c0.6,4,0.7,8.2,0.1,12.1c-0.8,5.1-5,6.8-10.9,7
		c-3.1,0.1-6.2,1-9.3,0.7c-2.7-0.3-5.6-1.2-7.7-2.7c-1.1-0.8-1.1-3.6-1.1-5.5c0-2.4,0.6-4.7,1.1-8c0.2-0.1,1.4-0.8,2.6-1.4
		c-0.1-0.3-0.2-1.2-0.2-1.2s-2.3,0-3.1,0c-0.3-1.7-0.6-3.3-0.9-4.9c0.5,0,1,0,1.4,0c0.2-1.7,0.9-3.6,0.5-5.1c-0.7-2.6-3-5.2,1.4-6.9
		c0.6-0.3,0.7-1.9,1.3-3.8c-1.1,0.8-1.6,1.1-2.6,1.8c0-2.9-0.8-5.9,0.2-8c2.3-5-1.4-9-1.4-13.5c0-0.9-0.8-1.8-0.7-2.6
		c1.1-6.8,2.3-13.5,3.4-20.3c0.3-1.5,0.3-3.1,0.5-5c1.9-2,5.4-3,5.9-7.2c0.1-1.3,4.3-3.3,6.6-3.1c5.3,0.3,11.5,0.1,14.2,6.2
		c1.3,2.9,1.6,6.3,2,9.6c0.3,2.4-0.2,4.8-0.3,7.2c0.9,0.1,0.6,0.1,1.5,0.2c0.6-2.5,1.2-5,1.9-8.1c1.4,0.7,2.4,1.5,3.5,1.7
		c1.5,0.3,4.3,0.5,4.5,0c1.6-4.4,5.3-1.9,8-2.8c2.8-1,5.4-2.3,8.1-3.5c0.4,0.6,0.3,0.5,0.8,1c-1.5,1.8-3,3.5-5.3,6.3
		c9.6,0.8,16-3,21.6-10.3c2.3,6.2,5,11.6,12,11.8c6.1,0.1,11.4-1.7,13.9-7.1c5.1,2,9.7,3.7,14.2,5.7c0.6,0.3,0.8,2.2,0.7,3.3
		c-0.1,1.2-0.6,2.3-1,3.4c1.5-0.1,2.9-0.3,4.4-0.4c0.1-0.4,0.1-0.8,0.2-1.2c4.4,2.4,8.9,4.7,13.3,7.1c-0.7,0.9-1.2,1.8-1.9,2.7
		c-0.8-0.5-1.7-1.1-2.7-1.7c-0.2,0.3-0.5,0.6-0.7,0.9c1.1,0.8,2.1,2.3,3.3,2.4c1.7,0.1,3.8-0.3,5.3-1.2c5.7-3.5,9.5-3,14.1,1.7
		c2,2,4.2,3.8,6.5,5.2c0.7,0.4,3.1-0.4,3.5-1.3c1.1-2.3,1.6-4.9,2.5-8.3c2.1,1.7,3.6,3,5.1,4.2c0.3-2,0.8-3.9-2.1-4.9
		c-1-0.3-1.1-3-1.6-4.6c0.4-0.2,0.7-0.5,1.1-0.7c-1.3-0.7-2.9-1.2-3.8-2.3c-0.9-1-1.8-3.4-1.4-3.8c3.8-3.8,1.4-6.3-1.3-9.2
		c-0.9,1-1.7,1.8-2.9,3.1c-0.8-9.3-1.6-17.9-2.4-27.3c1.4,1.8,2.7,3.3,3.8,4.7c0.2-1.3,0.5-2.9,1-5.5c1.1,1.8,1.7,2.7,2.2,3.6
		c0.6-0.1,0.5-0.1,1.1-0.3l0.4-4.5c-1.3,0.1-2.7,0.4-3.9,0.3c-2-0.3-3.9-0.8-6.1-1.3c-1.3,2.6-2.8,5.8-4.4,9
		c-4.4-8.3-7.6-17.4-17.3-21.7c1.5,2,3,3.9,4.6,5.9c-0.3,0.4-0.3,0.4-0.5,0.8l-8.4-2.2c-0.3,0.6-0.3,0.5-0.6,1.2l3.5,3.1
		c-0.2,0.3-0.1,0.2-0.3,0.5c-2.6-1.2-5.2-2.3-7.8-3.5c-0.1,0.3-0.3,0.5-0.4,0.8c2.6,1.4,5.1,2.8,7.7,4.2c-0.2,0.3-0.4,0.7-0.6,1
		c-3.3-2.1-6.5-4.2-9.8-6.2c-2.2-1.3-4.5-2.7-6.9-3.6c-3.2-1.2-6.9-1.2-8-5.7c-0.5-1.8-8.4-1.9-10.2,0.1c-2.9,3.1-6.7,3-9.8,2
		c-5.8-2-9.7,1.8-14.4,3.2c-1.9,0.6-4.8,1.7-5.7,0.9c-6.4-5.4-11.1-1.8-16.1,2.5c-0.3-0.9-0.6-1.7-1-2.8c-3.2,3.9-7,3.2-11.1,1.2
		v2.4c-1.1-0.5-2-0.9-3.1-1.4c0.4,1.9,0.7,3.5,1,5.1c-5.3,2.1-10,7.2-16.5,2.3c0.7-0.8,1.5-1.8,2.5-3c-1.4-1.5-2.8-3.1-3.9-4.3
		c-0.2,2.7,0.3,5.7-0.9,7.8c-1.3,2.2-4.1,3.6-6.3,5.3c-1.6-1.2-2.9-2.1-4.6-3.4c1.5-1.3,2.8-2.5,3.9-3.4c-1.9-5.7-7-6.2-11.8-7.1
		c-0.4-0.1-1.2,1.5-1.9,2.5c-2.6-1.2-5.3-2.3-8-3.5l0.1,0.1c-3.8-0.2-7.7,0.1-11.3-0.7c-4.6-1-9-2.6-13.4-4.3
		c-2.3-0.9-4.4-2.4-8.1-3.4c1-3.5,2-7.1,3.1-11.1c4.1,2.2,6.7,6.2,10.6,2.7c0.8-5.3-7.9-5.4-5.9-11.7c-3.4-0.6-6.8-1.2-10.6-1.9
		c-0.4,1.6-0.7,2.8-1,4c-0.6,0-0.6,0-1.2,0.1c-0.8-2.1-1.7-4.2-2.8-6.8c3.8-1.5,7.1-3.9,11.3-2.1c-1.4-1.7-2.7-3.4-4.1-5.2
		c0,0,0.7-0.2,1.4-0.4c-3.7-0.4-7.3-0.8-10.4-1.1c0.9-3,1.6-5.5,2.6-9.1c1-0.4,3.2-1.3,6.8-2.8c-3.4-0.4-5.4-0.7-7.8-1l-1.1-5.2
		c5.2,4.4,3-3.1,6.2-3.2c3.1-0.1,6.1-1.8,9.7-2.9c-1.4-1.5-2.3-2.4-3.7-3.9c-0.1,1.7-0.2,2.7-0.2,3.2c-4.7,1.2-9.3,2.3-13.9,3.5
		c0.3-2.8,0-5.3,3.7-8.4c3.8-3.2,8.1-4.8,11.9-7.4c0.5-0.3,0.6-1.1,1.1-2.1c0.8,1.2,1.5,2.2,2.3,3.4c0.2-0.2,0.4-0.6,0.7-0.9
		c1.9-1.3,3.7-2.7,5.7-3.8c4.1-2.1,8.3-4.1,12.9-6.3c-0.4,1.3-0.8,2.5-1.2,3.7c0.3,0.1,0.7,0.3,0.8,0.2c3.1-2.3,6-4.8,9.3-6.7
		c1.9-1.1,4.7-0.7,6.5-1.9c4.1-2.9,7.8-6.5,11.8-9.5c2.5-1.8,5.6-2.7,8.1-4.5c2-1.5,3.4-3.8,5.1-5.8c0.6,0.3,0.5,0.3,1.1,0.6
		c-0.2,0.8-0.4,1.5-0.5,2.3c5,0.2,10.4-3.2,11.1-6.7c1.5-0.3,3-0.7,4.5-0.8c2.9-0.4,5.8-0.7,8.8-1c0.3,0,0.7,0.1,1.1,0
		c3.5-1.5,7.2-2.4,11-2.5c6.8-0.3,13.5-3.1,20.3-3.4c7.4-0.3,14.9-0.2,22.2,0.7c4,0.5,7.8,2.9,11.5,4.7c5.4,2.6,10.7,5.5,16,8.2
		c0.8,0.4,1.5,0.9,3,1.8c-2,0.4-3,0.7-3.1,0.7l1,9.4l2.7,1.9c-0.2,0.4-0.2,0.4-0.3,0.8c-1.4-0.2-2.8-0.5-4.8-0.8
		c4.2,5.1-1.4,6.8-3.3,10.2c2.4,4.2,10.5,6,5.9,13.2c-3.5-0.5-3.5-0.5-3.1-7c-2.9,1.9-5.3,3.5-7.6,5c0-0.1,0-0.3,0-0.4
		c-2.5,0.8-5.1,1.5-7.6,2.3c-0.8,0.3-1.7,1.4-2.1,1.2c-4.3-2.4-8.5-4.9-12.7-7.4c-0.5-0.3-1.1-0.2-2.1-0.4c0.3,5.9-4.2,7.1-8.3,8.3
		c-6.8,2-13.8,3.5-20.1,5.1c14.9,3.4,32,4.9,35,3.4c-0.8-2.2-1.6-4.3-2.4-6.5l4.5-1.5c1.3,1.9,2.6,4,4.6,6.9c0.8-2.6,1.2-4,1.6-5.3
		c5.1-2.7,5.1,4.4,9.8,4.7c-1.1-2-1.8-3.4-2.4-4.5c1.6-1,3.4-2.1,5.8-3.6c1,0.8,3.9,1.9,4.6,3.8c0.6,1.9-1.1,4.5-1.7,6.6l-5.1-0.3
		v7.1c-0.2,0-0.5,0-0.7,0c0.7,1.7,1.3,3.5,2,5.2l-1.5,0.6c1.9,1.5,3.7,3,5.6,4.4c-0.2,0.6-0.2,0.6-0.4,1.2c-1.7,0.2-3.4,0.3-5.3,0.5
		c2.1,4.8,2.3,4.9,7.3,2c1,1.5,1.9,3,3.4,5.2c-3.6-0.4-6.4-0.3-8.9-1.1c-3-0.9-7.2,2.6-9-3.1c-0.1,4.3-0.1,4.3,4.7,5.5
		c2.5,0.6,4.9,1.2,7.9,1.9l-3.6,3c0.5,0.5,1.2,1.6,1.4,1.5c1.7-1,3.3-2.1,5.1-3.3c1.4,1.1,3.2,3.6,5.3,4c4.8,0.9,4,3.9,3.8,7
		c0,0.7,0.5,1.5,0.7,2.3l1.3-0.3c0-4.6,0-9.1,0-13.7c0-4.2,1.8-5.5,5.8-4.5c0.7,0.2,1.6-0.4,2.4-0.6c-0.4-1-0.5-2.4-1.2-3
		c-3.9-3-5.2-6.1-0.8-10.7c0.4,1.8,0.7,3.2,1.2,4.6c0.4,0.9,1.2,1.6,1.8,2.3c0.8-0.8,2.3-1.7,2.2-2.3c-0.4-2.4-1.3-4.6-3-6.8
		c0.7-1.5,1.5-2.9,2.2-4.4c2.3-4.8,0.9-9-2-12.9c-2.8-3.7-1.6-7.4-0.3-11.2c1.2-3.5,2.3-7,3-10.6c0.2-1.2-1.1-2.7-2.2-5.1
		c4.1,1.8,7.6,3.3,11.1,4.8c-0.3,0.8-0.2,0.6-0.4,1.4c-2.3-0.4-4.6-0.9-6.9-1.3c-0.3,0.9-0.2,0.7-0.6,1.6c1.8,1,3.7,1.9,5.9,3.1
		c-0.9,0.9-1.8,1.6-1.8,1.6c1.7,2.2,3.3,4.8,5.3,6.8c2.6,2.6,3.8,4.7-1.7,7c4.5,3.3,8.1,6.1,12.1,9c-1.7,1.6-2.5,6.2-7.4,1.6
		c-1.1,5.9-2,11.2-3,16.5c-1,0-0.8,0-1.8,0c-0.4-2.2-0.8-4.4-1.1-6.4c-1.9,1.6-1.8,4.9,0.9,12.4c-2.2,0.9-4.4,1.8-7.5,3
		c3.4,0.3,6.2,0.5,9.6,0.8c-1.1,1.2-1.9,2.2-2.7,3.1c4.7,2.8-0.1,5-0.5,6.8c1.6,4.8,2.9,8.9,4.4,13.5l7.1-3.3c-5.3-2.2-4-6-4.8-9.9
		c2,0.7,3.1,1,4.5,1.5c-0.5-3-1.4-5.8-1.4-8.6c0-1.7,1.5-3.3,2.3-4.9c1.7,0.9,4.3,0.7,4.3,3.8c0,0.7,0.5,1.4,1.6,2.1
		c0.4-2.7,0.8-5.5,1.2-8.2c0.9,2.5,2,4.6,0.6,7.4c-1.7,3.5-0.7,5.8,3.6,14.6c1.1-3.8,2.3-7.6,3.3-11.2c1.9,6.1,3.8,12,5.9,18.4
		c1.6-3.4,2.9-6,4.4-9.1c2.4,2.5,3.4,4.1,2.1,7.4c-0.9,2.3,0.5,5.4,1.6,8.1c3.5-4.5-2.9-10.3,3-14.8c0.2,3.1,0.3,5.7,0.4,8.2
		c0.8,0,0.5,0,1.3,0.1l1.5-11.1c1-0.2,0.9-0.2,1.9-0.3c2.4,4.5,4.6,9.2,7.3,13.6c0.9,1.6,2.8,2.6,4.3,3.9c2.8,2.3,6.4,4.1,8.2,7
		c2.2,3.5,2.9,8,4.2,12c-0.4,0.1-0.8,0.3-1.2,0.4c-0.6-1.7-1-3.5-1.8-5.2c-1.5-3.3-3.1-5.7-7.5-6.8c-3.5-0.9-6.1-5.4-9.1-8.3v11.4
		c-2.5,1.2-3.9,1.9-5.4,2.5c-1,0.4-2.2,0.5-3.3,0.5c-0.1,0-0.6-1.4-0.4-1.9c0.4-1.5,1.2-2.2,2.2-0.3c0.3-0.9,1-1.9,0.8-2.6
		c-0.9-2.6-2.2-5-3.3-7.5c-2.5,2.2-3.6,10.3-1.2,12.5c4.2,3.8,1.5,7.5,0.3,11.1c-1.1,3.2-2.3,6.4-3.5,9.5c1.8-2.3,3.9-4.4,6.3-6.1
		c0.9-5.8,5.1-11,12.6-11c5.1,0,8.6,2.4,10.7,5.7c1.3,0.1,2.5,0.3,3.7,0.6c0.5-2.8,1.8-5.5,4-7.4c-1.8-2.6-2.6-5.9-2.4-9.2
		c-5.6-4.8-5.8-14.4-0.8-19.8c-1.5-7.9-2.7-16-3.2-24.1c-0.3-3.5-0.2-6.9,0-10.4c-0.5-0.7-0.9-1.3-1.3-2c-2.1-3.4-3.6-7.8-5.1-11.6
		c0.4,0.8,0.7,1.7,1.1,2.5c-2.5-6.6-4.2-13.1-5.4-20.4c-1.5-9.3-3.5-20-2.6-30c-0.5-0.4-0.9-0.9-1.4-1.4c-2.2-2.8-4.4-5.7-6.6-8.5
		c-1.9-4.5-3.7-8.9-5.4-13.3c-14.9-9.5-27.3-23.8-35.5-38.9c-0.6-1.1-1.1-2.1-1.6-3.2c-1.1-0.6-2.1-1.2-3.2-1.8
		c-11.2-6.3-22.4-12.5-34.1-17.8c-24.2-9.5-49.4-15.3-75-19.1c-9.9-1.2-19.7-2.3-29.6-3.2c-9.6-0.9-19.2-2.8-28.9-2.8
		c-0.6,0.2-1.3,0.4-1.9,0.7c0.5-0.2,1.1-0.5,1.6-0.7c0,0,0,0-0.1,0c-6.4,2.6-12.5,4.5-19.8,5.5c-2.5,0.3-5.1,0.5-7.6,0.7
		c-0.4,0.5-0.9,1.1-1.4,1.6C249.8,96,243,99.9,236,102c-1.9,1.3-3.9,2.6-6,3.7c-3.6,1.9-7.3,3.3-11.1,4.2c-0.1,0-0.2,0.1-0.2,0.1
		c-1.3,0.7-2.6,1.3-3.9,1.8c-4,5.2-7.7,9.2-13.5,12.9c-0.9,0.6-1.9,1.1-2.9,1.5c0.2,1.4,0,2.9-0.6,4.4c-3.2,8.4-8.6,15.1-15.5,20.8
		c-6.8,5.6-13.3,9.6-19.1,14.9c-5.6,5.1-7.4,11-9.8,19.2c-2.5,8.5-4.5,17.2-5.9,25.9c-1.4,9-1.9,18.3-1.7,27.4
		c0.1,9.5,2.3,18.8,2.3,28.2c-0.1,9.4-3.5,17.4-5.2,26.4c-0.3,1.5-0.2,3-0.3,4.5c0.1,0.1,0.1,0.2,0.2,0.3c1.5,2.2,3.3,4.3,4.6,6.6
		c5.1,8.9,4.4,19.6,4,29.5c-0.3,10.3,0,20.4,0.5,30.7c0.4,10,0.4,19.9,1.4,29.9c1,10.5,1.8,20.7,0.2,31.1
		c-1.2,7.9-5.1,15.9-4.5,23.9c0.6,8,2.9,16.7-2,24.9c-2.5,4.2-6.7,7-10.6,9.6c-3.2,2.2-3.5,1.9-5.2,5c-4.1,7.4-7,15.1-11.8,22.2
		c-2.7,3.9-5.6,7.7-8.4,11.7c-2.2,11.3-4.5,22.4-9.4,33c-3.7,8.1-9.4,15.5-17.1,20.2c-6.9,4.1-14.6,5.3-22.3,4.9V732
		c151,0,301.9,0,452.9,0c18.9,0,37.8,0,56.7,0c1.5,0,3,0,5.2,0C576.7,730,576.7,728.4,576.7,726.8z M426.7,345.8
		c-2,2.6-3.1,4.1-4.9,6.4c-0.9-2.3-1.4-3.6-2.1-5.5C422,346.5,423.7,346.2,426.7,345.8z M379,325.9c7.6-0.8,15.3-0.8,22.9-0.1
		c2.3,0.2,4.5,1.6,7.2,1c0.8-0.2,2.2,1,3,1.9c1.6,2,3,4.3,4.6,6.7c-0.3,0.1-1.5,0.7-2.1,1c1.6,2.2,3.6,4.1,4.4,6.4
		c0.5,1.3-0.7,3.5-1.7,4.9c-0.4,0.4-2.7-0.6-4.1-1.2c-1.7-0.7-3.5-1.4-4.9-2.5c-1.1-0.8-2.1-2.1-2.6-3.4c-0.8-2.5-2.3-3.5-4.4-2.1
		c-4.9,3.2-9.1-0.1-11.3-2.7c-3.1-3.8-6.4-1.9-9.5-2.2c-5.2-0.6-10.5-0.6-15.7-0.9c-0.1-0.7-0.1-1.4-0.2-2.2
		C369.3,328.8,374,326.5,379,325.9z M426.8,211.7c-0.2-0.4-0.3-0.7-0.5-1.1c0.9-1.4,1.7-2.7,2.9-4.6c1.1,0.5,2.7,1.3,4.9,2.3
		C431.2,209.6,429,210.6,426.8,211.7z M438.6,191.1c-3.5,0.8-7.1,1.4-11.7,2.2c3.9,1.3,6.6,2.2,9.9,3.3c-2.2,0.9-3.4,1.5-4.6,1.9
		c-1.8,0.6-3.8,2.2-4.9-1c-0.2-0.5-1.1-0.9-1.7-1c-7.4-0.8-14.5-2.4-20.3-7.6c-1.4-1.3-2.4-3.1-3.6-4.7c2.4-0.5,4.7-1.6,7.1-1.5
		c1.8,0.1,3.6,1.5,5.4,2.4c0.2-0.2,0.4-0.4,0.6-0.6c-0.7-0.5-1.5-1-3.4-2.3c9.4-2.5,17.6,0.5,25.8,0.1l0.2,1.5
		c-5.3,0.8-10.5,1.6-15.8,2.3l0,0.3c4.6,0,9.1,0,13.7,0c1.2,0,2.6-0.2,3.6,0.3c0.7,0.3,1.5,1.6,1.5,2.4
		C440.5,189.9,439.4,191,438.6,191.1z M475.5,271.3c0.6-1.8,1.2-3.7,2-6.2c0.8,1.4,1.2,2,2.1,3.5c0.6-1.5,1.1-2.6,1.6-3.8
		C482.7,266.4,482.4,266.7,475.5,271.3z M491.4,253.6c0,0.1,0.5-1,1-2.1c0.2-0.4,0.7-1,0.5-1.2c-0.2-0.4-0.8-0.6-1.2-0.9
		c0.5-0.4,1.1-1.2,1.3-1.1c1.3,0.6,3,1.1,3.7,2.2c0.8,1.4,0.7,3.4,1,5C495.5,254.8,493.9,254.4,491.4,253.6z M505.3,277.3
		c2.7,0.8,5.4,0.9,5.8,1.9c0.9,2,0.5,4.5,0.6,7.2C509.5,283.3,507.8,280.9,505.3,277.3z M513,254.5c-1.1,1.9-1.8,4.5-3.4,5.5
		c-1.8,1.1-4.6,0.9-5.8,1.1c-2.9-5.5-6.9-10.4-7.9-15.7c-0.8-4.1-3.8-5.8-5-8.9c-0.4-1.1-0.3-2.5-0.5-4.5c3.6,2.9,7.3,4,7.3,8.9
		c0,1.5,3.5,3.1,5.4,4.6c1.2,0.9,3.4,1.6,3.5,2.6c0.2,1.7-0.4,4.2-1.6,5c-2.4,1.8-2.6,3.3-1.6,5c1.9-1.5,3.4-3.1,5.3-4
		C509.8,253.6,511.5,254.3,513,254.5z M507.4,228c0.8,0.9-1.1,4.1-1.8,6.3c-1.8-1.1-4.2-1.7-5.1-3.3c-0.8-1.2,0.3-3.5,0.5-5.6
		c-0.3,0.1-1.7,0.3-3.5,0.6c0.1-0.6,0.4-1.6,0.2-1.8c-5.9-4.5,1.1-8.5,0.5-12.8C501.6,216.8,503.1,223.1,507.4,228z M384.9,110.2
		c14.6-2.1,25.2,7.5,37.3,12.6c6.1,2.6,12,5.5,17.8,8.6c2.5,1.4,4.8,3.4,6.8,5.4c7.2,7.1,14.8,14,21.3,21.7
		c3.3,3.9,7.2,7.1,10.6,10.8c3.2,3.6,5.4,8.2,8.5,13c-2.7,0.4-4,0.6-5,0.8c3.6,2.9,7.3,5.7,10.7,8.7c3.7,3.2,3.3,7.7-1.2,11
		c2.2,0.7,3.9,1.3,6.2,2c0.1,2,0.2,4.1,0.4,6.3c-1,0.2-2,0.4-3.3,0.6v4.7l-5,0.6c-0.8-1.8-1.6-3.4-2.7-5.8c1.4,0.9,2.3,1.6,3.9,2.6
		c-3.9-6.6-4.3-7.6-9.3-4.2c-0.6-1.6-1.2-3.1-1.8-4.6c-0.3,0.4-0.6,0.8-0.9,1.2c-1.5-0.9-3.1-1.8-4.6-2.6c-3.4-1.7-6.9-3.3-10.2-5.2
		c-2.9-1.7-5.7-3.8-8.4-5.9c-3.2-2.5-6.3-5.1-9.4-7.7c0.2-0.1,0.8-0.6,1.7-1.3c-4.1-1.9-8.1-3.8-11.2-5.3c5.6,0.4,11.9,0.8,17.1,1.2
		c-2.9,2.1-2.9,2.9,2.1,6.6c-0.6-1.6-1.1-2.8-1.5-3.9c0.4-0.3,0.4-0.3,0.8-0.6c1.6,1.3,3.2,2.5,4.7,3.8c1.5,1.2,3,2.4,4.9,3.1
		c-1-2-2.1-4.1-3.2-6.4c-4.3,0.3-4.2-6.3-6.7-6.8c-4.9-0.9-5.8-3.4-6.1-7.5c-1.3,0.1-2.7,0.2-4.5,0.3c-0.7-2.7-1.3-5.5-2.3-9.2
		c-2.5-2.1-6.1-5.5-10.1-8.3c-4-2.8-8.3-5.3-12.7-7.6c-2.3-1.2-4.5-2.4-3.5-5.3c0.3-0.8,3.2-0.3,4.5-1c2.8-1.5,5.2-1.8,7.6,0.7
		c0.3,0.3,2.2-1.1,4-2c-4-1.9-7.3-4.1-10.8-5c-3.1-0.8-4.9-2.6-7.3-4.3c-2.7-1.9-5.1,0.9-5.7,4.4c-1-0.8-2.3-1.3-2.6-2.1
		c-2.7-7.3-9.6-7.1-15.5-9.1c-3.2-1.1-5.8-3.7-8.9-5.9c0.9-1.1,1.8-2.2,2.7-3.3C384.3,110.2,384.6,110.3,384.9,110.2z M383,109.4
		c-0.1,0.3-0.2,0.7-0.2,1c-3.2,0.6-6.4,1.3-10.2,2c-0.4-0.8-1.2-2.5-2-4.3C375.5,108.7,379.2,109.1,383,109.4z M287.4,204.3
		c-2.1,0.7-4.6,0.4-7.1,0.6c9-4.8,17.4-9.3,25.8-13.8c0.3,0.6,0.7,1.2,1,1.8C300.8,197,294.9,202,287.4,204.3z M293.1,174.2
		c4.8-3.2,9.7-6.4,14.5-9.6c0.3,0.4,0.5,0.8,0.8,1.2c-4.8,3.2-9.6,6.5-14.4,9.7C293.7,175.1,293.4,174.6,293.1,174.2z M309.7,191.7
		c6.7-3.2,13.3-6.3,19.9-9.5c0.2,0.4,0.3,0.8,0.5,1.2C319.9,190.5,314.3,192.7,309.7,191.7z M350.8,184c1.5-1.6,2.1-2.3,2.2-2.4
		c-6.2,1-12.8,2-19.5,3.1c-0.2-0.5-0.4-1-0.6-1.4c9.9-3.6,19.9-6.3,31.4-7.7C359.6,178.5,355.8,180.9,350.8,184z M340.4,100.6
		c5.4,1,10.7,2,16.1,3c0,0.7-0.1,1.4-0.1,2.1c-1.9,0-3.8-0.2-5.6,0.1c-1.9,0.3-3.7,0.9-5.7,1.5c-1.6-1.8-3.4-3.7-5.2-5.7
		C340,101.1,340.2,100.9,340.4,100.6z M339.7,166.3c-0.5,0.6-1,1.2-1.9,2.3c1.4,0.3,2.5,0.6,3.8,0.9c-11.7,7.2-26.1,8.1-36.2,18.3
		c-3.3-4.3,1.9-5.3,2.9-8.1c-4,0.9-7.4,1.8-10.9,2.6c-0.2-0.4-0.4-0.8-0.6-1.3c3.2-2.1,6.5-4.1,10.2-6.5c-1.7,0.3-2.9,0.5-4.2,0.8
		c4.1-7.5,11.6-7.1,19.1-8.9c-1.2,1.1-1.8,1.6-2.6,2.4c6.9-1.2,13.5-2.3,20-3.4C339.4,165.7,339.6,166,339.7,166.3z M338.5,142.9
		c-6.2,1.9-12.5,3.6-18.7,5.8c-5.2,1.8-10.2,4.1-15.2,6.3c-0.4,0.2-0.2,1.2-0.6,1.6c-0.6,0.7-1.4,1.5-2.3,1.7
		c-1.4,0.3-2.9,0.1-4.3,0.1c0,0.3,0.1,0.7,0.1,1c0.5,0.3,1,0.6,1.7,1.1c-1.8,0.7-3.3,1.3-5.1,2c-0.3-1.4-0.7-2.7-0.9-3.8
		c-3.4,1.2-7.1,2.4-10.7,3.7c-0.2-0.3-0.3-0.6-0.5-0.9c1.8-1.1,3.6-2.2,5.3-3.3c4.3-2.8,8.4-6,13-8.4c5.9-3,12.1-5.7,18.4-7.9
		c3.8-1.3,8.1-1.7,12.2-2c2.5-0.2,5,0.7,7.5,1.1C338.5,141.7,338.5,142.3,338.5,142.9z M338.4,100.5c-6.9,2.1-12,1.7-13.4-1.4
		C329.3,100.5,333.5,97.1,338.4,100.5z M311.2,137.2c-1.2,0.2-2.5,0.5-3.7,0.7c-1.2,0.2-2.4,0.5-4-0.4c1.5-0.8,3.1-1.5,4.9-2.5
		c-1.5-0.7-2.8-1.3-4.9-2.3c6.3-2.3,11.8-4.3,18.1-6.5c-0.3,1.8-0.5,2.6-0.6,3.4c3.1-0.2,6.1-0.3,9.7-0.5c-3.8,2.6-7,4.9-10,7h9.2
		c0,0.4,0,0.3,0.1,0.6c-8.7,2.3-17.5,4.5-27.4,7.1c3.8-2.5,6.3-4.2,8.8-5.9C311.3,137.5,311.4,137.5,311.2,137.2z M280.9,99.7
		c7.5,3.2,8.2,3.2,10.7-0.1c-1.8,0.3-3.2,0.5-5.1,0.9c3.5-4.8,5.8-4.5,8.9,1.2c0.8-1.4,1.4-2.6,2.2-3.5c0.8-0.9,1.8-1.5,2.8-2.3
		c2,3.3,1.1,6.5-2.1,7.1c-6.8,1.3-13.7,2.5-21.4,3.8C278.2,104.4,279.6,102.1,280.9,99.7z M269.1,96.9c0.4,0.2,0.8,0.4,1.2,0.6
		c-2,3.1-1.5,8-6.4,9.4C265.7,103.4,267.4,100.1,269.1,96.9z M262.2,197.6c1.3,5.1,4.6,2.3,7.2,2.2c0.1,0.4,0.2,0.9,0.3,1.3
		c-2.2,0.4-4.4,1.3-6.6,1.1c-0.9-0.1-1.6-2.3-2.4-3.6C261.2,198.2,261.7,197.9,262.2,197.6z M66.1,595.7c-0.4-2.5-1.1-4.2-0.9-5.8
		c0.1-1.1,1.2-0.9,5.8,2.3C69.7,593.2,68.4,594.1,66.1,595.7z M82.7,592.7c-0.5,0-0.9,0.1-1.4,0.1c-0.2-1.9-1-4-0.4-5.5
		c1.2-3.1,3.9-3.8,7.3-2.5C86.2,587.6,84.4,590.2,82.7,592.7z M195.7,517c3.9-3.3,4.8-7.8,5-12.7c0.7,0.2,1.4,0.4,2.1,0.6
		c-0.4,2-1.1,4.1-1.1,6.1c0,1.7,0.8,3.4,1.2,5C200.8,516.4,198.6,516.6,195.7,517z M217.8,492.8c-0.4-0.5-0.8-1.1-1.2-1.6
		c2.7-2.2,5.4-4.3,8.1-6.5c0.4,0.5,0.8,1,1.2,1.5C223.2,488.5,220.5,490.6,217.8,492.8z M233.1,474.6c-0.1-0.3-0.6-1.2-1.4-2.6
		c-0.4,1.2-0.6,1.9-0.8,2.6l-0.9-0.1v-6.6c1.5,1.8,2.7,3.3,4,4.9c3.1-4,6-7.8,9.3-12.1c-1.3,0-3.4-0.6-4.4,0.1
		c-2.3,1.7-4,3.1-5.4-0.8c-0.3-0.7-1.7-1.1-2.9-1.8c3.4-2.2,10.9,1.6,9.3-7.1c3.4-1.7,6.8-3.3,10.8-5.3c0,5,0.2,9.6-0.1,14.2
		c-0.1,1.3-1.6,2.5-2.2,3.8c-0.6,1.4-0.8,3-1.2,4.7C243,470.4,238.2,472.4,233.1,474.6z M252.6,476.1c-2.7,1.9-5.2,4.3-7.3,6
		c-2.1,0.2-4,0.4-6.2,0.5c2.5-3.8,5.1-7.9,8-12.4c0.4,1.2,0.8,2.6,1.3,4.1c2.8-2.4,5.5-4.7,8.6-7.4
		C257.4,471.2,255.7,473.9,252.6,476.1z M253.6,467.8c0-4.3,4.8-7.4,3.1-12.8c1.5,0.2,3.3,0.5,6.2,1
		C259.4,460.6,256.5,464.2,253.6,467.8z M304.2,463.8c0.6,0.4,1.2,0.9,2.2,1.6c-0.6-1.6-1-2.7-1.4-3.9c0.4-0.2,0.8-0.4,1.1-0.6
		c0.9,1.2,1.8,2.4,2.7,3.6c0.4-0.1,0.7-0.2,1.1-0.4c-0.6-2.1-1.1-4.2-1.8-6.6c0.3-0.3,0.9-1.1,1.8-2c1,1.1,2.1,2.2,3.3,3.5
		c0.7-0.8,1.4-1.6,2.5-2.9c1.7,2.4,3.3,4.6,4.9,6.8c-0.6,0.1-1.1,0.1-1.7,0.2c-0.2,1-0.8,2.7-0.6,2.8c3.8,1.8,3,5.2,3.2,8.3
		c0,0.3,0.8,0.6,1.3,0.8c-1,1.1-2,2.3-3.5,4c0.1-2.2,0.5-4.1,0.3-6c-0.1-1.6-0.8-3.2-1.2-4.8c-0.6,0.1-1.2,0.1-1.9,0.2
		c-0.4,4-0.9,7.9-1.3,11.9c-4.6,0.8-5.1-0.2-5.3-4.3c-0.2-2.8-2.5-5.4-3.8-8.2C305.4,466.5,304.8,465.2,304.2,463.8
		C304.2,463.8,304.2,463.8,304.2,463.8z M296.3,468c0.2-0.3,0.4-0.6,0.7-0.9c0.8,0.4,1.6,0.9,2,1.1c0-2,0-5,0-5s3.4,0.3,5,0.5V482
		c-2.5-1.7-5.1-3.5-7.8-5.3l0.8-1.1c0.8,0.5,1.5,1,2.6,1.6c0.7-1.7,1.4-3.2,2-4.8C299.9,471,298.1,469.5,296.3,468z M294.4,496.3
		c7.1-0.4,14.1,1.7,21.3-0.7c4-1.4,8.9-0.6,13.3-0.2c7.8,0.8,15.5,2,23.2,3.1c1.2,0.2,2.2,0.7,4,1.3c-2.8,1.2-4.6,2.6-6.4,2.6
		c-1.7,0.1-3.9,3.6-5.6-0.4c-0.2-0.5-3.8,0.7-5.8,0.5c-3.9-0.3-7.7-2.7-11.8,0.2c-1.3,0.9-3.9-0.3-6-0.4c-2.2-0.1-4.4,0.1-6.6,0.1
		c-2.9,0-6,0.5-8.8-0.1c-2.9-0.6-10.7,1.6-12.2,4c-1.8-0.2-3.1-0.3-4.4-0.4c-0.9-0.1-2.4,0.1-2.6-0.3c-1.7-4.4-5.5-4.1-9.4-3.9
		c0-0.4,0-0.8,0-1.2c1.4-0.4,2.9-0.9,4.3-1.3c1.3-0.4,2.7-0.4,3.8-1C287.9,496.5,291,496.5,294.4,496.3z M289.8,475
		c-0.4,0.3-0.9,0.6-1.3,0.8c-2.1-3.2-4.2-6.4-6.3-9.7c0.5-0.3,1-0.6,1.5-1C285.8,468.5,287.8,471.7,289.8,475z M245.9,348.5
		c1-1.4,2.1-2.7,3.3-4.3c10,3.5,18.7,10.9,30.7,11.4c2.4,4.4,5.5,9.5,1.2,15.4c-0.6,0.9-1.6,1.5-2.8,1.8c-0.7,1.9,0.3,6-3.9,2.9
		c-1.7,6.9-2.8,14.1-5.2,20.8c-2.8,8-6.1,15.9-10.2,23.3c-1.5,2.6-6,3.5-9.1,5.2c-2.2,1.1-4.7,1.8-6.4,3.4c-1.9,1.7-2.6,5.4-4.6,6.1
		c-2.5,0.9-6.3,0.4-8.6-1c-3-1.8-5.5-4.9-7.3-7.9c-1.1-1.8-0.8-4.6-0.8-6.9c-0.1-3.4,0-3.4-3.2-4c0.4-3.5,0.9-7.1,1.4-11.4
		c-1.1-0.4-2.8-1.1-4.9-1.8c-0.1-0.8-0.2-2.1-0.4-3.5c-5.8,2.8-8.2-2.3-11.6-4.6c-2.9-1.9-5.4-4.5-8.6-7.2
		c-0.8-3.5-1.7-7.8-2.6-12.1c-0.4,0.1-0.9,0.2-1.3,0.3c0.7-1.7,1.3-3.5,1.9-5.1c4.6-2,7.8-1.2,11,3.2c4.4,6,11.5,7.9,18.8,8.7
		c6.5,0.7,13,2.5,19.2-0.2c2.1-0.9,3.5-3.7,5.2-5.6c-0.8-0.5-1.7-1.5-2.4-1.3c-1.4,0.4-2.6,1.4-4.6,2.5c0.4-2.1,0.7-3.6,0.9-4.6
		c3.6-0.4,6.8-0.7,10.1-1c0-0.4,0-0.8,0-1.1c-2.1-0.5-4.3-1-6.4-1.5c-3.8-1-6.5-3.4-7.7-7c-1.7-5.2-4-4.6-6.2-2.2
		c-2.4-0.7-4.4-2.1-5.7-1.6c-4.6,1.7-6.5-0.4-7.6-4.3c-0.2-0.5-1.3-0.8-2-1.2c0.1-0.4,0.2-0.9,0.3-1.3c1.5,0.3,3.1,0.5,4.6,1
		c3.8,1.2,7.5,2.9,11.3,3.7C237.9,356.8,242.3,353.4,245.9,348.5z M240.2,328c0,0.6,0,1.2,0,1.8c-5.4,0.2-10.8,0.4-16.2,0.7
		c-0.7,0-1.5,0.6-2.2,0.4c-1.4-0.3-2.7-0.8-4-1.3c0.8-1.3,1.3-3.1,2.4-3.7C226,322.7,234.5,322.4,240.2,328z M245.5,198.6
		c-0.4-0.1-0.8-0.2-1.2-0.2c0.9-5.4,1.7-10.9,2.6-16.3l2,0.5C247.7,187.9,246.6,193.2,245.5,198.6z M232.6,112.5
		c-0.3,1.6-0.4,2.3-0.5,3c0.2,0.2,0.5,0.3,0.7,0.5c2.6-5.8,6.8-0.3,10.2-1.3c1.8-0.5,4,0.1,5.9,0.2c-6.8,11.2-11.5,9.5-20,8
		c5.4-1.7,10.2-3.2,15-4.8c-0.1-0.5-0.2-1-0.3-1.5c-3,0.7-6,1.4-8.9,2.2c-2.9,0.8-5.9,1.7-9.4,1.7
		C227.4,118.1,229.6,115.7,232.6,112.5z M220.8,122.8c0.6,2.8-3.2,6.9-9.9,7.8C214.3,127.9,217.7,125.3,220.8,122.8z M152.3,303.6
		c-0.7-2.3-1.4-4.6-2.1-6.9c0.7-0.2,1.3-0.4,2-0.6c0.7,2.3,1.5,4.6,2.2,6.8C153.7,303.2,153,303.4,152.3,303.6z M143.6,491.8
		c2.1-2.1,4.8-3.6,8.1-5.9c-1.5,5.8-6.7,6.8-9.4,10C142.6,494.4,142.7,492.6,143.6,491.8z M140.2,497c0.5,0.1,1.2-0.3,1.8-0.6
		c-0.7,1.4-1.2,2.9-2.1,4.3c-0.9,1.5-2.2,2.8-3.2,4.2c-0.5-1.5-1.1-3.1-2.1-6c-0.6,1.9-0.7,3.3-1.4,4.2c-0.8,1-2,1.5-3.1,2.2
		C130.1,498.4,133.8,495.4,140.2,497z M129.7,505.6c-1.6,4.4-3.3,8.7-4.8,13.1c-0.4,1.2-0.4,2.6-0.8,4.9c-0.4,0.3-1.8,1.3-4.1,3.1
		C123,518.8,124.2,511.2,129.7,505.6z M100.1,587.6c-0.3-0.1-0.6-0.1-0.8-0.2c0.8-3.6,1.5-7.1,2.4-11.4c0.9,0.7,1.4,0.9,1.6,1.3
		c0.5,0.7,0.9,1.5,1.1,1.9C102.9,582.2,101.5,584.9,100.1,587.6z M120.5,537.6c-0.4,0.6-1,1.2-1.2,1.8c-2.8,7.9-5.4,15.8-8.3,23.7
		c-0.8,2.2-2.5,4.1-3.9,6c-1.2,1.6-2.7,3.1-4.4,5.1c-0.1-1.2-0.6-2.5-0.2-3.5c2.8-8,4.2-16.6,9.8-23.4c1.3-1.5,1.5-3.9,2.6-5.6
		c1.5-2.3,3.3-4.5,5.1-6.7c1.8-2.2,3.7-4.2,5.6-6.4c1.7-2,2.9-4.5,4.9-6c1.6-1.1,4-1,6.1-1.5c0.4,0.4,0.7,0.7,1.1,1.1
		c-8.2,1.1-6.7,8.6-9.8,13.8c-0.9-1.3-1.4-2-2-2.9c-0.5,0.7-0.8,1.7-1.4,1.9C122.7,535.4,124.1,540.2,120.5,537.6z M132,542.6v17.3
		c-1.7-1.3-2.5-1.9-3.3-2.5c-1.2,2.8-2.3,5.5-3.5,8.3c-0.5-0.2-0.9-0.4-1.4-0.6c1.4-3.2,3-6.4,4.1-9.7c0.8-2.3,0.7-4.8,1.4-7.1
		c0.7-2.5,1.4-5.2,2.7-7.4c1.5-2.6,3.6-4.9,5.6-7.1c2.1-2.4,4.3-4.6,7.3-6.1c-2.6,5.7-5.2,11.3-8,17.4
		C136.1,544.6,134.6,543.9,132,542.6z M138.1,559.2c2.8-2.5,5-4.6,7.3-6.6c0.3,0.3,0.6,0.7,0.9,1C144.6,558,142.5,559.6,138.1,559.2
		z M148.8,558.3c-1.4,2.8-3,5.9-4.4,8.8C142.2,561.5,143.3,559.5,148.8,558.3z M146.8,589.7c-0.5-0.1-1.1-0.3-1.6-0.4
		c1.9-5.1-0.9-11.3,4.9-16.3C148.9,579.1,147.9,584.4,146.8,589.7z M151.8,549.5l-1.1-1.4c2.5-1.9,5.1-3.9,7.6-5.8
		C156.2,544.7,156.1,549.8,151.8,549.5z M156.2,571.3c0.2-4.6,0.4-8.6,6.1-8.3C162.6,565.3,162.6,565.3,156.2,571.3z M168.7,494.4
		c1.4-2.9,2.7-5.4,3.9-8c-0.4-0.4-0.8-0.7-1.1-1.1c-2.8,1.9-5.5,3.9-8.1,5.7c1.3-2.7,2.7-5.4,4.1-8.1c-0.3-0.1-0.5-0.2-0.8-0.3
		c-2.2,1.3-4.3,2.8-6.5,4c-2.6,1.5-3.8-0.5-3.5-2.4c0.3-2.3,1.1-5.7,2.8-6.6c4.6-2.4,3-6,2.9-9.3c-0.1-5-0.7-10-6.7-11.1
		c1.3-1.6,2.6-3.3,4.2-5.4h-3.5c1.4-1.6,2.4-2.8,2.7-3.1c-0.6-2.1-1.1-3.5-1.3-4.9c-0.3-2-0.3-4-1.1-6c1.7-4.2,3.4-8.3,3.2-13.5
		c-0.2-5.8,1.8-11.7,2.9-18c-1,0.4-1.7,0.7-3.8,1.6c1.3-3.7,1.9-6.7,3.3-9.2c2.8-5,2.3-10.2-1.6-12.8c3-2.7,4-12.2,2.3-34
		c-1.1,1.3-1.9,2.2-2.8,3.4c-0.1-0.5-0.4-1-0.3-1.1c5.9-7.2,3.2-15.8,3.8-23.8c0.2-2.3-2.2-4.7-2.7-7.2c-0.5-2.7-0.1-5.6-0.1-8.4
		c0.5-0.1,1-0.1,1.5-0.2c0.4,0.8,0.9,1.6,1.3,2.4l0.9,0c0.1-1.2,0.8-3.1,0.3-3.5c-4.1-3.1-3-7.6-3.5-11.6c-0.1-0.4-0.3-0.9-0.4-1.3
		c-0.9,0.8-1.7,1.5-2.5,2.3c-0.5-0.1-0.9-0.1-1.4-0.2c0-3.2-0.1-6.4,0-9.6c0.2-6.2,0.6-12.3,0.8-18.5c0.1-6,0.1-12,0.1-18
		c0-0.4-0.3-0.9-0.6-1.1c-4.2-2.2-3.8-6-3.3-9.8c0.6-4.2,1.3-8.3,1.6-12.5c0.1-1-1-2.1-1.6-3.4c1.1-0.6,2.1-1.1,4-2.1
		c-1.6-0.5-2.4-0.7-4.1-1.2c1.1-2,2-3.8,3-5.6l1.4,0.4c-1.3-2.8-2.7-5.7-4.3-9.2c2.2-9.9-1.5-22.3,9.1-31.8
		c-1.2,4.2-2.2,7.6-3.2,11.1c0.3,0.1,0.6,0.3,0.9,0.4c4.6-4.8,9.1-9.6,14-14.7c0.8,3,1.3,5,2.1,8c-0.6,1.8-1.5,4.7-2.5,7.7
		c6.1-4.6,6.7-10.9,6.6-17.7c-1-0.4-2.1-0.9-3.1-1.3c0.3-0.5,0.7-1.4,0.8-1.3c1.2,0.5,2.5,1,3.6,1.7c1.1,0.8,2.1,1.8,3.6,2.5
		c-0.6-1.1-1.1-2.2-1.7-3.2c3-2.4,4.3-11.1,1.2-14.2c3.6-3.3,7.2-6.6,10.7-9.9c0.3-0.3,0.6-0.9,0.6-1.3c-0.1-4.3,2.4-6.3,6.2-7.8
		c2.3-0.9,4-3.4,6-5.1c0.4-0.3,1-0.5,2.2-0.4c-5,3.9-4.9,9.1-4.1,15.2c0.6-1.2,1-2,1.7-3.4c0.6,5.8,1,10.6,1.5,15.9
		c1.1-1,2.2-2,3.7-3.4c1.3,6.3-4.2,9.5-5.8,14.9c1.8-2,3-3.2,4.2-4.5c0.6,0.3,1.1,0.7,1.7,1c-1.6,3.7-3.2,7.4-4.7,10.9
		c0.3,0,1.6-0.1,2.8-0.2c0.1,0.5,0.2,1.1,0.3,1.6c-2.8,0.6-5.8,0.8-8.4,1.9c-2.4,0.9-4.4,2.7-6.6,4.2c0.4,0.8,0.9,1.8,1.4,2.7
		c-1,0.3-2.1,0.6-3.1,0.9c-0.2,1.4-0.5,2.8-0.7,4.3c-0.4,0-0.7,0-1.1,0v-6.8c-0.3-0.1-0.7-0.1-1-0.2c-0.7,1.1-1.3,2.3-2,3.4
		c-0.8-1.1-1.6-2.2-2.5-3.3c-3.6,1.3-3.6,1.4-7.2,10.6c0.5-3.5,0.9-7,1.4-10.4c-2.2,0.9-0.6,4.7-4.4,3.2c-0.4,1.3-1.3,2.6-1.3,3.9
		c0.2,5.9,0.7,11.9,1.1,17.8c0.1,1.6,0.5,3.2,0.7,4.6c-1.6-0.6-3.2-1.2-4.7-1.8c-0.3,1.7-0.5,3.5-0.9,5.2c-0.2,1.1-0.4,2.4-1,3.3
		c-4.4,7.3,0.9,14.9-0.7,23c-0.6-2.5-1-4.4-1.5-6.4c-0.3,0-0.6,0-0.9,0.1v25.5c2.2-0.7,4.1-1.3,6-1.9c0.2,0.4,0.5,0.8,0.7,1.1
		c0.4-1.2,0.8-2.4,1.2-3.6c0.5,0,0.4,0,0.8,0.1c0.6,5.4,1.1,10.8,1.7,16.5c0.5-0.9,0.8-1.5,1-1.8c0.4,3.3,0.9,6.8,1.4,10.2
		c0.5-0.1,1.4-0.1,1.4-0.2c0.7-3.7,1.2-7.5,2-11.2c0.5-2.4,1.4-4.8,2.1-7.2l1.6,0.5c-0.4,1.7-0.8,3.3-1.2,5c0.5,0.3,0.5,0.2,1,0.5
		c1.5-1.9,3-3.8,4.5-5.5c0.7,0.3,1.6,0.6,2.5,0.9c-2.1,5.3-4.4,11.3-6.8,17.3c-0.3,0-0.5-0.1-0.8-0.1c0-0.6,0.1-1.2,0-1.7
		c-0.2-0.6-0.6-1-0.9-1.5c-0.4,0.4-1,0.8-1,1.3c-0.3,2.3-0.5,4.7-0.9,7c-0.1,0.5-1.1,0.8-1.6,1.2c0.1,4.5,1,8.5,6,11.1
		c-2.3,4.7-5.3,9.1-6.7,13.9c-1.3,4.3-5.3,8-3.2,13.3c0.5,1.3-0.1,3.4-0.8,4.9c-2.6,5-2.2,10.3-2.1,15.7c0,1.4-1.7,2.9-2.6,4.3h4.8
		c-0.5,2.3-1,4.2-1.5,6.3c3.2,2.9,3.2,5.3-0.1,11.2c6.4,0.8,1,4.3,1.4,7c1.4-1.2,2.5-2.1,3.6-2.9c0.2,0.2,0.5,0.5,0.7,0.7
		c-2.1,2.3-4.6,4.2-6,6.8c-1.2,2.3-1.7,5.3-1.5,8c0.3,4.5-0.9,7.9-4.1,11c-1.6,1.6-2.3,4.2-3.7,6.9h3.8c-0.5,1.2-1.2,2.5-1.5,3.8
		c-0.4,1.7-1.2,4.4-0.4,5.2c1.8,1.6,3.6,0.3,4.7-1.7c0.3-0.5,1.3-0.5,2.4-0.9c-2.2,3.6-4,6.7-5.9,9.8c-1.4,2.2-2.3,4.3,0.5,5
		c-1.1,3.3-2.1,6.1-3.1,9c1.2,1.1,2.3,2.2,3.9,3.7c-2,2.9-4.2,6-6.3,9c3.9-0.6,4.7-1.4,7.6-7.9c2.4,3.7,1.1,9.2-3.8,15.3
		c1.6-0.3,2.8-0.5,4.6-0.8c-1.7,1.4-3.1,2.2-4.1,3.4c-1.1,1.2-1.9,2.7-3,4.3c0.9,0.3,2.2,0.4,2.4,0.8c2.3,6.6,3.6,2,5.5-0.3
		c1.2-1.3,3.1-1.9,4.7-2.9l1.2,1.1c-2.1,3.6-4.2,7.3-6.3,10.9c0.7,0.4,0.4,0.3,1.1,0.7c2.5-3.6,5-7.2,7.5-10.7
		c0.5,0.3,0.4,0.2,0.9,0.5c-1,2.3-2,4.6-3.1,7.1c0.5,0.3,1.4,0.7,2.6,1.3c-1.5,1.9-2.9,3.6-3.9,4.9c1.3,1,3.4,2.5,3.3,2.7
		c-2.5,4.8,2.5,6.3,3.8,10.5c1.2-1.9,1.9-3.1,2.6-4.2c0.7-1,1.4-2,2.7-3.9h-5.8c0.1-2.4,0.9-4.2,4.3-3.8c1.1,0.1,2.1-0.1,3.2-0.1
		c1.2,0,2.4,0.1,3.6,0.4c0.2,0,0.3,1.4,0.3,1.4c-1.1,0.3-2.3,0.6-3.4,0.8c-2.2,4.2-4.5,8.6-6.7,12.8c-2.1-1.1-3.6-1.8-5-2.6
		c0,0,0,0,0,0c-1-1.2-2.1-2.4-3.4-3.9c-0.6,0.4-1.5,1-2.7,1.8c1.3,1.1,2.3,2,3.3,2.8c-0.1,0.3-0.2,0.7-0.3,1
		c-2.6-0.6-5.1-1.2-7.8-1.7c0.5-1.1,1-2,1.5-3.1C171.9,494.6,170.6,494.5,168.7,494.4z M174.4,262.9c-0.3-1.1-0.5-1.9-0.9-3.2
		c-0.6,0.9-1,1.5-1.8,2.7c0.8-5,1.5-9.3,2.1-13.3C176.7,252.6,177.5,260.3,174.4,262.9z M174.7,508.8c0.3-4.4,3.6-7.2,7.1-6.7
		c0.3-1.4,0.6-2.7,1-4.1c2.6,6.3,2.6,6.3,7.3,7.5c-2.5,1.5-1.1,5.1-4.5,6c-2.9,0.8-5.7,2.1-9.1,3.3c0.6-1.5,0.9-2.6,1.1-3
		C176.3,510.6,174.6,509.6,174.7,508.8z M181,585.6c-0.4,0-0.8-0.1-1.2-0.1c0.3-3.3,0.6-6.7,1-10.7
		C185.5,579.2,180.7,582.1,181,585.6z M201.7,621.1c1.2-1.8,1.8-2.6,2.4-3.5c-0.3-0.5-0.7-0.9-1-1.4c2.4-0.6,4.9-1.1,7.4-1.8
		C210,620.2,205.7,619.4,201.7,621.1z M234.9,633.9c1.3,0.1,2.6,0.3,3.9,0.4c0,0.3,0.1,0.7,0.1,1c-3.1,0.5-6.2,1-9.7,1.6
		c7.1-9,7.1-9,12.5-5.8c-2.6,0.7-4.7,1.3-6.8,1.9C234.9,633.3,234.9,633.6,234.9,633.9z M232.2,628.3c0.3-1.1,0.5-2.3,0.7-2.9
		c4-0.2,7.6-0.3,11.2-0.5l0.3,1C240.5,626.6,236.5,627.4,232.2,628.3z M242.3,578.5c-0.7-0.7-1.4-1.4-2.2-2.1c1.7-0.3,3.5-0.7,5.2-1
		C244.3,576.4,243.3,577.5,242.3,578.5z M265.1,636.8c2.6-1.1,5.2-2.1,7.9-3c0.9-0.3,2-0.1,2.9-0.2c0.2,0.4,0.3,0.8,0.5,1.3
		c-4.3,2.7-8.5,5.3-13.3,8.3c-1-1.2-2-2.5-2.9-3.8C261.8,638.5,263.4,637.6,265.1,636.8z M262.8,647.1c3.2-1.1,6.4-2.1,9.9-3.1
		c0.2,4.4,0.2,4.4-12.7,11.9C257.1,651.4,258.4,648.6,262.8,647.1z M261.4,664c0.9-0.5,2.4-1.3,3.8-2.1l-1.7-2.2
		c-1.8,1.1-3.6,2.1-5.3,3.2c-0.4-0.5-0.2-0.3-0.6-0.8c3.1-2.8,6.1-5.6,10-9.2c0.5,3.2,0.3,5,1,6.2c0.6,1-0.2,4.1,2.9,2.7
		c0.2-0.1,1.2,1.7,1.6,2.3H261.4z M271.9,653.9c3.3,0.4,5.6,0.7,8.2,1C276.7,659.7,275.3,659.6,271.9,653.9z M306,639.9
		c-2,2.9-4,5.7-6.4,9.1c-0.2-1.4-0.3-2.1-0.4-3c-1.3,0.9-2.5,1.7-4.3,2.9C296.3,642.3,301.7,641.8,306,639.9z M292.4,660.1
		c2.9-5.2,6.2-10.2,13.7-9.8c0.1,1.3,0.3,2.7,0.4,4C301.4,655.6,299.3,663.1,292.4,660.1z M303.9,670.2c-1.3,1.2-2.3,2.7-4.1,3.7
		c0.6-1.3,1.3-2.7,2.4-5.1c-1.7,1.1-2.6,1.6-4.2,2.6c1.3-5.2,5.5-6.5,9.1-8.8c0.3,1.6,0.5,2.9,0.7,4.4
		C306.6,667.9,305.2,669,303.9,670.2z M348.1,652.7c-0.3,7.1-1.7,8.2-11.5,8.6c2.4-3.9,4.3-7.1,6.4-10.5
		C345,652.3,345.2,656.9,348.1,652.7z M344,648.5c-2.9,1.6-5.8,3.1-9,4.8C334.5,646.9,337.7,644.8,344,648.5z M343.8,674.2
		c-1.8,0.5-5,1.5-9,2.7c1.5-7.4,7.3-10.5,12.2-15.7c1.6,1.9,3,3.5,3.9,4.5C348.4,668.6,346.5,670.9,343.8,674.2z M372,640.1
		c2.4,0.8,4.5,1.4,7.9,2.5c-3.1,1.5-5.7,2.8-9.1,4.5C371.2,644.4,371.6,642.3,372,640.1z M365.2,649.2c1.8,3,3.5,6,5.3,8.9
		c-0.5,0.3-1,0.6-1.5,0.9c-1.8-3-3.6-5.9-5.4-8.9C364.1,649.8,364.6,649.5,365.2,649.2z M388,681c-3.1-0.2-5.3-0.3-8.7-0.5
		c1.2-3.8,2.4-7.3,3.5-10.9c-1.8-0.2-3.5-0.7-5.3-0.7c-1.2,0-2.3,0.6-4.5,1.3c-1.3-1.4-3.6-3.9-6-6.4c0.1-0.2,0.3-0.4,0.4-0.6
		c1.3,0.9,2.5,2.4,3.9,2.5c1.5,0.2,3.9-0.3,4.5-1.4c0.7-1.2,0.4-3.9-0.5-4.9c-3.1-3.3-3-8.8,0.9-11.3c1-0.7,3.2,0.2,4.7,0.5
		c0.9,0.2,1.8,0.7,3.3,1.4c0.9,3.3-7.1,5.5-2.1,10.1c0.2-0.3,1-1.1,1.6-1.9c0.9,1,1.9,2,3.5,3.5c-1.1,2-2.6,4.6-4.1,7.2
		c1.4-0.1,2.9-0.2,4.3-0.3c0.1,2.5,0.2,5,0.4,7.8c0.1,0,1-0.2,2.6-0.4C389.4,678.4,388.4,680.3,388,681z M566.1,541.3
		c0.4,0,0.9,0.1,1.3,0.1c1.2,2.8,2.4,5.7,4,9.5c-1.5-0.5-3.3-0.6-3.8-1.4C565.9,547,565.7,544.2,566.1,541.3z M539.5,518
		c2.2,1.4,4.1,3.4,6.8,5.8c0.3-2.1,0.5-3.2,0.5-3.3c4.9,10.1,10.2,20.9,15.4,31.6c-0.2,0.3-0.4,0.5-0.5,0.8
		c-1.4-1.9-2.9-3.8-4.2-5.8c-3.4-5.4-7-10.7-10-16.3c-3.6-6.6-9.4-10.7-14.8-15.8C535,516,537.4,516.7,539.5,518z M528.5,519.3
		c-4.4-1.6-7.6-2.7-10.7-3.8l0.5-2.3c2.9,0.5,5.9,0.7,8.7,1.5C527.6,514.9,527.7,516.8,528.5,519.3z M503.7,570.2
		c-5.1,0.2-10.3,4.7-15-0.8C492.5,565.9,500.1,566.2,503.7,570.2z M489,586.9c-0.5-0.8,0.5-2.7,0.8-4c0.6-0.2,1.3-0.5,1.9-0.7
		c2.8,3.3,5.8,6.5,8.4,10c0.5,0.7,0.2,3.1-0.3,3.3c-1.1,0.5-3.1,0.5-3.8-0.2C493.4,592.7,491,589.9,489,586.9z M495.3,601.7
		c-4.8-1.7-9.5-3.4-14.7-5.3C484.8,593,487.8,594,495.3,601.7z M483.6,589c-1.6-1.9-3-3.5-4.8-5.6c1,0.1,1.6-0.1,1.9,0.2
		c1.8,1.8,5.4,4.2,5,5.4c-0.9,2.7-3.5,4.7-7.3,4.1c-3-0.4-6.1,0.3-9.5,0.6c-0.6-1.5-1.2-3.1-1.9-4.7H483.6z M434.5,618.1l1.3-0.2
		c0.3,2.5,0.7,5,1,7.7C427.3,624.1,435.6,620.6,434.5,618.1z M423.1,622.9c3,1.2,5.9,2.4,8.9,3.6c-0.3,0.6-0.6,1.3-0.8,1.9
		c-2.9-1.3-5.7-2.7-8.6-4C422.7,623.9,422.9,623.4,423.1,622.9z M423.9,649.6c-0.2,1.5-0.6,3.9-1,6.3c0,0,0,0,0,0
		c-0.9,1-1.7,2-2.7,3c-1.6-0.4-3.4-0.9-5.9-1.5c0.9-3.1,1.8-6.2,2.6-8.8C419.2,648.9,421.1,649.2,423.9,649.6z M411,637.4
		c0.6-0.1,1.2-0.2,1.7-0.4c1.1,1.5,2.1,3,3.3,4.6c0.1,0,0.8-0.4,1.6-0.8c0.3,0.3,0.6,0.5,0.9,0.8c-2.5,3.3-5,6.6-7.5,10
		c-0.8-0.4-1.6-0.7-2.5-1.1C409.4,646.2,410.2,641.8,411,637.4z M397,638.9c3,2.3,6.1,4.7,9.1,7c-0.2,0.3-0.4,0.6-0.7,0.9
		c-3.1-2.2-6.2-4.5-9.4-6.7C396.3,639.8,396.6,639.4,397,638.9z M399.5,652.6c1.7,0.4,2.8,0.6,3.8,0.9c0.2-0.3,0.5-0.6,0.7-0.9
		c-3.1-2.6-6.2-5.2-9.3-7.9c0.3-0.3,0.7-0.7,1-1c3.3,2.5,8.2,2.8,9.5,8.3c0.5,2.1,4,3.5,6.7,5.7c-1,1.3-2.1,3.9-3.1,3.8
		c-1.7-0.1-3.5-1.6-4.9-3C402.4,657,401.3,655,399.5,652.6z M416.4,669.5c-2.1-0.5-4.2-1.2-6.3-1.9c0.2,1.1,0.4,2.5,0.5,3.8
		c-0.2,0.1-0.5,0.2-0.7,0.3c-1.3-2.4-2.6-4.7-4.3-7.8c4.3,1.5,7.5,2.6,11.3,3.9C417,667.9,416.5,669.6,416.4,669.5z M419.6,670.3
		c-1.5-5.6,3-9.6,3.5-14.4C428.6,661.5,427.5,666.8,419.6,670.3z M435.7,637.6c-1.8-1.3-3.2-3.1-4.8-4.7c0.4-0.7,0.4-0.7,0.7-1.5
		c2.4,0.4,4.7,0.7,7.3,1.1c0.8-1.6,1.4-3.6,2.6-5.1c0.8-1.1,2.4-1.7,3.5-2.5c1,2.5,2.1,5.1,3.2,8.1h-6.8c0.1,1.2,0.2,2.6,0.3,4.7
		c-1.1-0.9-1.8-1.5-2.2-1.8C438,636.6,436.2,638,435.7,637.6z M437.3,641.6c0.4-0.5,0.8-1.1,1.2-1.6c2.7,2,5.3,3.9,8,5.9
		c-0.5,0.6-1.1,1.2-1.8,1.9c2.7,1.9,5.2,3.7,7.7,5.5C445.3,651.9,441.6,646.5,437.3,641.6z M453.7,643.5c-5.3-2.8-5.3-2.8-2.5-10.3
		C456,634.5,456.2,635.3,453.7,643.5z M462.2,653.1c-1.7-0.1-3-0.1-4.4-0.2c1.3-3,2.8-6.3,4.2-9.5
		C464.3,645.1,464.3,645.3,462.2,653.1z M476,634.1c6.8-1.5,11.5,1.4,15,8.3C486,639.7,481,636.9,476,634.1z M491.9,634
		c-0.5-2.6-1.6-5.2-2.9-9c-1.6,2.5-2.5,4-4.3,6.8c-0.8-2.7-1.2-4.5-1.9-6.3c-0.5-1.2-1.1-2.9-2-3.1c-2.4-0.6-5-0.5-8.2-0.7
		c1.2,2.4,2.3,4.4,3.3,6.4c-0.5,0.5-0.5,0.5-1,0.9c-6.1-3.6-12.2-7.2-18.3-10.8c0.1-0.6,0.1-0.6,0.2-1.2c1.5-0.4,3-0.8,5.6-1.4
		c-5.7-1.4-10.3-2.5-15-3.7c0.1-0.6,0-0.4,0.1-1h10.1c0.2-0.5,0.2-0.5,0.3-1c-1.2-0.8-2.3-1.6-3.3-2.2c2-0.1,4.3-0.3,7.4-0.5
		c-1.6-2.8-2.6-4.7-3.5-6.3c2.7,0.3,5.1,0.6,8.1,0.9c-1.1,3.2-2.6,6.9-3.4,10.7c-0.3,1.2,0.8,3.2,1.8,4.1c1.4,1.2,3.5,1.8,6.1,3.1
		c-0.4-6.1-0.7-11.4-1.1-16.8c0.4-0.1,0.3-0.1,0.7-0.2c1.3,2.4,2.6,4.8,4,7.4c0.6-0.9,1-1.5,1.9-2.8c0.6,1.7,1,3,1.5,4.2
		c0.9,2.2,1,4.7,4.9,3.9c1.2-0.3,3,2.9,4.7,4.3c1.1,1,2.4,1.6,3.6,2.5c0.4,0.3,0.6,1,0.8,1.5c1.8,4.5,3.5,8.9,5.4,13.8
		C494.1,638.9,492.6,637.4,491.9,634z M504,609.7c-4.2-1.6-8.4-3.3-12.9-5.1c5.3-2.5,7.8-1.9,11.2,1.9c0.9,1.1,2.5,1.6,3.8,2.3
		C505.4,609.2,504.6,609.9,504,609.7z M512.4,603.5c-2.1,1.6-1.7,6.3-5.8,5.2c0.7-1.3,1.3-2.5,2.1-3.9c-1.7-2.8-3.4-5.6-5.1-8.4
		c0.3-0.2,0.6-0.4,0.9-0.6c0.7,1.1,1.4,2.2,2.2,3.2c0.9,1.2,1.9,2.3,3.5,4.1c0.1-1.8,0.2-2.8,0.3-3.7c0.4-0.1,0.7-0.1,1.1-0.2
		C511.8,600.7,512.9,603.1,512.4,603.5z M521.6,495.2c0.7,0.2,0.9,1.7,1.4,2.6c-0.9,0-2,0.4-2.7,0c-1.9-1-3.7-2.3-6.8-4.3
		C517,494.2,519.4,494.5,521.6,495.2z M523.4,609.8c-1.1-0.8-2.2-1.7-3.8-2.9c-0.2,1.6-0.3,2.4-0.4,3.2c-0.3,0.1-0.6,0.1-0.9,0.2
		c-1.2-2.6-2.3-5.2-3.5-7.7c0.5-0.4,1-0.7,1.5-1.1c2.6,2.4,5.3,4.9,7.9,7.3L523.4,609.8z M536.2,631h-8.2c0-0.7,0.1-1.5,0.1-2.2
		c2.7,0.2,5.5,0.3,8.2,0.5C536.2,630.4,536.2,629.9,536.2,631z M544.9,629.3c-2-2.2-5-4.1-5.9-6.7c-1.4-4.1-4.1-5.2-7.7-6
		c-2.5-0.5-5.1-1.2-4.4-5.3c1.8,0.9,3.2,1.5,4.6,2.2c0.3-0.2,0.5-0.4,0.8-0.6c-0.7-1.4-1.4-2.9-2.2-4.3c-0.4-0.3-0.8-0.6-1.1-0.8
		c-0.2,1.1-0.3,2.1-0.5,3.2c-0.4-0.3-0.8-0.6-1.2-0.8c-0.4-1.4-0.8-2.8-1.2-4.2c0.3-0.4,0.5-0.7,0.8-1.1c4.6,2.9,10.1,5.1,13.4,9.1
		c3.1,3.7,3.9,9.4,5.7,14.2C545.7,628.5,545.3,628.9,544.9,629.3z M548,591.8c-1.2-0.8-2.3-2-3.6-2.3c-4.9-1.4-5.9-6.8-9.7-9.2
		c-1.3-0.9-2.7-1.5-4.8-2.6c0.3-0.9,0.8-2.5,1.7-5.4c6.1,5.8,11.6,11,16.9,16.2C549.4,589.3,551.8,591.3,548,591.8
		C548,591.8,548,591.8,548,591.8z M556.7,612.8c-2.7-1.9-5.2-3.7-8.2-5.8c2-0.4,3.4-0.8,5.4-1.2c-2.4-4.3-4.6-8.2-6.7-12.2
		c-0.2-0.3,0.5-1.2,0.9-1.8C554.6,598.5,558.1,606.6,556.7,612.8z M570.1,590.3c-1-2-2.1-4-3.1-6c-0.5,0.3-1,0.7-1.6,1
		c0.1,2.2,0.3,4.3,0.4,6.5c-3.8-3.9-2.5-12-10.6-12.6c0.7-0.2,1.4-0.3,2.1-0.5c0.3-0.3,0.5-0.5,0.8-0.8l-3.1-0.9
		c0.2-0.3,0.5-0.6,0.7-0.9h3.2v-5.7c-5.6,1.5-8.1-3.2-10.3-6.3c-3-4.3-5.2-9-10.4-11.2c-0.7-0.3-1-1.5-1.6-2.4
		c-0.4,0.6-0.8,1.2-1.5,2.3c-3.6-4.9-7-9.6-10.4-14.3c0.2-0.3,0.4-0.6,0.6-1c7.1,5,14.1,9.9,21.5,15.1c0.4-2.2,0.6-3.9,0.9-5.6
		c-0.6,10,6,16.4,11.2,23.5c0.9,3.1,1.6,6.3,2.8,9.3c0.4,1,1.9,1.6,2.9,2.5c1.4,1.2,2.7,2.4,4,3.6c0.9,1,1.9,2.1,2.8,3.1
		C571.1,589.3,570.6,589.8,570.1,590.3z M572.7,583.3c-1.1,0.9-2.6,1.4-3.9,2.1c-0.1-4.3,0.1-8.6-2.6-12.6c-1-1.5,0.1-4.5,0.3-6.9
		c4.6,1.3,4.8,5.6,5.5,9.1C572.5,577.7,576.1,580.5,572.7,583.3z"/>
	<path d="M324.3,388.3c-7.6-5.6-7.9-11.2-1-17.7c0.7,1.5,1.4,2.9,2,4.4c0.2-0.1,0.5-0.1,0.7-0.2c-0.2-2-0.3-4-0.7-5.9
		c-0.4-2.1-0.9-4.1-1.4-6.1c4.6,0.2,4.9,1.6,4.6,5.9c-0.3,4.2,1,8.7,2.1,12.9c1.3,5,0.8,5.7-4.6,5.5c-0.3,0.3-0.6,0.5-0.8,0.8
		c-0.1,0.2-0.3,0.4-0.6,0.6C324.4,388.4,324.3,388.3,324.3,388.3z"/>
	<path d="M459.2,371.7c1.3-1.3,2.7-2.5,4-3.8l-0.1-0.1c1,1.2,1.9,2.5,3,3.5c2.6,2.3,2.4,5.5-1.4,7.7c1.8,0.4,3,0.7,4.4,1v6.2
		c-0.6,0.2-0.5,0.2-1.1,0.3c-1-1.6-2.1-3.3-3.2-5.1c-0.7,1.7-1.4,3.4-2.1,5c-1.2-2.7-2.3-4.9-3.4-7.3c0.9,0,2.5-0.1,4-0.2
		c0.1-0.3,0.2-0.6,0.4-0.9c-2.2-1-4.3-1.9-6.5-2.9c0.5-0.8,1.4-2.2,2.3-3.6C459.3,371.5,459.2,371.7,459.2,371.7z"/>
	<path d="M366.8,479.3c-2.2-2.1-4.3-4.2-6.6-6.2c-3.7-3.2-4.7-7.6-2.6-12.8c1.7,3.6,3,7.2,5,10.3c1.9,3,4.5,5.5,7.1,8.5
		c-1.1-0.1-2-0.1-3-0.2C366.8,479,366.9,479.2,366.8,479.3z"/>
	<path d="M368.6,514.2c4.1,1.2,7.9,5.9,8,8.2c2.6,3.8,4.5,6.4,6.3,9.1c-6.9-2.8-9.9-9-13.5-14.6C369.1,516,368.9,515.1,368.6,514.2z
		"/>
	<path d="M388.7,502.5c3.7,2.3,3.5,8.1,5.8,9.5c4,2.6,0.7,6.1,2.6,8.8c-1-0.7-2.8-1.5-2.8-2.1c0.8-5.9-4.9-9-5.7-14.1
		c-0.1-0.7,0.2-1.5,0.2-2.2C388.8,502.5,388.7,502.5,388.7,502.5z"/>
	<path d="M429.1,492.4c0.5-0.8,1.1-1.7,2.3-3.5c1.4,6,2.6,11,3.7,15.7c-4-1.7-5.6-5-5.8-12.4C429.2,492.2,429.1,492.4,429.1,492.4z"
		/>
	<path d="M182.1,288.4c0.7,2.1,1.3,4.2,2,6.2c-1.4,1.4-2.9,2.9-4.3,4.3c-0.5-0.3-0.9-0.7-1.4-1c0.6-2.9,1.2-5.9,2-8.8
		c0.1-0.3,1.1-0.3,1.7-0.4C182.2,288.7,182.1,288.4,182.1,288.4z"/>
	<path d="M267.1,548.1c0.3,2.4,0.5,4.9,0.7,6.8c-3,1-5.1,1.8-7.9,2.8c1-1.3,2.3-2.7,3.4-4.1c1.4-1.8,2.7-3.6,4-5.4
		C267.3,548.1,267.1,548.1,267.1,548.1z"/>
	<path d="M208.1,551c1.7-2.1,3.3-4.2,5.5-7c0.7,2,1.4,3.7,1.2,3.7C212.7,549,210.4,550,208.1,551C208.1,551,208.1,551,208.1,551z"/>
	<path d="M407.1,366.6c-2.5,8.2-9.2,14.1-16.8,15.2c0.9,0.4,1.8,0.9,2.9,1.4c-3.7,3.1-5.9,0.8-8.7-2.1c1.7,0.3,2.5,0.5,3.3,0.7
		c-0.7-5-4.3-5.3-8.2-5.1c-1.2,0.1-2.6,0.5-3.6,0c-3.7-1.5-7.3-3.3-11.8-5.3c0.7-0.3,2-1,3.5-1.8c-1.1-1.5-1.8-2.5-2.8-3.7
		c3.5,0.1,5.5,7.1,9.2,3.1c9,0,17.6,0,27.2,0c-2.2,2-3.5,3.1-5.3,4.7c5.5-1,7.3-3.4,6.1-8.7C404,365.7,405.6,366.1,407.1,366.6z"/>
	<path d="M248.4,273.8c6-1.2,12.1-2.3,18.1-3.6c1.4-0.3,2.8-1.7,4.1-1.5c4.6,0.6,9.5,1,13.8,2.6c10.3,3.9,21,2.4,31.5,2.5
		c8,0.1,16,0,24.1,0.8c-2.4,0.5-4.8,1-7.2,1.6c-13.4,3.3-26.6,0.9-39.8-1.4c-2.2-0.4-4.7,0.2-7,0.4c-0.6,0-1.3,0.3-1.6,0.1
		c-6.6-5-13.6-1-20.4-1c-2.1,0-4.2,0-6.2,0.3c-3.4,0.7-6.8,1.7-10.2,2.5c-1.5,0.3-3.1,0.3-4.7,0.4c-0.1-0.6-0.2-1.2-0.3-1.7
		c2.4-0.4,4.8-0.9,7.6-1.4C249.5,274.1,249,273.9,248.4,273.8C248.5,273.7,248.4,273.8,248.4,273.8z"/>
	<path d="M276.5,252.9c2.2,0.5,4.5,0.6,6.5,1.5c9.9,4.4,20.4,3.9,30.9,3.8c4.8,0,9.7,0.1,14.5-0.6c8.9-1.2,17.7-3,26.6-4.4
		c5.9-0.9,11.9-1.7,17.9-2.4c1.4-0.2,2.9,0.1,4.3,0.2c0.1,0.4,0.1,0.9,0.2,1.3c-1.5,0.3-2.9,0.9-4.4,1c-15.3,0.8-30.2,4.3-45.2,7.3
		c-17.2,3.4-34-0.3-50.4-5.4c-0.5-0.2-0.9-0.7-1.3-1.1C276.2,253.7,276.4,253.3,276.5,252.9z"/>
	<path d="M373.9,281.7c2.7,0.6,5.4,1.3,8.1,1.9c-0.1,0.5-0.1,1-0.2,1.4c0.9-0.7,1.9-1.4,3.6-2.8c-0.6,2-1,3.1-1.3,4.3
		c1.6-0.3,3.2-0.6,4.9-1c-0.2-0.9-0.3-2-0.6-3.6c1.2,0.5,2.2,0.6,3,1.1c1.4,0.9,2.7,2,4,2.9c2.7,1.8,4.2,1.3,4.6-2.2
		c0.1-1,1.4-1.9,2.6-3.5c1.5,4.5,2.7,8,3.8,11.3c-4.1,0.9-7.7,1.6-11.6,2.4v4.6c-2.6-3.5-4.2-7.5-6.9-8.7c-3.1-1.4-7.3-0.3-12.1-0.3
		c1.7-1.2,2.6-1.8,3.5-2.5l-6.1-4.1C373.7,282.3,373.6,282.5,373.9,281.7z"/>
	<path d="M207.6,511.9c2.9,0.2,5.4-0.1,5.1-3.9c1.5,0.6,2.9,1.4,4.4,1.9c1,0.3,2.2,0.2,3.3,0.1c2.1-0.2,4.2-0.5,6.3-0.8
		c-1.4,1.5-2.9,3-4.3,4.6c-0.9,1-1.6,2.3-2.4,3.4c0.4,0.4,0.8,0.7,1.2,1.1c1.7-1.2,3.4-2.4,5.5-3.9c-1.7,5-6.5,8-11.4,7.5
		c0.6-0.8,1.2-1.4,2.4-3c-1.9,0.9-3,1.4-4,1.8c-2,0.7-4,1.4-6,2c-0.4-0.1-0.7-0.2-1.1-0.3c0.1-1.8-0.4-4.2,0.5-5.3
		c0.9-1.1,3.4-0.8,5.6-1.2C211.1,514.6,209.4,513.3,207.6,511.9z"/>
	<path d="M277.3,309c-0.8-2.5-1.4-5-4.8-5.5c-4.9-0.8-7.2-3.7-5.5-10.1c1.9,1.5,3.4,2.9,5.1,4.1c1,0.8,2.2,1.3,3.7,2.2
		c-1.8,5,9.7,2.8,6.9,9.2c-2,0-3.7,0-5.5,0C277.2,308.9,277.3,309,277.3,309z"/>
	<path d="M372.9,266.4c5-1.4,10-2.7,14-3.8c4.8,1.9,8.9,3.6,13.4,5.4h-27.2C373,267,373,267.3,372.9,266.4z"/>
	<path d="M232.3,539.3c-1.2,3.4-2.1,7.4-7.5,7.9c2.5-4.3,4.5-8.3,7.1-11.9c1.3-1.9,5.9-0.1,6,2.2c0,0.8-0.8,2.3-1.5,2.5
		C235.3,540.3,234,539.6,232.3,539.3z"/>
	<path d="M206.7,522.3c0.4,0.1,0.7,0.2,1.1,0.3c0.8,2.1,1.7,4.2,2.9,7.4c-2.2-0.9-3-1.2-4.2-1.6c6.5,6.2,3.1,7.9-3.6,8.4
		c1.3-4,2.4-7.6,3.6-11.2c-1.3-1.1-2.6-2.2-3.9-3.3c0.1-0.3,0.3-0.5,0.4-0.8C204.3,521.8,205.5,522.1,206.7,522.3z"/>
	<path d="M430.1,472.1c1.1-0.4,2.2-0.8,3.5-1.4c1.7,2.8,3.5,5.7,5.9,9.6c-0.2-2.3-0.3-3.4-0.4-4.6c5.2,0.8,2.2,5.5,4.6,8.4
		c-6.6-2.5-11.5-5.8-13.6-12.2C430.2,472,430.1,472.1,430.1,472.1z"/>
	<path d="M407.4,219.8c-0.2-3.8-0.3-6.4-0.5-9.3c-1-1.4-2.3-3.3-4.3-6.2c1.5,0.2,3.2-0.1,4,0.6C412.5,210.5,413.1,214.8,407.4,219.8
		z"/>
	<path d="M366.7,284.4c-10.6,1.9-22.5,4-34.8,6.1C343.3,283,356.2,285.9,366.7,284.4z"/>
	<path d="M328.7,300.9c-0.5,1.1-0.7,1.7-1.1,2.6c1.1-0.3,2-0.5,2.6-0.6c0.2,2,0.5,3.7,0.8,6.6c-4.4-1.2-8.7-2.4-13.1-3.6
		C321.4,304.3,324.7,302.8,328.7,300.9z"/>
	<path d="M236.3,517.7c-3.3,2.7-6.5,5.6-9.8,8.2c-2.3,1.9-4.8,3.5-8,5.8c1.6-2.9,2.3-6.4,4.4-8c3.8-2.9,8.4-4.7,12.6-6.9
		C235.8,517.1,236,517.4,236.3,517.7z"/>
	<path d="M429.4,545.9c-3.6,3.2-3.6,4-0.6,7.2c-0.3,0.3-0.6,0.6-0.9,0.9c-2.4-2.5-4.8-5-7.7-8.1c0.7-0.7,2-2.9,3-2.8
		C425.2,543.3,427.1,544.8,429.4,545.9z"/>
	<path d="M414.2,507c-2.6-5-5.2-10-7.8-15C411.3,493.4,416,502.6,414.2,507z"/>
	<path d="M463.6,367.9c-1.1-1.6-2.1-3.2-2.8-4.1c3.3-2.1,6.3-4.1,10.4-6.7c-1.5,2.7-2.5,4.5-3.9,6.9c0.6,0.3,1.7,1,2.9,1.6
		c-0.2,0.4-0.3,0.7-0.5,1.1c-2.1,0.3-4.2,0.7-6.3,1C463.5,367.8,463.6,367.9,463.6,367.9z"/>
	<path d="M444.1,293.6c-3.4-0.3-7.5-4.2-9.8,2.4c-1.3-2.1,1.7-6.2-4.4-4.2c0.5-0.6,0.9-1.2,1.4-1.9l8.5,0c0.2-0.5,0.2-0.5,0.4-1.1
		c-0.6-0.5-1.3-1-1.9-1.5c0.3-0.2,0.7-0.6,0.7-0.5c1.9,1.8,3.8,3.7,5.8,5.5C444.4,293,444.4,293,444.1,293.6z"/>
	<path d="M273.7,254h-20.7c0-0.4,0-0.9,0-2h20.7C273.6,253.1,273.7,254,273.7,254z"/>
	<path d="M265,588.5c0-4,0-7.9,0-11.9c8.6,3.1,0.7,8.2,3.7,12c-1.9-0.1-2.9-0.2-3.8-0.2C264.9,588.4,265,588.5,265,588.5z"/>
	<path d="M424,558.7c-2.9-2-6.2-3.7-8.5-6.3c-1.5-1.6-1.5-4.5-2.1-6.8c-0.1-0.2,1.1-1.1,1.3-1c0.9,0.5,2.3,1.3,2.2,1.9
		c-0.8,5.6,2.5,8,7,9.8c0.4,0.2,0.6,1,0.9,1.5C424.6,558,424.3,558.3,424,558.7z"/>
	<path d="M486.5,315.2c-7-3-1.3-8.6-2.7-12.9C488.2,305.9,484.3,311.2,486.5,315.2z"/>
	<path d="M425.9,519.6c-3.7-3.7-7.5-7.4-11.4-11.3C418.8,508.3,423.7,513.3,425.9,519.6z"/>
	<path d="M424.7,533.1c1.4,1.8,2.7,3.6,4.6,6.1c-1.8,0.4-4.5,1.5-4.7,1c-1.1-1.7-1.4-3.9-1.9-5.9C423.3,533.9,424,533.5,424.7,533.1
		z"/>
	<path d="M447.1,508.2c-5.3,0.5-9.1-3.6-7.5-8.4C442.1,502.7,444.7,505.5,447.1,508.2z"/>
	<path d="M417.2,538.1c-1.6-3.4-3.2-6.9-4.8-10.3c3.9,1,3.9,1,5.8,9.8C417.9,537.7,417.6,537.9,417.2,538.1z"/>
	<path d="M441,281h-5.4c-0.6-2.2-1.2-4.6-1.8-7.1c0.7-0.4,0.6-0.3,1.3-0.6C436.9,275.6,438.8,278,441,281z"/>
	<path d="M252.1,547.8c-2,1.8-4,3.6-6,5.5c-0.4-0.3-0.7-0.6-1.1-0.9c1.5-2.6,3-5.1,4.9-8.4c0.7,1.3,1.4,2.6,2.2,4
		C252.1,548,252.1,547.8,252.1,547.8z"/>
	<path d="M227.1,560.9c-0.4-1.9-0.8-3.8-1.2-6c0.9-0.5,1.9-1.1,2.8-1.6c2.5,3.3,4.1,6.4-1.7,7.5L227.1,560.9z"/>
	<path d="M339.9,471.3c-1-2.8-2-5.5-3.2-8.5c1.7,0.2,2.9,0.3,4.6,0.4C344,466,340.8,468.6,339.9,471.3
		C339.8,471.4,339.9,471.3,339.9,471.3z"/>
	<path d="M438.4,484.4c2.1,3.2,3.7,5.7,5.6,8.6c-2.5-0.8-4.6-1.4-6.9-2.2C437.4,489.1,437.8,487.3,438.4,484.4z"/>
	<path d="M399.3,253.6c-3.4-2.5-6.2-4.5-8.8-6.4C395.1,245.6,396.3,246.3,399.3,253.6z"/>
	<path d="M348.6,465.1c1.9,2.7,3.9,5.3,5.8,8c-0.5,0.4-1,0.7-1.5,1.1c-2-2.6-4.1-5.2-6.1-7.8C347.4,465.9,348,465.5,348.6,465.1z"/>
	<path d="M321.3,540.7c1.5,2.1,3,4.1,4.6,6.2c-0.4,0.4-0.9,0.7-1.3,1.1c-1.6-1.6-3.3-3.1-4.7-4.8c-0.2-0.2,1-1.5,1.6-2.3
		C321.4,540.8,321.3,540.7,321.3,540.7z"/>
	<path d="M389.8,250.4c-3.5,1.2-6.1,2.2-8.8,3.1C381,249.9,383.5,248.9,389.8,250.4z"/>
	<path d="M227,560.8c-3.1,0.2-6.2,0.3-10,0.5c2.7-1.7,4.9-3.2,6.9-4.5c1.4,1.7,2.3,2.9,3.2,4C227.1,560.9,227,560.8,227,560.8z"/>
	<path d="M161.3,198c3.2-4.9,9.1-6.4,13.6-4.1c-1.4,4.2-2.9,8.3-4.3,12.5c-0.3,1-0.9,2.1-0.7,3c0.5,2.2,0.6,4.4-2.3,4.2
		c-0.8,0-1.5-2.7-2.2-4c-0.9,0.2-2.5,0.5-4.2,0.8c-0.1-0.3-0.2-0.6-0.3-0.9c0.7-0.4,1.5-0.7,2.7-1.3c-1.4-0.6-2.5-1.1-3.4-1.6
		c2-0.9,4-1.8,6-2.8C164.4,196.2,164.4,196.2,161.3,198z"/>
	<path d="M172,358.7c0.3,2.3,0.8,4.7,1,7c0.6,7.4,1.2,14.9,1.5,22.3c0,1.4-1.5,2.9-2.6,4.1c-0.3,0.3-1.9-0.2-2.5-0.8
		c-0.4-0.4,0.1-1.6,0.3-2.4c0.3-0.9,1-1.8,1-2.7c0.1-9,0-18.1,0-27.1C171.2,359,171.6,358.8,172,358.7z"/>
	<path d="M170.2,458c-0.8,1.8-1.5,3.7-2.6,5.3c-0.3,0.5-1.9,0.1-2.8,0.1c0.1-1-0.2-2.3,0.4-2.8c1.2-1.2,2.8-2,4.3-3
		C169.7,457.7,169.9,457.9,170.2,458z"/>
	<path d="M265.1,364.9c-0.5,1.2-0.8,2-1.1,3c-2.5-0.9-4.8-1.7-7.1-2.6c0.2-0.6,0.3-1.3,0.5-1.9C259.8,363.9,262.4,364.3,265.1,364.9
		z"/>
	<path d="M474.5,177c-4.6,1.1-7.7,0.5-9.9-3.1c-2-3.4-4.1-6.9-6.3-10.1c-0.9-1.3-2.4-2.3-3.6-3.3c-1.2-1-2.5-2-4.1-3.2
		c7.6-1.7,7.6-1.7,11.1,9c1.3-0.9,2.6-1.7,2.9-1.9C468,168.8,471.1,172.7,474.5,177z"/>
</g>
</svg>
