<?xml version="1.0" encoding="utf-8"?>
<!-- Generator: Adobe Illustrator 21.1.0, SVG Export Plug-In . SVG Version: 6.00 Build 0)  -->
<svg version="1.1" id="Layer_1" xmlns="http://www.w3.org/2000/svg" xmlns:xlink="http://www.w3.org/1999/xlink" x="0px" y="0px"
	 viewBox="0 0 907.8 130.1" style="enable-background:new 0 0 907.8 130.1;" xml:space="preserve">
<style type="text/css">
	.st0{fill:#FFFFF0;}
</style>
<polygon class="st0" points="332,81.5 317.5,81.5 317.5,66.8 332.1,66.8 332.1,43.9 317.4,43.9 317.4,28.8 332,28.8 332,4.5 
	287.3,4.5 287.3,107.6 332,107.6 "/>
<path class="st0" d="M278,81.3h-15.3V4.5h-29.4v103.2c15,0,29.8,0,44.7-0.1V81.3z"/>
<path class="st0" d="M339.2,96.2c7.6,4.6,15,8.8,22.1,13.3c2.7,1.7,4.4,1.3,6.5-0.7c8.5-8.2,12.8-18.4,13.7-30.1
	c0.7-8.9-2.4-16.9-5.4-25.1c-5-13.4-6.9-26.6,5.7-38.1c-5.5-3.3-10.5-6.4-15.5-9.5c-10.6-6.3-12.6-5.8-19.2,4.9
	c-1.1,1.9-2.1,3.8-2.9,5.8c-5.8,14.2-4.4,28.1,2,41.6c5.8,12.3,3.8,23.6-4.1,34.2C341.2,93.6,340.3,94.8,339.2,96.2z"/>
<path class="st0" d="M415.7,35.2c3.6-4.9,3.4-16-0.5-20.5C411.5,20.8,411.9,31.6,415.7,35.2z"/>
<path class="st0" d="M544.9,89.6c2.4,7.4,7,13.2,14.1,16.8c22.1,11.3,46.1-0.5,50.3-24.8c0.6-3.2,1-6.6,1-9.9
	c0.2-21.5,0.2-43,0.2-64.5c0-1-0.3-1.9-0.5-2.7h-29.5v63.7c0,2.5,0.2,5-0.2,7.5c-0.4,2.6,0,6.2-4.1,6.3c-4.4,0.1-3.8-3.8-4.4-6.5
	c-0.3-1.5-0.1-3-0.1-4.5V4.4h-29.9c0,23.8-0.2,46.9,0.1,70.1C541.9,79.6,543.4,84.7,544.9,89.6z"/>
<path class="st0" d="M480.6,107.8c0-8.6,0-16.9,0.1-26.5c3.6,5,6.4,8.8,9.5,13c3-4.1,5.9-7.9,8.8-11.7c0.4,0.2,0.8,0.3,1.2,0.5v24.6
	h29.1V2.7c-2.9,2-5.2,2.8-6.4,4.5c-6.4,8.7-12.5,17.6-18.7,26.5c-4.6,6.5-9.2,13-14,19.9c-1.7-2.4-3.1-4.2-4.4-6.1
	c-9.4-13.4-18.8-26.7-28.1-40.1c-1.8-2.6-3.7-4.1-7-2.7v103.1H480.6z"/>
<path class="st0" d="M180.2,107.9c1.1,0,2.2-1.2,3.4-1.8c1.1-0.7,2.5-2,3.5-1.8c4.3,0.8,9.9-2.9,12.7,3.4c0.2,0.3,1.2,0.3,1.9,0.3
	h25.2c-0.1-1.1-0.2-2-0.4-2.7c-10.6-32.6-21.1-65.2-31.8-97.7c-0.5-1.4-2.5-3.4-3.4-3.2c-1.4,0.2-3.3,1.9-3.8,3.3
	C182,24.1,176.7,40.6,171.4,57c-5.5,16.8-10.9,33.5-16.6,51C163.8,108,172,108.1,180.2,107.9z M191,78.1c1.2,4.2,2,7,3,10.4h-5.8
	C189.1,85.3,189.9,82.4,191,78.1z"/>
<path class="st0" d="M438.5,0h-45v110.6h45V0z M424.7,74.2c-1.9,0.3-3.6,0.6-5.8,0.9c0,1.6-0.1,3.2-0.2,5.1c2,0.3,3.8,0.6,5.9,0.9
	v8.5c-1.7,0.2-3.5,0.4-5.8,0.7v15.4h-11.6V65.1h17.6C424.8,68.4,424.8,71.2,424.7,74.2z M428.4,36.9c-2.2,6.2-6.7,9.5-12.6,9.6
	c-6,0.2-10.8-2.8-13-8.9c-1.4-4-2-8.3-3-12.6c1.1-4.3,1.6-8.7,3-12.6c2.4-6.3,6.6-8.6,13.7-8.4c5.6,0.1,9.7,3.1,11.8,9
	C431.2,20.9,431.2,29,428.4,36.9z"/>
<path class="st0" d="M752.2,14.5C736.6,3.6,718.8,2.9,700.3,4.4V108h0c7.8,0,15.1,0.4,22.3,0c27.6-2.1,44.9-18,48.3-45
	C773.4,43.7,769.2,26.3,752.2,14.5z M741.4,61.2c-1.1,10.6-4.7,16.7-10.7,17.6V31.3C739,34.2,743,46,741.4,61.2z"/>
<path class="st0" d="M117.7,107.7h29.9V29h14.8V4.5c-20,0-39.8,0-59.7,0.1v24.8h15V107.7z"/>
<path class="st0" d="M865.5,81c0.4-0.1,0.7-0.2,1.1-0.3c3,9,6.1,18.1,9.1,27.1h32.1c-0.8-1.9-1.3-3.4-2-4.9
	c-4.7-10.5-9.3-21-14.1-31.4c-1.4-3.1-1.4-5,1.4-7.6c15.8-14.7,14.6-40.3-2.7-52.2c-16.7-11.4-35.3-10.8-54.1-7.5v103.5h29.2V81z
	 M865.9,28.9c5.9-0.1,8.9,3.1,9.1,9.7c0.2,7.2-2.7,10.9-9.1,11.1V28.9z"/>
<path class="st0" d="M825.2,81.5h-14.7V67.2h14.6V43.9h-14.5V28.8h14.5V4.4h-44.5c0,34.7,0,69-0.1,103.3h44.7V81.5z"/>
<path class="st0" d="M677.6,70.4c-0.6-1.4-0.4-4,0.5-5c21.6-22,14-51.8-15.6-60.4c-13.1-3.8-26.3-3.4-39.8-0.8h0
	c0,34.8,0,69.1-0.1,103.7H652V82.1c0.4-0.1,0.8-0.1,1.2-0.2c2.9,8.7,5.8,17.4,8.7,25.9H694c-0.8-2-1.3-3.5-2-5
	C687.2,92,682.2,81.3,677.6,70.4z M652.2,49.9v-21c5.8,0.2,8.7,3.2,9.1,9.4C661.7,45,658.8,49.1,652.2,49.9z"/>
<path class="st0" d="M40.2,4.2c1-0.5,1.9-1,2.9-1.3c1.5-0.4,3-0.8,4.5-0.9c1.5-0.2,3-0.1,4.5,0c3.6,0.2,7.1,0.8,10.1,3
	c2.5,1.7,4.4,3.9,6,6.5c1.4,2.2,2.5,4.5,3.2,6.9c0.2,0.6,0.4,1.2,0.4,1.8c-0.1,0.5-0.5,1.1-0.9,1.6c-1.1,1.4-2.6,2-4.3,2
	c-2.3,0.1-4.7,0-6.9-0.8c-1.4-0.5-2.7-1.3-3.8-2.4c-1.9-1.8-3.8-3.6-5.8-5.3c-1.1-0.9-2.4-1.4-3.9-1c-1,0.3-1.7,1-2.3,1.9
	c0.4-0.2,0.8-0.5,1.2-0.7c1.3-0.6,2.5-0.5,3.5,0.4c0.9,0.8,1.7,1.7,2.5,2.6c1.7,1.7,3.2,3.6,5,5c2.6,2,5.6,2.5,8.8,2
	c0.8-0.1,1.6-0.2,2.4-0.4c2.2-0.4,3.5-1.7,4.2-3.7c0.2,0.8-0.8,2.6-2.6,3.7c0.2,0.7,0.4,1.4,0.5,2c0.8-0.2,1.6-0.5,2.4-0.6
	c1.2-0.2,1.9,0.5,2.2,1.5c0.4,1.3,0.7,2.7,0.4,4.1c-0.2,1-0.2,2.1-0.3,3.2c-0.3,1.9-0.6,3.8-1,5.7c-1.4,5.9-3.1,11.8-5.1,17.5
	c-0.8,2.3-1.7,4.7-2.8,7c-0.8,1.6-2,3.1-3.1,4.5c-1.5,2-3.1,3.8-4.7,5.7c-0.8,1-1.7,2-2.6,3.1c4-8.3,4.8-17,4.8-25.8
	c-0.2,1.4-0.3,2.9-0.5,4.4c-0.3,2.3-0.5,4.6-0.9,6.9c-0.6,3.6-1.2,7.2-2.5,10.6c-0.6,1.7-1.4,3.4-2.1,5c-0.7,1.4-1.7,2.8-2,4.3
	c-0.4,1.5-0.2,3.2-0.3,4.7c0,0.4,0.3,0.7,0.8,0.9c0.8,0.3,1.7,0.7,2.5,1.1c0.5,0.2,0.9,0.2,1.4,0c3.3-1.6,6.6-3,10.2-3.9
	c0.1,0,0.2-0.1,0.4-0.1c1.4,0.1,2.3-0.7,3.2-1.6c2.9-2.9,5.3-6.1,6.9-9.9c1.2-2.7,2-5.5,2.5-8.4c0.4-2.5,0.7-5,0.7-7.5
	c0-1.6,0.1-3.2,0.1-4.8c0-14.1,0-28.2,0-42.3c0-0.3,0-0.5,0-1c-0.4,0-0.7,0-1,0c-1.7,0-3.3,0-5,0c-1.3,0-2.6-0.1-3.8-0.2
	c-0.2,0-0.5-0.2-0.6-0.4C69,9.5,68,8,66.7,6.8c0,0,0-0.1,0-0.2C72.8,6.7,78.9,6.8,85,6.9c0,0.2,0,0.5,0,0.8c0,17.5,0,35-0.1,52.5
	c0,2.3-0.4,4.6-0.7,6.9c-0.3,2.9-1.1,5.7-2.1,8.4c-1.3,3.4-2.9,6.6-5.3,9.5c-1.2,1.4-2.5,2.9-3.8,4.2c-0.8,0.8-1.8,1.6-2.7,2.3
	c0.4,1.1,0.8,2.3,1.6,3.4c1.1,1.4,1.5,3.1,1.7,4.9c0.2,2.2-0.2,4.3-1.2,6.2c-0.6,1.1-1.4,2.1-2.3,3.1c1-5.5-0.8-10.3-3.8-14.8
	c-0.5,0.3-1.1,0.7-1.6,1c0.4,1.6,0.8,3.1,1.1,4.7c0.2,0.9,0.2,1.8,0.1,2.7c-0.2,1.6-0.4,3.1-0.8,4.5c-0.5,1.8-2,2.9-4.1,3.1
	c0.4-0.8,0.8-1.6,1.3-2.4c0.8-1.5,1.5-3,1.7-4.7c0.1-0.6,0-1.2-0.2-1.7c-0.4-1.2-4.1-7.2-5.1-8.2c-0.7,0.4-1.3,0.9-2,1.2
	c-1,0.4-1.2,1.1-1.2,2.1c0,0.7,0,1.5,0,2.2c0,0.5-0.2,1.1-0.1,1.7c0.2,1.9-0.2,3.8,0.6,5.4c0.5,1.2,1.4,2.3,2.2,3.4
	c0.2,0.4,0.6,0.7,0.8,1.1c-0.1,0.1-0.1,0.1-0.1,0.2c-1.4-0.4-2.8-0.8-4.2-1.3c0.1,1.5,0.3,3.1,0.3,4.6c-0.1,4-0.7,7.9-2.7,11.5
	c-0.5,1-1.2,1.9-1.9,2.9c-0.9-1-1.7-1.9-2.5-2.7c-0.8,1.5-1.8,2.9-3.4,3.8c-1.7,0.9-3.3,0.7-5-0.1c0-0.7,0-1.3,0-2
	c-0.1,0-0.2-0.1-0.3-0.1c-0.2,0.6-0.4,1.2-0.7,1.8c-1-0.4-1.9-0.9-2.9-1.4c2-2.6,2.8-5.7,3.5-8.9c-0.1-0.1-0.2-0.1-0.3-0.1
	c-1.1,2.9-2.2,5.7-3.3,8.6c-0.2-0.1-0.5,0-0.7-0.1c-0.5-0.2-0.8-0.5-0.8-1.3c0.1-2.1,0-4.1,0-6.4c-0.5,0.7-1,1.3-1.4,1.8
	c2.9-4.9,5.8-9.8,7.4-15.3c-1.4,2.7-2.9,5.4-4.3,8.1c-1.5,2.8-2.9,5.7-4.3,8.5c-0.3,0.5-0.5,0.5-1,0.2c-1.4-0.8-2.3-2.2-3.2-3.5
	c-1.1-1.8-2.2-3.6-3.2-5.5c-0.2-0.4-0.2-0.7,0.1-1.1c1.9-2.9,3.6-5.9,5.4-8.9c0.1-0.1,0.1-0.1,0.1-0.1c-0.5-0.6-0.9-0.5-1.4,0
	c-1.3,1-2.9,1.4-4.5,1.8c-0.2,0.1-0.4,0.1-0.8,0.2c0.4-0.6,0.8-1,1.1-1.4c0.8-1.3,1.5-2.5,2.2-3.8c0.2-0.5,0.3-1.1,0.3-1.7
	c0.1-1.7,0-3.5,0-5.1c0-1-0.1-1.9-0.1-2.9c-0.1-0.5-0.2-0.9-0.7-1.1c-0.8-0.4-1.7-1-2.6-1.5c-0.7,1-1.4,1.9-2,2.9
	c-1,1.6-1.9,3.3-2.8,4.9c-0.6,1-0.5,2-0.2,3.1c0.7,2.2,1.7,4.2,2.9,6.2c-1.8-0.1-3.6-1.1-4.1-3c-0.4-1.4-0.7-2.9-0.9-4.4
	c-0.4-2.8,0.5-5.4,1.4-8c0.2-0.8,0.7-1.5,0.8-2.3c0.1-0.4-0.2-1-0.5-1.4c-2,2.6-3.7,5.4-4.9,8.4c-1.2,3.1-1.3,6.3-0.8,9.7
	c-1.4-1.2-2.3-2.5-2.9-3.9c-0.7-1.6-1-3.4-0.8-5.1c0.2-2,0.7-3.8,1.9-5.4c0.2-0.2,0.4-0.5,0.5-0.8c0.4-0.7,0.4-1.1-0.2-1.8
	c-2-2.1-3.6-4.4-5-6.9C3.1,77,1.9,73.6,1.2,70c-0.4-1.6-0.5-3.2-0.8-4.8C-0.2,61.1,0,57,0,53C0,38,0,22.9,0,7.8c0-0.3,0-0.6,0-1
	c5,0,9.9,0,14.9,0c-1.9,1-3.1,2.6-3.5,4.7c-2.2,0-4.4,0-6.7,0c0,0.3,0,0.6,0,0.9c0,15.6-0.1,31.2,0.1,46.7c0,4.2,0.6,8.4,1.9,12.5
	c1.1,3.7,2.8,7.1,5.2,10.1c0.1,0.1,0.1,0.2,0.2,0.4c1.3-0.5,2.6-0.1,3.8,0.3c3.2,1.1,6.5,2.4,9.6,3.6c0.2,0.1,0.4,0.2,0.5,0.1
	c1.4-0.7,2.9-1.3,4.2-1.9c-1-1.3-2.1-2.5-2.9-3.9c-1.2-2-2.2-4.1-3.4-6.2c-0.1-0.3-0.4-0.5-0.7-0.7c-2-12.6-1.9-25.1,2.3-37.5
	c-0.1,0-0.1-0.1-0.2-0.1c-0.7,1.8-1.4,3.6-1.9,5.4c-1,3.5-1.7,7.1-1.9,10.6c-0.2,3.5-0.4,7-0.1,10.5c0.2,3.6,1,7.1,1.6,10.7
	c0.1,0.4,0.1,0.6-0.4,0.7c-0.8,0.1-1.6,0.2-2.5,0.4c0.8-3.5-0.5-6.5-1.9-9.5c-1.5-3.4-3.2-6.6-4.7-9.9c-1-2.2-2.2-4.4-2.6-6.8
	c-0.4-2-0.7-4.1-0.8-6.1c-0.1-1.6-0.1-3.1,0-4.7c0.1-2,0.4-4.1,0.5-6.2c0.2-1.7,0.4-3.4,0.6-5c0.2-1.7,0.5-3.4,0.7-5.1
	c0.1-1.1,0.2-2.3,0.3-3.5c0.1-2,0.4-4,0.9-6c0.4-1.6,1.1-2.8,2.5-3.5c0.8-0.4,1.8-0.7,2.7-0.8c1.1-0.2,2.2-0.1,3.2-0.2
	c0.1,0,0.2,0,0.4-0.1c1.5-0.8,2.8-0.1,4.1,0.7c0.9,0.5,1.7,1.2,2.6,1.8c0.1-2,0.2-4,0.4-6c0.1,0,0.1,0,0.2-0.1
	C30,5.8,31.9,6.4,34,6.8c1.3,0.3,2.5,0.2,3.7-0.1c0.3-0.1,0.7-0.3,0.9-0.5c0.5-0.5,0.9-1,1.3-1.6C39.9,4.5,40.1,4.3,40.2,4.2z
	 M57.5,31.2c-1.4-1.2-2.9-2.4-4.4-3.7c0.1,0.6,0,1.1,0.1,1.4c0.5,1.6,0.9,3.1,1.5,4.6c1.1,2.9,2.4,5.9,4.4,8.4
	c0.8,1.1,1.4,2.3,1.7,3.6c0.2,0.7,0.2,1.5,0.3,2.3c3.1-6,4.1-12.6,5.3-19.3c-1.3,0.7-2.4,1.4-3.5,2c-0.5-1-0.9-1.9-1.4-2.9
	C60.2,28.8,58.9,30,57.5,31.2z M32.6,98.4c1-1.9,2-3.8,2.8-5.7c0.4-0.8,0.7-1.8,0.4-2.8c-0.3-0.7-0.7-1.4-1-2.3
	c-1.3,1-2.5,1.9-3.6,2.8c-0.4,0.3-0.6,0.6-0.7,1.1c-0.3,1.7-0.7,3.5-1,5.3C30.5,97.2,31.5,97.8,32.6,98.4z M46,78.7
	c-0.1,0-0.1,0-0.2,0c-0.1,3.1-0.2,6.2-0.3,9.3c-0.1,1.3-0.1,2.5-0.1,3.7c0,0.3,0.2,0.7,0.4,1c1.6,1.3,3.2,2.6,4.7,3.9
	c0.2,0.2,0.5,0.5,0.5,0.7c0,1.1-0.2,2.3-0.1,3.5c0.2,2.6,1.2,4.8,2.8,6.8c-0.1-0.2-0.1-0.4-0.2-0.5c-1.6-3.1-2.3-6.3-1.4-9.8
	c0.1-0.5-0.1-0.8-0.4-1.1c-1.6-1.3-3.2-2.6-4.8-4c-0.2-0.1-0.3-0.4-0.3-0.5c-0.1-2.8-0.2-5.6-0.3-8.4C46.2,81.6,46.1,80.1,46,78.7
	L46,78.7z M51.6,19.1c-0.8,0.9-1.6,1-2.3,0.4c-0.7-0.6-0.6-1.6,0.3-2.6c-0.3-0.3-0.7-0.5-1-0.8c-0.1-0.1-0.3-0.2-0.5-0.3
	c-0.7-0.4-1.7,0.2-1.6,0.9c0.5,3.8,3.5,5.1,6.7,4.2C52.7,20.4,52.1,19.7,51.6,19.1z M29.5,75.9c-0.2,2.8,0.1,5.6,1.3,8.2
	C31,81.2,30.5,78.5,29.5,75.9z M46.9,125.7c1.6-1.7,0.2-5.6-1.2-7.2C46,120.9,47.4,123.1,46.9,125.7z M17.7,27.8
	c-2.8,5.2-2.2,10.7-1.7,16.2c0.1-0.4,0.1-0.8,0.1-1.1c-0.1-1.7-0.2-3.4-0.1-5.1c0.1-1.8,0.2-3.6,0.5-5.3
	C16.6,30.9,17.2,29.4,17.7,27.8z M36.9,17.4c-0.7,0.9-1.3,1.1-3.6,1.8c2,0,3.4-0.7,4.2-2.1c-1.7-0.1-3.5,0-5.1-0.8
	C33.6,17.4,35.2,17.4,36.9,17.4z M41.5,6.1c-0.1-0.1-0.1-0.1-0.1-0.1c-0.4,0.3-0.7,0.5-1,0.8C39,8,37.7,9.2,35.9,9.4
	c-1.1,0.1-2.2,0.2-3.2,0.2c-0.1,0,0.1,0,0.2,0.1c2.2,0.4,4.2,0.2,6-1.2C39.9,7.7,40.7,6.9,41.5,6.1z M67.6,41.6
	c-0.2,1.4-0.4,2.8-0.6,4.1c-0.2,1.4-0.6,2.8-0.9,4.1C66.9,47.2,68.1,44.5,67.6,41.6z M71.9,32.2c0.5,2.8-0.5,5.4-0.8,8.1
	C71.9,37.6,72.8,35,71.9,32.2z M66.9,56.6c0.8-2,1.3-4.1,1.2-6.3C67.6,52.4,67.2,54.5,66.9,56.6z M19.7,16.1
	c-1.9,0.8-2.9,2.6-3.8,4.4C17.1,19,18,17.3,19.7,16.1z M55.6,7.8c1.6,1.2,3.7,1.6,5.2,3C59.5,9,57.3,8.7,55.6,7.8z M60.5,15.7
	c-1-1.8-3.2-1.6-4.7-2.6c0.8,0.5,1.6,0.9,2.4,1.3C59,14.8,59.7,15.2,60.5,15.7z M40.5,32.5c0.1,0,0.1,0,0.2,0c0.3-1.7,1-3.4,0.7-5.2
	C41.1,29,40.8,30.8,40.5,32.5z M58.8,5.4c-1.6-0.7-3.2-1.4-4.8-1C55.6,4.7,57.2,5.1,58.8,5.4z M18.8,11.9c1.6-0.4,3.1-0.7,4.7-1
	C21.7,10.8,20.2,11,18.8,11.9z M38.7,24.2c-0.6,1.5-1.9,2.5-3,3.5C37.2,26.9,38.4,25.9,38.7,24.2z M33.6,23.8
	c1.6-0.2,3.3-1.3,3.5-2.2c-0.5,0.4-1.1,0.8-1.7,1.2C34.9,23.2,34.3,23.5,33.6,23.8z M48.6,6.8c-0.1,0.1-0.1,0.2-0.1,0.2
	c1.3,0.5,2.7,0.9,4,1.4c0-0.1,0.1-0.2,0.1-0.2C51.2,7.7,49.9,7.3,48.6,6.8z M45.3,35.6c-0.4-1.4-0.7-2.6-1-3.8
	C44.3,33.1,44.5,34.3,45.3,35.6z M64.7,13.4c0.8,0.8,1.7,1.7,2.5,2.6C66.7,14.8,65.7,14.1,64.7,13.4z M40.2,4.2
	c-0.1,0.1-0.3,0.3-0.4,0.4c-0.2,0.1-0.4,0.1-0.6,0.2c-1.8,1.3-4.3,1.4-6.3,0.2c2.6-0.6,5.2-1.2,7.7-1.7C40.5,3.6,40.4,3.9,40.2,4.2z
	 M27.6,5.9c0,0.8,0,1.5,0,2.4c-0.6-0.7-1.1-1.4-1.8-2.2C26.5,6,27,5.9,27.6,5.9z"/>
</svg>
