<svg xmlns="http://www.w3.org/2000/svg" viewBox="0 0 142.15 214.35"><title>atticus</title><path d="M67.25 3.9a30.62 30.62 0 0 1 4.9-2.2 39.33 39.33 0 0 1 7.6-1.5 38.6 38.6 0 0 1 7.6 0c6 .4 11.9 1.4 16.9 5a37.57 37.57 0 0 1 10.1 10.9 49 49 0 0 1 5.4 11.6 8 8 0 0 1 .6 3 8.05 8.05 0 0 1-1.5 2.7 9.05 9.05 0 0 1-7.2 3.4c-3.9.1-7.8 0-11.5-1.4a17.37 17.37 0 0 1-6.3-4c-3.2-3-6.3-6.1-9.7-8.9a6.9 6.9 0 0 0-6.5-1.6 7.2 7.2 0 0 0-3.9 3.2 19.83 19.83 0 0 1 2-1.1 5 5 0 0 1 5.9.7 57 57 0 0 1 4.2 4.3c2.8 2.8 5.3 6 8.4 8.3 4.3 3.3 9.4 4.1 14.7 3.4 1.3-.2 2.7-.4 4-.7 3.6-.7 5.8-2.9 7.1-6.2.3 1.4-1.4 4.3-4.4 6.2.3 1.1.6 2.3.8 3.3 1.4-.3 2.7-.8 4-1a3.2 3.2 0 0 1 3.7 2.5 13.4 13.4 0 0 1 .6 6.9c-.3 1.7-.3 3.5-.5 5.3-.5 3.2-1 6.4-1.7 9.6a264.6 264.6 0 0 1-8.6 29.2c-1.4 3.9-2.8 7.9-4.6 11.7a46.6 46.6 0 0 1-5.2 7.6c-2.5 3.3-5.2 6.4-7.9 9.6-1.4 1.7-2.8 3.3-4.4 5.2 6.7-13.9 8.1-28.4 8-43.2-.3 2.4-.5 4.9-.8 7.3-.5 3.9-.9 7.7-1.5 11.6-1 6-2 12-4.1 17.8-1 2.8-2.3 5.6-3.5 8.3-1.1 2.4-2.8 4.6-3.4 7.2s-.4 5.3-.5 7.9c0 .7.5 1.2 1.3 1.5a37.9 37.9 0 0 1 4.2 1.8 2.55 2.55 0 0 0 2.4 0 92.73 92.73 0 0 1 17.1-6.5c.2 0 .4-.1.6-.1 2.3.1 3.8-1.2 5.4-2.7a51.14 51.14 0 0 0 11.5-16.5 57.63 57.63 0 0 0 4.1-14 74.55 74.55 0 0 0 1.2-12.5c0-2.7.2-5.4.2-8.1V16.4h-10c-2.1 0-4.3-.1-6.4-.3a1.17 1.17 0 0 1-1-.6 26 26 0 0 0-5.2-7.1V8c10.2.2 20.4.3 30.7.5v1.3c0 29.2 0 58.5-.1 87.7a111.8 111.8 0 0 1-1.1 11.5 56.35 56.35 0 0 1-3.5 14 55.13 55.13 0 0 1-8.8 15.9c-2 2.4-4.2 4.8-6.4 7.1-1.4 1.4-3 2.6-4.5 3.9a22.38 22.38 0 0 0 2.6 5.7 15.8 15.8 0 0 1 2.8 8.2 17.74 17.74 0 0 1-2 10.4 27.17 27.17 0 0 1-3.9 5.2c1.6-9.2-1.3-17.2-6.4-24.7-.9.5-1.8 1.1-2.6 1.6.7 2.7 1.4 5.2 1.9 7.8a13.6 13.6 0 0 1 .1 4.5 48.45 48.45 0 0 1-1.4 7.6c-.8 3-3.4 4.8-6.8 5.1.7-1.4 1.4-2.7 2.1-4a22.15 22.15 0 0 0 2.8-7.8 7 7 0 0 0-.3-2.9c-.6-2-6.9-12.1-8.5-13.7a23.3 23.3 0 0 1-3.4 2c-1.7.7-2 1.9-2 3.5v3.7a26.35 26.35 0 0 0-.2 2.8c.3 3.1-.4 6.3 1 9.1a42.1 42.1 0 0 0 3.6 5.7c.4.6 1 1.2 1.4 1.8-.1.1-.1.2-.2.3l-7.1-2.1c.2 2.5.5 5.1.5 7.7-.2 6.7-1.2 13.2-4.5 19.2a58.08 58.08 0 0 1-3.2 4.9c-1.5-1.6-2.8-3.1-4.2-4.5-1.4 2.5-3 4.9-5.7 6.4s-5.5 1.1-8.3-.2v-3.4c-.2 0-.3-.1-.5-.1-.4 1-.7 2-1.2 3-1.6-.7-3.2-1.5-4.8-2.3 3.4-4.4 4.7-9.6 5.8-14.8-.2-.1-.3-.1-.5-.2-1.8 4.8-3.6 9.5-5.5 14.3a5 5 0 0 1-1.2-.2 2 2 0 0 1-1.4-2.1c.1-3.5 0-6.9 0-10.7-.9 1.2-1.7 2.1-2.4 3 4.8-8.2 9.7-16.4 12.3-25.6-2.4 4.5-4.8 9-7.2 13.6s-4.9 9.5-7.2 14.2c-.5.9-.9.9-1.7.4-2.4-1.4-3.8-3.6-5.3-5.8-1.9-3-3.6-6.1-5.4-9.2a1.5 1.5 0 0 1 .1-1.8c3.1-4.9 6.1-9.9 9.1-14.8a.3.3 0 0 0 .1-.2c-.8-1-1.5-.8-2.4 0a19.73 19.73 0 0 1-7.5 3 7.83 7.83 0 0 1-1.4.3c.7-1 1.3-1.6 1.8-2.4 1.3-2.1 2.5-4.1 3.6-6.3a6.36 6.36 0 0 0 .5-2.8c.1-2.9 0-5.8 0-8.6 0-1.6-.1-3.2-.2-4.8a2.06 2.06 0 0 0-1.2-1.9c-1.4-.7-2.8-1.6-4.3-2.5-1.1 1.6-2.3 3.2-3.3 4.9-1.6 2.7-3.1 5.5-4.6 8.2a5.73 5.73 0 0 0-.3 5.1 48.3 48.3 0 0 0 4.8 10.3 7.17 7.17 0 0 1-6.9-5 60.6 60.6 0 0 1-1.5-7.4c-.7-4.7.9-9 2.3-13.3a29.16 29.16 0 0 0 1.4-3.8 4.88 4.88 0 0 0-.8-2.4 58.34 58.34 0 0 0-8.2 14c-2 5.1-2.2 10.5-1.4 16.2a17.78 17.78 0 0 1-4.9-6.6 16.64 16.64 0 0 1-1.4-8.5 17.43 17.43 0 0 1 3.1-9.1c.3-.4.6-.9.9-1.4a2.22 2.22 0 0 0-.4-3 56.25 56.25 0 0 1-8.4-11.6 61.75 61.75 0 0 1-6.3-17.1c-.6-2.7-.9-5.4-1.3-8.1-.9-6.8-.6-13.6-.6-20.3V8.3h24.9a11 11 0 0 0-5.8 7.9H7.95v1.5c0 26-.1 52.1.1 78.1a70.55 70.55 0 0 0 3.1 20.9 50.3 50.3 0 0 0 8.7 16.9 1.63 1.63 0 0 1 .3.6c2.2-.9 4.4-.2 6.4.5 5.4 1.9 10.8 4 16.1 6.1.3.1.7.3.9.2 2.4-1.1 4.8-2.2 7.1-3.2a73.73 73.73 0 0 1-4.9-6.5c-2-3.3-3.7-6.9-5.6-10.3a3.1 3.1 0 0 0-1.1-1.2c-3.4-21.1-3.1-42 3.8-62.6-.1 0-.2-.1-.3-.1-1.1 3-2.3 6.1-3.2 9.1a83.16 83.16 0 0 0-3.2 17.8 129.06 129.06 0 0 0-.2 17.6c.4 6 1.6 11.9 2.6 17.9.1.7.1 1-.7 1.1-1.4.2-2.7.4-4.2.6 1.3-5.9-.9-10.9-3.1-15.8-2.5-5.6-5.3-11-7.9-16.6-1.7-3.7-3.7-7.3-4.4-11.3-.6-3.4-1.1-6.8-1.4-10.2a50.77 50.77 0 0 1 0-7.8c.2-3.4.6-6.8.9-10.3.3-2.8.6-5.6 1-8.4s.8-5.7 1.2-8.5c.2-1.9.4-3.9.5-5.8a42.44 42.44 0 0 1 1.5-10c.7-2.6 1.9-4.6 4.2-5.8a14.7 14.7 0 0 1 4.5-1.4 48.44 48.44 0 0 1 5.3-.3 1.27 1.27 0 0 0 .6-.1c2.5-1.4 4.7-.2 6.8 1.1 1.5.9 2.9 2 4.3 3 .2-3.4.4-6.7.7-10a.76.76 0 0 0 .4-.1c1.4 3.7 4.6 4.7 8 5.5a11.87 11.87 0 0 0 6.2-.2 4.62 4.62 0 0 0 1.5-.9 27.46 27.46 0 0 0 2.2-2.6c.1-.3.4-.5.6-.8zm28.9 45.2c-2.4-2-4.8-4-7.4-6.2a14.36 14.36 0 0 0 .2 2.4c.8 2.6 1.5 5.2 2.5 7.7 1.9 4.9 4 9.8 7.3 14a15 15 0 0 1 2.9 6.1c.3 1.2.3 2.5.5 3.8 5.1-10.1 6.8-21.1 8.9-32.3-2.2 1.2-4 2.3-5.9 3.3-.8-1.6-1.5-3.1-2.4-4.8-2.2 2-4.3 4-6.6 6zm-41.6 112.4c1.6-3.2 3.3-6.4 4.7-9.6a6.32 6.32 0 0 0 .6-4.7c-.5-1.2-1.1-2.4-1.7-3.8-2.2 1.7-4.1 3.1-6.1 4.6a2.65 2.65 0 0 0-1.1 1.8c-.5 2.9-1.1 5.8-1.7 8.8 1.7.9 3.4 1.8 5.3 2.9zm22.4-33h-.3c-.2 5.2-.3 10.4-.5 15.5-.1 2.1-.2 4.1-.1 6.2a2.57 2.57 0 0 0 .7 1.6c2.6 2.2 5.3 4.3 7.9 6.5a1.85 1.85 0 0 1 .8 1.2 56.13 56.13 0 0 0-.1 5.8 19.7 19.7 0 0 0 4.7 11.3l-.3-.9c-2.7-5.2-3.8-10.6-2.4-16.3a1.7 1.7 0 0 0-.7-1.9c-2.7-2.2-5.4-4.4-8.1-6.7a1.2 1.2 0 0 1-.5-.9c-.2-4.7-.3-9.3-.5-14-.3-2.5-.5-5-.6-7.4zm9.3-99.6c-1.3 1.5-2.7 1.6-3.9.6s-1-2.7.5-4.3c-.5-.5-1.1-.9-1.6-1.4a2.18 2.18 0 0 0-.8-.5c-1.2-.6-2.8.4-2.6 1.5.9 6.3 5.9 8.6 11.2 7.1a39.74 39.74 0 0 1-2.8-3zm-37 94.9a26.94 26.94 0 0 0 2.1 13.7 27.87 27.87 0 0 0-2.1-13.7zm29.2 83.3c2.7-2.9.4-9.4-2-12.1.5 4 2.8 7.7 2 12.1zM29.55 43.5c-4.7 8.7-3.7 17.9-2.9 27.1a12.1 12.1 0 0 0 .1-1.9c-.1-2.9-.3-5.7-.2-8.6a65.42 65.42 0 0 1 .8-8.9 55.65 55.65 0 0 1 2.2-7.7zm32.1-17.4c-1.2 1.5-2.1 1.9-6.1 3 3.3 0 5.7-1.2 7-3.5-2.9-.1-5.8 0-8.5-1.4 2.1 1.8 4.8 1.8 7.6 1.9zm7.7-18.9l-.2-.2c-.6.5-1.2.9-1.7 1.4-2.2 2-4.4 3.9-7.5 4.3a51.34 51.34 0 0 1-5.3.3 1.58 1.58 0 0 1 .4.1c3.6.6 7.1.3 10.1-2 1.5-1.2 2.8-2.6 4.2-3.9zm43.6 59.3c-.3 2.3-.6 4.6-1 6.9s-1 4.6-1.5 6.9c1.4-4.5 3.3-9 2.5-13.8zm7.3-15.8c.9 4.6-.8 9-1.3 13.5 1.3-4.4 2.8-8.8 1.3-13.5zm-8.5 40.8a25.18 25.18 0 0 0 2-10.5c-.7 3.5-1.4 7-2 10.5zm-78.9-67.6c-3.2 1.4-4.8 4.3-6.3 7.3 2-2.5 3.5-5.4 6.3-7.3zm60-13.9c2.7 2 6.2 2.6 8.7 5-2.1-3-5.7-3.5-8.7-5zm8.3 13.2c-1.6-3-5.3-2.7-7.8-4.4a39.66 39.66 0 0 0 4 2.2c1.3.7 2.5 1.4 3.8 2.2zm-33.4 28.1h.3c.5-2.9 1.7-5.7 1.1-8.7-.5 2.9-1 5.8-1.4 8.7zM98.35 6c-2.6-1.2-5.3-2.3-8-1.6 2.5.4 5.2 1 8 1.6zm-67 10.8c2.6-.6 5.2-1.1 7.8-1.6a12.43 12.43 0 0 0-7.8 1.6zm33.4 20.6c-1 2.5-3.1 4.1-5 5.8 2.5-1.2 4.5-2.9 5-5.8zm-8.6-.7c2.7-.3 5.5-2.1 5.9-3.6-.9.6-1.8 1.4-2.8 2a22.48 22.48 0 0 1-3.1 1.6zm25-28.3c-.1.1-.1.3-.2.4 2.2.8 4.5 1.5 6.7 2.3 0-.1.1-.3.1-.4-2.2-.8-4.4-1.6-6.6-2.3zm-5.4 48c-.6-2.3-1.1-4.3-1.6-6.4a10.07 10.07 0 0 0 1.6 6.4zm32.4-37c1.4 1.4 2.8 2.9 4.2 4.3-.8-2-2.5-3.1-4.2-4.3zM67.25 3.9l-.7.7a4.18 4.18 0 0 0-1 .4 10.1 10.1 0 0 1-10.6.4c4.4-1 8.7-2 12.9-2.9-.2.5-.4 1-.6 1.4zm-21.2 2.9v4c-1-1.2-1.9-2.3-3-3.6 1.2-.2 2.1-.3 3-.4z"/></svg>