<svg xmlns="http://www.w3.org/2000/svg" viewBox="0 0 588.2 112.7" enable-background="new 0 0 588.2 112.7"><style type="text/css">.st0{fill:#FFFEF1;}</style><path d="M32.1 109.7c-1.2-.1-1.4-.3-1.4-1.5 0-1.5 0-3 0-4.5 0-.1 0-.1-.1-.4-.2.4-.4.7-.6 1-.1-.1-.2-.2-.3-.2 2.1-3.7 4.3-7.3 5.4-11.5-1.1 2-2.1 3.9-3.2 5.9-1.2 2.3-2.4 4.6-3.6 6.9-.3.7-.7.9-1.3.3-.8-.7-1.6-1.5-2.2-2.4-1.1-1.6-2-3.3-3-5-.2-.4-.2-1.1.1-1.4 1.3-2.2 2.7-4.4 4.1-6.6.2-.3.3-.6.5-.8 0-.1-.1-.2-.1-.3-.3.1-.7.1-.9.3-1.4.9-2.9 1.4-4.6 1.7.8-1.2 1.6-2.4 2.2-3.6.4-.8.7-1.7.7-2.6.1-2.1 0-4.2 0-6.3 0-.7-.2-1.1-.9-1.4-.7-.3-1.3-.7-2.1-1.1-.6.9-1.2 1.8-1.8 2.7-.8 1.3-1.6 2.7-2.2 4.1-.3.7-.4 1.6-.2 2.3.5 1.6 1.3 3.1 2 4.7.1.3.3.6.5.9-1.8 0-3-.9-3.6-2.5-1.5-4.2-.9-8.3.8-12.3.3-.7.5-1.3-.2-2.1-3.5 4.6-6 9.3-4.8 15.6-1.8-1.5-2.8-3.1-3.2-5.1-.6-2.8-.1-5.4 1.6-7.8.5-.6.7-1.2 0-2-4.7-5.3-7-11.5-8.1-18.5C1 52.1.9 47.9.9 43.8.9 31.4.9 19 .9 6.6c0-.4 0-.7 0-1.2 4.3 0 8.5 0 12.8 0-.4.4-.9.6-1.1 1-.5.8-1.1 1.6-1.4 2.4-.2.5-.4.7-1 .7-1.6 0-3.3 0-5 0 0 .4 0 .7 0 1.1 0 12.6 0 25.1 0 37.7 0 4.8.4 9.5 1.9 14.1.9 2.9 2.4 5.5 4.3 7.8.1.2.4.3.6.3 1.1.2 2.3.2 3.4.6 2.5.9 5 1.9 7.5 2.8.4.1.9.1 1.3 0 1-.4 2-.9 2.8-1.2-1.8-3.1-3.7-6.2-5.5-9.1-.9.2-1.8.4-2.7.6-.1-1.3.1-2.7-.3-3.8-.9-2.7-2.1-5.4-3.2-8-1.1-2.5-2.3-5-3.5-7.5-1.4-2.9-1.8-6.1-1.8-9.3.1-4.3.6-8.6 1-12.8.3-3.1.7-6.1 1-9.2.2-1.2.4-2.4.7-3.6.5-2.2 2.1-3.2 4.2-3.5 1.4-.2 2.9-.5 4.3-.5.7 0 1.5.3 2.2.6.9.4 1.6 1.1 2.6 1.7.2-1.7.3-3.4.5-5.3 1.7 2.9 4.2 3.3 6.9 3.1 1.3-.1 1.9-1.1 2.5-2.2-2 .9-4 1.5-6.3.1 2.3-.5 4.3-.9 6.3-1.4.2 0 .4.2.7.3C39.6 1 43.1.7 46.7 1c2.3.2 4.5.4 6.5 1.5 4 2 6.6 5.3 8.5 9.2.7 1.4 1.1 2.9 1.7 4.3.2.7.2 1.3-.4 1.9-.7 1.3-1.9 2.1-3.4 2.1-1.4.1-2.8.1-4.2 0-2.2-.2-4.2-1.1-5.8-2.7-.5-.5-1-1-1.5-1.5-1.2-1.1-2.4-2.2-3.7-3.3-1.6-1.3-3.6-1.1-4.7.5 2-1.2 3.3-.3 4.6 1 1.1 1.2 2.3 2.4 3.4 3.7 2.6 2.9 5.7 4.3 9.6 3.7 1.4-.2 2.8-.7 4.1-1.3.8-.4 1.5-1.2 1.5-2.3.1.3.2.7.1.9-.3.5-.6 1.1-1 1.5-1 1-1 1-.5 2.5.6-.1 1.2-.3 1.8-.4 1.1-.2 1.7.1 2.1 1.2.5 1.3.5 2.7.4 4.1-.4 5.9-2 11.5-3.8 17-1.1 3.4-2.3 6.7-3.5 10-1 2.9-3.1 5.1-5 7.4-1.4 1.8-3 3.5-4.6 5.3C52.2 60.9 53 54 53 47c-.2 1.1-.3 2.1-.5 3.2-.1 1.1-.2 2.1-.4 3.2-.8 6-2 11.9-5.2 17.1-1.2 1.9-1 4-.9 6.1 0 .2.2.5.4.5.8.4 1.7.8 2.6 1 .4.1.9 0 1.3-.2 2.4-.9 4.7-2.3 7.2-2.8 3.7-.6 5.7-3 7.7-5.7 2.8-3.9 4.5-8.4 5-13.2.3-3.2.5-6.5.5-9.7.1-12.1 0-24.2 0-36.3 0-.3 0-.5 0-.9-1.3 0-2.6 0-3.9 0-1.4 0-2.8-.1-4.3-.2-.3 0-.7-.1-.8-.3-.9-1.3-1.8-2.6-2.6-3.8 5.1 0 10.4 0 15.7 0 0 .5 0 .9 0 1.3 0 12.7 0 25.3-.1 38 0 4.8.1 9.6-.9 14.3-1 5.1-2.8 9.9-6.2 14-1.6 1.9-3.4 3.6-5.2 5.3-.4.4-.5.6-.3 1.1.5.9.9 1.8 1.3 2.6 1.6 3.1 1.7 6.3.1 9.4-.5.9-1.2 1.7-1.9 2.5.6-4.7-.9-8.8-3.4-12.6-1.3.5-1.4.5-1 1.8 1 3 .8 6 0 9-.4 1.6-1.8 2.6-3.5 2.7.5-.9 1-1.8 1.4-2.7.4-.8.7-1.6 1-2.4.3-1.1.3-2.1-.3-3.1-1.3-2.1-2.5-4.2-3.8-6.3-.9.5-1.7.8-2.3 1.4-.4.3-.7.9-.7 1.4-.1 2.1 0 4.3 0 6.4 0 1.4.7 2.5 1.4 3.6.5.7 1 1.4 1.7 2.4-1.4-.4-2.6-.7-3.5-1-.2 2.8-.2 5.7-.6 8.5-.4 2.9-1.7 5.5-3.5 7.8-.7-.7-1.4-1.4-2.1-2.1-.4.6-.8 1.2-1.3 1.8-1.3 1.5-2.9 2.2-4.9 1.7-.7-.2-1.2-.5-1-1.3 0-.3 0-.5-.2-.8-.2.5-.4.9-.7 1.5-.6-.4-1.4-.9-2.2-1.5 1.8-2 2.4-4.5 2.9-7-.1 0-.1-.1-.2-.1-.9 2.4-1.8 4.7-2.7 7.1zm26.3-85.4c-1 .6-1.9 1.1-2.9 1.7-.4-.8-.8-1.6-1.2-2.4-1.1 1-2.2 2-3.3 2.9-1.2-1-2.5-2-3.8-3.1 0 .4 0 .5 0 .7 0 .1 0 .3 0 .4 1.2 3.9 2.5 7.8 5 11.2.9 1.3 1.6 2.6 1.7 4.2 0 .2.1.4.2.6 1.6-2.8 4.2-12.4 4.3-16.2zM29.3 84.6c.8-1.5 1.4-3 2.3-4.4 1-1.7.7-3.3-.4-4.8-.4.3-.8.7-1.3.9-1.6.9-2.5 2.2-2.8 4.1-.4 2.9-.5 2.9 2.2 4.2zm17.8 6.6c0-.2.1-.3 0-.3-1-2.4-1.4-4.8-.8-7.4.1-.3-.2-.8-.5-1.1-1.1-1-2.2-1.9-3.4-2.8-.6-.5-.8-1-.9-1.8-.1-2.9-.3-5.8-.4-8.8-.1 0-.2 0-.3 0-.1 3.2-.2 6.5-.2 9.7 0 .3.3.7.6 1 1.1.9 2.2 1.9 3.3 2.7.8.6 1.2 1.3 1 2.3-.1.3-.1.7-.1 1 0 2 .5 3.8 1.7 5.5zM22.4 32.8c-3.1 8.7-3.3 17.5-1.9 26.5-.9-8.9-.5-17.8 1.9-26.5zM43.9 14c-.4-.3-.8-.6-1.3-.8-.6-.3-1.1.2-1.1.8.1 2.6 2.9 4.5 5.5 3.5-.4-.5-.8-.9-1.2-1.4-.7.5-1.4.8-2.1.2-.9-.8-.2-1.5.2-2.3zM26.6 65.6c0 2.2.1 4.2 1 6.3.2-2.4-.2-4.7-1-6.3zM15.4 26c-.8 1.8-1.2 6.9-.7 9 .2-2.9.5-6.1.7-9zm26.5 81.7c.6-1.1.1-3.8-1-4.8.4 1.6.7 3.2 1 4.8zM566.9 78.3c-.5.1-.8.2-1.1.2-5.8 0-11.5 0-17.3 0-.6 0-.9-.2-1.1-.8-.7-2.3-1.5-4.6-2.3-6.9-.7-2-1.4-4.1-2.1-6.1-.3-.9-.6-1.8-1.2-2.7 0 .2-.1.4-.1.6 0 4.9 0 9.9.1 14.8 0 .9-.3 1.1-1.1 1.1-5.2 0-10.3 0-15.5 0-1.1 0-1.2-.1-1.2-1.2 0-19.6 0-39.2 0-58.8 0-1.5 0-1.5 1.4-1.8 4.1-.7 8.2-1.2 12.4-1 3.4.2 6.7.6 9.9 1.6 3.5 1 6.8 2.5 9.7 4.8 3 2.4 5.1 5.5 6.2 9.2.8 2.7 1.1 5.4.8 8.2-.3 3.4-1.5 6.6-3.5 9.5-1.2 1.8-2.6 3.3-4.3 4.7-.3.2-.4.9-.3 1.2 1 2.4 2.1 4.8 3.2 7.2 1.2 2.6 2.3 5.3 3.5 7.9 1.2 2.6 2.4 5.2 3.6 7.8.1.1.2.2.3.5zm-25.1-40.6c0 1.8 0 3.6 0 5.5 0 .7.3 1 .9.9 1.2-.2 2.2-.7 3-1.6 1.5-1.8 1.6-3.9 1.4-6-.2-2.5-1.4-4.3-4-5-1-.3-1.2-.1-1.2.9-.1 1.8-.1 3.6-.1 5.3zM415.5 62.7c0 .4-.1.7-.1 1.1 0 4.5 0 9 0 13.6 0 .9-.3 1.2-1.2 1.2-5.2 0-10.4 0-15.6 0-.8 0-1-.3-1-1.1 0-19.7 0-39.4 0-59.1 0-1.4 0-1.3 1.4-1.6 3.9-.7 7.8-1.1 11.8-1 3.6.1 7.1.6 10.5 1.6 3.5 1 6.8 2.5 9.6 4.8 2.9 2.3 5 5.3 6.1 8.8.9 2.8 1.3 5.7 1 8.6-.3 3.2-1.4 6.1-3.1 8.8-1.3 2-2.8 3.9-4.7 5.4-.2.2-.4.8-.2 1.1 1 2.3 2 4.6 3.1 6.9.9 2 1.8 4 2.7 6 1.3 2.9 2.6 5.8 3.9 8.7 1 2.1 1 2.1-1.3 2.1-5.3 0-10.6 0-16 0-.9 0-1.3-.2-1.6-1.1-1.4-4.4-2.9-8.9-4.4-13.3-.2-.5-.3-1-.5-1.5-.2-.1-.3 0-.4 0zm-.2-25c0 1.8 0 3.6 0 5.5 0 .8.3 1.1 1 .9.8-.3 1.6-.5 2.2-1 2.1-1.8 2.3-4.2 2-6.7-.3-2.4-1.4-4.3-4.1-4.9-1-.2-1.1-.2-1.1.9 0 1.7 0 3.5 0 5.3zM324.7 63.3c-.5.7-1 1.3-1.5 2-1.1 1.5-2.1 2.9-3.2 4.4-.4.6-.8.6-1.2 0-1.4-2.1-2.9-4.1-4.4-6.2-.1-.1-.2-.3-.5-.6-.1.4-.1.7-.1.9 0 4.5 0 9 0 13.6 0 .8-.2 1.2-1.1 1.1-5.3 0-10.5 0-15.8 0-.8 0-1.1-.2-1.1-1.1 0-19.7 0-39.5 0-59.2 0-1.4 0-1.3 1.4-1.4 1.2-.1 1.8.3 2.5 1.3 4.9 7 9.8 14 14.7 20.9 1.6 2.3 3.2 4.5 4.9 6.9.3-.2.5-.4.7-.6 2.4-3.4 4.7-6.7 7.1-10.1 4-5.6 8-11.2 11.8-16.9.9-1.3 1.8-1.6 3.1-1.5.6 0 .9.3.9.9 0 .2 0 .4 0 .6 0 19.6 0 39.3 0 58.9 0 .9-.3 1.2-1.2 1.2-5.1 0-10.3 0-15.4 0-1.1 0-1.2-.1-1.2-1.2 0-4.4 0-8.7 0-13.1 0-.3-.1-.6-.1-.9-.1.1-.2.1-.3.1zM367.8 38.5c0 6.7 0 13.4 0 20 0 1.3.4 2.6.9 3.8.4 1 1.5.9 2.3.6.5-.2 1.2-.8 1.3-1.4.3-1.7.6-3.4.6-5 0-12.7 0-25.5 0-38.2 0-1.4 0-1.4 1.4-1.4 5.1 0 10.1 0 15.2 0 1.2 0 1.3 0 1.3 1.3 0 10.2 0 20.4 0 30.5 0 3.2.1 6.3-.1 9.5-.4 5.2-1.4 10.2-4.6 14.6-2.1 2.9-4.9 4.8-8.3 5.9-3.7 1.2-7.5 1.3-11.3.9-3.9-.5-7.5-1.9-10.3-4.7-2.2-2.2-3.7-4.8-4.7-7.8-1.3-4.2-1.7-8.6-1.7-13 .1-11.8 0-23.7 0-35.6 0-1.5 0-1.5 1.6-1.5 5 0 10.1 0 15.1 0 1.1 0 1.3.1 1.3 1.3 0 6.6 0 13.4 0 20.2zM443.5 47.8c0-9.8 0-19.6 0-29.3 0-1.5 0-1.5 1.5-1.6 4.4-.2 8.7-.3 13.1.2 4.3.5 8.4 1.6 12.3 3.5 6.1 2.9 10.7 7.4 13.3 13.7 2 4.9 2.6 10.1 2.2 15.4-.2 2.6-.5 5.3-1.2 7.8-1.8 6.6-5.5 12-11.3 15.8-4.2 2.7-8.8 4.2-13.6 5-1.9.3-3.7.4-5.6.5-1.6.1-3.3.2-4.9.2-1.7 0-3.3-.2-5-.3-.6 0-.7-.4-.7-.9-.1-10.2-.1-20.1-.1-30zm18.3-.6c0 4.4 0 8.8 0 13.2 0 1 .2 1.1 1.1.9.2-.1.5-.2.7-.3 1.9-1.1 2.8-3 3.4-4.9.6-2.2 1.1-4.5 1.3-6.7.4-4.2-.1-8.3-1.8-12.1-.7-1.6-1.6-3.2-3.4-3.8-1.1-.4-1.2-.4-1.2.9-.1 4.1-.1 8.4-.1 12.8zM199 47.7c0-9.8 0-19.5 0-29.3 0-1.5.1-1.5 1.5-1.5 8 0 16 0 23.9 0 1.5 0 1.6 0 1.6 1.5 0 4.1 0 8.2 0 12.3 0 .8-.3 1-1 1-2.4 0-4.7 0-7.1 0-.8 0-1.1.2-1.1 1 .1 2.2.1 4.5 0 6.7 0 .9.3 1.1 1.1 1.1 2.3 0 4.6 0 6.9 0 .9 0 1.2.2 1.2 1.2-.1 3.8 0 7.7 0 11.5 0 1.1-.1 1.2-1.2 1.2-2.2 0-4.5 0-6.7 0-.9 0-1.2.3-1.2 1.1 0 2 0 4.1 0 6.1 0 .8.3 1.1 1.1 1 2.3 0 4.5 0 6.8 0 1.1 0 1.2.2 1.2 1.2 0 4.5 0 9.1 0 13.6 0 .7-.2 1-1 1-8.4 0-16.7 0-25.1 0-.8 0-1.1-.3-1-1.1.1-9.8.1-19.7.1-29.6zM491.1 47.7c0-9.8 0-19.6 0-29.3 0-1.6 0-1.6 1.5-1.6 8.1 0 16.1 0 24.2 0 .9 0 1.2.3 1.2 1.2 0 4.2 0 8.5 0 12.7 0 .8-.3 1-1 1-2.3 0-4.6 0-7 0-.7 0-1 .2-1 1 .1 2.3 0 4.6 0 6.9 0 .7.2.9.9.9 2.3 0 4.6 0 7 0 .8 0 1.1.2 1.1 1.1 0 3.9 0 7.8 0 11.7 0 .8-.2 1.2-1.1 1.1-2.3 0-4.6 0-6.9 0-.7 0-1 .2-1 .9 0 2.2 0 4.3 0 6.5 0 .7.3.9 1 .9 2.3 0 4.6 0 7 0 .8 0 1 .3 1 1 0 4.7 0 9.3 0 14 0 .8-.4.8-1 .8-3.9 0-7.8 0-11.7 0-4.4 0-8.7 0-13.1 0-.9 0-1.2-.3-1.2-1.2.1-9.8.1-19.7.1-29.6zM155.5 78.5c-2.4 0-4.8 0-7.1 0-1 0-1.5-.3-1.6-1.3-.1-.8-.5-1-1.3-1-2 0-4 0-6 0-.9 0-1.4.4-1.5 1.2-.1.8-.5 1-1.2 1-4.9 0-9.9 0-14.8 0-1 0-1-.1-.7-1 1.6-4.8 3.1-9.6 4.7-14.3 1.1-3.4 2.1-6.8 3.2-10.2 1.5-4.5 3-9.1 4.5-13.6 1.1-3.3 2.1-6.7 3.2-10 .9-2.7 1.8-5.4 2.7-8.1.4-1.1.7-2.3 1.1-3.4.2-.6.6-.9 1.2-.8 2.1 0 2.1 0 2.8 1.9 1 3 1.9 6 2.9 9.1 1.1 3.2 2.2 6.5 3.2 9.7.7 2.1 1.3 4.3 2 6.4.7 2.2 1.4 4.3 2.1 6.5.9 2.7 1.7 5.3 2.6 8 .7 2.2 1.4 4.4 2.1 6.6.7 2.1 1.3 4.2 2 6.2.6 2 1.3 4.1 2 6.1.3 1 .3 1.1-.8 1.1-2.4-.1-4.9-.1-7.3-.1zM142.4 61c-.2.3-.3.4-.3.5-.4 1.4-.7 2.9-1.1 4.3-.2.9-.1 1.2.9 1.2.3 0 .6 0 .9 0 1 0 1.2-.2.9-1.2-.2-1.1-.6-2.2-.9-3.3-.1-.4-.3-.8-.4-1.5zM116.6 55.1c0 7.4 0 14.8 0 22.3 0 .9-.3 1.2-1.2 1.2-5.2 0-10.4 0-15.6 0-.9 0-1.2-.2-1.2-1.2 0-14.9 0-29.8 0-44.7 0-.8-.3-.9-1-.9-2.3 0-4.6 0-6.9 0-1.2 0-1.2 0-1.2-1.2 0-4.1 0-8.2 0-12.3 0-1.2.1-1.3 1.3-1.3 11.1 0 22.2 0 33.3 0 1.2 0 1.3.1 1.3 1.3 0 4.2 0 8.4 0 12.5 0 .8-.3 1-1 1-2.4 0-4.7 0-7.1 0-.7 0-1 .2-1 .9.3 7.4.3 14.9.3 22.4zM167.1 47.7c0-9.7 0-19.5 0-29.2 0-1.6 0-1.6 1.7-1.6 4.9 0 9.9 0 14.8 0 1.3 0 1.5.1 1.5 1.4 0 14.4 0 28.8 0 43.1 0 1.1.1 1.2 1.2 1.2 2.2 0 4.4 0 6.6 0 1.1 0 1.2.2 1.2 1.2 0 4.5 0 9 0 13.5 0 1-.5 1.1-1.2 1.1-7.7 0-15.4 0-23.1 0-.6 0-1.2 0-1.8 0-.7 0-1-.3-1-1 .1-9.8.1-19.7.1-29.7zM262.2 14.5c8.9 0 17.8 0 26.7 0 0 .3.1.6.1.9 0 21.3 0 42.5 0 63.8 0 .9-.3 1.1-1.1 1.1-8.2 0-16.4 0-24.6 0-.9 0-1.1-.3-1.1-1.1 0-21.3 0-42.5 0-63.8-.1-.3-.1-.5 0-.9zm4.2 14.8c-.1 0-.2 0-.2 0 .3 1.9.5 3.8 1 5.7.5 2.1 1.5 4.1 3.3 5.4 4.3 3.2 10.5 1.2 12.3-4.1 1.4-4 1.5-8.1.6-12.2-.4-1.9-1.2-3.7-2.6-5.2-1.6-1.7-3.7-2.1-6-2.1-2.8 0-4.8 1.2-6.2 3.4-1.7 2.8-2.3 5.9-2.2 9.1zm3.8 35.8c0 3.7 0 7.4 0 11 0 .8.2 1.1 1 1 1.6 0 3.3 0 4.9 0 .7 0 1-.2 1-1 0-1.9 0-3.9 0-5.8 0-2.7 0-2.7 2.7-2.7.7 0 1-.2 1-1 0-1.1 0-2.3 0-3.4 0-.7-.3-.9-.9-.9-.6 0-1.2 0-1.9 0-.5 0-.9-.2-1-.8-.4-2.6-.1-3 2.5-3 0 0 .1 0 .1 0 .8.1 1.2-.3 1.2-1.1 0-1.1 0-2.2 0-3.2 0-1.2-.1-1.3-1.2-1.3-2.7 0-5.4 0-8.2 0-.9 0-1.1.3-1.1 1.1-.1 3.8-.1 7.4-.1 11.1zM255.4 59.7c-.3 7.2-2.7 13.4-7.6 18.6-2.4 2.5-2.5 2.5-5.4.8-4-2.3-7.9-4.7-11.9-7.1-.5-.3-.6-.7-.1-1.1 1.8-1.8 3.2-3.9 4.2-6.3 1.5-3.4 2.1-7 1.2-10.7-.6-2.2-1.6-4.2-2.4-6.4-.7-2-1.5-4.1-1.9-6.2-.4-2.5-.6-5-.6-7.6 0-3.2.8-6.2 2-9.2.9-2.3 2.2-4.5 3.9-6.4 1-1.1 2.2-2 3.3-2.9.3-.2 1-.2 1.4 0 4.4 2.6 8.8 5.3 13.2 7.9.8.5.6.8.1 1.3-1 1.2-2.2 2.4-3 3.7-1.4 2.3-1.9 4.9-1.9 7.5 0 3.1.7 6.1 1.7 9 .9 2.7 2.1 5.3 2.9 8.1.4 2.3.6 4.6.9 7zM362.9 91.2c0 1.8 0 3.7 0 5.5 0 .8-.3 1.1-1.2 1.1-1.9-.1-3.8 0-5.8 0-.8 0-1.1-.3-1.1-1 0-1.1 0-2.2 0-3.2.1-.9-.5-.9-1.1-.9-.6 0-1.3-.1-1.2.9 0 1 0 2.1 0 3.2 0 .8-.3 1.1-1.1 1.1-2 0-4 0-5.9 0-.8 0-1-.3-1-1.1 0-3.7 0-7.4 0-11.1 0-.7.3-1.1 1.1-1.1 2 0 4 0 5.9 0 .8 0 1.1.4 1.1 1.1 0 1 0 1.9 0 2.9 0 .9.5 1 1.2 1s1.2-.1 1.2-1c0-1 0-2 0-3 0-.7.3-1 1-1 2 0 4 0 6 0 .8 0 .9.4.9 1.1 0 1.8 0 3.7 0 5.5zM138.3 94.8c0 .6 0 1.1 0 1.7 0 1.1-.2 1.3-1.2 1.3-1.9 0-3.8 0-5.8 0-.8 0-1.1-.3-1.1-1.1 0-3.7 0-7.4 0-11 0-1 .3-1.3 1.3-1.3 3.7-.1 7.5-.3 11.2.5 1.6.4 3.2.8 4.5 1.8 1.7 1.3 1.8 2.9.2 4.3-.5.5-1.2.8-1.8 1.1-.7.3-.7.6-.2 1.2 1.1 1.1 2.2 2.2 3.3 3.4.2.2.3.6.4.9-.3.1-.6.2-.8.2-2.1 0-4.3 0-6.4 0-.8 0-1.3-.3-1.7-1-.5-.7-1-1.4-1.5-2.2-.2.2-.3.2-.4.2zm0-5.7c0 .6-.2 1.2.7 1.2.7 0 1.6-.7 1.6-1.2 0-.6-.8-1.2-1.6-1.2-1-.1-.7.7-.7 1.2zM267.8 97.8c-1.2 0-2.3 0-3.5 0-.4 0-.9-.1-1.3 0-2.3.4-4.2-.2-5.1-2.6-.1-.3-.3-.5-.5-.8-.1.1-.3.2-.4.2 0 .7 0 1.4 0 2.1 0 .8-.3 1.1-1.1 1.1-1.9 0-3.9 0-5.8 0-.7 0-1-.2-1-.9 0-3.9 0-7.7 0-11.6 0-.6.3-1 1-1 3.9-.1 7.8-.3 11.6.6 1.5.4 2.9 1 4.2 1.7 1.7 1 1.8 2.8.4 4.1-.5.5-1.2.9-1.9 1.3-.6.3-.8.6-.3 1.1 1.1 1.1 2.2 2.3 3.3 3.4.3.3.4.6.7.9-.1.2-.2.3-.3.4zm-10-7.5c.9 0 1.6-.6 1.6-1.3 0-.7-.8-1.2-1.6-1.2-1 0-.6.9-.7 1.4-.1.6-.1 1.1.7 1.1zM166.3 94.7c0 .7 0 1.3 0 2 0 .9-.3 1.2-1.2 1.2-1.9 0-3.8 0-5.8 0-.8 0-1.1-.3-1.1-1.1 0-3.7 0-7.4 0-11 0-1 .3-1.3 1.3-1.3 3.7-.1 7.4-.3 11.1.5 1.6.4 3.2.8 4.6 1.8 1.6 1.2 1.7 3 .1 4.3-.5.5-1.2.8-1.8 1.1-.6.3-.7.6-.2 1.1 1.1 1.1 2.3 2.3 3.4 3.5.2.2.4.5.6 1-.5.1-.8.1-1.1.1-2.1 0-4.2 0-6.3 0-.8 0-1.3-.3-1.7-1-.5-.8-1-1.5-1.5-2.3-.2 0-.3 0-.4.1zm0-5.7c0 1.2.1 1.3.7 1.3.8 0 1.6-.6 1.7-1.2 0-.6-.8-1.3-1.7-1.3-1.1 0-.6.8-.7 1.2zM501.4 93.4c0 .5 0 1 0 1.5.1 3 .1 3-2.9 3-1.3 0-2.7 0-4 0-.8 0-1.1-.3-1.1-1 0-3.7 0-7.5 0-11.2 0-.8.4-1.1 1.1-1.1 1.9 0 3.9 0 5.8 0 .8 0 1 .3 1 1 0 .6 0 1.2 0 1.8 0 .3.1.6.3 1 .4-.8.9-1.6 1.3-2.4.5-1 1.1-1.5 2.3-1.4 1.9.1 3.9 0 5.8 0 .3 0 .6.2.8.2-.1.3-.1.7-.3.9-1.2 1.5-2.3 3-3.5 4.5-.4.5-.4.9 0 1.3 1.3 1.7 2.7 3.4 4 5.1.2.3.3.6.4 1-.3.1-.6.2-.9.2-2.1 0-4.2 0-6.3 0-.8 0-1.3-.3-1.6-1-.7-1.2-1.3-2.3-2-3.5 0 .1-.1.1-.2.1zM414.9 94.5c-1.6 1.6-3.1 1.7-4.7 0-.1.1-.2.2-.2.3 0 .6 0 1.2 0 1.9 0 .8-.3 1.3-1.2 1.3-1.9 0-3.8 0-5.8 0-.9 0-1.2-.4-1.2-1.2 0-3.6 0-7.2 0-10.8 0-.4.1-1 .4-1.1.4-.1 1-.1 1.4.1 2.2 1.4 4.4 2.9 6.6 4.4 2.2 1.6 2.1 1.6 4.3.2 2.2-1.5 4.3-3 6.5-4.4.2-.1.4-.3.6-.4 1-.4 1.5-.1 1.5 1 0 3.2 0 6.5 0 9.7 0 .4 0 .9 0 1.3 0 .7-.3 1.1-1 1.1-2 0-4 0-6 0-.7 0-1-.3-1-1s0-1.4 0-2.1c-.1-.2-.1-.2-.2-.3zM474 98.2c-2.3-.1-4.4-.4-6.4-1.3-4.1-1.8-4.9-6.8-2.2-9.8 1.4-1.6 3.5-2.3 5.6-2.6 3.2-.4 6.3-.3 9.3 1 2.5 1.1 4.3 4.2 3.6 7-.7 2.9-2.7 4.3-5.3 5-1.6.4-3.1.5-4.6.7zm-1.9-7.1c.1.7.1 1.4.3 2.1.2.6.5 1.2 1.3 1.2s1.3-.4 1.5-1.1c.5-1.4.5-2.8 0-4.2-.3-.7-.6-1.2-1.5-1.2-.8 0-1.2.5-1.4 1.2 0 .7-.1 1.4-.2 2zM118.1 98.1c-3.1.1-5.9-.3-8.2-2.3-1.7-1.5-2.3-3.5-1.9-5.7.6-3.1 2.7-4.5 5.6-5.2 3.1-.8 6.2-.8 9.2.1 3.8 1.1 6 4 4.9 8.2-.5 1.8-1.8 3-3.5 3.8-2 .8-4.1 1.2-6.1 1.1zm1.7-6.9c-.1-.7-.2-1.4-.4-2-.2-.7-.6-1.1-1.4-1.2-.8 0-1.2.4-1.5 1-.5 1.4-.6 2.8 0 4.2.3.7.7 1.2 1.5 1.1.8 0 1.2-.5 1.4-1.2.2-.6.3-1.3.4-1.9zM213 91.2c0-1.9 0-3.7 0-5.6 0-.9.3-1.3 1.2-1.2 3.3.2 6.5.3 9.8.7 2.1.3 4.1 1 5.9 2.1 3 2 3 5.8 0 7.9-1.8 1.3-3.9 2-6.1 2.3-2.8.4-5.6.4-8.4.6-.2 0-.3 0-.5 0-1.8-.1-1.9-.1-1.9-1.9 0-1.7 0-3.3 0-4.9zm8.2-.1s-.1 0 0 0c0 .6 0 1.3 0 1.9 0 .9.3 1.1 1.1.8 1-.4 1.9-1.7 1.8-2.9-.1-1.3-1.2-2.6-2.3-2.7-.2 0-.6.4-.6.6-.1.8 0 1.5 0 2.3zM299.1 88.9c.6-.8 1.1-1.4 1.5-2 .5-.7.8-.6 1.3 0 .2.3.4.5.6.8.2.3.5.6.9 1 .4-.8.9-1.4 1.2-2.1.5-1.7 1.5-2.4 3.4-2.2 1.7.2 3.3 0 5 0 .3 0 .6.1 1 .2-.1.4-.1.8-.3 1.1-1.2 1.9-2.5 3.8-3.7 5.8-1.1 1.8-2.3 3.6-3.4 5.4-.7 1.1-1.7 1.1-2.5.1s-1.6-2.1-2.3-3.2c-.4-.7-.7-.5-1.1 0-.7 1-1.5 2.1-2.2 3.1-.9 1.2-1.7 1.2-2.5-.1-1.4-2.2-2.8-4.5-4.3-6.7-.9-1.5-1.9-3-2.8-4.4-.2-.3-.3-.6-.2-.9 0-.1.5-.2.8-.2 2.1 0 4.3 0 6.4 0 .7 0 1.1.2 1.4.8.6 1.1 1.2 2.2 1.8 3.5zM426.2 91.2c0-1.8 0-3.6 0-5.4 0-1.1.2-1.2 1.2-1.2 3.2 0 6.5 0 9.7 0 .7 0 1 .3 1 1 .2 2.4.1 2.4-2.2 2.4-.3 0-.7-.1-1 0-.3.1-.7.5-.7.7.1.3.4.8.7.8.7.1 1.5 0 2.2 0 .6 0 1 .2 1 .9.1 2.2.1 2.2-2.2 2.2-.3 0-.7 0-1 0-.6 0-.8.3-.8.9 0 .6.3.8.8.8.8 0 1.5 0 2.3 0 .6 0 .8.2.8.8 0 3 .2 2.6-2.5 2.6-2.8 0-5.5 0-8.3 0-1.1 0-1.3-.2-1.3-1.3.3-1.6.3-3.4.3-5.2zM178.9 91.1c0-1.7 0-3.5 0-5.2 0-1.2.2-1.4 1.3-1.4 3.2 0 6.3 0 9.5 0 1.1 0 1.3.2 1.3 1.3 0 2.1 0 2.1-2 2.1-.4 0-.7 0-1.1 0-.5 0-.9.1-.9.8 0 .6.3.9.9.8.7-.1 1.4 0 2.1 0 .6 0 .9.3 1 1 0 2.2 0 2.2-2.2 2.2-.3 0-.6 0-.9 0-.7 0-.9.2-.9.9s.3.8.9.8c.7 0 1.5 0 2.2 0 .6 0 .9.2.9.9-.1 2.7.3 2.6-2.6 2.6-2.7 0-5.4 0-8.2 0-1.2 0-1.4-.2-1.4-1.3.1-1.9.1-3.7.1-5.5zM234.3 91.1c0-1.8 0-3.6 0-5.5 0-.8.3-1.1 1.2-1.1 3.2 0 6.5 0 9.7 0 .8 0 1.1.3 1.1 1.1 0 2.9.1 2.3-2.2 2.3-.3 0-.7-.1-1 0-.3.1-.7.4-.7.7-.1.5.1.9.8.9.8 0 1.6 0 2.4 0 .5 0 .8.2.8.8 0 0 0 .1 0 .1 0 2.8.1 2.2-2.2 2.3-.3 0-.7 0-1 0-.6 0-.8.3-.9.9 0 .6.3.8.8.8.8 0 1.6 0 2.4 0 .5 0 .8.2.8.8.2 2.7.2 2.7-2.5 2.7s-5.4 0-8.2 0c-1.2 0-1.3-.1-1.3-1.3 0-1.9 0-3.7 0-5.5zM207.7 97.9c-2.4-.2-4.9-.7-7.2-.4-2.4.3-4.7.2-7.1.3-.3 0-.6-.1-.8-.2.1-.3.1-.7.3-.9 2.6-3.8 5.2-7.6 7.9-11.4.7-1 1.7-1 2.4 0 2.6 3.8 5.2 7.6 7.8 11.4.2.2.2.6.3.9-.3.1-.6.2-.9.2-1 0-1.9 0-2.7.1 0-.1 0 0 0 0zM380.5 84.5c2.3 0 4.6 0 6.9 0 .8 0 1.1.3 1.1 1.1 0 2.7.1 2.3-2.2 2.3-1.7 0-1.7 0-1.7 1.8 0 2.3 0 4.5 0 6.8 0 1.2-.2 1.4-1.3 1.4-1.8 0-3.6 0-5.4 0-1.3 0-1.4-.1-1.4-1.4 0-2.5 0-5.1 0-7.6 0-.7-.2-1-1-1-.7 0-1.4 0-2.1 0-.6 0-.9-.3-.9-.9-.2-2.3-.1-2.4 2.3-2.4 1.9-.1 3.8-.1 5.7-.1zM334.2 84.5c2.3 0 4.6 0 7 0 .7 0 1 .3 1 1 .1 2.4.1 2.4-2.3 2.4-.2 0-.3 0-.5 0-1.2 0-1.3 0-1.3 1.2 0 2.5 0 4.9 0 7.4 0 1.1-.2 1.2-1.2 1.2-1.9 0-3.8 0-5.7 0-.8 0-1.1-.3-1.1-1.1 0-2.6 0-5.3 0-7.9 0-.7-.2-1-.9-1-.8.1-1.5 0-2.3 0-.5 0-.8-.2-.8-.8 0-.1 0-.1 0-.2-.1-2.4-.1-2.4 2.2-2.4 2 .2 4 .2 5.9.2zM455.6 84.5c2.3 0 4.6 0 6.9 0 .8 0 1.1.3 1.1 1.1 0 2.9.1 2.3-2.2 2.3-1.8 0-1.8 0-1.8 1.7 0 2.3 0 4.6 0 7 0 1.1-.2 1.2-1.2 1.2-1.9 0-3.7 0-5.6 0-.9 0-1.2-.3-1.2-1.2 0-2.6 0-5.1 0-7.7 0-.8-.2-1.1-1-1.1-.7.1-1.5 0-2.2 0-.5 0-.8-.3-.8-.8 0-.1 0-.1 0-.2-.1-2.4-.1-2.4 2.2-2.4 1.9.1 3.8.1 5.8.1zM94 91.2c0-1.9 0-3.7 0-5.6 0-.8.2-1.2 1.1-1.1 3.3 0 6.6 0 9.8 0 .7 0 1 .2 1 .9.1 2.4.2 2.4-2.3 2.4-.3 0-.7-.1-1 0-.3.1-.6.4-.7.7-.1.5.2.8.7.8.8 0 1.5 0 2.3 0 .7 0 1 .2 1 .9 0 2.8.1 2.2-2.2 2.3-1.8 0-1.8 0-1.8 1.9 0 .7 0 1.5 0 2.2 0 .8-.3 1.1-1.1 1.1-1.9 0-3.9 0-5.8 0-.8 0-1-.3-1-1 0-1.8 0-3.6 0-5.5zM540 91.2c0-1.8 0-3.5 0-5.3 0-1.1.2-1.3 1.3-1.3 1.8 0 3.6 0 5.5 0 1.2 0 1.3.1 1.3 1.4 0 2.5 0 5 0 7.5 0 .7.2.9.9.9s1.5 0 2.2 0c.6 0 .9.3.9.9.1 2.5.1 2.5-2.4 2.5-2.8 0-5.5 0-8.3 0-1.3 0-1.4-.2-1.4-1.5 0-1.7 0-3.4 0-5.1zM525.6 91.2c0-1.8 0-3.6 0-5.5 0-.8.3-1.2 1.1-1.2 1.9 0 3.8 0 5.8 0 .9 0 1.2.3 1.2 1.2 0 2.5 0 5.1 0 7.6 0 .8.3 1 1 1s1.4 0 2.1 0c.6 0 .8.2.8.8 0 3 .2 2.6-2.5 2.6-2.8 0-5.5 0-8.3 0-1.2 0-1.3-.1-1.3-1.3.1-1.7.1-3.5.1-5.2zM274 84.2c1.1.3 2.2.6 3.3.9.6.2 1.3.3 1.9.5.2.1.5.3.6.5 0 .2-.2.5-.4.6-1.7.8-1.6 2.5-.8 3.7.4.6.8 1.2 1.2 1.7 1.1 1.6.3 3.3-1.3 4.6-1.5 1.2-3 1.7-5 .8-1-.5-2.2-.6-3.3-.9-.3-.1-.5-.4-.8-.6.2-.2.4-.4.6-.6 1.4-1 2.5-2.2.6-4.4-.3-.4-.7-.8-.9-1.3-.6-1.2-.3-2.4.5-3.4 1.1-1.1 2.3-1.8 3.8-2.1zM522.7 91.2c0 1.8 0 3.6 0 5.4 0 1.1-.2 1.2-1.2 1.2-1.9 0-3.8 0-5.7 0-.9 0-1.2-.4-1.2-1.2 0-3.6 0-7.2 0-10.9 0-.9.4-1.2 1.2-1.2 1.9 0 3.7 0 5.6 0 1.2 0 1.3.2 1.3 1.4 0 1.8 0 3.5 0 5.3zM398.9 91.2c0 1.8 0 3.6 0 5.4 0 1.1-.2 1.2-1.2 1.2-1.9 0-3.8 0-5.7 0-.9 0-1.2-.4-1.2-1.2 0-3.6 0-7.2 0-10.9 0-.9.4-1.2 1.2-1.2 1.9 0 3.7 0 5.6 0 1.1 0 1.3.2 1.3 1.3 0 1.8 0 3.6 0 5.4zM323.8 91.2c0 1.8 0 3.6 0 5.5 0 .8-.2 1.2-1.2 1.2-1.9-.1-3.8 0-5.7 0-.8 0-1.1-.3-1.1-1 0-3.7 0-7.5 0-11.2 0-.7.3-1.1 1.1-1.1 2 0 4 0 5.9 0 .8 0 1 .3 1 1 0 1.8 0 3.7 0 5.6zM559.2 93.2c.1.1.1.2.2.2 1.6.4 1.6.4 1.6 2.2 0 2.3 0 2.3-2.3 2.3-1 0-2 0-3.1 0-.9 0-1.2-.4-1.1-1.2 0-.6 0-1.2 0-1.9 0-1.2.1-1.3 1.3-1.4.1 0 .3-.1.6-.1-.2-.6-.4-1.2-.6-1.7-.7-1.8-1.4-3.7-2.1-5.5-.5-1.3-.3-1.5 1.1-1.5 2.2 0 4.4 0 6.6 0 1 0 1.2.2.8 1.1-.9 2.3-1.7 4.6-2.6 6.8-.3.2-.4.5-.4.7zM24.8 6.6c-.6-.7-1-1.3-1.5-1.9.6-.1 1-.2 1.5-.2 0 .6 0 1.2 0 2.1zM277 29.3c-.2 1.5-.3 3.1-.5 4.6-.1.8-.4 1.7-1.3 1.7-1 0-1.1-1-1.3-1.8-.6-3-.6-6 0-8.9.2-.8.3-1.7 1.2-1.7 1 0 1.2.9 1.4 1.7.2 1.4.4 2.9.5 4.4z" class="st0"/></svg>