<svg xmlns="http://www.w3.org/2000/svg" viewBox="0 0 1006.9 85.1" enable-background="new 0 0 1006.9 85.1"><style type="text/css">.st0{fill:#FFFFFF;}</style><path d="M13.8 79.5h3c4.2 0 5-.8 5-5V7.2c0-1-.5-1-1.1-1-8 .1-16.3 18.4-16.3 29.5H0V2.1h66.8v33.6h-4.4c0-11.1-8.3-29.4-16.3-29.5-.6 0-1.1 0-1.1 1v67.2c0 4.2.8 5 5 5h3v4.2H13.8v-4.1zM62.9 79.5h1.7c3.2 0 5.8-1.9 6.8-4.9L95.7 1.7h9.7l24 74.2c.7 2.2 2.5 3.6 4.8 3.6h1.7v4.2H97.4v-4.2h3.8c2.3 0 3-1.3 3-2.6 0-.4-.1-.9-.2-1.2l-4.8-15.9H80.7l-4.3 13.8c-.2.8-.4 1.5-.4 2.2 0 2.3 1.5 3.6 4.6 3.6h3v4.2H62.9v-4.1zm35-23.9l-7.8-25.5-8 25.5h15.8zM138.5 79.5h3c4.2 0 5-.8 5-5V11.3c0-4.2-.8-5-5-5h-3V2.1H177v4.2h-3c-4.2 0-5 .8-5 5v61.2c0 5.5 1 7.2 4.1 7.2 9.5 0 19.4-16.7 20.4-29.2h4.2l-.8 33.1h-58.4v-4.1zM203.2 79.5h3c4.2 0 5-.8 5-5V11.3c0-4.2-.8-5-5-5h-3V2.1h61v26.8h-4.5c0-14.7-11.1-22.6-22.8-22.8-1 0-3.1.1-3.1.8v32.7c6.7 0 12.5-7.3 12.5-17.4h4.5v39.4h-4.5c0-11.7-5.8-17.8-12.5-17.8l-.1 30.6c0 4 .8 5.5 4.5 5.5 12.1 0 22.5-16.2 23.1-28.8h4.5l-1 32.5h-61.6v-4.1zM283.5 78c-2.5 0-2.8 2.6-3 5.7h-4.3V51.5h4.1c.7 16.4 10.4 27.1 19.4 27.1 5.1 0 10.2-3.6 10.2-11.1 0-19.4-32.8-15.5-32.8-42.2C277.1 9.4 288.3.7 301.6.7c11.2 0 14.9 6.5 18 6.5 1.7 0 2.1-2 2.3-5.1h4.3v27.6h-4.4c-.2-11.5-6.2-24.1-17.1-24.1-5.8 0-9.5 3.9-9.5 10.1 0 17.9 35.4 13.8 35.4 43.2 0 18.1-13.5 25.9-25.5 25.9-11.3.1-17.6-6.8-21.6-6.8zM364.4 43c0-24.9 14.9-42.1 33.8-42.1 19.1 0 34 17.6 34 41.9 0 24.4-14.9 42.3-34.1 42.3-18.8.1-33.7-17.2-33.7-42.1zm42.5 21.1V21.7c0-11.5-3.5-17.2-8.6-17.2-4.9 0-8.5 5.5-8.5 17.2v42.4c0 11.6 3.6 17.3 8.5 17.3 5.1.1 8.6-5.6 8.6-17.3zM438.5 79.5h3c4.2 0 5-.8 5-5V11.3c0-4.2-.8-5-5-5h-3V2.1h61.4v27.5h-4.5c0-14.6-11.7-23.5-23.2-23.5-1.2 0-3.2.1-3.2.8v34.7c7.7 0 13.5-7.9 13.5-18h4.5v39.7h-4.5c0-11.7-5.8-17.5-13.5-17.5l-.1 29.6c.2 3.3 1.2 4 5 4h3v4.2h-38.4v-4.1zM547 20.1v54.3c0 4.2.8 5 5 5h3v4.2h-21v-4.2h3c4.1 0 5-.7 5.1-5l.2-64.3c-.2-3.2-1.2-3.8-5-3.8h-3V2.1h31.6l12.9 49.4 12.6-49.4h30.8v4.2h-3c-4.2 0-5 .8-5 5v63.1c0 4.2.8 5 5 5h3v4.2h-38v-4.2h3c4.2 0 5-.8 5-5V19.1L575 83.6l-11.2.1L547 20.1zM636 63.4V11.3c0-4.2-.8-5-5-5h-3V2.1h37.8v4.2h-2.5c-4.2 0-5 .8-5 5v54.1c0 8.3 4.4 12.3 10.4 12.3s10.6-4 10.6-13.3V11.3c0-4.2-.8-5-5-5h-1.5V2.1h18.4v4.2h-2c-4.2 0-5 .8-5 5v53.1c0 12.8-7.3 20.3-24.1 20.3-18.5.1-24.1-10.2-24.1-21.3zM738.9 62.9c-1.7-11.8-3.7-19.6-11.2-19.6-.9 0-1.1 0-1.3.1v31c0 4.2.8 5 5 5h3v4.2h-38v-4.2h3c4.2 0 5-.8 5-5V11.3c0-4.2-.8-5-5-5h-3V2.1h36.8c19.7 0 30 5.7 30 19.6 0 11.6-7.1 19.3-17.5 20.5v.4c16.5 2.9 18.1 20.6 18.5 25.2.2 1.9-.1 5.1 2 5.1s3.3-3.3 3.7-8.6l4.2.7c-.4 11.7-6.1 19.9-17.4 19.9-14.5.1-16.6-13.6-17.8-22zm1.1-40c0-11.1-3.5-17.3-11.2-17.3-.9 0-1.7.1-2.4.3v33.7c.7.3 1.5.4 2.5.4 7.8 0 11.1-6.3 11.1-17.1zM776.4 0zm2.1 79.5h3c4.2 0 5-.8 5-5V11.3c0-4.2-.8-5-5-5h-3V2.1H814c20.7 0 35.2 12.5 35.2 40.5 0 26.3-13 41-35.2 41h-35.5v-4.1zm47.1-36.6c0-24.3-3.9-36.9-13.9-36.9-.9 0-2 .1-2.7.3v73.1c.7.2 2.6.3 3.4.3 9.3.1 13.2-12.4 13.2-36.8zM856.3 79.5h3c4.2 0 5-.8 5-5V11.3c0-4.2-.8-5-5-5h-3V2.1h60.9v26.8h-4.5c0-14.7-11.1-22.6-22.8-22.8-1 0-3.1.1-3.1.8v32.7c6.7 0 12.5-7.3 12.5-17.4h4.5v39.4h-4.5c0-11.7-5.8-17.8-12.5-17.8l-.1 30.6c0 4 .8 5.5 4.5 5.5 12.1 0 22.5-16.2 23.1-28.8h4.5l-1 32.5h-61.5v-4.1zM971.7 62.9c-1.7-11.8-3.7-19.6-11.2-19.6-.9 0-1.1 0-1.3.1v31c0 4.2.8 5 5 5h3v4.2h-38v-4.2h3c4.2 0 5-.8 5-5V11.3c0-4.2-.8-5-5-5h-3V2.1H966c19.7 0 30 5.7 30 19.6 0 11.6-7.1 19.3-17.5 20.5v.4c16.5 2.9 18.1 20.6 18.5 25.2.2 1.9-.1 5.1 2 5.1s3.3-3.3 3.7-8.6l4.2.7c-.4 11.7-6.1 19.9-17.4 19.9-14.5.1-16.6-13.6-17.8-22zm1.1-40c0-11.1-3.5-17.3-11.2-17.3-.9 0-1.7.1-2.4.3v33.7c.7.3 1.5.4 2.5.4 7.8 0 11.1-6.3 11.1-17.1z" class="st0"/></svg>