<?xml version="1.0" encoding="utf-8"?>
<!-- Generator: Adobe Illustrator 22.0.1, SVG Export Plug-In . SVG Version: 6.00 Build 0)  -->
<svg version="1.1" id="logo_xA0_Image_1_" xmlns="http://www.w3.org/2000/svg" xmlns:xlink="http://www.w3.org/1999/xlink" x="0px"
	 y="0px" viewBox="0 0 115 115" style="enable-background:new 0 0 115 115;" xml:space="preserve">
<style type="text/css">
	.st0{fill:#EDEDED;}
</style>
<g>
	<path class="st0" d="M66,116c-5,0-10,0-15,0c-0.9-0.3-1.8-0.7-2.8-0.9c-22.6-4.8-37.5-18.2-44.8-40c-1-3-1.6-6-2.4-9.1
		c0-5,0-10,0-15c0.3-1.1,0.8-2.2,1-3.3c5-22.3,18.3-37,40-44.3c3-1,6-1.6,9-2.4c5,0,10,0,15,0c0.8,0.3,1.5,0.7,2.3,0.9
		c17.9,3.3,31.6,12.8,40.3,28.7c3.4,6.3,5,13.6,7.4,20.4c0,5,0,10,0,15c-0.4,1.3-0.8,2.5-1.1,3.8c-5.2,22-18.4,36.7-39.9,43.8
		C72.1,114.6,69,115.2,66,116z M114,58.3C113.9,27.9,89,3,58.6,3C27.9,3,2.9,28,3,58.7C3.1,89.1,28,114,58.4,114
		C89.1,114,114.1,89,114,58.3z"/>
	<path class="st0" d="M55,60.8c-5.9,14-11.9,28.2-17.9,42.4c-0.6-0.3-1.3-0.5-1.9-0.8c5.9-13.9,11.7-27.9,17.7-42
		c-0.8-0.4-1.4-0.9-2.2-1.2c-10.6-3.9-16-11.9-15.7-23.4c0.2-9.1,6.6-17.1,16.9-19.8c6.7-1.7,13.6-2.4,20.9-3.6
		c4,28.1,7.8,55.6,11.7,83c-0.6,0.1-1.2,0.2-1.8,0.3c-1.8-12.4-3.6-24.7-5.5-37.4C69.7,59.2,62.7,60,55,60.8z M71.1,14.9
		c-5.9,0.9-11.1,1.5-16.3,2.4c-1.8,0.3-3.5,1-5.2,1.7c-8.4,3.7-13,10.8-12.6,19.1c0.4,8.9,6.3,16.7,14.8,19.3
		c8.5,2.6,16.6-0.2,25.1-1.4C74.9,42.1,73.1,28.8,71.1,14.9z"/>
</g>
</svg>
