<svg xmlns="http://www.w3.org/2000/svg" viewBox="0 0 1126.5 132.2" enable-background="new 0 0 1126.5 132.2"><g fill="#242424"><path d="M39.9 7.3c.9-.5 1.9-1 2.9-1.3 1.5-.4 3-.8 4.5-.9 1.5-.2 3-.1 4.5 0 3.6.2 7.1.8 10 3 2.4 1.7 4.4 3.9 6 6.5 1.4 2.1 2.4 4.5 3.2 6.9.2.6.4 1.2.4 1.8-.1.5-.5 1.1-.9 1.6-1.1 1.4-2.6 2-4.3 2-2.3.1-4.6 0-6.8-.8-1.4-.5-2.7-1.3-3.7-2.4-1.9-1.8-3.7-3.6-5.8-5.3-1.1-.9-2.4-1.4-3.9-.9-1 .3-1.7 1-2.3 1.9.4-.2.8-.5 1.2-.7 1.2-.6 2.4-.5 3.5.4.9.8 1.7 1.7 2.5 2.6 1.7 1.7 3.1 3.6 5 4.9 2.6 2 5.6 2.4 8.7 2 .8-.1 1.6-.2 2.4-.4 2.1-.4 3.4-1.7 4.2-3.7.2.8-.8 2.6-2.6 3.7.2.7.4 1.4.5 2 .8-.2 1.6-.5 2.4-.6 1.2-.2 1.9.5 2.2 1.5.4 1.3.7 2.7.4 4.1-.2 1-.2 2.1-.3 3.1-.3 1.9-.6 3.8-1 5.7-1.4 5.9-3.1 11.7-5.1 17.3-.8 2.3-1.7 4.7-2.7 6.9-.8 1.6-2 3-3.1 4.5-1.5 2-3.1 3.8-4.7 5.7-.8 1-1.7 2-2.6 3.1 4-8.2 4.8-16.9 4.7-25.6-.2 1.4-.3 2.9-.5 4.3-.3 2.3-.5 4.6-.9 6.9-.6 3.6-1.2 7.1-2.4 10.6-.6 1.7-1.4 3.3-2.1 4.9-.7 1.4-1.7 2.7-2 4.3-.4 1.5-.2 3.1-.3 4.7 0 .4.3.7.8.9.8.3 1.7.7 2.5 1.1.5.2.9.2 1.4 0 3.3-1.5 6.6-3 10.1-3.9.1 0 .2-.1.4-.1 1.4.1 2.3-.7 3.2-1.6 2.9-2.8 5.2-6.1 6.8-9.8 1.2-2.7 2-5.5 2.4-8.3.4-2.4.7-4.9.7-7.4 0-1.6.1-3.2.1-4.8 0-14 0-27.9 0-42 0-.3 0-.5 0-.9-.4 0-.7 0-1 0-1.7 0-3.3 0-4.9 0-1.2 0-2.6-.1-3.8-.2-.2 0-.5-.2-.6-.4-.8-1.5-1.8-3-3.1-4.2 0 0 0-.1 0-.2 6.1.1 12.1.2 18.2.3 0 .2 0 .5 0 .8 0 17.3 0 34.7-.1 52 0 2.3-.4 4.6-.7 6.8-.3 2.8-1.1 5.6-2.1 8.3-1.2 3.4-2.9 6.6-5.2 9.4-1.2 1.4-2.5 2.8-3.8 4.2-.8.8-1.8 1.5-2.7 2.3.4 1.1.8 2.3 1.5 3.4 1.1 1.4 1.5 3.1 1.7 4.9.2 2.2-.2 4.3-1.2 6.2-.6 1.1-1.4 2.1-2.3 3.1.9-5.5-.8-10.2-3.8-14.7-.5.3-1.1.7-1.5.9.4 1.6.8 3.1 1.1 4.6.2.9.2 1.8.1 2.7-.2 1.5-.4 3-.8 4.5-.5 1.8-2 2.8-4 3 .4-.8.8-1.6 1.2-2.4.8-1.5 1.5-3 1.7-4.6.1-.6 0-1.2-.2-1.7-.4-1.2-4.1-7.2-5-8.1-.7.4-1.3.9-2 1.2-1 .4-1.2 1.1-1.2 2.1 0 .7 0 1.5 0 2.2 0 .5-.2 1.1-.1 1.7.2 1.8-.2 3.7.6 5.4.5 1.2 1.4 2.3 2.1 3.4.2.4.6.7.8 1.1-.1.1-.1.1-.1.2-1.4-.4-2.8-.8-4.2-1.2.1 1.5.3 3 .3 4.6-.1 4-.7 7.8-2.7 11.4-.5.9-1.2 1.9-1.9 2.9-.9-.9-1.7-1.8-2.5-2.7-.8 1.5-1.8 2.9-3.4 3.8-1.7.9-3.3.7-4.9-.1 0-.7 0-1.3 0-2-.1 0-.2-.1-.3-.1-.2.6-.4 1.2-.7 1.8-.9-.4-1.9-.9-2.8-1.4 2-2.6 2.8-5.7 3.4-8.8-.1-.1-.2-.1-.3-.1-1.1 2.8-2.1 5.6-3.3 8.5-.2-.1-.5 0-.7-.1-.5-.2-.8-.5-.8-1.2.1-2.1 0-4.1 0-6.3-.5.7-1 1.2-1.4 1.8 2.8-4.9 5.8-9.7 7.3-15.2-1.4 2.7-2.8 5.3-4.3 8.1s-2.9 5.6-4.3 8.4c-.3.5-.5.5-1 .2-1.4-.8-2.3-2.1-3.1-3.4-1.1-1.8-2.1-3.6-3.2-5.5-.2-.4-.2-.7.1-1.1 1.8-2.9 3.6-5.9 5.4-8.8.1-.1.1-.1.1-.1-.5-.6-.9-.5-1.4 0-1.3.9-2.8 1.4-4.5 1.8-.2.1-.4.1-.8.2.4-.6.8-.9 1.1-1.4.8-1.2 1.5-2.4 2.1-3.7.2-.5.3-1.1.3-1.7.1-1.7 0-3.4 0-5.1 0-.9-.1-1.9-.1-2.8-.1-.5-.2-.9-.7-1.1-.8-.4-1.7-.9-2.6-1.5-.7.9-1.4 1.9-2 2.9-.9 1.6-1.8 3.3-2.7 4.9-.6 1-.5 2-.2 3 .7 2.2 1.7 4.2 2.8 6.1-1.8-.1-3.6-1.1-4.1-3-.4-1.4-.7-2.9-.9-4.4-.4-3.1.6-5.6 1.4-8.2.2-.8.7-1.5.8-2.3.1-.4-.2-.9-.5-1.4-2 2.6-3.7 5.3-4.9 8.3-1.2 3-1.3 6.2-.8 9.6-1.4-1.2-2.3-2.5-2.9-3.9-.7-1.6-1-3.3-.8-5 .2-2 .7-3.8 1.8-5.4.2-.2.4-.5.5-.8.4-.7.4-1.1-.2-1.8-2-2.1-3.6-4.4-5-6.9-1.8-3.2-3-6.6-3.7-10.1-.4-1.6-.5-3.2-.8-4.8-.5-4-.4-8.1-.4-12 0-15 0-29.9 0-44.9 0-.3 0-.6 0-1 4.9 0 9.8 0 14.8 0-1.9 1-3 2.6-3.4 4.7-2.2 0-4.4 0-6.6 0 0 .3 0 .6 0 .9 0 15.4-.1 30.9.1 46.3 0 4.2.6 8.4 1.8 12.4 1.1 3.7 2.8 7.1 5.2 10 .1.1.1.2.2.4 1.3-.5 2.6-.1 3.8.3 3.2 1.1 6.4 2.4 9.6 3.6.2.1.4.2.5.1 1.4-.7 2.8-1.3 4.2-1.9-1-1.3-2.1-2.5-2.9-3.9-1.2-2-2.2-4.1-3.3-6.1-.1-.3-.4-.5-.7-.7-2-12.5-1.8-24.9 2.3-37.1-.1 0-.1-.1-.2-.1-.7 1.8-1.4 3.6-1.9 5.4-1 3.4-1.7 7-1.9 10.6-.2 3.4-.4 6.9-.1 10.4.2 3.6.9 7.1 1.5 10.6.1.4.1.6-.4.7-.8.1-1.6.2-2.5.4.8-3.5-.5-6.5-1.8-9.4-1.5-3.3-3.1-6.5-4.7-9.9-1-2.2-2.2-4.3-2.6-6.7-.4-2-.7-4-.8-6.1-.1-1.5-.1-3.1 0-4.6.1-2 .4-4 .5-6.1.2-1.7.4-3.3.6-5s.5-3.4.7-5c.1-1.1.2-2.3.3-3.4.1-2 .4-4 .9-5.9.4-1.5 1.1-2.7 2.5-3.4.8-.4 1.8-.7 2.7-.8 1.1-.2 2.1-.1 3.1-.2.1 0 .2 0 .4-.1 1.5-.8 2.8-.1 4 .7.9.5 1.7 1.2 2.6 1.8.1-2 .2-4 .4-5.9.1 0 .1 0 .2-.1.8 2.2 2.7 2.8 4.7 3.3 1.2.3 2.4.2 3.7-.1.3-.1.7-.3.9-.5.5-.5.9-1 1.3-1.5 0-.5.2-.6.3-.8zm17.2 26.8c-1.4-1.2-2.8-2.4-4.4-3.7.1.6 0 1.1.1 1.4.5 1.5.9 3.1 1.5 4.6 1.1 2.9 2.4 5.8 4.3 8.3.8 1.1 1.4 2.3 1.7 3.6.2.7.2 1.5.3 2.3 3-6 4-12.5 5.3-19.2-1.3.7-2.4 1.4-3.5 2-.5-.9-.9-1.8-1.4-2.8-1.3 1.2-2.6 2.3-3.9 3.5zm-24.7 66.7c.9-1.9 2-3.8 2.8-5.7.4-.8.7-1.8.4-2.8-.3-.7-.7-1.4-1-2.3-1.3 1-2.4 1.8-3.6 2.7-.4.3-.6.6-.7 1.1-.3 1.7-.7 3.4-1 5.2.9.6 1.9 1.2 3.1 1.8zm13.3-19.6c-.1 0-.1 0-.2 0-.1 3.1-.2 6.2-.3 9.2-.1 1.2-.1 2.4-.1 3.7 0 .3.2.7.4.9 1.5 1.3 3.1 2.6 4.7 3.9.2.2.5.5.5.7 0 1.1-.2 2.3-.1 3.4.2 2.6 1.2 4.7 2.8 6.7-.1-.2-.1-.4-.2-.5-1.6-3.1-2.3-6.3-1.4-9.7.1-.5-.1-.8-.4-1.1-1.6-1.3-3.2-2.6-4.8-4-.2-.1-.3-.4-.3-.5-.1-2.8-.2-5.5-.3-8.3-.2-1.4-.3-2.9-.3-4.4zm5.5-59.1c-.8.9-1.6.9-2.3.4s-.6-1.6.3-2.6c-.3-.3-.7-.5-.9-.8-.1-.1-.3-.2-.5-.3-.7-.4-1.7.2-1.5.9.5 3.7 3.5 5.1 6.6 4.2-.7-.5-1.2-1.2-1.7-1.8zm-22 56.4c-.2 2.8.1 5.5 1.2 8.1.4-2.9-.1-5.5-1.2-8.1zm17.3 49.4c1.6-1.7.2-5.6-1.2-7.2.4 2.4 1.7 4.6 1.2 7.2zm-29-97.1c-2.8 5.2-2.2 10.6-1.7 16.1.1-.4.1-.8.1-1.1-.1-1.7-.2-3.4-.1-5.1.1-1.8.2-3.6.5-5.3.2-1.6.8-3.1 1.2-4.6zm19.1-10.3c-.7.9-1.2 1.1-3.6 1.8 2 0 3.4-.7 4.2-2.1-1.7-.1-3.4 0-5-.8 1.1 1 2.7 1 4.4 1.1zm4.5-11.2c-.1-.1-.1-.1-.1-.1-.4.3-.7.5-1 .8-1.3 1.2-2.6 2.3-4.5 2.6-1.1.1-2.2.2-3.1.2-.1 0 .1 0 .2.1 2.1.4 4.2.2 6-1.2.9-.8 1.7-1.7 2.5-2.4zM67 44.5c-.2 1.4-.4 2.7-.6 4.1-.2 1.4-.6 2.7-.9 4.1.9-2.7 2-5.4 1.5-8.2zm4.4-9.4c.5 2.7-.5 5.3-.8 8 .8-2.6 1.6-5.2.8-8zm-5.1 24.2c.8-2 1.3-4 1.2-6.2-.4 2-.8 4.1-1.2 6.2zM19.5 19.2c-1.9.8-2.8 2.6-3.7 4.3 1.1-1.5 2-3.2 3.7-4.3zm35.6-8.3c1.6 1.2 3.7 1.5 5.2 3-1.3-1.8-3.4-2.1-5.2-3zm4.9 7.9c-.9-1.8-3.1-1.6-4.6-2.6.8.5 1.6.9 2.4 1.3.7.4 1.4.8 2.2 1.3zM40.2 35.4c.1 0 .1 0 .2 0 .3-1.7 1-3.4.7-5.2-.4 1.8-.7 3.5-.9 5.2zM58.4 8.6c-1.5-.7-3.1-1.4-4.7-.9 1.4.1 3 .5 4.7.9zM18.6 15c1.5-.4 3.1-.7 4.6-.9-1.6-.2-3.2 0-4.6.9zm19.8 12.2c-.6 1.5-1.8 2.4-3 3.4 1.5-.7 2.7-1.7 3-3.4zm-5.1-.4c1.6-.2 3.3-1.2 3.5-2.1-.5.4-1.1.8-1.7 1.2-.5.3-1.1.6-1.8.9zM48.2 10c-.1.1-.1.2-.1.2 1.3.5 2.7.9 4 1.4 0-.1.1-.2.1-.2-1.4-.5-2.7-1-4-1.4zm-3.3 28.5c-.4-1.4-.7-2.6-.9-3.8-.1 1.3.1 2.5.9 3.8zm19.3-22c.8.8 1.7 1.7 2.5 2.6-.5-1.2-1.5-1.9-2.5-2.6zM39.9 7.3c-.1.1-.3.3-.4.4-.2.1-.4.1-.6.2-1.8 1.2-4.3 1.4-6.3.2 2.6-.6 5.2-1.2 7.7-1.7-.2.4-.3.7-.4.9zM27.3 9c0 .8 0 1.5 0 2.4-.6-.7-1.1-1.4-1.8-2.1.8-.2 1.3-.2 1.8-.3z"/></g><g fill="#242424"><path d="M131.6 86.6h3c4.2 0 5-.8 5-5V14.3c0-1-.5-1-1.1-1-8 .1-16.3 18.4-16.3 29.5h-4.4V9.2h66.8v33.6h-4.4c0-11.1-8.3-29.4-16.3-29.5-.6 0-1.1 0-1.1 1v67.2c0 4.2.8 5 5 5h3v4.2h-39.2v-4.1zM180.7 86.6h1.7c3.2 0 5.8-1.9 6.8-4.9l24.3-72.9h9.7l24 74.2c.7 2.2 2.5 3.6 4.8 3.6h1.7v4.2h-38.5v-4.2h3.8c2.3 0 3-1.3 3-2.6 0-.4-.1-.9-.2-1.2L217 66.9h-18.5l-4.3 13.8c-.2.8-.4 1.5-.4 2.2 0 2.3 1.5 3.6 4.6 3.6h3v4.2h-20.7v-4.1zm35-23.9l-7.8-25.5-8 25.5h15.8zM256.3 86.6h3c4.2 0 5-.8 5-5V18.4c0-4.2-.8-5-5-5h-3V9.2h38.5v4.2h-3c-4.2 0-5 .8-5 5v61.2c0 5.5 1 7.2 4.1 7.2 9.5 0 19.4-16.7 20.4-29.2h4.2l-.8 33.1h-58.4v-4.1zM321 86.6h3c4.2 0 5-.8 5-5V18.4c0-4.2-.8-5-5-5h-3V9.2h61V36h-4.5c0-14.7-11.1-22.6-22.8-22.8-1 0-3.1.1-3.1.8v32.7c6.7 0 12.5-7.3 12.5-17.4h4.5v39.4h-4.5c0-11.7-5.8-17.8-12.5-17.8l-.1 30.6c0 4 .8 5.5 4.5 5.5 12.1 0 22.5-16.2 23.1-28.8h4.5l-1 32.5H321v-4.1zM401.3 85.1c-2.5 0-2.8 2.6-3 5.7H394V58.6h4.1c.7 16.4 10.4 27.1 19.4 27.1 5.1 0 10.2-3.6 10.2-11.1 0-19.4-32.8-15.5-32.8-42.2 0-15.9 11.2-24.6 24.5-24.6 11.2 0 14.9 6.5 18 6.5 1.7 0 2.1-2 2.3-5.1h4.3v27.6h-4.4c-.2-11.5-6.2-24.1-17.1-24.1-5.8 0-9.5 3.9-9.5 10.1 0 17.9 35.4 13.8 35.4 43.2 0 18.1-13.5 25.9-25.5 25.9-11.3.1-17.6-6.8-21.6-6.8zM482.2 50.1C482.2 25.2 497.1 8 516 8c19.1 0 34 17.6 34 41.9 0 24.4-14.9 42.3-34.1 42.3-18.8.1-33.7-17.2-33.7-42.1zm42.5 21.1V28.8c0-11.5-3.5-17.2-8.6-17.2-4.9 0-8.5 5.5-8.5 17.2v42.4c0 11.6 3.6 17.3 8.5 17.3 5.1.1 8.6-5.6 8.6-17.3zM556.3 86.6h3c4.2 0 5-.8 5-5V18.4c0-4.2-.8-5-5-5h-3V9.2h61.4v27.5h-4.5c0-14.6-11.7-23.5-23.2-23.5-1.2 0-3.2.1-3.2.8v34.7c7.7 0 13.5-7.9 13.5-18h4.5v39.7h-4.5c0-11.7-5.8-17.5-13.5-17.5l-.1 29.6c.2 3.3 1.2 4 5 4h3v4.2h-38.4v-4.1zM664.8 27.2v54.3c0 4.2.8 5 5 5h3v4.2h-21v-4.2h3c4.1 0 5-.7 5.1-5l.2-64.3c-.2-3.2-1.2-3.8-5-3.8h-3V9.2h31.6l12.9 49.4 12.6-49.4H740v4.2h-3c-4.2 0-5 .8-5 5v63.1c0 4.2.8 5 5 5h3v4.2h-38v-4.2h3c4.2 0 5-.8 5-5V26.2l-17.2 64.5-11.2.1-16.8-63.6zM753.8 70.5V18.4c0-4.2-.8-5-5-5h-3V9.2h37.8v4.2h-2.5c-4.2 0-5 .8-5 5v54.1c0 8.3 4.4 12.3 10.4 12.3s10.6-4 10.6-13.3V18.4c0-4.2-.8-5-5-5h-1.5V9.2H809v4.2h-2c-4.2 0-5 .8-5 5v53.1c0 12.8-7.3 20.3-24.1 20.3-18.5.1-24.1-10.2-24.1-21.3zM856.7 70c-1.7-11.8-3.7-19.6-11.2-19.6-.9 0-1.1 0-1.3.1v31c0 4.2.8 5 5 5h3v4.2h-38v-4.2h3c4.2 0 5-.8 5-5V18.4c0-4.2-.8-5-5-5h-3V9.2H851c19.7 0 30 5.7 30 19.6 0 11.6-7.1 19.3-17.5 20.5v.4c16.5 2.9 18.1 20.6 18.5 25.2.2 1.9-.1 5.1 2 5.1s3.3-3.3 3.7-8.6l4.2.7c-.4 11.7-6.1 19.9-17.4 19.9-14.5.1-16.6-13.6-17.8-22zm1.1-40c0-11.1-3.5-17.3-11.2-17.3-.9 0-1.7.1-2.4.3v33.7c.7.3 1.5.4 2.5.4 7.8 0 11.1-6.3 11.1-17.1zM894.2 7.1v.1-.1zm2.1 79.5h3c4.2 0 5-.8 5-5V18.4c0-4.2-.8-5-5-5h-3V9.2h35.5c20.7 0 35.2 12.5 35.2 40.5 0 26.3-13 41-35.2 41h-35.5v-4.1zM943.4 50c0-24.3-3.9-36.9-13.9-36.9-.9 0-2 .1-2.7.3v73.1c.7.2 2.6.3 3.4.3 9.3.1 13.2-12.4 13.2-36.8zM974.1 86.6h3c4.2 0 5-.8 5-5V18.4c0-4.2-.8-5-5-5h-3V9.2h60.9V36h-4.5c0-14.7-11.1-22.6-22.8-22.8-1 0-3.1.1-3.1.8v32.7c6.7 0 12.5-7.3 12.5-17.4h4.5v39.4h-4.5c0-11.7-5.8-17.8-12.5-17.8l-.1 30.6c0 4 .8 5.5 4.5 5.5 12.1 0 22.5-16.2 23.1-28.8h4.5l-1 32.5h-61.5v-4.1zM1089.5 70c-1.7-11.8-3.7-19.6-11.2-19.6-.9 0-1.1 0-1.3.1v31c0 4.2.8 5 5 5h3v4.2h-38v-4.2h3c4.2 0 5-.8 5-5V18.4c0-4.2-.8-5-5-5h-3V9.2h36.8c19.7 0 30 5.7 30 19.6 0 11.6-7.1 19.3-17.5 20.5v.4c16.5 2.9 18.1 20.6 18.5 25.2.2 1.9-.1 5.1 2 5.1s3.3-3.3 3.7-8.6l4.2.7c-.4 11.7-6.1 19.9-17.4 19.9-14.5.1-16.6-13.6-17.8-22zm1.1-40c0-11.1-3.5-17.3-11.2-17.3-.9 0-1.7.1-2.4.3v33.7c.7.3 1.5.4 2.5.4 7.8 0 11.1-6.3 11.1-17.1z"/></g></svg>