<svg xmlns="http://www.w3.org/2000/svg" viewBox="0 0 623.6 210" enable-background="new 0 0 623.6 210"><style type="text/css">.st0{fill:#FFFFFF;} .st1{fill:#FFFFFF;stroke:#FFFFFF;stroke-width:5;stroke-miterlimit:10;}</style><path d="M65.9 3.8c1.5-.8 3.1-1.6 4.8-2.1C73.2 1 75.6.4 78.1.2c2.5-.3 4.9-.2 7.4 0 5.9.3 11.7 1.3 16.5 4.9 4 2.8 7.3 6.4 9.9 10.7 2.3 3.5 4 7.4 5.3 11.4.3 1 .7 2 .7 3-.2.8-.8 1.8-1.5 2.6-1.8 2.3-4.3 3.3-7.1 3.3-3.8.2-7.6 0-11.2-1.3-2.3-.8-4.5-2.1-6.1-4-3.1-3-6.1-5.9-9.6-8.7-1.8-1.5-4-2.3-6.4-1.5-1.6.5-2.8 1.6-3.8 3.1.7-.3 1.3-.8 2-1.2 2-1 4-.8 5.8.7 1.5 1.3 2.8 2.8 4.1 4.3 2.8 2.8 5.1 5.9 8.2 8.1 4.3 3.3 9.2 4 14.3 3.3 1.3-.2 2.6-.3 4-.7 3.5-.7 5.6-2.8 6.9-6.1.3 1.3-1.3 4.3-4.3 6.1.3 1.2.7 2.3.8 3.3 1.3-.3 2.6-.8 4-1 2-.3 3.1.8 3.6 2.5.7 2.1 1.2 4.5.7 6.8-.3 1.6-.3 3.5-.5 5.1-.5 3.1-1 6.3-1.6 9.4-2.3 9.7-5.1 19.3-8.4 28.5-1.3 3.8-2.8 7.7-4.5 11.4-1.3 2.6-3.3 4.9-5.1 7.4-2.5 3.3-5.1 6.3-7.7 9.4-1.3 1.6-2.8 3.3-4.3 5.1 6.6-13.5 7.9-27.9 7.7-42.2-.3 2.3-.5 4.8-.8 7.1-.5 3.8-.8 7.6-1.5 11.4-1 5.9-2 11.7-4 17.5-1 2.8-2.3 5.4-3.5 8.1-1.2 2.3-2.8 4.5-3.3 7.1-.7 2.5-.3 5.1-.5 7.7 0 .7.5 1.2 1.3 1.5 1.3.5 2.8 1.2 4.1 1.8.8.3 1.5.3 2.3 0 5.4-2.5 10.9-4.9 16.6-6.4.2 0 .3-.2.7-.2 2.3.2 3.8-1.2 5.3-2.6 4.8-4.6 8.6-10.1 11.2-16.2 2-4.5 3.3-9.1 4-13.7.7-4 1.2-8.1 1.2-12.2 0-2.6.2-5.3.2-7.9 0-23.1 0-46 0-69.2 0-.5 0-.8 0-1.5-.7 0-1.2 0-1.6 0-2.8 0-5.4 0-8.1 0-2 0-4.3-.2-6.3-.3-.3 0-.8-.3-1-.7-1.3-2.5-3-4.9-5.1-6.9 0 0 0-.2 0-.3 10.1.2 19.9.3 30 .5 0 .3 0 .8 0 1.3 0 28.5 0 57.2-.2 85.7 0 3.8-.7 7.6-1.2 11.2-.5 4.6-1.8 9.2-3.5 13.7-2 5.6-4.8 10.9-8.6 15.5-2 2.3-4.1 4.6-6.3 6.9-1.3 1.3-3 2.5-4.5 3.8.7 1.8 1.3 3.8 2.5 5.6 1.8 2.3 2.5 5.1 2.8 8.1.3 3.6-.3 7.1-2 10.2-1 1.8-2.3 3.5-3.8 5.1 1.5-9.1-1.3-16.8-6.3-24.2-.8.5-1.8 1.2-2.5 1.5.7 2.6 1.3 5.1 1.8 7.6.3 1.5.3 3 .2 4.5-.3 2.5-.7 4.9-1.3 7.4-.8 3-3.3 4.6-6.6 4.9.7-1.3 1.3-2.6 2-4 1.3-2.5 2.5-4.9 2.8-7.6.2-1 0-2-.3-2.8-.7-2-6.8-11.9-8.2-13.4-1.2.7-2.1 1.5-3.3 2-1.6.7-2 1.8-2 3.5 0 1.2 0 2.5 0 3.6 0 .8-.3 1.8-.2 2.8.3 3-.3 6.1 1 8.9.8 2 2.3 3.8 3.5 5.6.3.7 1 1.2 1.3 1.8-.2.2-.2.2-.2.3-2.3-.7-4.6-1.3-6.9-2 .2 2.5.5 4.9.5 7.6-.2 6.6-1.2 12.9-4.5 18.8-.8 1.5-2 3.1-3.1 4.8-1.5-1.5-2.8-3-4.1-4.5-1.3 2.5-3 4.8-5.6 6.3-2.8 1.5-5.4 1.2-8.1-.2 0-1.2 0-2.1 0-3.3-.2 0-.3-.2-.5-.2-.3 1-.7 2-1.2 3-1.5-.7-3.1-1.5-4.6-2.3 3.3-4.3 4.6-9.4 5.6-14.5-.2-.2-.3-.2-.5-.2-1.8 4.6-3.5 9.2-5.4 14-.3-.2-.8 0-1.2-.2-.8-.3-1.3-.8-1.3-2 .2-3.5 0-6.8 0-10.4-.8 1.2-1.6 2-2.3 3 4.6-8.1 9.6-16 12-25.1-2.3 4.5-4.6 8.7-7.1 13.4-2.5 4.6-4.8 9.2-7.1 13.8-.5.8-.8.8-1.6.3-2.3-1.3-3.8-3.5-5.1-5.6-1.8-3-3.5-5.9-5.3-9.1-.3-.7-.3-1.2.2-1.8 3-4.8 5.9-9.7 8.9-14.5.2-.2.2-.2.2-.2-.8-1-1.5-.8-2.3 0-2.1 1.5-4.6 2.3-7.4 3-.3.2-.7.2-1.3.3.7-1 1.3-1.5 1.8-2.3 1.3-2 2.5-4 3.5-6.1.3-.8.5-1.8.5-2.8.2-2.8 0-5.6 0-8.4 0-1.5-.2-3.1-.2-4.6-.2-.8-.3-1.5-1.2-1.8-1.3-.7-2.8-1.5-4.3-2.5-1.2 1.5-2.3 3.1-3.3 4.8-1.5 2.6-3 5.4-4.5 8.1-1 1.6-.8 3.3-.3 4.9 1.2 3.6 2.8 6.9 4.6 10.1-3-.2-5.9-1.8-6.8-4.9-.7-2.3-1.2-4.8-1.5-7.3-.7-5.1 1-9.2 2.3-13.5.3-1.3 1.2-2.5 1.3-3.8.2-.7-.3-1.5-.8-2.3-3.3 4.3-6.1 8.7-8.1 13.7s-2.1 10.2-1.3 15.8c-2.3-2-3.8-4.1-4.8-6.4-1.2-2.6-1.6-5.4-1.3-8.2.3-3.3 1.2-6.3 3-8.9.3-.3.7-.8.8-1.3.7-1.2.7-1.8-.3-3-3.3-3.5-5.9-7.3-8.2-11.4-3-5.3-4.9-10.9-6.1-16.6-.7-2.6-.8-5.3-1.3-7.9-.6-6.5-.4-13.2-.4-19.7 0-24.7 0-49.3 0-74 0-.5 0-1 0-1.6 8.1 0 16.2 0 24.4 0-3.1 1.6-4.9 4.3-5.6 7.7-3.6 0-7.3 0-10.9 0 0 .5 0 1 0 1.5 0 25.4-.2 50.9.2 76.3 0 6.9 1 13.8 3 20.4 1.8 6.1 4.6 11.7 8.6 16.5.2.2.2.3.3.7 2.1-.8 4.3-.2 6.3.5 5.3 1.8 10.5 4 15.8 5.9.3.2.7.3.8.2 2.3-1.2 4.6-2.1 6.9-3.1-1.6-2.1-3.5-4.1-4.8-6.4-2-3.3-3.6-6.8-5.4-10.1-.2-.5-.7-.8-1.2-1.2-3.3-20.6-3-41 3.8-61.2-.2 0-.2-.2-.3-.2-1.2 3-2.3 5.9-3.1 8.9-1.6 5.6-2.8 11.5-3.1 17.5-.3 5.6-.7 11.4-.2 17.1.3 5.9 1.5 11.7 2.5 17.5.2.7.2 1-.7 1.2-1.3.2-2.6.3-4.1.7 1.3-5.8-.8-10.7-3-15.5-2.5-5.4-5.1-10.7-7.7-16.3-1.6-3.6-3.6-7.1-4.3-11-.7-3.3-1.2-6.6-1.3-10.1-.2-2.5-.2-5.1 0-7.6.2-3.3.7-6.6.8-10.1.3-2.8.7-5.4 1-8.2s.8-5.6 1.2-8.2c.2-1.8.3-3.8.5-5.6.2-3.3.7-6.6 1.5-9.7.7-2.5 1.8-4.5 4.1-5.6 1.3-.7 3-1.2 4.5-1.3 1.8-.3 3.5-.2 5.1-.3.2 0 .3 0 .7-.2 2.5-1.3 4.6-.2 6.6 1.2 1.5.8 2.8 2 4.3 3 .2-3.3.3-6.6.7-9.7.2 0 .2 0 .3-.2 1.3 3.6 4.5 4.6 7.7 5.4 2 .5 4 .3 6.1-.2.5-.2 1.2-.5 1.5-.8.8-.8 1.5-1.6 2.1-2.5-.1-.9.2-1.1.3-1.4zM94.3 48c-2.3-2-4.6-4-7.3-6.1.2 1 0 1.8.2 2.3.8 2.5 1.5 5.1 2.5 7.6 1.8 4.8 4 9.6 7.1 13.7 1.3 1.8 2.3 3.8 2.8 5.9.3 1.2.3 2.5.5 3.8 4.9-9.9 6.6-20.6 8.7-31.6-2.1 1.2-4 2.3-5.8 3.3-.8-1.5-1.5-3-2.3-4.6-2.1 1.9-4.3 3.7-6.4 5.7zM53.6 157.9c1.5-3.1 3.3-6.3 4.6-9.4.7-1.3 1.2-3 .7-4.6-.5-1.2-1.2-2.3-1.6-3.8-2.1 1.6-4 3-5.9 4.5-.7.5-1 1-1.2 1.8-.5 2.8-1.2 5.6-1.6 8.6 1.4 1 3 2 5 2.9zm21.9-32.3c-.2 0-.2 0-.3 0-.2 5.1-.3 10.2-.5 15.2-.2 2-.2 4-.2 6.1 0 .5.3 1.2.7 1.5 2.5 2.1 5.1 4.3 7.7 6.4.3.3.8.8.8 1.2 0 1.8-.3 3.8-.2 5.6.3 4.3 2 7.7 4.6 11-.2-.3-.2-.7-.3-.8-2.6-5.1-3.8-10.4-2.3-16 .2-.8-.2-1.3-.7-1.8-2.6-2.1-5.3-4.3-7.9-6.6-.3-.2-.5-.7-.5-.8-.2-4.6-.3-9.1-.5-13.7-.2-2.3-.4-4.8-.4-7.3zm9.1-97.4c-1.3 1.5-2.6 1.5-3.8.7-1.2-.8-1-2.6.5-4.3-.5-.5-1.2-.8-1.5-1.3-.2-.2-.5-.3-.8-.5-1.2-.7-2.8.3-2.5 1.5.8 6.1 5.8 8.4 10.9 6.9-1.2-.8-2-2-2.8-3zm-36.3 93c-.3 4.6.2 9.1 2 13.4.6-4.8-.2-9.1-2-13.4zm28.5 81.4c2.6-2.8.3-9.2-2-11.9.7 4 2.9 7.6 2 11.9zM29 42.6c-4.6 8.6-3.6 17.5-2.8 26.5.2-.7.2-1.3.2-1.8-.2-2.8-.3-5.6-.2-8.4.2-3 .3-5.9.8-8.7.4-2.7 1.4-5.2 2-7.6zm31.5-17c-1.2 1.5-2 1.8-5.9 3 3.3 0 5.6-1.2 6.9-3.5-2.8-.2-5.6 0-8.2-1.3 1.8 1.6 4.4 1.6 7.2 1.8zm7.4-18.5c-.2-.2-.2-.2-.2-.2-.7.5-1.2.8-1.6 1.3-2.1 2-4.3 3.8-7.4 4.3-1.8.2-3.6.3-5.1.3-.2 0 .2 0 .3.2 3.5.7 6.9.3 9.9-2 1.5-1.2 2.8-2.7 4.1-3.9zm42.7 58c-.3 2.3-.7 4.5-1 6.8-.3 2.3-1 4.5-1.5 6.8 1.5-4.5 3.3-8.9 2.5-13.6zm7.3-15.5c.8 4.5-.8 8.7-1.3 13.2 1.3-4.3 2.6-8.5 1.3-13.2zm-8.4 39.9c1.3-3.3 2.1-6.6 2-10.2-.7 3.3-1.4 6.8-2 10.2zM32.3 23.4c-3.1 1.3-4.6 4.3-6.1 7.1 1.8-2.5 3.3-5.3 6.1-7.1zM91 9.8c2.6 2 6.1 2.5 8.6 4.9-2.2-3-5.6-3.5-8.6-4.9zm8.1 13c-1.5-3-5.1-2.6-7.6-4.3 1.3.8 2.6 1.5 4 2.1 1.1.7 2.3 1.3 3.6 2.2zM66.4 50.1c.2 0 .2 0 .3 0 .5-2.8 1.6-5.6 1.2-8.6-.6 3-1.1 5.8-1.5 8.6zM96.4 6c-2.5-1.2-5.1-2.3-7.7-1.5 2.3.1 4.9.8 7.7 1.5zM30.8 16.5c2.5-.7 5.1-1.2 7.6-1.5-2.6-.3-5.3 0-7.6 1.5zm32.7 20.1c-1 2.5-3 4-4.9 5.6 2.4-1.1 4.4-2.8 4.9-5.6zm-8.4-.6c2.6-.3 5.4-2 5.8-3.5-.8.7-1.8 1.3-2.8 2-.9.5-1.9 1-3 1.5zM79.6 8.3c-.2.2-.2.3-.2.3 2.1.8 4.5 1.5 6.6 2.3 0-.2.2-.3.2-.3-2.3-.8-4.4-1.7-6.6-2.3zm-5.4 46.9c-.7-2.3-1.2-4.2-1.5-6.2-.2 2.1.2 4.1 1.5 6.2zM106 19c1.3 1.3 2.8 2.8 4.1 4.3-.8-2-2.4-3.2-4.1-4.3zM65.9 3.8c-.2.2-.5.5-.7.7-.3.2-.7.2-1 .3-3 2-7.1 2.3-10.4.3 4.3-1 8.6-2 12.7-2.8-.2.7-.4 1.2-.6 1.5zM45.2 6.6c0 1.3 0 2.5 0 4-1-1.2-1.8-2.3-3-3.5 1.3-.3 2.2-.3 3-.5zM164.5 85.7h3c4.2 0 5-.8 5-5V13.4c0-1-.5-1-1.1-1-8 .1-16.3 18.4-16.3 29.5h-4.4V8.3h66.8v33.6h-4.4c0-11.1-8.3-29.4-16.3-29.5-.6 0-1.1 0-1.1 1v67.2c0 4.2.8 5 5 5h3v4.2h-39.2v-4.1zM213.6 85.7h1.7c3.2 0 5.8-1.9 6.8-4.9l24.3-72.9h9.7l24 74.2c.7 2.2 2.5 3.6 4.8 3.6h1.7v4.2h-38.5v-4.2h3.8c2.3 0 3-1.3 3-2.6 0-.4-.1-.9-.2-1.2L249.9 66h-18.5l-4.3 13.8c-.2.8-.4 1.5-.4 2.2 0 2.3 1.5 3.6 4.6 3.6h3v4.2h-20.7v-4.1zm35-23.9l-7.8-25.5-8 25.5h15.8zM289.2 85.7h3c4.2 0 5-.8 5-5V17.5c0-4.2-.8-5-5-5h-3V8.3h38.5v4.2h-3c-4.2 0-5 .8-5 5v61.2c0 5.5 1 7.2 4.1 7.2 9.5 0 19.4-16.7 20.4-29.2h4.2l-.8 33.1h-58.4v-4.1zM353.9 85.7h3c4.2 0 5-.8 5-5V17.5c0-4.2-.8-5-5-5h-3V8.3h61v26.8h-4.5c0-14.7-11.1-22.6-22.8-22.8-1 0-3.1.1-3.1.8v32.7c6.7 0 12.5-7.3 12.5-17.4h4.5v39.4H397c0-11.7-5.8-17.8-12.5-17.8l-.1 30.6c0 4 .8 5.5 4.5 5.5 12.1 0 22.5-16.2 23.1-28.8h4.5l-1 32.5h-61.6v-4.1zM434.2 84.2c-2.5 0-2.8 2.6-3 5.7h-4.3V57.7h4.1c.7 16.4 10.4 27.1 19.4 27.1 5.1 0 10.2-3.6 10.2-11.1 0-19.4-32.8-15.5-32.8-42.2 0-15.9 11.2-24.6 24.5-24.6 11.2 0 14.9 6.5 18 6.5 1.7 0 2.1-2 2.3-5.1h4.3v27.6h-4.4c-.2-11.5-6.2-24.1-17.1-24.1-5.8 0-9.5 3.9-9.5 10.1 0 17.9 35.4 13.8 35.4 43.2 0 18.1-13.5 25.9-25.5 25.9-11.3.1-17.6-6.8-21.6-6.8zM504.6 51.6c0-12.7 7.6-21.4 17.2-21.4 9.7 0 17.3 8.9 17.3 21.3S531.5 73 521.8 73c-9.7.1-17.2-8.7-17.2-21.4zm21.6 10.7V40.8c0-5.8-1.8-8.7-4.4-8.7-2.5 0-4.3 2.8-4.3 8.7v21.6c0 5.9 1.8 8.8 4.3 8.8 2.6 0 4.4-2.9 4.4-8.9zM542.2 70.2h1.5c2.1 0 2.5-.4 2.5-2.5V35.5c0-2.1-.4-2.5-2.5-2.5h-1.5v-2.1h31.2v14h-2.3c0-7.4-5.9-11.9-11.8-11.9-.6 0-1.6.1-1.6.4V51c3.9 0 6.9-4 6.9-9.1h2.3v20.2h-2.3c0-5.9-2.9-8.9-6.9-8.9l-.1 15c.1 1.7.6 2 2.5 2h1.5v2.1h-19.5v-2.1zM163.7 120v54.3c0 4.2.8 5 5 5h3v4.2h-21v-4.2h3c4.1 0 5-.7 5.1-5l.2-64.3c-.2-3.2-1.2-3.8-5-3.8h-3V102h31.6l12.9 49.4 12.6-49.4h30.8v4.2h-3c-4.2 0-5 .8-5 5v63.1c0 4.2.8 5 5 5h3v4.2h-38v-4.2h3c4.2 0 5-.8 5-5V119l-17.2 64.5-11.2.1-16.8-63.6zM252.7 163.3v-52.1c0-4.2-.8-5-5-5h-3V102h37.8v4.2H280c-4.2 0-5 .8-5 5v54.1c0 8.3 4.4 12.3 10.4 12.3s10.6-4 10.6-13.3v-53.1c0-4.2-.8-5-5-5h-1.5V102h18.4v4.2h-2c-4.2 0-5 .8-5 5v53.1c0 12.8-7.3 20.3-24.1 20.3-18.5.1-24.1-10.2-24.1-21.3zM355.6 162.8c-1.7-11.8-3.7-19.6-11.2-19.6-.9 0-1.1 0-1.3.1v31c0 4.2.8 5 5 5h3v4.2h-38v-4.2h3c4.2 0 5-.8 5-5v-63.1c0-4.2-.8-5-5-5h-3V102h36.8c19.7 0 30 5.7 30 19.6 0 11.6-7.1 19.3-17.5 20.5v.4c16.5 2.9 18.1 20.6 18.5 25.2.2 1.9-.1 5.1 2 5.1s3.3-3.3 3.7-8.6l4.2.7c-.4 11.7-6.1 19.9-17.4 19.9-14.5.1-16.6-13.6-17.8-22zm1.1-40c0-11.1-3.5-17.3-11.2-17.3-.9 0-1.7.1-2.4.3v33.7c.7.3 1.5.4 2.5.4 7.8 0 11.1-6.3 11.1-17.1zM393.1 99.9v.1-.1zm2.1 79.5h3c4.2 0 5-.8 5-5v-63.2c0-4.2-.8-5-5-5h-3V102h35.5c20.7 0 35.2 12.5 35.2 40.5 0 26.3-13 41-35.2 41h-35.5v-4.1zm47.1-36.6c0-24.3-3.9-36.9-13.9-36.9-.9 0-2 .1-2.7.3v73.1c.7.2 2.6.3 3.4.3 9.3.1 13.2-12.4 13.2-36.8zM473 179.4h3c4.2 0 5-.8 5-5v-63.2c0-4.2-.8-5-5-5h-3V102h60.9v26.8h-4.5c0-14.7-11.1-22.6-22.8-22.8-1 0-3.1.1-3.1.8v32.7c6.7 0 12.5-7.3 12.5-17.4h4.5v39.4H516c0-11.7-5.8-17.8-12.5-17.8l-.1 30.6c0 4 .8 5.5 4.5 5.5 12.1 0 22.5-16.2 23.1-28.8h4.5l-1 32.5H473v-4.1zM588.4 162.8c-1.7-11.8-3.7-19.6-11.2-19.6-.9 0-1.1 0-1.3.1v31c0 4.2.8 5 5 5h3v4.2h-38v-4.2h3c4.2 0 5-.8 5-5v-63.1c0-4.2-.8-5-5-5h-3V102h36.8c19.7 0 30 5.7 30 19.6 0 11.6-7.1 19.3-17.5 20.5v.4c16.5 2.9 18.1 20.6 18.5 25.2.2 1.9-.1 5.1 2 5.1s3.3-3.3 3.7-8.6l4.2.7c-.4 11.7-6.1 19.9-17.4 19.9-14.5.1-16.6-13.6-17.8-22zm1.1-40c0-11.1-3.5-17.3-11.2-17.3-.9 0-1.7.1-2.4.3v33.7c.7.3 1.5.4 2.5.4 7.8 0 11.1-6.3 11.1-17.1z" class="st0"/><path d="M504.6 82.3h68.8" class="st1"/></svg>