<svg xmlns="http://www.w3.org/2000/svg" viewBox="0 0 729.5 81.6" enable-background="new 0 0 729.5 81.6"><style type="text/css">.st0{fill:#FFFFFF;}</style><path d="M13.8 77.4h3c4.2 0 5-.8 5-5V5.1c0-1-.5-1-1.1-1-8 .1-16.3 18.4-16.3 29.5H0V0h66.8v33.6h-4.4c0-11.1-8.3-29.4-16.3-29.5-.6 0-1.1 0-1.1 1v67.2c0 4.2.8 5 5 5h3v4.2H13.8v-4.1zM66.8 68.7h1.3c2.4 0 4.3-1.4 5.1-3.7l18.2-54.7h7.3l18 55.6c.5 1.6 1.9 2.7 3.6 2.7h1.3v3.2H92.7v-3.2h2.8c1.7 0 2.2-1 2.2-1.9 0-.3-.1-.7-.1-.9L94 53.9H80.2L77 64.3c-.2.6-.3 1.1-.3 1.6 0 1.7 1.1 2.7 3.5 2.7h2.2v3.1H66.8v-3zm26.3-17.9l-5.8-19.1-6 19.1h11.8zM123.5 68.7h2.2c3.2 0 3.8-.6 3.8-3.8V17.6c0-3.1-.6-3.8-3.8-3.8h-2.2v-3.1h28.9v3.1h-2.2c-3.2 0-3.8.6-3.8 3.8v45.9c0 4.1.8 5.4 3.1 5.4 7.1 0 14.5-12.5 15.3-21.9h3.2l-.6 24.8h-43.8l-.1-3.1zM172 68.7h2.2c3.2 0 3.8-.6 3.8-3.8V17.6c0-3.1-.6-3.8-3.8-3.8H172v-3.1h45.8v20.1h-3.4c0-11-8.3-17-17.1-17.1-.8 0-2.3.1-2.3.6v24.5c5 0 9.4-5.5 9.4-13h3.4v29.6h-3.4c0-8.8-4.3-13.3-9.4-13.3l-.1 22.9c0 3 .6 4.1 3.4 4.1 9.1 0 16.9-12.2 17.3-21.6h3.4l-.8 24.4H172v-3.2zM232.2 67.6c-1.9 0-2.1 1.9-2.2 4.3h-3.2V47.7h3.1c.5 12.3 7.8 20.3 14.5 20.3 3.8 0 7.7-2.7 7.7-8.3 0-14.6-24.6-11.6-24.6-31.7 0-11.9 8.4-18.5 18.4-18.5 8.4 0 11.2 4.9 13.5 4.9 1.3 0 1.6-1.5 1.7-3.8h3.2v20.7H261c-.1-8.6-4.6-18.1-12.8-18.1-4.3 0-7.1 2.9-7.1 7.6 0 13.4 26.6 10.3 26.6 32.4 0 13.6-10.1 19.4-19.1 19.4-8.6.2-13.4-5-16.4-5zM277 41.2c0-12.4 7.4-21 16.9-21 9.5 0 17 8.8 17 21s-7.5 21.1-17 21.1S277 53.7 277 41.2zm21.2 10.6V30.6c0-5.8-1.8-8.6-4.3-8.6s-4.2 2.8-4.2 8.6v21.2c0 5.8 1.8 8.7 4.2 8.7 2.6 0 4.3-2.9 4.3-8.7zM314 59.5h1.5c2.1 0 2.5-.4 2.5-2.5V25.4c0-2.1-.4-2.5-2.5-2.5H314v-2.1h30.7v13.8h-2.2c0-7.3-5.9-11.7-11.6-11.7-.6 0-1.6 0-1.6.4v17.3c3.9 0 6.8-4 6.8-9h2.2v19.9H336c0-5.9-2.9-8.8-6.8-8.8v14.8c.1 1.7.6 2 2.5 2h1.5v2.1H314v-2.1zM362 18v54.3c0 4.2.8 5 5 5h3v4.2h-21v-4.2h3c4.1 0 5-.7 5.1-5l.2-64.3c-.2-3.2-1.2-3.8-5-3.8h-3V0h31.6l12.9 49.4L406.4 0h30.8v4.2h-3c-4.2 0-5 .8-5 5v63.1c0 4.2.8 5 5 5h3v4.2h-38v-4.2h3c4.2 0 5-.8 5-5V17L390 81.5l-11.2.1L362 18zM451.4 56.9v-39c0-3.2-.6-3.8-3.8-3.8h-2.2V11h28.3v3.1h-1.9c-3.1 0-3.8.6-3.8 3.8v40.6c0 6.2 3.3 9.2 7.8 9.2s7.9-3 7.9-10V17.9c0-3.2-.6-3.8-3.8-3.8h-.9V11h13.8v3.1h-1.5c-3.2 0-3.8.6-3.8 3.8v39.8c0 9.6-5.5 15.2-18.1 15.2-13.8.1-18-7.6-18-16zM528.5 56.6c-1.3-8.8-2.8-14.7-8.4-14.7-.7 0-.8 0-1 .1v23.2c0 3.2.6 3.8 3.8 3.8h2.2v3.2h-28.5V69h2.2c3.1 0 3.8-.6 3.8-3.8V17.9c0-3.2-.6-3.8-3.8-3.8h-2.2V11h27.6c14.8 0 22.5 4.3 22.5 14.7 0 8.7-5.3 14.5-13.1 15.4v.3c12.4 2.2 13.6 15.5 13.9 18.9.1 1.4-.1 3.8 1.5 3.8s2.5-2.5 2.8-6.4l3.2.5c-.3 8.8-4.6 14.9-13 14.9-11 0-12.6-10.2-13.5-16.5zm.9-30c0-8.3-2.6-13-8.4-13-.7 0-1.3.1-1.8.2v25.3c.5.2 1.1.3 1.9.3 5.8 0 8.3-4.7 8.3-12.8zM556.7 9.4zm1.5 59.6h2.2c3.2 0 3.8-.6 3.8-3.8V17.9c0-3.2-.6-3.8-3.8-3.8h-2.2V11h26.6c15.5 0 26.4 9.4 26.4 30.4 0 19.7-9.8 30.8-26.4 30.8h-26.6V69zm35.4-27.4c0-18.2-2.9-27.7-10.4-27.7-.7 0-1.5.1-2 .2v54.8c.5.2 2 .2 2.5.2 6.9.1 9.9-9.2 9.9-27.5zM616.6 69h2.2c3.2 0 3.8-.6 3.8-3.8V17.9c0-3.2-.6-3.8-3.8-3.8h-2.2V11h45.7v20.1h-3.4c0-11-8.3-17-17.1-17.1-.8 0-2.3.1-2.3.6v24.5c5 0 9.4-5.5 9.4-13h3.4v29.6h-3.4c0-8.8-4.3-13.4-9.4-13.4l-.1 23c0 3 .6 4.1 3.4 4.1 9.1 0 16.9-12.2 17.3-21.6h3.4l-.8 24.4h-46.1V69zM703.1 56.6c-1.3-8.8-2.8-14.7-8.4-14.7-.7 0-.8 0-1 .1v23.2c0 3.2.6 3.8 3.8 3.8h2.2v3.2h-28.5V69h2.2c3.1 0 3.8-.6 3.8-3.8V17.9c0-3.2-.6-3.8-3.8-3.8h-2.2V11h27.6c14.8 0 22.5 4.3 22.5 14.7 0 8.7-5.3 14.5-13.1 15.4v.3c12.4 2.2 13.6 15.5 13.9 18.9.1 1.4-.1 3.8 1.5 3.8s2.5-2.5 2.8-6.4l3.1.5c-.3 8.8-4.6 14.9-13.1 14.9-10.8 0-12.4-10.2-13.3-16.5zm.9-30c0-8.3-2.6-13-8.4-13-.7 0-1.3.1-1.8.2v25.3c.5.2 1.1.3 1.9.3 5.8 0 8.3-4.7 8.3-12.8z" class="st0"/></svg>