<svg xmlns="http://www.w3.org/2000/svg" viewBox="0 0 1274.7 90.8" enable-background="new 0 0 1274.7 90.8"><style type="text/css">.st0{fill:#242424;}</style><path d="M582.5 90.8c0-2.3 0-4.7 0-6.9 11.4-4.2 12.3-5.2 12.4-17.2.2-15.4.1-30.8 0-46.3 0-11.6-.7-12.4-12-14.6-.1-1.8-.3-3.8-.4-5.8 12.9 0 25.8 0 38.8 0 .4 1.3.7 2.7 1.3 4 6.6 14.2 13.3 28.4 20 42.6 1.8 3.8 3.6 7.5 5.6 11.9 9.6-20 18.8-39.2 28-58.5 12.6 0 25.2 0 37.8 0 0 2 0 4 0 5.9-11.2 1.4-12.8 1-12.8 14.7 0 16.5 0 33 0 49.6 0 10.8 1.2 12 12 13 .2 0 .5.3.8.6 0 2.3 0 4.6 0 6.9-16.7 0-33.4 0-50.1 0 0-2.5 0-5 0-7.4 11.7-1.2 12.8-2.3 12.8-13.8 0-14.5 0-29 0-43.5 0-1.5-.2-3.1-.3-4.6-.3 0-.7 0-1 0-10.8 23.1-21.5 46.2-32.3 69.2-1.9 0-3.8 0-5.7 0-11.1-23.1-22.1-46.1-33.2-69.2-.9 13.9-.9 27.4-.9 41 0 3.3 0 6.6.4 9.9.7 6 3.1 8.6 8.9 10.1 1.2.3 2.4.6 3.9 1 0 2.5 0 4.8 0 7.2-11.3.2-22.6.2-34 .2zM891.7 90.8c-16.7 0-33.4 0-50.1 0 .1-2.5.3-4.9.4-7.3 11.8-1.5 12.8-2.6 12.8-14.3 0-16.8 0-33.7 0-50.5 0-9.8-1.7-11.5-11.2-12.3-.6 0-1.1-.4-1.7-.6-.1-2.1-.2-3.9-.3-5.8 23 0 46 0 69 0 1.5.8 3 1.6 4.5 2.4 8.6 4.4 13.2 11.6 13.2 21.2s-5 16.3-13.6 20.3c-1.3.6-2.6 1.3-3.3 1.6 6.1 8.9 12.1 17.5 18.1 26.1 3.8 5.5 7.4 11.1 15.2 11.7 0 2.8 0 5.1 0 7.4-10.1 0-20.2 0-30.3 0-7-11.9-13.9-23.9-21-35.6-3.2-5.2-8.4-5.1-14.1-4.5 0 6.9 0 13.5 0 20.1 0 10.2 1.3 11.6 11.5 12.5.2 0 .5.3.9.7 0 2.2 0 4.5 0 6.9zm-12.3-49.2c8.4-.2 16.9 1.3 21.6-7.7 3.3-6.4 2.5-17.9-1.7-21.9-5.6-5.4-12.7-4.8-19.8-4.4-.1 11.5-.1 22.4-.1 34zM1222.7 90.8c-16.7 0-33.4 0-50.1 0 0-2.5 0-4.9 0-7.4 11.6-1.4 12.4-2.3 12.5-14 0-16.2 0-32.4 0-48.6 0-12.7-.2-12.9-12.5-14.9 0-1.9 0-3.9 0-5.9 22.7 0 45.4 0 68.1 0 2 1 4 1.8 5.9 2.9 8.2 4.7 12.4 11.8 12.1 21.4-.2 9.1-5 15.3-12.9 19.3-1.5.7-3 1.4-4.5 2.1 2.9 3.6 5.8 6.9 8.3 10.5 4.6 6.5 9.1 13.2 13.6 19.8 2.8 4.1 6.6 6.7 11.6 7.2 0 2.5 0 5 0 7.6-9.8 0-19.5 0-29.3 0-6.9-11.5-13.7-23-20.7-34.3-3.6-5.8-7.9-7.2-15.2-5.4 0 6.2 0 12.5 0 18.8 0 10.9 1.2 12.2 11.8 13.4.3 0 .5.4.7.6.1 2.2.3 4.6.6 6.9zm-13.1-49.2c8.3-.3 16.8 1.4 21.6-7.4 3.4-6.2 2.6-17.5-1.3-22-3.6-4.1-13.8-6.2-20.3-4 0 10.8 0 21.8 0 33.4zM955.1 0c22.7 0 45.4 0 68.1 0 .7.4 1.3.8 2 1.1 19.6 7.8 29.9 22.6 30.2 43.5.4 22.9-13.9 40.7-35.9 44.9-2.2.4-4.5.9-6.7 1.3-19.2 0-38.5 0-57.7 0 0-2.5 0-4.9 0-7.3 10.7-1.8 11.7-3 11.8-13.8.1-9.4.1-18.8 0-28.3-.1-8.9 0-17.9-.4-26.8-.2-5.6-2.3-7.4-7.9-8-1.1-.1-2.1-.2-3.5-.3 0-2.3 0-4.3 0-6.3zm36.1 6.9c0 3.9 0 8 0 12 0 17.5-.1 35 0 52.4 0 8.5 2.7 10.9 11.1 10.9 11.3 0 19-5.4 22.4-16.6 4-13.1 4.3-26.4.2-39.5-4.5-14.5-18.8-22.6-33.7-19.2zM289.4 90.8c.1-2.3.2-4.7.3-6.9.4-.3.7-.6.9-.6 10.4-1.1 11.5-2.4 11.5-13 0-16.1.2-32.2-.1-48.2-.2-11.1 2.6-14-12.3-16.5-.1-1.8-.2-3.7-.4-5.5 26.5 0 53 0 79.4 0 0 7.4 0 14.7 0 22.2-6.3 1.4-6.5 1.5-9.1-4.8-3-7.3-8-10.9-16-10.6-5.5.2-10.9 0-16.7 0 0 10.6 0 20.6 0 30.6 10.9 3.7 16.6.6 18.6-10.2 2.3 0 4.6 0 7.2 0 0 10.4 0 20.5 0 31-2.4 0-4.6 0-6.9 0-2.9-11.5-4.6-12.4-19.3-10.9 0 4 0 8.2 0 12.4 0 4.9.1 9.8.1 14.6 0 4.1 2.1 6.2 5.9 7.3 15.3 4.4 26.9-.9 32.1-15.8 1.9-5.4 4.5-6.3 9.6-4.9 0 9.9 0 19.9 0 29.9-28.1-.1-56.5-.1-84.8-.1zM1151.8 0c0 7.4 0 14.7 0 22.5-3.6.5-7.2 1.2-8.9-4.8-2.3-7.9-8.2-11.5-16.6-11-5.3.3-10.6.1-16.3.1 0 10.6 0 20.6 0 30.6 10.8 3.7 16.6.7 18.7-10.1 2.4 0 4.8 0 7.5 0 0 10.3 0 20.3 0 30.8-2.4 0-4.8 0-7.3 0-3-11.3-5.7-12.8-18.7-10.7 0 9.8-.3 19.7.3 29.5.1 1.8 4.1 4.6 6.5 4.9 18.7 2.4 25.2-.9 31.5-16.9.5-1.3.9-2.7 1.4-4.2 2.4 0 4.7 0 7.4 0 0 10.1 0 20.2 0 30.2-28.4 0-56.7 0-85.1 0 .1-2.5.3-4.9.4-7.3 11.7-1.5 12.7-2.6 12.7-14.4 0-16.7 0-33.4 0-50 0-10.1-1.1-11.3-10.7-12.8-.6-.1-1.2-.3-2-.5-.1-1.9-.3-3.8-.4-5.6 26.6-.3 53.1-.3 79.6-.3zM727.2 0c16.4 0 32.8 0 49.2 0-.3 2.1-.7 4.2-1 6.2-9.8.9-11.8 2-11.8 9.6-.2 16.5 0 33 .8 49.5.4 9.1 7 15.3 15.8 17.1 15.5 3.2 27.6-6.2 28.3-22.6.5-12.4.3-24.9.3-37.3 0-11.3-2.3-14.2-13.4-16.5 0-1.9 0-3.9 0-5.9 11.3 0 22.7 0 34 0 0 2 0 4 0 5.9-9.6 2.9-11.4 5.3-11.5 15.3-.1 11.5 0 22.9 0 34.4-.1 12.7-3.3 24-15.1 31-2.7 1.6-5.6 2.8-8.4 4.2-10.7 0-21.4 0-32.2 0-1.6-.9-3.2-1.8-4.9-2.6-11.2-5.3-16.9-14.2-17.8-26.3-.4-5.3-.4-10.7-.5-16-.1-10.5 0-21-.4-31.5-.2-5.7-2.2-7.2-7.9-7.9-1.1-.1-2.1-.2-3.5-.4 0-2.2 0-4.2 0-6.2zM417 90.8c-4.1-2.5-8.2-5.1-12.4-7.7-1 1.9-1.5 4.8-3.3 5.9-1.6 1.1-4.5.2-7 .2 0-10.6 0-20.8 0-31.3 2.7 0 5.2 0 7.7 0 1.9 4.5 3.4 9.2 5.7 13.4 3.9 7.1 10 11.6 18.4 12.3 6.1.5 10.9-2.4 12.8-7.6 1.9-5 .2-10.5-5.2-13.8-6.1-3.8-12.7-6.9-19-10.4-3.2-1.7-6.4-3.4-9.3-5.5-15.4-10.9-15.5-32.7-.4-43.9 1.1-.8 2.3-1.7 3.4-2.5 14.8 0 29.6 0 44.4 0 0 8.4 0 16.9 0 25.1-7.5 1.8-7.4 1.7-10-4.4-3.4-7.8-8.2-14.3-17.5-15.3-5.6-.6-10.4 2-12 6.3-1.7 4.4-.3 9.8 4.1 13 3.7 2.6 7.9 4.4 11.9 6.6 5.3 2.8 10.8 5.2 15.9 8.2 20.2 12 20 37.6-.2 49.5-.9.5-1.7 1.2-2.6 1.8-8.4.1-16.9.1-25.4.1zM144.7 0c8.9 21.9 17.7 43.7 26.6 65.6.9 2.2 1.8 4.3 2.8 6.5 2.4 5.6 5.5 10.3 12.3 11.1.3 2.7.6 5.2.9 7.6-15.4 0-30.9 0-46.3 0 0-2.5 0-4.9 0-7.3 10.1-1.5 10.4-1.9 6.7-11.3-.5-1.2-.6-2.6-1.4-3.5-1-1.1-2.4-2.5-3.7-2.5-7.5-.2-15.1-.2-22.6-.1-1 0-2.7.4-2.8 1-1.2 4-3.2 8.1-2.9 12 .3 4 5 3.4 8 4.2.3.1.5.4.8.6 0 2.2 0 4.6 0 6.9-10.1 0-20.2 0-30.3 0 0-2.3 0-4.7 0-7.3 8.2-1.9 11.5-8.4 14.3-15.4 8.7-21.8 17.4-43.7 26.1-65.5.3-.9.8-1.7 1.2-2.5 3.3-.1 6.8-.1 10.3-.1zm-2.9 57.6c-3.7-8.7-7.1-17.1-11-26.4-3.6 9.2-7 17.6-10.4 26.4 7.3 0 14 0 21.4 0zM91.7 0c0 8.2 0 16.3 0 24.4-7 1.5-7.1 1.4-9.1-4.8-3.1-9.6-7-12.4-17.3-12.5-2.3 0-4.7 0-7.6 0 0 2.1 0 3.8 0 5.4 0 18.7 0 37.4 0 56.1 0 12.5.8 13.3 13.2 14.8 0 2.4 0 4.9 0 7.3-17 0-34 0-51.1 0 .1-2.5.3-4.9.4-7.3 12.3-1.5 13-2.3 13-14.4 0-18.9 0-37.7 0-56.6 0-1.7 0-3.3 0-4.9-17.6-2.1-20.6-.1-26.3 17.3-2.3.2-4.6.5-6.9.7C0 17 0 8.5 0 0c30.6 0 61.2 0 91.7 0zM193.9 90.8c0-2.3 0-4.7 0-6.8.5-.4.7-.7.9-.7 10.1-.9 11.5-2.4 11.5-12.6.1-16.7 0-33.4 0-50 0-12.1-.6-12.8-12.5-14.7 0-1.9 0-3.9 0-5.9 16.7 0 33.4 0 50.1 0-.3 2-.6 4-.9 5.9-.4.2-.7.5-.9.5-10.1.7-11.4 2.2-11.4 12.4 0 17.8 0 35.5 0 53.3 0 7 2.1 9.3 8.9 10.1 16.3 1.9 25.5-3.7 30.4-19.3 1.5-5 4.9-2.3 8-3.2 0 10.7 0 20.9 0 31.2-28-.2-56.1-.2-84.1-.2zM513.5 0c12.4 8.3 16.9 17.9 13.7 29.6-3.7 13.7-18.1 20.8-33.8 16.8-10.4-2.7-16.5-9.6-17.9-20.1-1.3-10.4 3.2-19.6 12.1-24.7.8-.4 1.5-1.1 2.2-1.6 7.9 0 15.8 0 23.7 0zm-24.1 22.5c.8 4.4 1.3 8.9 2.5 13 1.4 4.5 4.7 7 9.6 7 5 0 8.6-2.4 10.1-7.1 2.7-8.5 2.6-17.1-.3-25.5-1.5-4.5-5.1-6.8-9.8-6.8-4.7 0-8.3 2.3-9.7 6.9-1.1 4.1-1.6 8.3-2.4 12.5zM575.9 0c0 3.7 0 7.5 0 12-1.5-.5-3.7-.6-3.9-1.4-2.7-8.7-9.6-7-16.3-6.8 0 5 0 9.9 0 15.1 3.6.8 7 1.3 8-3.6.1-.6 1.6-1.5 2.3-1.3.7.1 1.7 1.3 1.7 2.1.2 4.5.1 9.1.1 15-1.9-1.1-4-1.6-4.1-2.5-.8-5.2-4.2-4.6-8.3-4.1 0 4.7-.3 9.4.2 14 .1 1.3 2.3 2.4 3.6 3.7 1 1 2.1 2 3.1 2.9-.3.3-.6.7-.8 1-8.2 0-16.3 0-26.2 0 1.6-1.8 2.3-3.5 3.5-3.8 3-.9 4-2.7 4-5.5 0-9.3 0-18.6 0-27.9 0-3-.8-5.1-4.3-5.7-.9-.2-1.6-2.1-2.3-3.2 13.2 0 26.4 0 39.7 0zM470.9 65.1c1.4-1.5 2-2.6 2.9-3 .9-.4 2.2-.1 3.3-.1 32.6 0 65.2 0 97.8 0 .9 0 2-.2 2.8.1.9.3 1.6 1.1 2.3 1.6-.7.6-1.4 1.3-2.2 1.7-.5.3-1.2.1-1.9.1-33.4 0-66.8 0-100.1 0-1.2-.1-2.4-.3-4.9-.4z" class="st0"/></svg>