<svg xmlns="http://www.w3.org/2000/svg" viewBox="0 0 1338 146.1" enable-background="new 0 0 1338 146.1"><style type="text/css">.st0{fill:#FFFFF0;}</style><path d="M573 .1c0 36.8 0 73.5 0 110.6-15 0-29.7 0-45 0 0-36.9 0-73.8 0-110.6 15 0 30 0 45 0zm-38.7 25c1 4.3 1.6 8.6 3 12.6 2.2 6.1 7 9.1 13 8.9 5.9-.1 10.4-3.4 12.6-9.6 2.8-7.9 2.8-16-.1-23.9-2.1-5.9-6.2-8.9-11.8-9-7.1-.2-11.3 2.1-13.7 8.4-1.4 3.9-1.9 8.3-3 12.6zm25 40.1c-6.1 0-11.7 0-17.6 0 0 13.6 0 27 0 40.6 3.9 0 7.5 0 11.6 0 0-5.3 0-10.3 0-15.4 2.3-.3 4.1-.5 5.8-.7 0-3.1 0-5.8 0-8.5-2.1-.3-3.9-.6-5.9-.9.1-1.9.2-3.5.2-5.1 2.2-.3 3.9-.6 5.8-.9.1-3 .1-5.8.1-9.1zM1000 81.1c0 8.8 0 17.6 0 26.7-9.8 0-19.4 0-29.2 0 0-34.4 0-68.6 0-103.5 18.8-3.3 37.4-3.9 54.1 7.5 17.3 11.9 18.5 37.5 2.7 52.2-2.8 2.6-2.8 4.5-1.4 7.6 4.8 10.4 9.4 20.9 14.1 31.4.7 1.5 1.2 3 2 4.9-11 0-21.4 0-32.1 0-3-9-6.1-18.1-9.1-27.1-.4.1-.7.2-1.1.3zm.4-31.3c6.4-.2 9.3-3.9 9.1-11.1-.2-6.6-3.2-9.8-9.1-9.7 0 6.9 0 13.9 0 20.8zM757.2 4.3c13.5-2.6 26.7-3 39.8.8 29.6 8.6 37.2 38.4 15.6 60.4-.9 1-1.1 3.6-.5 5 4.6 10.9 9.6 21.6 14.4 32.4.7 1.5 1.2 3 2 5-10.8 0-21.2 0-32.1 0-2.9-8.5-5.8-17.2-8.7-25.9-.4.1-.8.1-1.2.2 0 8.5 0 17.1 0 25.8-10.1 0-19.5 0-29.4 0 .1-34.6.1-68.9.1-103.7zM786.7 50c6.6-.8 9.5-4.9 9.1-11.6-.4-6.2-3.3-9.2-9.1-9.4 0 6.9 0 13.8 0 21zM676.3 4.5c10.1 0 19.7 0 29.9 0 0 2 0 3.8 0 5.6 0 20.3 0 40.7 0 61 0 1.5-.2 3 .1 4.5.6 2.7 0 6.6 4.4 6.5 4.1-.1 3.7-3.7 4.1-6.3.4-2.5.2-5 .2-7.5 0-19.3 0-38.7 0-58 0-1.8 0-3.6 0-5.7 10 0 19.6 0 29.5 0 .2.8.5 1.7.5 2.7 0 21.5 0 43-.2 64.5 0 3.3-.4 6.7-1 9.9-4.2 24.3-28.2 36.1-50.3 24.8-7.1-3.6-11.7-9.4-14.1-16.8-1.5-4.9-3-10-3-15.1-.3-23.2-.1-46.3-.1-70.1zM615.1 107.9c-10.4 0-20 0-29.9 0 0-34.5 0-68.7 0-103.1 3.3-1.4 5.2.1 7 2.7 9.3 13.4 18.7 26.7 28.1 40.1 1.3 1.9 2.7 3.7 4.4 6.1 4.8-6.9 9.4-13.4 14-19.9 6.2-8.9 12.3-17.8 18.7-26.5 1.2-1.7 3.5-2.5 6.4-4.5 0 36.1 0 70.3 0 105-9.4 0-19 0-29.1 0 0-8.1 0-16.3 0-24.6-.4-.2-.8-.3-1.2-.5-2.9 3.8-5.8 7.6-8.8 11.7-3.1-4.2-5.9-8-9.5-13-.1 9.6-.1 17.9-.1 26.5zM834.8 108.1c0-34.8 0-69 0-103.6 18.5-1.5 36.3-.8 51.9 10.1 17 11.8 21.2 29.2 18.7 48.5-3.4 27-20.7 42.9-48.3 45-7.2.4-14.5 0-22.3 0zm30.4-76.7c0 16.1 0 31.8 0 47.5 6-.9 9.6-7 10.7-17.6 1.6-15.2-2.4-27-10.7-29.9zM452 81.6c4.9 0 9.5 0 14.5 0 0 8.9 0 17.3 0 26.1-14.7 0-29.6 0-44.7 0 0-34.2 0-68.5 0-103.1 14.9 0 29.6 0 44.7 0 0 8 0 15.9 0 24.3-4.8 0-9.5 0-14.6 0 0 5.2 0 9.9 0 15.1 4.9 0 9.7 0 14.7 0 0 7.8 0 15 0 22.9-4.7 0-9.4 0-14.6 0 0 5.1 0 9.5 0 14.7zM915.1 4.5c15 0 29.6 0 44.5 0 0 8.1 0 16 0 24.4-4.6 0-9.4 0-14.5 0 0 5.2 0 9.9 0 15.1 4.8 0 9.5 0 14.5 0 0 7.9 0 15.3 0 23.3-4.9 0-9.7 0-14.6 0 0 5 0 9.4 0 14.3 5 0 9.8 0 14.7 0 0 9 0 17.5 0 26.2-14.9 0-29.6 0-44.7 0 .1-34.3.1-68.6.1-103.3zM289.3 108.1c5.7-17.5 11.1-34.2 16.6-51 5.3-16.4 10.6-32.9 16.1-49.3.5-1.4 2.4-3.1 3.8-3.3.9-.2 2.9 1.8 3.4 3.2 10.7 32.5 21.2 65.1 31.8 97.7.2.7.3 1.6.4 2.7-8.6 0-16.9 0-25.2 0-.7 0-1.7 0-1.9-.3-2.8-6.3-8.4-2.6-12.7-3.4-1-.2-2.4 1.1-3.5 1.8-1.2.6-2.3 1.8-3.4 1.8-8.2.2-16.4.1-25.4.1zm39.2-19.5c-1-3.4-1.8-6.2-3-10.4-1.1 4.3-1.9 7.2-2.8 10.4 2 0 3.4 0 5.8 0zM296.9 4.6c0 8.2 0 16.1 0 24.5-4.9 0-9.7 0-14.8 0 0 26.4 0 52.4 0 78.7-10.1 0-19.8 0-29.9 0 0-25.9 0-51.9 0-78.3-5.1 0-9.8 0-15 0 0-8.5 0-16.5 0-24.8 19.9-.1 39.7-.1 59.7-.1zM367.8 107.8c0-34.3 0-68.5 0-103.2 9.7 0 19.3 0 29.4 0 0 25.3 0 50.6 0 76.8 5.5 0 10.3 0 15.3 0 0 9.2 0 17.6 0 26.3-14.9.1-29.7.1-44.7.1zM516.3 15.6c-12.6 11.5-10.7 24.7-5.7 38.1 3 8.2 6.1 16.2 5.4 25.1-.9 11.7-5.2 21.9-13.7 30.1-2.1 2-3.8 2.4-6.5.7-7.1-4.5-14.5-8.7-22.1-13.3 1.1-1.4 2-2.6 2.9-3.7 7.9-10.6 9.9-21.9 4.1-34.2-6.4-13.5-7.8-27.4-2-41.6.8-2 1.8-3.9 2.9-5.8 6.6-10.7 8.6-11.2 19.2-4.9 5 3.1 10 6.2 15.5 9.5zM680.5 140.3c-4.8 0-8.9 0-13.1 0 0-7.2 0-14.1 0-21.3 4.3 0 8.4 0 12.8 0 .1 2-.1 3.8.4 5.5.2.9 1.5 1.6 2.3 2.4.6-.8 1.7-1.5 1.8-2.3.3-1.8.1-3.6.1-5.7 4.6 0 8.6 0 13 0 0 7.2 0 14.1 0 21.4-4.1 0-8.2 0-13 0 0-2.1.2-4-.1-5.9-.2-.9-1.5-1.6-2.3-2.4-.6.8-1.7 1.5-1.8 2.3-.3 1.8-.1 3.6-.1 6zM383.6 139.6c-6 0-13 4.3-17.2-4.8-.4 2.4-.6 3.7-.9 5.4-4 0-8.1 0-12.6 0 0-7 0-14.1 0-22.5 7.4.6 14.6.7 21.7 2 3 .5 6.3 3.1 7.9 5.7.6 1-2.9 4.7-4.8 7.6 1.6 1.7 3.7 4.1 5.9 6.6zM330.4 133c1.7 1.9 3.9 4.3 7 7.8-7-1.2-13.8 2.9-18.1-5.7-.6 2.2-1 3.7-1.4 5.2-4.1 0-8 0-12.7 0 0-6.8-.1-13.3.1-19.9 0-.8 1.7-2.2 2.5-2.1 6.8.3 13.6.4 20.2 1.6 2.8.5 5.9 3.1 7.2 5.7.7 1.2-2.7 4.5-4.8 7.4zM506.2 140.2c0-7.1 0-14.1 0-21.7 9-.7 17.8-1.1 26.2 2.7 1.7.7 4 3.4 3.7 4.5-.7 2.4-2.9 4.4-4.9 7.1 1.6 1.8 3.8 4.4 7 8.1-7-1.4-14.1 3.3-18.4-6.7-.5 2.9-.7 4.3-.9 6-4.2 0-8.3 0-12.7 0zM764.4 117.4c5.2 3.5 9.5 5.9 13.3 9 3.2 2.6 5.5 2.4 8.6 0 3.8-3 8.1-5.4 13.1-8.7 0 8.3 0 15.3 0 22.6-4 0-8.1 0-12.4 0-.3-1.5-.6-2.9-.7-3.8-2.7 0-5.3 0-8.4 0-.2.7-.5 2.2-.9 3.8-4.3 0-8.3 0-12.6 0 0-7.3 0-14.2 0-22.9zM931.7 118.9c.1 1.7.3 3.4.5 6.4 3.9-10 11.1-5.9 18-6.7-7.8 7.8-8.4 14.6.9 20.7-8.6 3.2-13.7 1.5-18.8-6.1-.2 2.6-.4 4.6-.6 7-4.2 0-8.3 0-12.7 0 0-7.2 0-14.1 0-21.3 4.4 0 8.5 0 12.7 0zM885.5 117.5c3.5.8 6.9 1.3 10.2 2.5 4.4 1.5 6.7 4.9 6.7 9.5s-2.2 7.9-6.5 9.7c-6.8 2.7-13.6 2.8-20.4.1-4.3-1.7-6.6-4.9-6.7-9.6 0-4.7 2.3-8 6.5-9.6 3.3-1.2 6.8-1.7 10.2-2.6zm4.6 12.1c-1.7-2.2-3-3.8-4.3-5.4-1.1 1.9-2.9 3.8-3 5.7-.1 1.7 1.9 3.4 3 5.2 1.2-1.7 2.5-3.3 4.3-5.5zM284.1 141.9c-3.9-1.1-8-1.7-11.4-3.5-7.1-3.7-7.2-13.6-.2-17.5 7.6-4.2 15.8-4.2 23.4-.1 7.3 3.8 7.1 14.1-.3 17.8-3.3 1.7-7.4 2.2-11.5 3.3zm-4.2-12.5c1.7 2.3 2.9 4 4.2 5.6 1.1-1.7 3.1-3.4 3.1-5.1 0-1.9-1.8-3.9-2.9-5.8-1.3 1.6-2.6 3.2-4.4 5.3zM445.3 140.7c0-7.7 0-14.7 0-22.2 8.9-.3 17.4-.2 25.5 3.3 3.3 1.4 6.8 3.8 5.9 7.6-.7 2.9-3.1 6.4-5.8 7.8-7.9 4.1-16.7 4-25.6 3.5zm13.5-6.7c.5.3 1 .5 1.4.8 1.2-1.7 3.1-3.4 3.3-5.2.3-2.7-1.3-4.8-4.8-4.9.1 3.3.1 6.3.1 9.3zM572.1 118.3c7.5 1.3 15.6-3.7 17.8 7.7 1.6-1.7 2.7-2.9 4.5-4.7.9 1.5 1.7 2.9 3.3 5.7 2.9-11.5 10.5-7.9 18.2-8.2-4.7 7.5-8.9 14.2-13.3 20.7-.3.5-3 .2-3.8-.5-1.7-1.5-2.8-3.6-4.4-5.8-.8.9-1.5 1.5-2.1 2.3-5 6.7-5 6.7-9.4-.2-3.4-5.3-6.6-10.5-10.8-17zM407.3 118.9c0 1.8 0 3.1 0 4.6-2.2.3-4.2.6-6.3.8-.1.5-.2 1.1-.3 1.6 2 .5 4 .9 6.4 1.5 0 1.1 0 2.5 0 3.6-2.3.9-4.2 1.6-6.2 2.3 1.9.8 3.7 1.7 6.2 2.8 0 .7 0 2.2 0 4.1-6.3 0-12.6 0-19.2 0 0-7.1 0-14.1 0-21.4 6.4.1 12.7.1 19.4.1zM805.4 140.3c0-7.2 0-14.1 0-21.4 6.5 0 12.8 0 19.4 0 .1 1.5.2 2.9.3 4.5-2.3.4-4.3.7-6.3 1-.1.5-.2 1-.3 1.4 1.9.5 3.8 1 6.3 1.7.1.8.2 2.2.3 2.8-2.5 1.5-4.4 2.7-6.3 3.8 1.8.5 3.7.9 6.1 1.5.1 1.1.2 2.7.3 4.6-6.8.1-13.2.1-19.8.1zM481.1 140.3c0-7.3 0-14.1 0-21.3 6.5 0 12.9 0 19.6 0 .1 1.3.2 2.8.3 4.4-2.4.4-4.6.7-6.7 1-.1.5-.2 1.1-.2 1.6 2.1.4 4.1.9 6.7 1.4.1 1.1.1 2.5.2 3.8-2.5.6-4.7 1.2-6.9 1.7.1.6.1 1.2.2 1.8 2 .2 4 .4 6.5.6.1 1.5.2 3 .3 4.9-6.8.1-13.2.1-20 .1zM721.1 140.2c0-5.5 0-10.7 0-16-2.1-.2-3.9-.3-6.2-.5-.1-1.4-.2-3-.3-4.8 8.9 0 17.3 0 26.3 0 .1 1.5.2 3 .2 4.7-2.2.2-4 .4-6.4.6 0 5.2 0 10.4 0 16-4.7 0-8.8 0-13.6 0zM442 140.3c-10.9 0-20.9 0-32 0 5-7.2 9.5-14 14.3-20.5.4-.5 3.2-.2 3.8.6 4.6 6.2 8.9 12.7 13.9 19.9zM861.4 140.4c-4.9 0-8.9 0-13.3 0 0-5.5 0-10.7 0-16.2-2.4-.2-4.3-.3-6.6-.5-.1-1.6-.1-3-.2-4.8 8.9 0 17.5 0 26.5 0 .1 1.4.2 2.8.3 4.6-2.2.2-4.1.4-6.6.7-.1 5.2-.1 10.5-.1 16.2zM656.3 124.3c0 5.2 0 10.3 0 15.9-4.5 0-8.5 0-13.1 0 0-5.2 0-10.4 0-15.9-2.4-.2-4.3-.3-6.6-.5-.1-1.5-.3-2.9-.4-4.7 8.9 0 17.5 0 26.6 0 .1 1.4.1 2.9.2 4.6-2.4.1-4.4.3-6.7.6zM256.9 140.3c-4.3 0-8.4 0-12.7 0 0-7.2 0-14.1 0-21.4 6.5 0 12.9 0 19.6 0 0 1.5 0 3 0 4.6-2.2.3-4.4.6-6.5.8-.1.5-.1 1.1-.2 1.6 2.1.5 4.2.9 6.6 1.4 0 1.2 0 2.6 0 4.2-2.1.2-4.1.4-6.2.6-.2 2.9-.4 5.4-.6 8.2zM997.7 140.3c0-7.4 0-14.1 0-21.3 4.3 0 8.5 0 13.1 0 0 5.3 0 10.4 0 15.8 2.3.2 4.2.3 6.4.4 0 1.7 0 3.3 0 5-6.6.1-12.8.1-19.5.1zM986.4 134.9c2.6.1 4.4.2 6.5.3 0 1.8 0 3.3 0 5.1-6.5 0-12.7 0-19.3 0 0-7.1 0-14 0-21.3 4.1 0 8.2 0 12.9 0-.1 5.3-.1 10.4-.1 15.9zM758.5 140.3c-4.3 0-8.3 0-12.7 0 0-7.2 0-14.1 0-21.3 4.2 0 8.3 0 12.7 0 0 6.9 0 13.8 0 21.3zM954.8 140.2c0-7.2 0-14.1 0-21.3 4.3 0 8.4 0 12.7 0 0 7.1 0 14 0 21.3-4 0-8.1 0-12.7 0zM539.9 138.1c4.6-2.9 5.1-5.5 2.3-9.2-1.2-1.6-1.5-5.3-.5-6.6 1.6-2 4.7-3.6 7.4-3.8 2.6-.2 5.3 1.4 8.9 2.5-4.7 2.9-3.5 5.7-1.6 9.1 1.1 1.9 1.5 5.7.4 6.9-1.8 2-5.1 3.4-7.9 3.7-2.5.2-5.2-1.5-9-2.6zM619.2 118.9c4.1 0 8.2 0 12.5 0 0 7.1 0 14 0 21.3-4.1 0-8.1 0-12.5 0 0-7 0-14 0-21.3zM1021.3 140.3c.8-3 1.4-5.5 2.1-7.9.4.1.9.2 1.3.3-1.6-4.3-3.2-8.7-5-13.6 5 0 9.6 0 14.9 0-1.6 4.5-3.2 8.8-4.3 12 1.1 3.5 1.9 6 2.9 9.3-4.5-.1-7.7-.1-11.9-.1zM549.7 14.8c3.9 4.5 4.1 15.6.5 20.5-3.8-3.6-4.2-14.4-.5-20.5z" class="st0"/></svg>