<svg xmlns="http://www.w3.org/2000/svg" viewBox="0 0 1338 146.1" enable-background="new 0 0 1338 146.1"><style type="text/css">.st0{fill:#FFFFF0;}</style><path d="M749.5 0v6.2c-13.1 2-13.4 2.4-13.4 15.5v50.6c0 12.9.5 13.5 13.3 15.3V95h-52.3v-7.4c12.6-1.7 13.2-2.4 13.2-15.5V22.6l-1-.3c-.8 1.5-1.7 3-2.4 4.5-10 21.4-19.9 42.8-30.1 64.1-.8 1.7-2.8 3.4-4.6 4.1-3.2 1.2-4.1-1.6-5.2-3.9C656.5 69 646 47 635.4 24.9c-.4-.8-.8-1.6-2.1-2.3v21c0 9.1-.1 18.2.2 27.3.3 11.6 2 13.6 13.3 16.5v7.4H612v-7.3c1.3-.4 2.6-.8 4-1.2 5.1-1.6 8.3-5 8.4-10.4.1-20 .2-40 .1-60-.1-6.3-2.4-8.4-8.7-9.2-1.1-.1-2.2-.3-3.7-.4-.2-2.3-.3-4.4-.5-6.5h40.7c.4 1.4.7 2.8 1.3 4.2l21 44.7c1.9 3.9 3.7 7.9 5.9 12.5 10-21 19.7-41.2 29.3-61.4 13.3.2 26.5.2 39.7.2zM956 0c2 1.1 4.1 2 6.1 3.2 8.2 4.8 12.6 12.1 12.5 21.6 0 9.4-4.7 16.3-13 20.6-1.8.9-3.6 1.7-4.8 2.2l20.6 29.7c3.5 5 7.2 9.6 14.1 10v7.9c-9.9 0-19.7.1-29.6-.2-1.3 0-2.8-2.1-3.7-3.5-6-10-12.1-20.1-17.8-30.3-3.7-6.6-9-9.3-16.7-8.2 0 9.4-.7 19 .2 28.4.6 6.2 7 5.3 11.9 6.1V95H884v-7.3c12.8-1.9 13.5-2.7 13.5-15.9V22.2c0-15.3-2.2-14.5-13.5-15.9-.1-2-.3-4.1-.4-6.2C907.7 0 931.9 0 956 0zm-32.9 43.9c4.7-.3 8.7-.4 12.6-.9 6.5-.9 10.4-5 11.5-11.3 2.8-15.6-2.1-24.1-17.8-24-1.1 0-2.5-.6-3.4-.1-1.2.6-2.7 1.9-2.8 3-.2 10.8-.1 21.7-.1 33.3zM1302.5 0c6.3 3 12.4 6.1 15.9 12.7 6.5 12 2.6 25.9-9.4 32.4-1.9 1-3.9 1.9-6.6 3.2 13.9 11.5 17.5 31.6 35.6 40.5v6.5c-9.7 0-19.2.2-28.8-.2-1.5 0-3.3-2-4.2-3.5-6.2-10.2-12.1-20.5-18.2-30.7-4.6-7.6-7.2-8.7-16.8-7.8 0 8.8-.2 17.7.1 26.6.1 4.1 2.8 6.6 7 7.1 1.8.2 3.6.5 5.7.7V95h-51.7v-7.3c12.7-2.1 13-2.5 13-15.7V21.4c0-12.8-.3-13.1-13.1-15.2V0h71.5zM1270 43.5c14 .8 19.8-1.3 23-8.2 3.3-7.1 2.2-18.6-2.2-23-4-4.1-15-5.9-20.8-3.6v34.8zM1074.2 0c3 1.4 6 2.7 8.9 4.2 19.3 10.2 28.6 31.5 23.9 54.9-3.9 19.6-20.6 34.3-41.9 35.2-20.6.9-41.2.2-62.2.2v-6.9l1.8-.4c8.6-1.3 10-2.3 10.2-10.9.3-19.5.3-39 0-58.5-.1-9-1.2-9.6-12.2-11.6V0h71.5zm-33.6 7v16.1c0 17.4-.1 34.7 0 52.1.1 8.6 2.8 11.2 11.4 11.3 12.1.1 20.3-5.7 23.9-17.6 4-13.2 4.3-26.7.5-40.1-4.1-14.4-14-23.6-35.8-21.8zM387.2 0v23.3c-6.6 1.5-6.8 1.5-9.5-5.1-3.1-7.7-8.4-11.5-16.8-11.1-5.7.2-11.5 0-17.6 0v32.4c13.7 2.7 17.4.6 19.5-11h7.6V61h-7.2c-3.2-11.8-6.7-13.8-19.8-11.2 0 10.1-.3 20.3.2 30.5.1 1.8 3.1 4.3 5.2 5 15.6 5.4 28.7-.6 34.1-16.1 1.9-5.5 4.6-6.8 9.7-5.4V95h-88.4v-7.1c.3-.2.5-.5.8-.5 10.7-1.1 12-2.5 12-13.2 0-17 .2-34.1-.1-51.1-.2-11.1 3.2-14.6-12.9-17.3l-.4-5.8h83.6zm822 0v23.6c-3.8.5-7.6 1.2-9.4-5-2.4-8.3-8.6-12-17.4-11.5-5.6.3-11.2.1-17.1.1v32.1c11.3 3.8 17.4.7 19.7-10.6h7.9V61h-7.6c-3.1-11.8-6-13.5-19.6-11.3 0 10.3-.4 20.7.3 31 .1 1.9 4.3 4.8 6.9 5.1 19.6 2.5 26.4-1 33-17.8.5-1.4 1-2.8 1.5-4.4h7.5V95h-88.7v-7.3c12.6-1.9 13.3-2.8 13.3-15.6V23.5c0-14.2 0-14.2-13.3-17.7-.1-1.9-.3-3.8-.4-5.8h83.4zM870.7 0v6.6c-11.4.9-12.2 9-12.2 18.2.1 13.7-.1 27.4-.7 41.1-.6 13.9-8.5 23.1-21 27.9-14.2 5.5-28.5 5-42.3-1.5-14.4-6.8-18.5-19.2-18.6-33.9-.1-12.4 0-24.8 0-37.2 0-12-.7-12.8-12.4-15V0h51.6c-.4 2.2-.7 4.4-1 6.5-10.3.9-12.4 2.1-12.4 10.1-.2 17.3 0 34.7.8 52 .5 9.5 7.3 16 16.6 17.9 16.3 3.3 28.9-6.6 29.7-23.8.6-13 .3-26.1.3-39.1 0-11.8-2.4-14.9-14.1-17.4V0h35.7zM475.5 0v26.4c-7.9 1.8-7.8 1.7-10.5-4.7-3.5-8.3-8.6-15-18.5-16-5.7-.6-10.5 2-12.4 6.3-2 4.6-.7 10.3 3.9 13.7 3.7 2.7 7.9 4.7 12 6.8 6.1 3.2 12.6 6 18.5 9.5 11.9 7.2 17.1 20.2 13.6 33.3-3.1 11.7-15.6 21.4-28.4 21.9-11.5.5-18.3-2-29-10.7l-2.6 7H414V60.6h8c2 4.8 3.5 9.6 5.9 14.1 4.1 7.5 10.5 12.3 19.3 13.1 6.6.6 11.8-2.7 13.8-8.3 1.8-5.1 0-10.7-5.5-14.1-6.3-3.9-13-7.1-19.6-10.7-3.5-1.9-7-3.7-10.2-6-16.2-11.4-16.4-34.3-.4-46.1l3.6-2.6h46.6zM151.9 0l27.9 68.8c.9 2.3 1.9 4.6 2.9 6.8 2.5 5.8 5.8 10.9 13 11.7V95H148v-7.3c10.8-2 10.6-2 6.9-12.4-1.6-4.6-3.7-6.5-8.8-6.1-6.4.5-12.9.2-19.3.1-2.7-.1-4.5.5-5.1 3.4l-.4.9c-4 10.1-3.1 11.9 7.6 14.1v7.4H97.3v-7.5c8.5-1.9 11.9-8.7 14.8-15.9 9-22.4 17.8-44.8 26.7-67.1.6-1.5 1.3-3 2-4.5 3.8-.1 7.5-.1 11.1-.1zm-25.5 60.4h22.5c-3.8-9.2-7.5-17.9-11.6-27.7-3.8 9.7-7.3 18.5-10.9 27.7zM96.3 0v25.6c-7.4 1.5-7.5 1.5-9.6-5.1C83 8.9 76.2 5.6 60.6 8v65.2c0 11.7 1.5 13.3 13.6 14.2v7.5H21.3v-7.1c.4-.2.6-.5.9-.5 11.2-.9 12.6-2.4 12.6-13.6V8.4c-15.5-4.6-23.4.5-27.2 17.5-2.5.3-5 .6-7.6.9V0h96.3zm159.8 0c-.3 2.1-.6 4.2-.9 6.2-.4.2-.7.5-1 .5-10.6.8-12 2.3-12 13.1v56c0 7.3 2.2 9.7 9.5 10.5 17.2 1.9 26.4-4 31.9-20.5 1.2-3.5 1.2-3.5 8.2-2.7v32h-88v-7.7c1.6-.1 3.1-.2 4.5-.4 5.8-.9 7.8-2.9 8-8.8.3-9.2.2-18.5.2-27.8V21.6c0-12.7-.6-13.4-13.1-15.4V0h52.7zm283 0c13 8.7 17.7 18.7 14.4 31-3.9 14.3-19 21.9-35.5 17.6-10.9-2.8-17.3-10.1-18.8-21.1-1.4-10.9 3.3-20.6 12.7-25.9.8-.5 1.6-1.1 2.3-1.7 8.3.1 16.6.1 24.9.1zm-25.3 23.6c.8 4.6 1.3 9.2 2.6 13.6 1.4 4.7 4.9 7.4 10 7.4 5.2 0 9-2.4 10.6-7.4 2.9-8.9 2.8-17.9-.2-26.8-1.6-4.8-5.3-7.1-10.2-7.3-4.7-.2-8.8 2.7-10.4 7.7-1.2 4.2-1.6 8.5-2.4 12.8zM604.6 0v12.6c-1.6-.5-3.9-.7-4.1-1.5-2.9-9.1-10.1-7.3-17.2-7.1v15.8c3.8.8 7.3 1.4 8.4-3.8.1-.7 1.7-1.5 2.5-1.4.7.1 1.8 1.4 1.8 2.2.2 4.8.1 9.6.1 15.8-2-1.2-4.2-1.7-4.3-2.6-.8-5.4-4.4-4.9-8.7-4.3 0 5-.3 9.9.2 14.7.1 1.4 2.4 2.6 3.8 3.8 1.1 1 2.2 2.1 3.2 3.1l-.9 1.1h-27.5c1.7-1.9 2.5-3.6 3.6-4 3.1-.9 4.2-2.8 4.2-5.8V9.3c0-3.1-.8-5.4-4.5-6-1-.2-1.6-2.2-2.5-3.4 14.1.1 28 .1 41.9.1zm283.6 108.3c0 9.4-.4 18.8.3 28.2.2 2.8 3.7 5.3 5.7 7.9H879c7.9-2.6 7.1-9 7.2-15.1v-19.4c-.1-7.7-.1-7.7-7.1-9.5 0-.4 0-.9-.1-1.3 3.2 0 6.5.4 9.6-.1 4.9-.8 5.6 2.9 7 5.9 4.4 10 8.8 19.9 13.6 30.7 1-1.8 1.7-2.9 2.3-4.1 4.1-9.2 8.2-18.4 12.1-27.7 1.4-3.5 3.1-5.4 7.2-4.8 2.9.4 6 .1 9.5.9-10.3 0-7.9 7.3-8 12.7-.2 6.8-.1 13.6 0 20.3.1 8.5.1 8.5 7.5 11.3h-22.7c8.4-2.9 8.4-2.9 8.4-10.9 0-8.7 0-17.4-1-26.4l-16.9 37.9-1.5.1-16.6-37c-.6.2-1 .3-1.3.4zm-166.5 36c7.4-.9 6.4-6.4 6.5-11.3v-22.3c0-4.8 1.2-10.4-6.4-11.1h19.8c-4 1.2-7 2.8-6.5 7.8.4 3.7.1 7.5.1 11.6h23.1c0-4.9.6-9.9-.3-14.6-.3-1.9-3.9-3.2-6-4.7h20.7c-7.1 3.1-7.1 3.1-7.1 11 0 7.8.1 15.5 0 23.3-.1 4.8-.7 9.8 6.4 10.3h-21.6c8.2-3 8.2-3 8.2-11.3v-10.6h-23c0 5.7-.5 11.5.3 17.1.2 1.8 3.6 3.2 5.7 4.8h-19.9zm-465.1-.7c-10.3 2.8-14 1.7-19.3-5-3.3-4.3-6.4-8.8-9.9-13-1.2-1.4-3.2-2.2-5.9-3.9 0 6.8-.6 12.3.3 17.5.4 2 4.2 3.4 6.2 5h-20.5c8.1-.5 6.9-6.5 6.9-11.6.1-7.8 0-15.5 0-23.3 0-4.6.3-9.5-7.4-8.2.9-1.2 1.2-1.8 1.4-1.8 8.5 0 17.1-.5 25.6.2 6.3.6 10 5.2 10.2 10.4.2 5.2-2.8 9-8.8 11.2l-3.1 1.1c8.3 7 11.3 18.5 24.3 21.4zm-35.2-22.5c5.4-.6 11.4.7 13.5-4.8 1.3-3.5 1.1-8.8-.6-12.1-2.5-4.7-8-3.9-12.9-3.5v20.4zm-63.2 1.1c8.5 7 11.4 18.7 23.8 21.3-8.4 2.9-13.6 1.7-18.1-4.1-3.6-4.5-6.8-9.3-10.5-13.8-1.3-1.5-3.5-2.2-6.3-3.8v11.8c0 8.1 0 8.1 7.6 10.4h-21.2c.1-.3.1-.8.2-.8 5.6-.3 6.8-3.6 6.6-8.6-.3-7.9 0-15.9-.1-23.8 0-4.9 1.7-10.9-7.2-11 10.7-1.4 20.9-3.4 30.9.8 3.9 1.7 6.1 4.7 6.2 9.3 0 4.8-2.3 7.8-6.2 9.9-1.5 1-3.1 1.4-5.7 2.4zm-10.8-21.5V121c5-.2 10.2.7 13.3-3.9 2.7-4 2.6-8.7-.1-12.7-3.1-4.7-8.1-4-13.2-3.7zm325.3 22.9v8.4c0 9.1 0 9.1 8.9 12.3h-23.7c7.9-3.2 7.9-3.2 7.9-11.3v-23.3c0-7.4 0-7.4-6.5-9.4 6.4-3.3 26-2.5 31.8 1.4 6.8 4.6 6.1 14.4-1.3 18.3-1.6.8-3.3 1.3-5.8 2.3 8.5 6.9 11.3 18.6 23.4 21.1-6.5 3-13.1 1.9-17-3-3.7-4.6-7-9.6-10.8-14.2-1.4-1.7-3.6-2.6-5.4-3.9-.6.5-1 .9-1.5 1.3zm.3-2.7c5.2-.3 10.4.8 13.6-4.3 2.5-4.1 2.4-8.8-.5-12.6-3.3-4.2-8.2-3.8-13-3.3-.1 7-.1 13.4-.1 20.2zm144.6 25.2c-4.4-11.8-8.8-23.6-13.8-36.9-4.3 13.1-8.2 25-12.2 37l-1.4-.1c-.7-1.9-1.5-3.8-2.1-5.8-3.2-10.4-6.2-20.9-9.7-31.2-1.1-3.4-3.5-6.4-5.2-9.4h16.6c-7.8 2.7-5 7.1-3.7 11.3 2.3 7.5 4.6 15 7.4 23.9 4.2-12.9 8-24.3 11.8-35.8.6-.1 1.2-.1 1.9-.2 4.2 11.4 8.5 22.8 13.3 35.7 1.1-3.5 1.8-5.7 2.4-8 1.7-5.9 3.3-11.8 5-17.6 1.2-3.9 1.1-7.2-3.6-9.3H636c-8.3 7.3-7.8 18.4-11.4 27.8-2.3 6-3.7 12.2-5.5 18.4-.5 0-1 .1-1.5.2zm-260.9-2.5c7.5-2.1 7.5-2.1 7.5-10.5v-21.8c0-8.6 0-8.6-7.4-12.1 8.7-.1 17.5-1 26-.1 17.1 1.8 25.7 16.9 19.4 33-2.4 6.2-6.8 10.8-13.2 11.5-10.7 1.2-21.5 1.2-32.3 1.7.1-.6 0-1.1 0-1.7zm14.5-42.5c0 12.6-.1 24.9.1 37.3 0 1.4 1.6 3.7 2.8 3.9 6 1 12 .9 16.8-3.5 6.2-5.7 7.4-20.3 2.6-29.3-3.9-7.4-11.3-10.3-22.3-8.4zM99.7 98.3c15.1 0 24.9 9.2 24.9 23.5 0 14.2-9.9 23.8-24.7 23.9-14.8.1-25-9.9-24.9-24.3 0-13.9 9.9-23.1 24.7-23.1zm17.3 24.1c-.6-3.4-.9-7.6-2.1-11.4-2.3-7.4-7.9-10.9-15.9-10.7-7.4.2-13.3 4.1-14.5 11.6-1.1 6.5-1.1 13.5 0 19.9 1.4 8 7.3 11.6 15.5 11.6 7.7 0 13-3.9 15.2-11.6.8-2.7 1.1-5.7 1.8-9.4zm970.9-24.1c15 0 24.9 9.5 24.8 23.7 0 14-10.3 23.8-24.9 23.8-14.9-.1-24.8-9.8-24.7-24.4.1-14 9.9-23.1 24.8-23.1zm-17.2 23.6c.5 3.2.7 6.4 1.5 9.4 2.1 8.2 7.3 12.1 15.7 12.2 7.9.1 13.2-3.9 15.5-11.9 1.9-6.7 1.9-13.4-.2-20-2.4-7.8-7.8-11.5-15.9-11.3-7.7.1-12.9 4.2-15 11.9-.9 3.1-1.1 6.5-1.6 9.7zm89.3-1.8c9 1.7 11.5 4.8 11.5 12.4 0 .8 0 1.7-.1 2.5-.5 7.3-.2 7.6 6.5 5.2-1.7 3.9-4.6 5.5-8.8 4.5-4-.9-5.1-3.8-4.7-7.5.3-3.1 1.3-6.3 1.1-9.3-.2-1.8-2-4.7-3.4-4.9-1.5-.3-4.1 1.6-5.1 3.3-1.5 2.5-1.9 5.6-3 8.4-1.6 4.1-2.3 7.7 3.4 9.6H1140c6.7-1.5 6.8-7.5 8.4-12.3 2.6-8 4.7-16.2 7.4-24.2 1.4-4.2 1.5-7.1-3.9-8.1h17.2c-8.9 3-6.7 11.7-9.9 17.6l1.2 1c3.9-4.1 7.5-8.4 11.7-12.2 2.9-2.7 6.3-4.8 9.7-6.8 1.4-.8 3.6-1.1 5.2-.8 1.1.2 2.3 1.7 2.9 2.9.3.6-.9 2.7-1.3 2.7-1.2-.1-2.8-.5-3.5-1.4-2.2-2.9-4.3-1.2-5.9.2-6.2 5.3-12.2 10.9-19.2 17.2zm-213.8 23.2c6.8.1 7.2-4 7.1-9-.2-8.3 0-16.5-.1-24.8 0-4.2.9-8.9-5.5-9.9h32.4c.3 3.4.6 7 1 10.8-3.1-3.3-5.2-7.3-8.5-8.6-3.4-1.4-7.8-.3-12.1-.3V119c7.7 1.7 9.5.8 12.2-5.5v15c-4.2-7.6-4.3-7.6-12.3-6.3 0 5.5-.3 11.1.2 16.6.1 1.5 2.7 3.6 4.4 3.9 10 1.6 13.9-.9 17.8-10.6.2-.6.7-1.1 2.3-1.5-.3 4.2-.4 8.5-.9 12.7-.1.6-1.4 1.4-2.2 1.5-11.8.1-23.6.1-35.4.1 0-.7-.2-1.1-.4-1.6zM446.5 99.7c.3 3.6.6 7 1 11-2.9-3.4-4.9-7.5-8-8.9-3.5-1.6-8.1-.7-12.6-.9v17.9c7.3 1.8 8.9 1.1 12.4-6.4v16.1c-1.6-2.5-2.4-5.3-4.3-6.3-2.1-1.1-5.1-.5-8-.7 0 6.3-.1 12.2.1 18 0 1 1.7 2.5 2.8 2.9 8.1 2.8 15.6-.9 18.9-8.9.5-1.1 1-2.2 1.6-3.3.4.1.8.2 1.3.3-.3 4.6-.6 9.1-1 13.8h-37.4c7-.9 6.5-6.2 6.5-10.9l-.1-25.8c0-3.8-.7-7-5.4-7.9h32.2zm-184-.3h32.2c.4 3.6.7 7.2 1.2 11.6-3.1-3.6-5.1-7.8-8.2-9.1-3.5-1.5-8-.3-12.7-.3v17.5c8.5 1.4 9.7.8 12.5-5.8v15.4c-1.4-2.4-2.1-5.3-3.9-6.3-2.1-1.2-5.1-.6-8.3-.9 0 6.3-.1 12.2.1 18 0 1.1 1.6 2.6 2.7 3 7.9 2.9 15.8-.8 18.9-8.7.5-1.2 1.1-2.3 1.6-3.4.5.1 1 .2 1.4.2-.3 4.6-.7 9.1-1.1 13.9h-37.4c7.7-1.1 6.4-6.9 6.4-11.8v-23.3c0-4.4.2-8.6-5.4-10zM46.2 121.3c0 6.4-.6 11.8.3 16.9.4 2.4 3.6 4.2 5.3 6H32.4c7.3-.3 6.9-5.6 6.9-10.5v-24.3c0-4.5.4-9.4-6.5-9.7h34.7v10.1c-2.5-2.7-4.6-6.9-7.9-8.2-3.7-1.5-8.4-.3-13-.3v18.4c5.6.6 10.2.4 11.8-6.3v16.4c-1.5-3-2.1-5.9-3.8-7-2.1-1.3-5.1-1-8.4-1.5zM714 99.4V110c-2.3-3.1-3.9-7-6.7-8.3-3.1-1.4-7.4-.3-11.8-.3v32.7c0 7.9 0 7.9 7.4 10H680c8.5-2.8 8.5-2.8 8.5-11.6v-30.6c-10.4-2.5-12.6-1.4-18.4 9V99.4H714zm343.5 0V110c-2.3-3.1-3.9-7-6.8-8.3-3.1-1.4-7.4-.3-11.5-.3 0 12.8-.3 25.3.3 37.8.1 1.8 4 3.5 6 5h-21.3c.1-.4.2-.8.3-.9 7.5-1.4 7.5-1.4 7.5-9.2V102c-10.2-2.6-12.7-1.4-18.4 8.9V99.4h43.9zm-520.2 3c.9-1.2 1.7-2.2 3.1-4V111c-.3.1-.6.2-.9.2-.7-1.4-1.4-2.7-2.2-4.1-2.3-4.2-5.6-7.5-10.5-6.8-2.5.4-5.9 2.5-6.6 4.5-.7 2.1.6 6.2 2.4 7.5 4.3 3.2 9.5 5.3 14.3 7.8 4.3 2.2 7.1 5.4 7.5 10.3.4 5.1-.7 9.7-5.3 12.5-5.5 3.5-11.3 3.3-17 .5-1.5-.7-2.7-1.8-4.2-2.8-.9 1.2-1.8 2.2-3.3 4.2v-15.3c.3-.1.6-.3.8-.4.7 1.6 1.4 3.2 2 4.8 2.8 7.2 7.9 10.5 14.5 9.2 3.8-.7 6.3-2.9 7.1-6.7.8-3.6-.5-6.7-3.7-8.5-4.2-2.4-8.8-3.9-12.7-6.6-3-2-5.9-4.9-7.3-8.1-1.9-4.5-.9-9.2 3.3-12.5 4.5-3.5 9.5-3.3 14.5-1.2 1.5.8 2.7 1.8 4.2 2.9zM351 144.3h-17.9c7.1-2.8 6.6-2.6 4.7-9.1-1.7-5.7-4.8-8.1-10.6-7.1-1.1.2-2.3 0-3.5 0-5.6 0-10.6 5.4-9.5 11 .4 1.8 2.7 3.3 4.4 5.2h-13.2c9.8-8.3 11-20.7 16.2-31 2.5-4.8 4.3-9.9 6.9-16.1 1.3 2.4 2.2 3.8 2.8 5.3 4.4 10.5 8.7 21.1 13.3 31.5 1.7 3.6 4.3 6.9 6.4 10.3zm-24.7-36.7c-2.7 6.6-5 12.3-7.4 18.1h14.9c-2.5-6.1-4.9-11.7-7.5-18.1zm474.3-8.2h43.8v11.2c-7-10.4-7-10.4-18.4-9 0 12.6-.3 25.3.3 37.9.1 1.7 4.2 3.3 6.4 4.8h-21.5c.2-.5.2-.9.3-1 7.2-1.4 7.3-1.5 7.3-8.9.1-10.9 0-21.7 0-32.5-11.3-2.5-13.5-1.5-18.4 9.4.2-4.7.2-8 .2-11.9zM494.3 68.3c1.6-1.6 2.2-2.8 3.2-3.2 1-.4 2.3-.1 3.4-.1h102.7c1.2 0 2.4-.2 3.4.1.7.2 1.3 1.1 1.9 1.7-.6.6-1.1 1.3-1.8 1.7-.5.3-1.3.1-2 .1H498c-.6.1-1.3-.1-3.7-.3zm795.5 65.2c-1 3.2-2 6.5-3.2 9.7-.3.7-1.4 1.5-2.2 1.5-11.3.1-22.6.1-34.4-.6 8-.9 8.1-7.4 9.8-12.6 2.5-8 4.8-16.2 7.4-24.2 1.2-3.7 1.5-6.6-3.6-7.6h18c-7.6.6-7.7 6.9-9.3 12-2.5 8.2-5.1 16.4-7.5 24.6-1.6 5.3-.6 6.2 5 6.6 8.5.7 14.8-2.4 18.6-10.4.5.4.9.7 1.4 1zm-40.6-.2c-1.1 3.5-2.1 6.9-3.4 10.1-.2.6-1.5 1.2-2.3 1.2-11.2.1-22.4.1-34-.5 9.4-1.7 8.4-9.9 10.6-15.9 2.4-6.7 4.2-13.5 6.2-20.3 1.7-5.7 1.7-5.7-4.5-8.4h19.1c-8.7 1-8 8.7-9.9 14.3-2.5 7.3-4.6 14.8-6.8 22.2-1.7 5.6-.8 6.4 5.2 6.8 7.7.5 13.6-1.9 17.5-8.7.2-.4.7-.7 1-1 .2.2.4.2 1.3.2zM662.5 99.7c-6.2.4-6.8 4.4-6.8 9.1.1 8.7-.1 17.5.1 26.2.1 6.8.3 6.8 6.8 9.2h-20.2c8.1-.7 6.3-6.8 6.4-11.8.1-7.4 0-14.9 0-22.3 0-7.7 0-7.7-6.5-10.5 6.7.1 13.5.1 20.2.1zM872 144.4h-20.2c7.7-1.1 6.6-7 6.7-12 .2-7.6.2-15.2 0-22.8-.2-7.3-.4-7.3-6.7-10H872c-8.4.7-6.6 7-6.7 12-.2 7.8-.2 15.5 0 23.3.2 6.9.4 6.9 6.7 9.5zm323.6-44.9h17.2c-6.7 1.5-6.8 7.3-8.3 12-2.5 7.9-4.8 15.8-7.2 23.6-1.9 6.3-1.9 6.3 4.2 9h-18.8c8.2-1.2 7.7-8.5 9.5-14 2.4-7.4 4.4-14.8 6.9-22.2 1.4-3.9 2.1-7.2-3.5-8.4zm104.2 32c-.7-9.4-1.6-18.9-2-28.3-.1-1.2 2-2.4 3.1-3.6.9 1.3 2.7 2.7 2.6 4-.4 9.3-1.2 18.7-1.9 28l-1.8-.1zm.8 5.1c1.8 2.5 3.7 4 3.6 5.4-.1 1.4-2.2 3.6-3.5 3.6-1.3 0-3.4-2.1-3.6-3.5-.1-1.3 1.8-2.9 3.5-5.5z" class="st0"/></svg>