<svg xmlns="http://www.w3.org/2000/svg" viewBox="0 0 1350.4 172" enable-background="new 0 0 1350.4 172"><style type="text/css">.st0{fill:#242424;}</style><path d="M715.4 22.9C710 34.4 704.6 46 699.2 57.5c-5.4 11.6-10.8 23.3-16.4 34.8-.8 1.7-2.9 3.2-4.7 3.9-3 1.1-3.9-1.6-4.9-3.7-10.7-22.4-21.4-44.8-32.1-67.2-.4-.7-.8-1.5-1.5-2.9-.3 1.2-.5 1.7-.5 2.2 0 15.7-.1 31.4.1 47.1.2 12.1 1.7 13.7 13.5 17 0 2.2 0 4.6 0 7.2-11.6 0-23.2 0-35.2 0 0-2.4 0-4.8 0-7.2 11.3-3.8 12.5-5.1 12.6-17.6.2-16.9.1-33.7 0-50.6 0-11.2-1.2-12.4-12.6-14 0-1.9 0-3.8 0-6.4 5.6 0 11.4 0 17.2 0 6 0 12 .2 18-.1 3.5-.2 5.2.9 6.7 4.2 8.3 18.2 16.9 36.2 25.4 54.3.4.9.9 1.7 1.7 3.4 4-8.3 7.7-16 11.4-23.7 5.4-11.4 10.7-22.9 16.3-34.3.7-1.5 2.6-3.5 3.9-3.6 12.5-.3 25-.2 37.7-.2 0 2.3 0 4.2 0 6.1-.3.2-.5.5-.8.6-11.2 1-12.4 2.3-12.4 13.4 0 18 0 36.1 0 54.1 0 11.7 1.2 13.1 13.3 14.1.1 1.2.3 2.5.3 3.8 0 1.2-.1 2.3-.2 3.8-17.5 0-35 0-52.8 0 0-2.4 0-4.8 0-7.2.2-.1.4-.5.7-.5 11-.9 12.5-2.5 12.5-13.5 0-15.7 0-31.4 0-47.1 0-1.6-.2-3.1-.3-4.7 0 0-.4 0-.7-.1zM1000.4 88.3c0 2.9 0 5 0 8-7.1 0-14.3-.6-21.3.2-7.8.9-12.2-2.1-15.7-8.8-4.7-9.2-10.4-17.8-15.4-26.9-3.6-6.5-9.2-7.9-16.4-7.1 0 9.2-.2 18.1.1 27.1.1 3.9 2.6 6.4 6.7 6.9 1.9.2 3.9.5 6 .8 0 2.4 0 4.7 0 7.4-17.3 0-34.7 0-52.4 0 0-2.4 0-4.8 0-7.2 13.1-2.4 13.5-2.9 13.6-16.6 0-16.7 0-33.4 0-50 0-12.8-.8-13.8-13.5-15.6-.1-.9-.3-1.8-.3-2.7 0-1 .1-2 .2-3.6 1.9 0 3.7 0 5.4 0 20.4 0 40.7 0 61.1 0 11.7 0 21.9 8 24.4 19 2.7 11.7-2.2 21.7-13.3 27.2-1.5.7-3 1.4-4 1.9 7 10.1 14 20.2 21 30.3 3.2 4.9 7 9.3 13.8 9.7zm-68.8-44c8.9-.2 17.9 1.4 22.8-8.2 3.5-6.7 2.7-19-1.8-23.3-6-5.7-13.5-5.1-21-4.6 0 12.2 0 23.8 0 36.1zM1242.3 6.9c0-2.2 0-4.2 0-6.7 1.6 0 3.2 0 4.9 0 20.7 0 41.4 0 62.1 0 10.8 0 20.4 7.6 23.3 18.5 3 10.9-1.4 21.2-11.3 26.8-2 1.1-4.2 2.1-5.9 2.9 7.2 10.3 14.3 20.6 21.6 30.9 3.2 4.6 7 8.6 13.2 9 0 2.7 0 5.1 0 8.1-9.8 0-19.5.2-29.1-.2-1.5 0-3.3-2-4.2-3.6-6.2-10.3-12.5-20.5-18.3-31-3.8-6.9-9.4-8.9-17-7.9 0 9-.2 17.9.1 26.9.1 4.1 2.8 6.6 7 7.2 1.8.2 3.6.5 5.7.7 0 2.4 0 4.8 0 7.6-17.4 0-34.6 0-52.1 0 0-2.6 0-5 0-7.6 1.5-.1 2.7-.2 4-.3 6.6-.8 8.9-3.1 9-9.7.1-20.5.1-41 0-61.6 0-7-2.5-9.3-9.3-9.8-1.2-.1-2.3-.2-3.7-.2zm39.1 37.1c13.4 1.1 19.6-1.1 23-7.7 3.4-6.7 2.6-18.6-1.6-23.3-3.8-4.4-15-6.5-21.4-4.1 0 11.5 0 23.1 0 35.1zM1011.8 96.1c0-2.7 0-5.1 0-7.6 1.7-.3 3.1-.6 4.6-.7 5-.5 7.3-3.5 7.5-8.3.1-3.8.3-7.7.3-11.5 0-15.9.1-31.7 0-47.6-.1-11-1.3-12.3-12.3-13.7 0-1.9 0-3.8 0-6.4 1.6 0 3.4 0 5.1 0 18.9 0 37.7.3 56.6-.1 17.2-.3 29.4 8.1 37.7 22.1 12.9 21.7 9.2 58.5-23.2 70.4-6.9 2.5-14.7 3.2-22.1 3.5-17 .5-34 .3-51.1.3-1-.2-1.9-.3-3.1-.4zm38.1-88.6c0 7.7 0 15.5 0 23.3 0 15.2-.1 30.4 0 45.5.1 8.4 2.9 11 11.2 11.1 12.3.1 20.6-5.5 24.3-17.5 4.3-13.8 4.5-28 .2-41.9-4.6-15.5-19.5-24-35.7-20.5zM306.7 6.1c0-1.9 0-3.6 0-5.6 27.7 0 55.3 0 83.4 0 .5 7.7.9 15.3 1.3 22.9-7.3 1.8-7.8 1.8-10.5-4.8-3.1-7.7-8.4-11.6-16.9-11.3-5.8.2-11.6 0-17.8 0 0 11.3 0 22 0 32.7 13.8 2.8 17.6.6 19.7-11.1 2.4 0 4.9 0 7.7 0 0 10.9 0 21.7 0 32.8-2.5 0-4.9 0-7.3 0-3.2-12.1-4.9-13.2-20.1-11.6-.1 1.5-.3 3.1-.3 4.6 0 8 .1 16 .1 24 0 4.3 2.2 6.6 6.3 7.8 16.3 4.7 28.5-1 34-16.7 2-5.7 4.8-6.7 10.2-5.2 0 5 0 10.1 0 15.3 0 5.3 0 10.6 0 16.1-30.5 0-59.9 0-89.7 0 0-2.6 0-5 0-7.4 12.7-2.1 13.1-2.6 13.1-15.4 0-16.9.2-33.7-.1-50.6 0-10.4 2.7-14.3-13.1-16.5zM1136.3 6.1c0-1.8 0-3.5 0-5.5 27.6 0 55.2 0 83.4 0 .5 7.5 1 15.3 1.4 23-5.5 1.6-8.9.7-10.8-5.2-2.5-7.9-8.4-11.5-16.9-11.2-5.8.3-11.6 0-17.7 0 0 11.2 0 21.8 0 32.4 11.6 3.7 17.4.7 19.9-10.7 2.5 0 5.1 0 7.9 0 0 11 0 21.6 0 32.6-2.6 0-5.2 0-7.8 0-2.8-11.8-6.3-13.8-19.8-11.3 0 10.3-.2 20.5.1 30.8.1 4.1 4 5.3 7.3 5.7 19.8 2.3 26.6-1.1 33.3-18.2.5-1.4 1-2.8 1.5-4.3 2.6 0 5 0 7.6 0 0 10.7 0 21.1 0 31.7-29.9 0-59.4 0-89.3 0 0-2.4 0-4.8 0-7.2.2-.2.5-.5.8-.5 11.1-1.1 12.5-2.7 12.5-14.1 0-17.2 0-34.4 0-51.6.1-13.5 0-13.6-13.4-16.4zM842.5 6.8c0-2.2 0-4.1 0-6.3 11.9 0 23.7 0 35.8 0 0 2 0 3.9 0 5.8-11 4.2-11.9 5.8-12.1 18.1-.1 14-.1 28-.7 42-.5 13.8-8.1 23.1-20.6 28.2-13.9 5.8-28.1 5.4-41.9-.5-15.3-6.5-20.3-19.3-20.3-34.8 0-12.7 0-25.4 0-38.1 0-11.7-.9-12.8-12.3-14.7 0-1.9 0-3.8 0-6.1 16.9 0 33.8 0 51.1 0 0 2 0 3.9 0 5.7-.3.3-.6.6-.9.6-10.5 1-12.2 2.6-12.1 13.4.1 15.7 0 31.4.8 47 .7 12.7 9.4 20.5 21.8 20.9 12.3.4 22.8-7.3 24.2-19.2 1.3-10.9.9-22 1.2-33 .1-4.7.1-9.4 0-14 0-9.8-3.5-13.6-14-15zM468.1 4.9c3-5.3 3.1-5.3 10.9-4.2 0 8.7 0 17.5 0 26.3-7.1 1.8-7.1 1.6-9.8-4.8-3.5-8.2-8.4-14.9-18.1-16.2-6.2-.8-11.4 2-13.2 6.7-1.8 4.9-.2 10.7 4.8 14.1 4.1 2.8 8.8 4.8 13.2 7.1 5.6 2.9 11.4 5.5 16.8 8.8C484.8 50 490 63 486.5 76.3c-3.1 12-15.9 21.7-29.1 22.2-11 .5-20.5-3-28.9-11-.9 2.7-1.7 4.8-2.5 7.2-2.6 0-5.2 0-8.5 0 0-5.6 0-11 0-16.5s0-10.9 0-16.7c3.1 0 5.7 0 8.6 0 1.2 3.3 2.2 6.7 3.6 10 3.9 9.1 10.1 15.7 20.4 17.1 7.3 1 12.8-2.1 14.9-8 2-5.4-.1-11.2-6.2-14.9-6.9-4.1-14.1-7.5-21.1-11.4-4-2.3-8.2-4.6-11.6-7.8C412.9 34.1 414.3 13.6 429 3c2.2-1.6 5.4-2.5 8.2-2.7 5.5-.4 11 0 16.5-.2 5.2-.1 10.4-.3 14.4 4.8zM197.5 88.3c0 3 0 5.2 0 7.8-16.2 0-32.1 0-48.2 0 0-2.6 0-5.1 0-7.4 10.9-1.9 10.7-1.9 7-12.5-1.6-4.7-3.8-6.5-8.9-6.1-6.5.5-13 .3-19.5.1-2.7-.1-4.5.6-5.1 3.4-.1.3-.3.6-.4.9-4 10.2-3.1 11.9 7.7 14.2 0 2.4 0 4.8 0 7.5-10.7 0-21.1 0-31.9 0 0-2.6 0-5 0-7.6 8.6-1.9 12.1-8.8 15-16.1 8.9-22.3 17.9-44.5 26.4-66.9 1.7-4.4 3.9-5.5 8.3-5.5 4.2 0 6 1.5 7.5 5.3 8.8 22.1 17.8 44.2 26.7 66.2.7 1.7 1.4 3.4 2.2 5.1 2.5 5.7 5.8 10.8 13.2 11.6zm-47.3-27.1c-3.9-9.3-7.6-18.1-11.7-28-3.9 10.1-7.4 18.9-11 28 7.9 0 15 0 22.7 0zM97 .5c0 8.7 0 17.2 0 25.5-7.5 1.5-7.5 1.5-9.6-5.2C83.6 9.1 76.6 5.7 61 8.3c0 1.7 0 3.5 0 5.3 0 20 0 40 0 60.1 0 12.4 1.3 13.9 13.8 14.8 0 2.4 0 4.8 0 7.6-17.6 0-35.3 0-53.4 0 0-2.4 0-4.8 0-7.1.3-.2.4-.4.5-.4 12.7-2 13.2-2.6 13.2-15.6 0-19.7 0-39.4 0-59.1 0-1.8 0-3.6 0-5.3-16-4.5-23.6.4-27.6 17.8-2.3 0-4.7 0-7.4 0C.1 17.7.1 9.3.1.5 32.2.5 64.3.5 97 .5zM205.4 6.5c0-2.1 0-3.9 0-6 17.4 0 34.6 0 52.2 0 0 2 0 4 0 5.8-.5.3-.7.6-1 .6-10.9.9-12.2 2.3-12.2 13.1 0 18.8 0 37.7 0 56.5 0 7.5 2.2 9.8 9.5 10.7 17.3 2 27-4 32.2-20.6 1.7-5.3 5.2-2.4 8.4-3.3 0 11.1 0 21.8 0 32.7-29.9 0-59.3 0-89 0 0-2.7 0-5.1 0-7.7 1.7-.2 3.2-.2 4.6-.4 5.8-.9 8.1-2.9 8.1-8.9.2-21 .2-42 0-63-.1-6.8-1.9-7.9-12.8-9.5zM529.4.2c17.7 0 25.3 4.7 28.8 16.6 5 16.9-6.7 33.1-24.3 33.4-3.8.1-7.7-.1-11.4-1-9.8-2.3-16.1-8.4-18.4-18.3-2.3-10.1.4-18.7 7.8-26C517.6-.7 524.7 0 529.4.2zm14.9 24.6c-.8-4.5-1.3-9.2-2.6-13.7-1.4-5.1-5.3-7.7-10.5-7.7s-8.9 2.7-10.5 7.8c-2.7 8.9-2.6 17.8.3 26.6 1.5 4.7 5 7.4 10.2 7.4 5.3 0 9.1-2.5 10.6-7.5 1.2-4.1 1.6-8.4 2.5-12.9zM969.3 169.6c-7.2 0-14.4 0-21.8 0 .2-.9.2-1.5.3-1.5 6.1-.8 6.8-5 6.6-10.1-.2-6.3.1-12.7-.1-19-.3-9-7.2-12.5-14.8-7.5-4.5 2.9-7.8 6.4-7.1 12.6.6 5.3.3 10.7.1 16-.1 3.9.4 7 5.2 7.5.4 0 .7.9 1.5 2.1-7.6 0-14.6 0-21.6 0 .1-.9.1-1.5.2-1.5 6.6-.9 7.2-5.3 6.9-10.8-.3-6.2.1-12.3-.1-18.5-.3-8.4-6.8-12.1-14.1-8-4.8 2.7-8.6 6.1-7.8 12.6.5 4.1.1 8.3.1 12.5 0 8.9 0 8.9 6.5 12.7-3 2.4-18.1 2.4-21 0 6.5-3.6 6.5-3.6 6.5-12 0-6-.2-12 .1-18 .3-5-.5-8.7-7-8.5 0-.6.1-1.2.1-1.7 4.2-1 8.5-2.1 13.3-3.3.7 2.7 1.3 5 1.6 6.2 5.1-2 10.2-4.9 15.7-5.8 6.3-1.1 11.2 2.1 13.4 8 4-2.5 7.5-5.5 11.5-7.1 10.2-4 18.5 1.7 18.8 12.5.2 6 0 12 0 18 0 5.3-.9 11.3 8.3 10.9-.6.5-.9 1.1-1.3 1.7zM34.1 167.9c-4.4 3.3-31.5 3.1-34.1.7.2-.3.3-.7.5-.7 10.3-1.6 10.5-1.6 10.5-12.2.1-15 0-30-.1-45.1-.1-7.9-.5-8.1-8.6-9-.6-.1-1.2-.4-1.9-.6 2.4-2.3 44.8-3.2 55-1.3 0 5.6 0 11.3 0 17-.3.2-.6.3-.9.5-.7-1.2-1.6-2.2-2-3.5-2.9-9.4-6.3-12-16.3-12-4.6 0-9.3 0-14.2 0 0 10.1 0 19.7 0 30.2 4.2-.4 8.9.2 12.1-1.6 2.8-1.6 4.1-6.1 6-9.2 2.2 1.5 2.7 20.9.1 25-1.9-3.7-2.8-8.6-5.7-10.5-3-2-7.9-1-12.4-1.4 0 9.9-.3 19.2.3 28.5.1 1.7 3.3 3.6 5.4 4.7 1.4.5 3.4.2 6.3.5zM380.3 130.5c0-7.9-.1-15.2 0-22.5.1-5.4-4.8-4.4-7.8-7.3 5-.9 10-1.9 15.8-2.9 0 2.3 0 4 0 5.8 0 18.5.1 37 0 55.5 0 4.6-.3 8.9 6.2 8.9.2 0 .5.4.6.7.1.3.1.6.1 1.5-4.5.5-9 1-13.7 1.5-.4-2.1-.8-3.9-1-4.8-5.7 1.6-11.3 4.1-17.1 4.7-6.4.7-11.3-3.2-15.1-8.3-6.5-8.9-6-23 1.2-31.1 7.6-8.4 17.1-9.1 30.8-1.7zm.1 17.8c0-3.5 0-7 0-10.5 0-1.1-.1-2.4-.7-3.3-5.6-8.2-20.5-7.3-24.4 1.7-3.6 8.2-3.4 16.9.5 25.1 2.7 5.7 8.8 8.1 14.7 6.5 6.9-1.8 10-5.7 10-12.7-.1-2.2-.1-4.5-.1-6.8zM746.7 167.9c-4.3 3.2-19.9 3.1-22.6 1 2.2-1.5 5.3-2.7 6.4-4.8 1.2-2.3.5-5.5.5-8.4 0-13.3 0-26.7 0-40 0-9.6 0-9.6-7.8-14.7 5.5-1 10.2-1.9 15.6-2.9 0 11.4 0 22.6 0 35.1 5.5-5.8 10.9-8.5 17.7-7.8 7.2.8 11.3 4.5 11.8 11.7.4 6.1.2 12.3.4 18.5.1 5.6-1.6 12.2 7.8 12.5-3.3 2.8-19 3-23.1.9.1-.3.1-.8.2-.9 7.3-2.5 7.4-2.5 7.3-10.9 0-6.7.1-13.4-.4-20-.6-6.9-5.9-10-12.5-7.9-5.4 1.7-9.1 6.7-9.1 12.3 0 5.7.2 11.4-.1 17-.1 5.2.6 9.1 7.9 9.3zM567.5 47.8c1-1 1.9-2.5 3.1-2.8 3.2-.9 4.3-2.8 4.3-5.8 0-9.8 0-19.7 0-29.5 0-3.1-.7-5.5-4.5-6.1-1-.1-1.8-1.5-3.7-3.2 15.4 0 29.1 0 43.3 0 0 3.9 0 7.6 0 12.4-1.5-.6-4-.8-4.2-1.7-3-9.2-10.3-7.1-17.3-7 0 5.4 0 10.7 0 16 3.8.6 7.2 1.4 8.5-3.6.2-.8 1.7-1.6 2.7-1.7.5-.1 1.6 1.5 1.7 2.3.2 4.8.1 9.6.1 16-2.1-1.4-4.2-2-4.4-2.9-.9-5.4-4.5-4.8-8.8-4.2 0 4.8-.3 9.6.2 14.4.2 1.6 2.5 2.9 3.9 4.3 1 1.1 2.1 2.1 3.2 3.2-.3.3-.6.7-.9 1-8.8 0-17.6 0-26.3 0-.4-.3-.6-.7-.9-1.1zM647 128.9c-6.8 1.3-7.5 7-9.4 11.8-3.5 9-7 18-10.7 26.9-.6 1.5-2 2.6-3.1 4-.9-1.3-2.1-2.4-2.7-3.8-3.6-9.3-7.1-18.6-11-29.1-1.3 3-2.2 5-3 7.1-2.9 7.6-5.8 15.3-8.8 22.8-.5 1.2-1.8 2-2.7 3-.8-1-1.8-1.8-2.3-2.9-3.8-9.6-7.4-19.3-11.2-28.9-1.8-4.4-2.1-10-9.2-10.7.3-.5.6-1 .9-1.4 6.6 0 13.1 0 19.8 0-.2.7-.1 1.2-.3 1.3-6 2.5-5.9 2.5-3.6 8.7 2.8 7.3 5.5 14.6 8.7 22.9 4.7-11.8 9-22.8 13.4-33.8.6 0 1.3-.1 1.9-.1 4.2 10.9 8.3 21.7 13 34 2.1-5.4 3.7-9.7 5.4-14 .9-2.3 1.9-4.6 2.8-7 2.7-7.1 2.7-7.1-3.5-11.9 5.5 0 10.2 0 14.8 0 .3.2.6.6.8 1.1zM1210.8 102.9c-3-.4-4.6-.6-6.2-.8-.1-.5-.2-1-.3-1.5 4.6-.9 9.2-1.7 14.7-2.7-4.5 15.1-8.9 29.5-13.2 43.9.5.4.9.8 1.4 1.1 2.5-2.9 4.8-6.1 7.6-8.6 3.3-2.9 7-5.6 10.9-7.8 1.6-.9 4.3-.8 6.2-.3 1 .3 2.1 2.8 1.8 3.8-.3 1-3 2.5-3.7 2.1-6.2-3.7-9.5.9-13.5 4.1-2.2 1.8-4.5 3.5-7.7 6 10.6 3 9.8 10.6 11.1 17.3.5 2.5 1.6 4.9 2.4 7.4 1.9-2.1 3.8-4.3 5.7-6.4.7-.8 1.2-1.7 2.1-3 .8 6.5-3.7 13.1-9.1 14.1-4.4.9-7.7-1.1-8.1-5.8-.4-4.4.2-9 .3-13.5.1-2.6.6-6.4-2.9-6.3-2.3 0-5.8 2.3-6.8 4.5-2.4 5.1-4 10.6-5.3 16.1-1.1 4.6-3.4 5.4-7.9 3.9 6.9-22.5 13.6-44.8 20.5-67.6zM316.2 165c-4.9 2.1-9.4 4.4-14.1 5.9-5.4 1.6-10.7-.8-12.9-5.1-2.1-4.2-.8-9.9 4.2-13.1 5.9-3.7 12.4-6.4 18.5-9.8 1.7-.9 4.3-2.7 4.1-3.8-.4-3.2-1.1-7.3-3.3-9.2-5.1-4.5-12.6-1.7-15.2 4.6-.6 1.6-2.4 2.9-3.9 3.9-.5.3-2.8-.7-2.8-1.1.1-2 0-4.5 1.1-5.9 5.5-7.6 23.6-8.5 29.3-1.2 2 2.6 2.7 6.7 2.9 10.2.4 6.8 0 13.7.2 20.5.1 2 1.4 4 2.2 6 1.6-1.3 3.3-2.7 4.9-4 .4-.3.8-.4 1.6-.9.7 4.4-.7 7.3-4.7 8.7-5.2 1.9-9.1 0-12.1-5.7zm.1-21.9c-6.1 3.8-11.4 6.5-15.9 10.1-3.2 2.6-4.5 7.1-1.7 10.7 1.3 1.7 5 3 7.1 2.5 4.3-1 9.5-2.4 10.3-7.8.7-4.5.2-9.1.2-15.5zM79 125.2c13 .1 22.9 10.2 22.9 23.4 0 13.6-9.9 23.5-23.4 23.3-13.5-.2-22.8-9.9-22.7-23.8.1-13.3 9.9-23 23.2-22.9zm14 23.9c-.6-4-.8-7.8-1.8-11.5-1.8-6.5-6.4-9.8-12.8-9.6-6.3.2-11.3 3.4-12.1 9.7-.9 7.3-.8 14.9 0 22.2.7 5.7 6 9.1 12 9.3 5.9.3 10.9-2.8 12.7-8.5 1.1-3.8 1.4-7.8 2-11.6zM1102.7 148.5c0-13.4 9.6-23.2 22.9-23.2 13.3 0 23.3 10.1 23.2 23.6-.1 13.4-9.6 23-23 23.1-13.5 0-23.1-9.8-23.1-23.5zm8.6.5c.6 3.6 1 7.9 2.3 12 1.7 5.4 6.6 8.4 12.4 8.2 5.9-.1 10.3-3.2 12.1-8.7 2.3-7.3 2.2-14.8.4-22.2-1.7-6.9-6.3-10.4-12.8-10.4-6.6 0-11.1 3.5-12.7 10.4-.9 3.3-1.1 6.6-1.7 10.7zM273.3 160c-1.6 9.2-11.7 13.8-21.5 11.3-11.5-3-17.9-14.6-15.5-28.2 2.1-11.6 11.7-18.9 23.4-17.7 8.3.9 14.1 7.1 14.8 16.2-8.3 0-16.6.2-24.9-.1-3.7-.1-5.3 1.1-4.8 4.8.6 4.4.8 9 2 13.3 1.2 4.6 4.2 8 9.3 8.8 5.4.9 10.3-.4 13.9-4.8 1-1.3 2.2-2.4 3.3-3.6zm-8.1-20.8c.3-7.1-2.4-10.8-8.1-11.2-6.2-.5-10.2 3.4-11.4 11.2 6.4 0 12.8 0 19.5 0zM1019.7 160.5c-3 8.6-11.9 12.9-21.7 11-12-2.4-18.9-14.1-16.5-27.7 2.2-12.6 12.2-20.1 24.3-18.2 8 1.2 13.9 7.9 13.7 16-9.4 0-18.9 0-28.9 0-1.1 8.4-.9 16.3 4.2 23 4.8 6.3 15.1 5.5 20.6-1 .8-1 1.6-2 2.5-3 .1-.3.8-.1 1.8-.1zm-9.2-21.3c.2-7.1-2.5-10.7-8.2-11.2-6.3-.5-10.4 3.5-11.4 11.2 6.4 0 12.8 0 19.6 0zM444.6 141.6c-9.9 0-19.6 0-29.6 0-.8 7.5-.5 14.4 2.9 20.8 4.3 8.1 16 8.6 22 1.1 1.1-1.3 2.4-2.4 3.9-3.2-2.4 8.7-11.7 13.2-21.5 11-11.3-2.5-18.3-13.9-16.5-26.7 1.8-12.3 10.9-20.1 22.6-19.4 8.9.7 14.8 6.4 16.2 16.4zm-28.8-2.5c6.4 0 12.9 0 19.3 0 .5-6.8-2.5-10.7-8.1-11.1-6.5-.5-10.9 3.8-11.2 11.1zM214.3 169.6c-7.6 0-15.2 0-22.9 0 .2-.9.2-1.5.3-1.5 6.3-.7 7.5-4.6 7.1-10.2-.4-5.3-.1-10.7-.1-16 0-8.5 0-8.5-8.5-12.8 5.2-1.5 9.5-2.7 14.4-4 .7 3 1.3 5.6 1.8 7.9 3.1-2.3 5.9-5.2 9.4-6.9 4.8-2.4 10.1-.4 11.1 4 .4 1.5-1 3.4-1.5 5.2-1.7-.6-4-.7-4.9-1.9-3.8-4.9-5-5.4-8.8-.7-2.3 2.9-3.8 6.9-4.5 10.6-.8 4.2-.3 8.6-.3 13-.2 9.1-.2 9.1 7.4 13.3zM137.6 168.4c-3.6 2.6-20.1 2.6-23.7-.1 1.3-.4 2.5-.5 3.2-1.1 1.6-1.4 4.1-3 4.2-4.6.4-9 .4-18 .1-27-.1-1.5-2.2-3.1-3.7-4.4-.9-.7-2.3-.8-3.4-1.2 0-.4 0-.9-.1-1.3 4.3-1.2 8.6-2.3 13.4-3.6.6 2.9 1.2 5.5 1.7 8.2 2.6-2.2 4.9-4.8 7.7-6.5 4.6-2.9 10-2.1 11.9 1.8.8 1.7-.3 4.4-.5 6.6-1.9-.8-4.4-1.1-5.5-2.5-3-4-3.8-4.3-7.7-1.1-4.2 3.5-5.5 8.2-5.6 13.4-.1 4 0 8 0 12 0 8.9 0 8.9 8 11.4zM1324.3 157.9c-1.3 5.2-3.7 9.9-8.7 12.3-2.3 1.1-6.4 1.2-8.2-.1-1.8-1.3-3-5.4-2.4-7.7 4.6-17 9.8-33.9 14.7-50.9.2-.8.5-1.6.7-2.4 1.8-6.3 1.8-6.3-4.4-7.1-.1-.5-.2-1-.3-1.5 4.7-.9 9.3-1.7 14.8-2.8-3 10.1-5.8 19.4-8.6 28.7-3.3 11-6.9 21.9-10 33-.7 2.5.1 5.5.3 8.3 2.4-1.7 5.1-3.2 7.3-5.2 1.6-1.5 2.5-3.7 3.8-5.5.3.4.7.6 1 .9zM508.6 167.6c-1.1 1.6-1.9 2.8-2.7 4-.3-.1-.6-.1-1-.2 0-4.6 0-9.2 0-13.9.3-.1.6-.3 1-.4.7 1.3 1.4 2.6 2 4 2 4.1 4.7 7.3 9.5 8.1 3.6.6 6.7-.3 8.4-3.8 1.8-3.6 1.2-6.9-1.9-9.4-2.3-1.8-5.1-3.1-7.6-4.7-2.4-1.5-5-2.8-7.2-4.5-5.6-4.4-6.4-11.2-2.3-16.9 3.8-5.3 10.5-6.2 16.4-2.3.7.4 1.3 1 1.9 1.5 1-1.1 2-2.1 3.6-3.9 0 5.4 0 9.7 0 14.1-.4.1-.8.2-1.1.3-.6-1.4-1-3-2-4.2-1.8-2.3-3.6-5-6-6.4-3.2-1.9-7-1.5-9.2 2.1-2.3 3.7-.9 6.9 2.5 9 3.4 2.1 7 3.8 10.5 5.7 4.1 2.2 7.4 5.1 8.4 9.9 1.1 5.5.2 10.4-4.6 13.8-4.8 3.3-10 3.3-15.1.5-1.1-.7-2.1-1.5-3.5-2.4zM1293.8 158.5c-2.4 3.5-4.5 7.2-7.3 10.3-2.6 2.9-6.4 3.9-10 1.9-3.7-2-3.8-5.7-2.8-9.2 5-16.9 10-33.9 15-50.8.1-.5.3-.9.5-1.4 1.9-6.4 1.9-6.4-4.7-7.4-.1-.4-.2-.9-.3-1.3 4.8-.9 9.6-1.8 15.1-2.8-5.4 17.7-10.6 34.7-15.7 51.7-1.3 4.3-2.8 8.6-3.8 12.9-.4 1.6.4 3.4.7 5.1 1.7-.6 3.9-.8 5.2-1.9 1.7-1.5 2.7-3.7 4-5.6.7-1 1.6-2 2.4-3 .6.5 1.1 1 1.7 1.5zM480.2 169.7c-7.5 0-15 0-22.7 0 .2-1 .3-1.5.3-1.6 6.5-.6 7.3-4.7 6.9-10.1-.4-5.3-.1-10.7-.1-16 0-8.3 0-8.3-8.3-12.8 5.2-1.4 9.4-2.6 14.1-3.9.7 2.8 1.2 5.3 1.9 8 2.7-2.3 4.9-4.6 7.6-6.4 4.1-2.6 9.2-2.3 11.4.9 1.1 1.6 1.2 3.9 1.2 5.9 0 .6-2 2.1-2.5 1.8-1.6-.7-3.7-1.7-4.4-3.1-1.9-3.7-3.9-3.4-6.7-1.3-4 3-6.1 7.1-6.2 12-.2 6.3-.1 12.7-.1 19 0 3.2 1.5 5 4.7 5.3 1.1.1 2.1.6 3.2.9 0 .5-.1.9-.3 1.4zM825.3 130c-2.6-.3-4.4-.5-6.2-.8-.3-.3-.5-.7-.8-1 7.2-2.7 11.7-7.5 12.9-15.3.5.2 1 .4 1.5.6 0 4.2 0 8.4 0 12.9 4.8.4 9 .7 13.1 1 0 .7-.1 1.4-.1 2.1-3 0-6.1.1-9.1 0-2.4-.1-3.8.5-3.7 3.3.1 9-.2 18 .3 27 .1 2.5 1.9 6.3 3.9 7.1 1.9.8 5.1-1.4 7.7-2.4.5-.2 1-.5 2.6-1.3-.7 2-.8 3-1.3 3.8-2.7 3.8-8.8 5.8-13.5 4.3-4.8-1.6-7.3-5.1-7.3-10.2 0-10.2 0-20.5 0-31.1zM1078.6 113.7c0 4.2 0 8.4 0 12.8 4.7.3 8.8.5 12.9.8 0 .6 0 1.2 0 1.8-4 0-8.1 0-12.5 0 0 11.8-.4 22.7.2 33.6.2 4.9 5.8 6.5 9.9 3.4 1-.7 1.9-1.5 3.9-1.7-.4 1-.7 2.2-1.3 3-2.7 3.6-8.6 5.4-13.1 4-4.9-1.6-7.3-5.2-7.4-10.1-.2-8.5-.2-17-.2-25.5 0-1.8 0-3.6 0-5.7-2.1-.3-4-.6-5.9-.8-.4-.4-.7-.8-1.1-1.2 7.7-2.3 12-7.3 13-15 .4.2 1 .4 1.6.6zM700.8 113.6c0 4.2 0 8.3 0 12.9 4.7.3 8.9.6 13.1.9 0 .6-.1 1.2-.1 1.8-4 0-8 0-12.4 0 0 11.6-.4 22.6.2 33.5.3 5 5.8 6.6 9.9 3.4 1-.7 1.8-1.6 3.7-1.8-.3.9-.4 2-1 2.8-2.7 3.8-8.3 5.7-13 4.3-4.7-1.3-7.4-4.6-7.6-9.4-.4-8.3-.3-16.7-.4-25 0-2.3 0-4.6 0-7-2.3-.3-4.1-.6-6-.9-.2-.4-.5-.7-.7-1.1 7.5-2.3 11.8-7.4 12.9-15.2.4.3.9.5 1.4.8zM498.7 69.2c1.4-1.7 1.9-2.9 2.8-3.3 1-.4 2.3-.2 3.5-.2 34.7 0 69.4 0 104.1 0 1.2 0 2.4-.2 3.5.1.7.2 1.2 1.2 1.8 1.8-.6.6-1.2 1.3-2 1.6-.5.3-1.3.1-2 .1-35.9 0-71.7 0-107.6 0-.8.2-1.6.1-4.1-.1zM677.3 168.6c-4.3 2.7-21.2 2.4-23.5-.1 7.8-2.9 7.8-2.9 7.8-11.9 0-5.2 0-10.3 0-15.5 0-8.7-.1-8.7-8-12.4 5-1.1 10-2.2 15.7-3.5 0 7.9 0 15.4 0 22.8 0 3.2-.1 6.3 0 9.5.3 8.2.3 8.2 8 11.1zM854.4 128.4c5.1-1 10.1-2 16.1-3.2 0 3.1 0 6 0 8.9 0 7.7 0 15.3 0 23 0 8.5 0 8.5 7.3 11.4-2.6 2.9-21.1 2.8-23.2-.2 8-2.3 8-2.3 8-11.5 0-6.2-.1-12.3 0-18.5.1-4.7-1.2-7.9-6.6-7.8-.5 0-1.1-.5-1.6-.7 0-.4 0-.9 0-1.4zM1262.7 159.7c-3.2 3.5-6.1 7.4-9.8 10.2-1.8 1.4-5.8 1.7-7.7.6-1.8-1.1-3.3-4.7-3-7 .7-4.7 2.5-9.2 4.1-13.8 1.9-5.5 4.1-10.9 5.9-16.4.3-1-.2-2.4-.3-3.6-1.2.3-2.7.2-3.6 1-1.6 1.4-2.9 3.2-4.3 4.8-.9 1-1.8 2.1-3.2 3.7.2-6.4 7.3-13.7 12.3-13.7 4.2 0 6.9 3.7 5.5 8.6-1.7 6.1-4 12-6.1 17.9-1.2 3.6-2.7 7.2-3.6 10.9-.3 1.3.5 3 .7 4.4 1.5-.5 3.3-.6 4.4-1.6 1.8-1.7 3-3.9 4.7-5.8.6-.7 1.7-1.1 2.5-1.6.6.4 1.1.9 1.5 1.4zM1344.6 150c-.4-.9-1.1-1.7-1.2-2.6-1.1-13.1-2.2-26.2-3.1-39.3-.3-3.7-.5-7.8 4.6-8.4 3.3-.4 5.2 3.4 4.7 8.9-1.1 12.8-2.1 25.5-3.2 38.3-.1 1-.3 1.9-.5 2.8-.4.1-.8.2-1.3.3zM1343.4 160.2c5.2.5 7 2.2 7 5.9 0 3.8-2 5.6-5.4 5.7-3.7.1-6.3-2.3-5.6-5.9.4-2.4 2.9-4.3 4-5.7zM670.1 103.5c-.3 3.4-2 5.7-5.6 5.6-3.5-.1-5.5-2.2-5.4-5.8 0-3.4 2-5.3 5.3-5.4 3.6-.1 5.4 2 5.7 5.6zM860.1 103.8c.2-3.5 1.8-5.8 5.5-5.8 3.6-.1 5.6 2.2 5.6 5.6.1 3.2-1.8 5.4-5.2 5.6-3.6.1-5.5-1.9-5.9-5.4zM1267.3 102.1c-3.2 2.5-5 5-6.6 4.9-1.7-.1-4.5-2.6-4.6-4.2-.1-1.5 2.4-4.3 4.1-4.6 1.6-.3 3.7 1.9 7.1 3.9z" class="st0"/></svg>