<svg xmlns="http://www.w3.org/2000/svg" viewBox="0 0 758.4 143.8" enable-background="new 0 0 758.4 143.8"><style type="text/css">.st0{fill:#FFFFF0;}</style><path d="M472.8 36.5c0 1 0 2 0 3-6.3 1-6.5 1.2-6.5 7.5 0 8.2 0 16.4 0 24.6 0 6.3.2 6.6 6.5 7.4 0 1.1 0 2.3 0 3.6-8.5 0-16.9 0-25.4 0 0-1.3 0-2.4 0-3.6 6.1-.8 6.4-1.2 6.4-7.5 0-7.1 0-14.3 0-21.4 0-.9 0-1.7 0-2.6-.2 0-.3-.1-.5-.1-.4.7-.8 1.4-1.2 2.2-4.9 10.4-9.7 20.8-14.6 31.1-.4.8-1.3 1.6-2.2 2-1.5.6-2-.8-2.5-1.9-5.1-10.7-10.2-21.4-15.3-32.1-.2-.4-.4-.8-1-1.1 0 3.4 0 6.8 0 10.2 0 4.4 0 8.8.1 13.2.1 5.6 1 6.6 6.4 8 0 1.1 0 2.3 0 3.6-5.6 0-11.2 0-16.9 0 0-1.2 0-2.3 0-3.5.6-.2 1.3-.4 1.9-.6 2.5-.8 4-2.4 4.1-5 .1-9.7.1-19.4 0-29.1 0-3.1-1.2-4.1-4.2-4.4-.5-.1-1.1-.1-1.8-.2-.1-1.1-.1-2.1-.2-3.2 6.6 0 13.2 0 19.8 0 .2.7.3 1.4.6 2 3.4 7.2 6.8 14.5 10.2 21.7.9 1.9 1.8 3.8 2.9 6.1 4.9-10.2 9.6-20 14.2-29.8 6.4-.1 12.8-.1 19.2-.1zM573 36.5c1 .5 2 1 2.9 1.6 4 2.3 6.1 5.9 6.1 10.5s-2.3 7.9-6.3 10c-.8.4-1.7.8-2.3 1.1 3.3 4.8 6.6 9.6 10 14.4 1.7 2.4 3.5 4.6 6.8 4.8 0 1.3 0 2.4 0 3.8-4.8 0-9.6.1-14.3-.1-.6 0-1.4-1-1.8-1.7-2.9-4.9-5.9-9.7-8.6-14.7-1.8-3.2-4.4-4.5-8.1-4 0 4.6-.3 9.2.1 13.8.3 3 3.4 2.6 5.8 2.9 0 1.1 0 2.3 0 3.6-8.3 0-16.7 0-25.1 0 0-1.2 0-2.4 0-3.5 6.2-.9 6.5-1.3 6.5-7.7 0-8 0-16 0-24.1 0-7.4-1.1-7-6.5-7.7-.1-1-.1-2-.2-3 11.6 0 23.3 0 35 0zm-16 21.3c2.3-.2 4.2-.2 6.1-.4 3.2-.4 5-2.4 5.6-5.5 1.4-7.6-1-11.7-8.6-11.7-.6 0-1.2-.3-1.6-.1-.6.3-1.3.9-1.3 1.4-.2 5.4-.2 10.6-.2 16.3zM741.1 36.5c3.1 1.5 6 3 7.7 6.2 3.1 5.8 1.2 12.5-4.6 15.7-.9.5-1.9.9-3.2 1.5 6.8 5.6 8.5 15.3 17.3 19.7 0 .6 0 1.7 0 3.2-4.7 0-9.3.1-14-.1-.7 0-1.6-1-2.1-1.7-3-4.9-5.9-9.9-8.8-14.9-2.2-3.7-3.5-4.2-8.1-3.8 0 4.3-.1 8.6 0 12.9.1 2 1.3 3.2 3.4 3.5.9.1 1.7.2 2.8.3 0 1.2 0 2.3 0 3.6-8.3 0-16.6 0-25.1 0 0-1.2 0-2.4 0-3.5 6.1-1 6.3-1.2 6.3-7.6 0-8.2 0-16.4 0-24.6 0-6.2-.1-6.4-6.3-7.4 0-1 0-2 0-3 11.6 0 23.2 0 34.7 0zm-15.8 21.1c6.8.4 9.6-.6 11.1-4 1.6-3.4 1-9-1.1-11.2-1.9-2-7.3-2.9-10.1-1.7.1 5.5.1 11.1.1 16.9zM630.3 36.5c1.4.7 2.9 1.3 4.3 2 9.4 4.9 13.9 15.3 11.6 26.6-1.9 9.5-10 16.6-20.3 17.1-10 .4-20 .1-30.2.1 0-.9 0-2.1 0-3.3.3-.1.6-.1.9-.2 4.2-.6 4.9-1.1 4.9-5.3.2-9.5.2-18.9 0-28.4-.1-4.4-.6-4.7-5.9-5.6 0-1 0-2 0-3 11.6 0 23.2 0 34.7 0zM614 39.9c0 2.7 0 5.3 0 7.8 0 8.4 0 16.8 0 25.3 0 4.2 1.4 5.4 5.5 5.5 5.9 0 9.9-2.8 11.6-8.5 1.9-6.4 2.1-13 .2-19.4-1.9-7.1-6.7-11.6-17.3-10.7zM297 36.5c0 3.7 0 7.5 0 11.3-3.2.7-3.3.7-4.6-2.5-1.5-3.7-4.1-5.6-8.1-5.4-2.8.1-5.6 0-8.5 0 0 5.4 0 10.6 0 15.7 6.7 1.3 8.5.3 9.5-5.3 1.2 0 2.3 0 3.7 0 0 5.3 0 10.4 0 15.8-1.2 0-2.3 0-3.5 0-1.6-5.7-3.2-6.7-9.6-5.4 0 4.9-.1 9.9.1 14.8 0 .9 1.5 2.1 2.5 2.4 7.6 2.6 13.9-.3 16.6-7.8.9-2.7 2.2-3.3 4.7-2.6 0 5 0 10 0 15.2-14.4 0-28.6 0-42.9 0 0-1.1 0-2.3 0-3.5.1-.1.3-.2.4-.2 5.2-.5 5.8-1.2 5.8-6.4 0-8.3.1-16.5 0-24.8-.1-5.4 1.5-7.1-6.3-8.4-.1-.9-.1-1.9-.2-2.8 13.4-.1 26.9-.1 40.4-.1zM695.8 36.5c0 3.7 0 7.5 0 11.5-1.8.2-3.7.6-4.6-2.4-1.2-4-4.2-5.8-8.4-5.6-2.7.2-5.4 0-8.3 0 0 5.4 0 10.5 0 15.6 5.5 1.9 8.4.3 9.6-5.2 1.2 0 2.5 0 3.8 0 0 5.3 0 10.4 0 15.7-1.2 0-2.5 0-3.7 0-1.5-5.7-2.9-6.6-9.5-5.5 0 5-.2 10 .2 15 .1.9 2.1 2.3 3.3 2.5 9.5 1.2 12.8-.5 16-8.6.3-.7.5-1.4.7-2.1 1.2 0 2.4 0 3.7 0 0 5.1 0 10.1 0 15.2-14.4 0-28.7 0-43 0 0-1.3 0-2.4 0-3.6 6.1-.9 6.4-1.3 6.4-7.6 0-7.9 0-15.7 0-23.6 0-6.9 0-6.9-6.5-8.6-.1-.9-.1-1.9-.2-2.8 13.6.1 27 .1 40.5.1zM531.6 36.5c0 1 0 1.9 0 3.2-5.5.5-5.9 4.4-5.9 8.8 0 6.7 0 13.3-.3 20-.3 6.8-4.1 11.2-10.2 13.6-6.9 2.7-13.8 2.4-20.5-.7-7-3.3-9-9.3-9-16.4 0-6 0-12 0-18 0-5.8-.3-6.2-6-7.3 0-1 0-2 0-3 8.3 0 16.7 0 25 0-.2 1.1-.3 2.1-.5 3.2-5 .5-6 1-6 4.9-.1 8.4 0 16.8.4 25.2.2 4.6 3.6 7.8 8 8.7 7.9 1.6 14-3.2 14.4-11.5.3-6.3.1-12.7.1-19 0-5.7-1.2-7.2-6.8-8.4 0-1 0-2 0-3 5.7-.3 11.5-.3 17.3-.3zM339.8 36.5c0 4.3 0 8.6 0 12.8-3.8.9-3.8.8-5.1-2.3-1.7-4-4.2-7.3-9-7.8-2.7-.3-5.1 1-6 3.1-1 2.2-.3 5 1.9 6.7 1.8 1.3 3.9 2.3 5.8 3.3 3 1.6 6.1 2.9 9 4.6 5.8 3.5 8.3 9.8 6.6 16.2-1.5 5.7-7.6 10.4-13.8 10.6-5.6.2-8.9-1-14.1-5.2-.4 1.2-.8 2.2-1.2 3.4-1.3 0-2.5 0-3.9 0 0-5.4 0-10.6 0-16 1.4 0 2.6 0 3.9 0 1 2.3 1.7 4.7 2.9 6.8 2 3.7 5.1 6 9.4 6.3 3.2.3 5.7-1.3 6.7-4 .9-2.5 0-5.2-2.7-6.8-3.1-1.9-6.3-3.4-9.5-5.2-1.7-.9-3.4-1.8-5-2.9-7.9-5.5-7.9-16.7-.2-22.4.6-.4 1.2-.8 1.7-1.3 7.5.1 15.1.1 22.6.1zM182.8 36.5c4.5 11.1 9 22.3 13.6 33.4.5 1.1.9 2.2 1.4 3.3 1.2 2.8 2.8 5.3 6.3 5.7 0 1.3 0 2.4 0 3.7-7.7 0-15.4 0-23.2 0 0-1.2 0-2.4 0-3.5 5.2-1 5.1-1 3.3-6-.8-2.2-1.8-3.2-4.3-3-3.1.3-6.3.1-9.4 0-1.3 0-2.2.2-2.5 1.6 0 .2-.1.3-.2.4-1.9 4.9-1.5 5.8 3.7 6.8 0 1.1 0 2.3 0 3.6-5.1 0-10.2 0-15.3 0 0-1.2 0-2.4 0-3.7 4.1-.9 5.8-4.2 7.2-7.7 4.3-10.9 8.6-21.7 13-32.6.3-.7.7-1.5 1-2.2 1.9.2 3.6.2 5.4.2zm-12.4 29.3c3.8 0 7.2 0 10.9 0-1.9-4.5-3.6-8.7-5.6-13.4-1.8 4.7-3.5 8.9-5.3 13.4zM155.8 36.5c0 4.2 0 8.3 0 12.4-3.6.7-3.6.7-4.7-2.5-1.8-5.7-5.1-7.3-12.7-6.1 0 .8 0 1.7 0 2.5 0 9.7 0 19.4 0 29.1 0 5.7.7 6.5 6.6 6.9 0 1.1 0 2.3 0 3.6-8.4 0-17 0-25.6 0 0-1.1 0-2.3 0-3.4.2-.1.3-.2.5-.2 5.5-.4 6.1-1.1 6.1-6.6 0-9.9 0-19.7 0-29.6 0-.7 0-1.4 0-2.1-7.6-2.2-11.4.2-13.3 8.5-1.2.1-2.4.3-3.7.4 0-4.3 0-8.7 0-13 15.7.1 31.2.1 46.8.1zM233.4 36.5c-.1 1-.3 2-.4 3-.2.1-.3.2-.5.2-5.1.4-5.8 1.1-5.8 6.3 0 9.1 0 18.1 0 27.2 0 3.6 1.1 4.7 4.6 5.1 8.3.9 12.8-1.9 15.5-9.9.6-1.7.6-1.7 4-1.3 0 5.1 0 10.3 0 15.5-14.3 0-28.4 0-42.7 0 0-1.2 0-2.4 0-3.7.8-.1 1.5-.1 2.2-.2 2.8-.5 3.8-1.4 3.9-4.3.1-4.5.1-9 .1-13.5 0-4.7 0-9.3 0-14 0-6.1-.3-6.5-6.3-7.5 0-1 0-2 0-3 8.4.1 16.9.1 25.4.1zM370.7 36.5c6.3 4.2 8.6 9.1 7 15.1-1.9 7-9.2 10.6-17.2 8.6-5.3-1.4-8.4-4.9-9.1-10.2-.7-5.3 1.6-10 6.2-12.6.4-.2.8-.5 1.1-.8 3.9-.1 8-.1 12-.1zm-12.3 11.4c.4 2.2.6 4.5 1.3 6.6.7 2.3 2.4 3.6 4.8 3.6 2.5 0 4.4-1.2 5.2-3.6 1.4-4.3 1.3-8.7-.1-13-.8-2.3-2.6-3.4-5-3.5-2.3-.1-4.3 1.3-5 3.7-.6 2-.8 4.1-1.2 6.2zM402.5 36.5c0 1.9 0 3.8 0 6.1-.8-.3-1.9-.3-2-.7-1.4-4.4-4.9-3.6-8.3-3.5 0 2.6 0 5.1 0 7.7 1.9.4 3.5.7 4.1-1.9.1-.3.8-.8 1.2-.7.4.1.9.7.9 1.1.1 2.3 0 4.6 0 7.7-1-.6-2-.8-2.1-1.3-.4-2.6-2.1-2.4-4.2-2.1 0 2.4-.1 4.8.1 7.1.1.7 1.2 1.2 1.8 1.9.5.5 1 1 1.6 1.5-.1.2-.3.4-.4.5-4.2 0-8.3 0-13.3 0 .8-.9 1.2-1.8 1.8-1.9 1.5-.4 2.1-1.4 2.1-2.8 0-4.7 0-9.5 0-14.2 0-1.5-.4-2.6-2.2-2.9-.5-.1-.8-1.1-1.2-1.6 6.6 0 13.3 0 20.1 0zM540.1 89c0 4.6-.2 9.1.1 13.7.1 1.3 1.8 2.6 2.8 3.8-2.2 0-4.8 0-7.4 0 3.9-1.2 3.5-4.4 3.5-7.3 0-3.1 0-6.3 0-9.4 0-3.8 0-3.8-3.4-4.6 0-.2 0-.4 0-.6 1.6 0 3.1.2 4.7 0 2.4-.4 2.7 1.4 3.4 2.9 2.1 4.8 4.3 9.7 6.6 14.9.5-.9.8-1.4 1.1-2 2-4.5 4-8.9 5.9-13.4.7-1.7 1.5-2.6 3.5-2.3 1.4.2 2.9 0 4.6.4-5 0-3.8 3.5-3.9 6.2-.1 3.3-.1 6.6 0 9.9 0 4.1.1 4.1 3.6 5.5-3.4 0-6.9 0-11 0 4.1-1.4 4.1-1.4 4.1-5.3 0-4.2 0-8.4-.5-12.8-2.7 6.1-5.5 12.3-8.2 18.4-.2 0-.5 0-.7 0-2.7-6-5.4-12-8.1-17.9-.4-.2-.6-.1-.7-.1zM459.3 106.5c3.6-.4 3.1-3.1 3.1-5.5 0-3.6 0-7.2 0-10.8 0-2.3.6-5-3.1-5.4 3.2 0 6.4 0 9.6 0-2 .6-3.4 1.3-3.2 3.8.2 1.8 0 3.6 0 5.6 3.8 0 7.4 0 11.2 0 0-2.4.3-4.8-.1-7.1-.2-.9-1.9-1.5-2.9-2.3 3.1 0 6.4 0 10 0-3.5 1.5-3.5 1.5-3.5 5.3s0 7.5 0 11.3c0 2.3-.4 4.8 3.1 5-3.3 0-6.6 0-10.5 0 4-1.5 4-1.5 4-5.5 0-1.7 0-3.3 0-5.1-3.8 0-7.4 0-11.2 0 0 2.8-.2 5.6.1 8.3.1.9 1.8 1.5 2.8 2.3-3 .1-6.2.1-9.4.1zM233.6 106.1c-5 1.4-6.8.8-9.3-2.4-1.6-2.1-3.1-4.3-4.8-6.3-.6-.7-1.6-1.1-2.9-1.9 0 3.3-.3 6 .2 8.5.2 1 2 1.7 3 2.4-3.1 0-6.5 0-9.9 0 4-.2 3.3-3.2 3.4-5.6 0-3.8 0-7.5 0-11.3 0-2.2.2-4.6-3.6-4 .4-.6.6-.9.7-.9 4.1 0 8.3-.3 12.4.1 3.1.3 4.8 2.5 4.9 5 .1 2.5-1.3 4.4-4.2 5.4-.4.1-.7.3-1.5.5 3.9 3.5 5.3 9.2 11.6 10.5zm-17.1-10.9c2.6-.3 5.5.4 6.6-2.3.7-1.7.6-4.2-.3-5.8-1.2-2.3-3.9-1.9-6.3-1.7 0 3.2 0 6.3 0 9.8zM185.8 95.8c4.1 3.4 5.6 9.1 11.6 10.3-4.1 1.4-6.6.8-8.8-2-1.7-2.2-3.3-4.5-5.1-6.7-.6-.7-1.7-1.1-3-1.9 0 2.4 0 4.1 0 5.7 0 3.9 0 3.9 3.7 5.1-3.4 0-6.9 0-10.3 0 0-.1 0-.4.1-.4 2.7-.1 3.3-1.7 3.2-4.2-.2-3.8 0-7.7 0-11.5 0-2.4.8-5.3-3.5-5.3 5.2-.7 10.2-1.7 15 .4 1.9.8 3 2.3 3 4.5 0 2.3-1.1 3.8-3 4.8-.8.5-1.6.7-2.9 1.2zm-5.2-10.5c0 3.3 0 6.5 0 9.8 2.4-.1 4.9.3 6.5-1.9 1.3-1.9 1.3-4.2 0-6.1-1.6-2.2-4-1.9-6.5-1.8zM338.5 96.5c0 1.4 0 2.7 0 4.1 0 4.4 0 4.4 4.3 6-4.1 0-7.5 0-11.5 0 3.8-1.6 3.8-1.6 3.8-5.5 0-3.8 0-7.5 0-11.3 0-3.6 0-3.6-3.2-4.6 3.1-1.6 12.6-1.2 15.4.7 3.3 2.2 3 7-.7 8.9-.8.4-1.6.6-2.8 1.1 4.1 3.3 5.5 9 11.4 10.2-3.1 1.5-6.3.9-8.2-1.5-1.8-2.2-3.4-4.7-5.3-6.9-.7-.8-1.8-1.3-2.6-1.9-.2.2-.4.5-.6.7zm.1-1.4c2.5-.1 5.1.4 6.6-2.1 1.2-2 1.2-4.3-.3-6.1-1.6-2.1-4-1.9-6.3-1.6 0 3.4 0 6.5 0 9.8zM408.8 107.3c-2.1-5.7-4.3-11.5-6.7-17.9-2.1 6.4-4 12.2-5.9 17.9-.2 0-.4 0-.7-.1-.3-.9-.7-1.9-1-2.8-1.6-5.1-3-10.1-4.7-15.1-.6-1.6-1.7-3.1-2.5-4.6 2.1 0 4.7 0 8.1 0-3.8 1.3-2.4 3.5-1.8 5.5 1.1 3.6 2.2 7.3 3.6 11.6 2.1-6.2 3.9-11.8 5.7-17.4.3 0 .6-.1.9-.1 2.1 5.5 4.1 11.1 6.5 17.3.5-1.7.9-2.8 1.2-3.9.8-2.8 1.6-5.7 2.4-8.5.6-1.9.5-3.5-1.7-4.5 1.9 0 3.8 0 5.7 0-4 3.6-3.8 8.9-5.5 13.5-1.1 2.9-1.8 5.9-2.7 8.9-.4.2-.7.2-.9.2zM282.2 106.2c3.6-1 3.6-1 3.7-5.1 0-3.5 0-7.1 0-10.6 0-4.2 0-4.2-3.6-5.9 4.2 0 8.5-.5 12.6-.1 8.3.9 12.5 8.2 9.4 16-1.2 3-3.3 5.2-6.4 5.6-5.2.6-10.4.6-15.7.8 0-.2 0-.5 0-.7zm7-20.7c0 6.1 0 12.1.1 18.1 0 .7.8 1.8 1.4 1.9 2.9.5 5.8.5 8.1-1.7 3-2.8 3.6-9.8 1.3-14.2-1.9-3.6-5.5-5-10.9-4.1zM157.5 84.2c7.3 0 12.1 4.5 12.1 11.4s-4.8 11.6-12 11.6-12.1-4.8-12.1-11.8c0-6.8 4.8-11.2 12-11.2zm8.3 11.7c-.3-1.6-.4-3.7-1-5.5-1.1-3.6-3.8-5.3-7.7-5.2-3.6.1-6.4 2-7 5.6-.5 3.2-.6 6.5 0 9.7.7 3.9 3.5 5.6 7.5 5.6 3.7 0 6.3-1.9 7.4-5.6.4-1.4.5-2.9.8-4.6zM637 84.2c7.3 0 12.1 4.6 12.1 11.5 0 6.8-5 11.6-12.1 11.5-7.3 0-12-4.7-12-11.8 0-6.8 4.7-11.3 12-11.2zm-8.4 11.4c.2 1.6.3 3.1.7 4.5 1 4 3.5 5.9 7.6 5.9 3.8 0 6.4-1.9 7.5-5.8.9-3.2.9-6.5-.1-9.7-1.2-3.8-3.8-5.6-7.7-5.5-3.7.1-6.3 2-7.3 5.8-.3 1.6-.4 3.2-.7 4.8zM671.9 94.8c4.3.8 5.6 2.3 5.6 6 0 .4 0 .8 0 1.2-.2 3.5-.1 3.7 3.2 2.5-.8 1.9-2.2 2.7-4.2 2.2-1.9-.5-2.5-1.9-2.3-3.7.2-1.5.6-3 .5-4.5-.1-.9-.9-2.3-1.7-2.4-.7-.1-2 .8-2.5 1.6-.7 1.2-.9 2.7-1.4 4.1-.8 2-1.1 3.8 1.7 4.6-2.8 0-5.6 0-8.5 0 3.3-.7 3.3-3.6 4.1-6 1.2-3.9 2.3-7.9 3.6-11.7.7-2 .7-3.4-1.9-3.9 2.8 0 5.6 0 8.4 0-4.3 1.4-3.3 5.7-4.8 8.5.2.2.4.3.6.5 1.9-2 3.7-4.1 5.7-5.9 1.4-1.3 3-2.3 4.7-3.3.7-.4 1.7-.5 2.5-.4.6.1 1.1.8 1.4 1.4.1.3-.4 1.3-.6 1.3-.6 0-1.4-.3-1.7-.7-1.1-1.4-2.1-.6-2.9.1-3.1 2.7-6.1 5.4-9.5 8.5zM568.2 106c3.3.1 3.5-1.9 3.5-4.3-.1-4 0-8 0-12 0-2 .4-4.3-2.7-4.8 5.1 0 10.3 0 15.7 0 .1 1.6.3 3.4.5 5.2-1.5-1.6-2.5-3.5-4.1-4.2-1.6-.7-3.8-.2-5.9-.2 0 2.9 0 5.7 0 8.5 3.7.8 4.6.4 5.9-2.6 0 2.4 0 4.7 0 7.3-2-3.7-2.1-3.7-6-3.1 0 2.7-.2 5.4.1 8 .1.7 1.3 1.8 2.2 1.9 4.9.8 6.7-.4 8.6-5.2.1-.3.3-.5 1.1-.7-.1 2.1-.2 4.1-.4 6.2 0 .3-.7.7-1 .7-5.7 0-11.5 0-17.2 0-.1-.2-.2-.5-.3-.7zM325.8 84.9c.2 1.7.3 3.4.5 5.3-1.4-1.7-2.4-3.6-3.9-4.3-1.7-.8-3.9-.3-6.1-.4 0 3 0 5.9 0 8.7 3.6.9 4.3.5 6-3.1 0 2.8 0 5.2 0 7.8-.8-1.2-1.2-2.6-2.1-3-1-.5-2.5-.3-3.9-.3 0 3.1-.1 5.9.1 8.8 0 .5.8 1.2 1.4 1.4 3.9 1.3 7.6-.4 9.1-4.3.2-.6.5-1.1.8-1.6.2 0 .4.1.6.1-.2 2.2-.3 4.4-.5 6.7-6.2 0-12.2 0-18.2 0 3.4-.5 3.2-3 3.2-5.3 0-4.2-.1-8.3-.1-12.5 0-1.9-.3-3.4-2.6-3.8 5.1-.2 10.3-.2 15.7-.2zM236.4 84.7c5.1 0 10.2 0 15.6 0 .2 1.7.4 3.5.6 5.6-1.5-1.7-2.5-3.8-4-4.4-1.7-.7-3.9-.2-6.2-.2 0 1.4 0 2.9 0 4.3s0 2.9 0 4.2c4.1.7 4.7.4 6.1-2.8 0 2.4 0 4.8 0 7.5-.7-1.2-1-2.6-1.9-3.1-1-.6-2.5-.3-4-.4 0 3.1-.1 5.9.1 8.7 0 .5.8 1.3 1.3 1.5 3.9 1.4 7.7-.4 9.2-4.2.2-.6.5-1.1.8-1.7.2 0 .5.1.7.1-.2 2.2-.3 4.4-.5 6.7-6.1 0-12.1 0-18.2 0 3.7-.5 3.1-3.3 3.1-5.7 0-3.8 0-7.5 0-11.3 0-2.1.1-4.1-2.7-4.8zM131.5 95.3c0 3.1-.3 5.7.1 8.2.2 1.1 1.8 2.1 2.6 2.9-2.7 0-6.1 0-9.4 0 3.6-.2 3.3-2.7 3.3-5.1 0-3.9 0-7.9 0-11.8 0-2.2.2-4.5-3.1-4.7 5.5 0 11.1 0 16.8 0 0 1.6 0 3.3 0 4.9-1.2-1.3-2.3-3.3-3.8-4-1.8-.7-4.1-.2-6.3-.2 0 3 0 5.9 0 8.9 2.7.3 5 .2 5.7-3.1 0 2.5 0 4.9 0 7.9-.7-1.5-1-2.9-1.9-3.4-.9-.4-2.4-.2-4-.5zM455.5 84.7c0 1.8 0 3.4 0 5.1-1.1-1.5-1.9-3.4-3.3-4-1.5-.7-3.6-.2-5.7-.2 0 4.2 0 8.4 0 12.5 0 1.1 0 2.2 0 3.4 0 3.8 0 3.8 3.6 4.9-3.5 0-7.1 0-11.1 0 4.1-1.4 4.1-1.4 4.1-5.7 0-5 0-9.9 0-14.8-5-1.2-6.1-.7-8.9 4.4 0-2.1 0-3.8 0-5.6 7.2 0 14.2 0 21.3 0zM622.2 84.7c0 1.8 0 3.4 0 5.1-1.1-1.5-1.9-3.4-3.3-4-1.5-.7-3.6-.2-5.6-.2 0 6.2-.1 12.3.1 18.3 0 .9 2 1.7 2.9 2.4-3.1 0-6.7 0-10.4 0 .1-.2.1-.4.2-.4 3.6-.7 3.6-.7 3.6-4.5 0-5.2 0-10.4 0-15.6-4.9-1.3-6.2-.7-8.9 4.3 0-2.1 0-3.8 0-5.6 7.1.2 14.1.2 21.4.2zM369.8 86.1c.5-.6.8-1.1 1.5-1.9 0 2.4 0 4.3 0 6.1-.1 0-.3.1-.4.1-.3-.7-.7-1.3-1-2-1.1-2-2.7-3.6-5.1-3.3-1.2.2-2.8 1.2-3.2 2.2-.3 1 .3 3 1.2 3.7 2.1 1.5 4.6 2.6 6.9 3.8 2.1 1.1 3.4 2.6 3.6 5 .2 2.5-.3 4.7-2.6 6.1-2.7 1.7-5.5 1.6-8.2.2-.7-.3-1.3-.9-2-1.4-.4.6-.8 1.1-1.6 2 0-2.8 0-5.1 0-7.4.1-.1.3-.1.4-.2.3.8.7 1.6 1 2.3 1.4 3.5 3.8 5.1 7 4.5 1.8-.4 3-1.4 3.5-3.2.4-1.8-.3-3.2-1.8-4.1-2-1.2-4.3-1.9-6.2-3.2-1.4-1-2.9-2.4-3.5-3.9-.9-2.2-.4-4.5 1.6-6.1 2.2-1.7 4.6-1.6 7-.6.6.3 1.2.8 1.9 1.3zM279.4 106.5c-2.4 0-5.2 0-8.7 0 3.5-1.4 3.2-1.3 2.3-4.4-.8-2.8-2.3-3.9-5.2-3.4-.5.1-1.1 0-1.7 0-2.7 0-5.1 2.6-4.6 5.4.2.9 1.3 1.6 2.1 2.5-2.1 0-4.1 0-6.4 0 4.8-4 5.3-10 7.9-15 1.2-2.3 2.1-4.8 3.3-7.8.6 1.2 1 1.9 1.4 2.6 2.2 5.1 4.2 10.2 6.5 15.3.8 1.6 2.1 3.1 3.1 4.8zm-12-17.8c-1.3 3.2-2.4 6-3.6 8.8 2.5 0 4.8 0 7.3 0-1.3-3-2.4-5.7-3.7-8.8zM497.6 84.7c7.1 0 14.1 0 21.3 0 0 1.8 0 3.5 0 5.4-3.4-5-3.4-5-8.9-4.4 0 6.1-.1 12.3.1 18.4 0 .8 2.1 1.6 3.1 2.4-3.3 0-6.8 0-10.4 0 .1-.2.1-.5.2-.5 3.5-.7 3.5-.7 3.6-4.3 0-5.3 0-10.6 0-15.8-5.5-1.2-6.6-.7-8.9 4.6-.1-2.3-.1-3.9-.1-5.8zM348.9 69.6c.8-.8 1.1-1.3 1.6-1.5.5-.2 1.1-.1 1.7-.1 16.6 0 33.2 0 49.8 0 .6 0 1.2-.1 1.7.1.4.1.6.5.9.8-.3.3-.5.6-.9.8-.3.1-.6 0-.9 0-17.3 0-34.7 0-52 0-.4.1-.7 0-1.9-.1zM734.9 101.2c-.5 1.6-1 3.2-1.6 4.7-.1.3-.7.7-1.1.7-5.5 0-11 0-16.7-.3 3.9-.4 4-3.6 4.8-6.1 1.2-3.9 2.3-7.8 3.6-11.7.6-1.8.7-3.2-1.7-3.7 2.9 0 5.8 0 8.8 0-3.7.3-3.8 3.3-4.5 5.8-1.2 4-2.5 8-3.6 12-.8 2.6-.3 3 2.4 3.2 4.1.3 7.2-1.2 9-5.1.2.2.4.4.6.5zM715.2 101.2c-.6 1.7-1 3.3-1.6 4.9-.1.3-.7.6-1.1.6-5.4 0-10.8 0-16.5-.2 4.5-.8 4.1-4.8 5.1-7.7 1.2-3.2 2-6.6 3-9.9.8-2.8.8-2.8-2.2-4.1 3.5 0 6.4 0 9.3 0-4.2.5-3.9 4.2-4.8 7-1.2 3.6-2.2 7.2-3.3 10.8-.8 2.7-.4 3.1 2.5 3.3 3.7.3 6.6-.9 8.5-4.2.1-.2.3-.3.5-.5.1-.1.2 0 .6 0zM430.6 84.8c-3 .2-3.3 2.1-3.3 4.4 0 4.2-.1 8.5 0 12.7.1 3.3.2 3.3 3.3 4.5-3.3 0-6.5 0-9.8 0 3.9-.3 3.1-3.3 3.1-5.7 0-3.6 0-7.2 0-10.8 0-3.7 0-3.7-3.1-5.1 3.2 0 6.5 0 9.8 0zM532.2 106.5c-3.3 0-6.5 0-9.8 0 3.7-.5 3.2-3.4 3.2-5.8.1-3.7.1-7.4 0-11.1-.1-3.6-.2-3.6-3.3-4.8 3.3 0 6.5 0 9.8 0-4.1.3-3.2 3.4-3.3 5.8-.1 3.8-.1 7.5 0 11.3.3 3.4.4 3.4 3.4 4.6zM689.3 84.7c2.8 0 5.6 0 8.3 0-3.2.7-3.3 3.5-4 5.8-1.2 3.8-2.3 7.6-3.5 11.5-.9 3.1-.9 3.1 2.1 4.4-3 0-6.1 0-9.1 0 4-.6 3.7-4.1 4.6-6.8 1.2-3.6 2.2-7.2 3.3-10.8.6-1.9 1-3.5-1.7-4.1zM739.8 100.3c-.4-4.6-.8-9.2-1-13.7 0-.6 1-1.2 1.5-1.8.4.7 1.3 1.3 1.3 2-.2 4.5-.6 9.1-.9 13.6-.3-.1-.6-.1-.9-.1zM740.2 102.8c.9 1.2 1.8 2 1.7 2.6-.1.7-1.1 1.7-1.7 1.7-.6 0-1.7-1-1.7-1.7-.1-.6.8-1.4 1.7-2.6zM45.2 2.6c1-.6 2.1-1.1 3.3-1.5 1.7-.5 3.4-.9 5.1-1 1.7-.2 3.4-.1 5.1 0 4.1.2 8 .9 11.3 3.4 2.7 1.9 5 4.4 6.8 7.3 1.6 2.4 2.7 5.1 3.6 7.8.2.7.5 1.4.5 2-.1.6-.6 1.2-1 1.8-1.2 1.6-2.9 2.3-4.9 2.3-2.6.1-5.2 0-7.7-.9-1.6-.6-3-1.5-4.2-2.7-2.1-2-4.2-4.1-6.5-6-1.2-1-2.7-1.6-4.4-1-1.1.3-1.9 1.1-2.6 2.1.5-.2.9-.6 1.4-.8 1.4-.7 2.7-.6 4 .5 1 .9 1.9 1.9 2.8 2.9 1.9 1.9 3.5 4.1 5.6 5.5 2.9 2.3 6.3 2.7 9.8 2.3.9-.1 1.8-.2 2.7-.5 2.4-.5 3.8-1.9 4.7-4.2.2.9-.9 2.9-2.9 4.2.2.8.5 1.6.6 2.3.9-.2 1.8-.6 2.7-.7 1.4-.2 2.1.6 2.5 1.7.5 1.5.8 3 .5 4.6-.2 1.1-.2 2.4-.3 3.5-.3 2.1-.7 4.3-1.1 6.4-1.6 6.7-3.5 13.2-5.8 19.5-.9 2.6-1.9 5.3-3 7.8-.9 1.8-2.3 3.4-3.5 5.1-1.7 2.3-3.5 4.3-5.3 6.4-.9 1.1-1.9 2.3-2.9 3.5 4.5-9.3 5.4-19.1 5.3-28.9-.2 1.6-.3 3.3-.6 4.9-.3 2.6-.6 5.2-1 7.8-.7 4.1-1.4 8-2.7 12-.7 1.9-1.6 3.7-2.4 5.5-.8 1.6-1.9 3-2.3 4.9-.5 1.7-.2 3.5-.3 5.3 0 .5.3.8.9 1 .9.3 1.9.8 2.8 1.2.6.2 1 .2 1.6 0 3.7-1.7 7.5-3.4 11.4-4.4.1 0 .2-.1.5-.1 1.6.1 2.6-.8 3.6-1.8 3.3-3.2 5.9-6.9 7.7-11.1 1.4-3 2.3-6.2 2.7-9.4.5-2.7.8-5.5.8-8.4 0-1.8.1-3.6.1-5.4 0-15.8 0-31.5 0-47.4 0-.3 0-.6 0-1-.5 0-.8 0-1.1 0-1.9 0-3.7 0-5.5 0-1.4 0-2.9-.1-4.3-.2-.2 0-.6-.2-.7-.5-.9-1.7-2-3.4-3.5-4.7 0 0 0-.1 0-.2 6.9.1 13.7.2 20.5.3 0 .2 0 .6 0 .9 0 19.5 0 39.2-.1 58.7 0 2.6-.5 5.2-.8 7.7-.3 3.2-1.2 6.3-2.4 9.4-1.4 3.8-3.3 7.5-5.9 10.6-1.4 1.6-2.8 3.2-4.3 4.7-.9.9-2 1.7-3 2.6.5 1.2.9 2.6 1.7 3.8 1.2 1.6 1.7 3.5 1.9 5.5.2 2.5-.2 4.9-1.4 7-.7 1.2-1.6 2.4-2.6 3.5 1-6.2-.9-11.5-4.3-16.6-.6.3-1.2.8-1.7 1 .5 1.8.9 3.5 1.2 5.2.2 1 .2 2 .1 3-.2 1.7-.5 3.4-.9 5.1-.6 2-2.3 3.2-4.5 3.4.5-.9.9-1.8 1.4-2.7.9-1.7 1.7-3.4 1.9-5.2.1-.7 0-1.4-.2-1.9-.5-1.4-4.6-8.1-5.6-9.1-.8.5-1.5 1-2.3 1.4-1.1.5-1.4 1.2-1.4 2.4 0 .8 0 1.7 0 2.5 0 .6-.2 1.2-.1 1.9.2 2-.2 4.2.7 6.1.6 1.4 1.6 2.6 2.4 3.8.2.5.7.8.9 1.2-.1.1-.1.1-.1.2-1.6-.5-3.2-.9-4.7-1.4.1 1.7.3 3.4.3 5.2-.1 4.5-.8 8.8-3 12.9-.6 1-1.4 2.1-2.1 3.3-1-1-1.9-2-2.8-3-.9 1.7-2 3.3-3.8 4.3-1.9 1-3.7.8-5.5-.1 0-.8 0-1.5 0-2.3-.1 0-.2-.1-.3-.1-.2.7-.5 1.4-.8 2-1-.5-2.1-1-3.2-1.6 2.3-2.9 3.2-6.4 3.8-9.9-.1-.1-.2-.1-.3-.1-1.2 3.2-2.4 6.3-3.7 9.6-.2-.1-.6 0-.8-.1-.6-.2-.9-.6-.9-1.4.1-2.4 0-4.6 0-7.1-.6.8-1.1 1.4-1.6 2 3.2-5.5 6.5-11 8.2-17.2-1.6 3-3.2 6-4.9 9.1-1.7 3.2-3.3 6.3-4.9 9.5-.3.6-.6.6-1.1.2-1.6-.9-2.6-2.4-3.5-3.8-1.2-2-2.4-4.1-3.6-6.2-.2-.5-.2-.8.1-1.2 2-3.3 4.1-6.7 6.1-9.9.1-.1.1-.1.1-.1-.6-.7-1-.6-1.6 0-1.5 1-3.2 1.6-5.1 2-.2.1-.5.1-.9.2.5-.7.9-1 1.2-1.6.9-1.4 1.7-2.7 2.4-4.2.2-.6.3-1.2.3-1.9.1-1.9 0-3.8 0-5.8 0-1-.1-2.1-.1-3.2-.1-.6-.2-1-.8-1.2-.9-.5-1.9-1-2.9-1.7-.8 1-1.6 2.1-2.3 3.3-1 1.8-2 3.7-3 5.5-.7 1.1-.6 2.3-.2 3.4.8 2.5 1.9 4.7 3.2 6.9-2-.1-4.1-1.2-4.6-3.4-.5-1.6-.8-3.3-1-5-.5-3.5.7-6.3 1.6-9.3.2-.9.8-1.7.9-2.6.1-.5-.2-1-.6-1.6-2.3 2.9-4.2 6-5.5 9.4-1.4 3.4-1.5 7-.9 10.8-1.6-1.4-2.6-2.8-3.3-4.4-.8-1.8-1.1-3.7-.9-5.6.2-2.3.8-4.3 2-6.1.2-.2.5-.6.6-.9.5-.8.5-1.2-.2-2-2.3-2.4-4.1-5-5.6-7.8-2-3.6-3.4-7.5-4.2-11.4-.5-1.8-.6-3.6-.9-5.4-1-4.2-.9-8.8-.9-13.2 0-17 0-33.8 0-50.7 0-.3 0-.7 0-1.1 5.5 0 11.1 0 16.7 0-2.1 1.1-3.4 2.9-3.8 5.3-2.5 0-5 0-7.5 0 0 .3 0 .7 0 1 0 17.4-.1 34.9.1 52.3 0 4.7.7 9.5 2 14 1.2 4.2 3.2 8 5.9 11.3.1.1.1.2.2.5 1.5-.6 2.9-.1 4.3.3 3.6 1.2 7.2 2.7 10.8 4.1.2.1.5.2.6.1 1.6-.8 3.2-1.5 4.7-2.1-1.1-1.5-2.4-2.8-3.3-4.4-1.4-2.3-2.5-4.6-3.7-6.9-.1-.3-.5-.6-.8-.8-2.3-14.1-2-28.1 2.6-41.9-.1 0-.1-.1-.2-.1-.8 2-1.6 4.1-2.1 6.1-1.1 3.8-1.9 7.9-2.1 12-.2 3.8-.5 7.8-.1 11.7.2 4.1 1 8 1.7 12 .1.5.1.7-.5.8-.9.1-1.8.2-2.8.5.9-4-.6-7.3-2-10.6-1.7-3.7-3.5-7.3-5.3-11.2-1.1-2.5-2.5-4.9-2.9-7.6-.5-2.3-.8-4.5-.9-6.9-.1-1.7-.1-3.5 0-5.2.1-2.3.5-4.5.6-6.9.2-1.9.5-3.7.7-5.6s.6-3.8.8-5.6c.1-1.2.2-2.6.3-3.8.1-2.3.5-4.5 1-6.7.5-1.7 1.2-3 2.8-3.8.9-.5 2-.8 3-.9 1.2-.2 2.4-.1 3.5-.2.1 0 .2 0 .5-.1 1.7-.9 3.2-.1 4.5.8 1 .6 1.9 1.4 2.9 2 .1-2.3.2-4.5.5-6.7.1 0 .1 0 .2-.1.9 2.5 3 3.2 5.3 3.7 1.4.3 2.7.2 4.2-.1.3-.1.8-.3 1-.6.6-.6 1-1.1 1.5-1.7-.1-.7.2-.9.3-1.1zm19.4 30.3c-1.6-1.4-3.2-2.7-5-4.2.1.7 0 1.2.1 1.6.6 1.7 1 3.5 1.7 5.2 1.2 3.3 2.7 6.5 4.9 9.4.9 1.2 1.6 2.6 1.9 4.1.2.8.2 1.7.3 2.6 3.4-6.8 4.5-14.1 6-21.7-1.5.8-2.7 1.6-4 2.3-.6-1-1-2-1.6-3.2-1.4 1.3-2.8 2.5-4.3 3.9zm-27.9 75.3c1-2.1 2.3-4.3 3.2-6.4.5-.9.8-2 .5-3.2-.4-.8-.9-1.6-1.2-2.6-1.5 1.1-2.7 2-4.1 3-.5.3-.7.7-.8 1.2-.3 1.9-.8 3.8-1.1 5.9 1 .7 2.1 1.4 3.5 2.1zm15-22.2c-.1 0-.1 0-.2 0-.1 3.5-.2 7-.3 10.4-.1 1.4-.1 2.7-.1 4.2 0 .3.2.8.5 1 1.7 1.5 3.5 2.9 5.3 4.4.2.2.6.6.6.8 0 1.2-.2 2.6-.1 3.8.2 2.9 1.4 5.3 3.2 7.6-.1-.2-.1-.5-.2-.6-1.8-3.5-2.6-7.1-1.6-11 .1-.6-.1-.9-.5-1.2-1.8-1.5-3.6-2.9-5.4-4.5-.2-.1-.3-.5-.3-.6-.1-3.2-.2-6.2-.3-9.4-.5-1.5-.6-3.2-.6-4.9zm6.2-66.7c-.9 1-1.8 1-2.6.5-.8-.6-.7-1.8.3-2.9-.3-.3-.8-.6-1-.9-.1-.1-.3-.2-.6-.3-.8-.5-1.9.2-1.7 1 .6 4.2 4 5.8 7.5 4.7-.7-.6-1.3-1.4-1.9-2.1zM33.1 83c-.2 3.2.1 6.2 1.4 9.1.4-3.2-.2-6.2-1.4-9.1zm19.5 55.8c1.8-1.9.2-6.3-1.4-8.1.5 2.6 2 5.1 1.4 8.1zM19.9 29.1c-3.2 5.9-2.5 12-1.9 18.2.1-.5.1-.9.1-1.2-.1-1.9-.2-3.8-.1-5.8s.2-4.1.6-6c.1-1.8.8-3.5 1.3-5.2zm21.5-11.6c-.8 1-1.4 1.2-4.1 2 2.3 0 3.8-.8 4.7-2.4-1.9-.1-3.8 0-5.6-.9 1.3 1.2 3.1 1.2 5 1.3zm5.1-12.6c-.1-.1-.1-.1-.1-.1-.5.3-.8.6-1.1.9-1.5 1.4-2.9 2.6-5.1 2.9-1.2.1-2.5.2-3.5.2-.1 0 .1 0 .2.1 2.4.5 4.7.2 6.8-1.4 1-.8 1.9-1.8 2.8-2.6zm29.3 39.7c-.2 1.6-.5 3-.7 4.6-.2 1.6-.7 3-1 4.6 1-3 2.2-6 1.7-9.2zM80.7 34c.6 3-.6 6-.9 9 .9-2.9 1.8-5.8.9-9zM75 61.3c.9-2.3 1.5-4.5 1.4-7-.5 2.3-1 4.6-1.4 7zM22.1 16C20 17 19 19 18 20.9c1.2-1.7 2.2-3.6 4.1-4.9zm40.2-9.3c1.8 1.4 4.2 1.7 5.9 3.4-1.5-2.1-3.8-2.4-5.9-3.4zm5.6 8.9c-1-2-3.5-1.8-5.2-2.9.9.6 1.8 1 2.7 1.5.8.4 1.6.8 2.5 1.4zM45.5 34.3c.1 0 .1 0 .2 0 .3-1.9 1.1-3.8.8-5.9-.4 2.1-.8 4-1 5.9zM66.1 4.1c-1.7-.8-3.5-1.6-5.3-1 1.5.1 3.3.5 5.3 1zm-45 7.2c1.7-.5 3.5-.8 5.2-1-1.8-.2-3.6 0-5.2 1zm22.4 13.8c-.7 1.7-2 2.7-3.4 3.8 1.7-.8 3-1.9 3.4-3.8zm-5.8-.5c1.8-.2 3.7-1.4 4-2.4-.6.5-1.2.9-1.9 1.4-.6.4-1.3.7-2.1 1zM54.5 5.7c-.1.1-.1.2-.1.2 1.5.6 3 1 4.5 1.6 0-.1.1-.2.1-.2-1.5-.6-3-1.2-4.5-1.6zm-3.7 32.1c-.5-1.6-.8-2.9-1-4.3-.1 1.5.1 2.9 1 4.3zM72.6 13c.9.9 1.9 1.9 2.8 2.9-.5-1.3-1.7-2.1-2.8-2.9zM45.2 2.6c-.1.1-.3.3-.5.5-.2.1-.5.1-.7.2-2 1.4-4.9 1.6-7.1.2 2.9-.7 5.9-1.4 8.7-1.9-.2.4-.3.8-.4 1zM30.9 4.5c0 .9 0 1.7 0 2.7-.7-.8-1.2-1.6-2-2.4.9-.2 1.5-.2 2-.3z" class="st0"/></svg>