<?xml version="1.0" encoding="utf-8"?>
<!-- Generator: Adobe Illustrator 21.1.0, SVG Export Plug-In . SVG Version: 6.00 Build 0)  -->
<svg version="1.1" id="Layer_1" xmlns="http://www.w3.org/2000/svg" xmlns:xlink="http://www.w3.org/1999/xlink" x="0px" y="0px"
	 viewBox="0 0 408.5 612" style="enable-background:new 0 0 408.5 612;" xml:space="preserve">
<g id="d72f4x_1_">
	<g>
		<g>
			<path d="M41.3,613.5c-1,0-2,0-3.1,0c0-2.8,0-5.6,0-8.4c0-3-0.9-6.4,0.2-9.1c2.1-5.4,1-11.5,4.4-16.5c-0.6-6.2,2.9-11.6,3.7-17.6
				c0.7-5.4,2.9-10.7,2.4-16.1c1.5-2,2.8-3.8,4.1-5.6c0,4.7-0.9,9.1-1.7,13.6c-0.8,4-1.6,8-2.3,12c-0.1,0.5,0.4,1.1,0.5,1.5
				c2-1.3,3.8-2.5,4.8-3.2c1.3-4.5,2.4-8.4,3.6-12.3c0.4-1.3,0.7-2.5-1.2-2.6c0-0.9,0-1.9,0-2.6c1.4-0.4,2.2-0.7,2.8-0.9
				c-0.5-1.2-1.2-2.3-1.3-3.3c-0.1-4.2,0-8.4-0.1-12.6c0-0.6-1-1.3-1.5-1.9c0-3.8-0.1-7.6,0-11.4c0.1-3.9,2.5-7.5,1.6-11.7
				c1.5-1.9,1.5-1.9,0.1-4.4c0,1.7,0,3.1-0.1,4.4c-0.6,0.8-1.4,1.4-1.6,2.1c-0.8,3.8-0.6,8-2.2,11.3c-2.3,4.9-2.6,9.9-2.5,13.2
				c-2.7,7.9-4.8,14.1-6.9,20.3c-0.3-0.1-0.6-0.1-0.9-0.2c0,2.2,0,4.5,0,6.8c-1.3,0.6-2.5,1.2-4.2,2c0-3,0-5.2,0-7.6
				c0.6-0.2,1.3-0.3,2.7-0.7c0.5-2.1,1.1-4.6,1.7-7.1c-3.7-3.7-0.3-7.5,0.3-10.9c0.5-3,1-6.8,3.9-8.2c0-4.3,0-8.1,0-12.1
				c-0.9,0.9-1.5,1.4-2.3,2.1c-6.3-3.5-12.5-7.5-19.6-9.6c-1.1,1.7-2.1,3.1-3.3,4.9c-0.7-3.2-1.8-6-1.8-8.8
				c-0.2-12.2-0.3-24.5,0-36.7c0.3-12.3-0.9-24.6-1.6-36.8c-0.2-3.6,1-7.5-1.4-10.9c-0.4-0.6-0.2-2.3,0.3-2.8c1.9-1.7,1-3.8,1.1-5.7
				c0.1-3.6,0.2-7.2,0-10.7c-0.2-3.4-1.3-6.7-1.4-10.1c-0.2-7.9-0.1-15.8-0.1-24.4c0.8-0.6,2-1.4,3.5-2.5c-1.4-0.5-2.3-0.8-3.7-1.3
				c2.1-5-3.3-10.1-0.1-14.7c-0.5-1.8-1.1-3.1-1.2-4.5c-0.2-2,0.1-4.1-0.1-6.1c-0.2-2-0.8-4-0.8-6c0-1.9,0.8-3.8,0.8-5.7
				c0.1-9.4,0.2-18.9,0-28.3c-0.2-9.2,0.5-18.4-1.2-27.7c-1.5-8-0.5-16.3-1.5-24.6c-1.3-11.3-0.3-22.8-0.3-34.5c2,0,3.7,0,5.2,0
				c1.7-1.7,3.1-3.2,4.6-4.6c0.1-0.1,0.5-0.1,0.7-0.2c7.1,3.1,7.1,3.1,8.6,5.7c1.8-1.6,3.7-3.3,5.4-4.8c0.8-6.5-4.2-12.6-0.2-18.7
				c-0.9-0.8-1.6-1.5-1.7-1.6c-3.5,0.4-6.3,0.8-9.2,1.1c-2.8,0.2-5.8-0.6-8.4,1.1c-1.8-2.4-5.8-2.7-6.3-6.4c0-3.8,0-7.5,0-11.1
				c4.2-2.2,5.6-4.6,3.8-6.4c-0.7-0.2-1.4-0.3-2.4-0.5c0.5-0.8,1-1.6,1-1.5c-0.5-4.3-0.9-7.8-1.4-12c4.1,0,7.6,0,11,0
				c-0.3-4.4,3.3-7.9,1.2-11.7c-2.4-0.5-4.7-1-7.2-1.5c-0.7,0.7-1.5,1.7-2.3,2.6c-0.6-0.5-1.2-1-1.7-1.5c-0.5,1-0.9,2-1.5,3.2
				c-1.9-4.1,1.1-8.5-2.1-11.8c1.3-0.6,2.5-1.3,3.9-2c0.4,0.3,0.9,0.8,1.4,1.3c3.3-0.4,6.7,1.2,9.9-0.7c3.7-2.3,7.4,1.4,10.4,0.5
				c3.7-1.1,7.1-1,10-1.2c1.3,1.9,1.9,3.4,3,4.1c1.1,0.7,2.7,0.6,3.9,0.8c0,10.2,0,20.1,0,29.9c-1.1,0.4-2,0.7-2.9,1
				c0.1,4.5,2.4,7.5,5.5,10c0,0,0.3-0.3,0.9-0.8c-0.4-0.9-0.9-1.9-1.5-3.1c0.8-1.2,1.8-2.6,3.1-4.5c0.9,1.7,1.4,2.8,2.1,4.3
				c4.4-12.9,0.8-26,3.1-38.7c0.6,2.5,0.5,4.9,0.6,7.4c0.2,11.7-1,23.5,2.1,35.4c2.9,0,5.9,0,9,0c3,0,5.9-0.1,8.5-0.2
				c0.9-3-0.9-5.7,1.4-7.8c-1.8-2.2,0.5-4.1,0.5-6.2c0.5-17.1-1-34.2,1.2-51.4c1.8-13.9-1.4-28.2,1.8-42.2
				c-0.8-20.7,1-41.4,1.5-62.1c2,0,4.1,0,6.1,0c-0.1,5.7-0.2,11.3-1.3,17c-1,5.1-0.2,10.6-0.2,16s-0.5,10.7,0.1,16
				c0.6,5.4-1.6,10.2-1.8,15.4c-0.5,14.3,1.1,28.6-1.2,42.9c-1.3,8.4,0,17.3-0.3,25.9c-0.3,8.7-1.6,17.4-1.3,26.1
				c0.8,23.8-2,47.4-1.7,71.1c0,3.1-0.7,6.2-1.2,10.6c0.9,1.4,2.4,3.8,4.5,7.1c0,6.7,0,14.6,0,21.9c1.2,1,2,1.7,2.9,2.4
				c-1.2,0.2-2.9-0.8-3,1.6c0,0-0.1-0.1-0.2-0.2c-0.4,0.4-0.8,0.7-1.3,1.1c0.2,0.2,0.3,0.3,0.5,0.5c0.4-0.4,0.7-0.8,1-1.3
				c1.1-0.3,2.8,0.7,3-1.6c0.9,0,1.9,0,4.2,0c-2.8,2-4.3,3.1-6,4.3c0.7,1.3,1.2,2.3,1.7,3.3c-0.9,0.2-2.7,0.4-2.7,0.5
				c0,3.6-3.4,3.2-5.3,3.9c-2.6,1-5.6,0.9-8.9,1.4c0-4.4,0-8.9,0-12.2c-1.9-2-3-3.1-5-5c0.6,3.4,1,5.6,1.4,7.9
				c-0.6,0.2-1.5,0.5-2.4,0.9c1.5,1.8,1.7,4.5,4.8,4.9c-0.3,1.8-0.6,3.6-1.1,6.8c-1.7-2.5-2.4-3.9-3.5-5c-0.7-0.7-1.9-0.8-4.2-1.8
				c1.7,3.5,2.7,5.6,3.6,7.6c-0.5,1.1-1.2,2.3-1.9,3.6c-1.7,0.1-3.4,0.2-5.1,0.3c0,3.1,0,6.1,0,9.4c1.1-1.4,1.9-2.4,2.7-3.4
				c0.9-1.1,1.9-2.2,2.8-3.2c2.3,0.5,1.5,4,4.3,3.4c0.3,1.8,2.9,3.2,0.7,5.3c2.5,2.6,5.5,3.9,9.2,3.7c2.8-0.2,5.6,0,8.4,0
				c3.1,0,6.1,0,9.2,0c2.8,0,6-0.8,8.3,0.2c3,1.4,5.3-0.9,8-0.3c2.5,0.6,5.2,0.8,8.2,1.3c0.1-0.1,0.7-0.6,0.9-0.8
				c2,0.6,3.8,1.2,5.5,1.7c0.2,1.4,0.4,2.7,0.7,4.5c4.6-1.4,8.7-2.6,12.6-3.8c0.6,1.5,0.9,2.4,1.3,3.4c0.6-0.6,1.1-1.4,1.7-1.5
				c4.9-0.6,9.8-1,14.6-1.7c2.4-0.3,4.9-0.7,6.9-1.7c2.1-1.1,3.8-3.1,6.8-5.7c-4.5,0-7.4,0-11.2,0c0.8-2.3,1.9-3.8,1.7-5.2
				c-0.3-1.7-2.3-3.3,0.4-4.8c-1-1.1-2-2.1-3-3.2c1-2.6,0.7-5.5,1.3-8.2c0.7-2.9,0.1-6.1,0.2-9.1c0.1-3.1-0.4-6.3,0.3-9
				c4.1,1.1,6-1.4,8-3.4c4.2-0.4,8.5,0.9,11.9-1.6c1.2,0.3,1.4,2.1,2.7,0.8c0-1,0.3-2.1,0-3c-5.1-12.4-11.7-24.2-15.6-37.1
				c-0.2-0.6-1-1.1-1.8-1.8c-1.7-0.1-3.6-0.3-5.3-0.4c0-3.7,0-7,0-9.9c0.8-0.8,1.3-1.3,2.1-2.1c4.1,0,8.4,0.2,12.7-0.1
				c4-0.3,8.1-1.1,11.6-1.7c5.4,4.9-0.8,8.5,0.8,12.8c-2.9-0.9-4.5-1.8-4.5-4.2c0-0.1-0.7-0.3-1.1-0.5c-0.2,1.5-0.5,2.9-0.7,4.3
				c-3.7-0.1-7.3,0.9-10.3-1.5c-0.5-0.8-0.9-1.6-1.6-2.8c3.7-0.2,7.2-0.4,10.8-0.6c-4.4-1.1-8.8-1.5-13.2-0.9
				c-0.2,0-0.4,0.8-0.5,1.2c-1,0.7-2,1.5-4.2,3.1c2.3,0,3.3-0.2,4.2,0c1,0.2,1.8,0.8,2.3,1c1.1-0.5,1.7-0.8,2.4-1.1
				c0,1.3-0.5,2.8,0.1,3.8c5.9,11.3,9.6,23.6,16.1,34.6c1.1,1.9,2.5,3.6,3.8,5.3c0.3,0.3,0.8,0.5,0.3,0.2c2.8,0.6,4.7,1,7,1.5
				c0.1-0.1,0.8-0.6,1.6-1.2c1.2,0.7,2.2,1.3,3.2,1.9c1.1-0.6,2.2-1.2,3.1-1.7c0.5,0.3,0.9,0.7,1.4,0.8c6.6,1.3,13.3,1.4,19.9,0
				c4.2-0.9,8.2-1.1,12.3,0.1c3.6,1.1,7.5,2.2,10.6-1.6c-2.6-2.4-4.4-5-4.6-8.4c0.8,0.5,2,0.9,2.3,1.6c1.6,4.2,5.3,6.3,7.9,9.3
				c2.8-1.4,5.1-2.5,7.5-3.6c0.5,1.3,0.8,2.2,1.1,2.9c1.3-0.4,2.6-0.8,3.9-1c6.4-1.2,11.7,2.1,17.4,4c2.6,0.9,5.4,1.4,6.7,3.9
				c1.1,2.3,1.9,5,2,7.5c0.6,14.5-1.2,29.2,1.9,43.6c4.1,4.5,9,8.2,14.2,11.4c3.1,1.9,5.4,5,5.4,9.1c-3,6.8-10.6,4.9-14.7,7.9
				c-5.2,16.3-6.4,33-12.4,48.7c4.6,0,8.9-0.1,13.2,0c4,0.1,8.2-0.5,12.1,1.5c-5.8,0-11.6,0-17.4,0c-1,0-2.1-0.1-3,0
				c-0.9,0.2-1.7,0.8-2.6,1c-0.5,0.1-1.1-0.7-1.6-0.6c-0.8,0.2-1.5,0.7-2.3,1.1c-0.8,0.4-1.7,0.9-2.5,1.3
				c-8.3,4.2-16.9,7.3-26.4,6.3c-2-0.2-4,0-6,0c0.3,0.3,0.5,0.7,0.8,1c-1.2,0.4-2.5,0.9-3.7,1.3c0,0.5,0.1,1,0.1,1.5
				c1.2,0.5,2.4,1,3.6,1.5c3.1,1.7,7.2-0.3,11.1,1.7c3.9,2,7.8-2.9,11.8-0.3c-1.5,2.7-3.2,5.2-3,8.6c0.2,2.6-1,4.9-3.6,6.6
				c-1.6-2.4-0.5-6.1-4-6c-3.6,0.4-7.1,0.9-10.3,1.3c-0.8,2.9-1.5,5.4-2.1,7.9c2.6,1.3,4.9,2.5,7.6,3.9c7.7,0.1,7.7,0.1,14.3,3
				c-5.9,0-11.1,0-15.5,0c-2.5,1.7-4.3,2.9-6.1,4.1c0,2,0,4,0,5.6c2.7,2.1,5.2,4,7.6,5.8c1.2-0.7,2.2-1.2,3.2-1.8
				c0.9,0.6,1.7,1.1,1.9,1.2c2.9-0.4,5.3-1.1,7.6-1.1c9.4-0.1,18.8,0,28.7,0c0.5-1.8,0.9-3.3,1.3-4.9c0.2-1.1-0.6-2.7,1.6-2.8
				c0,0-0.1,0.1-0.2,0.2c0.4,0.4,0.7,0.8,1.1,1.3c0.2-0.2,0.3-0.3,0.5-0.5c-0.4-0.4-0.8-0.7-1.3-1c-0.8-1.9-1.5-3.9-2.3-5.9
				c-2.5,0.6-5,1.2-7.3,1.7c-1.6-1.5-2.8-2.6-4.1-3.8c-5.4,2.5-10.5,3.2-16.9-1.6c6.8,2.2,11.7-2.7,16.9,0.5
				c5.7-2.5,11.7-3.4,18.5-2.9c1-4,1.9-7.9,3-12.4c-1.1-1.9-2.4-4.1-3.8-6.4c-5.1,0-9.9,0-14.6,0c4.1-1.5,8.8-0.1,12.5-4
				c0-1.9,0-4.1,0-6.4c1.1,0,2,0.3,2.5,0c2.3-1.3,4.8-2.5,6.6-4.2c2.3-2.2,4.4-4.7,5.9-7.5c1.6-2.9,1-6.6,2.4-11
				c1.3,2,2,3.1,2.8,4.2c2,0,4.2,0,6.5,0c0.3-2,0.7-3.8,1-5.6c1,8,1.1,15.8,0.9,23.7c-0.2,5.4,0.9,10.9-1.3,16.2
				c-1.2,2.8-0.8,6.2-1.2,9.8c0.6,1.1,1.5,2.9,2.4,4.4c-0.6,0.7-0.9,1.1-1.2,1.5c0.9,0.9,1.8,1.8,2.8,2.8c0.1,1.1,0.3,2.3,0.4,3.5
				c8.2,2.9,6.4,4.8,16.4-6.6c1.2-13.8-1.5-27.5,1.8-40.9c-1.2-9,2.4-17.7,1.5-26.8c1.2,0,1.9,0,3.1,0c0,4.6-0.2,9.1,0,13.6
				c1,17.9-2.4,35.7-1.6,53.7c0.1,1.6-0.9,3.1-1.1,3.6c0.5,3.1,1.8,5.9,1,7.2c-2.1,3.2-0.9,6.3-1.3,9.4c-0.5,3.9,0.8,7.8-1.3,11.7
				c-0.8,1.5,0.6,4.1,0.9,6.1c-0.4,2-1.1,4.1-1.1,6.3c-0.1,9.4,0,18.9-0.1,28.3c0,2.6-0.8,5.1-1.3,8.1c1.1,0.5,2.7,0.9,3.6,1.8
				c1.7,1.7,5,1.4,5.5,4.6c0,0-0.1-0.1-0.2-0.2c-0.4,0.4-0.8,0.7-1.3,1.1c0.2,0.2,0.3,0.3,0.5,0.5c0.4-0.4,0.7-0.8,1-1.3
				c4.1-3.9,8.2-7.8,12.1-11.5c0.1-6.2-0.7-12.2,2.2-17.2c1.1-0.6,1.9-0.9,2.1-1c-0.5-3.1-1-5.7-1.4-8.1c1.5-0.5,2.4-0.8,3.7-1.3
				c-0.7-2.7-1.8-5.2-1.9-7.7c-0.3-5.6,0.4-11.2-0.2-16.7c-0.6-5.2,3-10.3,0.3-15.5c-0.1-0.1,1-0.7,1-1c-0.1-0.7-0.5-1.4-0.9-2.4
				c1.4-0.8,2.8-1.7,4.3-2.5c-1-1-2-2.1-2.7-2.9c0-3.5,0-6.8,0-10.5c1.6,0.6,2.8,1.1,3.9,1.6c0.3-1,0.6-1.9,1-2.8
				c0.8,0.1,1.5,0.2,2.5,0.4c-0.1,2.1-0.2,3.9-0.3,5.8c-1.3,0-2.1,0-2.9,0.1c0,0,0.1-0.1,0.2-0.2c-0.4-0.4-0.7-0.8-1.1-1.3
				c-0.2,0.2-0.3,0.3-0.5,0.5c0.4,0.4,0.8,0.7,1.3,1c0.1,0.9,0.1,1.8,0.1,2.6c1.4,0.5,2.3,0.8,2.7,0.9c0.6,5.5,1.7,10.6,1.7,15.8
				c0,5.1-1.2,10.1-2,16.4c1.3,0.5,2.7,1.1,3.9,1.6c0,3.7,0,6.7,0,9.6c1.1,0.9,2,1.6,2.8,2.2c1.2-0.7,1.9-1.2,3-1.9
				c0,4.6,0,8.9,0,12.1c2.4,4.8,5.2,8.3,2,13c-0.7,1.1-0.3,2.9-0.3,4.4c0,2.8,0,5.5,0,8.1c-1.2,0.4-2.1,0.8-3.2,1.1
				c0.7,9.2-1.4,18.5,1.8,27.4c-1.2,1.3-2.2,2.4-3.2,3.4c0,3.1,0,6.2,0,9.2c0.9,0.9,1.8,1.8,2.9,2.9c0.1,2.3,0.3,4.7,0.4,7.1
				c1.8,0,3.1,0,4.3,0c0,15.8,0,31.6,0,47.4c-121.4,0-242.8,0-364.1,0c0.4-4.7-1.8-8.9-2-13.5c0-0.6-0.7-1.2-0.1-3.7
				c-0.3-0.8-0.9-0.5-0.8-0.3c0.1,0.7,0.4,1.4,0.7,2.1c0.3-0.9,0.5-1.8,0.2-1.9c-1.4,2.5-2.3,3.1-2.3,3.8
				C41.2,604.6,41.3,609.1,41.3,613.5z M129.9,414.8c0.1-0.1,0.2-0.2,0.3-0.3c-0.4-0.4-0.7-0.8-1.1-1.3c-0.2,0.2-0.3,0.3-0.5,0.5
				c0.4,0.4,0.8,0.7,1.5,0.7C130.1,414.6,130,414.7,129.9,414.8c0.3,0.4,0.7,0.8,1,1.2c0.2-0.2,0.3-0.3,0.5-0.5
				C131,415.2,130.6,414.8,129.9,414.8z M133,419.4c0.1-0.1,0.2-0.2,0.3-0.3c-0.4-0.4-0.7-0.8-1.1-1.3c-0.2,0.2-0.3,0.3-0.5,0.5
				c0.4,0.4,0.8,0.7,1.5,0.7C133.1,419.2,133,419.3,133,419.4c0.3,0.4,0.7,0.8,1,1.2c0.2-0.2,0.3-0.3,0.5-0.5
				C134.1,419.8,133.7,419.4,133,419.4z M128.3,406.9c-0.9,0.2-1.9,0.4-3.7,0.8c1.3,1.7,2.2,2.8,3.7,4.7
				C128.3,409.8,128.3,408.4,128.3,406.9c0.1,0.1,0.2,0.2,0.3,0.3c0.4-0.4,0.8-0.7,1.3-1.1c-0.2-0.2-0.3-0.3-0.5-0.5
				C129.1,406,128.7,406.4,128.3,406.9z M117.3,326.4c3.3-1.8,4.5-3.6,2.8-6.9c-0.9,2.4-1.7,4.3-2.1,6.5c-0.1-0.1-0.2-0.2-0.3-0.3
				c-0.4,0.4-0.8,0.7-1.3,1.1c0.2,0.2,0.3,0.3,0.5,0.5C117.3,326.9,117.6,326.4,117.3,326.4z M134.3,384c-0.4,0-0.9,0-1.3,0.1
				c0.2,1,0.4,2,0.6,3c0.3,0,0.7-0.1,1-0.1c-0.1-1-0.2-1.9-1.3-2.3c-0.4-3.6-1.7-6.1-4.4-7.8C129.3,379.8,130.2,382.5,134.3,384z
				 M90.3,345.8c-3.1,0.5-6.3,1.1-7.6,4.6c-2.5,1.3-5,2.5-7.6,3.8c0.6,0.8,1,1.3,1.8,2.3c-2.1,0-3.5,0-5.1,0.2
				c0.1-0.1,0.2-0.2,0.3-0.3c-0.4-0.4-0.7-0.8-1.1-1.3c-0.2,0.2-0.3,0.3-0.5,0.5c0.4,0.4,0.8,0.7,1.4,0.9c-0.7,1-1.3,2-1.9,2.8
				c-2.5-1.6-4.9-3.2-7.2-4.7c-1.1,0.7-1.8,1.1-2.8,1.7c-0.3-2-0.6-4-1-6.7c-1.3,2.8-2.1,4.7-3,6.5c-2.7,0.9-5.3-0.4-8,1.5
				c-2.4,1.6-6,1.7-9.1,1.7c-3.6,0-6.5,1.2-9.5,3.3c4.3,0,8.5,0,12.8,0c4.1,4.5,8.3-2.4,12.8,0.4c0.4,0.7,0.9,1.8,1.7,2.7
				c0.6,0.7,1.6,1,3.2,2c0-4,0-6.9,0-9.8c0.3,0,0.7,0,1,0c0.2,2.6,0.4,5.1,0.6,7.5c2.8-1,5.2-1.9,7.7-2.9c0.8,0.4,1.6,0.9,2.4,1.3
				c0.4-1.4,0.5-2.1,0.7-2.5c2.9,1.7,5.8,3.4,8.6,5.1c-0.3,0.4-0.8,0.9-1.7,1.9c1.7,0.1,3,0.3,4.6,0.4c0.6-3.3,2-6.5,1.6-9.4
				c-0.3-2.5-0.6-4.8-0.3-6.9c-0.9-0.8-1.7-1.4-2.6-2.1c3.1-0.5,6.3-1.1,7.5-4.7c0.1,0.1,0.2,0.2,0.3,0.3c0.4-0.4,0.8-0.7,1.3-1.1
				c-0.2-0.2-0.3-0.3-0.5-0.5C90.8,344.8,90.5,345.2,90.3,345.8z M229.7,299.8c0.7-1.9,5.1,0,4.2-4.2c-1.3,0-2.7,0-4.2,0
				c0,1.5,0,2.9,0,4.4c-0.1-0.1-0.2-0.2-0.3-0.3c-0.4,0.4-0.8,0.7-1.3,1.1c0.2,0.2,0.3,0.3,0.5,0.5
				C228.9,300.9,229.3,300.4,229.7,299.8z M24.2,161.8c-3.1,3.8,1.3,6.4,1.2,9.4c0.6-3.1,1.3-6.2-1.1-9.2c0.1,0.1,0.2,0.2,0.3,0.3
				c0.4-0.4,0.8-0.7,1.3-1.1c-0.2-0.2-0.3-0.3-0.5-0.5C25,161.2,24.7,161.6,24.2,161.8z M23,257.8c-1.2-1.4-2.3-2.8-4.2-5
				c0,3.3,0,5.2,0,7.2c1.6-0.8,2.9-1.5,4-3c0.1,0.1,0.2,0.2,0.3,0.3c0.4-0.4,0.8-0.7,1.3-1.1c-0.2-0.2-0.3-0.3-0.5-0.5
				C23.5,256.1,23.1,256.5,23,257.8z M103.6,402.4c-0.6,2.5-1.9,5.1,0,8.9c0-3.9,0-6.4-1.1-8.8c0-1.6,0-3.1,0-4.7
				c0-1.8,0.2-3.6-0.1-5.3c-0.2-1.6-1.2-3.1-1.4-4.7c-0.3-1.7,0.1-3.6-0.1-5.3c-0.2-1.6-1.1-3.1-1.4-4.7c-0.3-1.4-0.4-2.8-0.5-4.2
				C97,383.6,101.4,392.7,103.6,402.4z M22.8,246.1c0.2,2.3,0.4,4.3,0.6,7.6c1-3.2,1.6-5.1,2.2-7.1c-0.6-0.1-1.3-0.2-3,0.7
				c1.2-4.2,1.2-4.2,5.3-8.7c-2.9-8.6-6.6-17.4-4.9-27.1c-1.7-0.9-2.8-1.5-4.8-2.6c0,2.6-0.7,4.9,0.1,5.8c1.7,1.8,1.3,3.7,1.4,5.6
				c0,1.8-0.2,3.6,0.1,5.3c0.2,1.9,0.8,3.7,1.4,5.7C18.8,237.2,19.2,240.1,22.8,246.1z M59.4,302c-1.8,2.7-3.1,4.5-4.3,6.3
				c0,0,0.3,0.3,0.6,0.6c1.1,0,2.3,0,3.7,0c0-2,0-3.9-9.5,0.9c1.5-0.8,3.3-1.2,4.3-2.4c0.8-0.9,0.7-2.7,1.2-5.4
				c-3.7,1.4-6.2,2.4-8.8,3.4c-3.3,0.8-6.7,0.8-9.6-1.4c-2.5-1.9-5.1-1.3-7.7-0.5c-2.7,0.8-5.2,2-8.5,3.3c0.9,2,1.8,3.8,2.9,6.1
				c4.3-3.4,8.2-2.8,11.4-0.8C40.1,309.4,44.9,311.2,59.4,302z M217.4,466.5c-0.1,0.1-0.2,0.2-0.3,0.3c0.4,0.4,0.7,0.8,1.1,1.3
				c0.2-0.2,0.3-0.3,0.5-0.5c-0.4-0.4-0.8-0.7-1.4-0.9c-0.9-3.3-0.9-3.3-4.9-5.8c-9.7,4-19.2-2.5-28.7,0.1c0,3.8,0,7.5,0,11.2
				c3.7,2.9,7.8,2,11.8,2.1c0.3-1.2,0.5-1.9,0.7-2.6c4.4,1.9,8.9,0.8,13.4-0.1c-2.5-0.2-5.1-0.4-7.4-0.6c0-1.6,0-2.8,0-4.6
				c2.5,0.6,4.7,2.6,7,0.6C212.1,470.7,214.5,465.7,217.4,466.5z M124.1,432.6c-1.1-1.5-2.8-3.6-4.6-6c-2,0.5-4.4,1-6.4,1.5
				c-3.3-1.1-6.4-2.1-9.6-3.2c-0.9,1.1-1.5,1.8-2.4,2.9c0,1.8,0,4.1,0,6.4c3.1,3.5,6.3,7,9.3,10.6c2.6,3,5.1,6,7.6,9.1
				c2.8,3.6,5.4,7.4,8.1,11.1c1.3,1.8,2.5,3.6,3.8,5.3c1.7,2.3,3.4,4.6,5.1,7c-6.1,8.4-17.2,8.7-23.6,16.4c0,1.9,0,4.1,0,6.2
				c-1.1,0.4-2,0.7-3.1,1.1c0,2.3,0,4.6,0,6.6c-9.2,3.3-18.8,4.2-26.7,8.3c-0.7,1.3-1,2.1-1.3,2.6c-2.5-0.7-4.4-1.2-6.9-1.8
				c-1.5,3.6-2.8,6.6-4,9.3c-0.9,0.3-1.6,0.5-2.1,0.7c-0.5,3.4,0.5,6.8-1.7,9.9c0-3.5,0-6.9,0-10.2c-1.2-0.3-1.9-0.5-2.3-0.6
				c0-5.2-1.3-10.1-3.2-14.9c-0.5,1.2-0.6,2.4-0.5,3.6c0.5,6.2,1.3,12.3,1.5,18.5c0.3,8.4,0.2,16.8,0,25.2c-0.1,3.8,0.7,7.1,3,11.3
				c0-3.8,0-6.5,0-9.1c1.2-0.6,1.5-2.2,3.2-1.7c-1,7.5,2.5,14.7,1.5,22.3c-0.3,2.4-0.1,5-0.1,7c2.8,1.4,5.2,2.6,7.2,3.6
				c2.8,0.2,5.7-0.4,7.7,0.8c2.8,1.7,5.9,1.6,7.9,0.7c4.4-1.8,8.8-1,13.2-1.3c1.3-0.1,3,0.5,3.8-0.1c3.8-2.9,8.3-0.3,12.2-2.1
				c4.1-1.9,8.4-0.7,12.6-0.8c3.3-0.1,6-1.7,8.9-2.5c2-0.6,3.8-1.8,5.7-2.6c2.7-5.4,3.6-10.9,3.6-17c-0.2-39-0.1-78,0-116.9
				c0-2.9,0.7-5.7,0.9-7.3c-0.6-4-1-6.8-1.4-10.2c-4.5,0.4-8.9,1-13.3,1C133.4,433.7,129.1,433,124.1,432.6z M315.1,461.4
				c-3.1-1.9-5.7-3.6-8.6-5.5c-1.9,0-4.2-0.2-6.4,0c-2.4,0.2-4.7,0.8-7.2,1.2c-1.7-2.2-4.4-1.2-6.8-1.2c-2.5,0-5.1,1.2-7.5,0.8
				c-2.5-0.4-4.1,1.3-6.2,1c-0.7,3.6-1.3,6.8-2.1,10.8c3.5-0.7,6.1-1.2,8.6-1.7c4.9-0.2,9.3,5.2,14.8,1.3c1.5-1,3.6-1.3,5.4-1.5
				c2-0.3,4-0.1,5.9-0.1c1.4,1.2,2.6,2.4,4.3,3.8c1.5-2,2.6-3.6,3.7-5.1c1.1,1.1,2,2,2.9,2.9c0.4-0.3,0.7-0.5,1.1-0.8
				C316.4,465.3,315.7,463.1,315.1,461.4z M213.2,342.5c-4.6,0.3-9.3,0.5-14.1,0.8c-0.1,0-0.2,0.4-0.4,1.2c1.3,1.4,2.7,3,4.3,4.7
				c5.4,0.4,10.8,1.3,16.2,1.1c9.2-0.4,18.5,1.9,27.6-1.4c0.6-0.2,1.7-0.1,2.1,0.3c3.1,3.1,5.9,0.3,8.7-0.4
				c3.4,1.8,5.4,1.6,13.6-1.3c-4.4,0-8.2,0-11.7,0c-2.8-3-6.2-3.1-9.7-3.3c-5.9-0.3-11.7,0.5-17.7-1.1c-4.7-1.3-10.4-1.5-14.9,2.1
				c-0.3,0.2-0.7,0.2-1,0.3C215.4,344.7,214.6,343.9,213.2,342.5z M53.7,203.1c0.5,0.3,1,0.6,1.5,0.9c-0.8,2.5,1,5.2-1.3,7.8
				c-0.6,0.6-0.6,3,0,3.4c2.6,2,0.2,5.2,2.4,7.6c2.1,2.3-1.3,5.4-1.3,8.3c0,2.9-1,5.4-4.1,6.6c-0.3,0.1-0.2,1.6-0.2,1.9
				c2.1-0.3,3.9-0.6,5.6-0.9c0.3,2,0.5,3.3,0.7,4.6c0.7-3.5,1-7,1.1-10.5c0.1-3.8,0.2-7.6,0-11.4c-0.2-3.4,1.1-7-0.9-10.3
				c-2.3-3.8,0.9-7,0.9-10.6c0-0.3,0.1-0.7,0-0.7c-2.6-1.9-1.3-4.7-1.5-7c-0.2-4-0.1-8-0.1-12.2c-2.9,1.2-5.3,2.2-7.7,3.2
				c0,4.7,0,8.9,0,13.3c-1.6,0.2-3,0.5-4.3,0.7c0,3.1,0,5.8,0,8.4c1.7,0.7,3.2,1.4,5.1,2.2C51,206.6,52.3,204.8,53.7,203.1z
				 M212.1,457.5c4.3-4.6,0.3-7.3-1-10.1c-2.4-0.8-4.6-1.3-6.4-2.2c-2.3-1.1-4.2,2.4-6.8-0.1c-0.5,0.7-1,1.6-1.7,2.2
				c-0.7,0.6-1.6,0.9-2.4,1.4c-0.7-1.4-1.2-2.4-1.6-3.4c-6.3,1.5-9,5.4-8.3,11.6c0.8,0.8,1.5,1.5,2.3,2.3c4.2-0.7,8.5,0.3,13-1.3
				C202.8,456.4,207.5,457.5,212.1,457.5z M59.5,284.3c-3.6,1-6.7,3.7-9.9,0.4c-0.4-0.4-1.5,0-2.2-0.1c-3.1-0.5-6.4,1-9.5-1.1
				c-3.4-2.3-6.4,1.8-9.9,1.1c-0.7-0.1-1.3-0.4-1.6-0.5c-0.4-1.1-0.7-1.8-1.2-3.2c-1.5,2.6-2.5,4.4-2.8,4.8
				c0.4,5.5,0.7,9.8,1.1,15.3c1.4-4.4,2.4-7.5,3.4-10.6c5,2.1,14.9,2.5,32.7,1.3C59.5,289.6,59.5,287.4,59.5,284.3z M375,547.3
				c1.7,2.3,3.5,4.6,5.1,6.7c2.2-0.2,3.8-0.3,6.3-0.5c-3.2-5-5-9.7-3.3-15.3c5,1.1,9.5,2.3,13,7.4c0-3.4,0-5.7,0-7.7
				c-1.3-1.4-2.5-2.7-3.8-4.2c-2,0.6-4,1.2-6,1.8c-0.5-1.2-1-2.2-1.9-4.2c-1.8,2.3-3,3.9-4.6,5.9c-1.2,0-2.9,0-4.8,0
				C375,540.5,375,543.5,375,547.3z M185.2,409.4c2,0.7,3.4,1.2,4.7,1.6c2.7,0.8,5.5,1.9,8.2,2c8.1,0.3,16.2,0.1,24.3,0.1
				c0.3,0,0.5-0.6,0.8-0.8c-0.7-0.8-1.4-1.5-2-2.1c-11.4,0.2-21.4-4.9-31.9-7.7c-1.4,0.8-2.8,1.6-4.1,2.4
				C185.2,406.4,185.2,407.9,185.2,409.4z M67.3,240.5c0,3.9,0,7.5,0,11c0,3.8-1.1,8.1,0.3,11.3c1.3,3.1,0.4,6.4,2.8,9.1
				c0-9.6,0-19.1,0-28.5c4.4-0.7,8.4,0.4,12.2-0.7c-0.1-1.1-0.2-1.5-0.3-2.2c-2.5-1.5-6.1,1.1-8.3-2C72.6,241.2,70,239.7,67.3,240.5
				z M89.1,353.6c-1.8,11.8,2.3,23.3,1.2,35c2.6,4.1,1.2,8.7,1.5,13c0.1,0.7,0.4,1.4,0.5,2.1c1-1.3,0.9-2.6,1-3.8
				c1.1-10.3-2-20.3-1.6-30.5c0.2-5.2,0-10.5,0-15.9C90.6,353.6,89.9,353.6,89.1,353.6z M33.7,433.2c-3.1,0.6-5.3,1.1-7.9,1.6
				c0.3,3,0.6,5.8,1,8.9c-0.2,0.5-0.5,1.6-1.2,3.5c1.6-0.9,2.3-1.3,2.6-1.5c1.1,0.4,2,0.7,2.8,1.1c0.7,0.4,1.4,0.9,1.7,1.1
				c1.3-2.5,2.5-4.8,3.8-7.4C35.7,438.3,34.7,435.7,33.7,433.2z M37.2,240c-0.8-7.4-1.6-14.2-2.3-21c-0.4,0.3-0.8,0.6-1.1,0.9
				c-0.2-1-0.4-1.9-0.7-3.2c-1,2.2-1.6,3.5-2.2,4.7c0.2,0.2,0.5,0.4,0.5,0.5c0.4,6,0.7,11.9,1.1,18.1C33.7,240,34.9,240,37.2,240z
				 M58.6,263.3c3.3,2.8,4.1,6.6,5.3,10.2c-1.5,1.2-3.1,2.5-5.1,4.1c3.2,1,5.6,1.7,8.1,2.5c1.8-6-2-11.2-1.1-16.7
				C63,263.3,60.8,263.3,58.6,263.3z M81.1,333.3c-1.9,1.9-3.3,3.4-4.6,4.8c0.6,1.3,1.2,2.5,1.8,3.8c-1.3,0.7-2.3,1.1-3.3,1.6
				c0.8,2.4,1.5,4.6,2.3,7c0.8-1.1,1.8-1.9,2.3-3c0.5-1,0.3-2.6,1-3.3c1.3-1.3-2.1-2.1,0-3.4c0.7-0.4,0.5-2.2,0.6-3.4
				C81.2,336.2,81.1,335,81.1,333.3z M51.9,144.3c-2.8-1.2-5.3-0.4-7.5,1.1c-0.7,0.5-1.1,1.5-1.8,2.4c3.6,0.8,6.4,1.4,9.4,2
				C51.9,147.7,51.9,146,51.9,144.3z M184.9,269.8c-4.6-2.4-9,3.8-13.4-0.3c0,2.7,0,4.9,0,8.3c1.6-2.4,2.6-3.8,3.8-5.5
				C178.5,272.2,182.3,273.1,184.9,269.8z M64.6,413.2c-0.3,2-0.1,4.1-1,5.6c-1.2,2-1.2,3.3,0.1,5.7c3.9-3.5,4-7.2,3.2-11.3
				C66.1,413.2,65.5,413.2,64.6,413.2z M63,590.4c0.3,0,0.7,0,1-0.1c0-6.4,0-12.9,0-19.7c-1.2,0.2-2,0.4-3.1,0.6
				c0.7,0.7,1.3,1,1.3,1.4C62.5,578.5,62.8,584.4,63,590.4z M77.7,499c-1.6,0-2.8,0-4.1,0c0,0.9,0,1.6,0,2.6c2,0,3.9,0,5.6,0
				c0-2.6,0-5,0-7.4c-0.2,0-0.5,0-0.7,0C78.2,495.5,78,496.9,77.7,499z M272.6,348c0,0.3,0,0.6,0,0.9c2,0,3.9,0,5.9,0
				c2,0,4-0.2,6-0.2c-2-1.6-4-2.7-6-2.7C276.5,346,274.5,347.2,272.6,348z M338.8,422.9c0.5-1.2,0.7-1.9,1-2.5
				c-1.6-1.3-3-2.5-4.4-3.6c-0.5,0.9-1.1,2.2-1.9,3.9C335.2,421.4,336.9,422.1,338.8,422.9z M133.1,404.3c0,0.3,0,0.5,0,0.8
				c5.1,0,10.2,0,15.3,0c0-0.3,0-0.5,0-0.8C143.3,404.3,138.2,404.3,133.1,404.3z M30.7,148.4c2.7-0.3,5.7,1.2,7.4-2.8
				c-2.5,0-4.9,0-7.4,0C30.7,146.5,30.7,147.2,30.7,148.4z M99.5,316.2c0-0.2,0-0.5-0.1-0.7c-2.5,0-5.1,0-7.4,0c0,1.6,0,2.7,0,4.3
				c1.2-0.2,2-0.4,2.6-0.5c0.2-1.1,0.3-1.8,0.5-2.4C96.7,316.7,98.1,316.5,99.5,316.2z M84.4,241.5c1-3.9,1.8-7.9,0-11.7
				C84.4,233.7,84.4,237.6,84.4,241.5z M58,251.8c-1.3,1.3-2.1,2.1-3,3c0.1,1.1,0.2,2.5,0.4,4c1.2-0.3,1.9-0.4,2.6-0.6
				C58,256.3,58,254.7,58,251.8z M108.4,322.7c0-1.5,0-2.8,0-4.3c-0.9,0-1.6,0-2.5,0c0,1.5,0,2.8,0,4.3
				C106.8,322.7,107.4,322.7,108.4,322.7z M243.6,292.3c-1.8-2.4-3-4.2-4.4-6.1C238.8,290.8,238.8,290.8,243.6,292.3z M83.9,373.6
				c-0.4,0-0.8,0-1.3,0c0,1.4-0.1,2.9,0,4.3c0.1,1.5,0.3,2.9,0.4,4.4c0.3,0,0.5-0.1,0.8-0.1C83.9,379.3,83.9,376.4,83.9,373.6z
				 M278.7,312c0,1.7,0,3.1,0,5.5c1.4-2,2.3-3.1,3.5-4.8C280.7,312.4,279.9,312.2,278.7,312z M153.9,390.7c2.6,0.6,1.3,5.7,5.4,3.3
				C157.1,393.5,158.6,389.1,153.9,390.7z M142.7,416.3c1.3,1.7,1.9,2.5,2.8,3.6c1.3-1.4,2.1-2.2,3.4-3.6
				C146.7,416.3,145.5,416.3,142.7,416.3z M78.8,482c-0.7,0.7-1.4,1.4-2.2,2.2c1.2,1.2,1.8,3.4,4.3,1.9
				C80.2,484.7,79.5,483.3,78.8,482z M247.9,301c1,0,2,0,3.2,0c-0.2-1.1-0.4-1.8-0.6-2.8c-1.1,0.2-1.9,0.4-2.7,0.6
				C247.9,299.6,247.9,300.1,247.9,301z M56.7,178.8c-0.2-1.5-0.4-2.9-0.7-5.1c-1,2.4-1.5,3.7-2.2,5.3
				C54.8,178.9,55.5,178.9,56.7,178.8z M59.9,498.5c0.4,0,0.9,0,1.3,0c-0.1-1.9-0.3-3.7-0.4-5.6c-0.3,0-0.6,0-0.9,0.1
				C59.9,494.8,59.9,496.6,59.9,498.5z M154.8,400.6c0.5,0,0.9-0.1,1.4-0.1c-0.2-1.4-0.4-2.7-0.6-4.1c-0.3,0-0.5,0-0.8,0.1
				C154.8,397.9,154.8,399.2,154.8,400.6z M214.5,278.2c0.5,0,0.9-0.1,1.4-0.1c-0.2-1.4-0.4-2.7-0.6-4.1c-0.3,0-0.5,0-0.8,0.1
				C214.5,275.5,214.5,276.8,214.5,278.2z M245.7,296.4c0.5-2.3,0.5-2.3-3.2-2C244,295.3,244.9,295.9,245.7,296.4z M137,423.3
				c-1.7,4-0.1,3.8,1.9,3.1C138.3,425.5,137.7,424.5,137,423.3z M64,592.4c-0.5,0-0.9,0.1-1.4,0.1c0.2,1.4,0.4,2.7,0.6,4.1
				c0.3,0,0.5,0,0.8-0.1C64,595.1,64,593.7,64,592.4z M47.4,171c0-0.3,0-0.5,0-0.8c-1.5,0-3.1,0-4.6,0c0,0.3,0,0.5,0,0.8
				C44.4,171,45.9,171,47.4,171z M67.4,516.5c1.1-0.5,2.1-1,3.2-1.5c-0.2-0.2-0.4-0.5-0.5-0.7c-0.8,0-1.7,0-2.6,0
				C67.4,515.3,67.4,516,67.4,516.5z M134.3,318.2c-0.3,0-0.5,0-0.8,0c0,1,0,2,0,3.1c0.3,0,0.5,0,0.8,0
				C134.3,320.3,134.3,319.3,134.3,318.2z M108.4,341.4c-0.4,0.1-0.9,0.1-1.3,0.2c0.2,0.8,0.4,1.7,0.6,2.5c0.2,0,0.5-0.1,0.7-0.1
				C108.4,343.1,108.4,342.3,108.4,341.4z M103.7,315.2c-0.3,0-0.5,0-0.8,0c0,1,0,2,0,3.1c0.3,0,0.5,0,0.8,0
				C103.7,317.2,103.7,316.2,103.7,315.2z M155.8,341.4c-0.4,0.1-0.9,0.1-1.3,0.2c0.2,0.8,0.4,1.7,0.6,2.5c0.2,0,0.5-0.1,0.7-0.1
				C155.8,343.1,155.8,342.3,155.8,341.4z M342.3,482c-0.3,0-0.5,0-0.8,0c0,1,0,2,0,3.1c0.3,0,0.5,0,0.8,0
				C342.3,484,342.3,483,342.3,482z M82.2,474.3c-0.3,0-0.5,0-0.8,0c0,1,0,2,0,3.1c0.3,0,0.5,0,0.8,0
				C82.2,476.3,82.2,475.3,82.2,474.3z M70.4,445.6c0,0.3,0,0.5,0,0.8c1,0,2,0,3.1,0c0-0.3,0-0.5,0-0.8
				C72.4,445.6,71.4,445.6,70.4,445.6z M93.1,436.3c-0.4,0.1-0.9,0.1-1.3,0.2c0.2,0.8,0.4,1.7,0.6,2.5c0.2,0,0.5-0.1,0.7-0.1
				C93.1,438,93.1,437.1,93.1,436.3z M70,431.5c-0.3,0-0.5,0-0.8,0c0,1,0,2,0,3.1c0.3,0,0.5,0,0.8,0C70,433.5,70,432.5,70,431.5z
				 M170.2,560c0.3,0,0.5,0,0.8,0c0-1,0-2,0-3.1c-0.3,0-0.5,0-0.8,0C170.2,557.9,170.2,559,170.2,560z M120.5,393.2
				c-0.3,0-0.5,0-0.8,0c0,1,0,2,0,3.1c0.3,0,0.5,0,0.8,0C120.5,395.3,120.5,394.2,120.5,393.2z M70.6,373c0.4,0,0.9,0,1.3-0.1
				c-0.2-0.9-0.4-1.7-0.6-2.6c-0.3,0-0.5,0.1-0.8,0.1C70.6,371.3,70.6,372.2,70.6,373z M160.9,371.5c0.4-0.1,0.9-0.1,1.3-0.2
				c-0.2-0.8-0.4-1.7-0.6-2.5c-0.2,0-0.5,0.1-0.7,0.1C160.9,369.9,160.9,370.7,160.9,371.5z M47.7,571.9c0.4,0,0.9-0.1,1.3-0.1
				c-0.2-0.9-0.4-1.7-0.6-2.6c-0.3,0-0.5,0.1-0.8,0.1C47.7,570.2,47.7,571.1,47.7,571.9z M76.7,266.5c0.1,0.4,0.1,0.9,0.2,1.3
				c0.8-0.2,1.7-0.4,2.5-0.6c0-0.2-0.1-0.5-0.1-0.7C78.4,266.5,77.6,266.5,76.7,266.5z M51.6,231c-0.3,0-0.5,0-0.8,0c0,1,0,2,0,3.1
				c0.3,0,0.5,0,0.8,0C51.6,233.1,51.6,232.1,51.6,231z M73.7,201.7c0.4,0,0.9,0,1.3-0.1c-0.2-0.9-0.4-1.7-0.6-2.6
				c-0.3,0-0.5,0.1-0.8,0.1C73.7,200,73.7,200.8,73.7,201.7z M239.1,296.8c0.3,0,0.5,0,0.8,0c0-1,0-2,0-3.1c-0.3,0-0.5,0-0.8,0
				C239.1,294.8,239.1,295.8,239.1,296.8z M174.2,301.7c-0.4,0-0.9,0-1.3,0.1c0.2,0.9,0.4,1.7,0.6,2.6c0.3,0,0.5-0.1,0.8-0.1
				C174.2,303.4,174.2,302.5,174.2,301.7z M67.3,453.4c0,0.2,0,0.3,0,0.5c0.5,0,1,0,1.5,0c0-0.2,0-0.3,0-0.5
				C68.3,453.4,67.8,453.4,67.3,453.4z M93.3,441.1c0,0.2,0,0.3,0,0.5c0.5,0,1,0,1.5,0c0-0.2,0-0.3,0-0.5
				C94.3,441.1,93.8,441.1,93.3,441.1z M91.8,434c0-0.2,0-0.3,0-0.5c-0.5,0-1,0-1.5,0c0,0.2,0,0.3,0,0.5C90.8,434,91.3,434,91.8,434
				z M221.9,430.4c0,0.2,0,0.3,0,0.5c0.5,0,1,0,1.5,0c0-0.2,0-0.3,0-0.5C222.9,430.4,222.4,430.4,221.9,430.4z M166.3,520.2
				c-0.2,0-0.3,0-0.5,0c0,0.5,0,1,0,1.5c0.2,0,0.3,0,0.5,0C166.3,521.2,166.3,520.7,166.3,520.2z M27.5,503.9c0,0.2,0,0.3,0,0.5
				c0.5,0,1,0,1.5,0c0-0.2,0-0.3,0-0.5C28.6,503.9,28.1,503.9,27.5,503.9z M116.8,345.8c0.2,0,0.3,0,0.5,0c0-0.5,0-1,0-1.5
				c-0.2,0-0.3,0-0.5,0C116.8,344.8,116.8,345.3,116.8,345.8z M258.6,277.4c0,0.2,0,0.3,0,0.5c0.5,0,1,0,1.5,0c0-0.2,0-0.3,0-0.5
				C259.6,277.4,259.1,277.4,258.6,277.4z M95.4,342.7c0.2,0,0.3,0,0.5,0c0-0.5,0-1,0-1.5c-0.2,0-0.3,0-0.5,0
				C95.4,341.7,95.4,342.2,95.4,342.7z M110.7,316.7c0.2,0,0.3,0,0.5,0c0-0.5,0-1,0-1.5c-0.2,0-0.3,0-0.5,0
				C110.7,315.7,110.7,316.2,110.7,316.7z M89.8,429.9c-0.2,0-0.3,0-0.5,0c0,0.5,0,1,0,1.5c0.2,0,0.3,0,0.5,0
				C89.8,430.9,89.8,430.4,89.8,429.9z M88.2,425.3c-0.2,0-0.3,0-0.5,0c0,0.5,0,1,0,1.5c0.2,0,0.3,0,0.5,0
				C88.2,426.4,88.2,425.9,88.2,425.3z M86.7,422.3c-0.2,0-0.3,0-0.5,0c0,0.5,0,1,0,1.5c0.2,0,0.3,0,0.5,0
				C86.7,423.3,86.7,422.8,86.7,422.3z M84.7,417.7c0.2,0,0.3,0,0.5,0c0-0.5,0-1,0-1.5c-0.2,0-0.3,0-0.5,0
				C84.7,416.7,84.7,417.2,84.7,417.7z M185.1,412.1c0,0.2,0,0.3,0,0.5c0.5,0,1,0,1.5,0c0-0.2,0-0.3,0-0.5
				C186.1,412.1,185.6,412.1,185.1,412.1z M330,403.9c-0.2,0-0.3,0-0.5,0c0,0.5,0,1,0,1.5c0.2,0,0.3,0,0.5,0
				C330,404.9,330,404.4,330,403.9z M82.6,263.7c0,0.2,0,0.3,0,0.5c0.5,0,1,0,1.5,0c0-0.2,0-0.3,0-0.5
				C83.6,263.7,83.1,263.7,82.6,263.7z M186.2,264.7c-0.2,0-0.3,0-0.5,0c0,0.5,0,1,0,1.5c0.2,0,0.3,0,0.5,0
				C186.2,265.7,186.2,265.2,186.2,264.7z M269.8,266.2c0.2,0,0.3,0,0.5,0c0-0.5,0-1,0-1.5c-0.2,0-0.3,0-0.5,0
				C269.8,265.2,269.8,265.7,269.8,266.2z M86.2,390.1c0.2,0,0.3,0,0.5,0c0-0.5,0-1,0-1.5c-0.2,0-0.3,0-0.5,0
				C86.2,389.1,86.2,389.6,86.2,390.1z"/>
			<path d="M307.5,50.5c1.3,0,2.5,0,3.9,0c1.3-6.1,6.1-10.1,9-15.5c1,1.1,1.9,2.1,2.9,3.2c0.7-0.5,1.4-0.9,2.3-1.5
				c1.1,0.6,2.4,1.2,4,2c1.1-1.7,2.1-3.3,3.2-4.8c0.5,0.4,1,0.9,1.8,1.6c2.9-1.8,5.9-3.6,9.5-5.7c0-1,0-2.7,0-4.2
				c0.8-0.8,1.3-1.3,1.9-1.9c0.4-0.2,0.9-0.7,1.3-0.6c3.1,0.4,6.5,0.3,9.2,1.7c3.4,1.7,6.7,1,10.1,1.4c4.1,0.5,8.1,1.8,12.3,1.6
				c4-0.2,7.4-1.6,11.2-3.1c3.5,1.1,7.2,2.3,11,3.5c-0.7,0.9-1.1,1.4-2.1,2.6c4.1,0,7.6,0,11.1,0c0,2.5,0,5.1,0,7.6
				c-0.5,0-1.3-0.2-1.5,0c-2.9,3.4-7.6,2.6-11.1,4.5c-1,0.6-2.1,1.2-3.3,1.3c-3.2,0.4-4.6,4.2-8.6,3.6c-2.8-0.5-5.6,2.2-8.4,3.3
				c-2.7,1-5.4,0.4-7.6,1.7c-2.1,1-4.2,2.1-6.8,3.4c-0.1,1.1-0.1,2.8-0.2,4.5c-0.4,0.1-0.8,0.4-1.1,0.2c-4.6-3-9.4-4.4-15.1-4.3
				c-6.8,0.1-13.6-1.1-20.5-2.6c3.6-0.2,7.2-0.4,10.7-0.6c0-1,0-1.5,0-2.1c-3.2-1.3-5.8-3.3-10-1c-2.7,1.5-6.2,1.4-7.8,5.3
				c-3.5-2-7-3-11.2-0.2C307.5,53.4,307.5,51.9,307.5,50.5z M340.6,47.1c1.4-0.9,2.6-1.7,4.7-3c-1.4-1.5-2.4-2.5-3.4-3.7
				c-2.4,1.6-4,2.7-6,4.1C337.8,45.6,339,46.3,340.6,47.1z M359.3,51.8c0-0.4,0-0.9-0.1-1.3c-0.9,0.2-1.7,0.4-2.6,0.6
				c0,0.3,0.1,0.5,0.1,0.8C357.6,51.8,358.4,51.8,359.3,51.8z"/>
			<path d="M19.9,589c-1.1,4.3,1.7,8.1,1.6,12.3c-0.1,4.1,0,8.1,0,12.2c-6.6,0-13.3,0-19.9,0c0-30.6,0-61.2,0-91.8
				c0.5,0,1,0,1.6,0.1c0.1,1.3,0.1,2.7,0.1,4.2c1.6,0,2.9,0,4.2,0c0-1.5,0-2.7,0-4.1c-1.6,0-3,0-4.3-0.1c-0.3-1.3,0.7-3-1.6-3.2
				c0-11.7,0-23.5,0-35.2c1,0.7,2,1.3,3.1,2.1c-0.2,4.7,0.2,9.2,2.3,13.5c0.9,1.8,0.8,4.4,0.6,6.5c-0.2,2.2,0.8,3.7,0.7,7.3
				c0.3,0.8,0.9,0.5,0.8,0.3c-0.1-0.7-0.4-1.4-0.7-2.1c-0.3,0.9-0.5,1.8-0.2,1.9c2.2-0.9,3.6,0,4.9,1c1.1-2,0.3-3.5-0.8-5.4
				c-0.9-1.5-0.3-4-0.1-6c0.2-1.9-0.4-3.8,0.9-5.8c0.7-1.1-0.7-3.4-0.9-5.2c-0.2-2,0-4,0-6.1c2,0.2,2.9,1,3.1,3
				c0.3,4.1,2.1,8.1,1.6,12.4c-0.1,1.2,0.9,2.6,1.4,4c-2.4,3-1.2,6.6-1.5,10.1c0.9,0.3,1.8,0.6,3.5,1.2c-1.5,0.6-2.3,1-3.3,1.4
				c-0.1,1.2-0.3,2.4-0.4,3.8c-0.7,0.1-1.4,0.3-2.8,0.6c0.5,0.9,0.9,1.7,1.6,3c-0.5,0.6-1,1.4-1.6,2.3c0.8,0.7,1.8,1.6,2.6,2.3
				c1.3,18.9,0.8,38.1-1.1,42.2c3,5.3,0.8,11.2,1.9,17.3C18,589,18.9,589,19.9,589z M6.6,539.4c-1.3,6.1,0.7,11.8-1.6,17.1
				c0.4,0.8,1.1,2,2,3.8c1.6-0.5,3.3-1.1,4.5-1.5c2.5-5.4-2.8-9-1.4-13.8C10.5,543.8,8.2,541.7,6.6,539.4z M5.7,533.8
				c0-2.4,0-3.4,0-4.6c-1.1,0.2-1.8,0.4-3.2,0.7C3.5,531.1,4.2,532,5.7,533.8z"/>
			<path d="M1.5,402.4c1.5,0,3.1,0,4.6,0c3.2-0.1,5.6-1.5,7.1-4.5c0.6,3.1,1.1,6.1,1.8,9.9c-0.1,0.1-0.7,0.9-1.5,1.9
				c4.1,3.6-0.3,7.5,0.1,11.5c0.5,4.3-0.6,8.8,0.2,13c3,15,0.6,30.2,1.4,45.2c0.1,1.2,0,2.5,0,4.5c-1.6-0.7-2.7-1-3.5-1.7
				c-0.9-0.7-2.9-8.4-2.3-8.9c2-1.7,1-3.8,1.2-5.7c0.4-3.4-0.5-6.8,1.4-10.1c1.3-2.3-0.1-10.6-1.5-13c-0.7-1.2-2.1-1.9-3.7-3.2
				c-1.3,3.4-2.4,6.3-3.5,9.3c0.3,0.7,1,1.8,1.1,2.8c0.1,4.3,0.2,8.7,0,13c-0.1,3.8,1.5,6.9,2.8,10.1c-0.6,1.2-1.3,2.5-1.7,3.3
				c-1.4-0.4-2.8-0.7-4.1-1.1C1.5,453.4,1.5,427.9,1.5,402.4z M7.1,411.6c-0.2,0-0.3,0-0.5,0c0,0.5,0,1,0,1.5c0.2,0,0.3,0,0.5,0
				C7.1,412.6,7.1,412.1,7.1,411.6z"/>
			<path d="M24.5,613.5c-0.8-2.6,1.4-5,0.2-8c-1-2.4,0.6-5.8-0.4-8.2c-2.2-5.4-0.8-10.8-1.6-16.6c-1.1-2.3-3.6-4.6-2.7-8.2
				c0.8-0.2,1.5-0.3,2.4-0.5c1.7-4.4-1.1-9.4,1.4-13.7c2.7-4.6-3.5-8.4-1-12.9c0.7-0.7,1.5-1.4,2.2-2.1c0.3,0.2,0.8,0.5,0.8,0.8
				c0.1,2,0.1,4.1,0,6.1c-0.3,5.2,0.9,10.1,2.7,14.9c0.7,1.7,0.5,3.8,0.8,5.9c0.9-0.8,1.4-1.3,1.9-1.7c0.8,0.8,1.5,1.5,2,2
				c-1.4,1.4-2.7,2.8-4.2,4.3c1.3,2.1,2.6,3.9,3.8,5.9c1,0,2,0,3.6,0c-0.2,1.8-0.4,3.6-0.7,5.9c3.5,3.7-1.2,8-0.8,12.5
				c0.4,4.5,0.1,9.1,0.1,13.7C31.6,613.5,28.1,613.5,24.5,613.5z"/>
			<path d="M410,10.7c-3.7,2.2-8.6,1.3-11.9,4.6c-5.5-0.7-9.4,3.2-13.9,5.3c-4.9,2.3-9.4,3.5-14.6,1.3c-1.9-0.8-4.5-0.4-6.7-0.4
				c-3,0-6.1,0-9.4-0.9c1.7-0.7,3.4-1.4,5-2.2c1.9-1,3.9-1.8,5.6-3.1c2-1.5,4.3-0.9,6.2-1.6c3.5-1.2,6.8-3.1,10.2-4.9
				c2.3-1.2,4.4-3.1,7.3-2.6c0.5,0.1,1.2,0.2,1.5-0.1c1.8-1.4,3.6-3,5.3-4.5c5.1,0,10.2,0,15.3,0C410,4.6,410,7.7,410,10.7z"/>
			<path d="M1.5,325.9c1.6,0.5,3.1,1,5.1,1.6c0.9-1.4,1.9-2.9,3.4-5.2c0.5,1.3,0.8,2.2,1.1,3.1c0.3-0.2,0.6-0.4,0.9-0.7
				c0,2.2,0,4.4,0,7.3c-1.4,0.6-3.1,1.3-5.6,2.4c-0.1,0.1-0.6,1.2-1,2.2c-1.4,0-2.6,0-3.9,0C1.5,333,1.5,329.5,1.5,325.9z"/>
			<path d="M410,23c-3.8,0.3-7.9-1.2-11,1.9c-1.7-1.6-2-2.6,0.2-3.4c3.7-1.4,7.2-3,10.8-4.6C410,18.9,410,20.9,410,23z"/>
			<path d="M1.5,385.6c1.3-0.3,2.6-0.7,4.2-1.1c0.3,0.3,1,1,1.7,1.8c0,1.7,0,3.4,0,5.5c-2.1,0-4,0-6,0
				C1.5,389.6,1.5,387.6,1.5,385.6z"/>
			<path d="M1.5,342.7c2.7-0.4,3.9,1.3,5.2,4c-2.1,0.2-3.7,0.4-5.2,0.6C1.5,345.8,1.5,344.2,1.5,342.7z"/>
			<path d="M410,454.4c-1.1-0.8-2.2-1.6-4-2.9c3-1.5,1.3-4.9,4-6.3C410,448.3,410,451.4,410,454.4z"/>
			<path d="M410,246.3c-1-0.6-1.9-1.3-3.2-2.1c1.1-1.4,2.1-2.7,3.2-4C410,242.2,410,244.3,410,246.3z"/>
			<path d="M410,68.8c-1.5-0.7-2.9-1.4-5.3-2.5c2.4-0.2,3.9-0.4,5.3-0.5C410,66.8,410,67.8,410,68.8z"/>
			<path d="M410,563c-2.1-1.5-2.1-3.1,0-4.6C410,560,410,561.5,410,563z"/>
			<path d="M410,58.1c-2.1-1.5-2.1-3.1,0-4.6C410,55.1,410,56.6,410,58.1z"/>
			<path d="M318.1,190.3c1.4-0.9,2.8-1.8,4.4-2.8c-1.3-0.8-2.7-1.8-4.5-3c0.6-4.1,0.2-8.8,2.1-12.1c2-3.5-0.5-7.6,2.8-10.4
				c0.3-5.1,1.5-9.9,2.9-14.8c1.3-4.6,1.9-9.4,3-14c0.8-3.5,0.3-7.3,4-10.7c1.3,0,3.2,0,5.4,0c0-3,0-5.5,0-8c0-2.3-0.4-4.7,0.3-6.8
				c0.7-2-0.2-4.1,1.3-5.8c-0.6-0.6-1.1-1.2-1.4-1.5c2.5-4.4,0.9-9,1.2-13.4c0.3-4.3,0.1-8.6,0.1-12.7c1.4-1.4,2.7-2.7,4-4
				c1.7,0,4,0.7,5.2-0.1c2.9-2.2,6.3-0.5,9.1-2.1c1.2-0.7,2.5-1.3,4-2.1c1.3,0.8,3,2.7,4.4,2.6c5.6-0.5,10.2,2.8,16.1,3.6
				c-0.3,2.9,1,6.1-0.9,9.1c-1.8,2.9,0.1,6.1-1.4,9.4c-1.6,3.6-1.1,8.1-2.1,12.1c-0.3,1.2,0.7,2.7,1.3,4.7c-0.2,0.4-0.8,1.4-1.5,2.6
				c0.3,0.5,0.6,1.2,1.1,2.2c-1.8,3.2-0.7,7.1-1.1,11.5c-1.8,0.8-3.9,1.7-6.9,3c1.4,0.8,2.4,1.1,3.1,1.8c0.6,0.6,0.7,1.6,1.5,3.6
				c-1.8-1.1-2.4-1.5-3.1-1.9c-0.6,1.8-1.1,3.6-1.8,5.6c0.2,0.2,0.7,0.7,1.4,1.5c-1,2.5-3.5,5.1-0.6,7.3c-0.4,2.8-0.9,5.1-1.1,7.5
				c-0.2,2.3,0.2,4.6-0.1,6.9c-0.3,2.3-1.2,4.6-2.1,7.4c-1.4,0.7-3.5,1.8-5.9,3c0.7,1.1,1.3,2.1,2.2,3.4c-0.4,0.7-0.8,1.5-1.4,2.6
				c0.2,0.3,0.6,0.8,1.1,1.4c-2.2,1.1-4.5,2.3-6.8,3.5c-0.5,1.9-1.1,3.7-1.8,6.2c1,1.5,2.4,3.6,3.8,5.8c-4.2,2.7-8.2-1.8-12.5-0.9
				c-1,1.5-2.1,3.1-3.1,4.7c-2.2-2-4.3-3.8-7-6.1c-1.3-0.1-3.8,0.3-5.7-0.5c-2.5-1.1-4.3,0.9-6.6,0.6c-1.9-0.2-4,1.2-6.1,1.8
				C318.3,191.2,318.2,190.8,318.1,190.3z M328.1,185c1.6-5.5,3.2-10.9,4.8-16.2c-0.5-1.6-1-3.3-2.1-6.7c-0.6,8.8-5.1,15.2-5,22.9
				C327,185,327.7,185,328.1,185z M345.7,173.3c-2.3,1.8-4.3,3.4-6.2,5c0.2,1.6,0.3,2.7,0.5,3.9c1.1-6,8.2-5.7,10.1-9.6
				c0-1.7,0-2.9,0-4c-1.5,0-2.7,0-4.1,0C345.8,170.4,345.8,172.1,345.7,173.3z M343.7,188.2c-0.2,0-0.3,0-0.5,0c0,0.5,0,1,0,1.5
				c0.2,0,0.3,0,0.5,0C343.7,189.2,343.7,188.7,343.7,188.2z M346.3,166.8c0.2,0,0.3,0,0.5,0c0-0.5,0-1,0-1.5c-0.2,0-0.3,0-0.5,0
				C346.3,165.8,346.3,166.3,346.3,166.8z"/>
			<path d="M128.6,283c3.5,0,6.5,0.1,9.5,0c2.1-0.1,4.2,0.1,6.5-1c1.9-0.9,5,0.7,7.8,1.2c1,1.1,2.2,2.4,2.7,3
				c1.3,4,2.4,7.1,3.5,10.4c-2.2,1.8-0.5,4.7-0.9,6.7c1.3,1.3,2.3,2.3,4.1,4.1c-3.2,0-5.1,0-6.9,0c-0.2-1-0.4-1.6-0.7-2.6
				c-9.3,0-18.6,0-28.9,0C129.6,297.9,128.3,290.8,128.6,283z"/>
			<path d="M131.7,181.4c-1.8-1.3-3.4-2.4-5.3-3.8c0.9-1.1,1.5-1.8,2.1-2.5c4.7,0.6,9.3,1.2,14.9,1.8c0.7-0.2,2.6-0.9,4.4-1
				c8.9-0.1,17.8-0.1,26.7,0c1.7,0,3.6-0.8,4.9,1.1c1.4-1.6,3.2-0.1,4.9-0.9c3.8-1.8,8.1-2.6,12.9-3.9c1-1.7-1.3-5.3,2.8-6.8
				c0.2,0.5,0.5,1.4,1.1,2.8c0.3-0.5,0,0-0.5,0.7c0.3,0.4,0.7,0.9,1.2,1.6c-1,1.1-2.1,2.4-3.1,3.5c0.8,1.6,1.4,2.8,2.1,4.2
				c-1.2,0.4-2.1,0.7-3.3,1.1c-0.1,1.1-0.2,2.3-0.3,3.7c-0.8,0.3-1.7,0.6-3.1,1.1c0,3.2,0,6.7,0,10.1c-0.4,0-0.7,0-1.1,0
				c0-3.4,0-6.8,0-10.1c-4.2-1.8-8.5,1-11.9-2c-3.2,3.2-7.3,0.3-11.5,1.9c-0.5,1.3-1.2,3-2,5.1c0.2,0-0.3,0.2-0.5,0.1
				c-2.6-2.1-5-1.6-7.5,0.6c-2.8-6.7-8.4-8.1-14.8-7.8c-3.7,0.2-7-2.6-10.8-1.5C132.8,180.9,131.8,181.4,131.7,181.4z"/>
			<path d="M211.1,179c-1.4-1.3-2.8-2.7-4.2-4c0.9-0.8,0.6-1.6-0.2-3.1c-0.8-1.3-0.2-3.5-0.2-5.3c0-1.5,0.2-3.1-0.1-4.6
				c-0.3-1.6-0.8-3.2-1.5-4.7c-0.7-1.3-1.8-2.4-3-4c0.5-3.3-0.4-7,1.3-11c1.4-3.3-1.2-6.8-2.6-10.2c0.3-0.4,0.8-0.9,1.8-2
				c-2.5,0-4.4,0-6.6,0c0.7-2.4-1.7-4.9,1.5-6.2c0.7,1,1.4,2,2,3c1.7,0,3.2,0,5,0c0.2-0.5,0.4-1.1,0.7-1.7c0.6-1.5,1.2-3,2-5
				c1.6,1,2.6,1.6,3.9,2.4c0.8-0.4,1.8-1,2.9-1.6c0,4.1,1.6,6.7,6.9,6c-3,6.3-3.9,12.4-3.7,18.8c0.1,2.2-1.6,4.4-2.5,6.7
				c0.3,0.6,0.8,1.6,1.9,3.5c-2.1-0.8-3.2-1.3-5-2c-0.1,1.8-0.3,3.3-0.3,4.7c0,1.5-0.2,3.1,0,4.6c0.3,1.6,1.1,3.1,1.4,4.7
				c0.3,1.5-0.1,3.1,0.1,4.6c0.2,1.4,0.6,2.7,1,4.3C213.1,177.4,212.1,178.2,211.1,179z M212.6,136.5c0,0.4,0,0.9,0.1,1.3
				c1-0.2,2-0.4,3-0.6c0-0.3-0.1-0.7-0.1-1c-1,0.1-1.9,0.2-2.7,1.6c-0.1-0.1-0.2-0.2-0.3-0.3c-0.4,0.4-0.8,0.7-1.3,1.1
				c0.2,0.2,0.3,0.3,0.5,0.5C212.1,138.7,212.5,138.3,212.6,136.5z M209.5,168.5c0.1-0.1,0.2-0.2,0.3-0.3c-0.4-0.4-0.7-0.8-1.1-1.3
				c-0.2,0.2-0.3,0.3-0.5,0.5c0.4,0.4,0.8,0.7,2.5,0.9c-0.2,0-0.5,0-0.7,0c0,2,0,4,0,6c0.2,0,0.5,0,0.7,0
				C210.7,172.3,210.7,170.3,209.5,168.5z M212.4,152.7c0-0.4-0.1-0.9-0.1-1.3c-1.8,0.1-3.7,0.2-5.5,0.4c0,0.3,0,0.6,0.1,0.9
				C208.7,152.7,210.6,152.7,212.4,152.7z M208.3,135.9c0.4,0,0.9-0.1,1.3-0.1c-0.2-0.9-0.4-1.7-0.6-2.6c-0.3,0-0.5,0.1-0.8,0.1
				C208.3,134.2,208.3,135,208.3,135.9z M209.3,159.4c-0.4,0.1-0.9,0.1-1.3,0.2c0.2,0.8,0.4,1.7,0.6,2.5c0.2,0,0.5-0.1,0.7-0.1
				C209.3,161.1,209.3,160.2,209.3,159.4z M210.6,142.3c-0.2,0-0.3,0-0.5,0c0,0.5,0,1,0,1.5c0.2,0,0.3,0,0.5,0
				C210.6,143.3,210.6,142.8,210.6,142.3z M208.6,139.2c0.2,0,0.3,0,0.5,0c0-0.5,0-1,0-1.5c-0.2,0-0.3,0-0.5,0
				C208.6,138.2,208.6,138.7,208.6,139.2z M213.7,140.8c-0.2,0-0.3,0-0.5,0c0,0.5,0,1,0,1.5c0.2,0,0.3,0,0.5,0
				C213.7,141.8,213.7,141.3,213.7,140.8z"/>
			<path d="M278.8,122.7c4.4,11.3,3.6,22.2-0.2,33.4c-2.8,0-5,0-7.2,0c-0.4,1.1-0.8,2-1.4,3.6c-0.5-1.3-0.7-2.1-1.2-3.5
				c-1.6,0-3.4,0-5.5,0c0-1.2-0.3-2.1,0-2.6c2.6-3.3,1.6-6.4-0.1-9.7c3-5.1-0.9-9.7-0.9-15.4c-0.1,0,0.7-0.6,1.5-1.3
				c0.8,0.5,1.8,1,2.9,1.7c0.9-2.3,1.6-4.3,2.4-6.3C272.3,122.7,275,122.7,278.8,122.7z"/>
			<path d="M281.5,217.4c0-3.6-0.6-6.1,0.2-8.1c0.7-1.9,1.3-3.5,1.4-5.5c0.1-2,1.6-4.5,0.8-5.9c-0.9-1.6,1.1-3.1-0.7-4.7
				c-0.8-0.7,0.7-3.9,1.2-5.9c-0.9-0.4-1.8-0.7-2.8-1.1c0-3,0-6,0-9.4c1.5-1.2,2.4-4,5.4-3.9c1.1,11.6,1,13.8-0.6,16.9
				c0.4,3.8,0.9,6.9,1.1,10.1c0.2,3,0,6.1,0,9.6c9.1,0,18.1,0,27.5,0c-2.5,3.5-0.9,7.1-1.7,10.4c-1.6,0.4-3.2,0.8-5.4,1.3
				c-5.2-1.5-11-1.4-18.2,0.4C287.8,220.6,284.6,219,281.5,217.4z M291.2,218.8c0.2,0,0.3,0,0.5,0c0-0.5,0-1,0-1.5
				c-0.2,0-0.3,0-0.5,0C291.2,217.8,291.2,218.3,291.2,218.8z"/>
			<path d="M345.9,350.3c-2.6,3.4-1.4,7.3-1.6,10.9c-0.2,3.8,0,7.6,0,11.3c-0.8,0.8-1.5,1.5-2.4,2.4c-0.9-3.7-1.8-7.3-3-12.1
				c-1.1,4.7-1.9,8.2-2.8,11.8c-1.1,0-2.3,0-4,0c0.7-6,1.4-12,2.1-18.2c0.6,0.5,1.1,0.9,1.6,1.3c2.8-3.2,2.8-3.2,0.9-7.1
				c3.1-5.3-0.8-9.9-0.8-15.4c0.6,0,2-0.2,3.4-0.2c1.5,0,3,0,4.4,0C345.4,340,342.6,345.3,345.9,350.3z"/>
			<path d="M263.4,120c-1.5,1.1-3.1,2.2-6,4.3c-3,0.6-7-7-11.7-2.3c-9.1-1.5-17.6-2-26.4,0.4c-0.2-0.5-0.6-1.2-0.6-1.8
				c0-1.4,0.1-2.8,0.3-6c0.9,2.6,1.2,3.5,1.6,4.5c2.6,0.4,5.4-1.8,8.2,0.1c0.2-0.7,0.5-1.6,0.9-2.7c5.7,0,11.5,0,17.5,0
				c0.6,0.6,1.5,1.5,2.4,2.4c1.9,0,3.8,0,6.7,0c-2-0.9-3-1.4-4.1-1.9c0.8-0.8,1.5-1.5,2.2-2.2C258.7,114.2,261.7,115.3,263.4,120z"
				/>
			<path d="M313.6,185.1c-0.3,0-0.5,0.1-0.8,0c-2.6-1-5.2-2.5-7.9-2.9c-2.9-0.5-6-0.1-8.2-0.1c-2.8-3.2-5.1-5.9-7.5-8.6
				c1.2-0.6,2.5-1.3,4-2.1c0.8,1.2,1.7,2.6,2.8,4.3c1.2,0,2.9,0,4.9,0c0.6-0.9,1.3-1.9,1.9-2.9c0.8,0.5,1.6,0.9,2.4,1.4
				c0.4-0.9,0.9-2,1.6-3.4c1.6,1.2,3.1,2.3,4.5,3.3c0.5-0.4,1-0.8,1.6-1.3C313.8,177.1,317.1,181,313.6,185.1z M298.6,179.3
				c0.1,0.4,0.1,0.9,0.2,1.3c0.8-0.2,1.7-0.4,2.5-0.6c0-0.2-0.1-0.5-0.1-0.7C300.3,179.3,299.4,179.3,298.6,179.3z"/>
			<path d="M167.7,131.8c-1.2-1.3-1.9-2-2.5-2.7c5.4-8.4,9.9-11.4,19.4-12.9c0.3,0.8,0.6,1.7,0.9,2.8c1.6,0,3.3,0,5.3,0
				c0.5-0.5,1.2-1.2,2-2c-0.5-0.5-0.9-1-1.9-2.2c2.8,0.2,5,0.4,7.7,0.6c0.5,2.2,1.1,5,1.9,8.5c-6.1-0.9-11.7-4.5-17.9-2.8
				C176.5,122.9,171.5,126.4,167.7,131.8z"/>
			<path d="M340,61.2c0.7-0.5,1.5-1,2.7-1.8c0.8,0.6,1.8,1.4,3.1,2.4c-1.5,0.8-2.7,1.5-4.5,2.5c-0.8-0.4-2.1-1.5-3.4-1.5
				c-4.4-0.3-8.8-0.7-13.2-1.4c-8.6-1.3-17.4-1.4-26.1-1.7c-3-0.1-5.5-1-9.6-3.5c6,1.2,10.3-1.2,14.6,1.8c1.2,0.8,3.5,0.3,5.3,0.1
				c9.1-1,17.9,1.7,26.9,1.6C337.3,59.7,338.6,60.7,340,61.2z"/>
			<path d="M402.4,224.9c-1.4,1.8-1.4,1.8-1.7,4.1c-0.8,0.3-1.6,0.5-2.9,1c0,1.3,0,2.7,0,4.1c-1,1.3-2,2.6-3.4,4.4c2.8,0,5,0,7.1,0
				c0.9,1.8,1.7,3.5,2.7,5.4c-0.7,0.4-1.2,0.7-1.8,1c-0.7-1.5-1.4-3-2.2-4.7c-0.5,1.1-1,2.1-1.7,3.5c-0.4-1.2-0.7-2-1.1-3.2
				c-1.1,0-2.3,0-2.5,0c-2.4-2.4-4.2-4.2-6.1-6.2c-0.3-1.1-0.8-2.7-1.2-4.3c2.9-0.4,5.2-3.3,8.7-3.7c1.6-0.2,2.9-2.7,4.5-4.4
				C403.1,221.6,402.3,223.5,402.4,224.9z"/>
			<path d="M303.8,171.3c-1.7-1.4-2.9-2.3-4.9-3.9c-0.4,2.2-0.6,3.5-0.8,4.9c-0.3,0-0.8,0.3-1,0.2c-1-0.8-1.7-2-2.8-2.5
				c-0.8-0.4-2-0.1-3-0.1c-0.5-1.1-1-2.1-1.8-3.8c-1,1.3-1.8,2.3-2.8,3.6c-0.7,0-1.9,0-3.4,0c0-1.7,0-3.3,0-4.8
				c1.4-1.2,2.9-2.5,4.5-4c1.5,0.5,3.5,1.1,5.4,1.8c0.5,1.7,1.1,3.5,1.8,5.7c3.7-1.5,6.8-2.7,10.7-4.3c0.2,0.4,0.8,1.4,1.7,3.1
				C306.5,168.3,304.9,170,303.8,171.3z"/>
			<path d="M307.3,50.2c-3.1,2.1-6.8,2-10.4,1.8c-3.1-0.2-5.1,2.2-8.4,3.6c-0.5-1.1-1-2.2-1.6-3.4c1.5-1.2,3.6-3.2,6.1-4.5
				c1.2-0.6,3.1,0.3,4.8,0.6c1.2-3.5,4.3-5.2,9.2-5.5c0.4,0.7,0.9,1.9,1.4,2.8C308,46.8,307.6,48.6,307.3,50.2z"/>
			<path d="M370.6,224.9c-1.2,0-2.7,0-4.4,0c-0.2-0.7-0.4-1.3-0.8-2.6c1.6-0.2,2.9-0.5,4.3-0.7c0.2-0.4,0.5-0.8,0.5-1.2
				c0.1-2.5-0.1-5.1,0.1-7.6c0.1-1.6,0.9-3.2,1.4-4.9c-2.1-4.4-1.6-6.5,2.8-9.3c0.1,2.5,0.1,4.7,0.3,6.8c0.2,2.1-0.4,4.2,1.2,6.4
				c1.6,2.3-0.2,5.2-1.3,7.5C373.9,221.2,372.4,222.6,370.6,224.9z"/>
			<path d="M345.6,219.8c0-0.7,0-1.4,0-2.4c-1.3,0-2.5,0-4.2,0c-0.1-1.6-0.2-3-0.2-4.1c4.6-3.2,4.7-3.2,8.9-3.5
				c0.1,0.7,0.2,1.4,0.4,2.2c-1,0.3-1.8,0.6-3.5,1.2c1.6,0.8,2.8,1.5,3.7,2c-1.5,2.8-2.4,4.6-3.3,6.4c0.6,1.4,1.1,2.8,1.9,4.8
				c-5.6-1.7-5.6-1.7-8.4-5.5C342.6,220.6,344.1,220.2,345.6,219.8z"/>
			<path d="M374.6,221.9c-0.1,6,1.4,12-0.8,17.6c-1.5-1.5-2.8-2.8-4.1-4.1c-0.5,0.3-0.9,0.6-1.4,0.9c0.7-3,1.3-6,2.1-9.4
				c0.6-0.2,1.4-0.5,2.6-0.8c0-1.3,0-2.8,0-4.2C373.6,221.9,374.1,221.9,374.6,221.9z"/>
			<path d="M372.7,252.3c-1.7,0-3.4,0-7,0c2.5-1.1,3.6-1.2,4.1-1.8c0.7-0.9,1-2.1,1.4-3.1c-0.4-1.7-0.7-3.4-1.2-5.5
				c1,0.3,1.5,0.3,1.6,0.6C373.1,245.3,374.1,248.4,372.7,252.3z"/>
			<path d="M367.2,272.3c1.3,0,1.8,0,2.3,0c2.6,4-1.8,7-1.7,10.6c-0.6-1.3-1.3-2.5-2-3.8C368.3,277.4,366.8,274.7,367.2,272.3z"/>
			<path d="M151.3,264.8c1-1.5,1.6-2.5,3-4.5c0,6,0,10.4,0,15.7c-1-2-1.6-3.1-2.4-4.5C153.8,269.2,153.5,266.6,151.3,264.8z"/>
			<path d="M319,191.4c-2.6,1.7-4.4,2.9-6.3,4.2c-0.4-0.4-1.1-1-1.9-1.8c1.1-1.9,2.2-3.8,3.7-6.2c0.5,1.5,0.8,2.4,1.2,3.6
				C316.4,191.2,317.3,191.2,319,191.4z"/>
			<path d="M272.5,59c2.3-1.8,3.7-2.8,5.1-3.9c1.6,1.5,3.2,2.6,4.6-0.2c0.9,0.9,1.6,1.6,2.7,2.7C281.1,58.1,277.7,58.5,272.5,59z"/>
			<path d="M390.7,128.7c-1.4,1.4-2,2-2.5,2.5c-1.9-0.6-3.8-1.2-5.8-1.8c0.9-0.9,1.6-1.6,2.7-2.7
				C386.7,127.2,388.4,127.8,390.7,128.7z"/>
			<path d="M364.9,258.3c0.9,1.8,1.4,3,2,4.2c-0.6,0.7-1.3,1.5-2,2.2c-0.8-0.8-1.5-1.5-2.1-2.1C363.5,261.3,364.1,260.1,364.9,258.3
				z"/>
			<path d="M404,54.7c0.8-1.5,1.4-2.7,2.4-4.7c0.3,2,0.5,3.4,0.7,5.3C405.6,55,404.7,54.8,404,54.7z"/>
			<path d="M402,51.9c-1.5-1.9-2.2-2.7-3.2-4c1.5-0.3,2.1-0.4,3.2-0.7C402,48.4,402,49.5,402,51.9z"/>
			<path d="M215.5,160.9c0,1.9,0,3.7,0,5.6c-0.3,0-0.6,0-0.9,0.1c-0.1-1.9-0.3-3.7-0.4-5.6C214.6,160.9,215,160.9,215.5,160.9z"/>
			<path d="M370.7,254c0.9,0,1.4,0,2.2,0c0.2,0.8,0.3,1.6,0.6,2.7c-1,0.2-1.7,0.3-2.8,0.6C370.7,256,370.7,255,370.7,254z"/>
			<path d="M167,229.2c0-1.9,0-3.7,0-5.6c0.3,0,0.6,0,1-0.1c0.1,1.9,0.3,3.7,0.4,5.6C167.9,229.2,167.5,229.2,167,229.2z"/>
			<path d="M369.1,332c0-2,0-4.1,0-6.1c0.3,0,0.5,0,0.8,0c0,2,0,4.1,0,6.1C369.6,332,369.4,332,369.1,332z"/>
			<path d="M211.1,179c0.5,0.6,1.4,1.1,1.5,1.8c0.2,1.4,0.1,2.9,0.1,4.3c-0.5-0.6-1.4-1.1-1.5-1.8C211,181.9,211.1,180.5,211.1,179z
				"/>
			<path d="M271.6,174.4c0.3,2.4,0.3,2.4-2.4,5.1c0.3-1.6,0.2-2.6,0.6-3.3C270.2,175.6,271,175,271.6,174.4z"/>
			<path d="M189.2,129.6c1.7-1.3,2.9-2.1,4.6-3.4C192.6,129.4,192.6,129.4,189.2,129.6z"/>
			<path d="M261.4,144.1c0,1.4,0,2.7,0,4.1c-0.3,0-0.5,0-0.8,0.1c-0.2-1.4-0.4-2.7-0.6-4.1C260.5,144.1,260.9,144.1,261.4,144.1z"/>
			<path d="M338.7,320.1c0.8,2.1,1.2,3.3,1.4,3.8C338.4,324.3,338.4,324.3,338.7,320.1z"/>
			<path d="M269.3,172.9c-2.2-0.4-2.1-1.8-0.8-2.8c0.8-0.7,2.3-0.5,2.4,1.3C270.3,171.9,269.8,172.4,269.3,172.9z"/>
			<path d="M344,327.2c-0.8,0-1.7,0-2.5,0c0-0.2-0.1-0.5-0.1-0.7c0.8-0.2,1.7-0.4,2.5-0.6C343.9,326.3,344,326.7,344,327.2z"/>
			<path d="M270.8,171.4c0.9,0,1.9,0,2.8,0c0,0.3,0.1,0.7,0.1,1c-1,0.2-1.9,0.3-2.9,0.5C270.8,172.4,270.8,171.9,270.8,171.4z"/>
			<path d="M405.7,27.8c0.8,0,1.7,0,2.5,0c0,0.3,0.1,0.5,0.1,0.8c-0.9,0.2-1.7,0.4-2.6,0.6C405.8,28.7,405.8,28.2,405.7,27.8z"/>
			<path d="M252.7,128.8c0.8,0,1.7,0,2.5,0c0,0.2,0.1,0.5,0.1,0.7c-0.8,0.2-1.7,0.4-2.5,0.6C252.8,129.7,252.7,129.2,252.7,128.8z"
				/>
			<path d="M151.7,258.3c0-0.8,0-1.7,0-2.5c0.2,0,0.5-0.1,0.7-0.1c0.2,0.8,0.4,1.7,0.6,2.5C152.6,258.2,152.2,258.3,151.7,258.3z"/>
			<path d="M382.1,148.4c0,1,0,2,0,3.1c-0.3,0-0.5,0-0.8,0c0-1,0-2,0-3.1C381.6,148.4,381.9,148.4,382.1,148.4z"/>
			<path d="M249,246.3c0.1,1,0.2,1.9,0.3,2.9c-0.3,0-0.7,0.1-1,0.1c-0.2-1-0.4-2-0.6-3C248.2,246.3,248.6,246.3,249,246.3z"/>
			<path d="M153.2,245.7c-0.5,1.9-0.8,2.8-1.1,3.7c-0.2-0.7-0.6-1.4-0.7-2.1C151.5,247,152.1,246.7,153.2,245.7z"/>
			<path d="M261.2,139.2c0,1,0,2,0,3.1c-0.3,0-0.5,0-0.8,0c0-1,0-2,0-3.1C260.7,139.2,261,139.2,261.2,139.2z"/>
			<path d="M167,243c0-0.8,0-1.7,0-2.5c0.2,0,0.5-0.1,0.7-0.1c0.2,0.8,0.4,1.7,0.6,2.5C167.9,242.9,167.5,243,167,243z"/>
			<path d="M364.1,267.8c2.3,0.1,1.3,1.9,1.5,3.1C363.4,270.7,364.4,268.9,364.1,267.8z"/>
			<path d="M124.2,277.2c0.8,0,1.7,0,2.5,0c0,0.2,0.1,0.5,0.1,0.7c-0.8,0.2-1.7,0.4-2.5,0.6C124.3,278.1,124.2,277.6,124.2,277.2z"
				/>
			<path d="M106.7,306c0,1,0,2,0,3.1c-0.3,0-0.5,0-0.8,0c0-1,0-2,0-3.1C106.2,306,106.5,306,106.7,306z"/>
			<path d="M313.8,185c0.4,0.4,0.8,0.7,1.3,1.1c-0.2,0.2-0.3,0.3-0.5,0.5c-0.4-0.4-0.7-0.8-1.1-1.3
				C313.6,185.2,313.7,185.1,313.8,185z"/>
			<path d="M247.7,246.5c-0.4-0.4-0.8-0.7-1.3-1.1c0.2-0.2,0.3-0.3,0.5-0.5c0.4,0.4,0.7,0.8,1.1,1.3
				C247.9,246.3,247.8,246.4,247.7,246.5z"/>
			<path d="M402.6,244.9c-0.4,0.4-0.7,0.8-1.1,1.3c-0.2-0.2-0.3-0.3-0.5-0.5c0.4-0.4,0.8-0.7,1.3-1.1
				C402.4,244.7,402.5,244.8,402.6,244.9z"/>
			<path d="M289.3,145.2c0.4,0.4,0.8,0.7,1.3,1.1c-0.2,0.2-0.3,0.3-0.5,0.5c-0.4-0.4-0.7-0.8-1.1-1.3
				C289.1,145.4,289.2,145.3,289.3,145.2z"/>
			<path d="M270.9,166.6c0.4,0.4,0.8,0.7,1.3,1.1c-0.2,0.2-0.3,0.3-0.5,0.5c-0.4-0.4-0.7-0.8-1.1-1.3
				C270.7,166.8,270.8,166.7,270.9,166.6z"/>
			<path d="M151.6,249.5c-0.4,0.4-0.7,0.8-1.1,1.3c-0.2-0.2-0.3-0.3-0.5-0.5c0.4-0.4,0.8-0.7,1.3-1.1
				C151.4,249.3,151.5,249.4,151.6,249.5z"/>
			<path d="M252.3,252.6c-0.4-0.4-0.8-0.7-1.3-1.1c0.2-0.2,0.3-0.3,0.5-0.5c0.4,0.4,0.7,0.8,1.1,1.3
				C252.5,252.4,252.4,252.5,252.3,252.6z"/>
			<path d="M256.9,252.6c-0.4-0.4-0.8-0.7-1.3-1.1c0.2-0.2,0.3-0.3,0.5-0.5c0.4,0.4,0.7,0.8,1.1,1.3
				C257.1,252.4,257,252.5,256.9,252.6z"/>
			<path d="M137.7,253c0.5,0,1,0,1.5,0c0,0.2,0,0.3,0,0.5c-0.5,0-1,0-1.5,0C137.7,253.3,137.7,253.1,137.7,253z"/>
			<path d="M257.2,252.3c0.4,0.4,0.8,0.7,1.3,1.1c-0.2,0.2-0.3,0.3-0.5,0.5c-0.4-0.4-0.7-0.8-1.1-1.3
				C257,252.5,257.1,252.4,257.2,252.3z"/>
			<path d="M212.8,185c0.4,0.4,0.8,0.7,1.3,1.1c-0.2,0.2-0.3,0.3-0.5,0.5c-0.4-0.4-0.7-0.8-1.1-1.3
				C212.6,185.2,212.7,185.1,212.8,185z"/>
			<path d="M270.7,166.9c-0.4-0.4-0.8-0.7-1.3-1.1c0.2-0.2,0.3-0.3,0.5-0.5c0.4,0.4,0.7,0.8,1.1,1.3
				C270.9,166.7,270.8,166.8,270.7,166.9z"/>
			<path d="M402.5,224.7c0.4,0.4,0.8,0.7,1.3,1.1c-0.2,0.2-0.3,0.3-0.5,0.5c-0.4-0.4-0.7-0.8-1.1-1.3
				C402.3,224.9,402.4,224.8,402.5,224.7z"/>
			<path d="M399.2,234c0.4-0.4,0.7-0.8,1.1-1.3c0.2,0.2,0.3,0.3,0.5,0.5c-0.4,0.4-0.8,0.7-1.3,1.1
				C399.4,234.2,399.3,234.1,399.2,234z"/>
			<path d="M243.3,234.6c0.5,0,1,0,1.5,0c0,0.2,0,0.3,0,0.5c-0.5,0-1,0-1.5,0C243.3,234.9,243.3,234.8,243.3,234.6z"/>
			<path d="M399.3,234.1c-0.3,0.4-0.7,0.8-1,1.3c-0.2-0.4-0.3-0.8-0.5-1.3C398.3,234.1,398.8,234.1,399.3,234.1z"/>
			<path d="M304,191.2c0,0.5,0,1,0,1.5c-0.2,0-0.3,0-0.5,0c0-0.5,0-1,0-1.5C303.6,191.2,303.8,191.2,304,191.2z"/>
			<path d="M244.7,241.9c-0.4-0.4-0.8-0.7-1.3-1.1c0.2-0.2,0.3-0.3,0.5-0.5c0.4,0.4,0.7,0.8,1.1,1.3
				C244.9,241.7,244.8,241.8,244.7,241.9z"/>
			<path d="M247.9,240.7c0.5,0,1,0,1.5,0c0,0.2,0,0.3,0,0.5c-0.5,0-1,0-1.5,0C247.9,241.1,247.9,240.9,247.9,240.7z"/>
			<path d="M289,145.5c-0.4-0.4-0.8-0.7-1.3-1.1c0.2-0.2,0.3-0.3,0.5-0.5c0.4,0.4,0.7,0.8,1.1,1.3
				C289.2,145.3,289.1,145.4,289,145.5z"/>
			<path d="M244.9,241.6c0.4,0.4,0.8,0.7,1.3,1.1c-0.2,0.2-0.3,0.3-0.5,0.5c-0.4-0.4-0.7-0.8-1.1-1.3
				C244.7,241.8,244.8,241.7,244.9,241.6z"/>
			<path d="M270.8,118.8c-0.5,0-1,0-1.5,0c0-0.2,0-0.3,0-0.5c0.5,0,1,0,1.5,0C270.8,118.5,270.8,118.7,270.8,118.8z"/>
			<path d="M365.7,270.8c0.5,0.5,1,1,1.5,1.5C366.7,271.8,366.2,271.3,365.7,270.8z"/>
			<path d="M270.8,174.4c-0.5-0.5-1-1-1.5-1.5c0.5,0,1,0,1.5,0C270.8,173.4,270.8,173.9,270.8,174.4z"/>
			<path d="M100.5,275.4c0,0.5,0,1,0,1.5c-0.2,0-0.3,0-0.5,0c0-0.5,0-1,0-1.5C100.1,275.4,100.3,275.4,100.5,275.4z"/>
			<path d="M112.7,275.4c0,0.5,0,1,0,1.5c-0.2,0-0.3,0-0.5,0c0-0.5,0-1,0-1.5C112.4,275.4,112.5,275.4,112.7,275.4z"/>
			<path d="M128.5,275.9c0.5,0,1,0,1.5,0c0,0.2,0,0.3,0,0.5c-0.5,0-1,0-1.5,0C128.5,276.2,128.5,276.1,128.5,275.9z"/>
			<path d="M95,281.4c0.4,0.4,0.8,0.7,1.3,1.1c-0.2,0.2-0.3,0.3-0.5,0.5c-0.4-0.4-0.7-0.8-1.1-1.3C94.8,281.6,94.9,281.5,95,281.4z"
				/>
			<path d="M392.7,128.5c0,0.5,0,1,0,1.5c-0.2,0-0.3,0-0.5,0c0-0.5,0-1,0-1.5C392.4,128.5,392.5,128.5,392.7,128.5z"/>
			<path d="M107.1,284.1c-0.5,0-1,0-1.5,0c0-0.2,0-0.3,0-0.5c0.5,0,1,0,1.5,0C107.1,283.7,107.1,283.9,107.1,284.1z"/>
			<path d="M255.5,133.6c0.5,0,1,0,1.5,0c0,0.2,0,0.3,0,0.5c-0.5,0-1,0-1.5,0C255.5,134,255.5,133.8,255.5,133.6z"/>
			<path d="M77,295.3c0-0.5,0-1,0-1.5c0.2,0,0.3,0,0.5,0c0,0.5,0,1,0,1.5C77.3,295.3,77.2,295.3,77,295.3z"/>
			<path d="M343.2,321.3c0-0.5,0-1,0-1.5c0.2,0,0.3,0,0.5,0c0,0.5,0,1,0,1.5C343.6,321.3,343.4,321.3,343.2,321.3z"/>
			<path d="M66.3,299.9c0-0.5,0-1,0-1.5c0.2,0,0.3,0,0.5,0c0,0.5,0,1,0,1.5C66.6,299.9,66.5,299.9,66.3,299.9z"/>
			<path d="M263.2,259.1c0.5,0,1,0,1.5,0c0,0.2,0,0.3,0,0.5c-0.5,0-1,0-1.5,0C263.2,259.4,263.2,259.2,263.2,259.1z"/>
			<path d="M167.3,261.6c0-0.5,0-1,0-1.5c0.2,0,0.3,0,0.5,0c0,0.5,0,1,0,1.5C167.6,261.6,167.4,261.6,167.3,261.6z"/>
			<path d="M282,172.9c0-0.5,0-1,0-1.5c0.2,0,0.3,0,0.5,0c0,0.5,0,1,0,1.5C282.4,172.9,282.2,172.9,282,172.9z"/>
			<path d="M261.5,116.1c0.4-0.4,0.7-0.8,1.1-1.3c0.2,0.2,0.3,0.3,0.5,0.5c-0.4,0.4-0.8,0.7-1.3,1.1
				C261.7,116.3,261.6,116.2,261.5,116.1z"/>
			<path d="M353.4,265.2c0.5,0,1,0,1.5,0c0,0.2,0,0.3,0,0.5c-0.5,0-1,0-1.5,0C353.4,265.5,353.4,265.4,353.4,265.2z"/>
			<path d="M302.9,172.9c-0.4-0.3-0.8-0.7-1.3-1c0.4-0.2,0.8-0.3,1.3-0.5C302.9,171.9,302.9,172.4,302.9,172.9z"/>
			<path d="M364,267.9c-0.4-0.4-0.8-0.7-1.3-1.1c0.2-0.2,0.3-0.3,0.5-0.5c0.4,0.4,0.7,0.8,1.1,1.3
				C364.2,267.7,364.1,267.8,364,267.9z"/>
			<path d="M8.1,285.8c-1.7-1.7-2.6-2.6-3.5-3.5c0-3.6,0-7.1,0-10.9c0.8-0.3,1.7-0.6,2.8-0.9c0.2-1.3,0.4-2.7,0.6-4.3
				c0.6,0.5,1.2,0.8,1.2,1c-1.1,16.6,2.4,33,1.6,49.6c0,0.8,0,1.5,0,2.4c-0.7,0.2-1.3,0.5-2.6,0.9c-0.2-2.6-0.4-5-0.6-7.4
				c-0.8-0.8-1.7-1.7-2.5-2.5C3.2,301.6,5.7,293.6,8.1,285.8z"/>
			<path d="M45.1,123.8c-0.7-0.7-1.4-1.4-2.5-2.5c0.7-7,1.5-14.4,2.3-21.8c0.8,0,1.5,0,2.7,0c-0.6,7.2,0.2,14.2,3.1,20.4
				C49.9,123.5,47.9,124.4,45.1,123.8z"/>
			<path d="M28,124.2c-0.7-1.4-1.4-2.6-2-3.9c-0.6-1.3-0.9-2.6-1.5-4.3c0.7-1.3,1.5-2.9,2.9-5.5c2,4.2,3.6,7.4,3.1,11.2
				C29.7,122.5,29,123.2,28,124.2z"/>
			<path d="M24.5,190.8c-0.9,2.5-1.5,4.5-2.4,6.9c-1.3-0.8-2.5-1.5-4-2.5c1.1-2.9,2.2-5.7,3.6-9.2C22.9,188.1,23.6,189.4,24.5,190.8
				z"/>
			<path d="M64,105.8c0,7,0,13.9,0,20.9c-1.7-3.4-1.2-6.9-1.3-10.4c-0.1-3.5,0-7,0-10.5C63.2,105.8,63.6,105.8,64,105.8z"/>
			<path d="M38.1,565.7c1.1,0.9,2.2,1.8,3.1,2.6c-0.8,3-1.5,5.7-2.3,8.9c-0.9-1.5-2.3-2.9-2.1-3.9c0.5-2.3,0.8-4.6-0.3-7
				C37.1,566.1,37.6,565.9,38.1,565.7z"/>
			<path d="M10.6,356.8c0.3,3-1.4,3.9-4.5,4.6c0.9-2,1.6-3.5,2.3-5.1C9.2,356.5,9.8,356.7,10.6,356.8z"/>
			<path d="M22.7,107.7c0.7-0.8,1.4-1.7,2.7-3.3c0.4,1.9,0.5,2.8,0.7,3.8c-1,0.2-1.7,0.3-2.4,0.5C23.4,108.4,23.1,108.1,22.7,107.7z
				"/>
			<path d="M44.8,78c0-2,0-4.1,0-6.1c0.3,0,0.5,0,0.8,0c0,2,0,4.1,0,6.1C45.3,78,45,78,44.8,78z"/>
			<path d="M24.2,515.9c0,0.8,0,1.7,0,2.5c-0.3,0-0.5,0.1-0.8,0.1c-0.2-0.9-0.4-1.7-0.6-2.6C23.3,515.9,23.8,515.9,24.2,515.9z"/>
			<path d="M13.4,143.8c0,1,0,2,0,3.1c-0.3,0-0.5,0-0.8,0c0-1,0-2,0-3.1C12.9,143.8,13.1,143.8,13.4,143.8z"/>
			<path d="M61.2,75.5c0.5,0,1,0,1.5,0c0,0.2,0,0.3,0,0.5c-0.5,0-1,0-1.5,0C61.2,75.8,61.2,75.7,61.2,75.5z"/>
			<path d="M42.3,563c0,0.5,0,1,0,1.5c-0.2,0-0.3,0-0.5,0c0-0.5,0-1,0-1.5C42,563,42.2,563,42.3,563z"/>
			<path d="M56.8,549.4c-0.4,0.4-0.7,0.8-1.1,1.3c-0.2-0.2-0.3-0.3-0.5-0.5c0.4-0.4,0.8-0.7,1.3-1.1
				C56.6,549.2,56.7,549.3,56.8,549.4z"/>
			<path d="M56.8,528c-0.4,0.4-0.7,0.8-1.1,1.3c-0.2-0.2-0.3-0.3-0.5-0.5c0.4-0.4,0.8-0.7,1.3-1.1C56.6,527.8,56.7,527.9,56.8,528z"
				/>
			<path d="M19.7,588.9c0.4-0.4,0.7-0.8,1.1-1.3c0.2,0.2,0.3,0.3,0.5,0.5c-0.4,0.4-0.8,0.7-1.3,1.1C19.9,589.1,19.8,589,19.7,588.9z
				"/>
			<path d="M10.2,335.1c0,0.5,0,1,0,1.5c-0.2,0-0.3,0-0.5,0c0-0.5,0-1,0-1.5C9.9,335.1,10,335.1,10.2,335.1z"/>
			<path d="M63,539.9c0-1.4,0-2.7,0-4.1c0.3,0,0.5-0.1,0.8-0.1c0.2,1.3,0.4,2.7,0.6,4C63.9,539.8,63.4,539.8,63,539.9z"/>
			<path d="M67.1,551.1c0,0.8,0,1.7,0,2.5c-0.3,0-0.5,0.1-0.8,0.1c-0.2-0.9-0.4-1.7-0.6-2.6C66.2,551.1,66.6,551.1,67.1,551.1z"/>
			<path d="M53,186.7c0,0.5,0,1,0,1.5c-0.2,0-0.3,0-0.5,0c0-0.5,0-1,0-1.5C52.7,186.7,52.9,186.7,53,186.7z"/>
			<path d="M173,214c0.4,0.4,0.8,0.7,1.3,1.1c-0.2,0.2-0.3,0.3-0.5,0.5c-0.4-0.4-0.7-0.8-1.1-1.3C172.8,214.2,172.9,214.1,173,214z"
				/>
		</g>
	</g>
</g>
</svg>
