<?xml version="1.0" encoding="utf-8"?>
<!-- Generator: Adobe Illustrator 21.1.0, SVG Export Plug-In . SVG Version: 6.00 Build 0)  -->
<svg version="1.1" id="Layer_1" xmlns="http://www.w3.org/2000/svg" xmlns:xlink="http://www.w3.org/1999/xlink" x="0px" y="0px"
	 viewBox="0 0 1274 667" style="enable-background:new 0 0 1274 667;" xml:space="preserve">
<g>
	<path d="M1051.6,668c-2.2-18.8-5.6-37.6-6.3-56.5c-0.5-14.2,2.1-28.5,3.7-42.7c2.3-20.3,5.2-40.6,7.3-61c2-19.7-2.5-38.7-7-57.7
		c-1.7-7.2-1.5-14.9-2.9-22.2c-1-5.2-2.2-11-5.2-15.2c-7-9.8-15.9-17.6-26.3-24.1c-10.4-6.5-19.7-14.8-29.3-22.5
		c-12.1-9.6-25.3-17-40.1-21.9c-6.7-2.2-12.7-6.4-19-9.5c-1.8-0.9-3.7-2.1-5.5-2.1c-13.8-0.1-26.3-5.5-39.2-9.2
		c-4.9-1.4-10-2.6-15-3.5c-1.6-0.3-4.5,0.2-4.9,1.1c-0.6,1.5-0.1,3.9,0.7,5.5c1.5,3,3.6,5.6,5.2,8.5c2.6,4.6,2.3,5.5-2.9,6.7
		c-14.6,3.3-29.2,6.4-43.8,9.7c-23.5,5.3-47,10.7-70.5,15.9c-16.2,3.6-32.5,6.8-48.7,10.5c-12.1,2.8-24.2,5.9-36.2,9
		c-10.1,2.7-20.1,5.8-30.2,8.5c-16.4,4.3-32.7,8.8-49.2,12.4c-23.9,5.1-47.9,9.5-71.9,14.2c-6.7,1.3-13.4,2.4-20,4.1
		c-5.7,1.4-7.1,5.2-3.4,9.6c10.6,12.5,23,23.4,39.2,27.1c59.4,13.8,119,26.8,178.5,40.2c12.8,2.9,25.5,6.4,38.2,9.4
		c3.5,0.8,7.2,1.2,10.9,1.5c6.2,0.4,11.3-1.3,16.1-6.1c9.8-10,20.5-19,30.7-28.7c6.1-5.8,6-7,0.8-13.8c-1.3-1.7-2.8-3.3-4.1-5.1
		c-3.3-4.6-3-6.3,2-8.9c7.1-3.7,14.2-7.4,21.4-10.8c8.7-4.2,17.3-8.8,26.3-12c21.3-7.5,37.8-21.5,53-37.4
		c5.9-6.2,10.9-13.4,16.1-20.3c2.7-3.6,1.6-6.8-2.4-8.5c-5.8-2.4-11.8-4.3-17.8-6.4c-3.6-1.2-7.4-2.1-10.8-3.6
		c-1.9-0.8-3.3-2.7-5-4.1c0.3-0.7,0.5-1.4,0.8-2.1c5.6,0.8,11.3,1,16.8,2.4c28.2,7.3,53.3,20.6,74.7,40.6
		c6.2,5.8,12.3,11.5,18.5,17.3c-0.2,0.5-0.3,1-0.5,1.5c-6.6,1-13.2,2-19.9,2.9c-23.7,3.3-47.6,5.8-71.1,10.3
		c-18.4,3.5-36.3,9.5-54.4,14.6c-7,2-7.8,5.4-2.8,10.5c2,2,4.9,3.4,7.6,4.2c5.1,1.4,6,3,3.4,7.6c-1.4,2.4-2.7,4.9-3.9,7.5
		c-1.8,3.9,0.1,6.2,3.7,7.1c3,0.8,6.2,1.1,9.4,1.2c11.5,0.1,23-0.2,34.5,0c1.6,0,4.4,1.6,4.6,2.9c0.6,3.1-1.8,4.1-4.7,4.3
		c-6.8,0.4-12.6,2.9-17.1,8.2c-3.7,4.4-2.9,7.3,2.7,8.5c4.8,1.1,9.8,1.8,14.8,2c25.5,1.4,50.6,5.4,75.4,11.3
		c15.1,3.6,21.9,14.7,23.7,28.9c1.3,10.5,0.9,21.3,1.2,31.9c0,0.3,0.1,0.7-0.1,1c-1.1,2.5-1.7,6.2-3.6,7c-1.7,0.7-5.5-1-7.1-2.8
		c-5.6-6.3-10.6-13.2-15.9-19.8c-2.9-3.6-5.5-7.5-9-10.5c-3.4-3-7.5-5.9-12.6-3.1c-5.8,3.2-11.1,7.2-10.6,14.4
		c0.5,7.7,1.7,15.6,3.7,23c4.9,17.9,10.8,35.6,15.6,53.6c1.7,6.3,1.6,13.1,1.7,19.7c0.1,5.4-3.6,8.1-8.6,8.6
		c-6.8,0.6-13.6,0.8-20.4,1.1c-37.4,1.6-68.8-12.7-97.9-34.9c-20.5-15.6-42.5-29.3-63.9-43.8c-1.2-0.8-3.5-1-5-0.5
		c-12.4,3.8-24.9,7.3-37,11.8c-11.8,4.3-23.5,7.6-36.1,8.9c-12.3,1.3-24.2,5.7-36.3,8.5c-34.2,7.8-68.4,15.3-102.7,23
		c-3.2,0.7-6.6,1.5-9.5,2.9c-6.7,3.4-13.5,2.8-20.4,1.1c-7.5-1.9-9.9-4.7-10.5-12.5c-2-26.5-9.1-52-16-77.5
		c-8.2-30.3-15.9-60.8-24.2-91c-2.3-8.3-5.6-16.3-9-24.1c-3.2-7.3-1.5-13,6.6-15.8c6.7-2.3,13.9-3.2,20.8-4.8
		c23.5-5.3,47-10.7,70.5-15.9c13.5-3,27-5.7,40.4-8.8c2.8-0.6,5.3-2.2,9-3.8c-2.7-1.9-4.2-3.2-5.8-4.1c-2.3-1.3-4.8-2.3-7.2-3.5
		c-3.3-1.8-7-3.7-5.9-8.2c1.1-4.5,4.2-7.6,9-8.3c7.7-1.3,13.9,1.9,19.7,6.6c9,7.4,19.3,8.3,30.2,5.3c1-0.3,2-0.5,2.7-1.2
		c8.6-7.8,18.6-5.9,28.5-4.4c9.2,1.4,18.2,0.9,27.2-1.6c5.7-1.5,10.3-4.4,13.8-9.3c9.2-13,17.5-26.4,19.3-42.7
		c1.8-16.3-2.6-30.3-15.3-41.3c-1.4-1.2-2.8-2.7-4.5-3.1c-6.6-1.5-10.7-5.3-13.3-11.5c-1.3-3-3.5-1.5-5.3,0
		c-1.9,1.5-3.2,3.2-0.7,5.2c2.2,1.8,4.4,3.5,7,5.6c-9.4,6.5-7.2,14.9-4.4,23c1.9,5.6,4.7,11,7.1,16.5c1.2,2.7,2.4,5.5,3.4,8.3
		c2.7,7.5,1.2,14.1-5.4,18.5c-6.9,4.5-14.3,8.3-21.6,12.2c-1.4,0.7-3.3,0.4-6,0.6c2.9-7.3,7.7-11.4,13.3-14.1
		c5.6-2.7,7.3-5.6,5.6-13.1c-1.3-5.6-3.8-11-6.1-16.3c-6.3-14.5-10.7-29.4-10.3-45.4c0.3-10.8,5.2-19.5,13.3-26.4
		c4.2-3.6,9-4.6,14.5-3.5c11.7,2.3,23.5,4.4,35.3,6.4c3,0.5,6.4,1.9,7.5-2.9c1.1-5-1.1-10.8-5.2-11.5c-8.7-1.5-17.5-2.4-26.1-4.1
		c-3.3-0.7-6.3-2.9-9.4-4.4c2.8-2.1,5.3-4.9,8.5-6.1c6-2.3,12.3-3.9,18.6-5.6c12.7-3.3,13.2-3.9,13.8-17.8c-1.8-0.1-3.5-0.2-5.3-0.3
		c-16.8-0.3-33.7-0.5-50.5-0.8c-7-0.1-13.6-1.5-19.3-5.9c-7.5-5.8-15.9-7.1-25.1-5.7c-2.5,0.4-5,0.4-7.5,0.5
		c-6.3,0.1-10.9-3.8-11-9.1c-0.1-4.2,6.3-9.4,11.2-9.8c2.8-0.2,6-0.8,8.3-2.3c7.6-5.3,14.7-11.3,22.3-16.5c3.8-2.6,8.1-4.5,12.5-6
		c3.1-1,7.4-1.2,8.5,2.8c0.6,2.2-0.7,5.8-2.3,7.8c-3.1,3.9-7.1,7-10.6,10.6c-3.3,3.3-3.1,5.6,1.1,7.1c3.3,1.2,7.5,2,10.6,0.9
		c16.5-6.2,32.9-12.5,48.8-20c6.2-3,11.3-8.5,18.5-9.9c0.2,0,0.3-0.2,0.4-0.3c18.1-9.1,21.4-16.3,15.5-35.6c-2.5-8-6-15.8-8.8-23
		c8,5.3,14.4,17.6,14.1,27.9c-0.1,4.3-0.3,8.7,0,13c0.2,2.6,0.3,5.8,1.9,7.6c6.5,7.7,3.2,15.5,0.7,23.1c-3.2,9.4-7.1,18.7-10.7,27.9
		c-0.7,1.8-1.6,3.8-2.9,5.2c-5.6,5.7-7.6,12.4-8.1,20.3c-0.6,10.4-2.2,20.8-3.6,31.2c-0.3,2.6-1.6,5-2.6,7.5
		c-1.1,2.8-2.9,5.3-3.6,8.2c-1,4.4-3.4,6.9-7.5,8.5c-9,3.5-13,12.8-9.8,22.1c0.9,2.7,1.4,5.8,3.1,7.8c6.5,7.8,3.8,16.8,3.8,25.5
		c0,4.1-0.7,8.3-1.2,12.4c-1.5,12.5,9.6,26.4,22.2,26.6c4.6,0.1,9.8-1.9,13.9-4.3c6-3.7,12.1-6.7,19-6.8c14.4-0.3,28-3.9,40.7-10.4
		c3.6-1.8,6.8-4.7,9.5-7.8c3-3.4,6-5.4,10.7-5.2c7.9,0.3,15.9-1.3,23.6,1.9c4.9,2,10.1,3.6,14.6,6.2c7.8,4.5,15.8,7.5,24.8,8.2
		c11.9,0.9,22.3,6.5,32.6,12c16.9,9,31.7,21.3,46.5,33.5c5.7,4.6,11.3,9.5,17.6,13.1c10.7,6.1,15.2,16.1,19.8,26.6
		c6,13.8,6.7,28.3,7.8,43c0.6,7.5,2.2,15.1,4.5,22.4c4.3,13.7,6.2,27.5,5.8,41.8c-0.3,9.3,0.2,18.6,0.1,28
		c-0.1,10.5-0.3,20.9-4.3,30.9c-1.4,3.4-1.5,7.5-1.6,11.3c-0.2,10.9,0,21.9-0.1,32.8c-0.1,5.6-1.1,11.3-0.5,16.8
		c1.1,10.1,3,20,4.6,30C1058.3,668,1055,668,1051.6,668z M964.6,525.4c0-0.7-0.1-1.3-0.1-2c-2.3-1.5-4.4-3.5-7-4.4
		c-5.4-2-11-4.1-16.7-5c-16.1-2.4-32.3-4-48.5-6.1c-17.9-2.3-33.6-9-45.5-23.4c-1.7-2-5.1-3.1-7.9-3.6c-10.8-2-19.7,1.6-27.5,9.5
		c-9,9.1-18.5,17.8-28.2,26.1c-13,11.2-27.4,16.3-44.1,8.4c-1-0.5-2.2-0.8-3.3-1.1c-13.1-3.5-26.6-6.1-39.3-10.9
		c-13.6-5.1-25-3.7-36.2,5.5c-28.8,23.8-57.9,47.1-86.7,70.9c-5.6,4.6-10.5,10.2-15.5,15.6c-2,2.2-3.7,5-0.4,7.8
		c5.4,4.5,17.1,4.4,22.7,0c1.2-1,2.9-1.6,4.5-1.9c15.3-3,30.7-5.8,46-9c50.4-10.5,100.9-20.9,151.2-31.7
		c39.6-8.5,79.2-17.5,118.7-26.6c18.1-4.2,36.1-8.9,54.1-13.7C958.3,529.1,961.4,527,964.6,525.4z M489.8,454.3
		c-0.9,1.6-2.4,3.1-2.4,4.6c0,2.9,0.6,6,1.5,8.8c13.5,43.9,27.1,87.9,40.8,131.8c0.7,2.3,2.1,4.6,3.5,6.5c4.4,5.8,7.2,5.2,11.2-0.8
		c3.8-5.7,8.2-11.2,13-16.1c5.8-5.7,12.4-10.6,18.6-15.9c11.2-9.5,22.3-19,33.5-28.5c12.6-10.6,25.6-20.8,37.8-31.8
		c6.7-6.1,5.4-10.1-3.4-12.2c-36-8.8-72-17.1-108-26c-14.6-3.6-29.2-8-41.2-18.1C493.7,455.9,492.2,455.5,489.8,454.3z M953.1,630.8
		c-0.3,0-0.5-0.1-0.8-0.1c-1-9.4-1.9-18.9-3.1-28.3c-0.3-2.6-1.2-5.2-2.2-7.6c-4.3-10.7-9.4-21.3-13-32.2
		c-2.3-6.7-6.3-10.1-12.8-10.7c-3.7-0.4-7.7,0-11.3,1c-12.5,3.4-24.9,7.3-38.1,7.6c-5.9,0.1-11.9,1.4-17.7,2.5
		c-5.2,1-10.3,2.6-15.4,3.9c-11.6,3-24.1,2.3-34.9,9.3c-3.2,2.1-6.7,3.1-7,7.4c-0.2,4.3,3,6.2,6.2,8.3c10.3,6.7,21.7,12.4,30.4,20.8
		c8.9,8.7,19.6,14,29.4,20.9c6,4.2,13.7,5.9,20.3,9.3c14.6,7.4,30.4,9.5,46.4,10.2c3.5,0.2,7-0.3,10.4,0.2c5.6,0.8,8.9-0.4,10.3-5.9
		C951.8,642,952.2,636.4,953.1,630.8z M923.9,405.5c0,0.2,0.1,0.4,0.1,0.6c8.2-1.4,16.4-2.6,24.5-4.1c3-0.5,5.1-2.2,5.1-5.7
		c-0.1-9.2-3-17.3-9.4-24c-4-4.1-8-4.8-11.8-0.8c-7.5,8.1-14.4,16.9-21,25.8c-2.5,3.4-0.7,6.5,3.5,7.2
		C917.9,405.2,920.9,405.3,923.9,405.5z M727.8,169.4c10.8-4.1,22.1-8.1,33-12.8c1.7-0.7,3.4-5,2.8-6.9c-1.1-3.6-4.1-0.7-6.3-0.2
		c-1,0.2-1.8,0.8-2.7,1.2c-8.4,3.4-16.9,6.8-25.3,10.3c-1.6,0.7-3.2,1.8-4.4,3.1c-0.6,0.7-1,2.2-0.6,3.1
		C724.6,167.9,726,168.2,727.8,169.4z M784.4,133.5c0-3.9-2.6-5.8-5.3-3.6c-5,4-9.6,8.6-14,13.3c-0.8,0.8-0.5,3.8,0.3,4.7
		c0.8,0.8,3.7,1,4.6,0.2c4.6-3.8,8.8-7.9,13.1-12C784,135.4,784.2,134.1,784.4,133.5z"/>
	<path d="M117.9,668c6.9-12.1,13.8-24.2,21-36.1c1.4-2.4,4.1-5,6.6-5.6c19.7-4.7,36.2-15.8,53.7-25c6.4-3.3,13.8-4.7,20.6-7.3
		c3.5-1.3,7.4-2.7,10-5.2c7.5-7.2,15.9-12.1,25.5-16.1c8.3-3.4,16.9-4.6,25.3-7c10.2-3,18.3-9.7,26.1-16.9
		c6.8-6.2,14.1-12.6,22.4-16.3c6.3-2.9,13.5-4.2,19.5-8.3c2.3-1.6,5.2-3,6.5-5.3c3.7-6.4,9.9-8,16.3-9.5c4.2-0.9,8.5-1.6,12.7-2.6
		c2.1-0.5,4.5-1,6-2.3c8.1-6.9,15.4-14.3,15.7-26c0-1.6,1-3.4,2.1-4.7c2.2-2.4,4.9-4.5,7.3-6.8c8.3-7.4,9.7-19.6,2.2-27.7
		c-4.1-4.3-9.8-7.1-14.8-10.5c-1.1-0.7-2.8-0.8-3.6-1.7c-5.3-6.3-12.7-7.8-20.1-10c-6.4-1.9-12.2-5.9-18.3-8.9
		c-6.5-3.2-13.5-5.9-19.6-9.8c-12.9-8.2-25.5-16.8-37.9-25.8c-3-2.2-4.5-6.5-7-9.6c-5.4-6.9-12.1-13.1-16-20.8
		c-4.1-7.8-6.6-16.8-7.8-25.5c-2.3-16.1-3.4-32.4-9.7-47.7c-3.4-8.3-6.6-16.7-9.5-25.2c-2.8-8.2-3-16.1,2.4-23.8
		c5-7,9.2-14.6,13.5-22.1c3.9-6.8,10.5-10,17.4-11.7c12.6-3,17.2-12.9,21.8-22.9c4.9-10.7,8.7-21.9,13.3-32.7
		c6.2-14.5,12.4-29,19.1-43.3c7.1-15,14.9-29.7,22-44.7c2.8-6,6.7-9.1,12.8-11.7c7.2-3,13.3-8.8,20-13.1c4.7-3,11.2-4.5,14.4-8.6
		c8.2-10.6,19-7.3,29.6-6.6c-2.4,0.9-4.7,2.3-7.1,2.6c-10.2,1.5-18.3,7-26,13c-9.1,7.1-18.2,14.1-26.9,21.6
		c-3.7,3.2-6.9,7.2-9.8,11.3c-14.2,20.3-24.1,42.8-33.7,65.5c-6.9,16.4-6.9,33.8-10.7,50.5c-2.5,11.1-5,22.7-10.1,32.7
		c-5,9.9-13,18.4-20.1,27.1c-2.1,2.5-5.6,3.9-8.7,6c0.1-0.8-0.1-2.2,0.4-3.2c3-6.3,6.1-12.5,9.2-18.7c1-2.1,2.9-4.1,2.9-6.2
		c0-2.6-1-5.5-2.5-7.5c-0.5-0.7-4.3,0.4-6.1,1.5c-7.3,4.6-14.5,9.4-21.4,14.6c-1.9,1.4-3.7,4.4-3.6,6.5c0.2,6.9,0.1,14.3,2.4,20.7
		c6.7,19.1,10.6,38.9,13.4,58.7c5.6,38.3,28.9,63.9,58.4,85.8c19.6,14.5,41.7,24.1,64.2,33c2.6,1,4.4,1.1,5.7-1.6
		c2.7-5.6,6.3-11,8-16.9c2.6-9.2-1.7-15.1-11.4-15.6c-6.7-0.3-10.9-2.8-15.1-7.9c-3.6-4.4-8.8-7.5-13.5-10.9
		c-8-5.9-8.4-9.9-1.4-16.9c2.3-2.4,4.5-4.9,7.6-8.3c-10.5-9.6-20.9-20.2-32.6-29c-4.2-3.1-11.9-1.8-18-2.3c-6.3-0.5-7.7-2.1-6.8-8.1
		c0.7-4.2,4.2-4.4,7.2-5c8-1.5,16.1-2.5,24.1-4.1c13.1-2.6,25.8-6.8,37.3-13.6c3.8-2.2,7.2-5.4,10.1-8.7c2.4-2.9,0.9-5.4-2.8-4.6
		c-4.1,0.9-8,2.9-11.8,4.7c-5.8,2.7-11.5,5.8-17.3,8.4c-1.5,0.7-3.9,0.7-5.3-0.1c-2.6-1.5-5.8-3.4-6.6-5.8c-0.5-1.5,2.5-5.1,4.8-6.4
		c4.4-2.6,9.3-4.3,14-6.4c17.8-7.8,32.1-20.7,47-32.7c3.2-2.6,5.3-6.7,7.8-10.2c0.2-0.3,0.4-0.6,0.5-0.9c3.2-5.4,9.1-8.8,12.4-7.1
		c3.7,1.8,7,11.2,4.9,15.6c-1.9,4.1-4.8,7.9-7.6,11.6c-2.8,3.9-5.4,7.2-0.1,11.4c1.3,1,1.7,5.1,0.7,6.7c-3.8,6.2-7.6,12.6-12.6,17.7
		c-10.3,10.4-22,18.9-36.5,22.6c-2.2,0.6-4.6,0.6-6.9,1c-6.5,0.9-9.8,4.9-8.9,11.4c1.2,8.1,4.3,15.4,9.6,21.7c5,6,10.5,6.6,16.6,1.7
		c3.6-2.9,7-6.2,10.4-9.4c2.5-2.3,5-2.3,7.5,0c2.4,2.3,4.8,4.6,7.2,6.9c3.7,3.5,7.6,6.3,13.1,6.5c2.1,0.1,4.2,1.1,6.1,2.1
		c5.8,3.2,7.5,8,2.9,12.6c-7.2,7.2-9.6,14.6-6.6,24.5c1.8,5.7-0.9,10.8-6.5,13.8c-2.9,1.6-3.5,4-2.6,7.2c1.9,7.3,4.6,13.8,12.2,17.3
		c2.4,1.1,4.3,3.7,5.8,6c0.9,1.4,0.6,3.7,0.8,5.5c-2-0.3-4.1-0.3-5.9-1c-1.5-0.6-2.7-1.9-4-3c-1.2-0.9-2.2-2.3-3.5-2.7
		c-2.5-0.8-5.2-1-7.8-1.4c0.1,2.4-0.5,5.2,0.4,7.3c3.2,7.5,2.9,14.9,0.6,22.4c-4.7,15.3-12.7,28.9-21.1,42.3
		c-5.6,8.9-11.8,17.4-17,26.5c-5.4,9.4-13.2,13.7-23.7,13.8c-8.8,0.1-16.6,2.3-23.4,8.4c-4.1,3.6-10.1,5.1-11.8,11.3
		c-0.2,0.9-1.7,1.5-2.7,2c-8.1,4.1-16.2,8.2-24.3,12.3c-5.5,2.8-10.8,5.8-16.3,8.7c-0.4,0.2-1,0.3-1.3,0.6
		c-10.2,11.5-24.8,13.5-38.5,17.6c-2,0.6-4.2,1.2-5.9,2.3c-6,3.8-12,7.7-17.8,11.7c-8.2,5.6-16,11.7-24.4,17c-3.2,2-7.5,2.4-11.3,3
		c-4.1,0.6-8.3,0.3-12.5,0.6c-5.5,0.4-9.9,2.9-14.3,6.4c-7.3,5.8-14.3,12.2-23.1,15.9c-8.5,3.6-10.1,12.3-13.8,19.5
		c-0.6,1.2-1,2.5-1.4,3.7C127.2,668,122.6,668,117.9,668z M410,374c5.9-5.5,6.7-16.4,3.2-23.1c-1.7-3.2-3.6-4.8-7.5-3.2
		c-2.4,1-5.2,0.7-7.8,1.2c-3,0.6-5.9,1.5-8.9,2.3c0,0.8,0.1,1.6,0.1,2.4c3.4,0.8,6.8,1.7,10.3,2.2c7.4,1.1,8,1.6,8.7,8.8
		C408.4,367.4,409.2,370.2,410,374z"/>
	<path d="M600.6,250.3c-3.6-2.2-7.3-3.8-10-6.3c-2.9-2.7-4.6-6.6-7.3-9.4c-2.2-2.3-4.9-4.7-7.8-5.6c-6.4-2-8.3-0.6-9.3,6
		c-0.6,4.4-3,6-7.2,6.6c-16.9,2.5-28.9-5.1-38.3-18.1c-4.7-6.6-3.9-12.5,2.9-16.6c12.6-7.7,26-11.8,41.2-8.4
		c14.7,3.3,29.8,5.3,44.6,8.2c4.2,0.8,8.4,2.3,12.2,4.2c5.6,2.8,7.8,7.4,4.8,12.8c-4.1,7.5-9.1,14.6-14.6,21.1
		C609.5,247.6,604.9,248.3,600.6,250.3z"/>
	<path d="M425.3,625.8c-0.1,5.1-0.3,10.2-5.8,12.8c-6.1,2.8-11.1,0.3-15.3-3.9c-3-2.9-5.6-6.2-8.2-9.4c-2.9-3.6-6.4-4.8-11-3.9
		c-7.9,1.6-11.3,0.1-14.4-7.1c-7-16.6-12.5-33.7-12.4-52c0-9.2,2.8-17.7,7.5-25.6c4.2-7.1,11.9-7,15.8,0.3c2.3,4.4,3.8,9.2,5.4,13.9
		c7.3,21.5,17.7,41.1,32.7,58.3c3.7,4.2,4.8,10.6,7.1,15.9C426.2,625.4,425.7,625.6,425.3,625.8z"/>
	<path d="M632.5,185.3c-0.1,6.5-5.8,11.1-11.1,9.9c-11-2.5-21.9-5.4-32.9-8c-15.4-3.7-31.1-7.1-46.8-3.3c-8.6,2.1-16.8,6.2-25.1,9.5
		c-4.2,1.7-8.5,3.3-11.5-1.5c-1.1-1.7-1.7-5.2-0.7-6.5c2.7-3.4,5.9-6.9,9.7-9c15.6-8.7,33-12,50.1-16c9.9-2.3,19-1.5,28,2.7
		c11.6,5.4,23.3,10.5,34.7,16.2C629.5,180.7,631.2,183.9,632.5,185.3z"/>
	<path d="M666.5,410.4c2.8,0.2,5.7,0.3,8.5,0.5c4.3,0.4,8-0.2,11.5-3.4c1.9-1.7,5.5-2.1,8.3-1.9c6.5,0.4,12.9,1.4,18.3-3.8
		c1.5-1.4,4.4-1.9,6.6-1.8c7.3,0.3,13.7-1.7,19.8-5.8c3.2-2.1,6.9-2.8,10.1,0.3c3,2.9,5.5,6.3,3.6,10.6c-1.8,4-6,4.7-9.8,4.4
		c-3.1-0.2-6.2-1.2-9.1-2.5c-3.8-1.7-7-1.7-10,1.4c-3.3,3.4-7.2,4.7-12.2,4.5c-3.3-0.2-6.7,1.6-10.1,2.3c-5.1,1-10.4,1.7-15.5,2.7
		c-4.1,0.9-8.6,1.3-12.1,3.4c-5.9,3.5-11.9,5.3-18.8,5.7c-14.3,0.9-28.4,3.5-41.9,8.6c-5.6,2.1-9,0.4-9.6-4.6
		c-0.5-3.8,1.1-5.9,4.8-6c5.9-0.2,11.6-0.5,16.6-4.2c1.1-0.8,2.9-0.8,4.4-0.8c9.5,0.4,18-2.5,26.2-6.9c3.1-1.7,6.8-2.4,10.2-3.5
		C666.4,409.9,666.5,410.1,666.5,410.4z"/>
	<path d="M882.8,446.5c5.9-5.9,12.2-8.2,18.8-8.6c20.1-1.1,40.3-1.8,60.4-2.3c6.1-0.2,12.3,0.7,18.4,1.2c2,0.2,4.4,0.3,5.7,1.5
		c1.6,1.5,2.6,4,3.2,6.3c0.1,0.5-2.5,2.2-4,2.5c-4.8,0.8-9.6,1.6-14.4,1.6c-26.3-0.1-52.7-0.5-79-0.8
		C889.3,447.8,886.7,447.1,882.8,446.5z"/>
	<path d="M774.1,65.8c-7.9-9.1-17.8-15.3-28.4-20.7c-6.4-3.2-12.4-7.1-18.5-10.7c-5.3-3.1-10.6-6.3-16-9.1
		C699.9,19.6,691,11,681.5,1.9c9-1.2,16.1-0.6,22.5,6c4.6,4.8,11.1,7.7,16.8,11.3c4.5,2.9,8.9,5.8,13.5,8.5
		c6.9,4.2,13.9,8.4,21,12.3C765.5,45.9,770.2,55.5,774.1,65.8z"/>
	<path d="M916.1,474.5c1.4-0.2,2.8-0.6,4.2-0.6c15.6,0,31.3-0.1,46.9,0.1c2.6,0,5.4,0.5,7.7,1.7c1.8,1,3.3,3.1,4.1,5.1
		c0.2,0.6-2.6,3.2-4.2,3.4c-6,0.6-12.2,1.3-18.1,0.7c-11.2-1.2-22.3-3.1-33.4-5.1c-2.6-0.5-5-2.4-7.5-3.7
		C915.8,475.5,915.9,475,916.1,474.5z"/>
	<path d="M660.9,326c1.5,0.4,3.9,0.4,5.5,1.5c2.2,1.7,4.8,4,5.4,6.4c0.4,1.6-2.1,4.8-4.1,5.8c-4.1,2.2-8.7,4.2-13.2,5
		c-2.3,0.4-6.3-1.4-7.4-3.4c-1.2-2.2-1-6.2,0.2-8.6C649.8,327.7,654.9,326.4,660.9,326z"/>
	<path d="M769,399.9c-1,0-2.1,0.2-3,0c-2.2-0.7-4.3-1.6-6.5-2.4c1.1-2.4,1.4-5.8,3.3-7.2c6.8-5.3,14.7-6.5,22.9-3.7
		c1.8,0.6,3.6,2.4,4.7,4.1c1.9,2.8,1.5,5.5-2.4,6.3c-6.3,1.3-12.6,2.4-18.9,3.6C769.1,400.4,769,400.1,769,399.9z"/>
	<path d="M446.1,191.9c-5.5,0-10.8-4.8-10.9-9.6c0-3.9,5.5-8.5,10.3-8.5c3.4,0,10.5,7.3,10.5,10.9C456,188.5,451.3,192,446.1,191.9z
		"/>
	<path d="M807.4,379c2.5,0.5,5.5,0.8,8.2,1.9c1.5,0.6,3.3,2.6,3.5,4.2c0.2,1.3-1.4,3.5-2.8,4.2c-5.4,2.7-11.2,3.4-16.8,0.7
		c-1.8-0.9-3.8-3.4-3.8-5.1c0.1-1.6,2.5-3.6,4.3-4.5C802,379.4,804.6,379.4,807.4,379z"/>
</g>
</svg>
