<svg xmlns="http://www.w3.org/2000/svg" viewBox="0 0 294.1 400" enable-background="new 0 0 294.1 400"><path d="M141.2.2c1.5.4 3 1.1 4.6 1.2 3 .2 6.1.1 9.1 0 1.1 0 2.1-.5 3.2-.6.9-.1 1.8.2 2.6.2l4.5-.4c.8 0 1.6.2 2.5.2 2.4.2 4.9.6 7.3.7h39l14.1.1 10.4-.1c7.8 0 15.6-.1 23.5 0 1.4 0 2.7 1 4.1 1.2 1 .1 2.1-.7 3.1-.8 1.7-.2 3.5-.3 5.2-.3 1.9 0 3.8.1 5.8.2.4 0 .8.4 1.2.5.7.1 1.5.1 2.2.1 1.2-.1 2.4-.4 3.6-.4 1.3.1 2.8.2 4 .8 1.3.7 2.1 1.8 2.1 3.7-.1 7.5 0 14.9 0 22.4 0 3-.1 6.1.1 9.1.2 4 .9 8 1 12 .2 8.5.1 17 0 25.5l-.6 6.6c.1 6 1.1 12 .3 17.9-1.6 11.8-.4 23.5-.8 35.2l-.2 19.4c0 1.6-1.1 3.1-1.1 4.6 0 1.7 1.1 3.4 1 5-.1 2.2-.8 4.4-1.1 6.6-.1.8.6 1.6.7 2.4.1.6-.1 1.2-.1 1.8 0 1.6 0 3.1.1 4.7l.2.6-.9 13.6c0 .7-.2 1.4-.9 2.3-.3-.7-.9-1.5-.9-2.2-.1-6.9 0-13.7 0-20.6 0-1.1.4-2.2.7-3.2.1-.4.2-.9.2-1.3-.3-3.8-.7-7.6-.8-11.3-.1-4.7-.9-9.7.3-14.2.8-3-.9-5.2-.2-7.7.2-.9 1-1.7.9-2.6-.1-1.6-.8-3.2-.9-4.9-.1-2.7-.4-5.5.1-8.2 2.2-12.8.5-25.7 1-38.5.1-2.3-.3-4.6-.3-7 0-1.6.5-3.2.3-4.8-.2-2.2-.8-4.4-1.1-6.6-.1-.5-.1-1.1.1-1.5 2.2-4 1.2-8.4.7-12.4-.3-2.7.9-5 .3-7.6-.4-1.6-1.1-3.1-1.2-4.7-.2-2.3 0-4.6.2-6.8.1-1.2 1-2.5.9-3.7-.2-4-.7-8-1.2-11.9-.3-2.7-.9-5.3-1.4-8 0-.3-.4-.6-.6-.7-2.9-.5-5.8-1-8.7-1.3-.6-.1-1.2.5-1.8.8-.3.1-.5.4-.8.4l-5.7-1c-1.2-.2-2.5-.2-3.7-.2-2.7 0-5.4-.3-8 .2-.8.2-1.6 2.6-1.6 3.9.1 7.2-.2 14.4.8 21.5 1.6 12 .8 24 1.1 36 .1 4.6-.8 9.2-1.1 13.7-.1 1.4-.1 2.8 0 4.2.3 4.5.7 9 1.1 13.5.2 2.6.7 5.2.6 7.8 0 4.5-.5 8.9-.6 13.4-.1 6.8-.9 13.7.2 20.3.6 3.8.8 7.5 1 11.3.1 1.2-.2 2.5 0 3.7.3 1.8 1 3.6 1.5 5.4 0 .1.2.3.4.3 4.2.7 6.7 4 9.5 6.6 1.8 1.7 3.1 1.3 5.2.2 1.3-.7 3.5-.3 5.1.1 1.1.3 1.9 1.7 2.8 2.6.2.2.2.4.3.7-.2 0-.5 0-.7-.1-2.2-.9-4.2-1.3-6.3.4-1.3 1.1-3.1 1.1-4.4.1-2.2-1.8-4.1-3.8-6.2-5.7-.2-.2-.4-.3-.7-.4-1.5-.7-3-1.8-4.7-2.1-2.7-.5-2.4-3.7-4.6-4.5-.2-.1-.2-.6-.2-.9 0-4.6.1-9.3-.1-13.9 0-1.2-.8-2.3-.9-3.5-.2-1.6-.2-3.3-.2-5l-.1-12.9c0-.8.4-1.7.6-2.5.1-.5.3-1 .3-1.5-.3-4.4-.7-8.7-.9-13.1 0-1 1-2.1 1-3.2-.1-1.5-.8-3-.9-4.6-.1-.8.6-1.7.6-2.5.1-1.5-.1-3-.2-4.4 0-.4-.5-.8-.5-1.3 0-5.8 0-11.7-.1-17.5 0-1.4-1-2.8-1.1-4.3-.2-6.4-.3-12.8-.3-19.2 0-1 .2-2 .2-3.1 0-.6-.4-1.3-.8-1.8-.1-.2-1-.1-1.2.1-.4.6-.6 1.3-.7 2-.2 1-.3 2-.4 3.1-.2 1.8-.4 3.6-.4 5.4 0 7.2-.1 14.4.1 21.6.1 2.4.9 4.7 1.1 7 .1.8-.5 1.6-.6 2.4-.2 1.5-.5 3-.4 4.5l1 4.5c.1 6.7 0 13.5 0 20.3l.5 1.9-.1 5 .2 3.5c0 .7.1 1.4.1 2 0 1 .1 2 .1 3.1 0 .7-.2 1.4-.3 2.2-.1.8-.3 1.7-.1 2.4.4 1.5 1.5 2.7-.1 4.3-.6.6-.2 2.2-.3 3.4 0 2.7-.2 5.5 0 8.2.1 2 .9 3.9 1.1 5.9.1.8-.3 2-.9 2.3-.5.3-1.6-.4-2.4-.6-2.2-.6-4.3-1.3-6.5-1.8-.5-.1-1 .6-1.6.8-.5.2-1 .3-1.5.2l-2.7-.9c-3.1-.8-6.3-1.4-9.3-2.3-2.6-.8-5.2-1.8-7.1-4-1.6-1.9-3.7-2.8-6.3-2.8-1 0-2-1-2.9-1.6-.2-.1-.3-.7-.2-.9.1-.3.5-.5.8-.5.7 0 1.4 0 2 .2 1.9.7 3.7 1.3 5.5 2.1 3.4 1.6 6.7 3.5 10.2 5 1.8.8 3.8 1 5.6 1.6 1.5.4 3 1.1 4.5 1.4 2.7.5 3.4-.2 3.4-2.8 0-11 0-22-.1-33 0-1-.5-1.9-.8-2.9-.2-.6-.5-1.3-.3-1.7 1.5-3.1.4-6.2.2-9.3-.2-2.9.3-5.7.3-8.6 0-2.6-.4-5.2-.5-7.8-.1-2.2-.1-4.5 0-6.7l.8-4.5c.2-2.1.7-4.3.2-6.3-2.1-7.2-.6-14.5-1.1-21.8l-.8-5.6-.5-14.3c0-1-.6-2-.8-3-.2-.9-.5-1.8-.4-2.6.3-2.7 1.1-5.3 1.1-8 .1-2.3-.6-4.6-.9-6.8 0-.2-.1-.3-.2-.5-.2-1-.3-2.8-.7-2.9-1.5-.3-3.7-.7-4.5.1-1.6 1.7-3.4.3-5 1-.2.1-.6.1-.8-.1-2.2-2-4.9-1-7.3-1.1-2.8-.1-5.6-.1-8.4-.1-.4 0-.9.3-1.3.5-.5.2-.9.4-1.4.4-4.6-.2-9.3-.4-13.9-.5-2-.1-4-.2-6-.1-1 0-2 .3-3.1.5-.5.1-.9.4-1.4.4-2.4-.3-2.8.9-2.8 3 .1 32.7.1 65.4 0 98.1 0 1.2-.6 2.5-.9 3.7-.1.4-.2.9-.1 1.4.3 1.9 1 3.7 1 5.6.1 8.4.1 16.8 0 25.2 0 .5-.5 1-.8 1.5l-.9-1.4c-.3-.5-.7-1.1-.8-1.7-.1-.9.1-1.9.1-2.8 0-1.2.1-2.4 0-3.6l-.6-4.8c-.1-6-.1-11.9-.1-17.9 0-1.9-1-2.4-2.5-1.8-.5.2-.8 1.3-1 2-.4 1.7-.8 3.4-1.1 5.1-.1.5-.3 1.2-.1 1.5 2.2 3.1.9 6.5 1.2 9.8.3 3.6 0 7.2 0 10.8v8.6c0 2.4-2.1 1.9-3.4 2.4-1.9.7-3.8 1.5-5.7 2.3-1.3.5-2.5 1.3-3.8 1.6-1.7.4-4.2 2.3-3.7 3.4.4 1 1.4 1.8 2.3 2.5.9.7 1.9 1.1 2.9 1.7l-.5.9-5.3-2.7c-.5-.2-.9-.6-1.4-.7l-4.5-1.2c-.3-.1-.5-.5-.6-.9-.1-.2.1-.5.2-.7l.9.4c.7.2 1.7.7 2.1.5.8-.5 1.3-1.5 1.9-2.2.8-.9 1.5-1.9 2.4-2.7.6-.6 1.4-1 2.3-1.3 1-.4 2.1-.7 3.1-.8 1.9-.1 2.7-.6 2.7-2.8-.2-8.3-.1-16.6-.1-25 0-2.6 0-5.2-.1-7.8 0-.9-.6-1.7-.8-2.5-.1-.4 0-.8.1-1.2.2-.7.8-1.6.6-2.1-1.4-2.6-.9-5.1-.4-7.9.9-4.4.7-8.8-.1-13.3-.9-5.2-.6-10.6-.6-15.9l-.1-33.4c0-1-1-2.1-1.1-3.1-.2-1.9 0-3.8 0-5.8.1-3.7.3-7.4.5-11 .2-3.7.7-7.4.8-11.1 0-.6-1.2-1.8-1.8-1.8l-24.2-.1c-1.7 0-3.4-.9-5.2-1-1.4-.1-2.8.6-4.2.9-.3.1-.5.2-.8.2l-7.3-1c-1.9-.2-3.9-.2-5.8-.2l-16.2.7c-1.5.1-3-.3-4.4-.1-2.6.3-5.1-.2-7.6-.5.2.3-1.2 1.8-1.3 2.7-.2 3.5-.1 7 .1 10.5.3 4.6 1.1 9.1 1.2 13.7.2 7.6-.1 15.2-.1 22.8v12.6c0 .4-.3 1-.6 1.1-.3.1-.8-.3-1.2-.5-2-1.6-1.1-3.8-1.2-5.8-.1-4.4 0-8.7 0-13.1 0-3 0-5.9-.1-8.9-.1-1.1-.9-2.3-.9-3.3.2-4.2.7-8.4 1-12.6.1-1.2-.4-2.3-.4-3.5 0-1.5.3-3 .4-4.5.1-2.8.2-5.6 0-8.4 0-.9-.7-2.3-1.3-2.5-1.9-.5-3.3.5-3.4 2.6l-.1 11.3c0 3.1-.2 6.2-.2 9.2 0 3.8.1 7.7.4 11.5.2 3.3.9 6.6 1 9.9l-.3 10.6c.1 2.6.6 5.2 1.1 7.7.1.4 1.2.6 1.8 1 .5.2.9.5 1.4.8-.4.3-.9.9-1.4.9-2.1.2-4.3-.1-6.3.3-2.9.6-5.9 1.2-8.4 2.7-1.6.9-3.8 2.2-3.4 5.1.1 1-.8 2.1-1.3 3.1-1.2 2.2-2.3 4.4-3.6 6.4-.5.8-1.4 1.5-2.2 2.1-.9.7-4.4-.1-5-1.1-.4-.5-1-.8-1.3-1.4-.5-.7-1.2-1.7-1-2.2.3-.9 1.2-1.7 2-2.4.6-.5 1.5-.7 2.1-1.3 2.9-2.8 5.7-5.8 8.7-8.4 1.2-1 3.1-1.8 4.7-1.9 3.4-.3 4.5-2.3 3.6-5.5-.7-2.6-.4-5.4-.4-8.1l.1-16.7c0-10.7 0-21.3-.1-32 0-1.7-1.8-3.2-3.5-3.3-2-.1-4.1-1-6.1-1-5.7-.1-11.3 0-17 0h-25.7c-2.5 0-2.9.9-2.9 4 .1 6.8 0 13.6 0 20.3 0 .5-.5.9-.6 1.4-.1.9-.4 2-.1 2.7 1 1.9.9 3.5-.1 5.4-.4.8.1 2 .1 3l-.1 3.7-.1 6.6c0 1.9 0 3.8.1 5.7 0 .6 0 1.2.1 1.8l.3.7c-.2 4.7-1.5 9.6-.5 14.1 1.6 7.6.5 15.1.9 22.7.2 4.2.1 8.4.1 12.6v.2c-2.5 2.6.8 5 .2 7.8-.6 2.8-.1 5.9-.1 8.8 0 .2.1.5-.1.6-3.1 2 .1 4.1-.1 6.1-.2 2.2 0 4.4 0 6.6l-.4.7-.3 2.7c0 .7 0 1.4-.1 2.2 0 .9-.4 1.9-.1 2.6.7 1.6 1.7 3-.1 4.7-.6.6-.2 2.1-.2 3.2 0 2.8.1 5.6-.1 8.3-.1 1.9-.9 3.7-1 5.5-.2 4.3-1 8.8 0 12.8 1.7 6.6.6 13.1 1 19.6 0 .4.4 1.1.7 1.1.4 0 1.1-.2 1.4-.6.6-.8 1-1.8 1.6-2.7.2-.3.6-.6.9-.6 3.1.4 3.8-2.5 5.6-3.9l6.6-5.2c1.1-.9 2.1-2 3.3-3 .5-.4 1.2-.6 1.8-.9.3-.2.8-.3.9-.6.4-2.4 2.7-2.4 4.2-3.1 2.6-1.2 5.4-1.8 8-2.9 1.2-.5 2.3-1.6 3.5-2 1.8-.7 3.8-1.1 5.7-1.6.7-.2 1.3-.5 1.9-.8.1-.1.2-.3.4-.3 2.2-.5 4.4-1.4 6.7-1.4 1.3 0 2.6 1.6 3.9 1.8 1.3.2 2.8-.3 4-.8.4-.1.4-1.3.5-2.1.4-2.9-1.1-5.1-2.9-7.1l-2.7-1.4c-1.3-1.7-2.2-3.6-3.4-5.4-1.6-2.3-3.1-4.5-4.9-6.6-1.8-2.2-4-3.9-4.4-7-.2-1.6-1.3-3.2-1.1-4.7.1-1 1.6-2.1 2.7-2.8.8-.4 2-.2 3 0 .6.1 1.2.6 1.4.7-1.3 1.1-2.7 1.9-3.4 3.1-.5 1-.4 2.7 0 3.8.7 1.7 1.9 3.1 3 4.6.3.4 1 .6 1.5.6.2 0 .4-.8.6-1.2.6-.9 1-2.2 1.9-2.6 1.2-.6 2.4 0 2.7 1.6 0 .1.1.2.1.2 1.8.3 2.1 2 2.9 3.2.2.4.5.8.5 1.2-.1.3-.6.6-.9.8l-.8.1c-1.1 1.5-2.6 2.9-3.2 4.6-.3 1 .9 2.6 1.8 3.6.6.7 1.7 1.1 2.7 1.3.4.1.9-.9 1.3-1.4.6-.8 1.2-1.6 1.8-2.5.4.3 1 .6 1.2 1 1.1 2.1 2.1 4.3 3.1 6.5.7 1.4 1.1 3 2.1 4.1 1.6 1.7 1.1 5.1 4.5 5.4.7.1 1.4.8 1.8 1.4 1 1.6 1.9.8 3.1.3.7-.3 1.7-.1 2.6 0 .3 0 .5.4.8.5 1.8.5 3.7.9 5.5 1.5 1.8.6 3.5 1.8 5.4 2.2 3.1.8 4.4 3.6 6.6 5.4 1.3 1.1 2.4 2.4 3.6 3.6.2.2.7.3 1 .3 4 0 7.9.3 11.8-.1 2.1-.2 4.2-1.7 6.3-2.5 1.3-.5 2.8-1.3 4.1-1.1 2 .3 2.8-.9 4.1-1.9 3.2-2.5 1.4-5.6 1.3-8.5-.1-3-.9-6-.9-9 0-1.6 1-3.1 1.5-4.6 1.8.9 4 1.8 5.8 3 1.7 1.2 3.2 2.6 4.3 4.3.9 1.3 1.1 3 1.4 4.5l1.1 5.4c.1.4.4.9.3 1.2-.6 1.6-1.4 3.2-2.1 4.8-.2.4-.3.7-.4 1.1-.8 2.4-1.6 4.8-2.5 7.2-.8 2.1-1.6 4.2-2.6 6.2-.9 1.7-2.1 3.3-3.1 4.9-.5.8-.8 2-1.5 2.5-.9.6-2.5 1.2-3.3.7-1.6-.8-2.2-2.7-1.2-4.3 1.9-2.9.4-4.8-1.2-7-.4-.5-.4-1.3-.4-1.9v-7.5c-1 .7-1.9 1.1-2.6 1.8-4.5 3.9-9.9 4.3-15.4 3.8-2-.2-4-.6-5.9-1.2-1-.4-1.5-1.8-2.5-2.4l-4.4-2.3-3-2.6c-2-1.2-4.1-2.1-6.2-3.2-.5-.3-1.1-.4-1.5-.8-1.8-1.6-3.6-2.9-6.1-1.8-.4.2-.6.6-.9.9-.7.6-1.5 1.6-2.2 1.6-3.3-.1-4 2.7-5.5 4.6-1.1 1.3-2.7 2.2-4 3.3-.5.4-1.1.8-1.2 1.3-.7 3.4 1.7 6.1 2.2 9.2.5 2.8 2.6 4.1 3.9 6.1 1.2 1.7 2.1 3.7 3.1 5.5.3.6.9 1 1.4 1.5.3.3.7.6 1 1 .7 1.3 1.5 2.6 2 4 .4 1 .5 2.1.8 3.2l-1 .4c-1.2-2.1-2.3-4.3-3.6-6.4-.8-1.3-2.1-2.4-3-3.7l-3.4-5.5c-.9-1.3-2.1-2.4-3.1-3.6-.3-.4-.5-.8-.7-1.2l-2.1-5.8c-.2-.5-.4-1-.4-1.5.1-1.3-.2-2-1.7-2-1.6 0-1.7.8-1.8 2.1-.3 3.4-.6 6.8-1.3 10.1-.4 1.8-1.5 3.4-2.2 5.1-.1.3-.1.7-.3 1-.7 1.6-1.3 3.3-2.1 4.8-1 2-2.1 3.9-3.1 5.8-.8 1.5-1.3 3.2-2.2 4.6-1.3 1.9.8 2.2 1.4 3 .4.4 1.9.2 2.7-.1 1.3-.5 2.4-1.9 3.7-1.9 2.2-.1 4.5.3 6.5 1 4.8 1.7 9.8 3 14.9 2.7 1.7-.1 3.2-1.5 4.9-2.3.4-.2 1-.2 1.5-.3.1.8.5 1.9.2 2.3-1 1.3-2.2 2.4-3.4 3.5-.1.1-.3.2-.4.4l-1.5 9.8c-.1.5-.7.9-1.1 1.4-.4.5-1 .8-1.2 1.3-2.1 5-1.4 10.4-1.5 15.6-.1 2.9 1.1 3.6 3.9 2.8 1.9-.5 3.8-.8 5.7-1.1 2.8-.4 5.7-1.6 8.2-1 6.2 1.6 12.4.5 18.6 1.1.4 0 .7.3 1.6.6-.9.4-1.5.9-2.1.9-3.6.3-7.2.7-10.8.8-1.3 0-2.6-.5-3.8-.7-.4-.1-1-.1-1.2.1-2 1.9-4.6.8-6.9 1.2-1 .2-2 .6-2.9.9l-1.5.2-3.8.9c-.6.2-1.4.7-1.9.5-1.4-.5-2.7-1.3-4-2-.3-.1-.6-.5-.8-.5-3.1.1-4.3-2.5-6-4.3-.9-.9-1.1-2.5-1.8-3.7-.3-.6-1.1-1.1-1.8-1.2-2.6-.5-5.3-.7-7.8-1.5-1.3-.4-2.3-2-3.4-3-.2-.2-.4-.5-.6-.6-2.9-.5-5.8-.8-8.7-1.5-1.1-.2-2.2-.9-3-1.6-.7-.7-1.1-1.8-1.5-2.7-.1-.2-.1-.7.1-.8 1.3-1.1 1.1-2-.2-2.9-.6-.4-1-1.3-1.6-1.6-.7-.4-1.7-.5-2.5-.4-.3 0-.8 1-.7 1.4.4 2.3.6 4.6 1.5 6.7 1 2.6 2.4 5 3.9 7.4 1 1.7 2.4 3.1 3.5 4.7.6.9 1 1.9 1.4 2.9 1 2.6 1.7 5.2 2.8 7.7.9 2.1 2.2 4 3.2 6 .7 1.6 1.2 3.2 1.8 4.9.2.4.3.9.5 1.2l3.5 5.2c.2.2.3.5.5.8l3 3.8c1.7 2 3.2 4.2 5.1 6 1 1.1 2.4 1.9 3.8 2.6.6.3 2.3-.2 2.3-.4.1-1.4.3-3-.3-4.1-1.4-2.4-3.1-4.6-4.9-6.6-1-1.1-2.4-2-3.8-2.7-1-.5-4.6-4.7-4.8-5.9l-1.3-6.2c-.1-.4.3-1.2.5-1.2.4-.1 1 .2 1.4.5 2.4 2 4.8 4 7.1 6.1l.7 1.2c.9.9 1.9 1.8 2.8 2.6 1.1 1 2.3 1.9 3.3 3 2 2.3 4 4.7 5.9 7.1.2.3.6.6.5.9-.5 2.8 1.9 3.9 3.3 5.6.7.9 1.3 2 1.9 3.1.2.2.2.6.4.7 2.2 1.4 4.5 2.7 6.6 4.2.7.5 1.2 1.5 2 1.8.5.2 1.5-.5 1.9-1 1.6-2 2.9-4.3 4.6-6.1 1.6-1.6 3.7-2.3 6.2-1.6.5.2 1.9-.8 2-1.3.2-.9-.2-2.5-.8-2.8-1.3-.7-3.4-1-2.8-2.7.4-1.2 2.2-2.3 3.7-2.8 1.2-.5 2.7-.2 4-.2 1.5 0 4-2.7 3.9-4.6-.1-1.9-.7-3.9-1.2-5.7-.7-2.4 1.2-2.6 2.5-3.4 4.8-2.8 10.2-1.1 15.2-1.7 2-.2 4-.7 6-1.1.4-.1.8-.2 1.2-.1 2 0 4.5.8 6 0 3.5-2 7.4-.3 10.7-1.5 5.7-2 11.5-2.3 17.5-2.4 2.7 0 5.8-.2 8.1-1.4 1.9-1 3.4-.7 5.2-.6 2.1.1 2.5-2 3.4-3.3.8-1.2 1.6-3 3.4-2.2 1.4.6 3.2.7 3.7 2.9.2.9 1.7 1.5 2.6 2.2.6.4 1.2.7 1.7 1.2 2.4 2.6 2.6 4.3 1 7.4-.6 1-.7 2.4-1.4 3.2-.6.7-1.7 1.2-2.7 1.3-1.4.2-2.9.1-4.3.2-.2 0-.7.5-.7.7.4 2.7-1.8 3.9-2.9 5.8-1.4 2.2-3.3 1-5 1.2l-11.6 1.4c-1.4.2-2.8.5-4.1.8-.4.1-.7.6-1 .9-.2.2-.4.7-.6.7-2.7.2-3.1 2.2-3.5 4.3-.1.5-.7 1-1 1.4-1.8 2.5-3.6 5.1-5.4 7.7-.1.2-.2.4-.4.5-1.8.5-3.5 1.2-5.3 1.4-1.8.2-3.3 1.7-3.2 3.7 0 .7-.5 1.4-.8 2.1-.1.4-.5.7-.5 1.1-.1 1.3.1 2.6-.1 3.9-.4 3-.4 6.2-1.5 9-1.2 3.3-2.7 6.7-5.6 9.2-2.1 1.8-2.3 4.4-.9 6.8.2.4.3 1 .3 1.5-.1 2.2 1.5 3.9 3.7 4 .6 0 1.2.6 1.8.9l.6.4c4.1 1.3 7.6-.1 10.3-3.4 1.1-1.3 3-2 4.4-3.1 1.2-.9 2.1-2.2 3.2-3.1 1.5-1.2 3-2.2 4.6-3.4.1-.1.3-.1.3-.2.9-3.1 4.6-3.6 6-6.4 1-2 3-3.4 4.3-5.3l3.1-5.2c.9-1.3 2.2-2.2 3.3-3.4.2-.2.6-.6.5-.8-.5-1.8 1-2.1 2.1-2.7.2-.1.7 0 .8.1.1.3.1.8 0 1-1.2 1.7-2.5 3.2-3.6 5-1.8 2.8-3.3 5.8-5.2 8.5-.9 1.3-2.2 2.4-3.3 3.6-.1.1-.4.2-.4.3.1 3-3.1 3.3-4.4 5.3l-5.7 7.6c-.8 1.2-1 2.7-1.6 4-.4.7-1.3 1.2-1.6 1.9-.5 1.3-.7 2.7-.8 4.1 0 .2 1.6.5 2.4.8 1.3.5 2.5 1 3.7 1.6l4.5 2.2c.6.3 1.2.9 1.8 1.3l3.4 1.6c.3.2.6.6.7 1 .5 3.6.9 7.2 1.3 10.8 0 .3.1.7-.1 1-2.1 4.2-1.6 5.2 3.1 6.3.6.2 1.2.8 1.7 1.3l4.5 4.7c.3.3 1 .5 1.2.4.8-.7 1.8-1.4 2-2.3 1.3-5.2 1.8-10.5 1.3-15.9-.3-3.2-1.5-6.4-2.3-9.6l-.1-.2c-.5-3.8-1.2-7.5-1.3-11.3 0-1.6 1.4-3.3 2.1-4.9l1.5-4c1.2-2.6 2.6-5 3.6-7.7.8-2 1.1-4.2 1.7-6.2l2-5.2c.6-1.7 1.3-3.4 1.7-5.2l.1-4.3c.6-2.6 1.5-5.1 2.3-7.6l.1-.2c.5-2.5.9-4.9 1.5-7.4l1.6-6.2.3-2.5c.1-.8.3-1.5.5-2.3l.6.1c0 2.4.3 4.8-.1 7.1-.5 3.3-1.6 6.5-2.2 9.8-.3 1.9-.1 3.8-.3 5.7-.3 2.6-.7 5.3-1.5 7.9-.8 2.5-2.4 4.7-3.3 7.2-.5 1.2 0 2.8-.4 4.1-.6 2.1-1.5 4.2-2.3 6.3-.5 1.4-1 2.8-1.6 4.1-.7 1.8-1.4 3.6-2.4 5.2-2.3 3.7-3 7.5-2.9 11.8.1 3.7 1.8 6.9 2.2 10.4.5 4.1.4 8.3.6 12.4 0 .9.1 1.8 0 2.6-.4 2.6-1.1 5.1-1.3 7.6-.2 2 .3 4.1-2.2 5.3-.5.2-.2 2-.3 3.6-2 0-4.6-.1-7.2 0l-10.4.4-2.9-.2c-3.4-.1-6.9-1-10.1-.2-8.8 2-17.7.8-26.5 1-10.7.2-21.3-.1-32-.1l-64.4.1c-.6 0-1.2-.5-1.9-.7-.5-.1-1.2-.3-1.5-.1-1.9 1.3-3.7 1.2-5.6.1-.4-.3-1.3-.5-1.6-.3-2.5 1.9-5.4.9-8.1.9-5.7.1-11.4 0-17.1 0l-8.9-.1c-1.3 0-2.6 0-3.9.2-1.6.2-5.5-2.8-5.4-4.4.3-5.7.7-11.3.9-17 .1-3.9-.1-7.8-.1-11.7l-.1-17.5.4-1.1c.1-.8.2-1.6.1-2.5l-.5-1.3v-32.4c0-5 0-10.1-.1-15.1 0-.7-.7-1.4-1.1-2.1v-11.4c.4-1 1-2 1.1-3.1.1-.9-.4-1.9-.4-2.9-.1-1.5 0-2.9 0-4.4 0-1.4-.2-2.8-.1-4.2.2-1.9.9-3.7.9-5.6l-.3-12.6c0-2 .8-4 1.1-6.1.1-.8-.1-1.7-.3-2.5-.2-.9-.8-1.7-.8-2.5-.1-5-.1-10 0-15 0-4.3 0-8.5.3-12.8.1-2.1.9-4.2.9-6.3-.1-3.2-.7-6.3-.9-9.5-.2-2.8-.2-5.5-.1-8.3.1-3.6.3-7.3.9-10.9.3-1.9.9-3.5-.8-5-.2-.2-.2-.7-.2-1.1v-8.7c.1-2.5 0-5.1.5-7.6.3-1.3 1.3-2.2-.2-3.3-.2-.1-.2-.6-.2-1v-5.7c0-2.5-.1-5.1 0-7.6.1-2.3.5-4.6.5-6.9l-.6-8.1c0-1.5 1-3 1.1-4.5.1-1.9-.4-3.7-.6-5.6-.1-1.6-.2-3.2-.2-4.8l.3-3.6c.1-2.4.8-5 0-7.1-.8-2.3-.6-4.3-.2-6.4.3-1.6.6-3.1.8-4.7.1-1.2 0-2.4 0-3.6l.1-21.6c0-6.4-.2-12.7-.1-19.1 0-3 .7-6.1.8-9.1 0-2.7-.5-5.3-.6-8-.1-7.2-.2-13.9-.1-20.7 0-.9.8-2.2 1.5-2.6.7-.3 1.9.3 2.9.5.5.1 1.2.1 1.7-.1.5-.1.8-.6 1.3-.9h43c2.3.8 4.6 1.1 6.9 0h2l1.2.5c1.3 1.1 5.3 1.1 6.7.2.5-.4 1.3-.4 2-.5.7-.1 1.3-.2 2-.2h2.7c2.1 1.9 4.1.5 6.2 0h.5c1.6 1.4 3.4 1.5 5.3.9.8-.2 1.6-.3 2.5-.4 2.3-.2 4.6-.4 6.9-.5h2c2.7.2 5.5.5 8.2.5 1.8 0 3.7-.3 5.5-.5h18.6c2.9.1 5.8.1 8.8.1zm-120.4 306.5l-1.1-1c1.5-2.3 2.7-4.8 4.5-6.8 1.8-2 4.4-3.2 6.3-5.2 2.5-2.6 4.5-5.7 7-8.4 1-1.1 1.7-3.4 4-1.6.5.4 1.3.5 2 .7-.2-.9-.3-1.8-.5-2.6-.5-1.6-1.3-3.2-1.6-4.9-.5-3.2-.7-6.5-1-9.7-.1-1.4-.1-2.9-.3-4.3-.1-.5-.7-1-1.1-1.4-.4.6-.8 1.1-1.1 1.7l-.3 1.6c-.7 1.9-1.7 3.7-2.2 5.7-.4 1.4.2 3.1-.3 4.3-.9 2-2.5 3.6-3.8 5.4-.6.8-1 2.1-1.8 2.4-2.4.8-3.4 2.7-4.7 4.5-.2.3-.6.7-.8.6-.5-.2-1-.5-1.4-.9-.1-.1.1-.7.3-.9 1.2-1.1 2-2.3 1.9-4.1-.1-1.4 0-3 .5-4.3 1.3-3 2.9-5.8 4.4-8.7.4-.7 1-1.2 1.3-1.9.4-.9.8-1.8.9-2.8.1-1.1 0-2.3-.1-3.4-.1-.7-.7-1.5-.6-2.1.3-1.8.7-3.7 1.3-5.5.8-2.7 1.6-5.4 2.7-7.9 1.2-2.7 2.7-5.3 2.3-8.4-.1-.6-.6-1.1-.9-1.6-.5.4-1.3.8-1.6 1.3-1 2-1.5 4.1-2.7 6-1.5 2.4-3.4 4.5-5 6.8-1 1.4-1.4 3.2-2.6 4.2-1.2.9-3.1 1.6-4.5 1.4-1.6-.2-4.1.4-4.3 2.1-.2 1.8-1.4 2.4-3 2.5-2.2.1-4.3.2-6.5.2-1.5 0-2.3.6-2.3 2.3v23.3c.1 3.1-.8 6.3 1.2 9.2.2.3 0 .9-.1 1.3-.3 1-.9 2-1 3-.1 3.6-.1 7.2-.1 10.8 0 2.2-.5 4.6.2 6.5.6 1.6.5 2.8.3 4.4-.5 3.5-.4 7.1-.4 10.6 0 .6.5 1.1.6 1.7.1.5.2 1.1.1 1.6-.2.8-.7 1.5-.7 2.3-.1 6-.2 12.1-.1 18.1 0 .5.7 1.2 1.2 1.3 1.8.2 3.7.3 5.5.1.8-.1 2.2-.9 2.3-1.6.3-2.6-1.1-4.8-2.3-7.1-.6-1.2-.6-3.2.1-4.4.7-1.3 3.9-.8 5 .7 1.5 2.1 2.6 4.4 4 6.6.8 1.2 1.5 2.6 2.5 3.6l4 3c1.2 1.1 2.4 1.9 4.2 1.8 1.9 0 3.2-.3 3.5-2.4 0-.2.4-.4.6-.5 1.1-.4 2.1-1 3.2-1l9 .2c1 0 2.5 0 3.1-.6 1.3-1.4 2.2-3.1 3.2-4.8 1.6-2.6 2.8-5.4 5.7-6.9.2-.1.2-.3.3-.5 1.7-2.4 3.5-4.7 5-7.1.4-.7.2-1.9.1-2.8 0-.1-1.1-.4-1.6-.2-2.3.7-4.5 1.8-6.8 2.2-3.2.6-6.4.9-9.6.8-2.3-.1-4.6-1.3-6.9-1.8-1.3-.3-2.5-.4-2.2-2.2 0-.1-.4-.5-.5-.5-1.4.1-2.8.3-4.2.5l-1.9.2c-.6.2-1.6.4-1.7.8-.9 3.5.6 6.1 3.2 8.4.3.3.3 1 .4 1.5-.5 0-1.1.1-1.4-.1-1.7-1.5-3.3-3.1-4.9-4.7-.6-.6-1.4-1.3-1.6-2.1-.9-3.1-2.7-4.5-6-4.5-.4 0-1-.5-1-.7.4-3 1.9-3.8 4.4-2.4 1.1.6 2 1.5 3 2.3.5.4 1 1.3 1.4 1.2.7-.1 1.3-.8 1.9-1.3.4-.3.6-.8.9-1.1 1.6-1.6 3.4-1.5 5.4-.9.7.2 1.8.4 2.1 1 1 2 6 3.8 7.8 3.6l5.9-.7c1.8-.2 3.6-.3 5.4-.6l2.7-.7c1.3-.2 2.6 0 3.8-.4 1.6-.5 3.1-1.4 4.7-2.1.3-.1.7.1 1 .2l2.4.9c.5.2 1.1.3 1.6.4-.4.5-.8 1-1.1 1.5-1.2 1.8-2.5 3.4-3.4 5.3-1.1 2.2-1.7 4.6-2.6 6.9l-1.1 1.2c-.8 2.9-3 3.9-5.6 4.5-1.2.3-2.6 1-3.3 2-1.1 1.6 1.2 6.1 3.1 6.5 2.8.6 5.6 1.2 8.4 1.2 3.8 0 7.7-.4 11.5-.9 1.9-.3 3.8-1.4 5.7-1.6 4.1-.6 8.2-.8 12.2-1.2l.5-.2c1.3-.4 2.6-.6 3.9-1.1.6-.2 1.5-.7 1.6-1.2.7-2.8 2.4-3.4 4.7-1.7.6.4 1.9.2 2.8-.1 1.9-.6 3.6-1.9 5.4-2.1 4.7-.5 9.5-.1 14.1 1.2.8.2 1.6.4 2.3.5 1.3.2 2.8.9 3.9.6 2.1-.6 4.1-1.8 6-2.9 1.1-.6 1.9-1.7 3-2.5 1.7-1.2 3.3-2.9 5.2-3.3 2.4-.5 4.4-1.4 6.2-3 1.8-1.5 3.6-3 3.4-5.7 0-.6.4-1.2.6-1.7 1.2-2.2 4-4 1.7-7.1-.1-.1 0-.3 0-.4.4-2.7-.9-2.9-3.3-2.7l-4.6.3c-.4 0-.8-.4-1.1-.7-.1-.1.1-.6.2-.7 1.7-.6 3.4-1.2 5.2-1.6 1.2-.3 2.8.3 3.7-.2 1.1-.6 2.4-2.1 2.5-3.2.1-1.5-.8-3.1-1.4-4.6-.1-.2-.4-.5-.7-.5-1.9-.5-3.8-.9-5.6-1.4-.5-.1-.9-.8-1.3-1.2.5-.2 1-.7 1.6-.7 3.2.1 6.4.2 9.5.5 3.5.3 4.3-2.7 6-4.6.2-.2.5-.4.7-.5.1.3.3.7.2.9-.5.7-1.2 1.4-1.6 2.1-.2.4-.2 1-.2 1.5 1-.1 2.3.1 3-.5.8-.7 1.3-2 1.7-3.1.5-1.7.8-3.5 1.1-5.3 0-.2-.5-.8-.8-.8-1.5.1-2.9.4-4.4.6-2.5.2-5 .6-7.5.5-1.5 0-3-.7-4.4-1.1-1-.3-2-.7-3.1-.8-2-.2-4.1-.6-6 0-1.8.5-3.2 2.1-4.8 3.2-1 .6-2 1.2-3.1 1.6-1.6.7-3.3 1.2-4.9 1.8-1.8.6-3.6 1.5-5.5 1.9-1.7.3-3.5-.1-5.2.1-3.3.4-6.6-1.1-9.9 1.2-1.5 1-2.9 1.7-3.4 3.5-.3 1.1-.9 2.1-1.5 3.1-.7 1.1-1.5 2.2-2.3 3.3-.7 1-1.3 2.2-2.2 2.8-2.2 1.3-4.6 2.5-7.1 3.3-3.1 1-6.4 1.5-9.6 2.2-2 .4-4.1.7-6 1.2-1.5.4-2.9 1.1-4.3 1.5-1.5.4-3.1.8-4.7 1-.6.1-1.2-.4-1.8-.8-.1 0-.1-.5 0-.6l3-1.4c.6-.3 1.1-.8 1.7-1.2-.5-.7-.9-1.6-1.6-2-2-1.1-4.2-1.9-6.1-3.1-4.3-2.6-9-4.8-11.9-9.3-.7-1.1-1.8-2-2.8-2.9l-.2-.2c-2.1-.7-3.9-1.6-5.3-3.8-1.5-2.4-4.1-4.2-6.1-6.3-1.8-1.9-3.2-4.2-5.1-6.1-.6-.6-2.4-1-2.9-.6-1.1.8-1.6 2.3-2.4 3.4-1.5 2.1-3.1 4.2-4.7 6.3-.1.2-.3.2-.5.4l-4.3 3.6c-1.4 1-2.8 2.2-4.2 3.3zm134.6 62l-.3.4c.8-.1 1.5-.3 2.3-.2 2.5.3 5 .7 7.4 1.2 2.4.5 4.9 1 7.3 1.7 1.9.5 3.7 1.3 5.4 2.1 2.6 1.2 5.1 2.6 7.6 4l4.7 3c.6.4 1.4.9 1.9.7.6-.2 1.5-1 1.5-1.6.2-2.3 0-4.6 0-6.9 0-.2-.1-.3-.2-.5-.3-.8-.7-1.5-.7-2.3-.2-4.5-1.3-6-4.6-6.3-1.1-.1-2.1-.8-3.2-1.3-.8-.4-1.5-.8-2.2-1.2-.5-.3-1.1-.5-1.6-.7l-6.6-1.8c-.3-.1-.8.5-1 .9-.1.2.3.7.6.9 1 .8 2.5 1.3 3.1 2.4 2.1 3.4 2 3.4-2.1 3.5-.9 0-1.9.1-2.8 0-.5 0-1.1-.4-1.6-.5-1.1-.2-2.2-.3-3.3-.3-1 0-2.1.3-3.1.2-4.2-.6-8.4-1.3-12.5-2.1-1.6-.3-3.2-.8-4.8-1.3-1.9-.5-3.9-.8-5.7-1.5-.6-.3-1.1-1.6-1.1-2.5 0-1.1.6-2.2.8-3.3.1-.4-.2-1.3-.5-1.3-.5-.1-1.1.2-1.7.4-.5.2-1.1.7-1.5.6-1.3-.3-2.6-1.1-3.9-1.2-1.9-.2-3.9.2-5.9.1-1.1 0-2.2-.2-3.2-.4-.8-.2-1.5-1-2.3-1-4.9.1-9.8.2-14.6.7-3.1.3-6.1 1.3-9 2.2-.7.2-1.3 1.1-2 1.6-.2.2-.5.5-.8.6-2.7.5-5.4.9-8.2 1.3-1.3.2-2.7-.1-4.1.1-.9.1-1.6 1-2.5 1.2-2.4.6-4.8 1-7.2 1.5-.1 0-.2.2-.3.3l-6.5 6.4c-.5.5-1.3.6-1.9.9-1.1.7-2.4 1.2-3.3 2.1-.9.9-1.4 2.3-2.2 3.4-1.4 1.9-3 3.7-4.3 5.6-1.2 1.8-2.2 3.8-3.2 5.7l-2.1 4.2-2.1 3.7c-.5.9-1.6 2.3-1.4 2.5.8.9 1.9 1.8 3 1.9 10.5.1 21.1.1 31.7 0l17.9-.5c.9 0 1.8.4 2.7.3 2.2 0 4.4.7 6.7-.8 1.1-.8 3.2-.4 4.8-.2 2.2.2 4.3 1.1 6.4 1.2 3.8.2 7.6.2 11.4 0 9.8-.5 19.7 1.3 29.5-1.1 1.6-.4 3.5 1 5.3 1.1 3 .2 6 0 9.1-.1.3 0 .5-.7.8-1.1-.4-.3-.8-.6-1.3-.7-.7-.2-1.5-.2-2.2-.5-.7-.2-1.3-.6-1.9-1.1-.7-.5-1.5-.9-1.9-1.6-.2-.3.6-1 .8-1.6.3-.8.6-1.6.6-2.4 0-.2-1-.4-1.6-.7-1.4-.6-2.8-1.1-4.2-1.8-2-1-3.8-2.4-5.9-3.2-3.4-1.5-4.2-2.9-2.9-6.1.1-.3 1.2-.4 1.8-.4l4.4.7c.2 0 .5-.5.5-.7 0-.4-.3-.7-.4-1.1-.3-.8-.6-1.6-.8-2.4-.3-.9-.2-2.2-.7-2.6-1.2-1.2-2.7-1.7-4.1-2.4zm-142.7-299.3c.1.4.6 1.3.4 2-1 3.9-1.8 7.7.1 11.5.2.4.1 1.1-.1 1.5-1.2 2.1-1.5 4.2-.1 6.4.1.2 0 .7-.1 1-.2.8-.7 1.6-.7 2.4-.1 6.8-.2 13.6-.2 20.4 0 7.8.1 15.6.1 23.5 0 1.6.1 3.2.1 4.7 0 1.2.3 2.5.1 3.7-.2 1.5-.8 2.9-1.1 4.4-.1.3.1.6.2.9.2.7.6 1.4.6 2.1.1 2.6 0 5.2 0 7.7v10.5l.1 33.6c0 1.6.5 3.1 2.1 2.8 1-.2 2.5-1.7 2.6-2.7.3-3.1.1-6.3.1-9.4 0-.9.1-2-.3-2.7-1.4-2.4-1-4.7-.1-7.2.4-1.1.1-2.5 0-3.8-.1-.7-.8-1.3-.7-2 .5-6.6-.9-13.1 1.1-19.7.9-3-.2-6.6-.2-9.9 0-3.3.2-6.7.3-10l-.3-.9c-.2-1.1-.8-2.5-.4-3.3 1.3-2.7.8-5.1-.1-7.7-.3-.7 0-1.7.1-2.5.2-1.1.6-2.2.6-3.3-.2-3.1-.9-6.2-.9-9.3-.1-4.3.3-8.5.4-12.8l.2-9.8c.1-4.1.5-8.1.5-12.2 0-1-1.2-2-1.1-2.9.1-1.6 1.1-3.1 1.1-4.7.2-4.8 0-9.5 0-14.3 0-13.5 0-27.1.1-40.6 0-.4.3-.8.4-1.1.3-.6.7-1.2.7-1.9.1-2.3.2-4.6 0-6.9 0-.6-1.1-1.4-1.8-1.5-.6-.1-1.7.5-1.9 1.1-.5 1.3-.9 2.8-.9 4.3l-.1 11.5c-.1 2.9-.2 5.7-.4 8.6-.3 3.1-.9 6.3-1 9.4-.1 3.4.1 6.8.1 10.2.1 5.5.1 11 .1 16.4 0 .3-.7.5-1.1.8-.5.3-1 .6-1.4 1-.1.1.3 1 .5 1 .3 0 1-.1 2.3-.3zm11.1 310.2c-.9 0-1.9-.3-2.7.1-1 .4-1.8 1.2-2.5 2-.2.1.1.8.2 1.1.3.9 1 1.8 1 2.6-.3 3.7.3 7.3 1.4 10.8.1.4.7.8 1.1.8l6.6.2 4 .3c2 .2 4.2 0 6.1.6 1.9.6 2.8-.4 3.5-1.5 1.5-2.2 2.7-4.5 4.1-6.8l1.3-1.8 2.5-3.7c.4-.5.9-1 1.2-1.6.6-1.2.9-2.6 1.7-3.5 1.8-2 3.9-3.7 5.6-5.7.4-.5.1-1.6.2-2.4-.6.1-1.3 0-1.9.3-1.8.9-3.6 2.6-5.5 2.8-4.4.5-8.8.4-13.3.2-2.6-.2-5.1.3-6.7 1.8-2.2 2.3-4.8 3.2-7.9 3.4zm154.5-274.8c0 .7-.2 1.4 0 2.1.2.6 1 1.7 1.2 1.6.8-.2 1.8-.7 2.2-1.4.4-.7.1-1.8.2-2.8.3-2.5-.7-5.1 1.1-7.4.4-.5-.1-1.7-.3-2.6-.1-.6-.6-1.2-.6-1.8-.1-6.3-.1-12.5-.1-18.8v-35.6c0-6.5-.1-13 .1-19.5 0-1.4 1-2.7 1-4-.1-2.6-.6-5.2-1-7.8-.1-.4-1.2-1-1.3-.9-.8.8-1.8 1.6-2.1 2.6-.6 2.6-.9 5.4-1.3 8.1-.1.5 0 1 .1 1.5.3.9.9 1.8 1 2.7.1 8.4.1 16.9.1 25.3 0 1.5.1 3.2-.4 4.5-1.3 3.2-1.4 6.2 0 9.3.1.3-.2.9-.2 1.3v5.4c0 1-.2 2.1-.1 3.1.1.7.7 1.3.7 2-.3 10.9-.3 22-.3 33.1zm73.5-79.4c.1 3.9.1 7.8.1 11.7 0 1.8 1.1 2.1 2.3 1.9.5-.1 1.2-1.2 1.2-1.8l.1-14.1c0-.8.7-1.6.8-2.4.1-1 0-2-.2-3-.1-.5-.6-.9-.6-1.3 0-3 .1-5.9-.1-8.9 0-.7-.8-1.4-1.3-2.2-.8.6-2.2 1.1-2.3 1.7-.2 2.2 0 4.5 0 6.8v11.6zm-204.7 253.7l-.5.1 2 4.2c0 .1.1.1.2.2l3.3 3.3c1.4 1.5 2.7 3 4.2 4.4.3.2 1.1.2 1.4 0 1.3-.9 1.3-2.5 0-3.4-.2-.1-.4-.3-.5-.5-1.5-2.7-3-5.3-4.4-8-.7-1.3-1.1-2.6-1.7-3.9-.6-1.4-1.3-2.8-2.1-4-.7-1.1-1.7-2-2.6-3-.3 1.1-1 2.2-.9 3.2.4 2.5 1.1 5 1.6 7.4zm-30.3 107.2c0-1.3.1-2.6 0-4-.1-.5-.7-1.4-.9-1.4-.9.2-2.2.5-2.4 1-.4 1.1-.2 2.5-.2 3.8 0 3.5 0 7.1.1 10.6 0 .3 1.5 1 1.5.9.7-.9 1.6-1.9 1.7-2.9.4-2.6.2-5.3.2-8zm191.3-113.4c-.1-.1-.2-.3-.2-.4-.3.2-.9.5-.9.7 0 1.3.1 2.6.4 3.9.1.5.4 1 .8 1.5.7.9 1.5 1.7 2.3 2.6.8-.8 1.8-1.5 2.3-2.5.7-1.3 2.3-2.8.2-4.3-.1-.1.2-.5.1-.8-.2-.7-.5-2-.9-2-.9-.1-1.8.3-2.7.6-.6.1-1 .4-1.4.7zm-7.4 2.9c0 .1 0 .2.1.2.8 0 1.5.1 2.3 0 .6-.1 1.7-.2 1.8-.6.2-.8.3-1.9-.1-2.4-.4-.4-1.8-.6-2.3-.2-1.9 1.4-4.8.7-6.1 3.2l-.2.6c.2.1.4.2.6.1 1.3-.2 2.6-.5 3.9-.9zm-161.8 88.7c-1.3.8-2.3 1.4-3.4 2 1.1.8 2.2 1.9 3.4 2.1.6.1 1.5-1.5 2.3-2.3-.7-.5-1.4-1.1-2.3-1.8zm5.7-2c.7-.1 1.5 0 2.1-.3.4-.2 1-.7 1-1 0-.4-.5-1.1-.8-1.2-1.4-.1-2.7 0-4.1.2-.3 0-.7.8-.7 1.2 0 .3.5.7.9.9.5.2 1.1.2 1.6.2zm-1.8-149.5c-.5-1.1-.9-2.1-1.4-2.9-.3-.4-.8-.8-1.3-.8-.4 0-1 .5-1.1.8-.1.5.2 1.1.5 1.6s.6 1 1 1.5c.3.4.8.8 1.2.8.4 0 .7-.6 1.1-1zm-33.6 16.1c1.2-1.3 2-2.2 2.9-3.1-.5-.4-1.5-1.2-1.6-1.1-.9.8-1.6 1.7-2.3 2.7-.1.1.4.7 1 1.5zm42.8 140.1c.2.2.5.9.9 1 .4.1.9-.6 1.4-.9l.6-.7c.2-.3.7-.7.6-1-.1-.3-.6-.7-.9-.8-1.7-.5-2.6.3-2.6 2.4zm112.9 10.4l1.6-1.5c-.8-.6-1.5-1.5-2.4-1.7-.4-.1-1.1 1.1-1.7 1.8.7.4 1.4.8 2.5 1.4zm-9.6-196c-.7-.6-1.4-1.2-1.5-1.1-.8.7-1.5 1.5-2.1 2.3-.1.1.6.9.6.9.9-.6 1.8-1.3 3-2.1zm-146.5-149.3c-.9-.7-1.5-1.3-2-1.3-.4 0-1.2.8-1.1 1.2.1.6.7 1.2 1.1 1.8.5-.5 1.1-.9 2-1.7zm39.2 220.9c-.7.8-1.2 1.3-1.6 1.8.5.4 1 1 1.6 1.1.4 0 1.1-.7 1.2-1.1 0-.5-.6-1-1.2-1.8zm-38.7-103.2c-.6-.6-1.2-1.3-1.3-1.2-.6.3-1.1.9-1.6 1.4.4.4.9 1.2 1.3 1.2.4-.1.9-.8 1.6-1.4zm23.2 215.3c-.6.9-1.3 1.4-1.2 1.8.1.4.8 1.1 1.2 1 .5 0 1.1-.6 1.3-1.1 0-.3-.7-.8-1.3-1.7zm-.1-1.6c.6-.9 1.1-1.4 1.1-1.8 0-.4-.8-1-1.1-1-.5.1-1 .6-1.5 1 .3.5.7.9 1.5 1.8zm56-112.8c-.6.7-1.2 1.1-1.2 1.6 0 .4.6.8.9 1.2.6-.5 1.1-1 1.7-1.4-.4-.4-.8-.7-1.4-1.4zm-81.7-20c.6-.8 1.2-1.3 1.1-1.6-.1-.5-.8-1.1-1.2-1.1-.4 0-1.2.6-1.2 1s.6.9 1.3 1.7zm4 144.2c.6-.7 1-1.1 1.4-1.5-.5-.4-.9-.9-1.4-1-.3-.1-.9.6-1 1-.1.4.5.8 1 1.5zm42.9-121.7c-.8-.5-1.3-1.1-1.5-1-.5.2-1 .7-1.1 1.2 0 .4.6 1.1 1 1.1s.8-.7 1.6-1.3zm143.7 139.1c.2-.4.5-.8.7-1.1-.6-.2-1.3-.5-1.9-.5-.3 0-.8.8-.7 1.2.1.5.6.9.9 1.4l1-1zm-136.7-160.9c.4-.5.8-.8.8-1.2 0-.3-.6-.8-.8-.7-.5.1-.9.4-1.4.7.4.4.8.7 1.4 1.2zm10.1-79c.6.5 1 1 1.5 1.2.1.1.6-.5.8-.8-.5-.4-1-.7-1.6-1.1.1.1-.2.4-.7.7zm-36.8 40.8c-.8-.8-1.1-1.1-1.5-1.4-.2.4-.7.8-.7 1.1 0 .3.5.7.9.8.3.1.7-.2 1.3-.5zm-7.7 7.4c-.8-.4-1.2-.7-1.6-.8-.2 0-.4.4-.6.6.3.3.6.8 1 1 .1 0 .5-.4 1.2-.8zm17.5 26.9c-.3-.5-.6-.8-.8-1.1-.2.3-.7.6-.6.9.1.4.5.7.7 1.1.1-.3.4-.5.7-.9zm5.5-26.1l.7-.8c-.2-.3-.5-.6-.8-.9-.3.3-.7.5-.7.8 0 .2.4.4.8.9zm128.7 80.4c-.4-.4-.7-.6-.9-.8-.2.3-.6.6-.6.9 0 .3.3.6.5.9.2-.3.5-.5 1-1zm-18-100.4c-.6-.4-.9-.7-1.1-.7-.3 0-.5.4-.7.6.2.2.4.6.6.6.3 0 .6-.3 1.2-.5zm-106.1 79.7c-.3-.3-.5-.5-.6-.7-.2.2-.5.4-.6.7 0 .1.3.5.5.5.1.1.4-.2.7-.5zm-12.3-39.3c-.2.4-.4.6-.4.8 0 .2.2.3.4.5.2-.2.4-.3.5-.5 0-.2-.2-.4-.5-.8zm145.2 163.2c-.3-.2-.5-.4-.7-.3-.2.1-.3.3-.5.5.2.1.3.4.5.4.2-.2.4-.4.7-.6zm-176.4-217.6h.2v-.6h-.3c.1.2.1.4.1.6zm56.3 161.5c.2.1.5.1.7.1v-.1h-.7zm14.3-10c.2-.5.2-.6.2-.7 0 0-.1-.1-.2-.1.1.1 0 .2 0 .8zm-9.4-69.4c-.2-.1-.2-.1-.3-.1-.1 0-.2.1-.2.1l.1.2c.1 0 .1 0 .4-.2zm83.8-57.4h-.1.1zm-88.2 136.5c-.1-.1-.1 0-.1 0h.1zm-57.5-182.1h-.1.1zm199.9 250.1c1.1-3.1 3.7-1.4 5.5-1.5 8.4-.2 16.9-.1 25.3-.1 1.5 0 2.3-.4 2.3-2.2 0-1.1.8-2.3 1.2-3.5.1-.3.1-1-.1-1.2-2-1.8-1.2-3.9-.7-6 .2-.7.3-1.5.3-2.3-.2-2.4-.6-4.9-.7-7.3 0-1.2.6-2.5.7-3.7.1-1.5-.1-3.1-.2-4.6-.2-5.4-.4-10.8-.5-16.1-.1-4.6-.7-9.3.2-13.7 1.3-6.9 1-13.8 1-20.7l.1-38.9c0-2 1.4-4.2 1-6-2.2-8.2-.6-16.6-1-24.8-.2-4.5-.1-9.1-.1-13.6 0-.8.3-1.6.7-2.3.9-1.6.6-3-.8-3.9-1.4-.9-3-2.6-4.7-.5l-3.8 4.9-2.9 3.7c-.2.2-.7.2-1.1.2 0-.8-.4-1.9 0-2.4 1.6-2.1 3.7-4 5.3-6.2 1-1.5 1.5-3.3 2.1-5.1l2.7-7.8c.1-.2 1.1-.3 1.4-.1 1.8 1.2 3.3 1.6 5.1-.1.4-.5 1.7-.1 2.5-.3 2.4-.4 4.9-.6 7-1.5 3-1.3 5.9-3.1 8.8-4.7l6.3-3.8c1.2-.7 2.6-1 3.8-1.6 1.3-.6 2.4-1.5 3.7-2.2.4-.2 1-.1 1.4-.1 0 .9.3 2-.2 2.6-1 1.4-2.3 3.2-3.7 3.5-3.1.6-4 3.7-6.8 4.6-1.3.4-2.4 1.5-3.6 2.2-1.1.6-2.6.7-3.6 1.5-1.5 1.1-4.3.8-4.2 3.8 0 .1-1 .3-1.5.4-.8 0-1.6 0-2.3-.1.2.7.3 1.4.6 2.1.4 1 1.5 1.9-.1 3-.3.2-.3 1-.2 1.5 0 .3.5.6.8.6.4 0 .8-.3 1.1-.6 1.2-1.5 2.4-3.1 3.5-4.7l1.8-2.8c.2-.2.8-.4 1-.3 1.5.9 2.9 1.4 4.2-.3.2-.2.8-.1 1.2-.2.9-.3 1.7-.6 2.6-.8.6-.2 1.3-.4 1.9-.4 2-.1 4.1.6 5.9-1.1.2-.2 1 .1 1.5.2-.1.4 0 1-.3 1.2-1.5 1.3-2.7 3.1-5.1 2.6-.2 0-.5.3-.8.5-1 .7-2.1 1.2-2.9 2-.5.5-.8 1.9-.7 2 1 .6 2.2 1.3 3.4 1.4l6.7.2c.5 0 1 .7 1.5 1-.5.2-1 .6-1.5.6-2.2 0-4.5.1-6.7-.1-1.4-.1-2.9-1.1-4.2-1-2.5.2-5 .9-7.5 1.4l-.9.6c-.8.1-1.6.1-2.4.1-1.6-.1-3.3-.4-4.8-.1-.5.1-.6 2.1-.8 3.2l.1.4c-.3 1.9-.6 3.7-1 5.6-.1.2-.7.4-1.1.4-.7 0-1.5-.3-2.1-.1-.5.2-.8 1.1-.8 1.7 0 .2.8.8 1.2.8.5 0 1.1-.4 1.6-.5.5-.1 1.3-.2 1.6 0 .4.3.6 1.1.5 1.6-.2 1.6.3 2.6 2.1 2.7 1.8.1 1.5-1.3 1.5-2.3.1-1.6-.1-3.3.1-4.9.2-1.4.8-2.7 1.2-4 0-.1.4-.2.4-.2.2.2.4.4.4.6l.6 29.3c.1 5.7.1 11.5.3 17.2.1 2.3.7 4.5 1 6.8 0 .3.1.6 0 .8-2.5 3.7-.9 7.9-1.2 11.9-.3 6-.2 12-.3 18 0 4 .2 8 .1 11.9l-.8 6.3c0 1.7.8 3.4.7 5.1-.1 2.6-.9 5.1-1.1 7.6-.2 3.4-.8 7.1.1 10.2 1.5 5 .6 10 1 14.9.2 2.2.8 5-.2 6.7-1.3 2.3-1.3 4.7-.9 6.6.9 3.6 1 7.3 1.3 10.9.1.8 2 2 3 2 4.2 0 8.3-.5 12.5-.8l9.9-.4c.5 0 1.3-.8 1.4-1.3.5-2.7.6-5.2 0-8-.9-4.4-.3-9-.2-13.6 0-1.4 1.4-3.3.9-4.2-1.8-2.8-.8-5.8-.9-8.6 0-2.5.8-5.1 1-7.6.2-2.6.2-5.2.2-7.8v-70.3c0-.8.8-1.6.9-2.5.1-1.2-.2-2.3-.4-3.5-.1-.6-.7-1.3-.5-1.6 1.1-1.6.3-3.2.2-4.8-.1-1.5.6-3.2.8-4.8.1-.9-.3-1.9-.5-2.8l-.2-.2c0-3.1-.5-6.3.2-9.2.4-1.7 1-4.5.3-6.3-.5-1.4-.2-3.2-.1-4.8.1-2.5.5-4.9.5-7.4.1-5.2 0-10.5 0-15.7 0-3.7-.1-7.4.1-11 0-.8.6-1.5 1-2.3l.7.2v29.6c0 3.6.5 7.3-.2 10.7-.6 2.6-.2 4.9.1 7.4.3 2.3.7 4.9-.2 6.8-1.4 3.1-.9 6.2-.9 9.3.1 2 1 4.1 1 6.1-.1 2.6-.8 5.1-1.1 7.7-.1 1.2.1 2.5.4 3.7 1 3.3.6 6.5-.1 9.8-.6 3.3-.4 6.8-.4 10.2-.1 10.5 0 21 0 31.6v38.4c0 2.8.4 5.6.5 8.5 0 2.8-.4 5.7-.3 8.5.1 2.8.5 5.6 1 8.4.5 2.8-1.7 5.8-4.5 5.7-6.7-.3-13.3-.9-20-1.1-2.4-.1-4.8.6-7.1.7-1.1 0-2.2-.7-3.2-.6-3.2.1-6.3.5-9.5.5l-6.8-.5c-2.8.1-5.5.7-8.2.8l-3.9-.8c-.8-.1-1.7.5-2.6.8-.2.1-.5.2-.6.2-2.2-1.6-4.5-.2-6.7-.1-1.7.1-3.4-.4-5.1-.7-.7-.2-2-.4-3.4-.6zm48.4-75.9v-14.8c0-3.2.1-6.4-.1-9.6 0-.6-1.1-1.3-1.8-1.6-.4-.1-1.5.6-1.5 1-.3 3.2-.3 6.5-.7 9.7-.4 3.1-1.2 6.2.6 9.1.2.3 0 .8 0 1.2-.4 1.8-1 3.6-1.2 5.4-.2 2.1-.1 4.2 0 6.3 0 .5.3 1 .5 1.5.2.6.8 1.1.8 1.6-.3 2-1.3 4-1.3 6-.1 12.8 0 25.5.1 38.3 0 3.2-1.1 6.5.9 9.5.1.1 0 .4-.1.6-1.5 2.7-1.3 7.3.7 9.5.4.4 2.1.4 2.5 0 .5-.5.3-1.7.2-2.6-.1-.8-.5-1.5-.7-2.2-.1-.7-.1-1.4 0-2 .3-2.4.7-4.9.9-7.3.1-.9 0-1.7-.1-2.6l-.2-2.9c0-1.9.2-3.8.1-5.7-.1-1.5-.9-3-.8-4.5.2-3.1 1.1-6.2 1.1-9.3.2-11.6.1-23.1.1-34.6zm-2.8-48.3c1.2-1.5 1.9-2.2 2.4-3 .2-.3-.2-1.2-.5-1.5-1-.9-2.2-1.7-3.4-2.3-.3-.2-1.1-.1-1.4.1-.2.3-.2.9-.1 1.4.2.8.5 1.6.9 2.3.6.8 1.2 1.6 2.1 3zm-2.8 55.8c-1.1-.8-1.8-1.6-2.2-1.4-1.1.4-3.3-.8-3.2 1.5 0 .5 2.1 1 3.2 1.2.5.1 1-.6 2.2-1.3zm-6.3-68.4c.5.5.9.9 1.3 1.4.3.4.5.8.8 1.1l1 1.1c.3-.4 1-.8.9-1.1-.4-1.2-.9-2.4-1.5-3.5-.2-.3-1.1-.4-1.7-.3-.2 0-.4.6-.8 1.3zm2.2-6c1.2.9 1.9 1.7 2.1 1.6.9-.5 1.6-1.2 2.4-1.8-.5-.4-1.1-1.2-1.6-1.2-.7.1-1.4.7-2.9 1.4zm6.5 5.6c-1.2-1.4-1.5-1.7-1.7-2-.6.7-1.2 1.3-1.7 2.1-.1.2.6 1.1.7 1 .9-.2 1.7-.7 2.7-1.1zm13.4-43.1c1.5.3 2.5.9 3 .6 1.3-.8 1.4-1.9-.5-1.9-.7-.1-1.4.7-2.5 1.3zm-14.7 68.7c.6.7 1 1.1 1.4 1.5.4-.5 1-.9 1-1.4 0-.3-.6-.9-1-1.1-.2-.1-.7.5-1.4 1zm1.7-2.8c-1.2-1-1.6-1.6-1.9-1.6-.4 0-1.1.8-1 1 .2.5.6 1 1.1 1.2.4.1 1-.3 1.8-.6zm-6.2 42.2l.6-1c-.6-.2-1.2-.6-1.7-.5-.3.1-.8.8-.8 1.2 0 .3.6.8 1 1 .1.1.5-.4.9-.7zm-2.1-71.7c-.4.5-.7.7-.8 1 0 .1.5.6.6.5.4-.1.6-.5 1-.7l-.8-.8zm9.1 38.5c-.5-.3-.8-.5-1-.5-.3.1-.5.4-.8.6.2.2.5.6.7.6.3 0 .6-.4 1.1-.7zm-91.6-54.6c-.1 5.2-2.7 8.1-5.8 10.8l-4.8 4.4c-.3.3-.8.6-1.2.5-2.3-.3-3.9.9-5.4 2.4l-4.4 3.7c-1 1-1.7 2.3-2.8 3.3-.6.6-1.7.8-2.5.9-.1 0-.5-1-.7-1.6-.1-.3-.2-.7-.5-.8l-6.4-2.8-3.7-2.2c-2.1-1-4.3-1.9-6.4-2.8-1.2-.5-2.3-1.1-3.4-1.7l-5-2.2c-1.9-.8-3.8-1.6-5.6-2.3l-.7-.3-1.7-.7c.2-.4.4-1.1.5-1.1.9.1 1.8.3 2.6.5.4.1.7.5 1 .7 1.1.5 2.2.9 3.3 1.2 1.5.5 3.1.8 4.5 1.4 1 .4 1.8 1.1 2.7 1.7.4.3 1 .8 1.2.7.8-.5 1.5-1.1 2-1.8.2-.2-.4-.9-.4-1.4-.1-1.1 0-2.1.1-3.2 0-.4.5-.7.5-1-.1-.4-.5-.7-.8-.9-.5-.4-1-.7-1.5-1l.3-.5c.6.2 1.2.3 1.8.6 1.3.6 2.5 1.2 3.7 1.8l2.5 1.2c.1-.4.4-1.1.3-1.2-.8-.8-1.8-1.5-2.7-2.2l-.9-.9c-.1-.1.2-.6.2-.6.6 0 1.6-.2 1.8.2 1.2 1.7 3.4 3 3.3 5.5 0 .5.7 1 1 1.6.4-.5 1-.9 1.1-1.4.5-2.1 1-4.2-1-6-.7-.7-1-1.9-1.3-3-.1-.2.6-.8 1-.8 1.5-.1 2.9-.1 4.4 0 1.9.1 2.4-1.2 2.9-2.5.1-.3 1-.6 1.3-.4 1.2.7 2.1 2.3 3.3-.5.9-2.3 3.3-4 4.4-6.3.7-1.4 3.2-3 .7-5-.1-.1-.1-.2-.1-.3v-6.8c0-.2.8-.5.9-.4.7.9 1.4 1.9 2 2.9l2 3.6c.6 1.1 1.2 2.2 2 3.2 2.7 3.3 5.5 6.6 8.4 9.6 1.6 1.5 2.4 2.9 2 4.2zm-40.2 7.7c-.4.7-.9 1.3-1.1 2-.6 2.3 1 3.3 2.6 4.1 2 1 3.5.4 3.5-1.3-.1-1.3-3.1-4.4-5-4.8zm27.5-12.9c-.9-.7-1.4-1.3-1.6-1.2-.7.3-1.2.8-1.8 1.2.5.4.9 1.1 1.4 1.1.5.1 1.1-.5 2-1.1zm-6.8 14.8c.6-.9 1.2-1.4 1.2-1.8-.1-.5-.8-1-1.2-1.1-.4 0-1 .7-1.1 1.2-.1.4.5.8 1.1 1.7zm-75.8-110.3l4.5.5c.9.1 1.7.4 2.6.6-.1-1 .1-2.1-.3-2.9-.9-1.8-4.8-2.4-6.8-1.9-2.2.5-4.8 1.2-6.6-.9-1.7-2-3-4.4-4.4-6.7-1.2-2-2.4-4-3.5-6-.7-1.3-1-2.7-1.6-4-2.9-5.5-.8-11.5-1.3-17.2-.1-.7-.1-1.5 0-2.2.4-1.8 1-3.6 1.5-5.4.1-.2.7-.5.8-.4.3.2.6.6.6 1 0 1.7.1 3.4-.1 5.1-.3 2.7-1 5.3-1.1 8-.1 1.7.7 3.3 1.2 5 .1.2.6.5.7.5 1.3-.6 3.4-1.1 3.8-2.1 1-2.4 1.1-5.1 1.6-7.7.2-.9-.1-2.1.4-2.7 1.8-2.2 5.7-2.5 7.9-.8.9.7 1.7 1.7 2.6 2.5.2.2.6.4.8.4 2.7-.5 3.9 1.7 5.4 3.2.2.2.4.4.6.5 1.7.9 3.4 1.7 5.1 2.5l6 2.8c.6.3 1.3.8 1.7 1.3.1.2-.6 1-1 1.4-.1.2-.5.3-.6.2-1.2-.7-2.3-1.4-3.5-2.2-.1-.1-.2-.3-.3-.3-1.9-.6-3.8-1.2-5.7-1.7-.4-.1-.9.2-1.3.3.3.7.5 1.8 1 2.2 1.9 1 4.1 1.6 6 2.7 1 .6 1.5 1.9 2.3 2.8.3.4.9.5 1.3.8.4.2.8.4 1.2.7-.3.4-.6.8-.7 1.2-.2.7-.3 1.4-.3 2l.4 1.2c-.1.3-.8.5-1.2.5h-6.1c-.4 0-.9-.2-1.1-.4-1.3-1.4-2.6-.8-3.2.3-.5.9-.2 2.3-.1 3.4.1.7.5 1.5.8 2.2.5 1.1 1.1 2.2 1.5 3.3.5 1.7.7 3.4 1.1 5.1.3 1.3.8 2.6.9 4 .1.9-.4 1.8-.6 2.7-.7-.2-1.5-.4-2.2-.7l-3.3-1.6c-.2-.1-.6 0-.8.1-2 2.6-2.5-.2-3.6-.9l-1.2-.7-2-1c.1-.2.2-.4.2-.6zm-3-11.8c-1.5.1-1.4 2-1.1 3.2.3 1.2 1.5 2.2 2.4 3.4 1-.8 2.4-1.5 2.8-2.5.4-1.4-2.1-4.1-4.1-4.1zm7.9-20.9c-.1.3-.1.6-.2 1 1.1.7 2.1 1.4 3.2 1.9.1.1.9-.6.9-.8-.3-1.1.1-2.7-1.9-2.6-.7.1-1.4.3-2 .5zm68.7-15.9c-1.4.7-1.8 3.1-3.2.9-.4-.7-.6-1.7-1.3-2.2-.8-.6-2.1-1.4-2.7-1.1-.9.3-1.8 1.6-2 2.6-.3 1.2.1 1.9-1.8 1.4-1.1-.3-2.7 1-3.9 1.7-1.1.7-2.2 1.7-3.1 2.7-1 1.1-1.7 2.7-2.8 3.6-1.1 1-2.7 1.9-4.1 2-3.2.2-6.1-.2-8.5 2.9-1.5 2-3.4 1.4-4.8-.9-.2-.4-.8-.8-.8-1.2 0-.9 0-1.9.3-2.8.3-.7 1.1-1.2 1.6-1.8 1.3-1.7 3.7-1.9 5.8-1.7 1.7.2 4-.4 5.3-1.5 1.9-1.7 3.5-3.7 6.4-3.8.2 0 .6-.3.6-.5 0-.4 0-1-.2-1.2-1.2-1.5-2.4-3.1-3.9-4.3-.5-.4-2-.1-2.8.4-1.6 1.1-3.1 2.5-4.6 3.8l-1.6 1.9c-.3.2-.8.2-1.2.3l.2-.9c.8-2 .1-3.6-1.9-4.2-1.8-.5-1.9-1.6-.9-3.2.6-.9.4-2.3.4-3.5 0-1.8 2.4-4.8 4.2-5.2l1.3-.7c.4-.2 1-.4 1.2-.2 2.5 1.9 5.2 1 7.8.7.3 0 .5-.5.8-.6.6-.2 1.2-.5 1.7-.4.2 0 .3.9.5 1.4.4.7.7 1.6 1.3 2.1 1.2 1.1 2.8 1.9 2 4-.1.3.3 1.1.6 1.2 2.2.6 4.5.8 6.5 1.7 1.3.7 3.9.6 3.5 3.4-.2 1.3 2.4 3.6 3.5 3 1.1-.6 2.1-1.7 2.5-2.8.4-1.4.2-3 .2-4.6 0-2.2-1-3.3-3.2-4-1.7-.6-3.2-1.9-4.8-3-.2-.2-.2-.7-.3-1 .7 0 1.6-.2 2.2.2 2 1.3 3.9 2.4 6.5 2.3 1.6 0 3.5 1.5 4.7 2.8 1.7 2 2.9 4.5 4.3 6.8.3.4.9.7 1.1 1.1.9 1.7 1.6 3.6 2.7 5.2 1.9 2.8 1 5.8.8 8.7-.1.9-1.1 2.5-1.9 2.5-1 .1-2.6-.7-3.1-1.5-.5-.9.1-2.4.3-3.7.1-.7.5-1.3.8-2 .3-.8.9-1.6.9-2.5.1-1.3.1-2.9-.5-4-.7-1.4-2-2.5-3.3-3.6-.3-.3-1.7 0-1.7.1-.1 1.9-.9 4.5 0 5.7 1.8 2.3.7 4.5 1 6.8 0 .3-.7.9-1.2 1-3.2.8-3.2-1.1-3-3.4 0-.5-.9-1.1-1.4-1.7-.4-.4-.9-.7-1.1-1.1-.7-1.3-1.3-2.7-1.9-4.1zm-21.5 6c2.4.3 2.9-.7 2.7-2.1-.1-.5-1.1-1.3-1.2-1.2-.9.7-1.7 1.4-2.3 2.3-.1.1.8.9.8 1zm-40.7-20.2c1.2 1.6 1.9 2.6 2.6 3.6l.5 1c2.9 2.5 5.7 5.1 8.7 7.6 1 .9 2.3 1.4 3.4 2.2.4.3.7.8 1 1.2-.5.4-1.1 1.2-1.6 1.1-1.9-.4-2.8.9-4.1 1.8-1 .7-2.8.3-4.3.3-.5 0-1.1-.6-1.6-.5-2.8.2-5-1.2-7.3-2.4-1-.5-2.4-.4-3-1.1-1.2-1.2-2.5-2.7-3-4.4-.2-.7 1.4-1.9 2.2-2.9.3-.5.5-1 .9-1.5.3-.4.8-1.1 1.2-1.1 1.5-.1 2.1-.7 2.4-2.1.3-.8 1.1-1.4 2-2.8zm84.3 197.3c.8-2 1.3-3.6 2.1-4.9 3-5.1 7.1-9.2 11.5-13.1 3.6-3.3 6.8-7 10.2-10.5 1.1-1.1 2.3-2 3.3-3.2.7-.8.9-2 1.6-2.9 2.6-3.5 5.2-6.9 7.9-10.3.9-1.1 1.9-2.1 3-3.1.3-.2.8-.2 1.2-.2.1 0 .3.6.2.9-.6 3-2.3 5.3-4.4 7.5-1.5 1.6-2.3 3.8-3.5 5.7-.3.4-.6.7-1 1.1-3.1 3.6-6.2 7.2-9.4 10.8-3.6 4.1-7.3 8.2-11.1 12.2-2.2 2.3-4.5 4.5-6.9 6.7-1.4 1.1-2.8 2-4.7 3.3zm20.1-49c.3-1.1.4-1.7.5-2.3.5-1.8 1.1-3.6 1.6-5.5.1-.5.2-1.2 0-1.6-.8-1.7-.1-3 1-4.3.1-.1.2-.2.2-.4.5-2.6 1.2-5.1 1.3-7.7.1-1.8.3-3.3 1.9-4.5.5-.3.8-1.2.8-1.9.1-2.4.1-4.9 0-7.3 0-.8-.6-1.6-.8-2.5-.2-.7-.6-1.7-.3-2.1 1.4-1.8-.2-2.8-.9-4-.2-.4-.1-1-.1-1.5.5.1 1.2.1 1.4.4.5 1.1.9 2.2 1.2 3.4.8 2.9 1.7 5.7 2.2 8.7.4 2.5.3 5.1.4 7.6.1 2.2.3 4.4-.1 6.6-.4 2.1-1.4 4.1-2.2 6.1-.4 1.1-1.4 2.3-1.4 3.4.2 3.5-2.9 4.7-4.5 6.9-.6.8-1.2 1.4-2.2 2.5zm3.1-79c2.1 0 3.9.2 5.5-.1 1.3-.2 2.5-1 3.5-1.9 1.3-1.1 5.1-1 6.3.1.5.4 1.8-.1 2.7-.2.9-.1 1.8-.5 2.7-.5.2 0 .4 1 .6 1.6l1.5 4.2c.1.2.5.3.7.5l4.6 3.9c.2.2.1.7.1 1.1-.4-.1-.8-.1-1-.3-2.6-2-5.6-2.8-8.9-3-1.3-.1-2.5-1.1-3.7-1.7l-.3-.3c-.8-.8-6.6-1.5-7.6-1-.5.3-1.1.4-1.6.4-2.1.1-4.2.2-6.4.2-.3 0-.8-.2-.8-.4-.1-.4-.2-1.1 0-1.3.7-.5 1.6-.9 2.1-1.3zm38.6 90.3l1.4-5.7c.4-1.4 1-2.7 1.6-4l1.3-2.6 2.1-4.8.3-.4c.5-2 1-3.9 1.4-5.9.8-3.6 1.6-7.2 2.4-10.9.1-.6.2-1.2.2-1.8v-14.5c0-.4.4-.8.6-1.2.4.3 1 .5 1.2.8 2.1 4.1 1.2 8.2.3 12.3-.2.9.1 1.9.1 2.8.1.8.3 1.7.2 2.5-.2 1.7-.3 3.4-.8 5-.6 2-1.4 3.8-2.1 5.8-.3.8-.9 1.7-.7 2.3.9 2.5-.6 3.9-1.9 5.6-.8 1-1 2.4-1.6 3.6l-1.2 1.7-2.8 7.6c-.3.7-.9 1.2-1.3 1.8-.2.1-.4 0-.7 0zm-86.8-117.5c-1.2.8-2.3 1.6-3.5 2.3-.6.4-1.2.7-1.8.9-.4.1-.9-.1-1.4-.2.2-.6.1-1.3.5-1.6 1.4-1.1 3.2-1.7 4.2-3 1.6-2 3-1 4.5-.3.6.3 1.2.7 1.9.9 1.2.2 1.7-.3 1.7-1.6.1-2.3-.5-4.3-1.5-6.2-.4-.6-1.1-1-1.6-1.6l-5.4-5.9c-.2-.2-.5-.5-.5-.8.2-2-1.2-3.1-2.4-4.3-.3-.3 0-1.1 0-1.6.5.1 1.3 0 1.4.3 1 1.7 1.6 3.6 2.7 5.2 1.3 1.7 3 3.1 4.4 4.8 1.6 1.8 3.5 3.5 4.4 5.7 1.1 2.7.2 5.3-1.8 7.6-1 1.1-1.5 2.4-2.9.4-.3-.5-1.7-.2-2.6-.3-.1-.4-.2-.5-.3-.7zm87.5 148.5l-.1-9.5c0-3.3-.1-6.7 0-10 .1-1.4 1-2.8 1.1-4.3.2-2 .1-4 .1-5.9 2.1 0 3.4 2.4 2.8 5.3-.6 3.2-1.7 6.3-.5 9.9.7 2.1-.5 4.8-.9 7.2-.3 1.8-.4 3.5-.9 5.3-.2.7-1.1 1.3-1.6 2zm-125.3-191.1c.3-.5.9-1 .9-1.5.2-2.4 1.2-4.3 2.9-5.9.7-.7 1.2-1.8 1.9-2 2.1-.6 3.8-2.6 6.7-1.2 2.2 1 5.3.1 8 .5 1.7.2 3.2 1.3 4.8 2.1 1.1.5 2.1 1.2 3.1 1.8.3.2.5.6.5.9 0 .2-.3.7-.6.7s-.7-.2-1-.4l-2-.9c-1.2-.6-2.3-1.4-3.4-2-.4-.2-.8-.5-1.2-.5-3.5-.1-7-.1-10.5-.1-3 0-5 2-6.1 4.7-.6 1.6-2.3 2.9-3.4 4.3-.1-.1-.4-.3-.6-.5zm52.3 67.8c.4 3.2-1.7 4.9-3.7 6.6-1.9 1.7-2.3 6.2-.9 8.4.5.7.2 1.9.3 2.8-.3 0-.8.1-.9-.1-.3-.5-.5-1.1-.7-1.7-.5-1.3-.8-2.8-1.6-3.9-1-1.3-1-1.9.1-3.1 1.2-1.2 1.8-2.8 2.9-4.2 1.5-2 2.9-4 2.4-6.6-.3-1.7-1.2-3.4-2-5l-1.9-4.1c-.1-.2.1-.5.2-.8.3.1.7.2.9.4 1 1.4 2.3 2.7 2.9 4.3.9 2.2 1.4 4.6 2 7zm20.3 23c2.8.1 4.9 1.2 6.7 3.1.8.8 2.2 1.1 3.3 1.7.5.3 1.1.7 1.5 1.2.2.2-.1 1.1-.4 1.2-.6.2-1.3.1-1.9 0l-10.6-1.9c-1-.2-2.1-.1-3.1 0-.6 0-1.2.2-1.8.4-.5.1-.9.3-1.4.5-.2-.5-.6-1-.4-1.4.2-.4.8-1 1.2-1l7.8-.2c.5 0 .9-.5 1.3-.7-.3-.5-.5-1-.9-1.4-.3-.7-.8-1.1-1.3-1.5zm-56.3 5.8c.1-2.9.2-5.8.5-8.7.3-2.7.7-5.5 1.4-8.1.3-1.2 1.5-2.1 2.4-3.2.1-.1.6.2.8.4.3.3.7.8.6 1.1-.3 1.8-.5 3.7-1 5.5-.4 1.5-1.1 3-1.6 4.5-.3 1-.8 1.9-.9 2.9l-.1 8c0 .4-.3.7-.5 1.1-.3-.3-.7-.5-.9-.8-.5-.8-.9-1.7-1.3-2.5.2-.2.4-.2.6-.2zm.1-47c-1.2 1.3-2.1 2.9-3.5 3.6-1.7.9-3.9.9-5.8 1.6-1.4.5-2.7 1.4-4 2.1-.1 0-.1.1-.2.2-1.3.9-2.6 1.8-4 2.7-.3.2-.8-.1-1.3-.1.1-.3 0-.8.2-1 2.2-1.5 4.4-3 6.6-4.4l4.4-3.1c1.3-.8 2.7-1.3 4-2l1.4-.6c.4-.2.9-.6 1.1-.5.4.1.6.7 1.1 1.5zm18.9 48.7c.6-.3 1.3-.6 2.1-.9.2-.1.5-.1.6 0 .4.7 1.1 1.5 1 2.2-.1 1.1.9 2.7-1.3 3-1.5.2-2.9 1-4.4 1-.8 0-1.6-1-2.3-1.7-.1-.1.5-.9.7-1.4.8-1.4 1.3-3.1 3.6-2.2zm.4-7.7c-1.6.8-3.5 1.2-4.8 2.4-2.2 1.9-3.9 4.3-5.9 6.4-.3.3-1 .3-1.5.4 0-.5-.1-1.1.1-1.6.3-.9.5-1.9 1-2.7.9-1.3 1.9-2.5 2.9-3.7 1.3-1.6 2.8-1.8 4.6-.7.4.3 1.5-.5 2.3-.8 1-.4 1.9-.8 2.9-1.1.1 0 .5.4.5.6 0 .3-.2.7-.4.8-.5.2-1 .2-1.6.2 0 0-.1-.1-.1-.2zm-6.6-16.1l4.9 2.4c.3.1.5.3.8.5.3.1.6.2 1 .4-.2.3-.3.7-.5.8-.3.1-.9.2-1.2 0-2.3-1.5-5-.8-6.6 1.3-.4.6-1.8.5-2.7.7-.1-.9-.5-2.3-.1-2.8 1.3-1.3 2.9-2.2 4.4-3.3zm12.6-24.7c-.5 1.1-1 2.1-1.4 3-.2.4-.2.9-.3 1.4-.4-.3-.9-.6-1.1-1-.6-.9-.9-2-1.6-2.8-.3-.4-1.1-.5-1.6-.8-.4-.2-.7-.6-1-.9.4-.3.8-.9 1.1-.8 1.8.4 3.6.9 5.4 1.4.3 0 .4.4.5.5zm68.8 89.6c-1.4 2.7-2.3 4.6-3.3 6.4-.4.7-.6 1.5-1.1 2.1-.3.5-.9.7-1.4 1.1-.1-.4-.5-1-.4-1.3 1-2.3 2.2-4.5 3.3-6.7.2-.4.3-.8.6-1.1.3-.3.7-.7 1.1-.8.5.1 1 .3 1.2.3zm-107.3-52c-2.1-1-3.8-1.8-5.4-2.8-.3-.2-.1-1-.2-1.6.6 0 1.3-.1 1.9 0 1.1.2 2.3.5 3.3 1 .8.4 1.4 1.2 2.1 1.8-.5.5-1.1 1-1.7 1.6zm24.5-44.3c-1.7.1-2.9.3-4.1.3-.5 0-1.1-.4-1.6-.7.6-.8 1-2 1.7-2.4.8-.4 2.3-.5 2.8 0 .8.7.9 2.1 1.2 2.8zm-11.1 21.5c-1.2 1.4-2.3 2.6-3.4 3.9-.1.1-.3-.1-.5-.1h-1.9l-1.2.1c-.1 0-.4-.6-.3-.6l1-.6c1.3-1.1 2.6-2.1 3.8-3.2.4-.3.8-.8 1.2-.8.3-.2.6.5 1.3 1.3zm-3.3-7.1c-.6 1.3-1.1 2.3-1.7 3.4-.1.2-.7.2-.9.1-1-.4-2-.8-2.9-1.3-.2-.1-.2-.5-.3-.7 1.7-.7 3.3-1.4 5-2 .2-.1.6.4.8.5zm-24.1-30c1.9.4 3.7.7 5.6 1.2.2.1.5.6.5.8-.1.3-.6.7-.8.6-1.3-.3-2.6-.6-3.9-1-.5-.1-1.1-.1-1.6-.3l-2.3-1 1.8-.6c.3-.1.5-.1.8-.1-.1.2-.1.3-.1.4zm39.7 28c.4.3.7.4.8.6l2.3 4.2c.1.1 0 .5-.2.6-.1.1-.5.1-.6 0-1-1.4-1.9-2.8-2.8-4.2-.1-.2.3-.7.5-1.2zm-22.2 4c-.8 1.3-1.5 2.6-2.4 3.7-.2.3-.9.4-1.3.4-.2 0-.5-.9-.4-1.1 1-1.1 2.2-2.1 3.3-3.1.1 0 .5.1.8.1zm33.1 19c-.6-.7-1-1.1-1-1.2.7-.9 1.4-1.7 2.1-2.5.3.3.8.8.7.9-.4.9-1 1.7-1.8 2.8zm85.6 113.3c-.4.6-.8 1.2-1.2 1.7-.1-.1-.3-.4-.3-.4l1-1.7c.1.2.3.3.5.4zm-127.6-191.2c.3.4.5.6.5.8 0 .1-.3.4-.4.3-.2-.1-.4-.3-.5-.5 0-.1.2-.3.4-.6zm127.4 190.5v.2-.2zm-88.8 55.5c0 .2.1.4 0 .6-.2.8-.5 1.6-.7 2.3-.7-.8-1.6-1.6-2.2-2.5-.5-.8-.8-1.8-1.1-2.8-.2-.5-.3-1-.2-1.5.1-.2 1-.5 1.2-.3 1.2 1.2 2.3 2.5 3.4 3.7-.1.2-.3.4-.4.5zm-13.4-6.5c-1.2 1.4-2.4 2.8-3.7 4.1-.2.2-.9 0-1.1-.2-.2-.2-.1-.8 0-1.1.7-1.2 1.5-2.4 2.3-3.6.4-.6.9-1.1 1.3-1.6.3.5.6 1.2 1.2 2.4zm16.9 20.9c-1.3.8-2.3 1.4-3.3 2-.2-.5-.6-1-.5-1.5.2-1.2.6-2.4 1-3.6.6.7 1.3 1.4 2.8 3.1zm-102.4 1.7c-.3.4-.4.8-.6.8-.3.1-.8.1-1 0-1-.9-1.9-1.9-2.8-2.9-.2-.2-.1-.9.1-1.1.3-.3.8-.5 1.2-.7.1.3.2.6.4.9.6.7 1.2 1.4 1.9 2.1.2.2.5.5.8.9zm115.1-2.5c-.9.7-1.5 1.1-2.1 1.5-.1 0-.7-.6-.7-.7.4-.7.9-1.3 1.3-1.9.4.2.7.5 1.5 1.1zm-134.7-28.1l-.8.4c0-.1-.2-.3-.1-.4.2-.2.5-.3.8-.4 0 .2 0 .3.1.4zm134.6 62.4c-4.2-.2-8.5-.6-12.7-.5-2.4 0-4.7 1-7 1.2-2.3.2-4.6 0-7-.1-.9 0-1.8-.2-2.5-.6-.8-.4-1.4-1.1-2.1-1.6.7-.5 1.4-1.3 2.1-1.4 5.2-.1 10.5-.2 15.7.1 4 .2 8 .9 12 1.5.5.1 1 .5 1.5.8v.6zm-50.8 18.8c-.9-1.5-1.7-3-2.6-4.6-.6-1.2-1.2-2.4-1.7-3.6-.5-1.1-.7-2.3-1.3-3.3-1.3-2.2-2.6-4.4-4-6.6l-1.5-1.9c-.3-.4-.4-1.3-.3-1.4.5-.3 1.2-.6 1.7-.4 1.3.6 3 1.1 3.6 2.1 1.1 2.3 3.6 3.8 3.7 6.8.1 2.4 1.5 4.6 2.2 7l1.6 6.5c.2.8.5 1.5.7 2.2.1.4.2.7.2 1.1 0 .1-.5.3-.7.2-.3-.2-.6-.5-.7-.8-.5-1-1-2.1-1.5-3.2.1.1.4 0 .6-.1z"/></svg>