<svg xmlns="http://www.w3.org/2000/svg" viewBox="0 0 277.6 247.8" enable-background="new 0 0 277.6 247.8"><path d="M72.5 228.3l-1.7 5.7c-1.4-5.7 6.8-18.5 10.2-19.9.2-.8.2-2 .5-2.1 2.4-.7 3-3.3 4.8-4.5.2-.2.3-.5.5-.8.2-.2.3-.4.5-.5.9-.8 1.8-1.6 2.7-2.2 3.4-2.5 6.7-5 10.2-7.3 1.7-1.1 3.8-1.8 5.7-2.7 1.1-.5 2.1-1.2 3.6-2.1-2.6-.9-4.6-1.6-6.3-2.1-.1 1-.1 2.1-.5 3.2s-1.2 1.7-2.6 2c-2.5.4-4.5 2.2-6.7 3.5-2.7 1.6-4.1 3.9-5.7 6.3-.3.4-.3 1.1-.4 1.6-.2.2-.3.4-.5.5l-1.3-.5c.4-.7.8-1.3 1.1-1.9-.2.1-.4.2-.7.2-.7-.9-1.4-1.8-2.2-2.7-.3.9-2.9.6-2.5 3 .5-.3.9-.5 1.8-1.1-.8 2.2-1.4 3.8-2 5.5h-.4l-1.1-3.6c-3.2 1-2.4 4.4-4.5 6 1.3 1.2 1.4 2.2-.2 2.7.2.9.4 1.7.6 2.4l-.6.2c-.1-.2-.3-.4-.3-.7-.1-.2-.1-.5-.1-1l-.8.9-3.3 10.9c-.3 1-.5 2.1-.8 3.3-3.2.1-3 3.2-3.4 5.4-.5 2.5-.4 5.2-.6 7.8 0 .4-.3 1-.6 1.2-.9.4-1.2.8-1 1.8.1.3-.9 1-1.5 1.2-.2.1-1-.8-1.1-1.3-.2-4.1.5-8.1 1.6-12.1 1.1-4.1 3.3-7.6 4.9-11.4.8-1.8 1.4-3.7 2.1-5.6-2-.5-3.7-.9-5.5-1.3-.4.4-.9.9-1.5 1.6-.4-2.1-1.6-3.9-.1-5.5-.6-.7-1.1-1.4-1.8-2.3-2 .6-2.4 2.7-2.8 4.5-.7 2.7-1 5.5-1.6 8.7-1.1-.7-2-1.3-2.9-1.9-.1 0-.1-.1-.1-.1-.7-.2-1.9-.4-1.9-.6-.1-1.6.1-3.1.3-4.7l.3-2.2-.5-.1-.8 3.1c-1.5-1.5-.6-2.9-.4-4.3 0-.3-.1-.7-.2-1-.4-.4-.8-.9-1.3-1.4.6-.2 1.1-.4 1.6-.6l-.3-.7c-.6.3-1.4.5-1.8.9l-4 4.9c-.3.4-.8.8-1.5.9.3-.8.7-1.6 1-2.5.7-.6 1.3-1.2 2-1.7-.2-.1-.4-.3-.5-.4l-1.4 2.2c-1.1.9-2.2 1.9-3.4 2.7-.2.2-1.1.1-1.2-.2-.8-1.3-.3-4.1.7-5.3.9-1.1 1.8-2.2 2.7-3.4.3 0 .8.1.9 0 .5-.6.8-1.2 1.2-1.9-1.1-.5-1.9.1-2 2-.2 0-.4-.1-.6 0-2.7 1-6.8 7.1-6.6 9.8 0 .4.5.7.7 1 .3.4.9 1 .8 1.2-.2.5-.8 1-1.3 1s-1.2-.4-1.5-.9c-2.3-3.9-2.3-6.1.8-9.8 2.4-2.9 5.2-5.5 7.9-8.2.7-.7 2-.7 2.6-1.4 1.2-1.5 2.1-3.3 3.2-5 .5.2 1.3.5 1.9.7.6-1.9 1.1-3.5 1.6-5.1l-.3-.1-1.8 4.1-.7-.1v-3.6c-.3.2-.9.3-1.2.6-1.3 1.7-2.5 3.4-3.9 5-.4.5-1.2.7-1.8 1.1-.2-.1-.4-.3-.5-.4.7-1.2 1.3-2.4 1.9-3.4-.9-3.2 2.5-4.5 2.9-7.1-2.6 0-3 2.7-4.7 3.8-.2-.1-.4-.3-.5-.4 1-1.5 2-3 2.7-4.1-.8-2.2-1.5-3.9-1.9-5.7-.1-.3 1.3-1.2 2.1-1.3.7-.1 1.6.5 2.7.8-.8-1.6-1.3-2.9-1.9-4.1l-.6-1.7 1.7-.2c.2 0 .3-.1 1.2-.5-1.7-.5-2.9-.8-4-1.3l-4.5-1.8c-.3-.1-.4-.7-.5-1.1.4-.1.8-.3 1.2-.2 3.5.9 6.9 1.9 10.6 3-.4-2.9-1.2-4.7-4.3-5.1-2.9-.4-5.6-1.6-7.9-2.4-.8 2.5-1.7 5-2.6 7.8-.6-.4-1.1-.7-2-1.3-1.4 2.6-2.7 5.2-4.3 8.1.6.8 1.8 2 2.3 3.4.7 1.7.8 3.6 1.2 5.5.1.3-.1.7.1 1 1.3 2.1 1.3 3.5-1.6 4.1-1 .2-1.6 1.8-2.6 3-1.2-1.2-2.1-2-2.9-2.8-1.3 2.9-3.2 5.8-4 9.1-1.2 4.6-1.7 9.4-2.4 14.1-.3 1.8-.2 3.7-.6 5.5-.2.8-1.1 1.5-1.6 2.2-.4-.8-1-1.5-1-2.3l.2-4.3c0-1.5-.1-3.1-2.4-3.4v4.4l-3.4.4c.2.9.6 1.8.6 2.8l-.2 11.9.2 9.4c0 1.2.4 3-1.2 3.2-1.8.2-1.4-1.8-1.5-2.9-.5-8-.9-16-.3-24 .4-5 0-10-.1-15-.1-3.6-.1-7.1-.3-10.7-.1-2.8-.7-5.5-.7-8.2 0-5.3.2-10.5.3-15.8v-6.9c0-1.7 0-3.4-.1-5-.2-7.1-.4-14.1-.5-21.2l.2-1.9c-.2-6.1-.5-12.2-.6-18.4l.3-8.3c-.1-3.4-.4-6.8-.5-10.3-.1-1.6-.1-3.1-.1-4.7 0-3.9.1-7.9.2-11.8-.1-7.3.3-14.4.2-21.5 0-7.6-.5-15.3-.6-22.9-.1-4 .1-7.9.1-11.9 0-3.9-.1-7.8-.2-11.7v-8.4h-4.1c-2.3 0-2.5-.5-1.7-2.4h6.4c1.6 0 2.2.3 2 2.2-.3 3.2-.3 6.5-.4 9.7-.1 1.4.4 1.8 1.9 1.8 4.7 0 9.4.1 14.2.4 6.7.4 13.4 1.1 20 1.6s13.2.8 19.8 1.2c3 .2 6.1.7 9.1.7s6.1-.5 9.1-.7c1.3-.1 2.6 0 3.8 0v-.7c-2-.2-4-.4-5.9-.6-4.4-.4-8.7-.8-13.1-1.1l-5.2-.1c-5.3-.2-10.6-.5-15.9-.8l-17.4-1.2-17.3-.8c-.7 0-1.3-.6-1.9-.9.7-.3 1.4-1 2.1-1l22.8 1.9c5.6.4 11.1.6 16.7.9 7 .4 14.1.7 21.1 1.2 7.4.5 14.8 1 22.3 1.5 2.4.2 3.2.8 3.2 3.3.3 8.9.5 17.8.7 26.7 0 1.3.1 2.3 2 1.8 0-4.2.1-8.4 0-12.6-.1-6-.2-12-.5-17.9-.1-1.5-.6-2.4-2.6-2.6-9.6-.5-19.2-1.4-28.8-2l-26.8-1.3c-6.8-.3-13.5-1-20.3-1.5-3-.2-6.1-.4-9.1-.7-.8-.1-1.5-.3-2.2-.4l-.1-.7c.8-.3 1.6-.8 2.4-.8 4.6.2 9.1.4 13.7.8l16 1.4c1.5.1 3 .1 4.6.2 8.2.5 16.4.9 24.5 1.4 5.1.3 10.3.4 15.4.8l13.2 1.2c1.4.1 1.9.8 1.9 2l.2 16.6.4 12v5.8c.9-.4 1.7-.7 2.3-1.1 2.8-2 5.9-3.2 9.4-3.5 1.4-.1 1.3-1.3 1.3-2.1-.2-3.7-.5-7.4-1-11.1-.4-3.4 1.9-7.8 5.2-9.4l1.4-.7c-1.7-6.8-.9-13.7-1-20.7-.9-.3-1.9-.7-2.9-1.1v-.5c1.2-.2 2.5-.6 3.7-.6h20.4l11.1.3 14.2-.3c3.2 0 6.3.2 9.5.3 3.4 0 6.8-.2 10.3-.2 1.2 0 2.4.1 3.5.3.3.1.9.6.9.9.2 4.6.3 9.1.4 13.7 0 .3-.4.7-.3.6.3.5.6.9.6 1.3 0 5.1-.2 10.1-.1 15.2 0 2.9.3 5.7.4 8.6l.5 11.7c.1 3 .2 5.9.2 8.9l-.4 3.5c0 .8.4 1.6.5 2.4.1.4.2.9.2 1.3-.2 1.4-.6 2.8-.6 4.1-.1 3.6 0 7.2 0 10.8.1 5.4.2 10.7.2 16.1 0 .6-.5 1.2-.8 1.8-.5-.5-1.3-1-1.5-1.6-.3-.8-.1-1.7-.1-2.6l-.3-24.8c0-2.5.2-5.1.4-7.6l-.6-.3-6.1 6.6-9.1 9.9c-3.5 3.9-6.9 7.8-10.3 11.8-.2.3-.2 1 0 1.4.8 2.8 1.8 5.5 2.6 8.4.6 2.4 1 4.8 1.5 7.2.2.9 1.1 1.8 1 2.6-.3 2.2-1.1 4.4-1.5 6.7-.2 1-1.7 2.3.1 3.2-.3.3-.7.6-1.1.9l1 .7c.1.1.4.3.4.4-.7 2 1.6 3.4.7 5.7-.9 2.5-.8 5.4-1.1 8.2-.1 1.1-.3 2.1-.6 3.7 8.6-2.2 17-4.4 25-6.5-.3-1.7-.6-3.3-.7-4.8-.3-4-.6-7.9-.7-11.9-.1-3.6-.1-7.2-.1-10.7 0-.6.7-1.1 1-1.7.4.6 1.2 1.2 1.2 1.8.2 4.4.4 8.8.4 13.1.1 4.3 0 8.7 0 13.1 3-1.1 5.9-2.3 8.8-3.4 1-.4 2.2-.2 3.1-.6 5.1-1.8 10.1-3.8 13.9-8 1.4-1.5 3.2-2.3 5.3-2.3.6 0 1.2.1 1.7-.1.6-.2 1.1-.7 1.7-1.1-.4-.5-.7-1-1.2-1.4-.8-.7-1.8-1.1-2.5-1.9-.9-1-.4-2 .9-2 1.4 0 2.8.4 4.5.6 1.8-3 4.6-3.9 8.4-3.2 2.3.5 4.7.3 7.1.2 1.7-.1 2.7.5 2.9 2.3 1.4-2.2 5.6-1.9 7 .3 1.3-2.8 1.7-2.8 4.8-2.4 2.7.4 5.5.4 8.2.6.4-1.8 1.9-2.7 4.1-2.4 1.1.1 1.6.7 1.7 2.2 3.3.9 4.9 2.8 4.3 5.8-.1.6-.9 1-1.3 1.6-.3.4-.7.9-.8 1.4-.3 1.3-.1 3.3-.8 3.7-1.6.9-3.6 1-5.5 1.1-1.4.1-2.9-.6-4.3-.6-1.8.1-3.6.6-5.4.8-1 .1-2 .4-2.9.2-2-.6-2.8.6-3.1 2.1-1.2 5.7-1.9 5.1-7 4.6-.8-.1-1.7-.2-2.8-.3.2 1.1.5 2.1.6 3 0 1.1-.2 2.2-.4 3.3l-.4.7c.8 3.2-1.4 5.4-2.6 8-.6 1.4-1.6 2.4-3.3 2.5-2.6.3-5.3 1-7.9 1-2.2.1-4.4-.5-6.6-.8-1.5-.2-2.9-.5-4.4-.6-.4 0-.8.3-1.2.5-1.8 1-3.6 2-5.5 3.1.6 2.5 1.4 5.5 2.2 8.5.1.3-.2.9-.5 1.1-.2.1-.8 0-1-.2-.3-.3-.6-.7-1-1.4-1.7 3.5-4.8 4-7.6 4.9-2.9 1-5.9 1.8-8.8 2.9-.3.1-.5 1.1-.6 1.6-.2 1.5 1.5 3.3-.7 4.5l-.6-.5v-4.8c-2 .9-3.6 1.6-5.3 2.3h-.8l.1.3.7-.4c2.6-.8 4.2.4 5.3 2.6l.6.5c.7.3 1.4 1 2.1.9 4.6-.2 9.3-.6 13.9-.7 1.5 0 3.1.7 4.5 1.4 3.7 2 7.4 4.3 11.1 6.5.9.5 1.6 1.4 2.5 2.2-.5.3-.8.5-1.1.7 1.7 3 3.7 5.8 3.2 9.5-.3 2.5-.2 5-.6 7.4-.2 1.5-1.1 2.6-3.1 1.3.3 1.2.7 2.1.8 3 .3 2.7-.1 3-2.8 1.9.1.5.3.9.3 1.4 0 .5 0 1.2-.3 1.6-.3.3-1.1.4-1.5.2-2.6-1-5.7-1.3-6.9-5l-7.4 11.3c1.9-.1 3-.3 4.1-.3 1.4 0 2.9-.2 4.3 0 3 .6 5.9 1.4 8.9 2.1.9.2 1.8 0 2.6.3.6.2 1.4.9 1.4 1.4.2 1.3.1 2.7 0 4-.1 2.5-2.3 3.9-4.6 3-6.1-2.5-12.6-2.7-18.5-2.9-1.5 3.5-2.9 6.6-4.2 9.9-.5 1.4-.7 2.9-1.1 4.4-.4 1.3-.8 2.6-1.3 3.9-.1.3-.8.7-1.1.6-.3-.1-.8-.7-.8-1 0-1.1 0-2.3.3-3.3.6-2.2 1.5-4.3 2.3-6.6-2.5.2-1.7 1.9-1.8 3.3-1.1.2-2.3.4-3.5.6-.1.2-.2.7-.4 1-.3.4-.7.7-1.2.9-.1 0-.7-.6-.6-.8.1-.4.5-.7.7-1.1.4-.8 1-1.5 1.1-2.3 0-1 .5-2.6-1.7-2.6.6-2 1.1-3.9 1.6-5.8-.3-.1-.6-.2-.9-.2l-1.4 4.4-.5 1.5-.2.9c.3.1.6.1.8.2.5.1.9.3 1.4.5l-1.1 1.2c-.3.4-.6.7-1 1.1-1.1-2.9-2.3-3.8-4.2-2.9 2.3.7 3.5 1.9 3.4 4.3 0 .3.7.7 1.1 1-.4.8-.8 1.7-1.3 2.8-.4 0-1-.1-1.7-.2.5-1.1.9-1.9 1.3-2.7-.2-.1-.3-.2-.5-.4-.4.5-.8.9-1.4 1.6-.4-.8-.7-1.5-1.2-2.4-.5-.1-1.1-.2-1.9-.3-.6 1.9 2.9 4.1-.8 5.7-.4-.9-.9-1.8-1.3-2.8l-2.9-6c-.1-.2-.3-.4-.4-.7l-4.3-9.9c-.1-.3-.6-.8-.9-.7-2.2.5-2-1.4-2.1-2.5-.4-4.8-.1-9.7-1.1-14.3-.9-4.8-2.9-9.3-4.5-13.9-1.2-3.3-2.7-6.4-4-9.7-.5-1.2-.5-2.5.8-2.9-2.6-.9-5.2-1.8-8-2.8-.2.5-.3.9-.3.9-10.3-2.5-20.1-6.4-30.6-7.3-.1.2-.2.4-.2.6.8.4 1.6 1 2.5 1 3.2.2 3.3.2 2.8 3.3l3.6.2c-.2 3.2-3.1 3.4-4.6 5.1.7-.1 1.4-.2 2.1-.2 3.1-.4 6.2-.8 9.3-1.1 1.2-.1 1.7.2 1.1 1.5-.8 1.8-2 3.1-4 3.6-1.2.3-2.5.8-3.8 1.2 7.6 3 14.7 6 18.2 14.4.5-2 1-3.6 1.3-5.2.3-1.7.4-3.4.6-5.1.1-1.6.1-3.3.1-4.9-.1-1.6-.3-3.3-.5-5.1 3.4 1.2 4.2 2.3 4.4 5.2.1 2.4 1.3 4.6.5 7.2-1.2 3.8-1.9 7.8-3 11.6-1 3.6-2.2 7.1-3.3 10.6-.1.3.1.6.1 1.4 2.1-2.1 3.7-4.1 5.6-5.7 1.6-1.4 3.5-2.4 5.3-3.6.2-.1.8-.2.9 0 .5.7 1.2 1.4 1.2 2.1 0 .8-.4 2-1 2.4-6 3.4-10.4 8.1-13.2 14.3-.2.4-.3 1-.5 1-2.5.2-2.1 2.5-2.7 4 2.1-1.9 4.1-3.8 6.3-5.6.7-.6 1.6-.8 2.4-1.3 1-.7 2-1.3 2.7-2.2 3.6-3.9 6.3-8.4 7.8-13.6.5-1.7 1.2-3.2 1.8-4.8 1.6 1.1 2.6 3.8 2 5.9-2.5 7.7-6.1 14.7-13.2 19.2-3.8 2.4-6 5.9-7.2 10.1-.7 2.5-1.4 2.8-3.9.8v4c0 .6.1 1.3 0 1.9-.1.4-.6 1-.9 1-.4 0-1.1-.4-1.2-.7-.5-1.8-.8-3.6-1.2-5.4l-.6-.8c-.2-.6-.6-1.3-.5-1.9.2-1.1.6-2.2 1.1-3.9-2.1 2.2-2.3.7-3.3-.6-1.9-2.4-1.2-5.2-2-7.7-.8-2.2-1.9-3.8-3.7-5.1-.5-.4-1-.9-1.7-1.5-.2 1.2-.5 2.3-.7 3.7-.4-.6-.7-1.1-1.1-1.6-1.5.9-1.2 1.6.5 2.4-.7.1-1.1.1-1.5.2l.6 1.6-.6.3c-.4-.4-.7-.9-1.4-1.7-.7.8-1.5 1.6-2.4 2.6.5.3.9.5 1.6.9-1.2.5-2.2.9-3.1 1.4.7 1 1.1 1.7 1.6 2.4l.1 1.7c0 .5-.1 1-.3 1.4-.3.6-.8 1.2-1.3 1.8-.8-.5-.8-1.1.7-4.1-.6 0-1.4-.2-1.4-.1-.5 1.1-.9 2.3-1.5 3.8-.2 0-.9.2-1.8.3 1 .7 1.7 1.2 2.4 1.7-.7.6-1.4 1.5-2.3 1.7-.3.1-1.1-1.2-1.8-2-.1.2-.3.6-.6 1-.4.5-.8.9-1.2 1.3-.4-.6-1.1-1.1-1.2-1.8-.3-1.2-.3-2.5-.6-3.8-2.2 2.4-1.9 6-5.2 7.9 0-1-.2-2 0-2.9.9-2.6 1.9-5.2 2.9-7.7.1-.2.1-.5.2-.8l.6-1.5c-.2 0-.4-.1-.5-.1v1.7c-.5.3-1 .7-1.5 1.1-.1-.3-.2-.6-.3-1.2-2.5 2.9-5.1 5.6-4.1 10.5-1.1-.7-1.6-1.1-2-1.3-.4-.3-.9-.7-1.3-.8-3.1-.4-3.6-1.4-2-4.3l1.1-2.4-.6-.4c-1.6 2.1-3.1 4.2-4.7 6.4 0-.5-.1-1.3-.2-2.1h-1.6c-.2.9-.7 2-.4 2.7.6 1.4.4 2.3-.5 3-.5 1.8-1 3.5-1.5 5.2-3.3.4-4.5-.6-5.6-3-.9-2-2-3.7-1.2-6 .7-1.9 1.2-3.9 2-6.1-1.2 1.2-2.3 2.2-3.3 3.3-1 1-1.8.9-2.2-.7-.7.5-1.4 1-1.7 1.2-.1 1.4-.2 2.4-.3 3.4-.8.1-1.5.2-2.2.3l-.3.6c.7.5 1.4.9 2.2 1.4-1.3 2.7-3 .8-4.1 1 .5-1.3.9-2.5 1.4-3.9.3 0 .9-.1 1.5-.2v-.5l-1.2-.6 2.1-5.6-.6-.3c-.7 1.4-1.4 2.9-2.2 4.3-.5.8-.2 2.5-1.9 2.2v2.7c-1.4.2-2.8-.6-3-2.3-.2-2-.2-4.1-.2-6.1-1-1.2-1-1.9-.9-2.7zm-33.2-197.5l.3.3c0-.1 0-.1.1-.2-.2 0-.3 0-.4-.1-.1-.2-.2-.5-.2-.7v.1l-.2-.1h.1l.3.7zm138.1 43.8c.1 0 .3 0 .4-.1-.1 0-.2.1-.4.1.1.1.2.1.6.4-.4-.3-.5-.4-.6-.4zm-107.1 41.6l-.4-.5v-.7h-.3l.3.7c.2.2.3.3.4.5l.6.1c1.2 1.8 2.3 3.7 3.5 5.4.2-.5.4-1.1.6-1.7.5-2.2 2.2-3.5 3.4-5.3 1.8-2.7 3.1-5.8 4.6-8.7 1.5-2.8 2.9-5.6 4.5-8.3l8.7-14.7c.2-.4.3-1.1.1-1.3l-4.8-4.2c-.9 3-1.8 5.8-2.7 8.5-.5 1.6-1.7 2.2-3.4 2.3-.8 0-1.6.1-2.4.2.3 1.2.5 2.4 1 3.4 1.4 3.2.7 6.2-.6 9.2-.2.4-.8.6-1.2.9-.2-.4-.5-.8-.6-1.2-.3-1.8-.6-3.7-1-6.2-1 1.9-1.7 3.4-2.6 4.6-.9 1.2-1.8 2.8-4.2 1.9 2-4.1 5.5-7.4 5.9-12.3-.8.2-1.5.1-2 .5-1.8 1.4-3.5 3-5.3 4.5.5.5 1.2 1.1 1.8 1.6-.4 2.8-.9 5.4-1.3 8.1-.2 1.6-.4 3.1 1.3 4.2 1.3.9 2.1 4.9 1.3 6.5-.9-1.9-1.7-3.6-2.5-5.4-2.2 1.5-1.2-1.6-2.5-1.8.6 2.4.8 4.9 1.8 7 1 2.1.2 2.3-1.5 2.3-.1 0-.3 0-.5-.1zm-23.8 17l-.3-.5-.5-.3-.1.1.5.3.4.4c0 .1-.1 0 0 0zm47.2 93.2c0-.1.1 0 0 0-.1.1-.2.1-.3.1 0 .1.1.2.1.2.1-.1.2-.2.2-.3zm-36.5-110.7l.1-1.1 1.7-1.6-.6-.4-1.1 2.1-.1 1c-.2.1-.5.1-.8.2-.5.8-1 1.6-1.5 2.5-1.2.6-1.7 1.5-2 2.6l.7.4c.4-1 .8-2 1.3-3.1.5-.8 1-1.6 1.5-2.5.2 0 .5 0 .8-.1zm-3.4 30.9c-.3-.1-.6-.1-.8-.2l-.5-.5-4.6-2.4c-.1.2-.2.4-.3.5 1.4 1.2 2.9 2.2 4.9 1.8l.5.5c.3.1.6.2.8.3zm-1.1-126.6c.2-.1.3-.2 0 0 .2-.3.1-.1 0 0l-.6.4-2.4.7-.4-.5c.3-.1.7-.2.9-.4.2-.2.2-.5.4-.8-1.6-.1-1.8.1-2 2 0 .4.5 1.1.9 1.2 1 .4 2.5-1 2.6-2.2.2-.2.4-.3.6-.4zm-13.1 131.6c.2.1.4.2.7.3 0-.1 0-.2.1-.3-.3.1-.6.1-.8 0-.1-.1-.2-.2-.2-.3l.2.3zm106.2-2.4h-.9l.7.6.2-.6zm-8.1-.5l.3-.3c-.1-.1-.2-.1-.2-.2 0 .2 0 .4-.1.5 0 .1-.1.2-.2.3.1-.1.2-.2.2-.3zm-5.4-.6h1.2l.5-.5 1.4-1.3c1.9-1 3.8-2 5.9-3.1-.6 2.5-1 4.5-1.5 6.5l.3.1c.7-1 1.3-2 2-3.1l.6.2c-.2 2.1-.3 4.2-.5 6.6l.4-.7c1.6-3.5 3.1-7.1 4.8-10.6.4-.8 1.4-1.9 1.9-1.8 1.7.4 1.8-1.1 2.8-1.8-.7-.9-1.4-2.5-1.9-2.4-2.9.3-5.8.9-8.7 1.4l.1.6c2.4.4 4.8-1.2 7.2 0-2.9 1.6-5.6 2.9-8.3 4.4-1.8 1-3.4 2.3-5.1 3.4l-1.3 1.4-.5.6c-.5.2-.9.2-1.3.1l-.1.6-1.2.8c-.1 0-.1 0-.2.1v.1l.1-.3 1.2-.7.2-.6zm-32.7 75.3l.1-.2c-.1.1-.1.2-.1.2 0-.3 0-.5.1-.8h-.3c0 .3.1.6.2.8zm68.2-138.4v.3l-.3-.1c0-.1.1-.2.3-.2 0 .1 0 .1-.1.1l.1-.1zm-110 114.3c-.1 0-.3 0-.4.1l.1.3c.1-.2.2-.3.3-.4 0-.1 0-.1.1-.2 0 0 0-.1-.1-.1v.3zm-18-170.9l-.2 1.4 1.3.6c0-.2.1-.4.1-.7l-1.4.1c0-.5.1-1 .2-1.4l.3-.3-.2-.2c-.1.1-.1.3-.1.5zm-9.1 113.8c.1-.1 0-.1 0 0 .2 0 .4 0 .7.1v-.3c-.2 0-.4.1-.7.2zm156.2 89.6l.5-.6-.3-.2c-.1.3-.2.6-.2.8zm-129.6-83.4l-.6-.4-.1.3c.3 0 .5 0 .7.1.3.1.6.3.9.5l.1-.4c-.3-.1-.6-.1-1-.1zm107.6-59.6c-.2.2-.4.4-.6.5l.3.2c.1-.3.2-.5.3-.7 0-.1.1-.2.2-.2l-.2.2zm-119.2 102.3l.7-.5-.2-.2c-.2.3-.3.5-.5.7-.1.2-.3.4-.5.6l.3.1c.1-.2.1-.4.2-.7zm8.7-77.7c-.4.2-.8.4-1.2.5l.1.1v-.1c.3-.1.7-.3 1.1-.5l-.1-1.4c.4-.1.9-.1 1.1-.3.7-.7 1.1-1.8 1.8-2.3 1.1-.9 1.2-1.5.5-2.8-2.1-4.1-4.2-8.2-5.1-12.9-.3-1.6-.4-4.1-3.5-3.2-.6.2-1.9-.7-2.3-1.3-1.2-1.9-2.1-4-3.1-5.9-.3-.5-.7-1-1.4-1.9-.6 1.6-1.1 2.7-1.3 3.8-.2 1.5-.9 2-2.9 2 .4-1.9.9-3.6 1.2-5.4l1.2-2.2c-.2-.1-.5-.2-.7-.2l-.5 2.5c-2.2.6-2.8 2.5-3.4 4.3-.8 2.4-.4 2.7 2.1 3.1 3 .4 5.8 1.2 7.9 3.6 1.3 1.5 1 2.6-.9 3.3-.3.1-.6.4-.9.7-2.8 2.1-5.5 4.2-8.5 6.4 1.2 6.2 11.5 19.9 16.5 21.1-2.6-3.2-5.7-6.1-8.2-9.4-2.6-3.3-4.6-7.1-5.2-11.5 4 5.1 6 11.7 11.8 15.5.6-1.2 1.1-2.2 1.6-3.3l-.3-.2c-.6.6-1.1 1.2-1.7 1.9l-.4-.3 4.2-6.5.7.4c-.2.4-.5.8-.7 1.3.5.3.5.7.5 1.1zm36.3 96.7l1.4-1 2.7-2.8-.6-.5-2.1 3.3c-.4.4-.9.7-1.4 1v.1-.1zm-13.4 22.5c-.9.4-1.6.8-.9 1.9h-.1l.1.1c.2-.7.5-1.4.9-2-.1-.5-.1-1-.1-1.6l2.7-4.2c-.2-.1-.4-.2-.7-.4l-2 4.6c.1.6.1 1.1.1 1.6zm-34.7-102.3l-2.4-.4c.3-2.2 1.6-1 2.4-.6 1.6.9 3.2 2 5.2 3.4-2.5-4.1-5.5-6.6-9.9-7.3-.5.9-1.2 2.1-1.9 3.4 1.5.4 2.8.8 4.2 1.1.8.1 1.6.2 2.4.4zm15.9 50.4l1.1-1c-.2-.1-.4-.2-.5-.3l-.6 1.3-.4.3c-1.7 1.4-2.6 3.2-3.1 5.3l.6.3c.8-1.9 1.6-3.7 2.5-5.6l.4-.3zm23.8 41.9l-1.5.9.4.5c.4-.4.8-.9 1.1-1.4.1-.4.2-.7.2-1.1h-.4c.2.4.2.8.2 1.1zm8.3-68.5c0 .1-.1.1 0 0 .4.4.8.7 1.1 1.1l.4-.6c-.5-.1-1-.3-1.5-.5zm95.7.8l-1.5 1.1.7.5c.3-.6.5-1.1.8-1.6.4.1.8.2 1.2.2v-.4c-.4 0-.8.1-1.2.2zm-127.8-43.8l1.2-.7c-.2-.2-.4-.3-.5-.5-.2.4-.4.9-.7 1.2l-.1.3.1-.3zm3.3 15.4c-.4.5-.8 1-1.1 1.4l.6.3c.1-.6.3-1.2.5-1.7v-.2.2zm68 12.7c-1.6-.1-2 .1-2.2 1.3-.8.1-1.6.1-2.5.2 0 .1 0 .3.1.4l2.4-.6c.7-.4 1.4-.9 2.2-1.3.6-.2 1.2-.4 1.8-.5-.1-.2-.2-.3-.2-.5-.6.4-1.1.7-1.6 1zm68.1 90.6c-.2.5-.4 1-.6 1.4l.7.1c0-.4-.1-.9-.1-1.5.1.1.2.1.3.1-.1 0-.2 0-.3-.1zm-8.2.6l.5.8.3-.3c-.3-.2-.6-.3-.8-.5-.1-.4-.1-.9-.1-1.3-.2.1-.4.2-.6.2.2.3.4.7.7 1.1zm-41.7-8.6l.9-1.8-.7-.2c-.1.7-.1 1.4-.2 2-.2.5-.5 1-.8 1.4l.6.2c.2-.5.2-1.1.2-1.6zm-65.9-91.8c.1.1.2.2.3.2-.1-.1-.2-.2-.2-.3-.4-.2-.9-.8-1-.7-.4.3-.7.8-1 1.2-1.3.2-2.1.2-1.3-1.5.4-1 .8-2.1.9-3.2 0-3.6 1.3-6.8 3-10 .7-1.2 1-2.7 1.5-4-3.4 3.2-8 15.9-7.2 20.9.4 0 .7 0 1-.1 0 .3 0 .6-.1.9l-.7 1.8.6.2 1.9-3.2-.7-.9.4-.3 1.4 2 .7-.4c-.4-.8-.9-1.6-1.3-2.3.5 0 1.1-.2 1.8-.3zm16.4 99.9c-.4.6-.9 1.2-1.3 1.7.3.1.6.2.8.4.2-.7.4-1.4.5-2.1l.9-.6-.4-.4c-.1.4-.3.7-.5 1zm-12.9-119.7l.3-1.9c-.3 0-.5 0-.8.1.1.6.3 1.2.5 1.8h-1c0 .1 0 .2.1.4.2-.2.6-.3.9-.4zm64.8 102.9c.3-.7.7-1.5 1.1-2.4-2.1.4-.9 1.6-1.1 2.4 0 .2-.1.3-.1.4h.2c-.1-.1-.1-.3-.1-.4zm-54.1-54.6c.8.4 1.7 1.8 2.7-.1-1 0-1.8 0-2.7.1-.2.6-.5 1.1-.7 1.6l.5.2c.1-.7.2-1.3.2-1.8zm22-81.2l.1-.5h-.2c.1.1.1.3.1.5l1.4 3.1.6-.3c-.7-.9-1.3-1.8-2-2.8zm-60.9 50.9v1.2l.6-.2c-.2-.3-.4-.6-.6-1-.6-.5-1.2-1.1-1.8-1.7.2 1.9.2 1.9 1.8 1.7zm2.2-50s0-.1.1-.1l-.1.1c-.6-1.4-1.3-2.8-1.9-4.3 0-.4 0-.8-.1-1.1-.2.1-.4.2-.6.2l.7.9c.6 1.5 1.2 2.9 1.9 4.3zm161.8 146.5c.1.1.1.2.1.2s-.1-.1-.1-.2c-1.7-.4-3.3-.8-5-1.3l-.1.8c1.6.2 3.4.3 5.1.5zm-85.9-141.7l2.4 2.1c.1-.2.2-.3.4-.5-1.2-.2-.8-2.7-2.8-1.6zm-66.8-3.3c.3.3.7.6 1 .8l.2-.5c-.4 0-.8-.1-1.2-.3.3-.4.5-.8 1-1.5-.8-.4-1.5-.7-2.1-1l-.3.5c.4.7.9 1.4 1.4 2zm123 146.6c.5-.5 1.3-.8 1.4-1.4.1-.4-.7-.9-1.3-1.6-.1 1.4-.1 2.2-.1 3-1.4.3-1.2 1.1-.7 1.9.2 0 .5 0 .7.1v-2zm-145.2-199.5l-.3-1.2-.6.4c.3.2.6.5.9.8-.4.5-.8 1-1.3 1.7.2.2.6.7 1.1 1.2 1.1-1 1.1-2 .2-2.9zm-11.6 73.6c-1.7.6-1.7 2.4 0 4.1v-4.199999999999999c.1 0 .1 0 0 .1zm-5.7-59.9c.4.5.9 1 1.6 1.9.1-1.8-.2-2.5-1.6-1.9.5-1.3 1-2.6 1.7-4.4-2.3 1.6-2.4 1.8-1.7 4.4zm15.3 27.9c.8-.8 2.3-1.6.4-2.8.7-.9 1.4-1.8 2.2-2.8.4.4.7.9.9 1.1.9-.7 1.6-1.4 2.6-2.2h-5.6c-.1.9-.1 1.8-.3 3.1-1-1.2-1.6-2-2.4-3-.3.9-.5 1.4-.7 2 .7.3 1.4.6 2 .8l-3.2 1.8v-3.7c-.9.4-1.5.7-2.1 1 1.5 3.3 1.8 3.6 5 4.7l-1.5 1.3-.4-.4-.2 1.7c-.3-.1-.9-.2-.9-.5-.1-.5 0-1 0-2.1-.9 1.3-.2 3.3-1.8 2.8-.6-1.5-1.1-2.7-1.6-4-1.8 1.2-1-1.1-2.3-1.7-.9.3-2.2.8-4 1.4 1.4.8 2.3 1.8 3.2 1.8 1.9-.1 2.4 1 2.8 2.3.3.7.3 1.6.4 2.8 1.5-1 2.9-2 4.3-2.9.6 0 1.4.3 1.7 0 .6-.7 1-1.7 1.5-2.5zm58.9 155.2c-.7-.3-1.3-.6-2.2-1.1 1.3 1.5 1 2.7-.5 3.8-.3.2-.6.6-.8.9l.3.4c.4-.2.9-.3 1.1-.6.7-1.1 1.3-2.3 2.1-3.4.2-.2.5-.4.8-.5l-.4-.4c-.2.3-.3.6-.4.9zm56-79.8c-.2.7-.6 1.4-.7 2.2-.2 1.5.5 3.4-2.1 3.6l2 .2c.3-.9.7-1.7.7-2.6.2-1.2.1-2.3.1-3.4h.9v-.1l-.9.1zm-108.1-118.4c.6.2 1.2.4 2.2.8.4-1.3.8-2.6 1-3.9 0-.2-.4-.5-.6-.8-.2.3-.5.5-.5.8-.1.8 0 1.5 0 2.3h-.4c-.3-.5-.6-1-1-1.7-.3 1.1-.5 1.8-.7 2.5-.7 1.2-2.3 2.1-.5 4.3.1-1.7.3-3 .5-4.3zm-8.6 118.3c-.1.1.1.1 0 0 .5.8.9 1.7 1.5 2.2 1.8 1.4 3.7 2.7 5.6 4l.6-.9c-2.5-1.7-5.1-3.5-7.7-5.3zm18.5-49.1c-.2-4-3.5-6-5.4-8.9 1.4 3.2 2.7 6.4 5.4 8.9zm45.7 41.8c.7-.1 1.4-.2 2.1-.4 4.2-1.4 8.5-2.8 12.7-4.1.8-.3 1.6-.5 2.5-.7l-.2-.6c-2.7.7-5.5 1.3-8.1 2.2-3 .9-6 2.3-9 3.6l-1.2.3.2.4c.3-.3.7-.5 1-.7zm-69.6-81.3c1.1 1.4 1 3.1-.4 4.2.8 1 1.5 2 2.3 2.9l.7-.4c-1.5-1.5.5-3.7-1.4-5.2-.1-.1-.1-.7.1-.9.9-1.3.7-2.5-.2-3.7-.5.1-1 .2-1.5.4 1.3 1 1.3 1.2.4 2.7l-1.5.5c.2.5.3.9.7 1.8.4-1.1.6-1.7.8-2.3zm-8.1-21h1c-.5-2-.9-3.9-1.3-5.9h3.1c-1.3-.9-2.8-1.9-4.7-3.1l1.1 6.3c.3.9.6 1.8.8 2.7-.1.3-.1.5-.2.7h.1c.1-.3.1-.5.1-.7zm35.4-12.2l1.5.2c-.9-2.5-3-1.6-4.6-2-.2-.1-.7.8-1.2 1.4h1.4l.1.4c-.5.2-1 .4-1.4.5-.7-.9-.2-3-2.4-2.3.8 1.2 1.6 2.3 2.7 3.8-.4.3-1.2.7-1.9 1.1-.5.3-1.3.6-1.5 1.1-.2.6.1 1.4.1 2.2.7-.6.9-1.5 1.2-1.5 1.7-.3 2.1-1.7 2.9-2.9.4-.6.7-1.5 1.8-.9.2.2.9-.7 1.3-1.1zm20.5 193.8c-.4.2-1 .2-1.2.5-1.3 1.7-2.3 3.5-3.7 5.1-2.8 3.1-4.1 6.9-5.3 10.7-.1.4 0 .9 0 1.9.5-.7.6-.8.7-1 1.7-3.4 3.2-6.8 5-10.1 1.4-2.4 3-4.7 4.5-7.1 1.4-1.7 2.9-3.4 4.4-5-2.6 1-4.3 3.3-4.4 5zm-49-166.2c1.4.9 2.5.5 3.5-.8-1.9-.6-1.9-.6-2.3-5.2.7.2 1.3.4 1.9.6l.3-.3-2.7-2.8c-.2 1.4-.3 2.5-.5 4.1-1.2-1-2-1.6-2.4-1.9.8-1.1 1.4-2 2-2.9-.8-.2-1.3-.4-1.8-.6l1.5-1c-.6-.5-1.3-1-1.8-1.5v4.5c-1.4.9-.9-1.7-2.1-1.7-.3 1.9.7 3 2.1 4.2 2.9 2.4 3.8 2.4 2.3 5.3-.2.4-.5.7-.8 1l.6.3.2-1.3zm6.6-25.4v.4-.4c0-.1.1-.5.1-.5 2 .4 3.1-1.2 4.5-2-.1-.2-.2-.4-.2-.6l-1.8.7c-2.2-2.4-1.7 1-2.7 1.2-2.9-2.2-2.9-2.2-4-1.6-.4-2.7-3.8-4.2-6.3-2.8 1.7.7 3.5 1.3 5.3 2-3.2 0-3.2 0-3.9 3.1.5.1 1.4.1 1.5.4.4 1.1.6 2.3.9 3.3 1.2-2 1.2-2-.6-5.5.2 0 .4-.2.5-.1 2.2.9 4.5 1.6 6.7 2.4zm16.2 61l-.9-2.3c-.2.1-.4.2-.6.4.5.7 1 1.3 1.5 1.9.7 3.4 2.2 6.4 4.2 9.1.8 1.1 1.8 2.1 2.8 3 .4.4 1 .6 1.4.8.9-1.9 1.7-3.6 2.6-5.4-1.1-.5-2.5-.8-3.6-1.6-2.5-1.7-4.9-3.8-7.4-5.9zm-16.5-35.7c.7-.3 1.3-.5 1.8-.7.6 1.5 1 2.7 1.5 4.1 1.3-.5 2.5-.8 3.6-1.4.5-.3 1.2-1.5 1-1.8-1.1-1.6-.4-3.4-.7-5.1-.3-2.1.3-4.3.5-6.5-.1 0-.2-.1-.4-.1l-1.9 2.5-.5.4c-.8-.3-1.7-.6-2.8-1 0 .1-.1-.3-.3-.7-.5.8-.6 1.5-.7 2.3l-.2 1.8-.7-.1c-.1-1-.2-2-.2-2.9l-1.8 2c.1.6.1 1.4.3 2.1.1.4.9.9 1 .8.8-.5 1.6-1.1 2.3-1.8.5-.5.9-1.2 1.4-1.9 1.8 3.9 1.4 6.8-.9 6.7.2-.4.4-.8.7-1.5-1.6.5-3 1-3 2.8-.5-.1-.9-.2-1.4-.4l-.2.4c.6.6 1.2 1.1 1.7 1.6-.6.8-1.1 1.5-1.6 2.3-.2-.4-.4-.7-.6-1.2-.2.8-.4 1.4-.7 2.5 1.9-.9 3.3-1.6 5-2.4-.9-1-1.7-1.8-2.5-2.6-.1.2.2-.1.3-.2zm15 52.8c.2.7.2 1.4.5 2 1.3 2.4 2.7 4.8 4.1 7.2 0 0 .1 0 .1-.1h-.2c-.3-1-.4-2.1-.9-3-.6-1.3-1.5-2.6-2.2-3.8.2-.1.4-.2.5-.3 1.2 2.2 2.5 4.3 3.9 6.8.6-1.6 1.2-3 1.7-4.3 1.2-3 .6-5.1-2.2-6.8-.5-.3-1-.6-1.5-1-1.4-1.3-2.7-1.1-4.1.3.6 1.4 1.1 2.8 1.7 4.3-.1.1-.2.1-.4.2-.2-.7-.6-1.1-1-1.5zm-2.5 53.3c-4.1.5-7.9-.8-11.7-2.2-.5-.2-1.1-.4-1.6-.5-.9-.2-1.9 0-2.6-.4-3.2-2.2-6.2-4.5-9.3-6.8-.2-.2-.2-.7-.3-1.1l.5-.1v-.1l-.5.2-2.3-3.6-.6.4c.4.8.9 1.6 1.1 2.4.3 1 .9 2.3.6 3.1-.8 1.8.2 2.5 1.3 3.4 1.3 1 2.6 2 3.7 3.2 1.1 1.2 2.2 1.9 3.9 2 4.3.3 8.5.5 12.8.9 1.9.4 3.4 0 5-.8l1.5-.2c-.1-.2-.1-.4-.2-.7l-1.3.9zm-37.1 15.2l-3.3.5-3.2.6.6.6v3.2c0 .1-1 .2-1 .1-.2-.8-.4-1.6-.6-2.6-.2.6-.6 1.1-.6 1.6.1 4 .2 8.1.6 12.1.1 1.4 1 2.9 1.9 4 .3.4 2-.5 3-.8.4-.1.7-.1 1-.2l-4.2-10.1c.1-.1.3-.2.4-.4.5.5 1.2 1 1.6 1.6.7 1.3 1.2 2.8 1.8 4.2.5 1.1 1.2 2 2.7 1.7.3-.1 1.1.3 1.1.4 0 .5-.1 1-.5 1.4-.3.3-.8.3-1.2.5.1.5.2.9.4 1.3 1.1 2.5 3.4 3 5.4 1 .3-.3.5-1.2.3-1.7-.5-1.3-1.2-2.5-1.7-3.5-.6.3-1.1.6-1.6.9 1.5-4.4-1.9-7.4-2.5-11.2.6.3 1.2.6 1.5 1.1.9 1.8 2 3.5 2.4 5.4.4 2.3 1.9 2.5 3.5 2.6.6-.6 1-1.1 1.9-2.1.1 2.8-2.3 2.9-3.2 4.5 1.2 1.3 1.3 3.8 3.9 3.8v1.6c.7-.6 1.2-1.1 1.4-1.2-.5-2-.8-3.8-1.2-5.5-.4-1.6-.7-3.2-1.2-4.7-.6-1.9-1.5-3.8-2-5.7-.7-2.3-1-4.5-3.7-5.6-1.9-.6-2.8-.8-3.7.6zm140-72.5c.3.3.5.7.8.9.5.4 1.2.5 1.4 1 1.5 3.5 2 7.2.6 10.6-.7 1.7-.8 3.1-1 4.8-.2 2-.3 4.1-.4 6.1 0 .4.1.8.2 1.2.7-.6 1-1.3 1.1-1.9 1.1-3.9 2.4-7.9 3.2-11.9.5-2.2.7-4.7.2-6.8-1.1-4.4-2.8-8.6-4.3-13-2.6 1.1-5.5 1.6-8.4 1-2-.4-3.7-.9-4.6 1.6-.3.7-1.5 1.5-1.3 1.8 1.1 1.9-.6 1.8-1.5 2.2-2.1.9-4.3 1.8-6.7 2.8 1.7 1.5 3.3 3 4.9 4.5 4.4 3.7 9.2 7 9.8 13.6.4 3.7 1.8 7.3 2.7 10.9 0 .2.3.3.4.4l.9-1.1c.7.4 1.2.8 2.2 1.5.2-1.8.3-3.2.5-4.8-1 .3-1.3.5-2 .7v-3.6c.6.1 1.3.2 1.5.3v-14.7c-1.4-.5-3.1.5-3.2-1.7-.2-2.2 1.6-1.4 2.6-1.9-.5-1.6-.7-3.2-1.4-4.7-1.2-2.4-2.6-4.6-4-6.9.2-.2.4-.3.5-.5.5.4 1.1.7 1.4 1.2 1.5 2.3 2.7 4.4 3.9 6.4zm-27.7 24.6l-1.2-1.3-.4.5 1.6.8c.5.4 1 .8 1.4 1.3.4.6.7 1.2 1 1.8-.7-.1-1.5 0-2.1-.3-2.8-1.7-5.6-2.4-8.9-1.9-2.8.4-5.4 2.1-8.4 1.9-.2 0-.4.3-.6.5-2.4 2.1-4.9 4.1-7.3 6.3-1.7 1.5-3.3 3.2-4.9 4.8l.4.5c8.9-4.8 18.1-8.6 28.3-8.9.1.2.1.4.2.5-.8.3-1.6.6-2.7 1.1 3.1.7 5.9-1.7 9 .1-4.6 1.2-8.8 2.3-13.1 3.4 0 .1.1.2.1.4 4.3-.6 8.6-1.2 12.9-1.7l.2.7-9.8 4-2.4.3c-3.2 1.1-6.3 2.2-9.5 3.5-1.9.8-3.7 1.8-5.5 2.8.1.2.1.4.2.5h.9l8.4-1.5c.8-.2 1.5-.5 2.2-.9 4.6-2.6 9.4-4.9 14.6-6 2.6-.5 5.2-1 7.8-1.6l.2.8c-1.2.4-2.4.8-3.5 1.2 0 .1.1.2.1.4 2-.4 4-.8 6.1-1.2-1.5-2.5-2.6-2.9-5.1-2.6-1.5.2-3.2.4-4-1.4-.7-1.8-1.2-3.6-1.8-5.4-1.6-4.8-3.2-9.6-8-12.3-1.4-.8-2.7-1.9-4.1-2.8-3.8-2.3-7.6-4.2-12.1-4.7-.3 0-.6.1-.8.2.7.4 1.2.7 1.8 1-.6.4-1.2.9-1.8 1.1-2.3.7-4.8 1.1-7 2.1-2.4 1.1-4.7 2.7-6.9 4.1-1.2.7-2.3 1.6-3.5 2.4 2.6-.4 5-.9 7.5-1.6 6.5-1.8 13-2.3 19.6-.6 1.2.3 2.5.8 3.6 1.4.8.4 1.3 1.3 2.1 1.6 2.5 1.1 4.8 2.3 6.6 4.4-.3.3-.3.4-.4.5-.4-.3-.7-.3-1-.2zm26.4-102.4c-2.3 3.3-2.4 3.3-6 1.9-3.4-1.3-6.9-2.6-10.8-2.1-6.1.8-12 2-17.7 4.3-2.6 1.1-4.9 2.5-5 5.7-.1 3.5.2 7.1 0 10.6-.2 2.4 1.2 2.4 2.7 2.4 2.2-.1 4.5-.4 6.7-.7 5.9-.8 11.8-1.7 17.6-2.6 5.8-.9 11.6-2 17.4-3 1.3-.2 1.7-.7 1.3-2l-1.9-8.1c-.7-2.4-1.5-4.7-2.4-6.9-.2-.6-.9-1.5-1.2-1.4-2.4.4-5.1 0-7.1 2.1 1.3 0 2.7 1.5 3.9-.6.7-1.1 1.8-1 2.5.4zm93.6 105.8c-.9-.1-1.7-.1-2.5-.4-4.7-1.7-9.5-2.2-14.5-2-2.1.1-4.6 0-5.6-2.5-.5.2-.9.5-1.3.6-2.6.3-4.8 1.1-6.6 3.2-.8.9-1.8 1.7-2.9 2.3-2.4 1.4-4.9 2.5-7.1 3.7 1.6 5.8 3.2 11.6 4.9 17.5 1.1-.5 2.8-.8 3-1.5.9-2.5 2.3-1 3.5-.7 2.7.6 5.4 1.3 8 2v-.3l-3-1.6.3-.6c.5 0 1-.2 1.5-.1 2.9.4 5.9.7 8.8 1.3 1.4.3 2 .4 2.1-1.4 0-.7.9-1.3 1.3-2.1s1-1.7.9-2.4c-.2-1.9-.2-3.4 1.2-4.9.4-.4.2-1.5.1-2.2-.8-3.2-.2-4 3.3-3.9 3.5-.1 3.5-.1 4.6-4zm-57.4 91.8v-23.8c-2.5 2-4.5 4.1-7.7 3.7-.3.6-.2 2.4-1.6 1.2-1.2-1-1.9-.7-3 .3-.5-.6-1-1.1-1.3-1.6-.8-1.8-1.8-1.9-3.2-.7-1.1.9-2.2 1.5-3.4 0 0 .6.2 1.3.3 1.3 1.9-.1 1.5 1.5 1.7 2.5.8 3.6 1.6 7.2 2.2 10.8.1.7-.9 1.5-.9 2.3-.1 2.4 0 4.8 0 7.1.2-.1.5-.2.7-.4.3.1.8.2 1 .4 1 2 1.9 4 3 5.9 1.7 2.9 1.9 6.6 5 8.7-.4-5.5-.4-5.5.5-5.8 1.6-3 2.9-5.4 4.2-7.9.7.4 1.1.7 1.7 1.1.3-.6.4-1.1.6-1.6-.6-.3-1.1-.5-1.8-.9l2-2.6zm-60-149.3c-.9 4.5 1.8 8 3.6 11.7 2.3 4.6 7.5 4.9 10.8 7 1.4-.4 2.3-1 3-.8 1.7.4 3.4 1 5 1.7s4.2.2 4.7-1.3c.7-1.9 1-3.9 1.5-5.7-3.2-.4-6.1-.7-9.6-1.1.8.9 1.5 1.7 2.1 2.4-1.2.7-2.3.1-3.2-1.8-.2-.5-.4-1.5-.2-1.7 1.5-1.1 3.1-2 4.7-3-.4-.6-.9-1.3-1.4-2-3 1.2-3.5 4-4.5 6.6-1.6-2.4 3.5-10.4 7.3-11.5-.5 1.2-1 2.3-1.4 3.3 1 .1 1.6-.2 2.1-.4 1.6-.4 3.1-.6 4.5.7.3.3 1.2.5 1.5.3.9-.9 1.3-1.8.6-3.2-.9-1.7-1.4-3.6-2.1-5.5-.3-.8-.3-1.7-.7-2.5-.3-.5-1-.7-1.5-1.1l-.6.6c.5 1.6 1 3.1 1.6 5-.5-.1-1.2-.1-1.4-.4-1.4-2.2-3.1-2.8-5.6-1.5-1.2.6-2.9.3-4.4.2-1.1 0-2.4 0-3.2-.6-1.3-.9-2.6-.8-4-.6-.7.1-1.5 0-2.2.2-.8.1-1.5.4-2.5.7 3.3 3.4 4.1 6.4 2.8 7.2v2.4c-.9-.1-1.9 0-2.5-.4-1.6-1.7-3.1-3.3-4.8-4.9zm-29.8-16.3c1.3.5 2.3 1.1 3.3 1.3 3.6.7 7.1 1.4 10.7 1.8 3.5.4 7.1.1 10.5.7 8.2 1.3 16.3.3 24.5-.1 6-.3 12-1.2 18-2.2 3.6-.6 7.2-1.9 11.2-3-.8-.8-1.1-1.1-1.4-1.3-4.3-1.7-8.6-3.4-12.9-5-.4-.1-1 .3-1.5.6s-.8.9-1.4 1c-2.2.8-4.3 1.7-6.6 2.1-5.8 1.1-11.6 2.2-17.4 3-4.9.7-9.7 1.2-14.6 1.6-2.6.2-5.2.1-7.7.1-1.1 0-1.6-.6-1.5-1.8 0-1.9-.6-2.2-2.3-1.3-1.2.6-2.3 1.3-3.6 1.7-.7.3-1.6.1-2.4.2l-.1-.7 3.3-1.8-.3-.6c-2.3 1.4-5.7.6-7.8 3.7zm-10.5-3.5c-.9.6-1.5 1.2-2.2 1.4-1.8.4-3.6.8-5.4 1l-27.5 2.7c-3.2.3-6.7-.5-9.4 2.1-.2.2-1.1.2-1.1.1-.3-2-2.2-1-3.2-1.3-1.2-.4-2.9.2-3.6 2 .9.4 1.5 1 2.3 1.1 3.8.6 7.6 1.5 11.4 1.6 6.2.1 12.4-.3 18.6-.8 4.1-.3 8.1-.9 12.1-1.7 5-1 10-2.4 15.1-3.4 1.5-.3 2.1-.8 2.1-2.3-3.2-1-6.3-1.8-9.2-2.5zm-4 15.7c.2 1.4.4 3 .8 4.5.8 3.3.6 3.9-2.2 5.5-.8.4-1.4 1-2 1.4 2.9-.5 2.9-.5 4.3 1.9h-8.2v.6c1.2.1 2.3.3 3.5.3 1.2 0 2.3-.2 4-.3-1 1.4-1.4 2.2-2.1 2.9-1.4 1.4-3.6.9-4.8-.8-.6-.9-1.9-1.3-3-2l-.8 1.7c-1.3-1.5-1.1-3.2.4-3.5 1.8-.3 3.5-.4 4.8-.6-.5-.6-1.4-1.4-2.1-2.4-.7-.9-1.2-.9-1.9-.1-.4.5-1 .8-1.5 1.1l-.3-.5c.9-1.6 1.7-3.1 2.7-4.6.4-.6 1.1-.9 1.6-1.4.2.7.3 1.3.6 2.4.3.1 1 .3 2.2.6-.5-1.5-.9-2.4-1.3-3.6 1.9.6 2.4 1.8 2.9 3.2.2.6 1.2.9 1.8 1.3.2-.6.7-1.3.6-1.8-.2-1.6-.7-3.2-.9-4.9-.3-2.1-.9-4.3 2-5.3 1-.3 1.7-1.4 2.5-2.2l-.2-.5-10.8 2.2v.5c1.5 0 3.3.5 4.4-.1 2.1-1.3 1.6.2 1.9 1.3-4.2.9-.9 3.7-1.5 6-1.1-1.6-2-2.8-2.8-3.9-1.2.6-2 1.1-2.9 1.6-.2-.7-.4-1.3-.7-2.5-.9.9-1.6 1.6-2.5 2.3-.5.4-1.3.9-1.7.8-1-.3-2.1-.9-2.9-1.6-1.5-1.3-2.9-1.7-4.4-.6-.4.3-.7 1.1-.6 1.4.9 1.4 1.9 2.7 3.1 4.3.4-.9.5-1.3.6-1.5.9.4 1.7.7 2.5 1 1.1.4 2.1 2.9 1.6 3.9-.6 1.3-1.3 2.5-1.7 3.9-1.1 3.4.1 7.5 2.6 8.7 2.4 1.1 5 2.6 7.7 1.5.5-.8.9-1.4 1.6-2.5.3 1.2.4 1.7.6 2.9 1-1.1 2-1.7 2.3-2.6.9-3.1 1.5-6.2 2.2-9.3l1.8-9.1c.2-1.2.3-2.4.4-3.4-1.5-.1-2.4-.2-3.4-.3l-.1.3c.7.3 1.4.6 2.1 1 0 .2 0 .4.1.6-1 0-1.7.1-2.9.3zm-77.5 36.8c.2-.6.3-.9.4-1.3.3-1.3.2-3.1 1-3.9 1.5-1.6 1.8-3.7 2.8-5.4.4-.7 1-1.3 1.7-1.9 1-.9 1.8-.5 2.1.6.2.9.2 2-.1 2.9-.8 2.5-1.5 4.9.6 7.3.9 1.1 1.4 2.8 1.5 4.2.2 3.5.1 7 .1 10.6 2.8-4.4.8-9.1.9-14.3.6.7.9 1 1 1.4l.9 3.6 2.2 12.3c.5 2.4-.1 4.6-1.2 6.6-1.2 2.1-2.7 3.9-4.1 5.9 2.1-1.3 4.8-1.2 6.9-3 .9-.8 1.3-1.4 1.1-2.5-.1-.6-.1-1.2-.2-1.7-.8-5.3-1.7-10.7-2.6-16-.7-4.2-3.6-7.8-2.7-12.5 1.8-.5 2.7.7 3.3 2.2 1.1 2.8 2.1 5.6 3.3 8.7 0-1.9-.5-3.7.1-5 1-2.3-.1-3.7-1.2-5.5-1.6-2.3-2.9-4.8-4.2-7.3-.3-.6.1-1.5.2-2.3.7.1 1.4.2 2.1.4.4.1.8.5 1.2.8-.6-1.8.1-2.8 1.4-3.6.8-.5 1.3-1.4 2-1.9 1.5-1.1 3.2-2 4.8-3l4.1-2.7-.4-.6c-4 1.9-8.1 3.7-12.1 5.8-2.4 1.2-4.6 2.8-6.9 4.3-1.6 1-3.2 2.1-4.7 3.2-1.4 1-2.5 2.4-3.9 3.3-2.1 1.4-3.4 3.1-3.1 5.8.1 1.3-.1 2.7-.2 4.1.6-.1 1.1.1 1.9.4zm65.4-75.8c2.5-.3 4.9-.3 7.2-.8 1.6-.3 2.4-.2 3.1 1.4 2.9 6.4 3.6 13.2 5 20 .1.5.5 1.2.9 1.3 1.5.4 3.1.5 4.4.7v-14.1c0-4.6-.2-9.2-.1-13.8 0-1.4-.2-1.4-1.4-1.2l-16.8 1.7c-.9.1-1.8.1-2.8.2.2 1.4.3 2.7.5 4.6zm-12.2 10.4c7.2 7.5 15.6 8.1 24.8 4.6-.3-1.3-.7-2.9-1.1-4.5l-1.8-8.1c-.3-1.3-2.1-2.1-2.4-1.3-.9 2.4-2.4 1.3-3.7.9-4.6-1.6-9.1-.5-14 .4 2.1 1.2 1.9 2 .2 3-1 .5-1.7 1.4-2.7 2.1 1.2.7 2 1.6.7 2.9zm162.9 166.3c.3-2.9.5-5.6.8-8.2 0-.4 0-.9-.1-1.3-.8-1.9-1.7-3.8-2.5-5.8-.9-2.1-2.2-3.7-4.2-4.9-2.6-1.5-5.1-3.1-7.7-4.5-1.1-.6-2.4-.9-3.6-.9-2.2 0-4.5.3-6.7.7-1.4.2-3 .5-4.1 1.3-.6.4-.4 1.9-.5 2.9-.1.7-.5 1.3-.3 1.9.2.8.6 1.8 1.2 2.1.9.5 2.1.4 3.3.6-1.5-1.7-2-4-1.2-4.7 1.5-1.4 3.3-.5 4.6-.5-.1-.9-.3-1.6-.3-2.4 0-.1.7-.5 1-.4l7.1 3.1-.2.7c-.8.1-1.6.2-2.3.2-.1.7.1 1.5-.2 1.9-1.1 1.6-.2 2.7 1 3.5 1.2.8 2.6 1.2 3.9 1.9 1.6.8 2.5.3 3.1-1.4-1.9-1.6-4.8-2.3-5.2-5.6 2.2 1.2 4.1 2.2 5.6 3 1.2-.7 2-1.2 2.8-1.7.3.8.3 1.4 0 1.7-1.5 1.3-.6 2.7-.1 3.9.4.8 1 1.5 1.5 2.4.4.7.8 1.6.9 2.4.2 2 .3 4 .4 6-.1 1.9.9 2.3 2 2.1zm-124.7-147.4c.2 6.6.4 13.4.7 20.7 2.9-2.6 6.6-3.6 7.4-7.8.4.4.6.7 1 1.2-.2-4 2.1-6.5 4.6-8.8-.1-1-.2-2.1-.3-3-4.5-.6-8.8-1.4-13.4-2.3zm-11.8 125.8l.6-.5 7.2 5 .4-.6c-1.5-1-3.2-1.8-4.5-3-1.3-1.2-3.1-2.2-3.1-4.6 2.2 1.5 4.2 2.9 6.3 4.4.4-.8.7-1.3 1-1.8-.7-.4-1.3-.8-2.2-1.4 1.9-.5 3.8-.8 2.6-3.1 2.1-.2 4.1-.3 6-.4l-.1-.3c-3.4-.9-6.8-1.8-10.3-2.8l-1 1.5c-1.3-.9-2.5-1.7-3.5-2.4-.4 3.5-.8 6.7-1.3 9.9-.1.6-.4 1.2-.4 1.7.2 2.6-.7 4.9-2.2 7-1.5 2.1-3.2 4.2-4.7 6.4-1.8 2.7-3.4 5.4-5 8.1.2.1.4.3.7.4.9-1.1 1.7-2.2 2.8-3.6l.9 2.1c-.7-4.3 4.2-6.1 4.5-10l9.6-6.4c-1.4-1.6-2.9-3.6-4.3-5.6zm61.6-54.1l.5-.1c-.1-.6 0-1.3-.3-1.9-1.1-3.3-2.1-6.7-3.6-9.8-.9-2-2.4-3.8-4-5.4-4-3.9-8.3-7.5-12.2-11.5-2-2-3.4-4.6-5.1-7-1-1.5-2.1-2.9-4.3-3.6 1.4 2.7 2.7 5.1 3.7 7.5.4.8.3 1.9.4 2.8l-3-1.5c-.3-.1-.3-.6-.5-.8l-6.6-10c-.1.4-.1.8.1 1.1.9 1.5 2.1 2.9 2.8 4.6 1.8 4.5 4.7 7.8 9.1 9.8.4.2.8.5 1.1.8 2.2 1.8 4.3 3.8 6.7 5.3 5.9 3.7 10.2 8.8 13.4 14.9.8 1.6 1.2 3.2 1.8 4.8zm-143.3-110.3c0 1.5.2 2.8 0 4.1-.3 2 .6 2.9 2.4 3.4l1.2.2c1.5.5 3.1 3.1 2.2 3.8-1.6 1.3-3 3.4-5.7 1.5v5.9c3.5-1.6 8-1.3 9.3-6.3.2-.9.6-1.4-.2-2.2-.4-.4-.8-1.4-.5-1.9.3-.6 1.2-1 1.9-1.3.5-.2 1-.2 1.6-.3-3.3-.8-6.9.1-9.9-1.5l.1-.6c1-.1 2.1-.2 3.3-.3-1-.8-1.7-1.3-2.3-1.9l.5-.6 2.7 2.1c-.1.1-.2.2-.2.4h3c.2-.4.5-.9.8-1.4 2 .4 3.9.5 5.6 1.3 1.7.8 3 2.3 4.8 3.8.5-4.2-2.8-2.7-3.9-3.8.2-.5.5-1.1.8-1.8.7-.1 1.7-.2 2.7-.2.8 0 1.5.1 2.3.2v-.7h-12.2c-3.1-1.8-7-.3-10.3-1.9zm85 40.5c.1.9.5 1.8.2 2.1-1.4 1.4-.3 3-.4 4.5-.1 1.2-.3 2.4-.6 3.6-.5 2.2-1.3 4.4-1.6 6.7-.1.9.4 2.1 1 2.8 1.6 1.6 3.5 3 5.6 4.8 1.1-4.3-.6-8.4-.3-12.5.3-4.2.1-8.4.1-12.9-1.6.3-2.8.6-4 .9zm112.3 141.4c-.9-.4-1.8-1.3-2.9-1.4-3-.4-6.1-.6-8.9-.9.1 3.6.3 7.5.3 11.3 0 1.9-.3 3.8-.4 5.7 0 .6.4 1.3.4 1.6 1.1-1.8 2.1-3.6 3.2-5.2l3.5-3.8c1.7-2.2 3.1-4.6 4.8-7.3zm-54.7-38.4c1.1-5.1 1.1-10.6 4.5-15-1.6 4.7-2.7 9.4-2.5 14.3.8-3.1 1.3-6.2 2.1-9.2.3-1.1 1.2-2 2-3.2-.2-.7-.5-2.1-.9-3.7 1.2-.2 2.3-.4 3.4-.6.9-.2 1.9-.2 1.8-1.6-.1-2.2 0-4.4 0-6.5-.3.3-.7.8-.8 1-1.4-.4-2.6-.8-3.8-1.1l-.3.6c.4 1.1.9 2.2 1.2 3.3.1.6.1 1.7-.2 1.8-3.2 1-2.8 4.4-4.2 6.6-1.9 2.9-2.6 6.5-3.9 9.8-.8 1.7-.6 2.4 1.6 3.5zm-142.5-113.6h25.4c-2.4-1.7-4.6-3.4-7.7-3.3-2.7.1-5.4-.9-8.2.1-1.9.6-4.2.6-6.3.3-3.4-.5-3.4-.7-3.2 2.9zm182.8 129.7c-1.2-3-1.5-3.2-4.2-2.3-.4.2-.9.3-1.3.4-2.2.5-4 1.1-5 3.7s-3.3 4.7-5 7c-1.3 1.9-.9 3.5.5 4.5 1.3.9 2.5 2 3.7 3 .7.6 1.4 1.3 2 2-.9-1.8-1.7-3.6-3.1-4.8-1.2-1-1.2-2.2-1.6-3.4-.7-1.8.4-2.3 1.7-2.9.2-.1.2-.5.3-.7 1.6-2.1 3.1-4.1 4.8-6.1.3-.4 1.1-.6 1.6-.6 1.9.2 3.7.2 5.6.2zm19.2-25.7c1.7-.2 2.1-.8 1.5-2.4-.7-1.7-1.2-3.5-1.7-5.3l-2.3-9.9c-.1-.5-.6-1-.8-1.5-1 .4-1.8.7-2.6 1 1 3.1 2.1 6.1 3 9 1.1 3.2 2 6.2 2.9 9.1zm-111-71.9c1.5-.8 2.2-1.9 1.8-3.5-.2-1-.3-2-.3-3l-.3-14.8c0-.8.1-1.8-1.1-1.5-.4.1-1 1.1-1 1.7 0 4.3.1 8.5.3 12.8.1 2.7.4 5.4.6 8.3zm21.7-75.8v3.5c.1 2.1.4 4.2.4 6.2l-.1 8.7c0 .5.7.9 1.1 1.4.2-.5.6-.9.6-1.4l.2-16.5c0-1.6-.4-2.4-2.2-1.9zm-1.2 116.3v-.5c-1.5-.2-3-.6-4.5-.7-8.4-.7-16.4 1.2-24.4 3.4-1.3.4-3.4.8-3.8 3.3 10.6-4.6 21.3-7.3 32.7-5.5zm-6.7-20.2c.7.2 1.3.3 1.8.5 2.6 1.1 5.2 2 7.6 3.3 1.3.7 2.2 2.1 3.4 3.1 1.4 1.2 3 2.4 4.5 3.5.1.1.5-.2.8-.4l-.8.6c-1.2-1.7-2.7-3.2-3.7-5-1.2-2.3-3.3-3.2-5.2-4.3-1.2-.6-2.6-1-3.5-1.8-1.9-1.5-3.4-1.2-4.9.5zm-2.6 25.1l-.2-.7c-.4-.1-.7-.3-1.1-.2-8.9 1.9-17.3 5.1-25.2 10-.1-.2-.4-.7-.7-1.1.2-.5.4-1.1.7-1.6-.2-.1-.6-.3-.7-.2-.4.5-.9 1-1 1.6 0 .9.3 1.7.5 2.9 4.3-2.4 8.6-4.8 13.2-6.6 4.8-1.7 9.5-3.4 14.5-4.1zm-44.1-103l-.3.4c.7.4 1.4.8 2.3 1.3-.1.5-.2 1.1-.3 1.7h-.5c-.3-.4-.6-.9-1.2-1.9-.3 1-.7 1.8-.5 1.9.9.7 1.8 1.7 2.8 1.8 1.7.1 3.5-.4 5.3-.6l-.3-4.5c-2.4-.1-4.8-.1-7.3-.1zm58 50.8l.4.3c.6-.5 1.5-.9 1.9-1.6.7-1.4 1.1-3 1.5-4.5.1-.4-.2-.9-.4-1.4-.5.1-1.2.1-1.4.4-.3.6-.3 1.4-.4 2.1-.1.6 0 1.1 0 1.7l-.7.1c-.8-1.1-1.9-2.1-2.2-3.4-.2-1.2.6-2.6.9-4l-2.5-1.2c-1.6 2.8-1 5.1 2.3 7.8 1.2 1.3 1.8 2.3.6 3.7zm-98.4-4.8c0-.2 0-.3.1-.5.8-.1 1.6-.3 2.6-.5-2.7-1.4-3.4-1.2-3.4 1.3 0 .9 1.3 1.8 2 2.6 1.5 1.8 4.2 2.8 3.5 6h.5c.6-1.8 1.3-3.6 1.8-5.2l-7.1-3.7zm7.4-31.8c.7 3.4 3.7 1.6 5.4 2.9-.2.6-.6 1.4-.8 2.2-.1.7.1 1.4.1 2.1h.7c.4-1.1 1.2-2.2 1.2-3.3 0-1.1-.4-2.8-1.2-3.2-.8-.4-2.3.4-3.7.7 0-.2-.2-.9 0-1.3 1.2-1.7.7-3.1-.4-4.4l-1.3 2.9c.1 0 .5.1 1.2.3-.5.5-.9.9-1.2 1.1zm110.4 193.4c1.9-6.6 3.7-12.9 5.5-19.2-3.1 4.6-6.1 15.5-5.5 19.2zm-36.7-122.6c-3.8-1.7-13.3.6-14.5 2.9 4.6-1 9.6-2 14.5-2.9zm116.7 116.8c-.3-.2-.5-.4-.8-.4-2.1-.6-4.2-1.5-6.4-1.8-2.6-.4-5.2-.5-7.8-.6-.6 0-1.2.6-1.8 1l.3.6c5.6-1.5 11 .8 16.5 1.2zm-181.5-186.1l-2-1.4c.6 1.6 1 2.6 1.4 3.7.2.1.4.3.7.4.3-.6.6-1.3.9-2 .4.5.6.8.8 1 .8 1.1 1.7 1.9 2.6.1l.9-.7c.2-.4.1-1 .2-1.5-.6 0-1.3-.2-1.8 0-.3.1-.5.7-.6 1-2.2-.2-2.1-1.8-1.9-3.4-.2 0-.4 0-.6.1-.3.8-.5 1.7-.6 2.7zm-16.1 141.9c.3.7.4 1.6.8 2.1 1.5 2 2 4.3 2.1 6.7 0 .7.1 1.4.3 1.9.2.4.8.6 1.3.9.1-.4.4-.9.3-1.3-.1-.8-.7-1.6-.7-2.4.3-3.5-1.7-5.8-4.1-7.9zm27.9-116.8c-.1 1.9-.2 3.7-.3 5.5h-.5c.8 2 2.1 3.4 4.5 3.3 1.2-1.8.7-2.7-1.1-3.3-1.7-.6-1.8-2-1.4-3.6.2-.6.5-1.1.8-1.8-.9 0-1.5 0-2-.1zm80.2 24.3c.1-.2.2-.3.2-.5-1.8-1.4-4-2.5-5.3-4.3-1.3-1.7-1.7-4-2.5-6.1l-1 .4c1 2.5 1.6 5.4 3.2 7.5 1.1 1.6 3.6 2.1 5.4 3zm-35.7 48.7c3.7-2.7 7.2-5.2 10.5-7.7-3.2-.4-9.1 4.7-10.5 7.7zm-80.9-75.5l4.9.5c-.4-1.9-.7-3.5-1.1-5.1l-.6-.2c-1.1 1.5-2.1 3-3.2 4.8zm78.2 58.6c5.8-.8 11.2-1.6 16.4-2.3-2.5-.9-12.7.3-16.4 2.3zm4.8 5.5l-.3-.5c-5 1.7-10 3.4-14.5 6l.2.5c4.8-2 9.7-4 14.6-6zm13.2 85.9c.4-1.1.9-2.1 1.2-3.3.1-.5-.2-1.1-.4-1.6-.1-.2-.9-.2-1-.1-.6.8-1.3 1.7-1.7 2.7-.3.7-.3 1.5-.5 2.2.6.1 1.4.1 2.4.1zm-105.8-152.9c1.2-1.6 2.1-2.8 2.9-4 .3-.5.3-1.2.5-1.8l-1.7-.3h-1.7v6.1zm114.1 17.5c-.6 2.3 1 6.2 3.4 7.4-1.9-2.4.1-5.9-3.4-7.4zm-36.9 62l-.2.6c.6.2 1.4.7 1.7.5 2.2-1.2 4.2-2.5 6.3-3.8l-.3-.6c-2.4 1-4.9 2.2-7.5 3.3zm115.5 86.8c.4 2.1.7 3.7 1 5.3-.7.1-1.2.2-1.8.4.3.7.5 1.4 1 2.5 2.1-5.3 2.1-6.7-.2-8.2zm-159.7-145.6l.2.6c.8-.2 1.9-.2 2.3-.7.7-.8 1-2 1.4-3.1.2-.4.1-.9.1-1.4-.5.2-1.1.3-1.4.7-1 1.2-1.8 2.6-2.6 3.9zm1.3-43.7l.6-1.9c.2-.7.7-1.4.7-2.1.1-.8-.2-1.7-.4-3.3l-2.7 2.7.6.5c.4-.6.7-1.1 1.2-1.9.5 1.4 1.5 2.4-.2 3.3-1.7.8-1.7 1.3.2 2.7zm-15.1 25.8c1.7-.1 4-3.4 3.6-4.2-.4.2-.9.5-1.4.8-.3-.6-.6-1.1-1-1.8-.5 1.8-.8 3.5-1.2 5.2zm17.6 12.2l.8.4c1.5-2.5 3-5 4.5-7.4l-.9-.5c-1.5 2.5-3 5-4.4 7.5zm25 23.6c.1 2-1 4 1 5.5 1.5-2.8 1.3-4.1-1-5.5zm-57.5 99.9c-1-1.7-1.8-3-2.6-4.3-.4 1-.3 1.9-.2 2.8l.3 2.1c.8-.1 1.5-.3 2.5-.6zm53.9-114.8c2.1 3.8 5.5 5.6 8.8 7.5-2.8-2.4-5.6-4.8-8.8-7.5zm-48.7 113.1c-.5-.8-.9-1.5-1.2-2-1.4.5-2.6.9-3.8 1.4.6 1.3.6 1.3 5 .6zm-4.8-66.1c-.8 1-1.9 2.3-2.8 3.6-.4.6-.5 1.5-.9 2.6 3.1-2.2 4-3.9 3.7-6.2zm111.6-68.5c.7.9 1.7 2.4 2.9 4.1.9-2.6-.3-3.7-2.9-4.1zm49.1 116.9c.1.3.2.6.2.9l7.8-2.4-.2-.7c-2.5.7-5.2 1.4-7.8 2.2zm-25.7 56.3h-.6c-1.3 2.9-1.5 5.5-.3 6.7.3-2.4.6-4.6.9-6.7zm-36.3-109.2v.5h6.8v-.9c-2.3.2-4.6.3-6.8.4zm-21.1 101.9c-.5 1.1-.9 2.1-1.3 3l-1.3 2.7c.2.1.4.2.7.3 1.1-1.9 2.2-3.7 3.4-5.6-.5-.1-.8-.3-1.1-.3-.2-.2-.3-.1-.4-.1zm123.9-.7c-6.4-1.5-6.8-1.5-8.1 0h8.1zm-134.3-65.5c-.6-3.2-1-5.8-1.5-8.5-.7 2.9-.8 5.7 1.5 8.5zm60.6-1.3c-1.3 1.3-2.6 2.6-3.8 3.9 2.3.6 3 0 3.8-3.9zm82.7 44.1c-.3.1-.6.1-.8.2l1.2 6c.3-.1.6-.1 1-.2l-1.4-6zm-134.7-80.9c.1.2.2.5.2.7l5.1-2.1-.2-.5c-2-.2-3.7.3-5.1 1.9zm73.3-58.7c.3 1.9.6 3.4.9 4.8h.6c.1-1.5.2-3 .1-4.5 0-.1-.8-.2-1.6-.3zm-53 152c-.9.7-1.6 1.2-2.3 1.8.4.5.7 1 1.1 1.4.6-.7 1.3-1.4 1.9-2.2.1-.1-.3-.6-.7-1zm-56.3-185.7c0 .1.4.5.9 1.3.9-1.5 1.7-2.9 2.5-4.3.1-.2-.4-.6-.6-1-.9 1.3-1.7 2.5-2.8 4zm107.3 30.4c1.7 1.4 3.4.9 4.9-1.6-1.7.6-3.2 1.1-4.9 1.6zm-2.3 18.5l.1.3c1.4-.1 2.8-.2 4.3-.3 0-.4-.1-1-.1-2-1.7.8-3 1.4-4.3 2zm-67.5 154.9l-.7-.3c-.8 1.9-1.6 3.8-2.3 5.6l.6.2c.7-1.8 1.5-3.6 2.4-5.5zm1.5-132.7c-.7 1.7-1.1 2.8-1.5 3.9l.4.2c.7-.6 1.3-1.1 2.1-1.8-.3-.5-.6-1.2-1-2.3zm68.2-19.3v-.6h-4.9v.6h4.9zm-95.7-55.3c-2.7.4-2.7.4-2.4 2.9.4-.7.7-1.2 1-1.7l1.4.8v-2zm-28.5 41.7l.5-.4c-.7-.9-1.3-1.8-2.1-2.7l-1.4 1.2c1.1.6 2 1.2 3 1.9zm67.5 154l.4.3 1.2-1.6c.3.5.5.9.9 1.6.4-.5.6-.9.9-1.2-1.9-1.9-2.3-1.8-3.4.9zm49.3-92.2l-.7.2 1.7 4.8c.2-.1.4-.2.7-.2-.7-1.6-1.2-3.2-1.7-4.8zm-63-26.8c.3-1.3.6-2.3.9-3.3l-.3-.2c-.8 1.1-1.5 2.1-2.6 3.7 1.1-.1 1.6-.1 2-.2zm108.5 131.6l-.8-.1-.5 1.8-.2 1.3c.5-.3 1.2-.6 1.3-1 .3-.6.2-1.3.2-2zm-3-10.4c-.1.1-.2.2-.3.2.4.7.7 1.5 1.1 2.1.2.3.6.5 1 .5.2 0 .6-.4.5-.6-.1-.4-.3-.8-.5-1.1-.6-.3-1.2-.7-1.8-1.1zm-126.2-145c0-2.6-.6-3.4-2.6-3.6.9 1.2 1.7 2.3 2.6 3.6zm188.8 46.6h.7c-.1-.7-.5-1.6-.2-2.1.3-.6 1.2-.9 2.2-1.5-1.2.1-2 .2-2.8.2.1 1.2.1 2.3.1 3.4zm-198.3-2.4c-2.6 2.2-3.1 3.3-1.9 3.9l1.9-3.9zm165.3 101.1c.8 1.8 2.3 2.1 3.6.8-1.2-.2-2.2-.5-3.6-.8zm-4-13.1c1.9-.5 1.9-.6-.6-3.7.2 1.6.4 2.6.6 3.7zm-120.9-79.1l-.5-.5-3.7 3.2.4.5 3.8-3.2zm104.3 94.8c.3-1.4.5-2.4.8-3.7-.9.7-1.5 1.2-2.1 1.7.4.6.8 1.2 1.3 2zm.5-4.7c1 .1 2.2-1.8 2.2-3.8-.8 1.3-1.5 2.5-2.2 3.8zm-165.7-201.3l-.2.7c1.2.2 2.4.4 3.6.5l.1-.8c-1.2-.1-2.4-.2-3.5-.4zm8.8 14.8l-.1.5 2 1.4c.2-.4.4-.9.7-1.5-1-.1-1.8-.3-2.6-.4zm108.3 25.5c.1.2.1.4.2.7l3.3-.7-.2-.8c-1.1.2-2.2.5-3.3.8zm-90.7 77.4c.3.1.5.2.8.4l1.4-3.2-.6-.3-1.6 3.1zm85 5.4c.4.8.7 1.3 1 1.8.6-.5 1.1-.8 2.1-1.6-1.3-.1-2-.1-3.1-.2zm-94.9-119.8v.5l1.7.2v-1.9c-.8.6-1.2.9-1.7 1.2zm97.1 40.5l-.2-.3c-1.1.1-2.1.3-3.5.5.7.5 1.1.9 1.6 1.3.8-.5 1.5-1 2.1-1.5zm-7.5 171.3l-.8-.2-.5 3.1c.2 0 .4.1.5.1.3-.9.5-2 .8-3zm-43.8-12.1l.7.4.9-1.7-.9-.5c-.2.5-.5 1.1-.7 1.8zm-88.8-83.8c-1.2.4-1.9.7-2.6 1l.1.4c.6.1 1.2.2 1.8.4.2-.5.3-.9.7-1.8zm108.6-80c-.2-.1-.5-.2-.7-.4l-1.1 3.1.5.2c.4-.9.9-1.9 1.3-2.9zm-71.7 77.7l.4-.7-2.1-1.2c-.1.2-.2.4-.4.7l2.1 1.2zm-1.4-103.5c.2.1.3.2.5.4l1.5-2.2-.6-.4-1.4 2.2zm42.8 209.2c-.3.1-.5.2-.8.2l.5 1.7.5-.1c0-.6-.1-1.2-.2-1.8zm-30.7-65.2l.1-.6c-.4-.2-.9-.6-1.2-.5-.3.1-.5.7-1 1.5 1.1-.2 1.6-.3 2.1-.4zm-21.3-142.5l.2.7 2.3-.7-.2-.6c-.7.2-1.5.4-2.3.6zm7.2-14.8l-.2.7c.7.1 1.3.2 2 .2l.1-.6c-.6-.1-1.2-.2-1.9-.3zm100.8 206.4l-.6-.1c-.2.8-.3 1.6-.5 2.3l.6.1c.1-.7.3-1.5.5-2.3zm-114.6-202.7l.5-.6c-.5-.3-.9-.7-1.4-.9-.1 0-.4.4-.6.6l1.5.9zm198.4 96.5v.4l3-.2v-.5c-1.1.2-2 .3-3 .3zm-201.8-67.5v.6l1.8-.1v-.5h-1.8zm64.8 110.7c.3-.1.6-.3.8-.4l-1.1-1.5-.5.3c.3.5.5 1 .8 1.6zm41.4-25.1l.1.4c.7-.1 1.4-.2 2-.3l-.1-.6c-.7.1-1.3.3-2 .5zm-93.3-89.3l.2-.6-1.8-.6s-.2.6-.4 1c.8.1 1.4.2 2 .2zm17.3 17.8l.6-.7-1.4-1.2-.6.6c.5.5 1 .9 1.4 1.3zm-8.6 131.7c-.4-.8-.6-1.1-.8-1.5-.4.3-.7.5-1.4 1.1.9.1 1.3.2 2.2.4zm106.6-67.7l-.3-.1-.9 2.7.5.2c.2-1 .5-1.9.7-2.8zm-63.1-36.6l-.8-.3c-.2.5-.3 1-.5 1.4.2.1.6.2.7.2l.6-1.3zm-62.4-55.4h.6l-.2-2.4h-.4v2.4zm152.8 145.4c-.1-.1-.2-.2-.4-.3l-1.5 1.7.5.4c.6-.6 1-1.2 1.4-1.8zm-152.8-163c0-.2 0-.4-.1-.5l-2.1.1c0 .2 0 .4.1.7l2.1-.3zm169 119.4c.2 0 .4 0 .6-.1l-.1-1.4c-.2 0-.7.1-.7.1.1.5.2 1 .2 1.4zm-64 49.1l-.3.6 2 .9.3-.6c-.7-.3-1.4-.6-2-.9zm63.1 42.9c.1.2.1.4.2.5.5-.2 1-.5 1.6-.7-.1-.2-.2-.4-.3-.5l-1.5.7zm-150.9-204.3h-.7v2.3h.2c.2-.7.3-1.5.5-2.3zm14.7 54.4l.5-.7-1.8-1-.3.4c.6.4 1.1.9 1.6 1.3zm-29.9-21.5c-.3-.1-.6-.1-.8-.2-.1.6-.1 1.2-.2 1.7.2 0 .3 0 .5.1.2-.5.3-1 .5-1.6zm198.7 54.4l.2.7c.4-.2.8-.3 1.1-.5.1-.1.1-.4.1-.8-.6.3-1 .4-1.4.6zm-84.9 37l.4.2.7-2.2-.3-.1c-.2.6-.5 1.4-.8 2.1zm-138.1-75.4c.1.2.3.4.4.7.4-.3.8-.6 1.3-.9l-.3-.5c-.5.2-1 .5-1.4.7zm77.7 28.4l.5.3c.3-.7.6-1.4.8-2.1l-.5-.2c-.2.7-.5 1.3-.8 2zm-39.2 94l-.8.8 1 .8.6-.5c-.3-.4-.6-.7-.8-1.1zm-10.6-158.7l.6-.3c-.3-.4-.5-.8-.8-1.1l-.5.3c.3.3.5.7.7 1.1zm14 126v-.6l-1.6.2v.4h1.6zm98.6 59.1c.2 0 .3 0 .5.1.1-.6.2-1.2.3-1.7-.1 0-.3 0-.4-.1-.2.5-.3 1.1-.4 1.7zm53.7-43.5l-.1.5 2.2.5.1-.5-2.2-.5zm-174.2-115.8l.6.5.6-1.1-.4-.3c-.2.3-.5.6-.8.9zm21.7-34.9l.4.4 1.4-.9-.6-.6-1.2 1.1zm37.7 94.8l.2.4 1.6-.8-.2-.4-1.6.8zm-53.6-51l.4-.4c-.4-.3-.7-.6-1.1-1l-.4.4c.4.3.8.7 1.1 1zm-2.4-23.7l.2.6 1.3-.6s-.1-.2-.1-.4c-.5.1-1 .2-1.4.4zm68.8 106.7v-.3l-1.6-.2v.5h1.6zm-92.4-86.8l-.6.3.6.9s.4-.2.4-.3c-.1-.2-.3-.5-.4-.9zm77.4 145.6c-.1-.1-.3-.2-.4-.4l-1.3 1.5c.1.1.3.2.4.4.4-.5.8-1 1.3-1.5zm-59.2-154.2l-.6.3.7 1 .4-.3c-.1-.3-.3-.6-.5-1zm-5.7 15.4c.2 0 .4.1.7.1l.1-1.3c-.2 0-.3 0-.5-.1l-.3 1.3zm21.7-58.2v.5l1.8-.1v-.4h-1.8zm47.9 213.8v.6c.5-.1 1-.1 1.4-.2v-.5c-.5.1-.9.1-1.4.1zm-7.8-110l.5.4.8-.9-.3-.3c-.4.2-.7.5-1 .8zm69.9 39.2l.6-.2-.7-1.7c-.1.1-.2.1-.4.2.2.6.3 1.2.5 1.7zm-84.2-21.6h.6v-1.5h-.4c0 .6-.1 1.1-.2 1.5zm-1.2-55.8l.3-.3-.9-.7c-.1.1-.2.2-.3.4.3.1.6.4.9.6zm10.9 61.5l-.5.1.3 1.1.5-.1c-.1-.4-.2-.8-.3-1.1zm3.1 67.1l.3.5 1.3-.8-.2-.4c-.5.3-.9.5-1.4.7zm11.2 25.9c-.1-.2-.2-.4-.3-.5l-1 .7.3.5c.3-.3.7-.5 1-.7zm-44.5-214.6l.2-.4c-.3-.2-.6-.4-.8-.5-.1.3-.2.5-.4.8l1 .1zm-8.3 25.2c-.2 0-.4 0-.6.1l.2 1.4c.2 0 .4 0 .6-.1-.1-.5-.2-.9-.2-1.4zm133.9-16.1c0 .2 0 .3-.1.5l1.6.2v-.5l-1.5-.2zm-142-8.1v.5l1-.1v-.4h-1zm171.9 157.3v-.3l-1.5-.2v.5h1.5zm-127.4 22.3c-.2-.1-.4-.2-.5-.3-.3.5-.5 1-.8 1.4.1.1.3.2.4.2.3-.4.6-.8.9-1.3zm12 1.1l.4.4.7-.9-.3-.3c-.2.3-.5.5-.8.8zm96.9-192.8c0-.2 0-.3.1-.5l-1.6-.1v.4c.4 0 .9.1 1.5.2zm-169.8 61.4l.3-.6c-.4-.2-.8-.3-1.1-.5l-.2.5c.3.2.6.4 1 .6zm84.6 113.5c-.1-.2-.1-.4-.2-.7l-1 .4s.1.5.2.4c.3.1.7 0 1-.1zm7.7-90.4v.6l1.3-.1v-.3c-.4-.1-.8-.2-1.3-.2zm-53-77.9v-.7l-1.2.1v.5l1.2.1zm144.7 200c-.2.1-.5.2-.7.2l.6 1.1c.2-.1.3-.2.5-.2-.1-.3-.3-.7-.4-1.1zm-119.6 14.4l-.1-.3c-.2 0-.5-.1-.5-.1-.1.3-.1.6-.2.8.2-.1.5-.3.8-.4zm-32.8-34.6c-.3.3-.6.5-.6.6.1.2.3.5.5.5s.5-.2.5-.4c.1-.2-.2-.4-.4-.7zm160 .5l.3.4c.4-.2.7-.4 1.1-.7l-.3-.4c-.4.2-.7.4-1.1.7zm-167.4-139.5c.3-.4.6-.5.6-.7 0-.2-.2-.4-.4-.5-.1 0-.4.2-.4.3 0 .3.1.5.2.9zm132.3.3c0 .1 0 .3.1.4l1-.1c0-.1 0-.3-.1-.4-.3 0-.6.1-1 .1zm-108.3 134v.4c.4 0 .8 0 1.2.1v-.4c-.4 0-.8 0-1.2-.1zm86 19.3l-.6-.2-.1 1.1c.2 0 .3 0 .5.1 0-.4.1-.7.2-1zm-29.9.8c0-.1-.1-.2-.1-.4l-1 .3.1.4c.3-.1.6-.2 1-.3zm-60.3-23.3l-.3-.2-.6 1 .3.2c.2-.4.4-.7.6-1zm16.6-130.7c-.6-.3-.8-.5-1-.5-.2 0-.5.2-.7.3l.1.3c.4 0 .8 0 1.6-.1zm-42.1-7.8c-.1.2-.2.3-.4.5l1.1.8.3-.5c-.3-.2-.6-.5-1-.8zm-.1 94.5l.3-.3-1-.8-.3.3c.3.3.6.6 1 .8zm35 80.7c-.2-.1-.4-.2-.5-.3l-.4 1.4.3.1c.2-.3.4-.7.6-1.2zm123.8-9l-.5-.6c-.2.2-.4.4-.5.6 0 .1.3.4.5.4.1.1.3-.2.5-.4zm3.3-74.3l-.1-.5-1.4.4c.1.2.1.4.2.5l1.3-.4zm-156.9-119.4h.4c.1-.2.3-.4.2-.5-.2-.2-.4-.3-.7-.4 0 .3 0 .6.1.9zm-15 112.5l.1.5.9-.3c0-.1-.1-.3-.1-.3-.3 0-.6 0-.9.1zm9.3-79.5l.4-1c0-.2-.2-.4-.4-.6-.2.2-.4.3-.5.5l.5 1.1zm164.2 154.1l.5.5.8-.7-.4-.4c-.3.1-.6.4-.9.6zm-117.1 11.5c-.1-.1-.2-.3-.4-.4l-.7 1c.1.1.2.2.3.2.2-.3.5-.5.8-.8zm-15.1-199l.1.6c.4-.1.8-.2 1.2-.4l-.1-.4c-.4 0-.8.1-1.2.2zm63.2-8.3c-.2.1-.4.2-.6.2l.6 1.1c.1-.1.3-.2.4-.2-.1-.4-.3-.8-.4-1.1zm114.1 97.3v-.3h-1.1v.4l1.1-.1zm-204.5-47.7l-.3.2.4 1 .5-.2c-.3-.4-.4-.7-.6-1zm42.7 57.8h-.4l.1.9h.3v-.9zm55.6-27.5l.1-.6h-1.2v.4c.4.1.8.1 1.1.2zm-13.5 21.9c0 .1 0 .2-.1.4l1.1.2c0-.1 0-.2.1-.3-.4-.1-.8-.2-1.1-.3zm-92.3-93.8l.1-.5-1-.2-.1.4c.4.1.7.2 1 .3zm58.1 186.7c.1.1.3.2.4.2l.5-1-.3-.2c-.1.4-.3.7-.6 1zm5.1-112.3c-.2-.2-.3-.3-.4-.5-.1.1-.3.2-.3.4 0 .1.2.3.3.4l.4-.3zm9.5 22.7c0-.1-.1-.2-.1-.4l-1 .3c0 .1 0 .2.1.2l1-.1zm40.6 30.1c-.1 0-.2 0-.3-.1-.1.3-.2.6-.2 1 .1 0 .2 0 .3.1.1-.3.1-.6.2-1zm10.3-13.6v-.3l-1-.1v.4h1zm-127.2-.4l-.3.3c.2.2.4.4.6.5l.4-.3c-.2-.1-.4-.3-.7-.5zm4.3.1v.2h1.4v-.3c-.5.1-1 .1-1.4.1zm-6.7-114.9v-.2h-1.4v.2h1.4zm5 34.1l.2.3.6-.3c0-.1-.1-.3-.1-.3-.3.1-.5.2-.7.3zm14.5-33.3c-.1.4-.2.7-.2.8.2.2.5.2.7.3-.1-.3-.2-.6-.5-1.1zm49.8 132.2l-.3.1c0 .3.1.6.1.8l.5-.1c-.1-.3-.2-.6-.3-.8zm-3-1c-.1.1-.1.2-.2.4l1 .5c.1-.1.1-.2.2-.4-.3-.2-.6-.3-1-.5zm-31.9-128.7l.2.4.8-.3c-.1-.2-.2-.3-.2-.5-.3.2-.6.3-.8.4zm30.7 76.9c.2-.3.4-.5.4-.7 0 0-.3-.3-.4-.3-.2 0-.3.2-.4.4.1.2.2.3.4.6zm-70.3-28.1c-.2-.2-.3-.4-.4-.4-.2 0-.4.2-.7.3.1.2.2.5.4.5.1 0 .4-.3.7-.4zm40.3 115.6c.4-.4.5-.5.6-.7l-.5-.3-.3.4c0 .2.1.3.2.6zm-21.5-143.7c.2-.2.4-.3.4-.4 0-.1-.1-.3-.2-.5-.2.1-.4.2-.5.4 0 .1.2.3.3.5zm165.1 170l-.3-.1-.3.8.3.1c.1-.2.2-.5.3-.8zm-192.9-83.8c-.1-.1-.1-.2-.2-.4-.2 0-.4 0-.5.1l-.2.7.9-.4zm77-7.8l-.1-.3-.9.4s.1.2.1.3l.9-.4zm60.4 7.7c0 .1 0 .2-.1.3l.7.3.1-.5c-.2 0-.5 0-.7-.1zm-60.5 79.3l.5.5.6-.9c-.1-.1-.2-.2-.4-.3-.2.3-.4.5-.7.7zm99.1 20.9l-.5-.1-.2.9s.2.1.3.2c.1-.4.2-.7.4-1zm-135.7-26.8c-.1-.1-.1-.2-.2-.4l-.5.3s.1.3.2.4c.2 0 .3-.2.5-.3zm28.9-2.5l.3-.1-.2-.7s-.2 0-.3.1c.1.2.1.4.2.7zm122.3 16c.1.1.2.1.2.2.2-.2.4-.3.5-.5l-.1-.1c-.2.2-.4.3-.6.4zm-27.2-72.4l.3-.2v-.3l-.4.2.1.3zm-28.5-1.4c-.1-.1-.2-.2-.3-.2l-.4.9c.1 0 .2.1.2.1.2-.2.4-.5.5-.8zm-31.4-31.7v-.2h-.8v.2h.8zm24.3 1.2c.2.2.3.4.5.4l.4-.2-.3-.4c-.2-.1-.4.1-.6.2zm-9.6 34c-.1-.1-.2-.2-.2-.3l-.7.6c.1.1.2.2.2.3.2-.2.4-.4.7-.6zm-24.7-59.7c-.2-.2-.3-.3-.5-.4-.1 0-.3.1-.3.2s.1.3.2.4c.2 0 .4-.1.6-.2zm11.6 24.9l-.3-.3-.3.3h.6zm-65.3 90c-.1-.2-.1-.3-.2-.4-.1.1-.3.2-.4.4 0 0 .1.2.1.3.2-.1.4-.2.5-.3zm151.8-21.9l-.2.3.7.5.2-.3c-.2-.1-.5-.3-.7-.5zm-86.8 39.5c-.1-.1-.2-.2-.2-.3-.2.2-.4.4-.7.6.1.1.2.2.2.3.3-.2.5-.4.7-.6zm-71.7-178.6c.1-.1.3-.1.3-.2l-.1-.3h-.3c.1.1.1.3.1.5zm-6.4-18.4c-.2-.1-.3-.3-.4-.2-.1.1-.3.3-.3.4 0 .1.2.2.4.3.1-.1.2-.3.3-.5zm29.2 145.5c-.2-.2-.3-.3-.4-.3-.1 0-.3.2-.4.3l.4.4.4-.4zm47.7 53.5l-.4-.4-.6.6.3.3c.2-.1.4-.3.7-.5zm73-58.8l-.1-.3-.9.2.2.4c.4-.1.6-.2.8-.3zm-12.6-130.2c-.3-.2-.5-.3-.6-.3-.1 0-.2.2-.4.2l.3.4c.1 0 .3-.1.7-.3zm-91.7 162c.1-.4.3-.6.2-.7 0-.1-.2-.3-.3-.4l-.4.3c.1.1.2.3.5.8zm79.6-37.7l-.4-.3c-.1 0-.3.2-.4.3l.2.4c.2-.1.3-.2.6-.4zm-40 36.9v-.3c-.1 0-.3-.1-.3-.1l-.3.4h.6zm111.4-82c.3-.6.5-.7.5-.8 0-.1-.3-.3-.4-.3-.1 0-.3.2-.3.4l.2.7zm-146 40.3l.3.3c.1-.1.2-.2.2-.3-.1-.1-.2-.2-.3-.2 0-.1-.1.1-.2.2zm1 53.2l.1.2.5-.3-.1-.2c-.1 0-.3.1-.5.3zm36.7 1.9c-.2.3-.3.5-.4.7.2.1.3.2.5.2.1-.1.3-.3.3-.4 0-.1-.2-.3-.4-.5zm-48.4-74.8c-.1.3-.3.5-.2.6 0 .1.3.1.5.2l.1-.4s-.2-.1-.4-.4zm2 80.6c0-.1 0-.2-.1-.3-.1 0-.3.1-.3.1l.1.4.3-.2zm89.3-135.7c-.3-.2-.4-.3-.5-.3l-.3.1c.1.1.2.4.3.4 0 .1.2-.1.5-.2zm30.6 128.8l.4.2c.1-.2.2-.5.2-.7l-.3-.1c0 .2-.1.4-.3.6zm-28.5-64.4v-.2h-1.2v.3l1.2-.1zm-84.4 69.4l-.3-.2c-.1.2-.2.4-.4.6l.3.2c.1-.1.3-.4.4-.6zm-71.8-132.4c.2-.2.3-.4.3-.5 0-.1-.2-.3-.2-.2l-.4.2c0 .1.1.2.3.5zm182.2 134.4c.1-.2.2-.3.3-.4-.1-.1-.2-.1-.4-.2 0 .2 0 .3.1.6zm-81.2-153.1c0-.2.1-.3.1-.4 0 0-.2-.1-.3-.1 0 0-.1.1 0 .2 0 0 .1.1.2.3zm-17.6 118.2c-.1-.1-.1-.3-.2-.3l-.3.1c.1.1.1.3.2.3.1.1.2 0 .3-.1zm-35.8-49c.1-.2.2-.3.3-.4l-.2-.2c-.1.1-.2.2-.3.4l.2.2zm115.6 28.3c-.1-.2-.1-.3-.2-.4-.2.1-.3.2-.4.4l.1.3.5-.3zm-67.1-62.7c-.1-.1-.2-.2-.3-.2-.1 0-.2.1-.3.2.1.1.2.2.3.2.1 0 .2-.1.3-.2zm64.7-22l.3-.4c-.1-.1-.3-.2-.4-.2l-.3.4c.2 0 .2.1.4.2zm-84.7 18.8c.2.1.4.1.5.2l.2-.6c-.3.1-.5.2-.7.4zm-78.9-10.3c.1.3.2.4.3.5l.5-.3c-.2 0-.4-.1-.8-.2zm110.2.5c-.2-.1-.3-.2-.4-.3l-.2.4c.2.1.3.2.5.2 0 0 .1-.2.1-.3zm-94.3-65.3c.2-.2.3-.4.4-.5-.1-.1-.3-.2-.4-.2-.1 0-.3.2-.3.3l.3.4zm150.9 27l-.1-.3-.3.2c0 .1 0 .2.1.3.1-.1.2-.2.3-.2zm20.3 177.2l-.4-.1c-.1 0-.1.2-.2.3l.3.1c.2 0 .2-.2.3-.3zm-164.4-164.2c-.1-.1-.1-.2-.2-.2l-.3.1c.1.1.2.2.2.4.1-.2.2-.3.3-.3zm135.9-22.8l.3-.2-.1-.1c-.1 0-.2 0-.3.1l.1.2zm-24.3-30.3l-.4-.4c-.2.1-.3.2-.4.3.1 0 .4.1.8.1zm-27.4 227.3c-.1-.1-.1-.3-.2-.3l-.3.1.2.3c.1.1.2 0 .3-.1zm46.9-150.2v-.4l-.9.1v.3h.9zm-49-9h.4l-.2-.6c0 .1-.1.4-.2.6zm-67.6 88.7c.6.2.8.3 1 .3 0 0 .1-.3.1-.4 0-.1-.2-.2-.3-.2-.2.1-.4.2-.8.3zm9.1-51.8c.1-.2.2-.3.4-.4l-.3-.1c-.1 0-.2.2-.2.3 0 0 .1.1.1.2zm126.3 51.2c-.1-.1-.1-.2-.2-.2l-.3.1.3.3c.1 0 .1-.1.2-.2zm-110 20c-.1-.1-.1-.3-.2-.3l-.3.1c0 .1 0 .3.1.3s.2-.1.4-.1zm-10.1 21.8v.3h.9v-.3h-.9zm16.2-116.2c.1.2.2.3.3.4l.3-.3s-.1-.2-.2-.2c-.2-.1-.3 0-.4.1zm10.1 141.3l-.4-.3c-.1 0-.3.2-.4.3 0 .1.2.4.2.3.2 0 .3-.1.6-.3zm-12.8-85.2c0 .1-.1.2-.1.2l.2.1.3-.1c-.3 0-.3-.1-.4-.2zm-47.7.6c0-.1.2-.3.1-.3 0-.1-.2-.1-.3-.2l-.1.3.3.2zm75.7 70.9c-.1-.1-.3-.2-.3-.2l-.3.3.2.2c.1 0 .2-.1.4-.3zm-26.1-88.2c.1-.2.2-.4.2-.5 0-.1-.2-.2-.2-.2-.1 0-.3.1-.4.2.1.1.2.2.4.5zm2.9 0v-.4c-.3 0-.5 0-.8.1v.2c.3 0 .6.1.8.1zm78.5 17.6l-.4-.4c-.1.1-.2.2-.3.4 0 .1.1.3.2.3l.5-.3zm4.9 2.4c.2-.1.3-.1.4-.2l-.3-.4s-.2.1-.2.2.1.2.1.4zm6.6 52.2l.1-.3-.1-.1c-.1 0-.1.1-.2.2 0 .1.1.2.2.2zm-80.8 42.1l-.3.2.2.3.4-.3c-.1 0-.2-.1-.3-.2zm-32.4-122.6c.1-.1.2-.2.3-.4l-.2-.2-.4.3.3.3zm-5.4 83.5l-.2.3c.1.1.2.2.3.1.1 0 .1-.2.2-.3-.1 0-.2 0-.3-.1zm13.9.4l-.1-.3c-.1 0-.3.1-.3.2l.1.3.3-.2zm-23.6-171.5l.3-.2c0-.1 0-.2-.1-.3l-.3.2.1.3zm-10.9 23.3c-.2.3-.3.4-.3.5 0 .1.2.2.3.3l.2-.2c0-.1-.1-.3-.2-.6zm41 153.6c.1-.2.2-.3.2-.5 0-.1-.2-.2-.2-.2l-.4.3c.1 0 .1.1.4.4zm-44.3-169.8l.3-.2c0-.1-.1-.2-.1-.2h-.3c0 .2.1.3.1.4zm118.4 177.4l.1-.3-.1-.1c-.1.1-.2.1-.2.2l.2.2zm13.1-125.8l.3-.1c0-.1-.1-.1-.1-.1h-.3s.1.1.1.2zm-80.5 41.8c.1.1.2.1.3.1l.1-.1c-.1-.1-.1-.2-.2-.2s-.2.1-.2.2zm-19.3-8.3l-.1-.3c-.1.1-.2.1-.2.2l.1.3c.1-.1.1-.2.2-.2zm9.8-54.1c.1 0 .3-.1.3-.1 0-.1 0-.2-.1-.3l-.3.2s0 .1.1.2zm118.2-14.3l-.2-.3-.1.3.1.1.2-.1zm-95.9 61.3v.3c.2 0 .4 0 .6-.1v-.1l-.6-.1zm-60.9-42.6v-.2h-.6v.2h.6zm155.5 104.3l-.3-.1-.1.1c.1.1.1.2.2.2 0-.1.1-.2.2-.2zm-135.5 5.3c-.1-.1-.1-.2-.2-.2l-.1.1.1.3c0-.1.1-.1.2-.2zm218.2-69.7l-.3-.1c-.1 0-.1.1-.2.2l.3.1c.1 0 .2-.1.2-.2zm-229.2-53.9c-.1.1-.2.2-.2.3 0 .1.1.2.2.2l.2-.2c0-.1-.1-.2-.2-.3zm106.9-.5c-.1 0-.2-.1-.4-.1-.1 0-.1.1-.2.2l.3.1c.2 0 .2-.1.3-.2zM36.2 148.9v.1c.1.1 0-.1 0-.1zM60.3 207.3c-.1 0-.1 0-.2-.1.1.1.2.1.2.1 0-.1 0-.1-.1-.2.1.1.1.2.1.2zM86.6 209.6h-.3v.2l.3-.2-.1-.1.1.1zM33.3 32c.1-.1.2-.1.2-.2-.1 0-.1 0-.2-.1.1.1.1.2 0 .3 0 .1-.1.2-.2.3l.2-.3zM248.8 114.5c-.1 0-.2.1-.1.1-.1-.1 0-.1.1-.1l.1.1c-.1 0-.1 0-.2-.1h.1zM94.7 91.6h-.2c0-.1.1-.1.2 0v-.1.1zM37.1 144.3c-.1.1 0 .1 0 0h-.2.2zM34 120.5c0-.1.1 0 .2 0h-.2zM94.4 219.8s-.1 0-.1.1c0-.1 0-.1.1-.1h.4v-.1c-.2 0-.3 0-.4.1zM124.2 104.2c0 .1 0 .2.1.2-.1 0-.1 0-.1-.2-.3 0-.5-.1-.2 0-.3.1 0 .1.2 0zM79.2 218.5v-.3l.3.1c0 .1-.1.2-.3.2 0-.1 0-.1.1-.1 0 .1 0 .1-.1.1zM13.2 40.9c-.1-.1-.2-.1-.2-.2l-.1.1c.1.1.2.1.2.2l.1-.1zM145.2 168.6c-.1.1-.1.2-.2.2l.1.1.2-.2-.1-.1zM238.8 119.4c-.2-.1-.4-.1-.5-.1v.1h.5zM49.8 139l-.1-.1c-.1 0-.2 0-.3.1l.1.1c.1-.1.2-.1.3-.1zM80.5 191.4l-.1-.1h-.2l.1.1h.2zM165.5 168.1v-.2h-.2v.2c.1.1.2.1.2 0zM38.2 145.4c.1.1.2.1.2.2h.2c0-.1-.1-.2-.1-.2-.1-.1-.2-.1-.3 0zM50.8 142.3l-.2-.2-.1.2.2.2s.1-.1.1-.2zM108.1 217.6l-.1-.2-.1.1c0 .1.1.1.2.2-.1 0-.1 0 0-.1zM59.6 208.4l-.1-.2-.1.1c0 .1.1.1.2.2v-.1zM55.3 206.5l-.2-.1-.1.3.1.1.2-.3zM34.4 87.4l-.1.2c0 .1 0 .1.1.2l.1-.2c-.1-.1-.1-.1-.1-.2zM106.5 205.3s0 .1.1.1h.2c0-.1 0-.2-.1-.3-.1.1-.1.2-.2.2zM37.7 34.3l.1-.1-.1-.1-.2.1c.1 0 .1 0 .2.1zM54.3 200.8l-.3.2.1.1.3-.1c0-.1 0-.2-.1-.2zM96.2 86l-.3.1.1.1.3-.1-.1-.1zM196.3 219.5v.2l.1-.2zM48.3 198.1l.1-.2h-.1zM41 211.4l-.1-.1-.3.1.3.1s0-.1.1-.1zM57.1 197.4s0-.1-.1-.1h-.2l.1.2s.1-.1.2-.1zM55.6 194.1l-.1-.1-.3.1.1.1c.1 0 .2 0 .3-.1zM52.7 192.6l-.1.1.1.3c.1-.1.1-.2.1-.3l-.1-.1zM233.5 116.8l.1-.3-.1-.1-.1.3.1.1zM61.1 149.8l-.1-.1v.1zM146 229.5l-.1-.3-.1.1v.3c.1 0 .2 0 .2-.1zM167.2 149.8c-.1-.1-.2-.1-.2-.2l-.1.1.3.2v-.1zM145.2 150.9h-.1s0 .1-.1.2h.2v-.2zM81.8 122.9h-.1l.1.1zM78.8 138.5l-.2-.1-.1.3.1.1c.1-.1.2-.2.2-.3zM82 121.4s.1 0 .1-.1l-.1-.1s-.1 0-.1.1.1.1.1.1zM155.1 140.1s.1 0 .1-.1v-.2l-.2.1.1.2zM78.6 140.6v-.1h-.2c0 .1 0 .2.1.2 0 0 0-.1.1-.1zM177 56.9l.3.2.1-.1-.1-.1c-.1-.1-.2-.1-.3 0zM23.7 142.6c0-.1-.1-.2-.1-.1l-.3.1.1.1.3-.1zM49.5 25.5v.2l.1-.2zM240.4 116.8l-.1.1h.1zM198.1 226l-.1-.3-.1.1.1.3.1-.1zM129.3 164.5h-.1l.2.1c-.1 0-.1-.1-.1-.1zM74.8 169.5v-.1h-.1v.1h.1zM159.9 109.6h.1l-.1-.2zM42.8 46.3l.1-.2-.3-.2-.1.1c.1.2.2.3.3.3zM186.4 42.2l-.1-.1-.1.1.2.2v-.2zM160 104l-.1.1h.1zM13.7 102.1l-.3-.1-.1.1c.1.1.1.2.2.2l.2-.2zM67.2 75.8l-.1-.1-.1.3.1.1.1-.3zM244.3 115c-.1 0-.2 0-.2-.1v.1h.2zM148.7 237.4v.2h.1zM237 114.9l-.1-.1-.3.1.3.1.1-.1zM95.9 227.9l.2-.1-.3-.1-.1.1c-.1 0 .1.1.2.1zM87.5 238.2s.1 0 .1-.1v-.2l-.2.1c.1.1.1.2.1.2zM93.3 159.7l-.1-.2-.1.1.2.2c-.1 0-.1-.1 0-.1zM148.9 218.6l-.1-.1-.1.1.2.1c-.1-.1-.1-.1 0-.1zM84.3 219.1l.1-.1-.1-.1zM175.9 5.8l.1-.1h-.1zM33.5 26.9v.1h.1zM199.1 226.7l.1-.1-.1-.1-.1.1s.1 0 .1.1zM57.1 20.1l-.1.1.1.1.1-.1c0-.1 0-.1-.1-.1zM35.1 29.2v.2h.1zM29.5 60.5v.1h.1zM43.4 130.9l.2.1v-.1zM57.5 61.6l-.1.1.1.1.1-.1-.1-.1zM33.1 143.7l.1.1v-.1zM15.9 76.8l-.1.1.1.1.1-.1-.1-.1zM121.1 82.5l.1.1v-.1zM240.2 115h.1v-.1zM83.7 198.9l-.1-.1-.1.1.2.1c-.1 0-.1-.1 0-.1zM52 182.6l-.1-.1v.1zM110.3 212.1v.1h.1zM129.9 165.5l.1-.1-.1-.1-.1.1s.1 0 .1.1zM191.6 163.4l-.1-.1v.1zM103.1 160.4l-.1.1.1.1.1-.1-.1-.1zM148.6 160.2h.2v-.1zM51.9 159l.1-.1h-.1zM96.3 157.3l-.1.1h.1zM1 187.2c2.9.4 4 1.7 4.2 4.9.2 4.9.2 9.9.3 14.8v.8c.3 3.1-.6 3.9-4.1 3.7.2-1.8-.7-3.8 1.3-6 .2 1.6.4 2.6.6 3.7.2 0 .4-.1.5-.1v-12.2c-1.6 2.5.1 5.5-1.5 7.9-.3 0-.7 0-1-.1-.1-2.9-.2-5.8-.1-8.7 0-.3 1.2-.5 2.1-.9v-2.5c-.7.4-1.3.7-2.1 1.2v-3.3c.8.7 1.3 1.1 1.7 1.5.2-.1.3-.2.5-.2-.2-.5-.5-1.3-.7-1.3-2.7 0-1.7-1.7-1.7-3.2zM33.1 220.9c-1.8-.2-3.4-.5-5-.5s-3.3.3-5.2.6c.7-2.4 1.3-4.6 2-7.1 1.1-.4 2.7-.9 4.3-1.5.4 2.1-.3 5.7-1.3 6.2-.1 0 5 2.3 5.2 2.3zm-6.7-5.1c0-.1 0-.2-.1-.3l-.7.2v.3c.3-.1.6-.1.8-.2zM215.2 164c3-2.8 1.1-8.1 5.7-10.6-.6 1.1-1 1.7-1.3 2.4-.5 1.2-1.3 2.4-1.4 3.7-.3 1.9-1 3.6-3 4.5zM228.9 217.8c-.5-1.3-1-2.6-1.6-4.3 0 0 .3-.5.8-1.1.7 1.7 1.3 3.3 1.9 5-.3.2-.7.3-1.1.4zM27.8 199.7c-1.1 1.6-2.3 3.2-3.4 4.9l-.8-.6 3.6-4.8c.1.2.4.3.6.5zM228.6 110.5c-2.1.7-3.9 1.4-5.7 2 .6-1.6 2.8-2.5 5.7-2zM219.9 178.1c2.2-.5 3.2 1.2 4.7 2.1l-.3.6c-1.5-1-3-1.9-4.4-2.7zM129.6 224.6c.7 2.3.5 2.6-2.5 3.4.9-1.3 1.6-2.2 2.5-3.4zM211.5 168.2l1.9-3.2c.2.1.4.2.6.4-.6 1-1.2 2.1-1.9 3.1l-.6-.3zM191.3 102.1c.4.6.8 1.1.7 1.3-.1.4-.6.8-1 .9-.2.1-.9-.6-.8-.7.2-.5.6-.9 1.1-1.5zM80 210.5l-2.4.9-.3-.8 2.3-.8c.1.2.3.4.4.7zM109.9 9.2h2.1v.6c-.7 0-1.4.1-2.2.1.1-.2.1-.4.1-.7zM225.4 230.2l-2.1 1.2-.3-.6c.7-.4 1.4-.8 2.1-1.3 0 .2.2.4.3.7zM193.5 240.5l-.6 1.9-.7-.2c.2-.6.4-1.3.5-1.9.3.1.5.2.8.2zM125.9 229.8c.9-.6 1.6-.5 1.4 1.1-.4-.4-.9-.8-1.4-1.1zM196.6 240.2v-1.7h.7c0 .6.1 1.2.1 1.7h-.8zM83.4 205l.3-1.3.6.1-.3 1.3c-.2-.1-.4-.1-.6-.1zM264.5 128.1c.3 0 .7 0 1-.1v.4l-1 .1v-.4zM212 171.2l.1 1c-.1 0-.2 0-.3.1-.1-.4-.2-.7-.2-1.1h.4zM8 245.9c.2.2.4.4.4.5 0 .1-.1.3-.2.4-.1-.1-.3-.2-.4-.4l.2-.5zM79.1 209.2c-.1-.3-.1-.6-.1-.8 0 0 .3-.2.4-.1.1.1.2.3.2.4-.1.2-.3.3-.5.5zM35 221.6c-.3.1-.5.2-.5.2-.2-.1-.3-.3-.4-.5.2 0 .4-.1.5-.1.1 0 .2.2.4.4zM128.4 225.2l-.3.1c-.1 0-.1-.2-.1-.3l.3-.1.1.3zM221.9 113.5l.2.2-.3.3c0-.1-.2-.2-.1-.3-.1-.1.1-.1.2-.2zM69.5 231.9l-.1.3c-.1 0-.3-.1-.3-.2l.1-.3.3.2zM21.8 221.6l-.3-.1.3-.2h.2l-.2.3zM221.3 117.3l.1.1-.2.2-.1-.1c0-.1.1-.2.2-.2zM106.3 18.6h-.3l.1-.1h.3l-.1.1zM224.1 152.5l.4-.1s.1.1.1.2c-.1 0-.1.1-.2 0-.1 0-.2 0-.3-.1zM83.1 206.9l-.1-.1.2-.1v.2h-.1zM30.3 211.4h-.1v-.2h.2c-.1.1-.1.2-.1.2zM49.5 211.7l.8-.4-.8.4zM221.9 115.7l-.3.1-.1-.1.3-.1s0 .1.1.1zM221.5 153.6l.3-.1c0-.1 0-.1-.1-.2 0 .1-.1.2-.2.3zM114.9 242.2l-.1-.1h.1zM49.5 211.8l-.1-.1h.1zM221.6 153.5s0 .1.1.1c-.1 0-.1 0-.1-.1zM134.2 26.9c3.2-2.2 6.8-2.7 10.3-1.4 1.3.5 2.3 1.9 3.1 3.1 1.2 1.7-1 2.1-1.7 3-.1.2-1.4-.1-1.7-.6-1.5-2.3-4.2-2.1-6.2-3.2-.2-.1-.7.2-1.1.4-1.2.4-1.7.2-2.7-1.3zM242.7 128.2c-.6.4-1.2.9-1.9 1.1-2.7.9-5.5.8-8.3.5l-.8-.2c-.9-.2-2.5.4-2.3-1.3 0-.4 1.6-1 2.4-1 3.5.1 7 .3 10.5.5.2.1.3.3.4.4zM225.2 141.6c1.5-2.3 2.9-1.3 4.1-1.1l4.3.8c1.6.4 3.2.7 4.8 1.2.3.1.5.8.8 1.2-5.3 1.9-9-2.1-14-2.1zM233.7 135.4c.8-.2 1.5-.7 2.3-.7 1.4.1 2.7.6 4.1 1 .2.1.5.8.4 1-.3.4-1 .9-1.2.8-1-.7-1.8.2-2.6.2-2.7-.2-5.5-.8-8.1-1.5 1.8-2 3.4-.5 5.1-.1v-.7zM222.5 134c.5.1 1.1 0 1.6.2.4.2.9.6.8.9-.1.4-.5 1-.8 1.1-1.7.5-3.5.9-5.2 1.1-.5.1-1.4-.4-1.4-.7 0-.5.3-1.4.7-1.6 1.4-.6 2.8-.9 4.3-1.4-.1.2-.1.3 0 .4zM145.7 78.5c0 .5.1.9 0 1.4-.1.6-.4 1.3-.6 1.9-.4-.6-1.1-1.1-1.2-1.7-.2-1.3-.2-2.7-.1-4 0-.4.6-.8 1-1.2.3.4.9.7 1 1.1 0 .7-.1 1.6-.1 2.5zM151.8 66.1c-2.3.2-2.3 4.5-5.6 2.9 1.3-2.7 3.3-3.7 5.6-2.9zM160.6 70.5c-.8-.5-1.6-.9-2.5-1.4l.4-.7c1.3-.4 2 .2 2.1 2.1zM159.9 82.1l-1.4.6c-.2-.2-.2-.3-.3-.4.5-.3 1-.6 1.4-.9.2.3.2.5.3.7zM154 107.9c2.1.9 2.7 2 2.3 4.6-2.6-.2-3.1-1.2-2.3-4.6zM153 114.9c.9.3 1.6.4 2.1.8s.9 1.2 1 1.8c.1.5-.5 1.1-.8 1.6-.8-.7-1.8-1.2-2.5-2.1-.3-.4.1-1.4.2-2.1zM153.3 101.6c-.1.2-.3.6-.6 1-.3-.2-.6-.5-1-.7l-.7-.1c-.5-.2-1.1-.3-1.3-.7-.2-.4-.1-1.1-.1-1.6.5.1 1 0 1.5.2 2.2.8 2.2.8 2.2 1.9zM150.5 96.5l-2.9-1.2c.3-.7.6-1.4 1-2.2 1.4.9 2.7 1.3 1.9 3.4zM142.9 97.3c.8.6 1.7 1.2 2.4 1.9.3.3.1.9.2 1.4-.6 0-1.4.2-1.7-.2-.7-.7-1.1-1.6-1.6-2.4.2-.2.4-.5.7-.7zM147.4 105.9c2.8-2.3 2.5.7 3.8 1.5-2.5 1.8-2.5-.8-3.8-1.5zM157.8 98.2l.2-.6h.1c0 .2-.1.4-.3.6zM17.7 170.7c1.3 0 1.6.8 1.1 1.8-.2.4-.8.6-1.3.9-.1-.5-.2-1-.2-1.5 0-.4.3-.8.4-1.2zM68.9 33.5c0-3.4 3.2-5.5 6.2-4 2 1 3.9 2.4 5.6 3.9 1.6 1.3 1.4 2.7-.1 4-.3.3-.7.6-.9 1-1 1.5-2.3 1.5-3.8.8s-2.9-1.4-4.4-2c-1.7-.8-2.6-1.9-2.6-3.7zM24.4 19.4l-1.6.3-.1-.5c.5-.2 1.1-.4 1.6-.5.1.3.1.5.1.7zM16.4 19.1c-.1.1-.2.3-.2.2-.1 0-.2-.1-.3-.2l.3-.3c.1.1.2.2.2.3zM10.7 20l.3-.1c.1 0 .1.2.2.3l-.3.1c-.1 0-.2-.2-.2-.3zM49.3 50.3c-1.5.4-2.2-.4-2.2-1.5 0-.6.6-1.3.9-1.9.3.5.7 1 .9 1.6.1.5.2 1 .4 1.8zM47.3 40.7l.4-.4c.1.7.3 1.4.3 2.1 0 .2-.5.5-.7.7v-2.4zM48 45.5l-.1.3-.3-.2.1-.3.3.2zM70.6 23.3l1.5-1.3c.1.1.2.2.3.4l-1.4 1.5-.4-.6zM72.3 24.5c-.2.2-.3.4-.5.4-.1 0-.3-.2-.4-.3.1-.1.2-.3.4-.4.1.1.3.2.5.3zM44.9 65.5l-.4 2.9h-1.2c-.3-.6-.6-1.3-1.2-2.3.8-.2 1.8-.4 2.8-.6zM34.6 66.4l-1.1 1.2-.4-.3.9-1.3c.1.1.4.3.6.4zM64.6 21.8c-.5.2-1.1.4-1.7.6.4-1.5.6-1.6 1.7-.6zM54.6 67.4c2.4-.3 3.1.3 2.9 2.4-1-.8-1.9-1.5-2.9-2.4z"/></svg>