<?xml version="1.0" encoding="utf-8"?>
<!-- Generator: Adobe Illustrator 21.0.2, SVG Export Plug-In . SVG Version: 6.00 Build 0)  -->
<svg version="1.1" id="murder-comes-calling_xA0_Image_1_"
	 xmlns="http://www.w3.org/2000/svg" xmlns:xlink="http://www.w3.org/1999/xlink" x="0px" y="0px" viewBox="0 0 1440.9 951.9"
	 style="enable-background:new 0 0 1440.9 951.9;" xml:space="preserve">
<g>
	<path d="M1099.9,737.7c-2.6,1-5.2,2.2-7.8,3.1c-0.9,0.3-2.1-0.3-3.1-0.7c-1.7-0.5-3.3-1.5-5-1.7c-2.8-0.4-6.6-5.6-6.2-9
		c0.4-3.7,3.5-7.7-1.7-10.7c-0.2-0.1,1.9-4.1,3.5-7.3c0.1-1.2,0.4-3.9,0.6-6.5c0.6-0.3,1.2-0.6,1.9-0.9c-1.1-0.6-2.6-1-3.3-1.9
		c-2-2.8-1.2-6.1,1.6-7.1c4.5-1.7,4-3.5,1.6-6.5c-0.8-1.1-0.8-2.7-1.3-4.4c-7-1.7-14.1-3.4-21.1-5.2c-0.9-0.2-1.7-1.1-2.2-1.9
		c-2.4-3.8-5.6-3.1-8.6-1.2c-3.2,2-4.9,2.8-7.6-1.7c-2.2-3.6-3.8-7.3-5.8-10.9c-2.2-4.1-2.3-7,2-10.7c-3.1-1.2-5.5-2.1-8.3-3.2
		c0.3-1.2,0.6-2.3,0.9-3.7c-3.7-1.9-5.5-4.6-1.9-10c-3.9,2.2-6.2,3.4-9.4,5.2c7,9.3,11.8,20,12.5,33.4c-4.7-4.2-8.6-7.9-13.7-12.5
		c2,7.8,5.2,14.1,8.5,20.9c-3.6,2.2-2.7,5.1-1.2,8.5c2.4,5.7,4.2,11.5,6.3,17.4c0.3,0.8,0.8,2,0.4,2.3c-3.6,4-0.6,6.7,1.3,10
		c1.1,1.9,0.5,4.7,0.7,7.1c0.1,1.3,0.4,2.6,0.8,5.1c2.4-3.8,3.8-6,4.7-7.4c-1.4-4.5-2.7-8.4-3.9-12.3c0.2-0.4,0.4-0.8,0.7-1.2
		c1.4,1,3.5,1.6,4,3c1.2,3,1.6,6.3,2.4,9.4c0.8,2.7,2.3,5.3-1.5,7.2c-0.9,0.4-1.4,2.9-1,4c1.8,5.9,0.9,7.8-4.9,9.6
		c-1.3,0.4-2.3,1.6-3.5,2.5c0.3,0.5,0.6,0.9,0.9,1.4c2.5-0.9,5-1.9,7.6-2.8c0.3,0.7,0.6,1.4,1,2.1c-2.2,1.2-4.4,2.4-7.1,3.9
		c1.2,4.1,2.5,8.5,3.8,12.8c-0.5,0.2-1,0.5-1.5,0.7c-1.6-2.1-3.3-4.3-5.4-7c-0.4,2.5-0.7,4.2-1,5.8c-0.4,0.1-0.7,0.3-1.1,0.4
		c-0.8-1.4-2.2-2.7-2.4-4.1c-3-20.5-9.8-40-16-59.6c-0.6-2-0.8-4-1.2-6.1c-0.4,0.1-0.9,0.1-1.3,0.2c0.6,3.7,1,7.5,1.9,11.1
		c5.5,20.7,11.2,41.3,16.6,62c1.4,5.2,0.3,11.4,2.7,16c4,7.8,1.9,16.9,7,24.5c3.5,5.2,5.8,11.5,3.8,18.7c-0.7,2.4,2.4,5.8,3.4,8.9
		c1.7,5.4,3,10.8,1.2,16.5c-0.8,2.6-1.8,5.5,1.5,7.4c0.2,0.1,0.5,0.6,0.4,0.9c-1,4.8-1.1,9.3,3.3,12.8c0.2,0.1-0.8,1.6-1.1,2.5
		c-0.3,1.2-1.1,3.2-0.6,3.7c5.5,5.8,1.3,12.4,2,18.6c0.2,2.2,0.8,4.3,1.3,6.4c0.2,0.8,0.9,1.7,0.7,2.3c-1.5,5.8-2.8,11.7-5,17.3
		c-1.2,3.2-4,3.5-7.5,2c-9-4-18.6-6.1-28.5-5.6c-4.4,0.2-5.2-2.5-5.7-5.9c-0.2-1.3-0.2-3.5-0.6-3.6c-1.5-0.3-4.1-0.4-4.5,0.3
		c-1.7,3-3.6,1.4-5.8,1.3c-7.9-0.6-15.9-0.6-23.9-1.1c-2.2-0.1-4.3-0.8-6.5-1.3c-0.8-0.1-1.8-0.6-2.3-0.3c-4.8,2.8-6-1.4-8-4
		c-0.7-0.9-0.6-2.3-1.3-3.1c-3.1-3.4-0.3-4.8,2.2-5.6c5.4-1.9,5.5-1.7,9-7.7c-0.2-0.3-0.3-0.7-0.6-0.7c-1.7-0.6-3.5-1.1-5.2-1.6
		c1.4-1.2,2.8-2.4,4.4-3.4c1.3-0.8,2.8-1.2,4.2-1.8c-0.1-0.5-0.1-1-0.2-1.4c-3.6,0-7.3-0.6-10.8,0.2c-4.2,0.9-5.8-2.1-6.7-4.4
		c-0.7-1.8,0.6-4.9,1.9-6.8c0.8-1.2,3-1.7,4.7-2.1c2.8-0.6,5.8-1,8.7-1.3c3.8-0.4,7.6-0.8,11.5-2.2c-2.8,0-5.6,0.1-8.3,0
		c-3.3-0.1-6.7-0.1-9.9-0.7c-8.4-1.7-16.7-4.2-25.1-5.7c-8.4-1.5-14.3-6.1-19.5-12.4c-1.4-1.7-3.7-2.7-5.9-4.3
		c0.8-1.1,1.6-2.2,2.4-3.2c-5.8-5-6.8-4.8-10.9,1.2c-6.1,8.8-12.3,17.5-18.5,26.3c-0.5,0-1-0.1-1.4-0.1c-0.3-1.3-1.4-3.1-0.9-3.8
		c7.9-11,16.1-21.8,24-32.8c1.6-2.2,2.3-5.2,3.2-7.8c0.8-2.4,1.4-4.9,2.4-8.5c-4-7.9-1.6-12.4,8.4-14.3c2.1-0.4,4.2-0.4,6.5-1.6
		c-0.9-0.4-1.7-1.2-2.6-1.3c-12.8-0.2-24.7-4.6-36.7-8.2c-9.6-2.8-18.9-6.5-28.3-10c-4.6-1.7-6.1-6.2-3.8-11.8
		c1.5-3.6,2.8-6.3-2.3-8.1c-1.5-0.5-3-2.9-3.4-4.7c-1.7-7.9-2.9-16.1,3.3-22.7c5-5.4,10.9-10,16.4-14.8c0.6-0.5,1.5-0.7,2.9-1.3
		c-6.5-3.5-11.5-6.2-16.5-9c-4.5-2.4-4.7-3.2-2.2-8.2c5.4-0.3,7.7,8.4,15.4,4.8c-5.3-3-9.9-5.5-14.4-8.1c3.7-3.6,7.1-3.5,12.3,0.4
		c5.5,4.1,5.6,4.1,11.2,2.8c-2.2-11.6,5.6-18.2,13-24.9c1.8-1.6,4.7-2.1,7.2-2.6c5.8-1.1,11.3-2.2,16.6-5.7
		c4.8-3.2,11.3-3.6,17.1-5.3c0.2,0.6,0.5,1.2,0.7,1.8c-2.3,1.1-4.5,2.2-6.8,3.2c-8.1,3.5-16.3,6.6-24.1,10.5
		c-3.7,1.8-6.9,4.8-9.9,7.7c-2.7,2.7-4.7,5.9-7,9c-4.8,6.4-3.4,12.9,3.5,16.8c4.1,2.3,8,5,12.4,7.8c-5.1,5.8-11.1-4-16.3,1.8
		c3.9,2.8,7.7,5.5,11.4,8.2c-0.1,0.6-0.3,1.2-0.4,1.7c-1.5,0-3.3,0.5-4.5-0.1c-3.4-1.8-6.6-3.8-9.6-6.1c-2.3-1.7-3.6-2.4-6.1,0.2
		c-3.5,3.6-7.9,5.8-9.9,11.2c-1,2.7-6,3.6-8.2,6.1c-1.8,2.1-2.5,5.4-2.9,8.2c-0.4,2.7,0.8,4.9,4.2,5.7c6.3,1.5,7.5,4.4,4.9,10.2
		c-0.6,1.4-1.3,2.7-1.9,4.1c-1,2.3-0.6,3.4,2.2,4.3c4.8,1.4,9.4,3.4,13.9,5.5c1.1,0.5,1.6,2.6,2.6,4.4c2.2-4.8,5.7-3.7,9.5-2.7
		c7.3,1.8,14.7,3.3,22.1,4.8c14.8,3.1,29.6,2.3,44.6,1.8c11.9-0.4,23.8,0.5,35.7,0.3c7.2-0.1,14.4-1.2,21.5-2.3
		c3.3-0.5,5.3-5.9,4.4-9.3c-1.9-7.2-3.5-14.5-5.3-21.7c-0.8-3-1.8-5.9-2.7-8.9c-0.3-0.9-0.5-1.9-0.6-2.8c-0.3-4.9,0.1-9.9-1-14.6
		c-3.7-16.4-5.9-33-5-49.9c0.4-8.6,0.3-17.2,0.3-25.8c0-0.8-0.8-1.6-1.5-3c-7.1,6.3-3.5,14.8-6,21.9c-4-4.2-1.2-9.6-2.9-14.9
		c-2.6,0.6-5.3,0.8-7.9,1.7c-10.2,3.8-20.1,8.2-30.4,11.6c-8,2.6-16.3,4.2-24.6,5.6c-2.6,0.4-5.5-1.3-8.3-2c-0.1-0.5-0.2-1-0.2-1.6
		c4.5-2.6,8.8-5.3,13.4-7.7c11.5-6,23.5-11.3,34.6-17.8c6.4-3.8,12.1-8.6,19.9-9.6c1-0.1,2.5-2.8,2.3-4.1c-0.3-2.1-1.2-5-2.8-5.9
		c-2.9-1.7-6.7-1.9-9.9-3.1c-3-1.2-5.7-3-8.5-4.5c-1.3-0.7-2.7-1.9-3.9-1.8c-5.3,0.8-5.3,1-7.3-3.6c-5.3,6.7-12.2,2.9-18.6,3.2
		c-6.3,0.3-12.7-0.4-19,0c-2.8,0.2-5.6,1.7-8.2,3c-5.1,2.6-9.9,5.9-15.1,8.2c-4.9,2.2-5.9,3.8-3.3,8.5c1.4,2.5,2.7,5.1,4.5,7.1
		c3.9,4.3,3.9,9.8,5,14.9c0.7,3.4-2.6,6.9-6.4,7.6c-3.8,0.7-3.8-2.5-4.6-4.6c-1.5-3.7-2.7-7-0.6-11.3c1-2.1-1.1-6.3-2.7-9.1
		c-5.3-9-3.7-14.8,5.9-19.1c2.2-1,4.3-2,6.5-3c-0.1-0.5-0.3-1-0.4-1.5c-2.1,0.4-4.2,0.9-6.4,1.2c-3.7,0.5-7.5,1.3-11.2,1.2
		c-1.3,0-3.2-1.9-3.8-3.4c-0.4-1,0.9-2.8,1.7-4.1c2.6-4.1,6.1-6.8,11-8.3c1.3-0.4,2.8-3.7,2.4-5.1c-0.5-1.4-3.3-2-6.1-3.5
		c0.8-0.9,1.6-2.5,2.9-3.3c7-4.1,14.1-8,21-12c2.3-1.3,4.4-3,6.6-4.5c-0.1-0.6-0.2-1.2-0.4-1.8c-3.3-0.6-6.6-1.1-9.9-2
		c-4.7-1.3-9.3-3.1-14-4.5c-1.6-0.5-3.6-0.6-5.2-0.1c-5.4,1.8-10.5,5.3-16.7,3.5c-3.8-1.1-6.3-6.6-3.5-9.1c4.6-4,3.2-8.1,1.6-12.5
		c-0.6-1.5-1.1-3.1-1.7-4.6c-0.5-0.2-1-0.3-1.5-0.5c-1.7,3.8-4.7,7.5-4.7,11.3c0,8.4,1.2,16.8,2.4,25.2c1.2,8.8,0.9,17.2-5.7,24
		c-1.1,1.1-2.7,2.2-4.1,2.4c-5.7,0.9-8.7,4.5-10.1,9.7c-5.6,20.3-11.1,40.7-16.9,61c-4,14.2-11.2,26.9-19.5,39
		c-1.1,1.6-2.2,3.3-3.2,4.9c-0.5-0.4-1.1-0.7-1.6-1.1c-0.5-2.7-1.1-5.5-1.6-8.2c8.1-1.6,8.1-3-0.4-12.6c-1.3,2.6-3,4.7-3.5,7.1
		c-2.7,12.5-0.2,23.9,7.7,34c3.2,4,6.1,8.5,10,11.6c6.7,5.3,14,9.8,21.1,14.5c0.9,0.6,2.3,0.2,3.3,0.6c1.2,0.6,2.3,1.5,3.4,2.3
		c-1.3,0.6-2.6,1.3-4,1.7c-0.6,0.1-1.4-0.5-2.1-0.8c-0.3,0.4-0.6,0.9-0.9,1.3c1.7,1.1,3.2,2.3,5,3.3c3.5,1.9,7.2,3.4,10.4,5.6
		c1.2,0.8,1.5,3.2,2.2,4.8c-1.5,0.1-3.1,0.5-4.5,0.2c-3.1-0.7-6-1.9-9.1-2.7c-2.1-0.6-5.6-1.9-6.3-1c-2.3,2.6-3.9,5.9-5.1,9.2
		c-1.4,3.7-2.1,7.6-3.1,11.4c-0.9,3.4-1.2,7.2-2.7,10.2c-1.3,2.4-4.1,4-6.8,6.4c0.2,0.4,0.8,1.8,1.4,3.1c-2.6,2.2-5.4,3.9-7.4,6.3
		c-1,1.2-1.2,4.3-0.3,5.5c2.8,3.8,0.7,5.6-2.7,7.4c2.9,3.8,2.1,6.6-1.9,8.8c-0.6,0.3-0.6,1.9-0.9,2.9c-0.2,0.7,0,1.7-0.4,2.2
		c-7.9,8.8-8.6,20.2-10.9,30.9c-1.1,5.1-0.6,10.6-0.8,15.9c-0.3,8.2-2.8,15.8-8.5,21.8c-1.3,1.4-5.3,2-7,1c-2.4-1.3-4.8-4.2-5.3-6.8
		c-1.4-6.7-1.7-13.6-3.1-20.7c-6.8,9.5-7.3,21-8.6,31.9c-3.6-1.3-6.5-2.4-9.8-3.6c-0.7,2.4-1.3,4.5-2.2,7.7c-1.8-2.4-3.4-3.9-4-5.7
		c-2.2-6.9-8.5-12.5-5.9-21c0.8-2.5-0.8-5.6-1-8.4c-0.2-2.5-2.8-6.1,2.1-6.7c-0.3-4.9-0.5-9.7-0.8-14.5c-0.5-0.1-1.1-0.2-1.6-0.3
		c-0.7,1.3-1.8,2.5-2.1,3.9c-0.6,3.4-1.2,6.9-1.2,10.4c0.2,8,0.6,16.1,1.3,24.1c0.1,1.5,1.8,2.9,2.7,4.3c0.7,1.2,1.8,2.4,1.9,3.7
		c0.3,4.1,0.1,8.2,0.4,12.3c0.7,10-2.5,13.3-12.3,13.4c-34.5,0.5-68.9,1.4-103.4,1.8c-13.6,0.2-27.3-0.5-40.9-0.4
		c-11.1,0.1-22.3,0.8-33.4,0.9c-7.1,0.1-14.6-1.9-21.1,0c-9.7,2.8-19.3,1.9-28.9,2.4c-13,0.7-26.1,0-39.2-0.2
		c-11.9-0.2-23.7-0.2-35.6-0.8c-3.2-0.2-6.8-1.7-9.4-3.6c-2.1-1.6-4.1-4.6-0.9-7.7c0.5-0.5,0-3.4-0.4-3.5c-7-1.6-7.9-8.1-10.3-13
		c-3.5-6.9-5.9-14.3-9.4-21.2c-2.2-4.4-6.1-8-8.3-12.4c-1.6-3.1-1.8-6.9-2.8-10.9c-4.1,0.5-6.1-2.9-7.7-7
		c-3.8-10.3-7.8-20.6-11.8-30.8c-1.4-3.6-3.3-6.9-4.5-10.5c-0.9-2.6-0.8-5.6-1.4-8.3c-0.3-1.7-0.7-3.6-1.7-4.9
		c-8.3-10.9-15.1-22.6-17.8-36.3c-0.2-0.8-0.4-1.7-0.2-2.5c0.5-2,1.2-4,1.8-5.9c1.6,1.1,3.3,2.1,4.9,3.2c0.4,0.3,0.7,0.7,1.1,1.3
		c4.9-2.8,6.2-7,5.7-12.2c-0.6-5.7-1.5-11.6,2.3-16.7c1.9-2.6,4.1-5,6.5-7.3c0.9-1.3,1.5-3.5,2.7-3.7c11-2.6,21,0.6,30.7,5.5
		c0.3,0.1,0.5,0.5,0.6,0.8c0.1,0.3,0,0.6-0.1,1.4c-5.9-1.6-11.6-3.2-17.4-4.8c-0.1,0.4-0.3,0.8-0.4,1.2c2.9,1.1,6,1.7,8.6,3.3
		c6.3,4.1,15.5,1.9,20.3,9.3c0.4,0.6,1.9,0.4,3,0.6c0.9,0.1,2.5,0,2.6,0.5c1.6,4.2,4.2,4.1,8.3,3.6c3.3-0.4,7.6,0.8,9.4,5.1
		c1.2,2.9,8.2,5.7,10.7,4.1c4.3-2.7,8.7-2.3,13.3-1.6c3.7,0.6,5.4-0.4,4.4-4.6c-0.4-1.8,0.1-4.2,1.1-5.8c2.2-3.5,6.6-5.2,7.3-10.1
		c0.2-1.1,3.2-2.3,5-2.6c6-1.1,12.1-2.6,16.4,4c0.6,0.9,2.2,1.1,3.6,1.6c0.6-1.5,1.1-2.6,1.8-4.1c1,0.6,1.9,0.9,2.2,1.5
		c1.8,4.1,4.5,5.9,9.3,5.3c6.8-0.8,12.3,2.1,14.2,7.5c-4.4-1-8.2-1.8-12.1-2.7c-0.2,0.7-0.4,1.4-0.6,2.1c2.9,1,6.2,1.4,8.5,3.1
		c4.5,3.3,10.6,0.6,14.8,5.3c1.7,1.9,6,1.6,9.5,2.4c-2.7-4.4-6.9-5.6-11.1-6.9c-1.6-0.5-4.3-1.9-4.2-2.6c0.6-3.7,3.2-1.2,5-1.2
		c0.3,0,0.6-0.1,1.4-0.3c0.3-7,2.2-13.2,8.6-17.7c3.2-2.2,6-3.2,9.6-2.7c21,2.9,39.7,11.5,57.4,22.7c2.2,1.4,3.2,4.9,5.5,6.1
		c3.2,1.7,3.1,6.9,8.4,6.7c1.3,0,6,1.6,6.6,6.1c0.3,2.6,3,4.3,6,1.4c0.6,1.1,1.1,2.1,1.3,2.5c4-0.5,7.7-1,11.4-1.5
		c-1.8-1-4-1.8-5.7-3.2c-0.9-0.7-1.6-2.8-1.2-3.7c0.4-0.9,2.5-1.9,3.5-1.6c16.4,4.2,32.7,8.6,49,13.1c6.1,1.7,12,4,17.9,6
		c1.3,0.4,2.4,1.3,4.3,2.3c-5.9,3.9-10.8,1-15.5,0.1c-7.1-1.4-14.1-3.8-21.1-5.8c-0.2,0.6-0.4,1.2-0.6,1.8c5.8,2,11.4,4.2,17.3,6
		c7.8,2.4,15.7,4.3,23.4,6.8c1.7,0.6,3.5,2.8,4,4.6c1.8,7.9,1.8,15.8-2,23.4c-0.7,1.4-0.8,3.3-0.6,4.9c0.2,1.3,1.3,2.5,2,3.7
		c1.2-1.1,3.2-2,3.4-3.2c0.7-3.9,0.6-8,1-11.9c0.2-1.8,1-3.5,1.5-5.3c0.6,0,1.2,0,1.9,0c0.7,6.5,1.4,13,2.1,19.5
		c0.6,0,1.1-0.1,1.7-0.1c0.2-1.3,0.6-2.7,0.6-4c-0.1-3.5-0.4-7,3.5-9.1c0.7-0.4,0.9-2.1,0.9-3.1c-0.1-13.4,4.3-25.7,8.9-38.1
		c5.3-14.2,14.5-26,21.6-39.1c0.7-1.2,2.6-1.7,4.9-2c-24.3,35.2-32,74.2-28.8,115.9c3.4-23.8,9.3-47,16.5-70.3
		c-1.7,1.9-3.3,3.8-5,5.7c-0.5-0.3-1-0.5-1.5-0.8c1-3.4,1.4-7.1,3-10.2c7.1-13.3,14.5-26.5,21.8-39.7c0.8-1.4,1.2-3,1.6-4.6
		c0.7-2.6,0.7-5.5,1.9-7.8c2.3-4.6,5.2-8.9,7.8-13.3c-0.6-0.1-1.1-0.1-1.7-0.2c-0.1-2.8-0.5-5.7-0.3-8.5c0.6-7.1,5.1-11.9,9.9-16.6
		c2.4-2.4,2.6-4.9,1.8-8.2c-4.2-18.3-8-36.7-12-55c-1.5-7-1.6-13.9,0.6-20.7c0.5-1.5,0.6-3.2,0.9-5.3c-7.6-1.2-16.7,0.2-18.5-11.8
		c-2,1.2-4,2-5.5,3.3c-2.3,1.9-4.1,4.3-6.4,6.3c-6.2,5.5-11.3,6-18.7,2.4c-2.7-1.3-5.5-2.4-8.2-3.8c-2.7-1.4-3.7-0.2-4.1,2.2
		c-0.7,4-1.2,8.1-2.3,12c-0.7,2.8,0,4,2.4,5.6c2,1.2,4,3.8,4.3,6c0.9,7,0.6,14.1-4.6,19.7c-1.5,1.6-3.7,2.5-5.6,3.8
		c-1.3-2.5-3.8-5.1-3.6-7.5c0.5-5-0.9-9.1-3.4-13.2c-2.2-3.6-5-7-6.5-10.8c-1.1-2.9-0.7-6.3-1-9.8c-4.5,0.6-8.2,1.5-8.9,6.9
		c-0.6,4.3-1.9,8.4-2.5,12.7c-1.4,9.6-10.7,19.4-18.6,19.3c-4.9,0-6.6-1.9-5.1-6.5c1.3-3.7,3.3-7.2,4.7-10.9
		c2.7-6.9,5.6-13.8,7.8-20.9c1.3-4.2,4.2-5.1,7.1-4.1c10.6,3.8,16.8-1.4,22.5-9.4c1.9-2.7,6-3.9,9.7-6.1c-0.4-6.4,4.6-9.4,18.3-8.7
		c-2,0.8-3.2,1.2-4.4,1.7c0.2,0.6,0.3,1.2,0.4,1.2c4.4,0.2,8.9,1.2,13.1,0.4c8-1.5,11.1-8.9,15.4-14.6c2.6-3.4,5.5-5.4,10.2-5
		c-1.6,3.2-2.9,6-4.4,9.1c7.4,0.9,9.4-0.4,10-5.1c0.3-2,1.1-3.9,1.7-5.9c1.3,1.3,2.7,2.6,5.2,5c-0.8-6.7-1.3-12.3-2.2-17.8
		c-0.2-0.9-2.2-1.8-3.5-2c-3.7-0.5-7.5-0.6-11.2-1c-9.1-1-18.1-2-27.2-3.2c-1.5-0.2-3-1.2-4.5-1.9c1.5-1,3.1-2.8,4.6-2.8
		c7.9,0.1,15.9,0.8,23.8,1.2c1.4,0.1,3.8,0.4,4.2-0.3c2.8-4.6,6.3-3,9.4-1.1c4.7,2.9,8.9,0.5,13.3-0.3c7.1-1.3,14.2-2.9,21.2-4.6
		c1.1-0.3,2.2-1.9,2.8-3.1c4.2-7.7,8.3-15.5,12.4-23.2c1.1-2,1.7-4.3,2.8-6.3c3.1-5.8,6.4-11.4,9.4-17.2c3.6-6.9,7.1-13.8,10.7-20.7
		c2.1-3.9,4.2-7.7,6.5-11.5c1.6-2.7,1.2-17.2-1-19.4c-1-0.9-2.8-1-4.4-1.4c-2.2,12.7-12.7,25.2-19.9,26.6
		c-6.8-3.2-11.8-5.5-16.9-7.9c-0.3,0.5-0.6,1-0.8,1.5c4.4,3.2,8.7,6.4,13.1,9.6c-0.2,0.5-0.3,1-0.5,1.5c-1.5,0.1-3.1,0.6-4.4,0.2
		c-19.4-6-39.6-7-59.7-8.7c-20.4-1.7-40.8-3.1-61.2-4.8c-6-0.5-11.9-1.3-17.9-3.6c-4.8-1.9-11.2-0.4-16.7,0.3
		c-9.2,1.2-18.6,2.1-27.5,4.8c-5.9,1.8-11.5,3.4-17.7,2.4c-7.1-1.2-14.3-2.6-21.4-3.8c-17.3-2.9-31-13.7-46.1-21.4
		c-6.8-3.5-13.1-8.2-19.6-12.2c-3.2-2-6.5-3.7-9.7-5.6c0.2-0.6,0.4-1.1,0.7-1.7c1-0.2,2.1-0.5,3.1-0.5c10.8,0.3,21.7-0.4,32.3,1.3
		c13.9,2.2,27.5,6.2,41.1,9.7c2.3,0.6,4.8,2.3,6,4.2c2.9,4.7,7.2,5.1,11.9,5.2c5.4,0.1,10.8,0,14.5,0c1.9-4.2,2.5-7.9,4.7-10.1
		c5.8-5.9,11.8-11.8,18.5-16.6c10.9-7.7,22.5-14.5,33.9-21.6c2-1.2,3.8-2.7,6-3.5c1.8-0.6,4-0.3,6-0.4c-0.2,2.2-0.2,4.5-0.6,6.7
		c-0.2,0.8-1.3,1.8-2.1,2c-7.9,2.2-7,10.3-10.1,16.1c5-2.6,10.1-5,15-7.7c4-2.2,7.7-5.1,11.8-7c12.5-5.7,25.2-11,37.9-16.4
		c2.4-1,5.6-3.6,7.4,1.1c1.6,4.3,0.1,8.3-4.4,10.1c-0.4-1.1-0.7-2.2-1.5-4.6c-2.6,2.4-4.6,4.2-6.9,6.4c-2.7-1.9-4.6-1-6.2,2.9
		c-0.9,2.2-3.1,4.2-5.1,5.7c-1.5,1.2-3.7,2-4.5-1.3c-0.1-0.6-1.4-1.2-2.1-1.2c-0.6,0-1.8,1-1.7,1.4c1.5,5.9-4.1,6.8-7,8.5
		c-12.3,7.4-25.2,14.1-37.7,21.2c-1.5,0.9-2.6,2.9-3.5,4.5c-1.7,3-3.8,3.8-7.3,3.5c-3.4-0.2-6.9,1.2-10.4,2.2c-3.6,1-7.1,2.2-10.4,4
		c5.8,3.1,11.4,0.8,16.7-0.5c10-2.5,19.8-5.6,29.7-8.4c1.3-0.4,2.8,0,4.4,0.7c-5.5,5.7-13.5,4.9-19.9,8.9c1.7-0.3,3.5-0.5,5.2-0.8
		c2-0.3,3.9-0.7,5.9-0.8c4.2-0.1,8.4,0.2,12.6,0c5.1-0.2,10.2-0.7,15.3-1c4.1-0.2,8.3,0.1,12.4-0.5c3.1-0.5,6.8-1.3,9-3.3
		c10.4-9,21-17.9,30.5-27.8c9.2-9.7,17.2-20.6,25.6-31c0.8-1,0.4-2.9,0.5-3.4c2.1-1.8,3.9-3,5.3-4.5c3.7-4.2,7-8.7,10.7-12.9
		c0.8-0.9,2.3-1,3.8-1.7c0.5,1.7,0.9,3,1.5,5.2c1.4-1.6,2.4-2.6,4.1-4.6c1.3,2.7,3.3,5,3.5,7.4c1.6,14,3.2,28,3.9,42.1
		c0.3,6,0.7,11.7,2.6,17.5c1.7,5.2,4.6,6.8,9.6,6.5c7.2-0.4,11.7,2.7,14.1,9.8c2.2,6.6,3.8,13.3,5.7,20c0.2,0.7,0.7,1.4,1.5,2.9
		c2.3-4.5,4.6-8.2,6.2-12.2c4.6-11.6,12.1-21.3,20.8-30.1c2-2,5.1-3.2,6.2-5.5c1.9-3.9,2.6-8.4,3.7-12.6c2-8.3,4-16.6,5.9-24.8
		c2-8.4,4.1-16.8,5.7-25.3c0.4-2-0.9-4.5-1.8-6.6c-1.7-3.8-3.6-7.5-5.6-11.1c-1.4-2.5-3.2-4.9-4.8-7.3c-0.8,0.5-1.5,0.9-2.3,1.4
		c1.4,2.6,2.8,5.1,4.3,7.7c-0.4,0.4-0.8,0.8-1.2,1.2c-3.7-3.4-7.8-6.6-11-10.4c-2.4-2.9-4.2-6.5-5.5-10c-1.6-4.3-4.9-4.7-8-3.3
		c-4.7,2.1-9,5.2-13.9,8.1c2.4,1.9,4.5,3.7,7.2,5.9c-4.3,1.8-7.3,1.6-9.9-1c-2.5-2.5-4.9-5-7.3-7.5c-5.6-5.9-9.2-5.9-15.3-0.5
		c-1.9,1.6-4.5,2.4-6.8,3.6c1.3-2.4,2.3-5,4.1-7c1.9-2,4.4-3.5,6.8-5c2.8-1.8,5.4-2,8.2,0.3c2.3,1.9,4.9,3.3,7.5,4.9
		c3.1,2,5.5,1,8-1.3c4.1-3.7,8.4-7.1,14.5-6.7c5.9,0.3,8.7,4.4,10.8,9.1c1.5,3.3,2.9,5.4,7.3,5c2.4-0.2,5.6,1.9,7.4,3.9
		c5.6,6.3,5.4,5.8,13,2c7.7-3.9,16.4-5.1,25.1-2.5c1.5,0.5,3.2,0.3,4.8,0.4c-0.4-1.7-0.2-3.9-1.3-5c-3.5-3.8-5-7.6-0.9-11.7
		c1.3-1.4,3.6-1.8,5.4-2.7c0.3,0.4,0.6,0.9,0.9,1.3c-0.6,0.9-1.1,1.8-1.7,2.7c-2,3-1.6,5.2,1.8,6.8c7,3.3,7.2,4,4.5,11.3
		c-0.9,2.5-3,6.4-2,7.5c2.8,3.3,6.6,5.8,10.4,7.9c5.9,3.3,10.8,0.6,16.1-2.6c6.4-3.9,11.6-8.5,15-15.2c0.7-1.3,0.7-2.9,1-4.4
		c0.4-1.8,0.7-3.6,1.1-5.3c1.3,1.1,2.6,2.1,3.9,3.2c3.2-2,7.2-3.9,10.6-6.6c2.5-2,4.7-4.8,6.1-7.6c4.4-9.1,8.4-18.5,12.6-27.7
		c1.2-2.6,1.3-4.6,0-7.4c-1.7-3.8-5.3-8.6,1.6-11.7c0.3-0.1-0.3-3.3-1.2-4.5c-0.9-1.2-2.7-1.9-4.2-2.7c-3.7-1.9-4.5-4.2-1.3-6.7
		c-0.5-1.8-0.9-3.2-1.4-4.7c1.5-0.2,3-0.6,4.5-0.5c7.1,0.5,16-0.6,17.1-11.5c1.1-10,2.3-20.2,1.6-30.2c-0.5-6.3-3.6-12.8-7-18.3
		c-4.3-7.2-17.1-6.7-24.1,0c-1.6,1.6-3.5,3-5.3,4.4c-4.4,3.5-8.8,7.1-13.4,10.4c-3.5,2.5-11.1,2.3-15.8-0.6c4.7-1.5,8.7-2.7,12.7-4
		c-0.1-0.5-0.1-0.9-0.2-1.4c-5.4,0.6-10.7,1.2-16.1,1.8c-0.1-0.7-0.2-1.3-0.3-2c4.3-1,8.6-1.9,12.9-2.9c0-0.5,0-1-0.1-1.4
		c-4.8,0-9.6-0.1-14.4,0c-6.7,0.2-7.6-0.4-8.1-7c-0.2-3.4-2.4-2.8-4.5-3c-1.3-0.1-2.4-1-3.7-1.6c1.1-0.7,2.3-1.9,3.4-1.9
		c10.1,0.2,20.2,0.6,30.4,1.1c2.4,0.1,4.8,0.6,7.2,0.9c0.1-0.4,0.2-0.9,0.3-1.3c-3.4-1.2-6.9-2.3-10.5-3.5c2.6-3.8,10.2-7.1,14-6.1
		c4.8,1.2,9.6,2.7,14.8,4.2c-2.5-4.6-6.8-6.6-11-5.6c1.2-1.2,2.4-2.5,3.6-3.7c-2.4-0.7-4.7-1.5-7.5-2.4c4.9,0,10.2,0,15.5,0
		c0.1-0.5,0.3-1,0.4-1.5c-0.9-0.7-1.8-1.5-2.9-1.9c-5.6-2-11.3-3.8-16.9-5.8c-1.1-0.4-1.8-1.8-2.7-2.7c1.1-0.4,2.5-1.5,3.3-1.2
		c6.1,2.1,12.2,4.4,18.2,6.8c4,1.6,7.9,3.5,12,5.3c0.3-2.9,0.5-4.9,0.7-6.8c2.7,0.5,5.6,0.6,8.1,1.6c3.2,1.3,5.5,4.9,9.8,2.9
		c0.5-0.2,1.6,1.5,2.6,2c1,0.5,2.2,0.6,3.3,0.9c0.2-0.5,0.4-1.1,0.6-1.6c-3.4-1.6-6.8-3.2-10.8-5.1c1.6-1.1,2.7-1.9,3.9-2.7
		c-3.1-6.2-11.8-7.7-12.9-16.1c-9.1-3.2-18.8-7.1-28.8-9.9c-6.5-1.8-13.4-2.4-20.2-2.9c-6.6-0.5-13.2,0-19.8-0.2
		c-1.2,0-2.4-1.7-4-2.8c-2.3,1.1-5.4,1.3-5.9,5.5c-0.1,1-4.2,1.6-7,2.6c-0.2,2.1-0.1,4.8,3.6,3.8c8.1-2.1,14.7,4.8,22.6,3.3
		c0.1,0,0.4,0,0.5,0.1c3.9,3.2,7.8,6.4,12.9,10.6c-3.2,0.3-5.4,1.1-7.4,0.7c-10.8-2.4-21.2-1.2-31.9,1.3c-4.8,1.1-9.2,1.6-12.6,5.7
		c-1.2,1.5-4.3,1.6-6.4,2.4c-1.7,0.6-3.3,1.4-4.6,2.8c11.3-1.9,22.7-3.8,34.3-5.7c-3-0.7-6-1.5-9-2.3c0-0.5,0-1,0-1.4
		c1.7-0.2,3.6-0.8,5.2-0.5c6.9,1.3,13.6,3,20.5,4.3c3,0.6,4.1,2.4,3.6,4.9c-0.6,3.4-1.6,6.8-3,10c-0.4,0.9-2.4,1.4-3.8,1.7
		c-4.8,1.1-9.6,2.3-14.4,3.1c-1.4,0.3-3-0.3-4.5-0.4c0.7-1.5,1.2-3.9,2.3-4.2c4.5-1.4,9.2-2.1,14.8-3.3c-3.6-1.3-6.8-2.6-10-3.4
		c-10.9-2.7-21.5-1.1-31.8,2.9c-3.2,1.3-5.9,1.9-8.3-1.6c-0.8-1.1-2.9-1.3-4.4-1.7c-5.7-1.3-6.6-4.4-5.8-10.1
		c1.2-8,4.3-14.8,10-20.1c5.2-4.8,11.4-8.6,17.2-12.8c4.5-3.2,9-6.3,13.5-9.4c-0.2-0.6-0.4-1.2-0.6-1.8c-2.5,0.5-5.5,0.4-7.5,1.8
		c-6,4-11.7,8.4-17.2,13.1c-2.6,2.2-4.4,5.5-6.8,8.1c-2.4,2.5-5.7,4.3-7.5,7.1c-4.4,6.9-8.1,14.3-12.4,21.4
		c-0.8,1.3-2.8,2.9-3.8,2.6c-1.5-0.4-2.8-2.2-4-3.6c-0.8-1-1.1-2.3-1.7-3.6c-5,4.8-3.7,8.7,4.6,11c6.3,1.8,9.3,5.2,8.7,10.8
		c-0.1,0.9-0.3,2.3-0.9,2.6c-4.9,3-9.3,6.5-16,4.4c-7.1-2.2-8.4-0.4-7.2,6.7c1,5.6,2.1,11.2,2.2,16.8c0,8-1.3,16.1-1.3,24.1
		c0.1,8,2.3,9,10.7,6c-1-1.8-2-3.6-3.1-5.4c0.3-0.4,0.7-0.8,1-1.1c2.1,1.1,4.3,1.9,6.2,3.3c6.4,4.6,10.7,1.7,14.4-2.3
		c2.7-2.9,4.6-6.5,7.2-9.6c2.7-3.3,5.7-6.3,8.6-9.4c1.1-1.2,2.3-2.4,3.1-3.8c2.6-4.2,9.6-5,12.7-1.1c0.8,1,1.3,2.8,1,4
		c-0.2,0.8-2.1,1.7-3.2,1.6c-7.9-0.5-11.4,4.9-14.9,10.5c-2.9,4.6-5.8,9.1-8,14.8c2.1-0.9,4.4-1.6,6.3-2.8c8.2-5.2,17.4-2.7,21.6,6
		c0.5,1.1-0.1,3.8-0.7,4c-2.8,0.9-5.7,1.5-8.7,1.5c-0.6,0-1.3-2.4-2-3.6c-0.7-1.1-1.5-2.2-2.2-3.3c-0.5,1.1-1.1,2.1-1.5,3.2
		c-1.2,3.2-2.4,6.4-3.6,9.5c-0.2,0.4-1.1,0.4-1.7,0.6c-0.3-0.8-0.9-1.7-0.8-2.4c0.6-4.5-3.2-8-7.3-6.3c-3.9,1.7-6.9,0.5-10.2-1.7
		c-2.7-1.8-5.9-2.7-8.8-4c-0.3,0.5-0.5,1-0.8,1.5c0.4,0.6,0.8,1.5,1.4,1.7c6.5,2.3,6.8,7.3,6.4,13c-0.2,2.6-0.1,5.3,0.4,7.9
		c1.3,7.4,0.8,14.4-2.1,21.5c-1.2,3-1.3,6.8-0.9,10.1c0.4,3.4,3.2,4.9,6.6,4.8c2.9-0.1,5.1,0.4,7.3-3.6c3.9-7.1,8.8-14.4,20-13.7
		c-1.7-2.5-3.1-3.8-3.5-5.4c-0.4-1.7,0.1-3.6,0.2-5.4c1.7,0.2,4.2-0.3,4.9,0.6c3.5,4.9,7.3,7.7,13.9,7.9c3.5,0.1,6.9,4.8,10.4,7.2
		c2.6,1.7,5.2,3.5,8.1,4.6c3.2,1.3,4,3.3,3,6.2c-1.2,3.4-3.8,3.2-6,1.5c-3.7-2.8-7.1-6.1-10.7-9.2c-1.1-0.9-2.3-2.3-3.5-2.5
		c-10.1-1.1-20.2-0.9-29.4,4.3c-1.8,1-3.3,2.7-5.3,4.4c4.6,3.4,1.7,5.4-1.1,7.3c-7.7,5.2-20.5-1.3-21.1-10.7
		c-0.1-2.3-0.1-4.8,0.6-6.9c2.4-7.4,1.6-14.8,0.5-22.2c-0.3-2.3-0.4-4.7-0.2-7c0.6-5-1.8-8.2-6.3-8.4c-10.2-0.6-12.1-8.6-15.2-15.7
		c-0.6-1.3-0.5-3-0.4-4.4c0.6-6.7,2.6-13,0.1-20.1c-1.7-4.9-0.3-10.9-0.3-16.5c0-0.8-0.3-1.5-0.6-3c-5.7,3.1-10.7,6-10.9,13.8
		c2.8-0.2,5.7-0.3,8.6-0.5c-0.5,2.5-0.8,4.6-1.3,7.4c-1.3,0.3-3.4,0.9-6.2,1.6c0.6-2.3,1.1-3.7,1.8-6.2c-1.5,1.1-2.5,1.5-3.1,2.3
		c-1.7,2.4-4.1,3-5.8,0.7c-1.1-1.5-1.3-4.4-0.6-6.1c2.5-6.4,6.8-11.5,13.4-14.2c0.3-0.1,0.5-0.8,1.2-1.9c-2.7,0.6-4.9,0.7-6.7,1.5
		c-1.5,0.7-2.6,2.2-3.9,3.4c-0.4-0.3-0.9-0.7-1.3-1c0.4-1.2,0.8-2.5,1.4-4.2c-2.6,1-5.6,1.3-7.1,3c-5.6,6.2-7.4,7.1-12.3,4.2
		c-6.4-3.8-8.3-9.3-5.9-15.6c3.7-9.7,10.7-16.1,19.6-20.7c1.2-0.6,3.6-1.3,4.2-0.7c4.1,4.3,7.1,0.4,10-1.3c3.1-1.7,5.6-4.4,9-7.1
		c-2.1-0.2-3.8-0.4-5.5-0.5c-0.8,0-2.1,0.5-2.3,0.1c-3.7-4.9-5.9-0.9-9.5,0.5c-7.3,2.8-12.9,7.2-18,12.6c-0.5,0.6-2.4,0.9-2.6,0.6
		c-0.7-1-1.4-2.3-1.4-3.5c0.3-7.6,4.5-13,11-15.9c7-3.1,14.6-5,22-7.5c1-2.8,1.8-6,3.4-8.9c0.5-1,3-1.8,4.3-1.5
		c3.2,0.7,6.2,2.1,9.3,3.1c1.3,0.4,3.4,1,3.8,0.5c0.8-1.1,1.4-3,1-4.3c-0.6-2-2.2-3.7-3.1-5.7c-0.6-1.4-0.7-3.1-1.1-4.7
		c1.9,0.5,4.1,0.5,5.6,1.5c1.1,0.8,1.4,2.8,2.1,4.3c3.4-1.8,4-4.6,2.8-8.3c-0.5-1.5-0.7-3.3-0.5-4.9c0.6-3.8,2.6-6.1,6.9-5.2
		c1.5,0.3,2.9,0.7,4.4,1.1c5.7,1.4,5.7,1.4,5.9-4.4c0.1-3.9,2.7-5.7,6.1-4.2c4,1.8,7.7,1.4,11.9,0c7-2.3,14.5-3.2,21.7-4.8
		c9-2.1,17.9-4.4,26.8-6.6c1.9-0.5,3.8-1.1,5.7-1.1c2.6-0.1,5.3,0.1,7.9,0.5c4.8,0.8,9.7,1.5,14.4,2.9c9.9,3,19.7,6.5,29.5,9.7
		c8,2.6,13.5,8.2,18.2,14.7c0.8,1.1-0.3,3.7-0.7,6.8c11.1,12.3,15.9,29.8,23.5,45.8c0.5-0.1,0.9,0,1-0.2
		c7.6-12.4,20.9-18.1,31.6-26.9c2.7-2.2,4.9-5,7.7-7c10.3-7.7,20.6-15.4,31.2-22.7c8.7-6,17.6-12,27-16.7
		c11.6-5.9,23.8-10.8,36-15.4c5.8-2.2,12.2-3.4,18.4-4c4.8-0.4,9.8,0.7,14.6,1.7c1.2,0.2,2,2.2,3,3.4c-1.2,0.8-2.3,2.1-3.5,2.3
		c-6,1.1-11.5,3.1-16.1,9.2c8.4-0.3,16.4-1.6,20.7,7.3c-0.2,0.1-1.2,1.1-2.2,2c0,0.2,0,0.5,0,0.5c5.1,0.5,2.8,6.8,6.6,8.2
		c1,0.3,3,0.2,3.1-0.1c0.5-1.8,1.4-4.1,0.7-5.6c-3.5-8.3,0-14.5,5.1-20.6c3.2-3.8,6-7.7,11.8-5.8c4.5,1.5,8.9,3,13.4,4.5
		c0.9,0.3,1.8,0.5,2.7,0.7c2.6,3.5,5.9,6,10.2,6.8c0.3-0.6,0.6-1.1,0.9-1.7c-3.7-1.7-7.5-3.3-11.2-5c-0.9-2.5,0.5-3.3,2.4-2.4
		c4.5,2.1,8.8,4.5,13.1,7c0.9,0.5,1.9,1.8,1.9,2.8c-0.2,5.8,4.5,8.3,7.9,11.2c3.3,2.8,4.5,5.4,3.1,9.4c-4.6-1.9-9.3-3.7-13.9-5.6
		c-0.4-0.2-0.8-0.6-1.1-1c-5.9-7.9-14.6-11.7-23-15.9c-1.6-0.8-3.6-1-5.8-1.5c8,5.3,15.8,9.5,22.5,15.1c6.8,5.7,12.4,12.7,19.3,20
		c0.7-4.5,1.3-7.9,1.9-11.2c1.7,0.6,3.4,1.3,5.2,1.8c3.6,1,4.3,2,2.9,6.3c-1.6,4.8-3,10.7,0.4,15.9c0.2,0.3,0.4,0.8,0.6,0.8
		c7.6,1,6.9,9.9,12.3,13c0.9,0.5,1.5,1.8,1.8,2.9c2.3,6.7,4.4,13.4,6.6,20.2c0.1,0.3,0.2,0.6,0.3,1c0.4,1.5,2.1,19.9,1.7,21.1
		c-0.5,1.4-1.2,2.7-1.9,4c-2.7,4.5-5.3,9-8.1,13.5c-1.6,2.7-3.4,5.2-5.1,7.8c-0.3,0.4-0.9,0.7-1,1.1c-1.7,8.9-8.6,13.5-14.6,19.1
		c-2.3,2.1-3.3,5.6-4.8,8.5c-4.2,7.7-9.2,15.1-12.3,23.3c-2.1,5.5-2.9,12.2,0.3,18.1c2.2,4.1,4.5,8.2,7.7,11.5c1.9,2,6,4.1,8.1,3.4
		c5.2-1.9,7.8,0.2,10.2,4c2.1-1.1,4-2.1,5.9-3.1c8.4-4,12-3.3,17.9,3.8c1,1.1,1.9,2.4,2.3,3.8c0.4,1.4,0.3,3.1,0.3,4.6
		c-1.4-0.1-2.7-0.1-4-0.4c-3.2-0.7-6.4-1.6-9.6-2.4c-0.3,0.6-0.6,1.2-0.9,1.7c1.6,1.5,3.1,3.1,4.7,4.5c4.5,3.7,9.5,6.9,13.5,11
		c2.4,2.5,3.4,6.3,5.2,9.4c2.5,4.2,5.4,8.1,7.6,12.4c1,1.9,1.4,4.6,0.9,6.6c-0.9,3.3-0.7,3.8,3,3.8c2.9-0.1,6.6,1.4,8.6,3.5
		c1.3,1.3,0.8,5.2-0.1,7.5c-1.2,2.8-0.3,4.3,1.6,6c1.2,1,3,2.5,2.9,3.5c-0.9,5.1,2.2,7.2,5.9,9.1c0.9,0.5,1.9,1.4,2.3,2.4
		c5.4,12.3,9.7,25,11.7,38.3c0.3,1.9,1.1,3.8,2,5.5c1.4,2.7,5.1,4.7,2.3,8.7c-0.3,0.5,1.3,2.4,1,3.7c0,2-0.8,4.7,0.2,5.9
		c1.2,1.5,4,1.7,6.6,2.8c-4.7,4.3-3.2,7,1,10.1c2.3,1.7,4.4,5.4,4.5,8.2c1,20.1,1.5,40.2,2,60.3c0.3,13.4,0.4,26.9,0.3,40.3
		c0,5.6-0.6,11.2-1.1,16.8c-0.1,0.9-1.1,1.7-1.7,2.6c-0.9-0.6-2-1.1-2.5-2c-1.1-1.6-1.8-3.4-2.7-5c1.1-1.9,2.2-3.8,4.1-7.1
		c-3.3,0.8-5.1,1.3-6.9,1.8c-1,0.3-2.6,1-2.9,0.7c-0.8-0.9-1.2-2.2-1.3-3.4c-0.1-0.9,0.2-2.2,0.8-2.8c7.3-6.7,4.3-14.7,3.3-22.6
		c-0.4-3.3-0.1-6.7-0.3-10c-0.1-1.8-0.4-3.7-1.1-5.3c-0.3-0.8-1.8-1.4-2.7-1.5c-0.5,0-1.5,1.3-1.6,2.1c-0.3,7.2-0.6,14.4-0.7,21.6
		c0,6.9,1.3,13.5-1.2,20.6c-1.7,4.9,0.3,11.1,0.7,16.7c0.1,1.6,1.5,3.5,1,4.6c-2.1,4.2-3.3,8.2-2.2,12.9c0.1,0.7-1.9,2.1-3.1,2.7
		c-6.3,3.5-10.3,8.5-12.7,15.5c-1.6,4.5-5.6,8.2-9,11.8c-0.9,1-3.8,0-5.9-0.1c1.1,5.7,1,5.6-3.8,11.6
		c-10.7,13.5-23.3,24.9-37.1,34.9c-4,2.9-8.7,4.8-13,7.4c-1.6,1-3.2,2.3-4.3,3.9c-1.3,1.8-1.3,3.5,1.4,4.6c5.2,2.2,5.8,4.1,4.3,8.7
		c2.8,4.5,5.4,8.5,7.7,12.5c2.4,4.2,4.6,8.4,6.7,12.7c0.7,1.4,0.7,3.2,0.7,4.8c-0.1,2.9,1.3,4.7,2.9,7.1c2.9,4.5,3.5,10.3,5.2,15.6
		c0.6,2,1.3,4.1,2.3,6c0.5,1.1,1.9,1.9,2.4,3c3.2,6.9,3.1,6.9-6.4,11.5c4.9,6.9,3.8,11.2-3.8,15.2c-2.7,1.4-5.7,2.7-7.9,4.7
		c-3.2,3-3.3,11.3-0.7,15c3.1,4.3,6.9,8.2,5.6,14.2c-0.6,3-1,6-1.7,8.9c-0.7,3-1.6,5.8-2.7,10c-2.3,2.2-6.1,5.3-9.3,8.9
		c-4.5,5.2-8.8,10.2-15,13.9c-4.5,2.7-7.4,7.9-11,12c-5.4,6.5-10.8,13-16.1,19.6c-0.6,0.8-1.3,1.6-1.5,2.5c-1.1,5.1-4.4,6.1-9.2,4.9
		c-2.3,4.4-4.3,8.2-10.5,9.2c-6.4,1-12.1,5.4-18.3,7.8c-2.5,1-5.5,0.8-8.3,1.1c-1.1,0.1-2.3,0.1-3.3,0.6c-4.8,2.6-5.3,2.4-5.5-3.7
		c-1.3,0.3-3.4,0.5-3.4,0.8c-0.1,1.8,0.3,3.6,0.4,5.3c-2.4,1.9-4.8,4.5-7.7,6c-2.3,1.2-5.4,1.1-8.1,1.3c-3.6,0.2-7.4,0.8-10.8,0
		c-1.9-0.4-3.4-3.2-4.6-5.3c-0.6-1.1,0.1-2.8,0.2-4.5c-2.7,0.4-5,0.7-8.5,1.2c0.7,2,1.5,3.9,2.6,7.1c-0.9,2.2-1.8,2.8-6.8,1.7
		c-9.2-2-7.2-8-7.2-13.3c-0.1-11.2,0.6-22.5,0.4-33.7c0-3.2-1.9-6.3-2.9-9.5c-0.6,0-1.2,0-1.9,0c1.4-1.7,2.8-3.4,5.2-6.2
		c-4.4-1.3-8.2-2.5-11.9-3.6c-0.4,0.5-0.8,1-1.2,1.5c5.2,1.8,3.9,4,1.4,6.6c-2.1,2.2-3.8,4.9-5.9,7.1c-1.1,1.1-2.6,2.1-4.1,2.3
		c-0.6,0.1-1.8-2-2.2-3.3c-0.9-3.2-3.1-6.3,0.2-9.7c0.7-0.7-1.1-3.9-2-6.6c-2.3,2.1-4.3,3.9-7,6.4c-0.9-6.4,5.4-7.6,6.4-12
		c-1.7,0-3.1,0-4.5,0c0.4,0.3,0.7,0.6,1.1,0.9c-3.2,3.9-6.4,7.9-9.8,11.7c-1.4,1.6-3.2,3-5,4.1c-0.8,0.5-2.2,0.1-3.3,0.1
		c0.2-1.2,0.1-2.7,0.8-3.4c1.3-1.3,3-2.2,4.5-3.3c-0.2-0.4-0.5-0.8-0.7-1.2c-3.1,1.6-6.2,3.3-9.5,5c-3.3-7.9,5.4-6.7,6.8-9.8
		c-2.7-1.3-5.1-2.2-7.1-3.7c-0.6-0.5-0.6-2.9,0.1-3.8c1.2-1.7,2.9-3.2,4.6-4.5c4.9-3.8,7.7-10.6,16.1-9.6c-0.1-0.7-0.2-1.4-0.3-2.1
		c-1.2-1-2.4-2-3.5-3c-0.8,1.2-1.6,2.4-2.9,4.4c-0.8-0.1-2.5-0.3-5.9-0.8c4.9-5.9,9.1-11,13.2-16c-0.3-0.4-0.6-0.7-0.9-1.1
		c-2.6,1.4-5.2,2.6-7.7,4.2c-10.7,6.9-21.3,14.3-34.5,14.8c-3.9,0.2-8.4-1.6-11.6-3.8c-8.6-6-17.7-11.6-23.2-21.2
		c-2-3.5-5.6-6-8.4-9c-1-1.1-2-2.3-2.6-3.6c-0.3-0.7,0-1.9,0.5-2.6c0.2-0.3,1.7-0.3,2.2,0.1c1.5,1,2.8,2.3,4.4,3.3
		c4.2,2.6,8.4,5.2,12.6,7.7c0.5,0.3,1.4-0.1,3.2-0.4c-1.7-1.3-2.7-2-3.7-2.8c0.3-0.4,0.5-1,0.8-1.1c3.3-1.1,6.7-1.9,10-3.1
		c4.7-1.7,9.3-3.6,14-5.3c3.3-1.2,6.4-3.8,10.3-1c0.3,0.2,2.6-2.3,4.6-4.1c0.4,0.2,1.7,0.7,3.8,1.5c0.8-2.1,1.3-4.3,2.5-6.1
		c1-1.5,2.7-2.6,4.2-3.8c0.4,0.4,0.8,0.9,1.1,1.3c-0.7,1.1-1.3,2.2-2,3.3c0.3,0.2,0.5,0.3,0.8,0.5c2.7-4.5,5.5-9,8.7-14.4
		c-9.3,5.6-17.8,10.8-26.4,16c-0.5-0.6-1-1.2-1.4-1.8c1.9-1.7,3.7-3.3,5.6-5c-0.3-0.1-0.5-0.3-0.8-0.4c1.5-2.3,2.5-5.1,4.6-6.8
		c0.9-0.8,3.7,0.8,6,1.3c-0.1-0.7-0.2-1.7-0.4-3.2c1.3,0.2,2.4,0.3,3.6,0.5c0.1-1.7,0.2-3.3,0.4-5.2c-2.2,1-4.3,2.1-6.6,3.1
		c-0.4-0.8-0.8-1.6-0.7-1.7c4.2-3.2,5.9-8.7,11.3-11c3.4-1.4,5.8-5.1,8.7-7.8c-0.2-0.5-0.5-1.1-0.7-1.6c-2.7-0.4-5.3-0.8-8-1.1
		c-1.7-0.2-3.4-0.2-5.1-0.3c0.7-2.6-1.6-5.9,2.3-7.8c2.8-1.4,5.3-3.4,7.6-5.5c0.6-0.6,0.2-2.4,0.2-3.6c-1.4,0.5-3.3,0.5-4.1,1.5
		c-1.7,2-2.9,4.5-4.2,6.7c-0.7-0.2-1.4-0.3-2-0.5c-0.2-3.2,0.4-6.7-0.6-9.6c-1-3,3.7-7-1.9-9.1c-1.4,3.2-2.8,6.4-4.4,9.8
		c-1.8-0.9-3-1.5-4.4-2.2c0.4,3.7,0.4,3.7,7.3,5.8c-3.7,2.3-6.6,4.1-10.3,6.4c-0.9-1.7-2.2-4.1-3.5-6.5c-0.3,0-0.7,0.1-1,0.1
		c0.2,1.4-0.1,3.3,0.6,4.2c2.2,2.8,0.7,5-1.1,6.5c-2.6,2.2-4.1,5-6.2,7.4c-4.8,5.5-11,9.8-15.5,13.6c-3.1-0.5-4.8-1-6.5-1.1
		c-3.2-0.1-4.8-1.7-3.1-4.3c3-4.5,6.7-8.4,10-12.7c1.8-2.3,3.3-4.7,4.9-7.1c4.2-1.7,7.6-4.1,7.8-8.8c-0.5-0.3-0.9-0.7-1.4-1
		C1104.1,731,1102,734.4,1099.9,737.7z M918.3,507.6c-3.1,4-6.3,2.4-9.3-0.1c-0.7-0.6-1.2-2-1-3c0.1-0.6,1.6-1.6,2.2-1.4
		c5.2,1.2,10.9,1.8,15.5,4.3c5.1,2.7,9.4,7.1,13.6,11.1c2.4,2.3,3.5,6,6,8c5.4,4.4,11.3,8.1,18,12.8c0.2-2.4,0.9-4.4,0.2-5
		c-5-5-10.3-9.7-15.5-14.5c-0.7-0.7-1.2-1.5-1.8-2.3c1.1,0.2,2.5-0.1,3.2,0.6c5,4.4,10.6,7,17.4,7.8c2.6,0.3,5.9,3.2,7.1,5.8
		c3.7,8,11,11.7,17.5,16.5c0.3,0.2,1.1-0.3,2.1-0.7c-1.8-1.3-3.1-2.3-4.4-3.2c0.2-0.5,0.4-1.1,0.7-1.6c1.5,0.6,3.3,0.9,4.6,1.8
		c4,2.7,7.7,5.7,11.7,8.4c3.1,2.2,6.6,5.9,9.7,5.7c5.3-0.4,9-0.2,11.4,4.9c0.3,0.6,1.4,0.7,2.1,1.2c3.9,2.5,7.8,4.9,11.5,7.7
		c3.6,2.7,6.8,5.7,11.9,5.2c1-0.1,2.1,1.3,3.2,1.8c4.3,2,8.7,4,13.1,5.9c2,0.9,4.2,1.5,5.6,2c5.8,2.5,10.8,4.6,17,7.3
		c0.8-3.6,1.6-7.2,2.5-10.8c0.2-0.9,0.7-1.8,1.3-2.6c3.8-4.7,8.3-9,11.4-14.2c3.6-6,5.9-12.7,8.7-19.2c0.3-0.8-0.1-2.1-0.5-3
		c-0.7-1.8-2.3-3.4-2.5-5.2c-0.4-3.6-0.1-7.2-0.1-10.8c-0.5-0.1-0.9-0.2-1.4-0.3c-1.2,3.3-2.4,6.6-3.5,10c-0.7,2-1.1,4.1-1.9,6.1
		c-3,7.4-5.9,14.7-9.1,22c-0.7,1.7-2.1,3-3.2,4.5c-1.1-1.4-2.1-2.8-3.2-4.1c-4.1-5.1-7.3-11.6-12.5-15c-4.5-2.9-8.3-5.8-11.1-10.1
		c-4.5-7-8.8-14-13.2-21.1c-0.4-0.6-0.5-1.2-1.2-2.7c-0.5,2.6-0.7,3.6-0.9,4.6c-0.5,0.1-1,0.1-1.6,0.2c-0.3-1.8-1.3-3.8-0.8-5.3
		c1-3,0.2-4.3-2.5-6c-1.7-1-2.8-3.7-3.4-5.8c-0.7-2.5,0-5.4-0.9-7.9c-2-5.9-0.6-9.2,5.2-11.7c1.8-0.7,3.3-2.1,5.3-3.3
		c-3.8-3.7-7.4-3.3-11-2.6c-12.6,2.5-25.2,0.5-37.8-0.6c-1.1-0.1-2.1-0.9-3.1-1.5c-14.4-9.4-29.8-17.5-42.3-29.7
		c-12-11.6-24.2-22.9-36.4-34.3c-0.2-0.2-0.9,0-0.1,0c-1.5,3-2.2,5.7-3.9,7.3c-7.2,6.3-13,13.4-17.7,21.8
		c-8.4,15.1-12.5,30.9-13.4,48c-0.2,4.9-1.5,9.8-2.6,14.7c-1.5,6.1-3.4,12-5.1,17.9c6.4,3.5,12.5,7,18.9,10.1
		c21,10.3,42,20.5,63.1,30.6c2.8,1.4,6,2,8.7,2.9c0.2-3.2,0.6-5.2,0.3-7.2c-0.3-1.7-1.4-3.3-2.1-5c-0.4,0.2-0.8,0.4-1.2,0.6
		c0.2,1.3,0.8,2.7,0.4,3.7c-0.4,0.9-1.9,1.4-3,2c-2.2-4.1-6.9-3-10.1-5.1c-6.7-4.3-13.6-8.3-20.1-12.7c-1.8-1.2-2.7-3.6-4-5.4
		c1.8-0.9,3.7-1.8,6.2-3c-2.7-3.4-5.8-7.1-8.6-10.9c-1.3-1.7-1.7-5.1-3.2-5.6c-5.6-1.7-8-4.2-5-9.9
		C919.2,508.6,918.8,508.2,918.3,507.6z M1079.6,470.7c6.5-4.9,11.8-8.6,16.9-12.8c2.4-2,4-4.8,6.1-7c1.1-1.1,2.7-1.7,3.9-2.7
		c2.7-2,7.4-2.8,5.5-8.1c-0.3-0.8,0.9-2.3,1.7-3.3c0.9-1.3,2.3-2.4,3.1-3.9c3.4-6,6.5-12.2,9.9-18.2c3.6-6.3,7.4-12.4,11.1-18.6
		c2.2-3.6,4.4-7.2,6.5-10.8c1.3-2.4,1.9-5.4,3.7-7.4c5.8-6.7,11.7-13.6,18.2-19.5c7.2-6.5,14.6-13.4,23.1-17.8
		c9.2-4.8,19.7-7.1,30.5-5.6c1.7,0.2,3.5,0.3,5.8,0.5c-3.1-7.9-8.7-12.4-14.7-16.6c-3.2,3.4-3.2,6.2-0.6,9.2c0.6,0.7,0.6,2,0.9,3
		c-1.2,0.1-2.6,0.6-3.5,0.1c-3.3-1.8-6.5-4-9.7-6c-10.6-6.5-20.9-13.3-28.3-23.7c-1.3-1.9-4-2.8-6.1-4.1c-0.6,0.3-1.2,0.7-1.8,1
		c1.2,8,2.8,16,3.4,24c0.4,6.2-0.6,12.5-1.2,18.7c-0.1,0.8-1.5,1.4-2.3,2.1c-0.7-0.8-1.7-1.6-1.9-2.6c-0.3-1.2,0.5-2.8,0.1-3.9
		c-1.9-5.5,5-11.7-1.3-16.9c-0.2-0.2-0.2-1.1,0-1.4c3.5-5.6-4.3-8.9-2.8-14.2c-1,2.3-1.7,4.5-1.3,6.6c1.1,6.5,2.1,12.9,1.4,19.6
		c-0.7,7.4-0.3,14.9-1,22.3c-0.4,4-1.9,7.9-3,11.9c-0.6-0.1-1.1-0.1-1.7-0.2c-0.7-5.1-1.5-10.1-2.2-15.2c-0.5,0-1.1,0.1-1.6,0.1
		c-0.2,1-0.6,2-0.7,3.1c-0.6,5.4-0.9,10.8-1.7,16.2c-0.2,1.2-1.7,2.1-2.5,3.2c-0.8-0.9-1.8-1.8-2.4-2.9c-0.8-1.5-1.4-3.2-2-4.7
		c-0.9,1.5-1.7,3-2.6,4.4c-0.3,0.5-1,0.7-2.4,1.7c-0.4-2.5-1-4.3-0.8-6.1c0.3-3.1,1.2-6.2,1.5-9.3c0.1-1.4-0.2-3.2-0.9-4.4
		c-0.8-1.4-2.3-2.4-3.7-3.7c-0.1,0.1-0.4,0.4-0.8,0.6c-1.5,0.9-3.1,1.8-4.7,2.6c-0.5-1.6-1.4-3.3-1.3-4.9c0.4-5.8,0.8-11.6,2-17.3
		c0.8-3.9,3.5-6.9,1.3-11.8c-2.2-5-1.6-11.2-2.3-16.9c-0.6-0.2-1.2-0.3-1.7-0.5c-3.4,13-11.5,23.2-19.5,33.3c1,1.5,1.9,2.8,2.7,4
		c-2.9,4.3-16.5,9.3-21,8.2c-2.6,2.3-5,4.3-7.4,6.4c-0.7-0.5-1.4-1.1-2.1-1.6c6.4-7.2,10.4-15.4,11.7-24.8
		c-5.9,8.9-11.8,17.9-16.7,27.3c-4.1,8-7,16.5-10.4,24.8c-1.4,3.5-2.9,7-3.9,10.7c-1.4,4.9-2,10.1-3.5,15
		c-1.9,6.2-4.5,12.1-6.6,18.3c-0.4,1.2,0.1,3.3,1,4.2c0.6,0.6,3,0.3,4-0.4c4.2-3.2,5.9-3.2,9.7,0.8c0.4,0.4,1,0.7,1.9,1.3
		c0.3-1.8,0.6-3.2,0.9-4.5c-1.9-0.3-3.3-0.5-5.9-0.9c1.2-3.8,2.3-7.1,3.3-10.3c0.8-0.1,1.6-0.2,2.4-0.3c-0.9,4.5-0.8,8.3,3.9,9.9
		c0.5,0.2,0.4,3.1,0.1,4.6c-0.3,1.6-1.2,3-1.9,4.9c1.4,0.7,2.7,1.3,3.9,1.8c2.7-8.2,4.4-16.4,8-23.7c6.3-13.1,13.6-25.8,20.8-38.5
		c1.1-2,3.8-3.1,5.7-4.6c0.4,0.4,0.8,0.8,1.1,1.3c-0.1,0.6,0,1.3-0.2,1.8c-4,10-8.1,19.9-12.1,29.9c-2.3,5.9-7.7,11-4.2,18
		c-2.5,1.6-8.7,1.1-3.1,6.3c0.5,0.5-0.1,2.4-0.4,3.5c-0.6,1.9-1.6,3.6-2.1,5.5c-1.3,5.2-1.8,10.7-3.8,15.6c-2.1,4.9,0.9,3.5,2.6,3.5
		C1079.6,456.7,1079.6,463.2,1079.6,470.7z M1104,243.6c-0.9,2.6-1.2,5-2.4,6.9c-4.6,7.3-9.1,14.6-14.2,21.6
		c-6.6,9.1-13.7,17.9-20.7,26.7c-0.8,1-3.2,2.2-3.4,2c-2.6-2.8-3.6,0.4-4.6,1.4c-12.9,12.4-26.9,23.1-44.2,28.8
		c-1.3,0.4-2.2,2.3-3.3,3.4c1.6,0.3,3.3,1.1,4.8,0.8c5.1-1.1,10.2-2.7,15.3-4c3.7-0.9,7.4-1.8,11.1-2.5c2.3-0.4,4.7-0.5,7.5-0.8
		c2-0.6,4.4-1.4,6.9-2.2c0.2,2.5,1.1,5.1,0.6,7.4c-1.9,7.6-4.7,14.9-6.6,22.5c-3.1,11.8-10.7,21-16.8,30.9
		c-5.6-5.2-11-10.1-16.2-15.1c-2.2-2.1-4.1-6.1-6.4-6.4c-2.1-0.2-4.7,3.4-6.9,5.6c-1.2,1.2-2.8,3.2-2.5,4.3c1.3,3.8-0.9,6.1-3,8.4
		c-7.3,7.9-14.7,15.8-22.2,23.6c-0.7,0.7-2.9,1.2-3.2,0.8c-1-1.1-1.8-2.8-1.8-4.2c0-1.4,1.2-2.8,1.9-4.2c-0.3-0.3-0.6-0.5-0.9-0.8
		c-3,2.4-5.9,4.9-8.8,7.3c-1.5-1.3-2.7-2.3-4.3-3.6c-1.4,3.6-2.5,6.7-3.9,9.7c-0.6,1.3-1.9,3.2-3,3.3c-1.3,0.1-3.2-1.1-4-2.3
		c-0.5-0.7,0.4-2.5,0.8-3.8c0.4-1.2,1.1-2.4,1.3-3.7c0.9-5.2,1.7-10.4,2.5-15.6c0.3-1.8,0.7-3.6,1-5.4c-0.5-0.2-1-0.4-1.6-0.6
		c-1.8,2.9-4.1,5.5-5.2,8.6c-2.2,6.4-4,12.6-9,17.8c-5,5.1-4.2,7.6,1.1,12.3c2.5,2.2,4.8,4.6,7.3,6.7c6.3,5.3,12.5,10.8,19,15.8
		c5.6,4.3,11.6,8.3,17.5,12.1c9.8,6.3,19.7,12.3,30,18.8c1.4-5.6,2.2-9.9,3.5-14.1c2.3-7.3,4.5-14.6,7.4-21.6
		c5.6-13.2,7.5-27.8,15.9-39.9c0.4-0.5,0.4-1.2,0.7-1.8c5.4-12.1,10.2-24.6,16.3-36.3c9.6-18.4,20.4-36.1,30.2-54.4
		c4.3-8,7.6-16.6,11.5-24.9c3.9-8.3,6.7-16.8,6.4-26.1c0-0.8,0.4-1.9,0.9-2.5C1109.3,250.8,1108.8,247.1,1104,243.6z M1056.4,486.3
		c-2.5,8.7,28,67.6,36,71.3c0.3-0.9,0.8-1.8,0.8-2.8c0.6-9.9,1.5-19.8,1.5-29.7c-0.1-8.3-2.5-16.1-9.1-21.9
		c-3.9-3.4-7.3-7.2-11.2-10.6c-2.5-2.2-2.6-4.1,0.4-5.2c4.8-1.7,9.9-3.6,14.8-0.8c5.8,3.4,11.4,7,17,10.8
		c6.9,4.6,10.3,11.3,10.8,19.5c0.3,4.7,0.8,9.4,1.2,14.1c0.5,0.1,0.9,0.1,1.4,0.2c0.6-4.1,1.2-8.2,1.8-12.2c0.2-1.5,0-3.8,0.9-4.4
		c4-2.6,1.5-4.7-0.3-6.8c-2.2-2.6-4.6-5.1-6.6-7.3c1.8-2.1,3.2-3.8,4.7-5.6c1.5,0.4,3.1,0.8,5,1.4c-0.3-1-0.3-1.7-0.6-1.9
		c-7.3-6.4-14.8-12.6-19.7-21.3c-0.7-1.3-0.8-3.2-0.7-4.8c0.1-1.1,0.9-2.1,2-4.6c-2.4,1-3.5,1.2-4.2,1.8c-3.8,3.3-7.4,7.1-11.4,10.1
		c-6.3,4.8-13.4,7.3-21.4,7.9c-4,0.3-5.7-1.1-7.3-4.3c1.4-0.9,2.6-1.7,4.3-2.8c-3.5-2.4-6-1.1-7.5,1.3c-0.7,1.1-0.2,3.8,0.7,4.9
		c2.6,3.1,5.8,5.7,8.6,8.7c0.6,0.7,0.6,2,0.9,3c-0.9,0.2-2,0.8-2.7,0.5c-2.3-1.2-4.6-2.5-6.6-4.1
		C1058.7,489.9,1058,488.4,1056.4,486.3z M1056.2,91.2c0.3-0.3,0.7-0.7,1-1c-4.1-7.8-20.4-14.1-37.2-13.2
		c-9.3,0.5-19.3-0.6-27.1,6.7c2.3,0.9,4.6,0.6,6.7,1c1.7,0.3,3.3,1.5,4.9,2.3c-0.9,1.8-1.6,3.9-2.9,5.4c-0.9,0.9-2.8,0.9-4.2,1.3
		c-6.5,1.8-13,3.7-19.5,5.5c0.1,0.7,0.2,1.4,0.4,2.1c10.7,0,21.8-1.5,32.2,0.4c10.6,1.9,20.7,7.1,31.2,11c-0.5-3.7-0.3-7.3-1.7-10
		c-1.5-2.9-4.7-4.8-7.1-7.2c-0.4-0.3-0.8-0.7-1-1.1c-0.4-1-1.1-2.3-0.7-3.1c0.4-0.8,1.9-1.5,2.8-1.4c2.8,0.5,4.1-0.7,5.5-3
		c0.6-1,4.6-1.4,4.7-1c2.4,5.1,5.1,3.1,8.5-0.3C1054,87.7,1055.1,89.4,1056.2,91.2z M1003.6,340.6c-9.9,4-18.6,7.5-27.4,11.1
		c-10.5,4.3-20.4,5-30.7-1.4c-3.9-2.4-9.9-2.1-14.8-1.7c-4.4,0.4-3,5.2-3.9,8.2c-0.1,0.4-0.6,0.7-1.3,1.5c-0.6-2.3-1.1-4.1-1.7-6.5
		c-6,13.2-2.1,20,12.9,21.6c-3.3-1.6-5.3-2.7-7.3-3.6c-1.9-0.8-3.9-1.5-5.9-2.3c1.1-1.7,2-2.5,2.7-2.4c4.3,0.6,6-1.1,5.9-5.5
		c-0.2-5,3.9-5.7,8.2-7c0.1,2.7,0.2,4.8,0.3,6.9c0.2,5.1,9.6,13.5,13.7,11.8c7.5-3.1,17-4,18.7-14.6c0-0.2,0.5-0.3,1.1-0.7
		c5,3.7,0.1,7.9,0.1,11.2c4.9,0,9.5,0.4,13.9-0.1c3.2-0.4,6.9-1.3,9.1-3.4C1003.8,357.6,1003.4,349.3,1003.6,340.6z M906.7,409.2
		c-0.3,0-0.7,0-1,0.1c-0.6,0.3-1.1,0.7-1.6,1.2c-16.1,17.3-30.4,35.6-35.4,59.5c-2.1,9.8-0.9,13.2,8.5,17.6
		c4.6-27,15.6-50.8,34.6-70.5C910.2,414.6,908.5,412.1,906.7,409.2z M1232.4,443.5c-2.7-1.2-4.4-2.5-5.9-2.4
		c-5.4,0.4-10.7,1.5-16,2.1c-8,1-16,2.2-24,2.5c-4.5,0.2-9.1-1.5-13.6-1.8c-5.8-0.5-11.6-0.3-17.4-0.7c-5.3-0.4-10.6-1.3-16.8-2.1
		c1.1,1.6,1.4,2.5,2.1,3.1c4.6,3.7,9.1,7.6,14.2,10.7c2,1.2,5.6,1.3,7.9,0.4c9.8-3.8,19.4-3.9,29.7-1c5.6-4.9,8.2-5,14.9-0.8
		c1,0.6,3,0.5,4.1,0C1218.1,450.5,1224.6,447.3,1232.4,443.5z M1172.7,786.4c-1.4,1-2.3,2.1-3.4,2.3c-4.1,0.6-6.1,2-6.6,6.9
		c-0.6,5.3-5.7,6-9.4,2.3c-0.9-0.9-2.6-1-3.9-1.4c-0.1,0.4-0.2,0.8-0.4,1.2c1.4,1.5,2.8,3.1,4.6,5c-15.2,7.6-25.4,21.2-42.7,26.3
		c2.5,0.7,3.6,1.4,4.5,1.3c17-2.8,30.3-13.6,44-22.6c6-4,9.1-12.5,13.5-19C1173.2,788.4,1172.9,787.6,1172.7,786.4z M768,784.6
		c-19.4,32.4-22.6,68.5-24.2,104.9c0.7-1.7,0.7-3.5,1-5.3c0.4-2.2,0.3-5.4,1.8-6.4c3.1-2.3,2.6-4.1,1.4-6.4c1.2-2.1,2.1-4.4,2.1-6.6
		c0.1-4.7-0.9-9.4-0.4-14c0.8-7.1,2.4-14.1,3.7-21.1c0.1-0.6,0.3-1.3,0.5-1.9c1.2-3.6,2.3-7.3,3.5-10.9c1.3-3.9,1.6-8.6,4.1-11.4
		C767,799.3,765.6,791.4,768,784.6z M1097,241.8c5.4-1.8,5.4-1.8,1.8-6.8c-1.4-2-3.2-4.2-3.5-6.4c-1.4-10-2.5-20.1-3.4-30.1
		c-0.7-7.3-0.8-14.6-1.4-21.8c-0.2-2.8-1.1-5.6-1.7-8.3c-0.7,0-1.4,0.1-2.2,0.1c0,4.6-0.3,9.1,0.1,13.7c0.6,8.9,1.6,17.7,2.3,26.6
		c0.4,5.1,0.8,10.3,0.3,15.4c-0.8,9.3,2.4,17.4,5.5,25.6c0.5,0,0.9,0,1.4,0C1096.5,247.2,1096.8,244.7,1097,241.8z M810.2,538.5
		c-5.7,4.6-12.9,8.9-20.9,7.7c-0.7,9.4-1.4,18.4-2.1,27.4c1.5-0.9,2.4-2.3,2.8-3.9c0.4-1.7-0.1-3.7,0.5-5.3c0.8-1.8,2.4-3.2,3.6-4.8
		c1,1.6,2,3.2,3,4.8c0.6,1,1.3,2.6,2.1,2.7c1,0.1,2.6-0.9,3.1-1.8c1.5-3.3,3-6.6,3.9-10.1C807.8,549.5,809,543.6,810.2,538.5z
		 M1018.4,72.4c0.1-0.8,0.1-1.6,0.2-2.4c-1.9-0.7-3.7-2.1-5.6-2c-7.4,0.4-15,0.5-22.2,2.1c-4.9,1.1-11.5,1.5-12.1,7.8
		c-3.8,0.9-7.1,1.6-10.4,2.3c0.1,1.1,0.1,1.6,0.3,2c0.5,1,1.2,1.9,2.1,3.4C986.1,79.5,1001,71.6,1018.4,72.4z M1273.7,80
		c-0.2,0.4-0.4,0.8-0.6,1.2c2.2,1.3,4.3,2.6,6.5,3.8c4.7,2.4,5.1,3.8,2.4,8.5c1.2,0.1,2.3,0.2,2,0.2c1.4,2.6,2.1,4.7,3.4,6.4
		c1.1,1.3,3.1,1.8,4.2,3c3.6,3.9,7,8,10.6,12.1c-0.4-7-8.3-11.3-6.3-19.3c-5.2,0.7-7.5-2.2-8.5-7.1c13.8,1.7,16,15.5,25.3,23.1
		C1304.3,91.6,1289.9,80.2,1273.7,80z M1155.2,543.5c1.2,5.1,2.2,9.2,2.9,12.4c12.7-5.7,23.2-14.2,34.8-22c-9-3-13.2,4.6-19.3,7
		c-6.1,2.4-5.7,3.3-8-3.1c-0.9-2.7-2.7-5-4-7.5c-0.6,0.3-1.2,0.5-1.7,0.8c1.1,5.7,2.2,11.5,3.2,17.2c-0.5,0.3-1.1,0.6-1.6,0.9
		C1159.6,547.5,1157.8,545.9,1155.2,543.5z M593.7,786.5c-7.6-3.8-14.4-8-21.7-10.7c-10.5-4-20.6-4.6-23.9-1.5c2.8,0,4.6,0,6.4,0
		c1.1,0,2.2-0.5,3.1-0.2c3.6,1.3,7.1,2.9,10.6,4.3c3,1.2,6.4,2.1,5.1,5.5c10.7,2.9,19.5,9,29,13.6c0.9-1.3,2.1-2.9,3.4-4.7
		c-2.2-1.1-4.2-2.1-6.4-3.2c0,1.3,0,2.4,0,3.5C597.4,790.5,590.5,791.8,593.7,786.5z M910.4,814.9c4.9,0.6,9.5,1.4,14,1.6
		c5.3,0.2,10.7,0.3,15.8-0.7c3.8-0.8,7.2-3.6,10.7-5.5C947.8,806.4,918.3,809.6,910.4,814.9z M944.6,840.9c-2-7.8-2-7.8-7.7-7.6
		c-1.8,0.1-3.7,0.1-5.4-0.3c-7.4-1.8-14.7-3.9-22.1-5.5c-1.4-0.3-3.1,1.3-4.7,2c0.7,1.2,1.1,3,2.1,3.6c1.8,1,4.2,2,6.1,1.6
		c7.3-1.3,13.2,2.4,19.6,4.4C936.1,840.1,940,840.2,944.6,840.9z M994,576.6c-3.2,2.1-3.4,2-6.1-6.1c-3.2,2.5-5.7,2.1-6.4-2.7
		c-3.1,1.8-5.7,3.3-8.8,5.1c14.1,6,27.6,11.7,41,17.5c0.3-0.6,0.6-1.2,0.9-1.9c-4-4.4-9.1-7.1-14.8-8.9
		C998.1,579,996.5,577.9,994,576.6z M1264.3,861.9c-1.9,3.4-3.8,6.8-5.5,9.8c1.6,1.9,3.1,3.1,3.8,4.6c0.3,0.7-0.7,2.9-1.3,2.9
		c-7.2,0.6-8.3,7-11.4,11.7c2.5-0.6,4.6-1.7,6.3-3.2c3.3-2.9,5.5-7.4,11.2-6.1c-4.3-9.5,6.3-10.7,8.7-16.3
		C1272.7,863.3,1267.7,868.9,1264.3,861.9z M751.6,431.5c0,0.4,0,0.8,0,1.1c3-0.8,6.7-0.7,8.9-2.5c4-3.2,7-7.6,10.6-11.3
		c6.6-6.7,13.3-13.2,19.9-19.9c0.9-0.9,1.2-2.4,2.2-4.5C778.7,407.3,765.1,419.4,751.6,431.5z M823.9,534.3
		c-8,4.9-17.7,25.8-16.6,36.3c5.4-2.7,6.2-4.1,5.5-10.4c-0.6-5.6,3-9.5,7.5-8.9C821.5,545.7,822.7,540.1,823.9,534.3z M1342.1,114.2
		c-0.3,0.1-0.6,0.2-0.9,0.3c2.2,8.4,4.5,16.7,6.4,25.1c1.9,8.2,3.3,16.5,5,24.7c1.7-4.8,3.4-9.3,2.9-13.7
		c-0.6-5.3-2.9-10.4-4.5-15.6c-0.8-2.4-1.6-4.9-2.5-7.3c-0.1,0-0.1,0.1-0.2,0.1C1346.3,123.3,1344.2,118.8,1342.1,114.2z
		 M995.7,641.5c0.2-2.9-0.6-6.3,0.6-7.5c3.5-3.3,1.3-6.6,1.3-10c0-4,0.3-8,0.2-12c0-2.1-0.5-4.2-0.7-6.3c-0.7,0-1.3,0.1-2,0.1
		c-0.9,4.7-2.1,9.4-2.6,14.2c-0.6,5.4-0.1,10.8-0.8,16.2C991.2,639.8,992.8,640.5,995.7,641.5z M788.4,414.6c-0.3-0.3-0.7-0.6-1-1
		c-7.2,5.8-14.5,11.7-22,17.8c5.6,2.6,11,2.2,13.8-1.7C782.7,425.1,785.4,419.7,788.4,414.6z M1319.8,826.6
		c-3.3-3.1,0.8-4.4,3.4-5.7c3.2-1.5,5.4-3.3,4.5-8.7c-3.4,2.4-6,4.2-8.6,6c0.3,0.4,0.5,0.8,0.8,1.2c-1.2-0.2-2.4-0.5-3.5-0.7
		c-0.2,1.8,0,3.6-0.7,4.8c-2.3,3.5-4.9,6.8-7.4,10.1c0.6,0.5,1.1,1,1.7,1.4C1313.2,832.2,1316.4,829.4,1319.8,826.6z M1194.7,303.8
		c0.5-0.6,0.9-1.1,1.4-1.7c-6.7-5.4-13.4-10.9-20.3-16.4c-0.8,2.1-1.5,3.8-2.2,5.5C1180.7,295.5,1187.7,299.7,1194.7,303.8z
		 M834,506.6c0.4,0.3,0.9,0.6,1.3,0.9c7-9.8,12.4-20.4,16.7-31.6c-0.5-0.2-1-0.5-1.4-0.7C845.1,485.7,839.6,496.2,834,506.6z
		 M936.7,95.1c-6.4-1.5-21.2,8.7-24,15.4C921.1,105.1,928.9,100.1,936.7,95.1z M792.8,618.3c0.7-8,1.3-15.9,2-23.9
		C788.8,601.9,787.6,609.8,792.8,618.3z M464.8,848.2c5.9-3.2,19.7-25,18.7-29.3c-1.5,1.5-2.9,2.6-3.7,3.9c-0.7,1.2-0.6,3-1.3,4.2
		C474,834.1,469.3,841.2,464.8,848.2z M1100,614.2c-8-2.1-15.9-4.1-24.9-6.4C1084.2,615.9,1095,618.3,1100,614.2z M573.5,859.8
		c2.8-2.5,1.6-12.3-2.4-18c-1.1,2.7-3.2,5.3-2.7,7.4C569.2,852.8,571.6,856.1,573.5,859.8z M1108,594.7c-0.1-0.5-0.1-1.1-0.2-1.6
		c-4.5,0.9-9.1,1.8-13.6,2.8c-0.3,0.6-0.6,1.2-0.9,1.7c1.4,1.4,3.6,4.1,4.2,3.8C1101.2,599.5,1104.5,597,1108,594.7z M1273.5,95.7
		c0.4-0.7,0.7-1.4,1.1-2.1c-4.8-3.4-9.6-6.7-13.8-9.7c-1.5,2.8-2.5,4.6-4.1,7.6C1263.1,90.1,1269.4,89.2,1273.5,95.7z M1282.6,838.8
		c0.6,1.6,1,2.7,1.2,3.2c-2.3,1.2-4.3,2.3-7.4,3.9c3.1,1.5,4.4,2.2,5.2,2.6c1.5-2,2.7-3.9,4.2-5.6c1.4-1.7,3.2-3.1,4.7-4.6
		C1288.1,838.5,1285.7,838.6,1282.6,838.8z M403.6,816.8c6.2,5.4,2.9,10.1,1.5,14.7c0.4,0.1,0.8,0.3,1.2,0.4c2.4-5,4.9-9.9,7.8-15.8
		C410.6,816.3,408,816.5,403.6,816.8z M361.8,795.8c0.3-0.3,0.6-0.6,0.9-0.8c-0.8-2.7-1.6-5.5-2.6-8.1c-1.3-3.7-3.6-4-7-1
		C356,789.1,358.9,792.5,361.8,795.8z M1103.3,704.2c2.9-3.2,5.9-6.3,9.1-9.8C1105.2,693.5,1105.2,693.5,1103.3,704.2z
		 M1057.9,286.1c0.6,0.5,1.1,0.9,1.7,1.4c4.2-5.8,8.4-11.6,12.6-17.4c-0.5-0.4-1-0.7-1.5-1.1
		C1066.4,274.7,1062.2,280.4,1057.9,286.1z M1294.9,845c0.2,0.3,0.4,0.6,0.6,0.9c2.5-1,5-2,7.7-3.1c0.5-2.4,0.9-4.8,1.4-7.3
		c-0.5-0.2-1.1-0.3-1.6-0.5C1300.3,838.3,1297.6,841.6,1294.9,845z M902.3,118c-2.4,3-4.5,5.1-6,7.5c-0.5,0.8,0.1,2.5,0.5,3.6
		c0.1,0.4,1.5,0.6,2.2,0.4C900.8,128.9,903.4,121.7,902.3,118z M710.8,875.5c0.3-5.9,0.6-10.7,0.9-15.5
		C707.5,863.6,707.1,871.9,710.8,875.5z M1007.2,791.6c1.3,0,3.7,0.2,6.1-0.1c0.8-0.1,2.2-2.4,2-2.6c-1.2-1.5-2.7-2.7-4.2-4
		c0.4,0.8,0.7,1.6,1.1,2.3C1010.6,788.6,1009,790.1,1007.2,791.6z M1334.4,808.4c-0.2-0.8-0.3-1.6-0.5-2.4c-2.5-0.5-5.1-1.1-7.6-1.6
		c-0.4,0.5-0.8,1.1-1.2,1.6c1.1,1.6,2,4.3,3.4,4.6C1330.3,810.9,1332.4,809.2,1334.4,808.4z M1297.7,818.7
		c7.9,2.7,10.8,1.7,11.3-3.2c-1.7,0.3-3.9,1.3-5.2,0.6C1300.7,814.4,1299.5,816.1,1297.7,818.7z M1062.2,586.8
		c-3.2-1.3-5.5-2.3-7.9-3.2c-0.8-0.3-1.6-0.7-2.4-0.7c-0.9,0-1.9,0.3-2.7,0.7c-0.2,0.1-0.2,1.3,0,1.7
		C1050.2,587.1,1058.9,588.6,1062.2,586.8z M562.2,841.3c-2.6,1.3-4.3,8.9-2.3,10.4c0.6,0.4,1.8,0.8,2.2,0.5
		c0.7-0.4,1.3-1.5,1.2-2.3C563.1,847,562.6,844.2,562.2,841.3z M1174.6,296.8c-1.8-2.6-3.3-4.8-4.6-6.5c-2.5-1.3-4.7-2.6-7-3.8
		C1165.6,291.3,1168.5,295.5,1174.6,296.8z M1142.8,847.1c3.3,0.1,4.8,6.4,8.6,2.6c-1.3-2.4-2.4-4.6-3.7-7.1
		C1146.4,843.9,1144.6,845.5,1142.8,847.1z M496.9,770.8c0-0.5,0.1-0.9,0.1-1.4c-2-0.8-3.9-1.7-5.9-2.5c-1.3-1-3-1.2-4.7-1.1
		c-0.7,0-1.7,0.3-1.9,0.8c-0.2,0.5,0.2,1.9,0.5,2C488.9,769.4,492.9,770.1,496.9,770.8z M1126.9,578.6c-0.6-0.7-1.2-1.4-1.8-2
		c-3.2,2.9-6.5,5.8-9.7,8.7c0.5,0.6,1,1.1,1.4,1.7C1120.2,584.2,1123.5,581.4,1126.9,578.6z M708.9,833.9c0.8-5.3,1.5-9.6,2.4-15
		C706.9,823.7,705.7,830.1,708.9,833.9z M1254.4,69.8c-5.1-1.1-11,2-14.3,7.1C1245,74.4,1249.2,72.3,1254.4,69.8z M792.8,742.3
		c-0.6-0.3-1.1-0.7-1.7-1c-2.5,4.5-5,9-7.6,13.5c0.6,0.3,1.1,0.6,1.7,0.9C787.8,751.3,790.3,746.8,792.8,742.3z M492.8,797
		c1.6,3.4,4.6,3.6,7.3,2.7c1.1-0.4,1.4-3.1,2.1-4.8C498.7,795.7,496.1,796.3,492.8,797z M1045.7,582.8c-1.5-5.1-5.4-7.5-11.1-6.7
		C1038.5,578.5,1041.6,580.3,1045.7,582.8z M1109.1,272.1c0.8,0.2,1.5,0.3,2.3,0.5c0.7-3.6,1.5-7.2,2.2-10.8
		c-0.7-0.1-1.4-0.3-2.2-0.4C1110.7,264.9,1109.9,268.5,1109.1,272.1z M1149.4,712c-0.3-2.7-0.5-4.8-0.9-8.2
		c-2.8,2.1-4.4,3.3-6.4,4.8C1144.8,709.8,1146.7,710.7,1149.4,712z M580.2,914.8c-0.5-0.3-1-0.7-1.6-1c-1.3,2-2.8,3.9-3.6,6.1
		c-0.3,0.8,1.3,2.3,2.4,4C578.6,920.1,579.4,917.4,580.2,914.8z M1338,141.8c1.4-2.5,2.7-3.8,2.4-4.4c-0.7-1.6-2-3-3.1-4.5
		c-0.7,0.7-2.2,1.5-2.1,2C1335.7,136.8,1336.7,138.5,1338,141.8z M567.8,791.6c1.4,2.1,2,3.9,2.8,4c3,0.3,6,0.1,9.1,0.1
		c0-0.4-0.1-0.7-0.1-1.1C576.3,793.8,572.9,792.9,567.8,791.6z M478,783.4c0.2-0.4,0.3-0.9,0.5-1.3c-1.4-1.5-2.8-3.1-4.7-5.2
		c-0.7,0.7-1.8,1.6-2.8,2.5C473.3,780.8,475.6,782.1,478,783.4z M1022.9,565c-0.4,0.5-0.8,1.1-1.3,1.6c3.8,0.8,3.7,6.9,9.6,4.9
		C1028.4,569.4,1025.6,567.2,1022.9,565z M772.1,848.2c0.7-0.1,1.5-0.2,2.2-0.2c0.2-2,0.4-4,0.5-5.9c-1.9,0-3.8,0-5.7,0
		c-0.2,0.6-0.5,1.2-0.7,1.9C773,842.8,773.2,845,772.1,848.2z M802.4,379.9c0.5,0.5,1,1,1.5,1.6c2.2-2.4,4.4-4.9,6.6-7.3
		c-0.5-0.4-0.9-0.9-1.4-1.3C806.9,375.2,804.6,377.6,802.4,379.9z M792.1,825.5c0.4,0.3,0.9,0.5,1.3,0.8c2-2.7,3.9-5.3,5.9-8
		c-0.6-0.4-1.2-0.8-1.8-1.2C795.7,819.8,793.9,822.7,792.1,825.5z M919.8,394.3c0.3-0.6,0.5-1.1,0.8-1.7c-2.3-1.2-3.3-5.4-8.8-2.4
		C915.2,392,917.5,393.1,919.8,394.3z M1106.1,812.1c-0.1-0.5-0.2-1-0.3-1.5c-3.9,0.4-7.8,0.8-11.7,1.2c0.1,0.6,0.1,1.1,0.2,1.7
		C1098.3,813,1102.2,812.6,1106.1,812.1z"/>
	<path d="M36.6,501.3c-10.8-10.7-11.7-24.7-15.3-37.7c-1.7-6.1-3.2-12.1-4.9-18.2c-0.2-0.6-0.6-1.3-0.5-1.9c0.2-2.2-1.7-5.7,2.2-5.9
		c1.3,0,3.3,3.1,3.9,5.1c3.6,13.3,6.8,26.7,10.5,39.9c1.8,6.3,4.5,12.3,6.8,18.6c6,1.4,10.9-0.9,15.3-5.3c-1.3-2.9-2.2-5.2-6.5-3.3
		c-3.6,1.6-6.2-1.2-6.6-4.6c-1.9-14.8-3.4-29.6-5.2-44.5c-0.7-5.7-2-11.2-3.1-16.8c-0.1-0.5-0.5-1-0.5-1.4c2.4-10.6-3-20.9-1.2-31.5
		c0.3-1.5,0.2-3,0.7-4.4c1-2.8,4-3.2,5.8-0.8c1.2,1.6,2,3.4,2.8,5.3c5.2,11.4,10.3,22.9,15.5,34.3c0.1,0.2,0.5,0.3,0.8,0.5
		c3.6-3.1,5.7-9.9,3.7-14.3c-1.2-2.6-1.2-4.1,1-6c0.9-0.8,0.9-2.7,1.4-4c-0.4-0.2-0.8-0.3-1.3-0.5c-1.2,0.8-2.4,1.5-4.9,3.1
		c0-5.1,0-8.9,0-13.5c-1.2-1.3-3.1-3.4-5.6-6.1c2.1-0.4,3.1-0.6,4.1-0.8c0-0.2,0.1-0.3,0.1-0.5c-1.1-3.8-2-7.7-3.3-11.4
		c-2.1-6-7-12.3-6.1-17.7c1.2-6.9-4.4-10.6-4-16.3c0-0.6-1.2-1.2-1.9-1.8c-0.8-0.6-1.6-1.2-2.4-1.8c0.8-0.8,1.4-1.7,2.4-2.2
		c3.3-1.8,6.6-2.6,9.1,1.5c0.6,1,1.6,2.2,2.5,2.3c9.3,1.4,7.7,9.1,9.6,15.8c-2.2-0.6-3.4-1-4.6-1.3c-0.3,0.5-0.5,0.9-0.8,1.4
		c2.1,1.4,4.2,2.8,6.7,4.5c-0.3,0.8-0.8,1.9-1.3,3.1c5.7,4.5,7.3,8.8,4.7,13.5c2,1.4,4,2.8,6.8,4.7c1.4-2.6,3.7-5.1,4-7.7
		c0.9-8.4,1.1-16.9,1.5-25.3c0.2-3.6,0.4-7.3,0.2-10.9c-0.2-3.9-0.3-7.8-1.2-11.6c-1.8-7.9-3.6-15.7-6.1-23.3
		c-2.1-6.2-5.3-12-8.2-17.9c-1.2-2.5-3.5-4.7-0.8-7.7c0.4-0.5,0.5-1.8,0.2-2.3c-3-4.2-6.1-8.3-9.2-12.4c-3-4-5.9-8-8.9-12
		c-1.3-1.7-2.5-3.5-3.2-6c5.1,4,10.3,8,15.4,11.9c0.2-0.1,0.4-0.1,0.5-0.2c-0.8-1.2-1.6-2.4-2.5-3.5c-5.6-6.7-12.6-11.3-20.4-15
		c-2.4-1.1-6.6-2.2-4.6-6.1c0.5-0.9,5.8-0.4,7.9,1c7.3,4.9,14.4,10.1,21,15.9c3.8,3.3,6.6,7.8,9.6,11.9c0.7,0.9,0.7,2.2,1.1,3.3
		c0.8-0.7,1.6-1.3,2.4-2c-1.1-2-1.8-4.3-3.3-6.1c-3.8-4.6-6-10.2-11.9-13.4c-3.9-2.1-6.3-7-9.3-10.7c2,1.2,4.4,2.3,6.5,3.9
		c16.8,12.1,26.1,29.2,32.9,48.1c0.6,1.6,1.7,3.5,3.1,4.1c4,1.8,4.6,4.5,3.5,6.9c7.8,12.5,12.5,25,11.5,40c6.5-7,5.4-14.5,4.8-21.9
		c-0.6-8.1-1.4-16.2-2-24.3c-0.1-1.8,0.3-3.6,0.5-5.5c0.6-0.1,1.2-0.2,1.9-0.3c1.6,6.1,3.3,12.2,4.9,18.3c0.6-0.1,1.1-0.3,1.7-0.4
		c0-9.2,0.1-18.6-5-26.9c-5.5-8.8-10.9-17.8-17.5-25.8c-7.5-9-16.2-16.9-24.6-25.1c-1-0.9-3.3-0.4-6.4-0.7
		c6.6,11.1,17.7,16.6,22.8,26.8c-0.5,0.5-1.1,1.1-1.6,1.6c-3.4-3.1-6.9-6.2-10.3-9.4c-5.8-5.5-11.3-11.3-17.2-16.6
		c-4.8-4.3-10.7-5.6-17.2-5.4c-2.3,0-5.2-1.2-6.8-2.8c-2-2.1-3.7-2.7-6-1.3c-6.4,3.9-12.6,8-19.1,11.8c-1.7,1-3.6,1.4-5.5,2.1
		c-0.8-2.4-2.9-5.3-2.2-7.2c2.1-5.9,2.7-13.3,10.8-15.1c1.5-0.3,3.1,0,4.6-0.1c1.5-0.1,3.5,0,4.5-0.9c6.2-5.7,14.2-7.2,21.7-10
		c9.8-3.7,19.3-8.5,29.2-11.9c12.5-4.3,25.3-8.1,38.1-11.3c5.9-1.5,12.3-1.3,18.5-1.9c4.4-0.4,8.8-0.9,13.2-1.3c1-0.1,2-0.2,3-0.1
		c2.9,0.2,7.1-0.5,7,3.6c-0.1,4.3-4.5,2.8-7.1,3.1c-7.4,0.7-14.7,1.2-22.6,1.8c5.8,10.5,17.2,14.8,20.9,25.2
		c-0.4,0.4-0.8,0.8-1.3,1.3c-7.6-5.7-15.1-11.5-23.7-18c2.4,6.3,3.4,11.7,8.7,15.2c2.5,1.7,4.1,4.7,5.7,7.4c0.4,0.7-0.2,2.9-0.9,3.3
		c-3.3,1.8-3.4,4.5-3.1,7.7c0.1,1.4-0.8,2.9-1.3,4.3c-1-0.9-2.4-1.5-3.1-2.6c-3.2-5-6.3-10-11.6-13.1c-3.9-2.3-7.6-4.8-11.4-7.2
		c-0.5,0.5-1,1.1-1.5,1.6c2.7,3.3,5.7,6.4,8.1,9.9c2.4,3.5,4.2,7.4,6.2,11c-4.8,4.1-9.4,3.7-13.3-0.4c-5.1-5.4-10.3-10.7-15.6-15.9
		c-1.6-1.5-3.7-2.5-5.9-3.9c-2.6,1.7-2.4,3.7-0.4,6.3c4,5,7.9,10.1,11.8,15.2c0.4,0.5,0.2,1.5,0.2,2.2c-1,0-2.4,0.3-3-0.2
		c-1.3-1.2-2-3-3.4-4.1c-0.8-0.6-2.3-0.1-3.5-0.1c0.3,1.1,0.3,2.7,1,3.3c14.1,11.6,24,26.4,32.2,42.4c1.4,2.7,2.4,4.8,6.3,3.8
		c1.1-0.3,3.9,2,4.1,3.3c1.4,9.5,2.3,19.1,3.6,28.7c1.1,8.2,2.6,16.3,3.7,24.4c0.2,1.5-0.2,3.2-0.5,4.8c-0.1,0.6-0.9,1.2-0.9,1.7
		c0,1.7,0,3.5,0.6,5.1c0.2,0.5,2.9,0.8,3,0.5c0.8-1.7,1.5-3.6,1.6-5.4c0.1-2.2-0.4-4.5-0.6-6.8c0.8-0.1,1.6-0.2,2.4-0.2
		c0.6,3.7,1.2,7.4,1.7,11c5.6-2.1,11.2-3.8,16.5-6.3c1.7-0.8,2.6-3.4,3.5-5.4c1-2.1,1.5-4.3,2.2-6.5c0.6,0,1.2,0,1.9,0
		c0.9,2.2,1.8,4.5,2.8,6.7c0.5,0.5,1.1,1.1,1.6,1.6c0.4-1.3,1.2-2.5,1.3-3.8c0.2-3.9,0.5-7.8,0.1-11.6c-0.1-0.9-2.5-1.6-4.6-2.8
		c4.6-0.4,7.3-1.9,7.3-6.6c0-0.9,2.9-1.8,4.4-2.7c0.5,1.3,1.8,3.3,1.3,3.8c-5.1,5.7-4.5,11.7-1.7,18.1c0.2,0.4,0,0.9,0,1.6
		c1.7-0.1,3.3-0.3,5.4-0.4c0.8-3.7,1.6-7.6,2.4-11.4c1-4.7,1.9-9.4,2.8-14.1c0.1-0.6,0.4-1.3,0.9-1.7c2.2-2.1,4.6-4.2,7.3-6.6
		c2,1.9,1.5,5.3,0.6,8.2c-2.4,7.6-5.2,14.9-4.9,23.1c0.1,4.4-2.5,8.9-3.5,13.4c-0.9,4.4-1.2,8.9-1.7,13.3c-0.4,3.6-0.5,7.2-0.1,11.1
		c1-3.3,2-6.6,3.1-9.8c2.7-8,2.8-16.9,8.2-24.1c1.3-1.7,0.6-4.9,1.4-7.2c1.3-3.9,3.2-7.6,4.4-11.5c1-3.3,1.6-6.7,2.2-10.1
		c1.9-11.6,3.8-23.2,5.5-34.8c0.3-2.4-0.3-4.9-0.3-7.4c0-5.6-0.6-11.2,0.3-16.7c0.5-3.1-0.2-4-2.3-5.5c-1.5-1-2.5-2.7-3.7-4.1
		c0.6-0.5,1.1-0.9,1.7-1.4c1.1,1.2,2.1,2.4,3.3,3.6c2.2,2.2,4.3,1.6,5.3-1.4c6.7-21.2,11.1-43.2,22.6-62.6
		c3.7-6.2,7.8-12.3,11.8-18.3c0.7-1,1.9-1.7,2.9-2.5c0.5,0.2,1,0.3,1.6,0.5c-0.4,1.9-0.5,4-1.3,5.8c-4.6,9.7-10.2,19.1-14.1,29.2
		c-4.4,11.2-7.9,22.9-10.9,34.6c-3,11.6-5.2,23.4-7.1,35.2c-2,12.6-3,25.4-5,38c-1.9,11.5-4.7,22.9-7.1,34.4
		c-0.1,0.6-0.1,1.3-0.1,1.5c1.5,0.8,2.7,1.5,3.9,2.2c-1,0.3-2.2,0.5-3.1,1c-1,0.6-2.4,1.4-2.7,2.4c-3.3,11.7-6.5,23.4-9.7,35.1
		c-0.1,0.5,0.3,1.2,0.6,2.3c5.4-4.2,2.5-12.8,9.5-15.4c-4.4,15.7-12.1,29.9-18,44.9c-5.9,14.9-9.9,30.6-13.7,46.5
		c1.2-2.7,2.3-5.4,3.6-7.9c1-1.9,2.2-5.1,3.4-5.1c5.8,0,7.2-4.9,9.8-8.1c6.4-7.6,15.1-10.2,24.2-11.5c3.9-0.6,5.9-1.5,7.3-5.6
		c1.3-3.9,4.7-7,6.8-10.6c4.6-7.9,8.8-16,13.7-23.8c4.6-7.5,9.9-14.5,14.6-21.9c3.1-4.9,5.4-10.3,8.5-15.2c1.1-1.8,3.1-3.9,5-4.2
		c4.7-0.8,5.1-3.6,4.5-7.2c-0.4-2.4-1.1-4.7-1.8-7.4c-3.3,1.3-0.7,9.3-8.4,4.8c1.9,2.7,2.8,4.1,3.9,5.6c-4-0.1-9.6-5-10.3-9.2
		c-0.7-4.4-3.5-6.4-7.3-7.9c-5.8-2.4-11.7-4.7-15.8-10c-4.8-6.3-5-6.5,0.4-12.8c-3.1,1.6-6.2,3.2-9.8,5.1c0.9-6.6,27.1-21.9,33-18.9
		c-7.3,4.3-14,8.2-20.7,12.2c0.1,0.4,0.2,0.8,0.3,1.2c1.3-0.1,2.8,0.2,3.9-0.3c3.9-1.7,7.6-3.7,11.4-5.7c4.1-2.1,8-4.6,12.2-6.1
		c4.2-1.5,5.1-4.1,4.8-8c-1.3-16-2.3-32.1-3.6-48.1c-0.2-2.6-1-5.1-1.6-7.7c-0.4-1.9-1.3-3.8-1.4-5.8c-0.8-11.1-1.8-22.2-1.9-33.3
		c-0.1-7.8,1.1-15.5,1.7-23.3c0.1-1,0.5-2.1,0.2-3c-3.1-10.8,0.8-20.5,6.9-28.6c3.9-5.1,4.4-10.3,5.9-15.7c1-3.6,3-6.9,4.4-10.4
		c0.9-2.3,1.8-4.7,2.2-7.1c3.1-22,14.9-38.9,30.4-54C325,16,340,10,355,3.8c5.5-2.3,11.7-2.9,17.7-3.8c1.2-0.2,2.7,1.7,4.1,2.7
		c-1.4,0.4-2.8,0.9-4.2,1.2c-1.1,0.3-2.9,0.2-3.2,0.8c-2.1,4.5-6.4,3.3-10,4.2c-6.3,1.5-13,2.1-18,8.1c7.7-2.3,14.8-4.4,22.8-6.8
		c-1.6,2.1-2.5,3.3-4.4,5.7c8.3-4.4,15.4-8,22.4-11.8c4-2.2,7.8-2.4,11.7,0c0.8,0.5,1.8,1,2.5,0.9c6.1-1,12.1-2,18.1-3.1
		c7.8-1.5,15.1-0.3,22.4,2.8c3.4,1.4,7.3,1.7,11,2.5c0.6,0.1,1.4-0.2,2,0.1c10.7,5.2,22.4,0.7,33.4,3.5c0.6,0.2,1.2,0.4,1.8,0.6
		c0.1,0.5,0.2,1,0.2,1.5c-2.1,0.3-4.2,0.8-6.3,0.9c-2.4,0.2-4.9,0-8,0c0.8,1.9,1.2,2.9,1.5,3.7c-7.3,1.2-14.2,2.8-21.2,3.3
		c-7.4,0.5-12.6,4.7-18.2,8.5c-3.6,2.4-6.9,5.3-10.6,7.4c-3.6,2-7.7,3-12.1,3.7c6.7-8.6,15.6-14.5,24.4-20.8
		c-10.5-1.5-20.4,1.1-30.3,3.2c-10.2,2.1-19.8,5.8-26.3,13.9c-6.2,7.6-14,14.2-17.9,25.1c5.5-0.3,10.3,0.2,14.6-1
		c4.3-1.3,8-4.4,12.4-6.9c1.2-6.3,4.8-9.4,11.7-9.4c5.6,0,11.3,0.5,16.9,0c4.3-0.4,9.9,1.6,11.8-4.9c0.1-0.3,0.5-0.6,0.7-0.6
		c9.5,1.1,14.1-8.3,22.2-10.4c7.3-1.9,14.4-4.2,21.7-6.3c0.2,0.5,0.3,0.9,0.5,1.4c-6.2,3.2-12.4,6.4-18.6,9.6
		c-1.8,0.9-3.9,1.4-5.3,2.7c-7.2,6.6-15.5,9.6-25.3,9.8c-2.5,0-4.9,3.2-7.1,5.9c8.3-1.6,17-2.2,24.9-5c5.1-1.9,9-7.1,13.5-10.7
		c2.8-2.2,5.7-4.7,8.9-6.2c3.8-1.8,7.5-1.7,9.2,4c-3.7,2.8-7.7,5.7-11.6,8.7c-6.4,5-12.6,10.2-19.9,16.1c6.7,0.7,12.9,1.3,20.4,2.1
		c-7,2.3-12.8,4.2-19.8,6.4c7.7,3.7,16.3,1.7,20.7-3.2c4.2-4.7,8.4-9.6,13.3-13.3c5.1-3.8,10.9-6.7,16.7-9.3
		c5.6-2.6,11.6-4.3,17.6-6.5c-6.7-6.4-18.4-8.6-21.2-19.7c0.3-0.5,0.6-1,0.9-1.4c3.4,1.8,6.9,3.3,10.1,5.4c6.4,4.3,12.8,8.8,19,13.3
		c7.7,5.6,14.1,12.1,14.3,22.7c0.1,8.4-2.2,15.8-8,21.8c-2.5,2.6-2.5,5-2.3,8.4c0.3,5.8-1,11.7-1.6,17.6c-0.4,3.4-1.5,6.8-1.1,10.1
		c0.5,4.4,1.5,8.4-4.6,9.4c-0.3,0-0.5,0.8-1.2,2.2c1.9-0.1,3.2-0.4,4.4-0.2c1.7,0.2,4.1,0.3,4.7,1.4c0.7,1.1,0.1,3.6-0.7,4.9
		c-2.1,3.2-4.6,6.1-7.1,9c-3,3.5-4.1,7.5-3.2,12.1c0.5,2.4,0.9,4.9,1.2,7.4c0.4,4-0.2,7.6-4.1,9.9c-0.9,0.5-1.6,1.3-2.4,1.8
		c-2.3,1.7-2.6,6.9-7.4,4.4c-2.8-1.4-5.4-3-8.2-4.5c-0.6-0.3-1.1-0.7-2.4-1.6c-4.4,5.8-8.7,11.6-13.9,18.6
		c11.4-3.6,20.3-2.1,26.4,7.1c-0.2,0.5-0.4,1.1-0.5,1.6c-1.7-0.5-3.4-1.1-5.2-1.5c-3.3-0.7-6.8-2.2-9.9-1.7
		c-4.6,0.7-8.2,0.3-10.6-3.6c-7.8,3.3-13.8,8.1-16.8,16.1c-0.6,1.5-3.4,2.2-5.1,3.3c-0.9-1.7-2.6-3.4-2.4-5
		c0.6-7.2,2.8-13.9,7.9-19.4c2.6-2.9,7-4.7,5.9-10c-0.2-0.9,2.1-2.3,3.3-3.3c4.3-3.4,8.6-6.8,12.9-10.2c-0.3-0.5-0.6-1-0.9-1.5
		c-4.7,1.4-9.4,3-14.2,4.2c-3.7,0.9-7.5,1.9-11.2,1.8c-2-0.1-4.3-2.2-5.5-4c-0.5-0.7,1.4-3.9,2.8-4.7c6.2-3.3,12.8-5.9,18.9-9.3
		c3.2-1.8,8.1-2.3,8.1-8c0-1.7,2.2-3.5,3.7-5.6c-0.4-0.7-1-1.7-2-3.4c4.3-0.6,8-1.1,11.9-1.7c-2.5-6.8-7.6-9.6-14.4-8.2
		c-3.4,0.7-6.8,1.8-10.2,2.2c-1.5,0.2-3.1-0.9-4.6-1.5c0.7-1.4,1.3-3.7,2.2-3.9c7.3-1.2,13-7.2,20.9-6.4c6.6,0.7,12,3.6,17.1,7.4
		c1.2,0.9,2.6,1.8,4,2.7c2.9-7.9-0.6-13.8-8.5-15.6c-2.6-0.6-5.2-1.4-7.7-2c0.2-0.7,0.3-1.5,0.5-2.2c3.6,0.7,7.1,1.4,10.7,2.1
		c0.1-0.3,0.2-0.6,0.3-1c-3-1.3-6-2.6-9-3.8c0.2-0.6,0.3-1.3,0.5-1.9c3.6,0.6,7.2,1.3,12.1,2.2c-2.6-9.6-4.9-18.6-7.3-27.5
		c-0.5-0.3-1-0.6-1.5-0.8c-3,3.3-6.3,6.3-9,9.8c-5.4,7-10.5,14.2-15.9,21.2c-0.7,0.9-3,1.7-3.6,1.3c-1.3-0.9-2.8-2.8-2.7-4.1
		c0.4-2.9,1.7-5.7,2.7-8.5c0.5-1.3,1.3-2.6,1.9-3.9c-3.5-1-3.6-1.1-7.2,5c-1.6,2.8-2.7,5.9-4.4,9.8c-2.9-4.2-3-7.6-0.7-10.7
		c6.3-8.3,12.7-16.5,19.2-24.9c-8.2,3.9-13.3,11-19,17.6c-2.6-2.8-2.6-2.8,1-11.5c-4.3,0-8.6-0.1-12.8,0.1c-0.6,0-1.2,0.8-1.8,1.3
		c0.6,0.6,1.2,1.5,1.9,1.7c1.3,0.3,2.7,0.1,4.2,0.7c-10.7-0.6-16.9,8.4-25.1,11c1,1.3,2,2.7,3.1,4c-1.5,1.1-2.9,2.5-4.6,3.3
		c-2.1,1-4.3,1.5-6.5,2.3c3.5,6.3-0.9,13-9.2,13.5c-3.6,0.2-7.3-0.5-10.8-1.5c-3.3-1-5.2-2.9-2-6.5c2.5-2.8,1.3-5.3-1.7-7.4
		c-3.6-2.5-6.7-5.4-5.9-10.1c-5.4-2.2-10.3-4.9-15.6-6.1c-6.9-1.6-19.2,5.6-22,12.2c-6.2,14.8-5.8,29.9-0.9,44.8
		c1.5,4.6,5.1,7.6,10.5,8c1.8,0.1,3.6,1,5.4,1.6c-0.9,1.5-1.7,2.9-2.6,4.4c-0.3,0.5-0.5,1.2-0.7,1.8c0.3,0.4,0.6,0.8,0.9,1.2
		c1.4-1.1,3.1-2,4.2-3.3c1.9-2.3,3.7-2.6,5.9-0.8c2.5,2.2,0.7,3.7-0.9,5.3c-2.4,2.5-4.7,5.1-6.8,7.3c0.2,2.2,0.6,4.5,0.5,6.7
		c-0.3,9.9-3.1,20.1,2.4,29.3c3.3,5.5,7.7,10.4,11.7,15.4c2.3,2.8,4.8,5.6,7.6,7.9c2.4,1.9,5.3,3,8.1,4.3c0.4,0.2,1.4-1,2.1-1.5
		c-0.5-0.5-0.8-1.4-1.4-1.6c-5.2-1.8-2.8-5.1-2.6-8.5c7,2.7,8.9,7.9,9.8,14.1c0.8,5.4,2.2,10.7,3.4,16c1.1,4.6,4.4,3.4,6.9,2.4
		c3.4,3.7,6.5,7.1,9.4,10.6c0.5,0.6,0.7,1.9,0.5,2.7c-0.1,0.5-1.6,1.2-1.9,1c-5.6-3.2-10.3,1.6-15.6,1.4c-3.9-0.1-7.7,0.4-11.6,0.7
		c-0.1-0.4-0.3-0.9-0.4-1.3c1.1-1.2,2.2-2.4,3.5-3.7c-2.9-0.9-5.4-1.8-8-2.3c-1.3-0.2-3.7,0.3-3.9,0.9c-1,4.3-3.9,3-6.7,2.9
		c-7.3-0.4-14.6-0.3-21.8-1.1c-2.6-0.3-5.1-2.5-7.6-3.8c1.7-3.2,4.1-4.9,8-4.4c4.6,0.6,9.2,1.1,13.9,1.1c1.8,0,3.6-1.4,5.3-2.2
		c-0.2-0.5-0.3-1.1-0.5-1.6c-3.9-0.5-7.9-1.1-11.8-1.6c0-0.7,0-1.4,0-2.2c6.5-0.5,12.9-1,19.7-1.5c0.3-2.9-1.7-4.6-4.3-6.2
		c-3-1.8-5.8-3.8-8.7-5.8c0.2-0.5,0.5-1,0.7-1.5c-1.2,0.3-2.4,0.6-2.7,0.7c-9.9-8.3-15.9-18.5-16.8-30.8c-0.9-12.5,3-24.2,10.3-34.7
		c-7-5.3-13.5-10.2-19.9-15.1c-0.4,0.3-0.9,0.7-1.3,1c0.8,6,1.7,11.9,2.4,17.9c0.4,3.1,1,6.2,0.8,9.2c-0.2,3.6-1,7.2-1.6,10.8
		c-0.1,0.8-0.1,1.8-0.5,2.4c-7.5,10.8-6.9,23.8-11.1,37.2c-1.9-2.5-4.4-4.3-4.5-6.2c-0.3-10.1,0-20.2,0.3-30.4
		c0.1-1.6,1-3.8,2.3-4.6c5.1-3.1,4.1-7.2,3.3-11.9c-0.7-4.2-1.2-8.9,0.2-12.8c1.2-3.4,0.2-5.4-0.9-8c-1.4-3.4-2.6-7-4-10.7
		c-3.5,1.5-7.5,3.4-11.2-0.9c-0.3-0.3-2.7,0.7-3.6,1.7c-1.3,1.3-2.1,3.1-3.3,5.1c2.5,2.3,3.1,5.1-0.3,8.2c-0.8,0.7-0.5,2.6-0.6,4
		c-0.1,1.9,0,3.8,0,7.2c-2.5-1.9-4.3-2.6-5.1-3.9c-2.5-4.1-4.6-8.4-6.9-12.5c-0.5-0.9-1.3-1.6-2-2.5c-0.6,0.9-1.3,1.6-1.6,2.6
		c-0.5,1.3-0.7,2.7-1.1,4.1c-9.9-6.8-5.3-17.6-8.1-26.7c-6.6,4.3-7.2-1.1-8.5-5.2c-8.7,8.4-5.7,51.7,4.2,67c-1,0.7-2,1.3-3.5,2.3
		c9.9,3.3,10.3,11.6,12.4,18.9c-0.4,0.3-0.9,0.6-1.3,0.8c-2.1-3.9-4.1-7.9-6.2-11.8c-0.4,0.1-0.7,0.2-1.1,0.3c0,1.5-0.5,3.2,0.1,4.4
		c1.4,3.1,3.9,5.8,4.7,8.9c2.7,10.4,9.7,18.3,14.5,27.5c4.6,8.6,9.6,17,14.5,25.4c1.7,2.9,4.3,5.5,5.5,8.6c0.6,1.6-0.8,4-1.3,6.1
		c-1.6-0.9-3.5-1.6-4.7-2.8c-10.3-10.7-17-23.7-23-37.1c-0.4-0.9-1-1.6-1.5-2.5c-6.9,5.4-3.5,13-4.4,19.4c-1.6,11.5-2,23.1-3.2,34.7
		c-1.9,18.3-6,36.2-9.7,54.1c-0.3,1.2-0.3,2.5-0.5,4.7c1.7-0.9,2.7-1.3,3.5-2c11-9.9,20.2-21.1,25.3-35.2
		c3.2-8.9,10.4-14.5,18.1-19.3c4.7-2.9,10.2,0,12.1,5.3c4.1,11.6,3.4,23.2,1.1,35c-1,4.9-1.9,9.8-2.9,14.7c-0.1,0.8-0.3,1.8,0.1,2.4
		c3.3,6.3,6.7,12.5,10.5,19.5c4.1-8.8,7.4-16.6,11.4-24c4.1-7.5,6.9-15.9,14.9-21c-5.2-4.8,0.2-7.8,1.8-11.5
		c-0.4-0.2-0.7-0.4-1.1-0.6c-4.8,7.7-9.5,15.4-14.3,23.1c-0.4-0.2-0.8-0.5-1.2-0.7c0.5-1.5,1.1-3,1.6-4.4c-0.4-0.2-0.8-0.4-1.2-0.5
		c-1.3,3-2.4,6.1-3.8,9c-1,2.2-2.4,4.3-3.6,6.4c-0.7-0.2-1.3-0.5-2-0.7c-0.1-1.8-0.6-3.8-0.2-5.5c2.4-12.7,4.4-25.6,11-37
		c1.4-2.4,3.7-4.2,5.6-6.2c4.4-4.9,8.9-9.8,13.2-14.9c0.6-0.7,0.8-1.9,0.7-2.8c-0.1-1.2-10.9-5.8-12.1-5.4
		c-7.8,2.8-15.6,5.5-23.4,8.5c-2.2,0.8-4.2,2.5-6.4,3.4c-1.5,0.6-3.3,0.7-4.9,1c0.1-1.5-0.2-3.3,0.5-4.4
		c6.4-10.8,16.7-14.9,28.5-14.9c5.1,0,10.1,2.9,15.2,4.2c3.7,1,7.5,1.4,11.3,2.3c6.1,1.4,12,2.1,17.9-1.1c1.6-0.9,3.9-0.4,5.8-0.7
		c4.1-0.6,8.3-0.9,12.2-2.2c5.7-1.8,10.8-1.5,16.4,0.6c10.2,3.7,20.3,3.2,29-4.3c4.2-3.6,5-9.4,2.4-14.9c-0.3,0-0.7-0.1-0.9,0
		c-8.2,6-10.1,3.9-11.4-4.9c-0.9-6,0.8-12.5,2.1-18.6c0.3-1.3,4-1.8,6.8-3c-0.2-0.8-0.2-2.3-0.9-3.5c-3.6-6.1-3.6-6.1,2.1-9.2
		c-1-1.3-2.1-2.7-3.1-4c1.6-0.5,3.2-1.4,4.9-1.4c6.3-0.1,12.6-0.1,18.9,0.3c4.5,0.3,6.7-2.5,8.9-5.4c0.5-0.6-0.4-3.1-1.4-3.9
		c-1.2-1.1-3.2-1.3-4.8-1.9c0.1-0.4,0.2-0.9,0.3-1.3c2.6,0.8,5.5,1,7.7,2.3c8.3,5,21.2-1.2,21.9-10.8c0.1-1.4,1.3-2.8,1.9-4.1
		c1,1.1,2.5,2.1,2.9,3.4c2.3,7.1-2.3,14.9-9.5,16.5c-2.6,0.6-5.3,0.8-7.9,0.9c-5.8,0.3-7.9,2.8-6.8,8.4c0.8,3.9-4,8.2-10.2,8.7
		c-0.1-1.1-0.2-2.2-0.1-3.3c0.1-1.1,0.5-2.2,0.9-3.8c-3.9,0-7.4-0.1-11,0c-4.3,0.2-5.2,3.6-6.3,7.9c2.3,0.4,4.6,1,6.8,1.3
		c2.3,0.3,4.7,0.1,6.9,0.5c1,0.2,2.3,1.3,2.5,2.3c0.6,2,1,4.2,0.7,6.2c-0.3,1.5-1.6,3.6-2.9,4c-7.4,2-12.3,11.1-9.1,18
		c0.4,0.8,1.9,1.9,2.6,1.7c7.7-2.2,12.2,3.5,17,7.4c7.8,6.4,10.7,15.2,9.8,26.9c3.6-2.1,6.6-3.4,9.1-5.3c9-7,26.2-6,32.3,2.2
		c1.1,1.4,2.2,4.2,1.5,5.2c-1.3,1.9-3.9,2.8-5.9,4.3c-2.5,1.8-5.1,3.6-7.5,5.7c-1.1,1-1.7,2.6-2.9,4.5c2.9-0.5,5.3-1,7.6-1.4
		c0.1,0.5,0.3,1.1,0.4,1.6c-5,2.7-10,5.2-15,8.1c-4.3,2.4-8.5,5-12.6,7.8c-7,4.7-14,9.3-20.7,14.4c-8.5,6.3-16.6,13.1-25,19.6
		c-2.1,1.6-4.6,2.5-6.7,4.1c-1.2,1-1.9,2.7-2.8,4.1c1.5,0.4,3.2,1.6,4.4,1.2c10.2-3.6,21.3-4.3,30.9-10c4.4-2.6,9.8-3.4,14.5-5.5
		c5.5-2.5,10.7-5.6,16.1-8.3c5.9-2.9,12-5.4,17.8-8.3c4.7-2.4,9.1-5.4,13.8-7.7c3.5-1.6,7.4-2.4,11.1-3.6c1.6-0.5,3.1-1.1,4.6-1.7
		c2.4-0.9,4.7-1.9,7.1-2.8c0.5,0.5,1,0.9,1.4,1.4c-1.8,2.8-3.1,6.6-5.6,8.3c-9.7,6.3-19.9,12-29.9,17.9c-4,2.3-8.1,4.5-12.4,6.8
		c3.5,4.6,6.5,2.4,8.8,1.2c1.7-0.9,2.7-3.1,4.4-5.2c0.3,0.2,1.2,1.1,2.6,2.4c7-4.4,14.6-8.3,21.2-13.5c6.3-5,11.6-11.4,17.6-17.5
		c-2.1-5.4,1.5-8.3,5.9-10.5c4.5-2.3,8.1,0.9,11.4,2.9c2.8,1.7,2.6,11.5,0.2,15.1c-4.8,7.4-9.4,14.8-14.5,21.9
		c-1.8,2.5-4.6,4.3-6.9,6.4c-1.4,1.2-2.9,2.4-4.4,3.5c-3.7,2.7-7.1,5.8-11.1,7.8c-11.6,5.8-23.3,11.2-35.1,16.5
		c-1.7,0.8-4,0.1-6,0.2c-1.9,0.1-3.8,0.2-5.7,0.6c-4,0.8-7.9,1.8-11.8,2.8c-0.2-0.5-0.5-1.1-0.7-1.6c1.9-1.3,3.8-2.7,5.8-3.9
		c10.8-6.4,21.8-12.7,32.5-19.2c1.8-1.1,2.9-3.4,4.3-5.2c-0.4-0.6-0.7-1.2-1.1-1.9c-4.3,0.8-8.6,1.6-12.8,2.6
		c-4,0.9-7.8,3.5-12.2,1.5c-0.6-0.3-2.1,0.1-2.3,0.6c-2.6,6.2-8.4,8.1-14,10.2c-5.9,2.2-11.8,4.5-17.9,6.2
		c-12.2,3.4-24.4,6.5-36.6,9.7c-0.6,0.1-1,0.7-1.6,2.4c27.3,3.7,54.6,7.3,81.9,11c0,0.6,0.1,1.2,0.1,1.8c-6,1.3-12,3-18.1,3.7
		c-4.7,0.6-9.6-0.2-14.4-0.1c-6.2,0.2-12.4,1-18.7,1.1c-5.5,0.1-11.1,0.3-16.4-0.8c-9.7-1.9-19.2-4.6-28.8-7
		c-0.8-0.2-1.8-0.2-2.4-0.7c-9.8-7.2-16.2-1.1-22.6,5.5c-6.8,7-13.8,13.9-20.9,20.7c-4,3.9-3.8,4.7,0.4,8.6
		c9.2,8.6,18.6,17.6,23,29.6c2.8,7.6,2.8,16.2,3.6,24.5c0.5,4.8,0.3,9.6-0.1,14.4c-0.6,7.5-1.4,15-2.6,22.5c-2.8,16.9-5.2,33.9-4,51
		c0.6,8.6,1.9,17.1,3.3,25.6c1,5.9,6.7,10.5,13.1,10.1c5.2-0.3,10.4-1.8,15.6-2.8c2.6-0.5,5.2-1.4,7.8-1.7c1.3-0.1,3.3,0.4,3.8,1.3
		c0.5,1,0,2.9-0.7,4c-2.1,3.5-4.8,6.7-6.9,10.3c-5.9,10-19,10.5-27.5,8.6c-4.5-1-8.8-3-13.2-4.1c-9.9-2.6-17.7-8.7-24.8-15.4
		c-6.6-6.3-10.8-14.7-14.1-23.4c-4.4-11.5-4.9-23.4-5-35.3c0-6.4,0.6-12.8,1.5-19.2c0.3-2.1,1.9-4,2.9-6c3.1-6.3,6.4-12.5,9.2-18.9
		c4.2-9.4,8.3-18.8,12.1-28.4c0.7-1.8,0.1-4.1,0.1-6.9c9.3,1.8,13.1,9.6,19,15.2c1-9.3-10.3-17.6-33.9-34.4c-0.5,1.5-1.6,3-1.3,4
		c2.3,8-3.7,13-6.5,19.1c-2.4,5-5.3,9.8-8.2,14.5c-4.9,8.2-9.5,16.8-15.3,24.4c-2.9,3.9-6.2,7.1-6.3,12.2c0,0.7-0.8,1.6-1.4,2
		c-5,3.4-7.1,8.9-10.3,13.7c-5.8,8.6-11.9,17-17.4,25.7c-2.6,4-3,9.4-7.7,12.1c1.3,6.4-3.6,10.9-6.6,14.7c-5,6.3-6.2,16.1-15.6,18.8
		c-0.4,0.1-1,0.5-1.2,0.9c-2.2,6.2-4.3,12.4-6.3,18.7c-0.3,0.8,0,2.1,0.5,2.8c4.1,6.6,8,13.3,12.6,19.6c6.7,9.2,9.1,19.7,9.8,30.7
		c0.1,1.8,0.8,3.6,1.1,5.4c0.3,1.9,0.8,4,0.4,5.8c-0.9,4.7-2.3,9.4-3.4,14.1c-0.1,0.4,0.1,1,0.3,1.4c2.7,4.8,5.5,9.6,9.3,13.9
		c-0.6-2.2-1.3-4.4-1.9-6.5c0.7-0.3,1.3-0.6,2-0.9c1.9,3.3,3.8,6.5,5.5,9.9c1.5,2.9,2.6,5.9,3.2,9.3c3.4,2.5,4.2,6.1,5.8,10.1
		c2.2,5.3,2.5,12.8,9.1,16.1c0.8,0.4,1.2,3.1,0.8,4.4c-1.2,3.9-0.8,7.1,1.9,10.2c0.8,0.9,1.1,2.4,1.5,3.7c0.3,0.9,0.3,2.5,0.9,2.8
		c7.5,3.3,6.6,12.2,11.6,17.3c3.5,3.5,5.3,8.3,3,13.7c6.5-0.2,4.6,5.3,5.8,8.2c1.4,3.4,1.4,7.4,2.4,10.7c2.1,4.6,4.7,9.1,6.3,13.9
		c4,11.8,7.6,23.8,11.2,35.8c1.4,4.6,1.5,9.7,3.6,13.9c1.9,3.7,2.4,6.9,1.2,10.4c-1.3,3.6-3.2,7-4.8,10.5c-0.6,0-1.1,0-1.7,0
		c-1.5-4-3.1-8-4.4-12.1c-1.2-3.7-2-7.7-3.5-11.3c-0.4-0.9-2.9-1-4.4-1.5c-0.1,0.4-0.2,0.8-0.4,1.1c-0.9-1.5-1.8-3-2.7-4.6
		c-1.1,2.3-2,4.2-2.9,6.1c-0.4-0.1-0.8-0.1-1.2-0.2c0.9,2.6,1.9,5.1,3,8.2c-4.2-0.4-6.6-1.2-5.9-5.7c0.2-1.5-0.5-3.7-1.5-4.9
		c-2.8-3.3-3.1-6.3-0.3-9.8c0.7-0.9,0.7-2.4,1.3-4.5c-6.2,4.2-6.2,7.7-6.9,12.8c-0.9,6.6,5.9,7.9,6.5,13.1c0.4,3,2.2,5.9,3,8.9
		c0.8,2.8,0,5-3.5,5c-2.9,0-5.8,0-9.8,0c-0.5-2-1.1-4.6-1.8-7.3c2.9,1.1,5.7,2.1,8.8,3.3c1.8-2.3-1.9-12.6-5.6-12.3
		c-6.1,0.5-4.2-3.3-4.1-6.6c-2.3,0.4-4.2,0.5-6,1.1c-0.9,0.3-2.1,1.4-2.2,2.2c0,0.7,1.2,2.2,2,2.3c5.4,0.5,6.1,3.2,4.6,7.8
		c-0.6,1.8,0.1,4-0.3,5.9c-0.3,1.5-1.4,2.9-2.9,5.7c-1-3.6-1.3-5.6-2.1-7.5c-0.4-1.1-1.5-1.9-2.2-2.8c-0.7,1-1.7,1.8-2.2,2.9
		c-0.6,1.5-0.8,3.2-1.6,6.1c-3.5-0.4-7.2-0.7-10.9-1.1c-0.7-0.1-1.3-0.1-2-0.1c-5.4-0.1-10.9-0.3-16.3-0.2c-1.8,0-3.5,0.7-5.8,1.3
		c-2.4-0.1-5.6-0.3-8.8-0.4c-0.1,0.5-0.2,0.9-0.3,1.4c-0.6-1.1-1.1-2.2-1.5-3.1c-6.5,2.2-12.8,4.4-20.1,7c1.6-3.7,2.7-6.4,3.8-9
		c-0.5-0.3-1-0.7-1.5-1c-2.3,2.2-4.5,4.3-7.2,6.9c-1-1.2-2.4-2.7-4-4.4c-7.4,6.4-15.9,8.2-25.7,7.1c-2.1,3.9-4.6,8.4-7.1,12.9
		c-0.5-0.1-1.1-0.3-1.6-0.4c-1.1-2.3-2.3-4.5-3.8-7.6c-1.1,1.6-1.7,2.7-2.5,3.5c-1.9,1.5-4.6,4.4-5.8,3.8c-4.2-1.9-6.6,0-9.9,4.1
		c-0.9-3.7-1.5-6-2.1-8.6c-1.4,1.5-2.6,3.6-4.4,4.4c-1.7,0.8-4,0.4-6.7,0.6c-0.4-1-1.1-2.7-1.9-4.9c-4.4,3.3-8.8,4.6-12.5,1.4
		c-2.8,0-5.3,0.7-7-0.1c-11.7-6.1-24.3-11.1-33.6-21c-3.6-3.9-6-9-8.7-13.7c-0.9-1.6-1.2-3.5-2.1-5.1c-2.9-5-3-5,2.4-7.7
		c-0.7-3-1-6.1-2.1-8.9c-1-2.5-2.5-4.7-0.1-7.2c-1-0.9-1.9-2.1-3-2.7c-1-0.5-3.1,0.2-3.4-0.4c-3-4.6-9.2-6.6-9.7-13.5
		c-0.2-3.2-3.9-6.1-6.1-9.1c-1.7-2.3-4-4.3-5-6.8c-1.4-3.3-1.8-7-2.7-10.8c-4.7-0.4-6.3-2.1-13.5-14.1c-0.2,1.5-0.8,3.1-0.4,4.4
		c0.8,2.5,1.8,5.1,3.5,7.1c2.6,3.3,1.4,5.6-1.9,9.5c-0.8-1.5-1.3-2.8-2-3.8c-5.2-7.2-10.8-14.2-15.6-21.7c-3-4.7-4.8-10.1-7-15.3
		c-1.8-4.2-3.5-8.4-5.8-13.7c-1.4,10.3,2.6,17.9,6.1,25.4c3.8,8.1,8.1,16.1,12.8,23.8c2.3,3.8,6.2,6.6,8.9,10.2
		c5.8,7.8,11.2,15.9,17,23.8c2.8,3.9,6.1,7.4,8.9,11.3c5,7,9.8,14.2,14.5,21.4c3.4,5.3,6.7,10.6,9.9,16c2.8,4.7,5.7,9.4,8,14.3
		c2.8,5.8,0.3,12.2-5.2,15.9c-1.1,0.7-1.7,2.1-2.4,3.3c-0.8,1.5-1.4,4.2-2.2,4.3c-1.7,0.1-3.6-1-5.2-2.1c-0.9-0.6-1.2-2-1.4-2.3
		c-1.5,0.1-1.9,0-2.2,0.2c-6.8,5.2-11.4,3.9-13.8-4.8c-1.5-5.6-5.3-8.5-9.2-12.1c-4.6-4.3-7.7-10.3-11.4-15.5
		c-0.5-0.7-0.5-2.1-1-2.2c-6.6-1.2-4.6-7.6-6.7-11.4c-2.5-4.3-4.4-8.9-6.6-13.4c-1.4-2.7-2.9-5.4-5.1-9.5c-0.7,2.4-1.5,3.5-1.2,4.2
		c5.7,14.1,11.5,28.1,17.5,42.1c1,2.4,3.2,4.2,4.6,6.5c0.7,1.1,0.7,2.7,1,4c-1.5,0.1-3.3,0.6-4.6,0.1C56,930.7,48.9,923,44.1,913.1
		c-4.4-9.2-9-18.5-12.6-28c-3.3-8.6-5.2-17.7-8.1-26.5c-2.2-6.7-4.9-13.3-7.3-20c-3.8-10.9-6-22.1-5.7-33.7c0.1-3.5,2.7-4.7,4.8-2
		c3.1,4.1,5.6,8.8,7.6,13.5c3.5,8.5,6.5,17.3,9.7,25.9c3.5,9.6,7,19.2,10.6,28.7c0.7,2,2,3.8,3.4,5.4c0.6,0.6,2.3,0.9,3.1,0.5
		c0.6-0.3,0.9-2.1,0.6-3c-4.7-12.5-9.5-24.9-14.3-37.3c-0.2-0.6-0.4-1.8-0.7-1.8c-5.9-0.8-2.8-4.8-3.2-7.9c-0.6-5-1.7-9.5-6.6-13.2
		c-3.6-2.7-5.2-8.3-7-12.9c-2.9-7.2-5.6-14.6-7.6-22.1c-1.3-4.6-2.7-9.7,1.1-14.3c0.5-0.6,0.1-2.3-0.4-3.2
		c-3.4-6.1-3.2-12.8-3.4-19.5c-0.1-3.7,1.1-5.5,5.1-3.7c1.6,0.7,3.3,1.2,5.8,2c-0.3-2.1-0.3-3.4-0.7-4.5c-2.8-6.2-5.8-12.3-8.4-18.6
		c-1.1-2.6-1.7-5.4-1.8-8.2c-0.4-7.2-0.2-14.3-0.6-21.5c-0.2-3.2,0.8-5,3.9-5.9c12.4-3.7,24.7-7.4,37-11.2c1.4-0.4,3-0.6,4.2-1.4
		c16.1-10.1,33.5-15.8,52.5-16.2c7.6-0.2,15.3-0.1,22.9-0.3c3.6-0.1,7.2-0.8,10.8-0.7c2,0.1,4,1.3,5.9,2c-0.8,1.8-1.6,3.6-2.5,5.5
		c3.6,4.2,7.4,4.3,14.3-0.3c-2.6-0.7-5.1-1.2-7.4-2.2c-1-0.5-1.6-2.1-2.3-3.2c1.3-0.2,2.7-0.5,4-0.7c0.1,0,0.3,0.2,0.5,0.2
		c8.2,2.2,10.1,0.7,10.1-8.2c-0.6,0-1.5-0.3-1.8,0c-4.1,5.4-6.7,2-10.1-1.2c-8.9-8.3-14.8-18.3-18.4-29.8c-0.2-0.6-0.3-1.3-0.2-1.9
		c0.1-0.4,0.5-0.7,1.4-1.9c1.8,3.1,3.3,5.7,4.8,8.4c0.4,0,0.8-0.1,1.3-0.1c0.2-3.3,1.1-6.6,0.6-9.8c-1.9-12.9-4.6-25.7-6.4-38.7
		c-1.5-10.7-2.4-21.4-3-32.2c-0.7-11.4-1.5-22.9-0.6-34.2c0.5-6.6,4.3-12.9,6.7-19.3c0.5-1.4,1.3-2.7,1.2-4.8
		c-6.5,3.7-13.6,6.5-19.2,11.2c-9.6,8-20.4,12.4-32.4,14.6c-1.9,0.4-4,1.1-5.6,2.1c-6.7,4.4-13.8,4-21.2,2.2
		c-2.1-0.5-4.7-0.6-6.6,0.2c-5.7,2.3-11.3,2.2-17.2,1.4c-2.7-0.4-5.7,0.3-8.5,1c-4.6,1.2-9.1,3.1-13.8,3.8c-1.7,0.2-3.8-2.2-5.7-3.5
		c1.2-1.5,2.3-3.2,3.8-4.3c1.6-1.2,3.6-1.7,5.4-2.5c9.5-4,7-1.6,4.6-11.4c-2.9-12-5.9-24.1-8.9-36.1c-0.2-0.6-0.3-1.4,0-2
		c0.5-1.2,1.2-2.4,1.8-3.6c0.8,1.1,2.2,2,2.5,3.2c2.3,9.7,4.2,19.5,6.5,29.2c0.9,3.9,2.2,7.7,3.5,11.4
		C27.6,501.4,31.5,502,36.6,501.3z M289.4,524.9c0.3,0.4,0.5,0.8,0.8,1.2c2.3-1.5,5.1-2.6,6.7-4.7c2.6-3.3,4.8-7.1,6.5-11
		c1.1-2.7,2-6.1,1.3-8.7c-1.9-6.7-2.4-12.8,1.9-18.9c1.1-1.6,1-4.6,0.3-6.6c-0.8-2.6-2.9-4.8-4-7.4c-0.6-1.3-0.5-2.9-0.7-4.3
		c-0.3-2,0.2-5-0.9-5.9c-5.8-4.5-4.7-9.9-3.4-15.8c0.7-3.1,1.3-7.7-0.3-9.5c-4.2-4.5-9.2-8.7-14.7-11.1c-3.4-1.5-5-2.5-5.1-5.9
		c0-2.3,0.1-4.7,0.4-7c0.4-3.2-1.5-5.5-4-5.1c-5.8,0.9-12.8,1.2-16.8,4.6c-3.6,3.1-6.7,4.3-10.4,3.5c-9.9-2-18.2,1.6-26.4,6.4
		c-1.4,0.8-3.4,0.7-5.1,0.9c-0.2-0.4-0.3-0.9-0.5-1.3c0.7-1.1,1.5-2.3,2.3-3.6c-6.8-0.5-11.8,1.2-16.3,5.2c-8.9,8-15,18-21.3,28
		c-3.3,5.2-7.4,10-9.7,15.6c-2.6,6.1-6.2,10.8-11.1,15.1c-2,1.7-3.9,4.7-4,7.2c-0.8,13.6-1.5,27.2-1.2,40.8c0.2,9.4,1.8,18.8,3,28.2
		c0.8,6.5,2,13,3.1,19.5c9.7-16.1,26.8-19.3,42.2-25.1c-1.9-1.2-3.4-2.1-4.9-3c1.8-1,3.5-2.1,5.3-2.9c1.3-0.6,2.9-0.6,4.3-1.1
		c9.3-3.4,18.5-6.8,27.7-10.4c7.9-3.1,15.9-6,23.4-10c6.8-3.6,13-8.4,19.5-12.6c4.3-2.9,8.5-5.8,12.8-8.7c0.5,0.5,0.9,1,1.4,1.4
		c-8.8,9.9-17.7,19.7-26.5,29.6c4.9-1.1,9.4-3.1,13.7-5.4c4.5-2.3,8.8-4.9,13.2-7.4c0.3,0.5,0.7,1,1,1.5
		C291.7,522.1,290.6,523.5,289.4,524.9z M269.2,400.4c1.8-0.4,4-0.9,6.2-1.4c10-2.4,15.7,2.8,14.6,12.8c-0.4,3.5-0.9,7.8,0.6,10.5
		c1.8,3.2,6,5,10.1,8.2c-0.2-2.3,0-3.1-0.3-3.5c-3.2-3.8-2.5-7.3,0.6-10.6c3.1-3.6,6.3-7.1,9.5-10.6c5.3-5.8,6.6-5.5,9.5,1.5
		c0.6,1.5,2.3,2.7,3.5,4c-0.8-3.5-3-6-4-9c-5.1-14.8-4.4-30-2.4-45.3c0.2-1.3,0.7-2.8,0.2-3.7c-2.9-4.8-6-9.5-8.5-13.4
		c-7.9,4.4-15.3,9.4-23.2,12.7c-7.1,3-7.9,3-9.2,10.5C274.2,375.5,271.7,387.6,269.2,400.4z M163.6,614.5c0.3,0,0.6,0,0.9-0.1
		c8.2-14.6,16.5-29.3,24.7-43.9c-0.8-0.5-1.6-1-2.4-1.5c-1.6,2.5-4,4.8-4.8,7.6c-1.7,6.2-4.7,11.1-10,14.9
		c-6.7,4.8-14.3,2.6-15.9-5.3c-2.1-10.9-4.3-21.8-5.3-32.9c-1.2-14.2-1.5-28.6-1.7-42.8c-0.2-10.8-0.5-21.7,4-32
		c0.6-1.4,0.2-4.1-0.9-5.1c-1.7-1.6-7.8,0.5-9.2,3c1,0,1.9-0.3,2.5,0.1c1.7,1,3.3,2.3,5,3.4c-1,1.3-1.8,3.2-3.2,3.8
		c-5.2,2.3-6.2,7-7.1,11.8c-3.2,17,0.2,33.8,1.1,50.7c0.9,16.7,2.9,33.3,4.3,50c0.1,1.1-0.4,2.3-0.7,3.4c-0.6,0-1.1,0.1-1.7,0.1
		c-1.5-8.4-3-16.8-4.4-25.2c-0.4,0.1-0.9,0.2-1.3,0.2c1.5,11.4,3,22.8,4.5,34.1c5.5-6.7,13-7.6,19.6-9.7c3.8-1.2,5.3,1.5,4,5.6
		C164.7,607.9,164.3,611.2,163.6,614.5z M378.7,12.8c-10.5,2.8-21.1,7.2-28.4,17.5c-1.2,1.7-3.3,2.7-4.9,4.1
		c-0.6-0.7-1.2-1.4-1.8-2.1c5.3-4.9,10.6-9.7,16-14.6c-14.2,3-26.7,8.9-37.3,18.3c-1.5,1.3-2.8,3-3.5,4.8c-1.5,3.8-2.7,7.7-4,11.6
		c-2.4,7.8-4.8,15.6-7.2,23.4c-0.5,1.7-0.7,3.6-1,5.4c4.8-9.5,8.9-19,12.9-28.6c1.5-3.6,3.2-6.6,7.2-8.3c2.7-1.1,4.9-3.7,7.1-5.9
		c2.5-2.4,5.1-3,8-0.8c0.8,0.6,2.1,1.8,1.9,2.4c-0.3,1.1-1.5,2.8-2.3,2.7c-4.3,0-5.8,2.5-6,7.3c-1.4-2.3-2.1-3.5-3.3-5.4
		c-2.1,7.5-4,14.3-6.2,22.3c3.9-5,7-9.2,10.3-13.2c2-2.3,4.6-4.1,6.5-6.4c3.1-3.9,5.2-8.7,8.8-12C360.4,27.2,369.9,19.9,378.7,12.8z
		 M340.3,65.4c18.9-21.4,37.8-42.5,66.6-52.5c-1.5-0.6-2.2-1.2-2.8-1.2c-16.3,1.9-30.8,7.5-42.3,19.7c-4.8,5.1-9.7,10.2-14.4,15.2
		C345.1,52.7,342.7,59.1,340.3,65.4z M207.1,550.6c0.1,0.5,0.2,1,0.4,1.5c10.3,2.5,20.2,3.3,29.8-3.6c7.6-5.4,15.9-9.8,23.9-14.6
		c-0.1-0.2-0.2-0.4-0.4-0.6C242.9,539.1,225,544.9,207.1,550.6z M139.1,887.8c-0.1-0.5-0.1-1-0.2-1.5c-4-3.2-8.1-6.3-12-9.6
		c-4-3.4-7.7-7.1-11.6-10.6c-0.3,0.3-0.6,0.6-0.9,0.8c0.1-1,0.1-1.9,0.2-3.1c-1.8-0.4-3.6-0.8-5.9-1.4c0.2,1.5,0,2.5,0.4,3
		c5.5,5.9,8.8,12.9,11.7,20.3c0.6,1.4,3,2.6,4.8,2.8c2.9,0.4,6-0.1,9-0.2C136,888.1,137.5,887.9,139.1,887.8z M297,527.2
		c-0.4-0.3-0.7-0.7-1.1-1c-1.7,1.4-3.3,3.3-5.2,4.2c-3.3,1.6-7.9,4.5-10.3,3.4c-5.7-2.8-9.6-0.3-13.8,2.2c-1.7,1-2.6,3.3-3.9,5.1
		c1.8,1.2,3.5,2.8,5.5,3.4c1.4,0.4,3.2-0.5,4.7-1.1c3.2-1.3,6.4-2.6,9.5-4.1C288.4,536.5,294.3,533.7,297,527.2z M505.4,56.6
		c-0.3-0.4-0.7-0.9-1-1.3c-6.7-0.4-28.3,18.8-28.7,25.9C485.8,72.8,495.6,64.7,505.4,56.6z M519.6,43.1c-1.5-4.7-3.4-6.7-6.1-5.8
		c-5.3,1.9-10.5,4.1-15.6,6.5c-2.9,1.3-2.7,3.3-0.8,5.4C504.7,47.1,512.2,45.1,519.6,43.1z M145.4,354.7c3.4-0.4,5.7-0.3,7.6-1.1
		c0.6-0.3,0.8-3.2,0.1-4.4c-1.3-2.4-3.4-3.2-6.3-1.9c-2.1,1-4.6,1.1-6.5,2.3c-1.3,0.8-2,2.7-3,4.2c2.1,1,4.2,2,6.4,3
		C144.8,355.5,145.5,354.5,145.4,354.7z M459.4,309.7c0.3,0.5,0.7,1,1,1.5c1.6-0.4,3.1-0.7,4.7-1.1c1.8-0.4,3.5-0.7,5.2-1
		c1.2-6.6,3-7.5,10.4-5.3c-0.2-2.7-0.5-5.3-0.8-9.3C472.5,300.1,465.9,304.9,459.4,309.7z M140.1,346.7c5-1.8,9.9-3.3,14.6-5.2
		c1.1-0.5,1.4-2.6,2.1-4c-1.4-0.3-3-1.1-4.2-0.7c-4.5,1.4-9,3.1-13.4,5c-1,0.4-1.5,1.9-2.2,2.9C137.9,345.3,138.8,345.9,140.1,346.7
		z M179.4,329.4c-0.5-0.3-0.9-0.7-1.4-1c-1.9,1.2-3.9,2.3-5.6,3.7c-0.6,0.5-0.9,2.6-0.5,2.9c5.1,3.5,1.6,5.5-1.8,7.7
		c1.6,1.8,2.8,3.4,4.5,5.4C176.4,341.2,177.9,335.3,179.4,329.4z M272.9,912.9c-0.9-2.7-1.2-4.8-2.3-6.2c-0.5-0.7-2.9-0.7-3.9-0.1
		c-3.3,1.9-6.4,4.2-11,7.3C261.8,913.6,266.8,913.3,272.9,912.9z M122.7,212c3.7-3.9,0.7-5.8-1.3-7.6c-3.8-3.5-7.8-6.7-11.7-10
		c-0.7-0.6-1.6-1-2.3-1.4c-0.3,0.3-0.5,0.6-0.8,0.9C111.8,199.7,117,205.6,122.7,212z M146.8,384.4c-0.2-0.5-0.4-0.9-0.7-1.4
		c-5.7,2.2-11.5,4.3-17.2,6.5c0,0.6,0.1,1.2,0.1,1.7c1.4,0.1,2.9,0.5,4.3,0.2c2.1-0.4,4.3-2.2,6-1.8
		C144.6,391,145,387.1,146.8,384.4z M489.9,265.8c-0.5,0.3-1,0.7-1.5,1c1.9,3.3,3.7,6.8,6,9.9c0.2,0.2,3.3-1.6,5.9-2.9
		C496.2,270.7,493.1,268.3,489.9,265.8z M300.1,902.7c2.4-8.1,1.8-10.8-3.1-14.2c-0.7,1.8-1.4,3.6-2.2,5.8c2.7,1.1,4.6,3.1,1,6.5
		C297.5,901.5,298.6,902,300.1,902.7z M478.9,59.4c0.2,0.3,0.5,0.6,0.7,0.9c4.5-2.6,9-5,13.4-7.8c0.7-0.4,0.7-1.9,1.1-2.8
		c-1.3-0.3-3.2-1.3-3.8-0.8C486.4,52.3,482.7,55.9,478.9,59.4z M336.3,881.7c3.9-3.6,5.9-7.2,2-10.7c-2.5,1.3-4.5,2.3-7.9,3.9
		c2.2,1.1,3.8,2,5.7,3C336.1,878.6,336.2,880.1,336.3,881.7z M109.8,220.4c-5.1-3.7-9.2-6.7-13.3-9.7c-0.3,0.3-0.5,0.7-0.8,1
		C102.8,222,103.4,222.4,109.8,220.4z M125.5,411.7c0.3,0.7,0.5,1.3,0.8,2c4.3-1.4,8.7-2.7,12.9-4.2c1.2-0.5,2.2-1.7,3.2-2.7
		c0.1-0.1-1-1.7-1.3-1.6c-1.3,0.3-2.5,1-3.7,1.6c-1.7,0.8-3.3,1.9-5,2.6C130.1,410.3,127.8,410.9,125.5,411.7z M318.8,37.9
		c-6.2,1.5-6.8,6.1-7.4,10.7c0.5,0.2,0.9,0.5,1.4,0.7C314.7,45.5,316.7,41.7,318.8,37.9z M292.4,872c-1.5-2.7-2.4-4.3-3.5-6.3
		c-2.2,1.8-4,3.2-5.8,4.7c0.1,0.5,0.3,1.1,0.4,1.6C286.1,872,288.8,872,292.4,872z M136.2,363.8c0.2,0.5,0.3,1,0.5,1.5
		c5.2-1.5,10.4-3,15.7-4.5c-0.3-0.9-0.6-1.7-0.9-2.6C146.4,360.1,141.3,361.9,136.2,363.8z M486,299.2c8.2,0.1,11.7-2.4,11.8-8
		C493.6,294,489.8,296.6,486,299.2z M160.2,877.6c-0.4,0.5-0.8,0.9-1.1,1.4c3.9,3.3,7.8,6.7,11.7,10c0.5-0.5,0.9-1.1,1.4-1.6
		C168.1,884.1,164.1,880.9,160.2,877.6z M266.9,386.2c-0.6-0.2-1.1-0.4-1.7-0.6c-1.1,4.8-2.2,9.6-3.2,14.5c0,0.2,1.6,0.8,2.7,1.3
		c0.2-3.1,0.2-5.6,0.6-8C265.6,390.9,266.3,388.6,266.9,386.2z M332.5,854c0.7-0.1,1.4-0.2,2-0.3c-0.4-2.7-0.7-5.3-1.2-8.7
		C327.8,848.9,329.5,851.5,332.5,854z M178.7,897.6c4-0.3,7.3-0.5,11.8-0.8C185,892.5,180,892.9,178.7,897.6z M134.9,829.9
		c-2.1-1.8-3.7-3.3-5.4-4.6c-0.7-0.5-1.7-0.6-2.5-0.9c-0.3,1-1.1,2.2-0.8,3C127.7,832.2,131.1,830.4,134.9,829.9z M278.3,886.6
		c-0.5-0.1-1-0.2-1.4-0.4c-0.9,1.9-2.2,3.8-2.5,5.9c-0.1,0.8,2.3,1.9,3.6,2.8c0.5-0.3,0.9-0.5,1.4-0.8
		C279,891.6,278.6,889.1,278.3,886.6z M147.1,719.7c-1.4-0.1-2.6-0.2-3.8-0.2c-0.1,0.6-0.2,1.3-0.3,1.9c2.2,0.3,4.5,0.7,6.7,0.7
		c0.4,0,1.3-1.8,1.2-2.6c-0.3-1.3-1.3-2.4-2.5-4.3C147.7,717.4,147.4,718.6,147.1,719.7z M293.6,128.3c-2.9,1-5.1,2.4-3.5,5.3
		c0.6,1.2,3.1,1.3,5.4,2.2C294.7,132.6,294.2,130.7,293.6,128.3z M153.9,615.5c0.6-2.7,1.2-5.3,2-8.4
		C150.3,608.4,150.1,609.1,153.9,615.5z M358.2,321.4c0.5,0.3,1,0.6,1.5,0.9c2.3-4.1,4.6-8.3,6.9-12.4c-0.6-0.3-1.2-0.6-1.8-0.9
		C362.6,313.1,360.4,317.2,358.2,321.4z M355.5,59.3c-1,2.2-1.8,4.2-2.7,6.2c0.4,0.4,0.9,0.9,1.3,1.3c1.9-1.1,3.8-2.3,5.9-3.6
		C358.2,61.6,357,60.6,355.5,59.3z M135.3,703c-0.8-0.6-1.6-1.2-2.4-1.9c-1.3,1.9-2.6,3.8-3.9,5.8c0,0,1.5,1.2,1.6,1.2
		C132.3,706.5,133.7,704.7,135.3,703z M294.7,917c0.8-0.1,1.6-0.2,2.5-0.3c-0.1-2.2-0.3-4.4-0.4-6.6c-1.1,0.3-3.3,0.7-3.3,0.9
		C293.7,913.1,294.2,915.1,294.7,917z"/>
	<path d="M620.2,238.7c2.1,1.4,5.2,2.3,6.3,4.3c3.3,6,6.7,12.2,8.3,18.8c2.8,11.2-2.9,21.4-5.3,32.1c-0.2,1-1.1,2-2,2.6
		c-1.6,1.1-3.4,2-5.4,3.2c-1.3-3.6-4.1-2.4-7.3-1.3c-5.1,1.7-10.3,3-16.3,4.8c-2.6-1.5-6.1-3.6-9.6-5.6c-0.6-0.3-1.2-0.7-1.8-0.8
		c-2.4-0.3-6.2,0.3-6.9-1c-3.2-5.4-8.5-9.7-8.6-17c-0.1-8-2-15.9,1-23.7c0.3-0.7,0.3-1.7,0-2.4c-4.2-10.7,4.2-18.5,11.8-21.6
		c12.2-4.8,24.9-7.5,37.6-0.8c1.5,0.8,3.3,1.3,4.2,2.5c0.9,1.1,1.4,3.1,0.9,4.3c-0.4,0.9-2.5,1.1-3.9,1.4c-0.9,0.1-1.8-0.2-2.7-0.4
		C620.3,238.3,620.3,238.5,620.2,238.7z M588.7,283.4c3-0.4,6.2,0,6.8-1c3-4.9,8.7-3.6,12.5-6.3c1.3-1,2.4-2.3,3.6-3.4
		c-1.8-0.6-4.1-2.3-5.3-1.7c-5.7,2.9-11,6.4-16.4,9.8C589.6,281,589.5,281.6,588.7,283.4z M588.8,268.3c0.3,0.4,0.5,0.9,0.8,1.3
		c5.1-2.6,10.2-5.1,15.3-7.7c0.6-0.3,0.8-1.5,1.1-2.3c-1-0.3-2.3-1.2-2.9-0.8C598.2,261.8,593.5,265.1,588.8,268.3z"/>
	<path d="M652.7,576.5c-6.6,2-13.3,3.6-19.6,6.2c-3.5,1.5-6.3,4.6-9.4,7.1c-6.5,5.2-14.1,6.8-22.1,5.4c-1.8-0.3-4-2.9-4.4-4.8
		c-0.4-1.9,0.6-4.8,2.1-6.2c7.1-6.5,14.6-12.6,21.9-18.9c3.3-2.9,6.1-6.2,11.4-5.9c8.1,0.5,13.6-5.6,20-9.2c3.9-2.2,7.3-5,11.2-7.1
		c8.8-4.6,18-0.4,27-0.8c8.5-0.3,17-2.1,25.4-3.4c1.1-0.2,2.3-1.2,3.2-1c1.6,0.3,3,1.4,4.4,2.1c-1.2,1.1-2.2,2.7-3.6,3.1
		c-14,4.3-28.1,3.7-42.4,1.6c-5.1-0.8-11.3,1.7-16.2,4.1c-6.2,3-11.6,7.5-17.3,11.5c-1.1,0.8-2,2.1-3.2,3.5
		c11.3-2.6,21.5-4.9,32.5-7.5c-0.6,3.1-0.9,4.6-1.1,5.7c6.2-1.1,12.2-2.4,18.2-3.2c1.8-0.2,3.9,0.9,5.6,1.9c3.1,1.7,5.9,3.4,9.7,1.8
		c3.6-1.5,7.4-2.4,11.6-2.9c-2.7,4.5-6.6,8-11.3,9.8c-4,1.5-6.4,3.6-7.2,7.7c-1.7,8-7,13.3-13.4,17.8c-1.6,1.1-3.9,1.2-5.9,1.7
		c-0.2-1.9-0.3-3.7-0.5-5.6c-0.2-2.4-0.5-4.8-0.9-8.5c-5.5,6.8-9.9,12.3-14.4,17.7c-7.3,8.7-12.8,18.9-23,25.2
		c-6,3.7-11.8,5-18.4,2.8c-5.6-1.9-6.8-6.9-1.9-10c13.1-8.2,21.1-20.9,30-32.8c1.6-2.2,2.1-5.3,3.1-7.9
		C653.6,577.2,653.2,576.9,652.7,576.5z M637.5,565.2c-0.3-0.5-0.6-0.9-0.9-1.4c-4.6,0.1-9.2-1.5-12.9,4c-2.9,4.4-7.5,7.7-11.6,11.2
		c-3.8,3.4-7.9,6.4-11.9,9.6c0.4,0.5,0.7,1,1.1,1.4C613.4,581.8,625.5,573.5,637.5,565.2z"/>
	<path d="M657.7,204c-10.2,0.3-20.3,0.9-30.4,0.8c-26.8-0.2-53.6-0.8-80.4-1.2c-5-0.1-5.8,1-4.5,6c0.3,1.3,0.7,2.6,0.7,3.9
		c-0.5,16.6-0.9,33.3-1.8,49.9c-0.1,2.1-2.1,4.2-3.6,5.9c-0.9,1.1-2.5,1.5-3.8,2.3c0.3,0.4,0.5,0.8,0.8,1.2
		c-2.1-1.1-4.2-2.3-6.6-3.5c-0.6,0.6-1.1,1.6-1.9,2c-1.5,0.8-3.2,1.4-4.7,2.1c-0.7-1.7-2.1-3.4-2-5.1c0.3-16.6,0.9-33.2,1.3-49.8
		c0.1-2.8-0.6-5.6-0.7-8.5c-0.2-12,4.6-16.4,16.3-15.8c6.5,0.3,13.1-0.3,19.6-0.6c0.6,0,1.5-0.1,1.9-0.5c3-2.5,3-2.5,4.9-1.4
		c4.5-1.2,8.1-2.9,11.9-3.1c10.2-0.4,20.5-0.4,30.7-0.2c6.8,0.1,13.5,1,20.3,1.3c1.7,0.1,3.3-0.5,6.4-1.1
		c-5.8-4.9-10.9-8.5-15.3-12.9c-4.2-4.1-10.5-6.9-11.1-13.6c0.5-0.5,1.1-1.1,1.6-1.6c4.3,3.4,8.7,6.7,12.8,10.3
		c5.1,4.5,9.4,10.1,15,13.7c3.7,2.3,9.1,1.9,13.8,2.5c1.5,0.2,3-0.3,4.5-0.1c3.4,0.4,5.5,1,3.7,5.6
		C655.9,195.7,657.3,199.5,657.7,204z"/>
	<path d="M637.9,324.4c7-2.2,13.3-4.7,19.8-5.9c5-0.9,10.3-0.5,15.3,2.2c1.8,1,4.9-0.1,7.4-0.5c1.7-0.3,3.4-1.6,5.1-1.6
		c3.6,0,5.2,2.8,3.1,5.7c-3.8,5-8,9.6-12.2,14.3c-0.5,0.6-1.5,1.3-2.1,1.2c-6.4-1.2-6.5,5.6-10,8c-0.6,0.4-0.4,2.1-0.2,3.2
		c0.2,1.3,0.7,2.6,1,3.8c-1.4-0.2-2.8-0.5-4.7-0.8c-9,8.7-15.8,19.7-21.5,31.5c-1.4,2.8-1.9,8.6-6.2,6.5c-4.6-2.1-0.3-5.8,1.1-8.7
		c4.2-8.6,7.6-17.7,12.9-25.7c6.1-9.3,13.8-17.6,20.8-26.4c0.8-1,1.5-2.1,2.3-3.4c-3.5-2.7-6.4-1.2-8.6,0.9
		c-5.5,5.2-10.6,10.8-15.8,16.3c-3.6,3.8-7.1,7.7-10.8,11.7c-0.3-0.7-1-1.9-2.2-4.3c-4.5,5.3-8.6,10.2-12.7,15
		c-1.6-2.1-3.6-3.9-4.5-6.1c-0.6-1.5-0.3-3.7,0.4-5.3c0.9-2.1,3.1-3.7,3.8-5.8c0.7-2.2,1.3-5.5,0.2-7.1c-2.5-3.6-1.9-6.6-0.6-10.3
		c0.7-1.8,0.7-4.5-0.2-6.2c-1.8-3.5-4.5-6.5-6.7-9.8c-1.1-1.6-2.7-3.4-2.7-5.2c0-2.3,0.9-4.9,2.2-6.7c0.4-0.6,3.9,0.4,5.4,1.5
		c4.1,3,8,6.5,12.7,9.4c-3.2-3.8-6.4-7.6-9.5-11.4C629.6,308.4,634.5,316.1,637.9,324.4z"/>
	<path d="M805,332.1c1.5-4.6,2.8-8.8,4.4-12.8c0.2-0.4,2.7,0,4.1,0.3c0.3,0.1,0.5,1.2,0.5,1.9c-1.2,7.4,4.9,11.1,8.5,15.9
		c2.1,2.8,1.6,3.9-1.5,4.9c-5.3,1.8-10.1,1.2-14.6-2.1c-6.6-4.9-14.4-5.5-21.9-4.1c-3.7,0.7-6.7,4.5-10.1,6.9
		c-1.8,1.3-3.7,2.6-6.4,3.2c0.6-1.3,1.2-2.5,2.1-4.6c-5.1,3.5-9.5,6.5-13.9,9.6c-3.9,2.8-7.7,5.8-11.6,8.5c-0.9,0.6-2.3,0.5-3.5,0.8
		c0.5-1.2,0.8-2.7,1.6-3.5c3.4-3.3,7-6.4,10.2-10.3c-3,1.5-5.9,3.2-9,4.4c-1.5,0.6-3.4,0.3-5.1,0.5c-1.1,0.1-2.2,0.2-3.1,0.6
		c-1.7,1-3.2,2.4-5,3.3c-1,0.5-2.3,0.3-3.5,0.4c0.2-1.3-0.1-3.1,0.7-3.9c1.4-1.6,3.5-2.5,5.1-3.9c1.6-1.4,3.1-2.9,5.6-5.3
		c-2.8,0.3-4.2,0.4-5.6,0.6c-0.3-0.4-0.7-0.7-1-1.1c2.4-2,4.7-4,7.1-6c-0.4-0.5-0.7-1-1.1-1.4c-9.6,7.1-19.2,14.1-29,21.3
		c-3.4-3.3-1.3-5.5,1.5-7.8c6.3-5.2,12.6-10.5,18.8-15.8c0.2-0.2,0.1-0.6,0.2-1.6c-1.6,0.8-2.8,1.6-4,2.1c-2,0.8-4.5,2.5-6,1.9
		c-7.7-3.1-10.6,4-15.5,6.7c-3.1,1.7-5.5,4.7-8.4,7c-0.9,0.7-2.2,0.7-3.4,1c0-1.2-0.4-2.6,0-3.6c0.7-1.5,1.8-2.9,3-3.9
		c9.6-7.9,19.3-15.8,29.2-23.3c1.5-1.1,4.6-0.7,6.9-0.2c5,1,9.9,2.3,14.8,3.7c1.5,0.4,2.9,1.3,4.4,1.8c3.3,1.1,6.9,1.7,9.9,3.3
		c8.6,4.5,16.6-3.6,25-1.1c0.7,0.2,1.9-0.9,2.8-1.5c7-4.7,11-11.8,15.1-18.8c2.8-4.7,7.4-5.5,12.2-5.2c1.8,0.1,3.4,2,5.1,3.1
		c-0.8,1.1-0.9,1.4-1,1.4c-9-0.3-13.1,5.5-16.8,12.6c-1.5,2.9-4.8,4.9-7.2,7.4c-0.8,0.8-2,2.1-1.8,2.7c0.4,1,1.6,2,2.7,2.4
		C799.2,330.9,801.8,331.4,805,332.1z M757.9,341.9c0.4,0.6,0.9,1.2,1.3,1.7c2.9-2.2,5.9-4.5,8.8-6.7c-0.5-0.6-1-1.2-1.4-1.9
		C763.7,337.3,760.8,339.6,757.9,341.9z"/>
	<path d="M674.7,313.1c-4.7,0.9-8.3,1.7-12,2.2c-1,0.1-2.7-0.7-3-1.5c-0.7-2.2-1.2-4.5-1.2-6.8c-0.2-28.6-0.5-57.2-0.4-85.7
		c0-6.1,1.2-12.2,1.8-18.3c0.2-2.1,0.4-4.3,0.3-6.5c-0.2-5.4,2.3-7.2,7.2-4.9c5.2,2.5,8.4,7,8.4,12.5c0.1,18.9-0.6,37.9-0.7,56.8
		c-0.1,15.8,0.2,31.6,0.3,47.4C675.5,310.3,674.8,312.3,674.7,313.1z"/>
	<path d="M818.7,187.9c0,30.5,0,64-0.1,97.5c0,2-1.2,4-1.9,6c-1.2-1.8-3.2-3.5-3.4-5.5c-0.9-6.7-1.4-13.5-1.6-20.3
		c-0.8-28.4-1.5-56.9-1.9-85.3c-0.2-13.5,0.7-27,0.4-40.4c-0.7-28.6-2-57.2-2.8-85.8c-0.1-2.1,2.2-4.2,3.3-6.3
		c1.2,1.7,3.4,3.3,3.5,5.1c1.1,14.9,2.1,29.8,2.5,44.8C817.6,126.7,818.1,155.9,818.7,187.9z"/>
	<path d="M95.3,630.2c0.8-1.2,1.5-2.5,2.6-3.5c1.5-1.4,3-3.2,4.9-3.8c2.6-0.8,3.9,1,2.9,3.4c-1.1,2.7-2.2,5.8-4.3,7.7
		c-3.6,3.3-1.2,4.5,1.4,5.6c2.3,1,4.9,1.5,7.3,2.9c-4.1,2.5-8.4,2.9-12.3,0.5c-3.2-1.9-5.3-1.4-8,0.6c-6.5,4.8-13.2,9.3-19.9,13.7
		c-1.3,0.8-2.9,1-4.4,1.5c-0.2-0.5-0.5-0.9-0.7-1.4c9.5-8.1,18.9-16.2,28.4-24.2c-0.4-0.5-0.9-1.1-1.3-1.6c-5.1,0.4-8,4.8-11.8,7.5
		c-5.5,3.9-11.1,7.7-16.8,11.2c-0.8,0.5-2.8-0.1-3.5-0.8c-0.6-0.6-0.3-2.3,0-3.4c0.2-0.9,1-1.6,1.5-2.4c-5.7-5.6-6.1-8.5-2-15.9
		c1.8-3.2,3.6-6.4,5.9-9.2c1.5-1.8,3.8-2.8,6.4-4.5c0.7-5.9,22.8-30,28.9-30.4c0.1,0.4,0.4,1.1,0.2,1.3
		c-6.2,8.6-12.5,17.1-18.6,25.7c-3,4.2-5.7,8.5-8.5,12.8c0.3,0.3,0.7,0.5,1,0.8c7.2-7.7,14.2-15.6,21.5-23.1
		c5.9-6.1,10.6-13.4,18.6-17.2c2.7-1.3,4.1,0.3,3.5,2c-0.9,2.5-2.7,6-4.8,6.5c-4.7,1.2-6.5,4.8-8.8,8c-2.7,3.8-4.9,8-7.2,12.1
		c-0.7,1.3-1.3,2.7-1.4,4.2C95.8,621,95.6,625.2,95.3,630.2z"/>
	<path d="M383.8,936.3c0.9,1.1,1.8,2.1,2.9,3.6c0.8-1.1,1.2-2.3,1.9-2.5c2.8-1,5.7-1.6,8.6-2.4c0.5,2.2,1.1,4.4,1.4,6.6
		c0.3,2.4,0.4,4.9,0.6,8.6c0.2-0.1-1.1,1-2.2,1c-12.9-0.2-25.9-0.8-38.8-0.9c-30.9-0.3-61.9-0.3-92.8-0.7c-9.9-0.1-19.8-1-29.7-1.6
		c-1.2-0.1-2.4-0.7-4.2-1.3c2.7-5.9,7.5-4.3,11.6-4.4c4.5-0.1,9.1,0.2,13.6,0.2c12.6-0.1,25.2-0.3,37.9-0.3
		c10.9,0,21.9,0.4,32.8,0.4c6.7,0,13.4-1,20.1-0.7c10.8,0.4,21.6-1,32.3,2c2.9,0.8,6.1,0.7,9.4-0.1c-1.8-0.6-4-0.8-5.2-2
		c-1.1-1.1-1.3-3.2-1.9-4.9C382.8,936.6,383.3,936.4,383.8,936.3z"/>
	<path d="M198,164.6c5.2-2.3,10.5-4.6,15.7-7c0.2,0.5,0.5,0.9,0.7,1.4c-0.6,0.7-1,1.7-1.7,2.1c-11,6.1-19.1,15.8-29.1,23.2
		c-5.5,4.1-10.7,8.7-16.4,12.7c-1.2,0.9-4,0.6-5.3-0.3c-1-0.6-1.5-3.7-0.9-4.7c5.3-7.6,10.6-15.2,16.6-22.2
		c4.9-5.8,10.3-11.4,16.3-15.8c7.4-5.5,15.8-9.2,25-11.5c5.9-1.4,11.3-4.7,17-6.8c3.4-1.3,7-2.1,10.6-2.8c0.9-0.2,2,0.6,3,0.9
		c-0.6,1-1,2.4-1.9,2.9c-5.8,3.4-11.7,6.7-17.7,9.7c-6.5,3.2-13.2,5.9-19.6,9.2c-4.5,2.3-8.6,5.5-12.8,8.2
		C197.7,164.1,197.9,164.4,198,164.6z"/>
	<path d="M996.3,691.1c-2.8,1.1-4.3,2-6,2.3c-13.2,2.3-26.4,4.9-39.7,6.5c-15.6,1.9-31.3,4.8-47.1,2.8c-3.6-0.4-7.3-1.2-10.7-2.3
		c-1.4-0.4-3.4-2.6-3.2-3.4c0.4-1.6,2.1-3.8,3.6-4c5.2-0.8,10.6-0.7,15.8-1.3c13.7-1.6,27.3-3.4,41-5.3c8.8-1.2,17.6-2.8,26.4-4.3
		c0.8-0.1,1.8-0.2,2.4-0.7c4.9-3.8,6.6-1.3,8.7,3.4C988.6,687.3,992.5,688.5,996.3,691.1z M936.3,694.5c0.1,0.5,0.2,1.1,0.3,1.6
		c8.5-1.2,17.1-2.4,26.2-3.8C959.6,689.5,940.3,691.6,936.3,694.5z M974.6,690c-5.7-3.6-7.7-3.1-9.5,2
		C968.6,691.3,971.6,690.7,974.6,690z"/>
	<path d="M786.3,377.9c-2.6-0.9-3.8-1.3-5.1-1.7c0,1.2-0.4,2.6-0.1,3.7c1,3.2-3,7-7.4,6.4c0.5-0.8,0.9-1.4,1.3-2.1
		c0.4-0.6,0.8-1.2,0.5-2.7c-9.2,6.3-18.4,12.9-27.7,18.9c-9.3,6-18.9,11.6-28.4,17.4c-0.4-0.5-0.8-0.9-1.2-1.4
		c0.4-0.9,0.5-2.2,1.2-2.7c6.5-4.8,13-9.5,19.6-14.1c13.4-9.2,26.9-18.1,38-30.2c7.1-7.8,14.9-14.9,22.5-22.3c1-0.9,2.4-1.4,3.8-2.2
		c1,2.8,1.9,5,2.7,7.3c0.5,0.2,0.9,0.5,1.4,0.7C800.3,361.5,793.2,369.9,786.3,377.9z"/>
	<path d="M799.9,921.6c0.5-2.2,0.5-4.6,1.5-6.6c1.2-2.5,3-4.6,4.6-6.9c0.9-1.2,2.5-2.2,2.9-3.5c2-6.5,3.4-13.2,5.5-19.6
		c1.1-3.4,3.1-6.5,4.7-9.7c1.9-4,3.7-8,5.5-12.1c2.5-5.7,5.6-10.9,11.2-15.3c1.2,4.1,1.2,6.4-1.1,9.7c-3.6,5.2-5.3,11.7-7.7,17.6
		c-1.6,4-3.3,8-4.7,12c-2.1,6.1-3.8,12.3-5.8,18.4c-1.6,4.8-3.1,9.7-5.1,14.3c-2.1,4.8-6.6,6.2-11.2,4c-1.9,2.2-3.9,4.5-6.9,8
		c-1.4-3.4-3.5-6-3.3-8.4c0.5-5.4,2.1-10.7,3.2-16c0.2-0.8,0.6-1.6,0.9-2.3c0.7,0.3,1.5,0.6,2.2,0.8c0.1,3.6,0.2,7.2,0.5,10.8
		c0.2,1.7,0.9,3.3,1.4,4.9C798.7,921.8,799.3,921.7,799.9,921.6z"/>
	<path d="M911,341.5c-0.5,3.9,0.2,8.8-1.9,11.6c-6.2,8.6-4.8,19.7-10.4,28.3c-1.2,1.8-1.7,4.5-1.6,6.7c0.3,4.8-2.8,5.9-6.3,6.8
		c-0.8,0.2-1.7-0.4-2.6-0.7c0.3-0.8,0.5-1.7,0.9-2.5c1-2.4,2-4.8,2.9-7.2c0.2-0.6-0.3-1.6,0-1.9c4.9-5.3-0.2-7.9-3.1-11
		c-2.5-2.7-2.5-10.2,0-13c0.6-0.7,1.8-1.8,1.6-2.2c-2.7-5.7,2.5-8.3,4.6-12c1.3-2.3,3.6-4.1,4.6-6.4c1.6-3.7,3.4-5.1,7.6-3.9
		C911.9,335.4,911.4,338.2,911,341.5z"/>
	<path d="M1016.6,186.2c1-1.7,2-5.3,4.4-7.5c4.2-3.8,9-7.3,14-9.7c4.8-2.3,13.4,6.1,12.1,11.4c-0.2,0.8-1.1,1.6-1.9,2.1
		c-3.1,2-6.3,3.7-9.3,5.7c-1.7,1.2-3.3,2.6-4.5,4.3c-2.2,3-3.1,7.4-8.1,6.8C1020.2,198.8,1016.7,192.5,1016.6,186.2z"/>
	<path d="M123.7,495.9c-2.7,2.5-5.4,5.1-8.2,7.6c-4.2,3.9-8.6,7.6-12.7,11.7c-8.2,8.1-16.7,16-24.2,24.7
		c-7.6,8.7-14.1,18.3-21.2,27.4c-0.9,1.2-2.8,1.7-4.3,2.5c-0.5-1.4-2-3.3-1.5-4.2c2.6-5.1,5.2-10.4,8.8-14.8
		c5.7-7,12.2-13.4,18.5-19.9c10.1-10.5,20.4-20.9,33-28.6c3.1-1.9,5.7-4.5,8.7-6.6c0.7-0.5,1.7-0.4,2.6-0.6
		C123.4,495.3,123.5,495.6,123.7,495.9z"/>
	<path d="M888.3,816.3c-1.4,2.1-2.8,4.2-4.1,6.4c-7,12-14.2,23.9-20.9,36c-5.3,9.6-9.7,19.7-14.7,29.5c-1.4,2.8-3.4,5.3-5.2,8
		c-0.6-0.1-1.3-0.3-1.9-0.4c-0.3-2.6-1.5-5.6-0.7-7.8c2-5.3,4.9-10.2,7.6-15.2c2.6-5,5.3-9.9,8.2-14.7c4.1-6.8,8.4-13.5,12.6-20.2
		c3.9-6.2,7.9-12.4,12.1-18.4c1.3-1.9,3.4-3.2,5.2-4.8C887.1,815.2,887.7,815.7,888.3,816.3z"/>
	<path d="M374.4,90c-6.7-5.4-11.6,1.1-17.3,1.4c1.5-4.7,8-8.1,13.4-7.4c6.3,0.8,12,3.1,16.1,8c1,1.2,1,3.3,1.4,4.9
		c-2.2,0.1-4.5,0.6-6.5,0.1c-1.4-0.4-2.3-2.2-4.1-4.2c-2.9,2.9-6,5.4-8.2,8.5c-2.8,4.1-1.6,7.3,2.8,9.9c2.8,1.7,5.9,3.3,8.2,5.6
		c1.8,1.7,2.7,4.4,4.1,6.7c-2.8,1-5.9,3.3-8.4,2.7c-5.1-1.2-10.2-3.5-11.2-9.9c-0.1-0.8-0.4-1.6-0.7-2.4
		c-4.6-10.1-0.1-13.5,5.1-19.3C370.6,93.1,372.3,91.9,374.4,90z"/>
	<path d="M83.6,511.8c-4.2,3-9.1,5.4-12.4,9.1c-3.1,3.6-10.1,3.7-10.3,11.4c4-2.4,7-4.1,10.1-5.9c0.4,0.4,0.8,0.9,1.2,1.3
		c-1.9,2-3.7,3.9-5.6,5.9c-4,4.1-8.1,8.2-12.2,12.3c-0.5,0.5-0.8,1.2-1.4,1.4c-4.9,1.5-6.5-3.1-9.2-5.3c-2.1-1.7-3.5-4-0.9-6.3
		c5.8-5.2,11.4-10.6,17.7-15.2c4.9-3.6,10.7-6,16.2-8.7c1.8-0.9,3.9-1.3,5.8-1.9C82.9,510.5,83.3,511.1,83.6,511.8z"/>
	<path d="M290.3,934.2c-2.5,0-5.1,0-7.6,0c-0.1,0.5-0.1,1.1-0.2,1.6c5.8,0.6,11.5,1.1,17.3,1.7c0,0.6-0.1,1.1-0.1,1.7
		c-5,0-9.9,0-14.9,0c-14.6,0.1-29.1,0.2-43.7,0.2c-1.3,0-2.8,0.3-4-0.1c-1.5-0.5-4-1.7-3.9-2.4c0.2-2.5,0.6-5.6,5.2-5.7
		c-1.1,1.7-1.8,2.8-3.4,5.4c4.9-1.7,9.5,1.8,12.3-3.8c0.5-1,3-1.5,4.5-1.5c11.9,0,23.9,0.1,35.8,0.2c1,0,1.9,0.6,2.9,0.9
		C290.5,933,290.4,933.6,290.3,934.2z"/>
	<path d="M582.6,159.5c-2.5-0.2-4-0.4-5.7-0.5c2.3-2.8,10.1-4.3,12.4-2.2c2.6,2.4,1.5,4.6-0.8,6.7c-10,9.6-21.2,17.5-33.5,24
		c-2.9,1.6-6.1,2.8-9.1,4.1c-0.4-0.7-0.8-1.4-1.3-2.1c2.1-1.8,4.2-3.8,6.4-5.4c9.7-7.2,19.5-14.2,29.2-21.4
		C581.1,162.1,581.5,161.1,582.6,159.5z"/>
	<path d="M959.5,293.6c-0.1-1.6-0.3-3.6-0.5-6.1c-1.7,0.9-3,1.1-3.6,1.9c-3.8,5.5-9.7,4.3-14.9,4.6c-1.5,0.1-3.7-1.6-4.5-3
		c-1.6-3.2-2.6-6.9-3.8-10.5c3.6-2.3,6.4-1.8,9.3,3.5c2.7,4.9,5.3,4.5,9.6,2.5c4.2-2,9-4.1,13.5-3.9c3.5,0.1,7.5,3.1,10.1,6
		c2.1,2.3-0.2,4.8-3.2,5C967.6,293.8,963.7,293.6,959.5,293.6z"/>
	<path d="M1046,758.1c1.1,7,1.7,13.2,6.8,18.2c1.7,1.7,2.7,5.9,1.8,8c-1.5,3.5-0.7,5.4,1.7,7.7c2.8,2.7,2.2,4.8-1,6.1
		c-2-2.4-3.6-5-5.9-6.8c-4.9-3.9-3.8-10.6-7.4-15c-0.7-0.9-0.6-2.5-0.8-3.8c-0.4-3.1-0.8-6.2-1.3-9.8c0.4,0,1.7-0.1,3.4-0.3
		c0.1-0.9-0.1-2.1,0.4-3C1044.1,758.6,1045.3,758.4,1046,758.1z"/>
	<path d="M778,648.9c0.1-1.2,0-2.4,0.3-3.5c0.3-0.8,1.2-2,1.8-2c0.9,0,2,0.8,2.7,1.5c0.5,0.5,0.6,1.6,0.7,2.4
		c0.1,12.8,5.8,24.1,9.6,35.9c0.5,1.7-0.3,3.8-0.5,5.7c-1.8-1.2-4.7-2-5.2-3.5c-3.8-12-7-24.1-10.5-36.2
		C777.3,649.1,777.6,649,778,648.9z"/>
	<path d="M839.1,847.4c-0.3-2.7-1.2-4.9-0.5-6c5.7-9.5,11.6-18.9,17.6-28.3c2.6-4.1,5.2-8.1,8.2-11.9c1-1.2,3.2-1.3,4.9-2
		c-0.6,1.5-1,3.2-1.8,4.5c-5.8,9.5-11.7,18.9-17.5,28.4c-2.5,4.1-4.7,8.3-7.2,12.4C842.4,845.3,841.3,845.7,839.1,847.4z"/>
	<path d="M861.5,375.1c-1.4-3.7-3.5-7.3-4-11.1c-1.3-10-1.9-20.1-2.6-30.2c-0.1-1.4,1.3-2.9,2-4.4c1,1.2,2.8,2.4,2.9,3.7
		c0.7,7.4,0.9,14.9,1.6,22.3c0.3,2.7,1.7,5.3,2.2,8c0.6,3.6,0.7,7.3,1,10.9C863.6,374.6,862.6,374.9,861.5,375.1z"/>
	<path d="M871.3,363.4c1.1-5.9,2.2-11,3-16.1c0.7-4.4,1.1-8.9,1.5-13.3c0.3-3.3,1.4-6.6,5-5.9c3.5,0.6,3.8,4.3,2.8,7.4
		c-1.7,5.1-3.9,10-5.2,15.2c-1,4-0.9,8.2-1.5,12.3c-0.2,1.7-0.9,3.3-1.4,5C874.1,366.4,872.7,364.9,871.3,363.4z"/>
	<path d="M17,231.2c3.5,1.9,6.8,3.5,9.8,5.5c4,2.6,7.9,5.4,11.6,8.5c1.2,1,1.5,3.2,2.1,4.8c-1.6-0.3-3.4-0.2-4.8-0.9
		c-5.4-2.6-10.7-5.3-16-8.1c-1.9-1-4-1.9-5.4-3.4c-0.9-0.9-0.9-3.1-0.5-4.5C14,232.2,15.8,231.9,17,231.2z"/>
	<path d="M807.9,486c0.2-3.5,0.1-7,0.8-10.3c0.4-1.7,2.5-2.9,3.8-4.4c1,1.6,2.7,3.3,2.8,5c0.2,5.1,0,10.2-0.5,15.3
		c-0.2,1.6-1.6,3.2-2.4,4.8c-1.4-1.5-3.4-2.7-4.1-4.5c-0.7-1.7-0.2-3.9-0.2-5.9C808.1,486,808,486,807.9,486z"/>
	<path d="M1053.4,822.1c0.5-3.2,0.9-6.3,1.4-9.9c-4.9,1.5-5.5-0.4-4-4.2c0.4-0.9,0.3-2.1,0.9-2.8c0.9-1.3,2.2-2.4,3.3-3.5
		c1,1.2,2.3,2.2,2.9,3.5c1.5,3.1,2.9,6.2,3.8,9.5c0.4,1.6,0.1,4-1,5.1c-1.5,1.5-3.9,2.2-5.9,3.2
		C1054.4,822.7,1053.9,822.4,1053.4,822.1z"/>
	<path d="M1061,834.3c0.3,0.7,0.5,1.8,1,1.9c8.6,3,7.6,11.7,10.6,17.9c0.7,1.4-0.5,3.8-0.9,5.7c-1.4-1.2-3.5-2.1-4.2-3.7
		c-3.1-6.9-5.9-14-8.7-21C1059.5,834.8,1060.2,834.5,1061,834.3z"/>
	<path d="M126.6,645c-8.1-0.4-11.9-3.5-10.8-9.5c0.3-1.8,1.5-3.7,2.9-4.9c1.8-1.6,4.2-1.3,4.2,1.6c0,5.4,1.6,8.7,7.5,8.8
		c0.8,0,1.5,1.4,2.3,2.1c-0.8,0.6-1.6,1.5-2.6,1.8C129.2,645.2,128.1,645,126.6,645z"/>
	<path d="M973.1,253.9c4.8,2.7,8.9,4.9,12.7,7.3c0.6,0.4,0.9,2,0.6,2.9c-0.1,0.5-1.6,1-2.5,0.9c-3.9-0.4-7.9-0.8-11.7-1.8
		c-1.9-0.5-3.4-2.3-5.1-3.5C969,257.9,970.8,256.2,973.1,253.9z"/>
	<path d="M411.2,153.2c4.2-0.4,7.7-0.9,11.2-0.9c0.9,0,2.6,1.5,2.7,2.4c0.4,3.6,0.4,7.3,0.3,10.9c0,0.6-1.3,1.7-2,1.7
		c-1,0-2.8-0.8-2.9-1.4c-0.3-5-4.5-6.6-7.5-9.2C412.3,155.9,412,154.6,411.2,153.2z"/>
	<path d="M1041.4,199.6c3.5,1.7,4.5,5.6,3.4,9.2c-1.1,3.5-3.9,6.5-6.3,9.5c-0.3,0.3-3.1-0.5-3.6-1.4c-0.7-1.2-0.7-3.2-0.2-4.5
		C1036.6,208.2,1038.9,204.3,1041.4,199.6z"/>
	<path d="M1043.7,810.2c0.1,0-0.9,0.7-1.7,0.6c-0.9-0.1-2.4-0.8-2.6-1.5c-2.2-7.1-4.2-14.3-6.1-21.5c-0.2-0.7,1-2.5,1.4-2.5
		c1.1,0.1,2.7,0.7,3,1.5c1.2,4.1,2,8.3,3.1,12.4C1041.5,802.5,1042.4,805.7,1043.7,810.2z"/>
	<path d="M981.1,315.7c-0.3-2.4-0.7-4.3-0.9-6.3c-0.3-3-0.6-6-0.9-9c-0.1-0.8-0.1-1.8,0.3-2.2c0.4-0.4,1.6-0.5,2.2-0.2
		C989,302.2,989,310.7,981.1,315.7z"/>
	<path d="M371,934.6c-2.1,0.2-3.4,0.4-4.7,0.5c2.9-4.5,6.8-3.3,10.6-2.4c4.3,1,2.5,4.1,2.3,7.5c-3.8-0.2-7.4-0.5-11.1-0.7
		c0-0.5-0.1-1.1-0.1-1.6C368.9,937,369.7,936.1,371,934.6z"/>
	<path d="M355.2,104.8c0,8.1,0,15.9,0,23.6C349.6,124.4,349.3,110.7,355.2,104.8z"/>
	<path d="M181.8,294.9c-4.1,2.5-6.6,0-7.3-3.5c-0.7-3.4,0-7.2,0.4-10.8c0-0.3,2.8-0.8,2.9-0.5c0.6,1.2,1.3,2.9,0.9,4
		C177,288.7,179,291.7,181.8,294.9z"/>
	<path d="M404.5,110.8c1.2,1.5,3.4,2.9,3.5,4.5c0.2,4-3.1,4.9-6.2,4.4c-1.5-0.2-3.8-2.2-3.7-3.3
		C398.2,113.5,399.5,110.8,404.5,110.8z"/>
	<path d="M805,903.8c-0.7-1.7-1.9-3.3-2.1-5c-0.2-2.4,0.1-4.9,0.6-7.4c0.2-1.1,1.3-2,1.9-3c0.9,0.9,2.6,1.9,2.6,2.8
		c0,3.9-0.6,7.8-0.9,11.7C806.4,903.3,805.7,903.5,805,903.8z"/>
	<path d="M836.4,319.6c-3-2.4-6.3-4.5-9-7.2c-1.5-1.5-2.1-4-3.1-6c2.1,1.2,4.5,2,6.2,3.5c2.6,2.4,4.6,5.4,6.9,8.1
		C837,318.5,836.7,319.1,836.4,319.6z"/>
	<path d="M1050.4,826c4.6-0.5,8.6-0.9,13.8-1.4C1058,832.9,1055.6,833,1050.4,826z"/>
	<path d="M338.5,932.4c5.6-0.4,11.3-0.9,16.9-1.1c0.7,0,1.8,1.2,2.2,2.1c0.2,0.4-1.1,1.9-1.6,1.9c-5.3-0.4-10.6-0.9-15.8-1.5
		c-0.6-0.1-1.2-0.4-1.8-0.6C338.4,933,338.5,932.7,338.5,932.4z"/>
	<path d="M1008,185.3c-1.3,5.6-6,7.8-9.9,6.4c-0.6-0.2-1.4-0.8-1.4-1.2c0-0.7,0.4-1.8,0.9-2C1001,187.4,1004.5,186.4,1008,185.3z"/>
	<path d="M205.4,348.7c-2.6-2.9-2.2-7.3,1.3-14C209.9,337.5,209.3,343.2,205.4,348.7z"/>
	<path d="M715.3,382c-2.6-0.8-5.3-1-7.1-2.3c-0.9-0.7-0.8-3.3-0.6-5c0.1-0.8,1.3-1.8,2.2-2.1c0.5-0.2,1.7,0.9,2.1,1.6
		C713,376.3,713.9,378.6,715.3,382z"/>
	<path d="M1047.2,752.5c-3.8,2.7-6,4.3-9.1,6.5c-0.4-1.7-1.1-3.5-1-5.2c0-0.9,1.5-2.4,2.4-2.4C1041.7,751.4,1044,752.1,1047.2,752.5
		z"/>
	<path d="M319.8,934.9c-7.3-0.4-14.6-0.9-21.9-1.3c0-0.4,0-0.7,0.1-1.1c7.3,0,14.7,0,22,0C319.9,933.3,319.9,934.1,319.8,934.9z"/>
	<path d="M192.5,269c-0.3-4.5-1.9-9.3,3.5-12.6C199.5,262,193.4,264.8,192.5,269z"/>
	<path d="M164.9,305.9c-4-3-3.4-6-1.9-8.9c0.5-0.9,2-1.1,3.1-1.7c0.5,1.1,1.7,2.3,1.5,3.2C167.1,300.9,166,303.1,164.9,305.9z"/>
	<path d="M93.5,263.8c-2.1-3-4.1-6-6.2-9c0.8-0.6,1.6-1.1,2.4-1.7c2.1,3,4.2,6,6.3,9C95.2,262.7,94.4,263.2,93.5,263.8z"/>
	<path d="M1117.9,770.2c-2.2-0.2-4.4-0.4-6.6-0.6c0.8-1.9,1.7-3.8,2.5-5.8c1.7,1.2,3.4,2.5,5.1,3.7
		C1118.5,768.5,1118.2,769.3,1117.9,770.2z"/>
	<path d="M544.1,302.4c6.3-7.4,7.2-7.5,10.4-2.2C550.9,301,547.5,301.7,544.1,302.4z"/>
	<path d="M910.9,717.5c3.2,0,6.5,0,10.7,0c-4,4.5-7.4,2.5-10.7,2C910.9,718.8,910.9,718.2,910.9,717.5z"/>
	<path d="M328.4,938.1c1.5-0.9,2.9-1.8,4.4-2.7c-0.1-0.3-0.3-0.6-0.4-0.9c-1.5,0-3.1,0-4.6,0c0-0.6,0-1.2,0-1.8
		c1.9,0.2,4.2-0.1,5.7,0.7c0.9,0.5,1.5,3.5,0.9,4.3c-1,1.3-3.2,1.6-4.8,2.4C329.3,939.4,328.8,938.7,328.4,938.1z"/>
	<path d="M184.2,252.8c1.1,2.1,2.4,3.5,2.2,4.5c-0.3,1.3-1.8,2.3-2.8,3.4c-0.9-1.2-2.4-2.3-2.4-3.5
		C181.2,256.1,182.7,254.9,184.2,252.8z"/>
	<path d="M1028.7,121.7c1.5-1.5,1.8-2,1.9-1.9c2.3,1.2,4.6,2.4,6.9,3.7c0,0-0.8,1.8-0.9,1.8C1034.1,124.2,1031.7,123.1,1028.7,121.7
		z"/>
	<path d="M1031.8,773.4c1.8,3.4,3.3,6,5.3,9.7c-1.6-0.5-3.4-0.5-4.4-1.4C1030.5,779.5,1029.6,776.8,1031.8,773.4z"/>
	<path d="M99.5,616c1.9-2.3,3.7-4.5,5.5-6.7C105.9,616.2,105,617.1,99.5,616z"/>
	<path d="M883.7,88.5c2.1,0.8,4.2,1.6,6.3,2.6c0.1,0-0.5,2-0.6,2c-2.2-0.4-4.5-1-6.7-1.5C883,90.5,883.3,89.5,883.7,88.5z"/>
	<path d="M292.9,214.1c1.3,2.8,2.6,5.6,3.9,8.4c-0.8,0.4-1.6,0.7-2.4,1.1c-1.3-2.8-2.6-5.6-3.9-8.3
		C291.4,214.8,292.1,214.4,292.9,214.1z"/>
	<path d="M927.7,252.8c1.1,1.7,2.3,2.9,2,3.3c-0.9,1.4-2.2,2.5-3.4,3.7c-0.7-0.7-2.2-1.8-2.1-2.1
		C925.1,256.1,926.2,254.8,927.7,252.8z"/>
	<path d="M887.4,388.6c-0.4-1.9-0.7-3.8-1.1-5.7c1-0.1,2.7-0.5,2.8-0.4c0.6,1.8,0.9,3.7,1.2,5.6
		C889.3,388.2,888.4,388.4,887.4,388.6z"/>
	<path d="M510.6,177.2c0-2.1,0-4.3,0.1-6.4c0-0.1,2.1-0.2,2.1-0.1c0.4,2.1,0.7,4.2,1,6.4C512.7,177,511.7,177.1,510.6,177.2z"/>
	<path d="M902.1,727.6c-2.2-0.2-4.5-0.4-6.7-0.7c-0.2,0-0.1-1.4-0.2-2.2c2.4,0,4.7,0,7.1,0C902.2,725.7,902.2,726.6,902.1,727.6z"/>
	<path d="M1029.9,519.2c1.4,6.2,2.9,12.5,4.3,18.7c0.3,1.1,0.8,2.3,0.8,3.4c0,1.4-0.6,2.7-0.9,4.1c-1.1-0.7-2.4-1.3-3.3-2.2
		c-5.9-6.4-6.1-14.9-7.8-22.8c-1-4.9-0.5-10.1,0-15.1c0.1-1.4,2.3-2.7,3.6-4c0.8,1.3,2.1,2.5,2.3,3.9c0.8,4.5,1.2,9.2,1.8,13.8
		C1030.6,519,1030.2,519.1,1029.9,519.2z"/>
	<path d="M896.8,515.5c4.1,2.3,8.3,4.5,12.3,7c1,0.6,1.3,2.3,1.9,3.4c-1.2-0.2-2.8,0.1-3.7-0.5c-3.9-2.7-7.6-5.6-11.4-8.5
		C896.2,516.5,896.5,516,896.8,515.5z"/>
	<path d="M890.1,503.8c3.9,2.9,7.9,5.8,11.8,8.7c-0.4,0.7-0.9,1.3-1.3,2c-4.1-2.6-8.3-5.3-12.4-7.9
		C888.8,505.6,889.5,504.7,890.1,503.8z"/>
	<path d="M1094.1,437.8c1.1-2.9,1.6-4.7,2.4-6.3c1.5-3.1,3.1-6.3,4.9-9.2c1.4-2.1,3.2-3.9,4.9-5.9c0.5-0.6,1.7-1.1,1.7-1.7
		c-0.4-6.4,5.6-6.8,8.9-9.7c0.9-0.8,3.3-1.3,4-0.7c1,0.9,1.7,2.9,1.4,4.3c-0.5,2.6-1.5,5.1-2.8,7.4c-4.7,8.1-9.5,16.2-14.5,24.1
		c-0.9,1.5-3.7,3.4-4.4,3C1098.2,442,1096.2,439.6,1094.1,437.8z"/>
	<path d="M1123.4,366.7c-4.2-4.2-3.8-12.4-0.2-14.2c0.5-0.3,3,1.6,2.9,2.2C1125.6,358.5,1124.5,362.1,1123.4,366.7z"/>
	<path d="M1080.6,354.6c-1.5,1.8-2.9,3.6-4.5,5.3c-0.1,0.1-1.8-1.1-1.8-1.1c1.2-2.1,2.4-4,3.7-6
		C1078.9,353.4,1079.8,354,1080.6,354.6z"/>
	<path d="M989.5,350.4c0.2,2.9,0.3,5.9,0.5,9.4c2.7-0.6,5.4-1.2,9-2c-4.1,6-8.3,8-11.2,6C984,361.1,984.2,355.5,989.5,350.4z"/>
	<path d="M181.2,539.1c1-5.3,2.3-7.7,6-9.2c5.1-1.9,9.9-4.7,14.7-7.2c9.3-4.9,19.6-7.6,28.3-14.1c4.5-3.3,11.2-3.7,16.8-5.6
		c1.5-0.5,2.9-1.5,4.2-2.5c2.8-2.1,4.4-5.9,9.3-4.4c1.6,0.5,4.2-2.6,6.4-3.9c0.7-0.4,1.5-0.5,3.1-1.1c-0.9,2.1-1.4,3.4-2.5,5.9
		c6.4-4.9,10.4-12.9,20.7-9.5c-2.6,3.8-4.3,8.4-7.6,10.7c-17.9,12.8-35.7,26.1-58.1,30.5c-6.8,1.3-13.8,1.6-20.6,2.9
		c-3.3,0.6-6.4,2.6-9.6,3.8C189.2,536.8,185.8,537.7,181.2,539.1z M220.8,521.1c0.1,0.2,0.1,0.4,0.2,0.6c3.3-0.4,6.6-0.7,9.9-1.1
		c2.6-2.3,5.3-4.8,8.1-7.2c-0.1-0.2-0.2-0.5-0.4-0.7C232.7,515.5,226.7,518.3,220.8,521.1z"/>
	<path d="M168.8,528.6c1.9-5.8,50.1-38.3,55.1-37.4C205.9,505.2,188.2,518.2,168.8,528.6z"/>
	<path d="M222,501.9c1.2-1.5,2.4-2.9,3.6-4.5c-0.6-0.9-1.3-1.7-1.8-2.4c2.8-3,5.3-6,8.2-8.6c2.2-2,4.5-4.2,7.2-5.2
		c3.4-1.2,7.2-1.2,10.8-1.8c0.1,1.2,0.7,2.9,0.2,3.5c-2.4,2.5-5.1,4.8-7.9,6.8c-6.4,4.6-12.9,8.9-19.3,13.3
		C222.7,502.7,222.4,502.3,222,501.9z"/>
	<path d="M268,472.4c0.5-1.7,0.6-3.8,1.7-5c3.9-4.3,8.2-8.1,12.1-12.4c3.4-3.7,5.2,0.6,7.8,1.2c-0.7,2-0.8,4.6-2.1,5.8
		c-2,1.8-3.8,5.3-7.9,3c-0.8-0.4-3.3,1.8-4.7,3.1c-1.8,1.6-3.4,3.5-5.1,5.2C269.2,473,268.6,472.7,268,472.4z"/>
	<path d="M246.4,449.3c-2.6,1.6-4.4,2.8-6.4,3.8c-0.2,0.1-1.2-1.4-1.9-2.1c1.7-1.3,3.2-2.8,5-3.8
		C243.5,446.9,244.7,448.1,246.4,449.3z"/>
	<path d="M259.4,473.6c-1.6,1.4-3.1,2.8-4.7,4.1c-0.6-0.8-1.8-2.3-1.6-2.4c1.5-1.4,3.1-2.6,4.7-3.8
		C258.3,472.2,258.8,472.9,259.4,473.6z"/>
</g>
</svg>
