<svg xmlns="http://www.w3.org/2000/svg" viewBox="0 0 300 208.008" enable-background="new 0 0 300 208.008"><path d="M274.168 94.429c-2.164 4.927-4.682 9.735-6.394 14.815-1.73 5.133-2.468 10.591-3.993 15.803-1.742 5.951-3.39 12.013-5.985 17.606-2.16 4.655-5.636 8.698-8.51 13.025-.23.347-.317.789-.471 1.187.401.041.811.156 1.202.11 1.218-.144 2.423-.404 3.643-.513.847-.076 1.71.02 2.566.039-.83.238-1.685.413-2.482.733-.613.246-1.154.674-1.727 1.021.407.033.815.059 1.218.118.028.004.082.312.018.389-.609.728-1.118 1.636-1.891 2.108-1.644 1.005-3.449 1.741-5.148 2.661-1.822.987-3.609 2.039-5.372 3.127-.154.095-.152.795.022.971.18.183.678.143 1.003.064.281-.068.503-.353.777-.487.065-.032.238.155.361.242-.192.236-.561.67-.551.679 1.09.969 2.094 2.121 3.352 2.797 2.064 1.11 4.265 1.995 6.478 2.779.53.188 1.332-.398 2.01-.624.15-.05.363-.165.451-.107 3.309 2.193 6.382 4.904 9.955 6.499 6.264 2.797 12.956 4.633 19.227 7.416 3.678 1.632 7.795 3.665 10.007 6.744 1.608 2.237.42 6.484.478 9.835-2.142.009-4.285.075-6.424.018-19.906-.535-39.817-.95-59.709-1.813-2.623-.114-5.117-2.612-7.742-3.854-.497-.235-1.336.243-2.014.403-.104.024-.271.169-.276.162-.273-.375-.658-.729-.763-1.151-.172-.69-.271-1.444-.162-2.133.036-.226.811-.336 1.248-.5-1.038-.111-2.092-.392-3.11-.296-1.884.178-3.744.818-5.619.843-8.727.114-17.457.193-26.183.06-4.518-.069-10.209.996-13.292-1.274-6.021-4.433-9.162.938-13.53 1.947-.65.15-1.284.367-1.932.527-.021.005-.193-.363-.156-.394.694-.594 1.374-1.215 2.128-1.726 1.325-.898 2.625-1.89 4.074-2.528 1.081-.476 2.378-.477 3.585-.647 1.163-.164 2.462.001 3.473-.468 1.583-.735 2.971-1.889 4.452-2.848.163-.105.4-.139.596-.124l.176.4c.404.365.814.729 1.264 1.031.185.125.476.094.718.134-.191.146-.401.273-.569.441-.485.484-.953.985-1.428 1.48l1.487-.707 2.725-1.275c-.823.566-1.706 1.063-2.446 1.722-.486.433-.764 1.098-1.135 1.66.878.151 1.769.474 2.628.402.818-.068 1.607-.535 2.398-.853.397-.16.77-.379 1.154-.571l-1.191-.137-.766-.121c.175-.136.444-.24.502-.415.07-.21-.071-.482-.057-.723.008-.125.181-.234.221-.367.012-.039-.175-.139-.27-.21.074-.088.132-.222.226-.258 2.799-1.055 5.627-2.037 8.389-3.179 1.026-.424 1.823-1.542 2.855-1.782 2.687-.625 5.45-.923 8.177-1.381 2.153-.362 4.295-.784 6.45-1.135.304-.049.649.154.975.241-.307.111-.662.159-.912.346-.691.518-1.337 1.094-2.001 1.647.529-.135 1.111-.169 1.576-.422 1.584-.861 3.126-1.798 4.685-2.706-.061 1.774.859 1.695 2.057 1.088-.669.904-1.341 1.804-2.005 2.712-.223.305-.423.626-.633.94.375.038.868.248 1.107.086 1.626-1.106 3.183-2.314 4.801-3.433.342-.237.843-.246 1.27-.36-.257.744-.482 1.5-.78 2.227-.239.584-.566 1.131-.854 1.695l1.616.427c-.031-.406-.224-1.079-.066-1.175 1.284-.78 2.629-1.998 3.964-2.009 1.456-.012 2.921 1.126 4.38 1.766.054.024.105.085.129.141 1.534 3.468 2.882-.313 4.337-.121.305.04.631-.078.948-.123-.207.281-.355.696-.632.819-1.435.638-2.911 1.185-4.351 1.813-.189.082-.283.442-.356.693-.02.069.199.206.309.312.158-.177.331-.515.471-.502.471.044.971.398 1.387.307 3.937-.864 7.244-2.556 8.154-6.935.061-.292-.875-.917-1.441-1.195-5.795-2.839-11.607-5.642-17.421-8.441-.439-.211-.929-.314-1.395-.468.077.433.303.903.205 1.291-.559 2.208-1.191 4.397-1.825 6.585-.02.07-.332.056-.508.082.054-.452.053-.92.178-1.352.15-.515.539-.986.589-1.499.074-.765-.047-1.55-.11-2.325-.028-.345-.12-.685-.182-1.027.18.151.338.353.544.442.275.118.587.149.884.218-.338-1.232-.586-2.501-1.069-3.673-.138-.335-.959-.387-1.467-.569l.287.993c.022.081.051.228.019.247-.804.482-.713.463-.379 2.278.193 1.049.027 2.164.023 3.249-.236-1.025-.235-2.206-.777-3.03-.507-.77-1.584-1.17-2.421-1.715-.192-.125-.429-.181-.645-.269.177-.341.291-.747.552-1.002.209-.203.597-.222.906-.323-.403-.011-.809-.059-1.209-.026-2.61.214-5.218.462-7.829.669-6.221.492-12.442.983-18.666 1.439-1.713.125-3.447.027-5.15.216-1.178.131-2.32.579-3.478.885 1.106.147 2.215.277 3.318.448.429.067.844.227 1.266.345-.448.134-.903.402-1.344.38-4.891-.24-10.015-1.564-14.607-.522-5.231 1.187-9.987 4.471-14.944 6.855-.079.038-.094.21-.139.32.588-.37 1.163-.762 1.768-1.1.322-.18.696-.265 1.047-.393-.257.24-.509.486-.772.72-2.855 2.539-5.716 5.071-8.555 7.627-.18.162-.192.512-.282.774.256-.085.571-.103.758-.267 2.087-1.832 4.147-3.695 6.239-5.52.22-.192.601-.2.908-.293-.192.287-.336.626-.585.849-.55.492-1.166.91-1.73 1.389-.41.348-.778.745-1.165 1.119.317-.103.633-.213.954-.299.034-.009.165.163.151.182-.146.208-.278.447-.477.593-1.966 1.443-3.938 2.878-5.928 4.288-.154.109-.569.109-.659-.004-.171-.213-.187-.548-.283-.826-.051-.15-.134-.289-.202-.433l-1.5 1.005c.618-.745 1.174-1.556 1.87-2.22.938-.894 2.011-1.646 2.967-2.523.318-.292.455-.783.674-1.183-.449.193-.953.311-1.337.593-.83.608-1.589 1.311-2.395 1.953-.398.317-.834.587-1.253.878.303-.376.614-.746.903-1.132.085-.114.107-.275.159-.415-.189.023-.418-.015-.563.078-4.012 2.571-7.958 5.251-12.044 7.697-2.187 1.31-4.621 2.203-6.929 3.314-16.424 7.909-33.756 2.203-50.63 3.141-18.951 1.054-37.992.487-56.993.54-.109 0-.533-1.381-.286-1.83 3.058-5.577 5.429-11.81 9.591-16.416 3.35-3.709 8.798-5.631 13.503-7.967 2.791-1.385 6.006-3.003 8.928-2.826 7.575.46 12.293-5.265 18.559-7.484 4.743-1.68 9.526-3.261 14.213-5.087 4.598-1.791 9.03-4.021 13.661-5.71 3.377-1.232 6.927-2.063 10.459-2.781 6.818-1.385 13.671-2.607 20.526-3.797 1.711-.297 3.489-.219 5.237-.286.188-.007.383.168.575.259-.171.321-.311.897-.519.923-2.206.275-4.423.452-6.634.688-.242.026-.464.244-.696.373l.666.202.464.185c-.216.198-.405.442-.652.587-2.664 1.566-5.346 3.102-7.986 4.708-.141.086.049.715.085 1.091l1.469-.259c-.266-.117-.551-.206-.788-.366-.086-.058-.059-.284-.084-.434l2.573-.349c-.083.402-.027.95-.271 1.182-1.423 1.355-2.92 2.632-4.379 3.951-.094.085-.132.318-.091.449.062.198.217.367.333.548.146-.113.283-.24.439-.337 3.42-2.141 7.004-4.065 10.214-6.485 2.588-1.952 4.645-4.592 7.087-6.758 2.041-1.81 4.228-3.482 6.489-5.01 1.332-.9 2.956-1.356 4.396-2.112.363-.191.528-.765.753-1.18.008-.015-.309-.283-.496-.315-5.978-1.027-8.182-5.143-9.015-10.622-.338-2.228-1.361-4.347-1.974-6.543-.107-.384.271-.903.425-1.359.248.378.574.726.731 1.139 1.299 3.41 2.356 6.938 3.968 10.191.516 1.042 2.477 1.367 3.777 2.021-.049-.217-.027-.554-.158-.631-.634-.374-1.323-.654-1.965-1.016-.323-.182-.589-.465-.881-.702.406.112.837.171 1.214.346 1.114.517 2.178 1.156 3.322 1.585.441.165 1.047-.107 1.578-.18-.112-.118-.209-.311-.34-.338l-.773-.011c-.39-.086-.764-.244-1.145-.371.392-.048.789-.167 1.174-.134 3.198.273 5.354-.255 4.793-4.395-.646-4.763-.802-9.591-1.192-14.389-.018-.219-.235-.423-.36-.633-.176.184-.491.357-.507.554-.176 2.202-.238 4.414-.472 6.609-.164 1.536-.662 3.039-.783 4.575-.06.755.362 1.564.632 2.325.211.593.525 1.148.792 1.721-.526-.498-1.073-.976-1.576-1.496-2.888-2.985-5.775-5.971-8.623-8.995-.174-.185-.039-.693.003-1.045.283-2.364-.129-5.216 1.071-6.953 1.213-1.756 4.026-2.407 6.138-3.542.024.361-.044.761.09 1.076.288.675.664 1.315 1.043 1.947.068.114.443.198.467.161.354-.548 1.064-1.245.93-1.662-.557-1.727-1.347-3.383-2.183-4.998-.033-.064-1.466.442-2.113.881-1.159.786-2.215 1.723-3.314 2.597.008-1.158.022-2.316.02-3.475 0-.227-.059-.453-.091-.68-.082.184-.153.374-.249.551-.075.139-.179.262-.27.392-.061-.191-.187-.387-.174-.573.11-1.634.291-3.266.337-4.901.011-.376-.414-.765-.638-1.148-.242.432-.649.846-.7 1.3-.637 5.672-1.222 11.351-1.82 17.027-.255-.044-.61.003-.746-.148-.373-.414-.892-.891-.932-1.377-.247-3.01-.446-6.028-.515-9.047-.028-1.205.331-2.417.479-3.63.05-.413-.005-.839-.011-1.259-.197.114-.383.263-.595.327-.105.032-.376-.124-.371-.141.082-.304.173-.612.318-.889.034-.065.292-.072.411-.022.383.161.75.361 1.123.545-.289-.304-.592-.595-.862-.915-.199-.235-.559-.637-.493-.742.356-.567.822-1.064 1.25-1.585.081.253.147.513.253.756.029.066.233.137.26.109.245-.244.481-.501.681-.781.021-.029-.182-.296-.32-.347-.488-.179-.993-.312-1.492-.462.359-.593.713-1.189 1.08-1.777.125-.201.374-.377.389-.578.009-.125-.384-.431-.48-.389-3.651 1.588-1.985-2.112-3.058-3.072-.206-.184-.356-.431-.531-.649-.106.275-.324.56-.3.824.214 2.348.701 4.696.66 7.036-.062 3.561-.845 7.136-.643 10.666.191 3.34 1.26 6.63 1.931 9.945.1.492.145.996.181 1.497.003.041-.354.178-.387.139-.277-.333-.54-.684-.767-1.054-4.762-7.757-.728-16.135-1.662-24.173-.394-3.394-.295-6.863-.158-10.287.034-.845 1.019-1.726 1.732-2.421.187-.182.992.271 1.513.432-.521.907-1.193 1.763-1.52 2.736-.356 1.057-.39 2.222-.564 3.34.896-.638 1.708-1.497 2.703-1.871 2.94-1.106 6.035-1.841 8.866-3.16.559-.26.266-2.479.225-3.79-.008-.271-.626-.55-.994-.771l-.594-.105c-.168-.402-.385-.864-.327-1.267.439-3.065.881-6.131 1.432-9.177 1.054-5.83 1.858-11.731 3.344-17.453 3.039-11.7 8.915-21.946 17.958-29.982 2.672-2.375 6.822-3.059 10.232-4.653.702-.328 1.066-1.319 1.688-1.895.855-.791 1.717-1.653 2.736-2.17 1.578-.8 3.399-1.145 4.927-2.016 4.883-2.784 9.95-3.725 15.605-3.056 9.351 1.107 18.755 1.837 28.155 2.418 3.723.23 7.692-1.203 11.202-.385 5.194 1.21 10.045 3.839 15.106 5.691 2.932 1.073 6.205 1.388 8.931 2.802 3.174 1.647 5.924 4.117 8.846 6.244.557.405 1.064.88 1.594 1.323-.38-.826-.79-1.641-1.132-2.483-.306-.752-.537-1.535-.801-2.304.806.175 2.065.089 2.343.569 1.452 2.514 2.68 5.16 3.929 7.787.409.859.646 1.8.962 2.703.359-.587.711-1.178 1.088-1.754.042-.063.224-.035.34-.049-.109.61-.379 1.245-.29 1.825.127.833.5 1.632.801 2.434.075.201.375.342.399.532.096.763.123 1.534.189 2.301.001.009.254.014.255.003.115-.905.124-1.835.342-2.713.277-1.116.714-2.194 1.113-3.277.03-.082.299-.077.456-.113-.035.201-.107.404-.098.603.026.552.085 1.102.132 1.653.259-.236.502-.493.782-.699.133-.097.45-.179.487-.128.112.159.156.381.18.585.227 1.876.44 3.754.672 5.63.012.097.15.178.229.267l.115-.233c.273-.876.543-1.753.813-2.63.343 1.163 1.017 2.34.973 3.488-.196 5.037-.352 10.098-.984 15.092-1.049 8.288-2.131 16.598-3.84 24.765-.875 4.18-3.184 8.052-4.699 12.118-.152.408.713 1.195 1.106 1.806-.041-.377-.136-.759-.101-1.129.018-.184.275-.345.423-.516.163.171.442.326.468.516.158 1.149.258 2.305.378 3.459l1.101.486zm-112.636-33.269l-2.564 2.329c.205.129.581.386.592.37.668-.893 1.306-1.809 1.947-2.724l2.653-1.783-.542-.667c1.241-.658 2.494-1.296 3.702-2.009.107-.063-.078-.621-.128-.949-.785.547-1.598 1.059-2.343 1.655-.459.367-.816.862-1.215 1.299l-2.102 2.479zm-11.904 61.305c-.528-.575-1.04-1.167-1.611-1.695-.055-.05-.722.361-.698.46.17.705.407 1.404.714 2.062.086.185.48.226.732.333-.037-.168-.035-.358-.118-.499-.254-.434-.541-.848-.815-1.27l1.821.634c.051.589-.06 1.27.205 1.739.213.378.88.499 1.346.734-.18-.261-.372-.515-.539-.784-.351-.568-.691-1.143-1.037-1.714zm85.93 60.896c.266-.457.556-.905.757-1.389.018-.045-.631-.533-.797-.453-.366.176-.659.555-.918.899-1.788 2.377-3.543 4.779-5.358 7.135-.189.246-.697.245-1.058.359.242-.263.471-.54.729-.786.576-.55 1.167-1.086 1.752-1.627-.201.003-.417-.042-.6.017-1.621.523-3.238 1.057-4.851 1.606-.325.111-.623.298-.934.451.296.159.586.334.891.476.946.441 1.897.869 2.846 1.302.106.048.286.159.31.131 2.426-2.71 4.841-5.43 7.256-8.15l-.025.029zm4.179-146.848c-1.647.31-3.294.619-4.933.923-.848-1.175-1.692-2.353-2.556-3.517-.028-.037-.29.032-.367.119l-.018.367c-.24.628-.503 1.247-.75 1.872-.415 1.053-.825 2.108-1.236 3.163.695-.466 1.337-1.065 2.098-1.363.894-.351 1.891-.441 2.843-.644-1.31 1.22-2.733 2.342-3.895 3.689-.959 1.112-1.609 2.49-2.396 3.75.91-.645 1.799-1.321 2.735-1.926 1.183-.764 2.485-1.365 3.588-2.226 1.696-1.324 3.267-2.809 4.891-4.215l.246 1.533.831-1.32-1.081-.205zm-86.64 118.378c3.961 1.479 3.641-1.533 3.06-3.465-.321-1.066-2.485-1.542-3.762-2.371-.678-.44-1.237-1.065-1.85-1.607.678.954 1.354 1.909 2.035 2.861l.492.644c-.244-.122-.571-.18-.719-.375-2.288-3.017-4.553-6.051-6.824-9.081l-.334-.439c-.047.199-.204.49-.126.583 3.018 3.594 6.053 7.175 9.107 10.739.207.241.573.347.865.515-.061.1-.135.291-.18.284-.34-.053-.765-.039-.997-.239-1.958-1.686-3.88-3.416-5.818-5.126-.2-.177-.436-.312-.655-.467.076.25.087.551.238.741 1.819 2.285 3.658 4.553 5.493 6.825-.208-.091-.414-.249-.624-.253-.239-.005-.481.128-.722.202 1.073 1.095 2.138 2.198 3.233 3.27.087.085.528.009.555-.074.291-.892.532-1.799.786-2.703l-.237-.061-3.016-.403zm45.212-3.153l.001-.005c1.895.127 3.79.283 5.687.369 1.17.053 2.346-.004 3.519-.012-.688.393-1.383.774-2.056 1.192-.081.05-.039.296-.054.451 1.834-1.114 3.684-2.205 5.429-3.443.059-.042-.875-1.61-1.459-2.381-.295-.389-.811-.674-1.285-.851-2.2-.818-4.391-1.687-6.644-2.329-1.703-.485-4.774-.234-5.036-1.032-1.433-4.367-3.824-1.084-5.704-.984-.618.033-1.194.864-1.789 1.33.237.013.478.06.71.033 1.151-.136 2.299-.291 3.449-.44-.947.754-1.824 1.631-2.86 2.231-1.262.73-2.666 1.21-3.989 1.84-.2.095-.294.415-.436.63.239-.014.496.025.713-.052.937-.332 1.862-.697 2.792-1.051-.946.533-1.912 1.035-2.831 1.612-.444.279-.801.698-1.197 1.054.339.036.726.199 1.008.09 2.707-1.049 5.394-2.148 8.091-3.224.554-.221 1.123-.408 1.684-.611l-1.462 1.071-1.811 1.299c.485-.063 1.011-.028 1.448-.208.95-.392 1.855-.894 2.779-1.352-.939.589-1.894 1.155-2.81 1.779-.417.284-.755.682-1.13 1.029.177.034.388.149.525.09 1.69-.726 3.363-1.492 5.057-2.208.32-.135.713-.097 1.072-.139-.245.207-.467.45-.737.615l-5.27 3.175c-.117.071-.164.256-.243.388.123.042.267.149.367.117 1.615-.516 3.226-1.043 4.833-1.583.684-.23 1.356-.497 2.034-.747-.685.426-1.359.872-2.059 1.273-.835.479-1.691.919-2.533 1.386l.091.213c.702-.194 1.404-.405 2.106-.615zm-33.384-83.451l-.09-.57c-1.19.43-2.407.799-3.558 1.316-.606.272-1.097.802-1.64 1.216.675-.28 1.342-.584 2.028-.835 1.085-.397 2.182-.759 3.274-1.136-.07.62.033 1.333-.241 1.844-.965 1.8-2.011 3.561-3.134 5.266-.317.481-1.005.718-1.522 1.067.358.455 1.12 1.072 1.013 1.34-1.02 2.541-2.029 5.113-3.394 7.473-.505.874-2.158 1.015-2.902 1.838-.926 1.025-1.453 2.41-2.153 3.639l.168.083.911 1.019c-.541.457-1.053.957-1.636 1.351-.282.191-.698.184-1.054.267l1.108.027 1.039-.006c-.243.294-.581.551-.708.888-.245.653-.371 1.351-.547 2.03.537-.001 1.075-.027 1.61.006.378.023.751.127 1.126.195-.302.263-.564.611-.912.775-1.804.848-3.653 1.604-5.435 2.496-.499.25-.919.805-1.176 1.32-.11.221.288.696.455 1.055l.938-.693c-.208.35-.447.687-.62 1.054-.522 1.107-1.02 2.225-1.527 3.339.74-.815 1.452-1.657 2.226-2.438.765-.773 1.585-1.492 2.398-2.215.125-.111.349-.163.519-.147.075.007.22.306.176.382-1.138 1.983-2.317 3.942-3.441 5.932-.458.811-.804 1.685-1.201 2.53.225-.056.533-.042.652-.185.139-.168.025-.591.171-.7 1.831-1.357 3.682-2.688 5.551-3.991.251-.175.631-.164.951-.239-.003.179.063.4-.018.532-1.333 2.177-2.701 4.333-4.01 6.525-.159.267-.022.71-.022 1.072l.769-.726c.476-.454.909-.967 1.438-1.347.394-.284.901-.428 1.376-.58.937-.301 1.886-.564 2.83-.843-.628.524-1.267 1.035-1.88 1.576-1.111.981-2.39 1.849-3.226 3.029-.378.533.138 1.699.249 2.579.297-.137.635-.223.883-.421.992-.791 1.956-1.617 2.93-2.43-.835.866-1.673 1.73-2.502 2.602-.11.116-.242.264-.253.406-.014.173.089.356.141.535.652-.21 1.322-.377 1.944-.654.198-.088.266-.468.393-.715-.148.006-.34-.045-.436.029-.449.342-.871.719-1.303 1.083.428-.549.789-1.175 1.301-1.631.854-.762 1.805-1.415 2.715-2.114-.411.818-.779 1.661-1.245 2.445-.452.759-1.006 1.457-1.515 2.182.545-.126 1.089-.26 1.64-.35.022-.004.112.406.171.624-.879.121-1.857.05-2.603.431-.499.255-.668 1.154-.984 1.765.505.212 1.195.742 1.48.576.824-.48 1.455-1.277 2.219-1.876.483-.379 1.07-.626 1.61-.932-.12 1.191-.234 2.384-.378 3.572-.008.067-.259.137-.401.149-.413.033-.829.036-1.244.051.432.148.854.372 1.298.429.892.114 1.799.104 2.692.214.349.043.675.269 1.012.411-.361.121-.725.354-1.083.345-1.622-.041-3.245-.231-4.862-.189-.51.013-1.011.576-1.494.917-.022.016.131.446.263.487 1.476.459 2.967.871 4.448 1.318.329.099.632.282.947.426-.33.044-.659.115-.99.126-.524.017-1.05-.006-1.575-.013.441.181.891.343 1.317.554.137.068.209.266.311.405-.184.023-.377.095-.551.061-1.399-.27-2.795-.554-4.19-.847-.454-.095-.899-.226-1.349-.341.367.64.715 1.293 1.122 1.907.069.104.423-.023.595.06 1.706.821 3.402 1.663 5.1 2.5-.656.03-1.477.328-1.941.043-2.17-1.328-4.277-2.768-6.328-4.276-.738-.543-1.237-1.404-1.886-2.08-.105-.109-.451-.066-.638.016-.103.045-.179.338-.138.483.074.264.243.502.372.751l-.827-.546-.968-.67c.166.387.257.837.515 1.149.493.598 1.139 1.073 1.611 1.684.363.47.56 1.07.819 1.618l-.183.121c-.37-.418-.679-.906-1.102-1.257-1.024-.851-2.101-1.638-3.157-2.451.39 3.207.551 6.469 1.295 9.592.256 1.072 1.971 1.795 3.019 2.678l-3.94-2.745-.073-.065-.943-.753c.072.553-.037 1.24.253 1.631.627.843 1.423 1.574 2.214 2.279 1.302 1.16 2.654 2.262 3.985 3.388-1.487-1.06-2.972-2.122-4.463-3.176-.147-.104-.327-.163-.492-.242-.029.116-.123.29-.079.341 2.422 2.717 4.856 5.424 7.289 8.131.315-.611.493-1.385.978-1.794.722-.607 1.662-.955 2.509-1.414.355 1.187.709 2.374 1.067 3.56.25.829.506 1.656.772 2.479.007.021.191-.043.237-.003 1.087.953 2.174 1.906 3.234 2.888.09.084-.008.371-.019.564-.675-.605-1.341-1.22-2.029-1.809-.41-.351-.855-.661-1.284-.99-.093.127-.294.293-.264.375.918 2.527 1.803 5.069 2.834 7.551.264.635.999 1.074 1.518 1.604-.565-.22-1.126-.454-1.701-.645-.091-.03-.318.103-.36.209-.224.572-.409 1.159-.607 1.741.107-.784.492-1.668.255-2.328-.355-.988-1.142-1.823-1.763-2.71-.038-.054-.232.003-.354.008.102.81-.017 1.742.352 2.403.743 1.329 1.531 2.806 2.704 3.677 1.579 1.172 3.488 1.968 5.353 2.662 1.379.513 2.914.606 4.38.886-.97.08-1.938.183-2.91.225-.271.012-.564-.26-.822-.225-1.284.176-2.56.412-3.838.627 1.198.471 2.398.938 3.593 1.415.242.096.47.229.704.345-.137.058-.269.144-.411.167-.284.046-.574.058-.862.084.288.182.553.446.867.532 1.036.284 2.089.503 3.136.748-1.194-.196-2.389-.391-3.583-.591-.095-.016-.189-.052-.276-.094-.493-.236-.967-.536-1.484-.681-.17-.048-.451.302-.682.469.757.222 1.515.439 2.27.669.651.199 1.298.413 1.947.62-.684-.048-1.369-.129-2.053-.133-.611-.004-1.223.076-1.835.119.492.285 1 .839 1.475.812 4.202-.244 8.402-.551 12.594-.931 1.341-.121 2.661-.5 3.979-.81.133-.031.198-.394.275-.609.738-2.068 1.463-4.141 2.218-6.203.097-.265.349-.474.53-.709-.292-.008-.675-.14-.863-.004-2.951 2.133-5.875 4.305-8.816 6.452-.187.137-.468.189-.708.197-.297.01-.596-.068-.895-.108-.019.187.027.421-.069.551-.272.367-.588.949-.914.968-.415.024-.858-.421-1.288-.664l.368-.477c.357-.498.677-1.027 1.075-1.488.314-.363.682-.77 1.107-.911.226-.075.673.333.925.61.117.128.006.464-.002.706.197-.068.471-.078.573-.216.209-.281.427-.62.461-.953.099-.978.111-1.965.156-2.949.056-1.227.155-2.455.134-3.681-.005-.301-.585-.863-.601-.852-1.081.713-2.199 1.396-3.152 2.261-.433.393-.5 1.17-.805 1.734-.09.167-.424.203-.646.299.333-.847.625-1.713 1.009-2.537.461-.988 1-1.941 1.505-2.908-.711.943-1.475 1.852-2.115 2.84-.541.835-.939 1.762-1.4 2.649-.445-.682-1.177-1.332-1.256-2.054-.088-.799.609-1.659.63-2.501.032-1.275-.049-2.607-.397-3.824-.66-2.307-1.912-4.516-2.135-6.84-.078-.811 2.568-2.852 3.245-2.573 1.592.656 2.678 2.463 4.143 3.574.259.197 1.363-.72 2.076-1.123-.516-.167-1.076-.258-1.535-.525-.367-.213-.611-.64-.909-.971.315.118.624.316.946.338.871.06 1.747.046 2.621.05l.057-.202c-.588-.137-1.188-.238-1.76-.425-.289-.095-.538-.333-.777-.539-.047-.04.033-.229.055-.349.278.095.55.241.835.276 1.017.127 2.039.216 3.058.319l.02-.234c-.666-.185-1.356-.306-1.999-.55-.428-.162-.79-.499-1.182-.757.452.052.904.121 1.358.153.96.067 1.921.114 2.881.17-.105-.203-.176-.553-.321-.587-1.002-.237-2.021-.399-3.031-.607-.239-.049-.64-.162-.656-.285-.04-.309.056-.662.197-.949.032-.066.46.061.705.098 1.592.235 3.185.64 4.775.626.697-.006 1.387-.866 2.08-1.339-.319-.091-.633-.223-.959-.267-2.55-.349-5.106-.659-7.65-1.048-.292-.045-.523-.497-.782-.76.175-.051.361-.172.522-.144 3.377.589 6.75 1.203 10.129 1.781.269.046.578-.137.868-.213-.263-.161-.508-.411-.791-.467-1.558-.309-3.13-.548-4.685-.87-.256-.053-.452-.394-.675-.602.192-.052.406-.188.572-.144 5.14 1.353 9.284.101 12.56-4.287.667-.893 2.473-.922 3.738-1.393.319-.119.577-.403.862-.612l-1.152-1.186c1-.336 2.08-1.102 2.984-.931 3.046.575 6.036 1.457 9.024 2.306.262.075.35.763.519 1.167-.43.05-.935.269-1.274.117-.811-.363-1.544-.9-2.308-1.367.491.417.993.823 1.465 1.26.084.078.05.282.071.428l-.714-.109-5.675-.849-.356-.084.271-.484.276-.566-1.529.301c.035.103.122.22.098.306-.324 1.132-.629 2.272-1.013 3.384-.26.752-1.081 1.656-.866 2.149.38.871 1.282 1.981 2.102 2.107 2.443.374 4.975.15 7.426.492 1.626.227 3.421.698 4.687 1.657 1.335 1.012 2.126 2.739 3.17 4.143.155.209.395.354.596.529.007-.243.07-.5.011-.725-.177-.68-.401-1.349-.607-2.021.397.613.774 1.242 1.226 1.813.04.051.55-.379.859-.409.785-.076 1.73.22 2.343-.119 2.059-1.139 4.322-3.879 5.931-3.508 5.646 1.303.132-2.871 1.818-3.258.091-.021.088-.742.016-1.116-.092-.474-.299-.926-.456-1.388-.171.377-.334.757-.516 1.128-.102.208-.237.4-.357.6-.069-.245-.23-.505-.193-.733.983-5.95 2.012-11.892 2.954-17.848.125-.791-.176-1.65-.28-2.477-.111.209-.273.407-.322.63-.138.626-.228 1.262-.337 1.894-.032-.717-.098-1.434-.085-2.15.013-.706.35-1.499.128-2.1-1.701-4.602 6.664-7.569 2.022-12.653-.507-.555-.846-1.607-.723-2.338 1.019-6.043-1.719-2.763-3.444-1.359-2.148 1.748-4.854 3.349-5.972 5.664-1.007 2.084-.178 5.046-.203 7.621-.005.46-.226.918-.348 1.377l-.953-1.284c-.29-.387-.573-.78-.884-1.15l-.387-.209c-.473-.759-.901-1.547-1.395-2.291-.079-.118-.486-.168-.62-.074-.556.39-1.065.846-1.592 1.278.096.058.252.095.279.177.224.656.807 1.663.57 1.927-1.838 2.054-3.804 3.997-5.801 5.901-.619.59-1.564.848-2.149 1.46l-.222 1.592c-2.212 1.878-4.706 3.454-6.757 5.484-4.198 4.153-9.108 6.098-14.97 5.63-.395-.032-.759-.46-1.138-.705.457-.057.964-.004 1.361-.187 2.594-1.197 5.166-2.444 7.738-3.689.059-.029.039-.221.056-.337-.187-.005-.376-.027-.562-.013-2.002.148-4.003.325-6.008.431-.294.016-.614-.281-.901-.464-.05-.032.001-.224.005-.341.291.067.581.188.873.192 1.123.016 2.246-.005 3.369-.02l.04-.151c-.96-.165-1.921-.322-2.879-.498-.368-.068-.729-.172-1.086-.283l.041-.348c.289.066.578.185.867.185.346 0 .693-.098 1.036-.171.022-.005.027-.229.016-.232l-.933-.162c-2.453-.498-4.909-.988-7.354-1.524-.225-.049-.383-.404-.573-.617.291-.025.603-.131.871-.064 3.256.825 6.506 1.676 9.764 2.497.029.007.157-.458.211-.452.467.052.927.162 1.389.254l.268-1.348c1.03.33 2.097 1.001 3.079.892.926-.102 1.904-.896 2.573-1.642.303-.338.051-1.361-.221-1.947-.135-.29-.889-.418-1.357-.405-1.853.051-3.705.182-5.556.296-.49.03-.978.105-1.467.16.413.229.831.45 1.238.69.204.121.389.275.583.414-.271.007-.576.099-.808.007-1.686-.666-3.347-1.398-5.039-2.047-.865-.332-1.89-.367-2.635-.854-.499-.326-.632-1.211-.929-1.846-.464.349-.925.702-1.394 1.044-.192.14-.401.258-.602.386.034-.265.128-.54.09-.794-.107-.704-.269-1.401-.409-2.1l-1.277.781-1.171.721c.284-.447.712-.863.819-1.349.165-.758.112-1.564.152-2.349-.515.173-1.057.291-1.539.53-.907.448-1.773.978-2.677 1.432-.092.046-.328-.195-.497-.303.822-.834 1.565-1.774 2.494-2.463.584-.433 1.454-.468 2.18-.726.236-.084.424-.305.633-.463-.257-.014-.528-.088-.769-.032-2.002.466-3.997.96-5.998 1.431-.13.031-.29-.067-.436-.104.061-.172.096-.479.188-.498 2.48-.491 4.965-.963 7.455-1.403.238-.042.517.146.777.227l-.474-.676-.458-.61c.254.086.522.146.76.266.285.144.543.339.813.512-.13-.206-.278-.403-.379-.623-.037-.081.039-.214.064-.323.823.416 1.65.826 2.465 1.257.083.044.103.209.152.318-.203-.022-.421-.103-.607-.056-.99.248-1.972.528-2.957.798.355.483.616 1.248 1.081 1.404 3.092 1.037 6.209 2.01 9.361 2.844.719.19 1.608-.235 2.412-.41.191-.041.35-.304.529-.311 1.384-.056 2.777.003 4.152-.132.812-.08 1.595-.449 2.39-.688-.651-.125-1.301-.345-1.954-.352-.829-.009-1.7.357-2.484.207-2.827-.542-5.746-.927-8.396-1.968-1.991-.782-3.502-2.733-5.466-3.658-.943-.444-2.441.259-3.68.485-2.519.458-5.038.926-7.546 1.438-.461.094-.875.418-1.311.636.261-.455.43-1.016.804-1.341.686-.596 1.492-1.053 2.248-1.568-1.077.206-2.151.425-3.231.608-.283.048-.584-.014-.877-.025.099-.306.188-.875.299-.879 1.534-.06 3.073.016 4.605-.063 1.407-.072 2.807-.292 4.21-.446-.814-.302-1.96-.368-2.376-.954-1.006-1.416-1.686-3.067-2.447-4.647-.067-.14.229-.455.357-.688-.211.2-.428.393-.632.6-.581.588-1.148 1.189-1.74 1.765-.174.169-.414.271-.624.404.011-.351-.115-.796.053-1.038 1.797-2.587 3.602-5.171 5.505-7.68.376-.495 1.179-.666 1.785-.986-.34.596-.676 1.194-1.02 1.788-.194.335-.397.664-.6.993l-1.751 2.814c.745-.912 1.394-1.929 2.258-2.709 1.208-1.091 2.573-2.009 3.883-2.985.138-.103.382-.053.537-.143 2.413-1.4 4.835-2.785 7.217-4.238.613-.374 1.093-.966 1.634-1.459-.471.052-.947.16-1.411.123-.137-.011-.302-.416-.347-.661-.051-.277.018-.577.034-.866-.382.148-.757.321-1.148.44-1.442.44-2.877.92-4.344 1.257-.445.102-1.1-.454-1.462-.286-2.339 1.086-4.621 2.291-6.926 3.449-.236.119-.564.329-.731.249-.253-.122-.563-.467-.552-.704.012-.25.351-.507.589-.712.102-.088.311-.052.471-.073l-.09-.475c-.329.11-.801.119-.963.348-.801 1.133-1.436 2.391-2.292 3.477-.962 1.22-2.1 2.3-3.151 3.45-.07.076-.048.236-.069.357l.249-.001 1.042-.097c-.349.982-.67 1.975-1.07 2.935-.078.188-.464.247-.708.365-.29-.821-1.073-1.935-.788-2.413 1.539-2.582 3.337-5.01 5.06-7.482.484-.694 1.015-1.355 1.524-2.032l-.285-.174c-1.348 1.527-2.687 3.061-4.014 4.606l-.362.621c-.458-.097-1.172-.183-1.284-.473-.237-.613-.157-1.349-.206-2.034-.386.904-.775 1.807-1.157 2.712-.182.431-.341.872-.544 1.292-.012.025-.474-.12-.47-.14.076-.421.171-.842.297-1.252.3-.98.618-1.955.928-2.932-.242-.001-.513-.074-.718.011-.429.177-.833.423-1.22.681-.062.041.03.296.033.452l.016 1.372c-.293-.532-.825-1.059-.834-1.596-.027-1.62.066-3.255.281-4.862.1-.747.652-1.421.888-2.163 1.045-3.286 1.452-6.965 3.233-9.777 1.922-3.035 5.113-5.267 7.769-7.831.138-.133.445-.09.673-.129-.091.271-.113.6-.283.805-3.153 3.798-6.34 7.568-9.452 11.399-.2.246.151.941.256 1.425.001.003.205-.003.221-.043.158-.393.33-.786.428-1.195.062-.259-.114-.665.021-.802 3.52-3.554 7.051-7.098 10.634-10.59.377-.367 1.082-.397 1.635-.584-.396.462-.775.941-1.191 1.384-3.531 3.768-7.078 7.523-10.586 11.312-.239.258-.204.769-.297 1.162.269-.258.579-.485.802-.778 1.558-2.048 3.087-4.117 4.653-6.158.27-.353.67-.606 1.01-.905-.226.394-.502.769-.666 1.187-.21.536-.33 1.108-.489 1.664.341-.28.691-.55 1.022-.842.801-.704 1.593-1.418 2.389-2.129-.632.818-1.285 1.622-1.886 2.463-.213.298-.296.688-.439 1.035.401-.095.818-.15 1.199-.298.328-.127.614-.36.919-.546-.195.337-.384.677-.586 1.009-.319.525-.646 1.045-.969 1.567.519-.29 1.074-.531 1.55-.88 3.124-2.291 6.203-4.645 9.369-6.876.54-.38 1.429-.265 2.157-.378-.229.266-.415.592-.692.789-4.151 2.944-8.322 5.86-12.451 8.833-.197.142-.111.764-.033 1.137.019.09.601.201.809.089 1.785-.961 3.538-1.983 5.318-2.954.268-.146.63-.119.948-.172-.214.197-.411.416-.644.585-.57.415-1.166.794-1.729 1.219-.11.083-.115.305-.168.462 1.376-.375 2.848-.554 4.102-1.175 1.555-.77 2.841-2.092 4.407-2.825 1.28-.598 2.799-.686 4.219-.966.032-.006.241.557.205.578-2.498 1.463-5.021 2.883-7.513 4.357-.268.158-.357.619-.529.939.345.004.72.101 1.028-.003 1.319-.443 2.613-1.332 3.927-1.351 3.746-.056 7.499.203 11.244.416.661.038 1.3.458 1.949.701-.626.055-1.26.061-1.875.176-.922.172-1.829.42-2.742.636.778-.003 1.557.003 2.335-.01 1.134-.018 2.27-.1 3.4-.049.424.019.834.336 1.251.517-.41.091-.816.226-1.231.266-1.343.13-2.69.225-4.035.333.493.224 1.009.409 1.475.679 2.001 1.159 3.879 2.636 6.012 3.431 1.894.706 4.093.547 6.108.992 1.429.316 2.741 1.205 4.172 1.454 1.057.184 2.222-.388 3.338-.383 1.725.007 3.449.24 5.175.331.687.036 1.38-.051 2.07-.082-.121.49-.37.988-.336 1.467.063.898.289 1.784.447 2.674.687-1.029 1.429-2.029 2.007-3.116.101-.189-.486-.749-.764-1.131-.091-.125-.193-.27-.325-.333-.175-.083-.383-.095-.577-.138l4.854-5.151c.137.187.283.368.409.562.387.6.767 1.205 1.149 1.808.193-.391.456-.764.564-1.177.205-.788.322-1.599.476-2.4.26.968.596 1.923.755 2.907.123.758.024 1.553.023 2.331.65-.597 1.295-1.199 1.951-1.788.392-.352.802-.683 1.204-1.024-.158.39-.367.767-.459 1.172-.106.468-.108.96-.156 1.441.123-.05.293-.065.362-.157.482-.639.944-1.294 1.412-1.944.032.676.045 1.354.108 2.028.018.192.161.385.282.553.285.395.623.755.879 1.167.16.257.197.588.314.876.169.416.36.823.542 1.235l1.261-.745c-.349.482-.702.962-1.046 1.448-.085.12-.138.262-.206.393l.257.059c.731.282 1.77.368 2.115.902.467.721.4 1.787.563 2.705 1.721-.499 3.42-1.1 5.168-1.469 1.889-.399 3.877-.393 5.719-.922 1.285-.369 2.397-1.34 3.578-2.054.01-.006-.073-.27-.138-.283-2.212-.438-4.432-.842-6.641-1.295-.646-.133-1.264-.399-1.895-.604.471-.046.942-.088 1.411-.145.065-.008.178-.126.175-.132-.17-.263-.376-.506-.525-.78-.524-.96-1.607-2.08-1.404-2.86.294-1.131 1.577-1.98 2.334-3.024.546-.752.923-1.627 1.375-2.447-.196-.045-.396-.142-.588-.128-2.511.186-5.054.74-7.525.509-4.766-.444-9.472-1.569-14.24-1.964-4.875-.404-9.833.08-14.686-.451-8.959-.981-17.867-2.416-26.793-3.687-.166-.024-.43-.508-.408-.529 1.374-1.332 2.806-3.766 4.162-3.726 3.411.102 6.754 1.672 10.188 2.022 7.893.804 15.824 1.232 23.74 1.809.326.024.655.004.982.005-.001.184.047.507-.012.529-.347.124-.72.171-1.082.256-.324.076-.644.168-.966.252.317.064.658.234.948.172 1.146-.244 2.36-.986 3.398-.78 5.803 1.151 11.563 2.519 17.335 3.828.483.11.943.325 1.413.492-.406.104-.816.198-1.218.317-.104.031-.186.139-.277.212.148.084.32.266.44.237 2.893-.712 5.783-1.436 8.662-2.202.181-.048.264-.463.393-.708-.252.077-.508.141-.755.232-.413.152-.821.322-1.23.484.262-.315.629-.594.753-.955.106-.308-.049-.717-.128-1.072-.028-.127-.265-.31-.249-.328.144-.162.304-.329.494-.428 1.784-.935 3.617-1.785 5.339-2.822.625-.376.989-1.188 1.456-1.812.015-.02-.14-.166-.215-.253-.562.544-1.047 1.22-1.702 1.604-1.335.783-2.759 1.414-4.157 2.085-.079.038-.256-.127-.388-.198.725-.408 1.446-.823 2.176-1.221.197-.107.466-.113.628-.251.977-.834 1.933-1.693 2.896-2.544-.875.45-1.729.948-2.629 1.338-1.243.539-2.522.997-3.785 1.49.546-.711 1.039-1.474 1.663-2.108.286-.291.83-.329 1.256-.482-.422-.066-.847-.119-1.266-.2-1.216-.234-2.44-.439-3.639-.743-.335-.085-.683-.425-.852-.741-.109-.203-.008-.716.175-.85 1.696-1.241 3.445-2.411 5.136-3.659.2-.148.148-.639.212-.971l-.987.517-1.142.642c.046-.225.023-.505.15-.667 2.257-2.874 4.521-5.742 6.819-8.582.23-.284.691-.381 1.046-.565-.095.329-.103.726-.299.976l-4.519 5.659c-.213.271-.253.677-.373 1.02.262-.127.592-.192.775-.391 1.311-1.434 2.559-2.927 3.899-4.333.472-.495 1.147-.798 1.729-1.188.007.167.086.386.01.493-.589.823-1.187 1.642-1.826 2.426-.484.595-1.086 1.098-1.535 1.715-.291.4-.4.932-.591 1.405.499-.351 1.058-.643 1.483-1.067.561-.561.951-1.301 1.54-1.824.563-.5 1.286-.819 1.939-1.218-.179.384-.288.828-.549 1.144-1.868 2.256-3.779 4.477-5.644 6.735-.206.249-.211.663-.31 1.001.368-.152.852-.203 1.084-.471 1.316-1.52 2.524-3.135 3.874-4.621.459-.505 1.227-.729 1.853-1.081-.334.528-.721 1.03-.99 1.59-.404.84-.726 1.72-1.083 2.583.638-.559 1.261-1.137 1.922-1.668.271-.218.624-.335.939-.497l-.287.7-.979 2.263c.337-.313.66-.642 1.018-.928.094-.075.419-.048.426-.016.1.414.13.846.241 1.257.191.712.426 1.412.642 2.117.106-.066.302-.128.304-.198.027-.768.089-1.544.018-2.306-.292-3.142-.364-6.338-1.04-9.399-.43-1.945-1.781-3.687-2.718-5.52-.871.567-1.756 1.114-2.604 1.713-.216.153-.324.466-.454.719-.012.024.231.229.251.213.272-.211.527-.443.783-.674l.64-.594c.001.354.152.826-.02 1.044-2.117 2.684-4.276 5.335-6.446 7.976-.126.153-.447.145-.678.212.092-.186.154-.396.28-.555 1.528-1.919 3.071-3.826 4.59-5.751.164-.208.203-.514.299-.774-.303.128-.699.174-.894.396-1.548 1.761-3.051 3.56-4.587 5.332-.164.189-.449.272-.678.404.109-.276.157-.603.338-.82 1.259-1.514 2.554-2.997 3.811-4.513.138-.166.106-.472.152-.714-.305.055-.717.003-.898.183l-2.508 2.667c-.444.439-1.011.754-1.522 1.125.37-.47.729-.95 1.113-1.408.592-.707 1.201-1.398 1.803-2.096-.767.411-1.53.829-2.303 1.227-.122.063-.288.039-.434.055.037-.138.029-.322.118-.406.881-.839 1.788-1.65 2.656-2.5.116-.114.15-.466.06-.592-.088-.123-.456-.206-.577-.123-5.419 3.693-10.824 7.405-16.225 11.125-.149.103-.221.317-.329.48-.692-.461-1.595-.777-2.031-1.413-.775-1.131-1.011-2.746-1.97-3.597-.628-.557-2.143-.037-3.241-.167-.817-.097-1.617-.426-2.384-.749-.112-.047-.078-.66.03-.959.146-.403.429-.755.654-1.129-.339.229-.658.495-1.019.679-1.328.677-2.66 1.349-4.019 1.961-.173.078-.706-.17-.74-.335-.248-1.197-.409-2.412-.604-3.62l-.124-.217c-.3.237-.579.508-.905.7-.334.197-.714.316-1.073.469-.171-.623-.688-1.449-.46-1.836 1.961-3.326 4.067-6.565 6.098-9.85.263-.425.337-.967.499-1.455-.167.086-.375.133-.494.262-2.43 2.622-4.853 5.25-7.27 7.884-.634.691-1.244 1.404-1.866 2.107.242-.77.451-1.553.736-2.308.376-.995.812-1.967 1.222-2.948-.633.988-1.232 2.001-1.912 2.956-.46.647-1.034 1.214-1.557 1.817.02-.383.016-.769.072-1.147l.265-.397c.173-.697.317-1.401.471-2.103-.377.789-.626 1.682-1.162 2.342-.705.869-1.636 1.555-2.47 2.32.146-.609.248-1.233.45-1.823.281-.824.637-1.622.961-2.431-.389.563-.761 1.139-1.173 1.685-.345.458-.724.893-1.13 1.296-.033.033-.581-.29-.565-.395.249-1.557.556-3.106.84-4.658.033-.178.009-.366.011-.549-.081.025-.208.025-.237.078-2.799 5.234-6.466.704-8.401-.217-5.63-2.679-10.629-6.61-17.397-4.044-.446.169-.96.16-1.442.234.224.213.458.416.666.642.077.084.154.301.125.324-.141.111-.31.214-.484.255-1.224.29-2.465.52-3.673.864-.524.149-.985.523-1.474.795.599-.147 1.193-.322 1.799-.431.388-.07.794-.065 1.189-.04.079.005.142.256.212.393-.344.117-.707.195-1.029.356-2.327 1.166-4.645 2.348-6.969 3.52-2.267 1.21-4.54 2.407-6.792 3.645-.297.163-.48.534-.716.809.353-.105.751-.138 1.051-.326 2.164-1.359 4.309-2.75 6.459-4.131 1.563-.688 3.111-1.415 4.7-2.036.365-.143.873.079 1.315.133-.35.418-.62.98-1.064 1.231-3.719 2.098-7.471 4.137-11.209 6.2-.083.046-.123.169-.183.256.115-.01.25.016.342-.035 2.719-1.521 5.418-3.079 8.16-4.557.754-.406 1.635-.576 2.458-.854-.56.74-.99 1.651-1.702 2.189-2.76 2.083-5.759 3.873-8.378 6.113-1.974 1.688-3.522 3.88-5.221 5.881-.894 1.053-1.705 2.178-2.553 3.271 1.031-.931 2.066-1.858 3.091-2.794.311-.284.564-.646.907-.876.305-.204.699-.275 1.054-.404-.201.284-.386.581-.605.85-.696.857-1.404 1.703-2.107 2.553.734-.549 1.454-1.118 2.215-1.627.138-.092.441.062.668.102-1.244 1.184-2.482 2.367-3.714 3.543zm84.15 57.682c-.46.055.514.009 1.449-.206.419-.096.764-.524 1.133-.814.166-.13.308-.289.461-.435-.239-.22-.455-.598-.72-.637-3.898-.564-7.807-1.052-11.693-1.682-.271-.044-.382-1.071-.567-1.64.295.044.591.133.884.126 4.374-.109 8.75-.186 13.119-.402.6-.03 1.234-.693 1.722-1.19.312-.317.385-.869.565-1.316-.766.66-1.443 1.504-2.322 1.929-.979.473-2.143.568-3.231.805-.031.007-.201-.276-.166-.375.732-2.091 1.66-4.135 2.156-6.279.229-.992-.253-2.225-.653-3.255-.231-.593-.942-1-1.436-1.491-.213-.212-.444-.633-.63-.613-3.271.343-6.548.665-9.79 1.199-.527.087-.899 1.157-1.322 1.787-.044.065.053.224.085.339.354-.257.737-.767 1.057-.729 2.208.26 4.404.634 6.603.971l-1.591 6.32c-2.142-.619-4.339-1.104-6.388-1.949-.522-.216-.574-1.572-.842-2.405-.029.985.013 1.981-.129 2.95-.043.291-.566.618-.93.732-.68.212-1.984.21-2.009.419-.104.873-.102 1.979.364 2.653.89 1.288 2.306 2.221 3.151 3.529.614.951.663 2.267.955 3.422.037.147.024.306.035.46l-.49-.173-.572-.277c.081.22.11.589.25.637 1.263.435 2.552.795 3.818 1.22.473.159.907.432 1.358.654-.252-.279-.537-.537-.744-.847-.101-.151-.058-.398-.08-.601.297.036.61.025.888.117 1.105.369 2.183.83 3.306 1.128.403.107.903-.15 1.358-.241-.438-.155-.87-.328-1.315-.46-.286-.085-.589-.111-.884-.163.298-.096.59-.243.895-.278.738-.084 1.481-.116 2.223-.168-.272-.187-.519-.462-.82-.544-.815-.224-1.653-.366-2.482-.54.85.013 1.7.035 2.55.033.29 0 .602-.002.866-.103.822-.312 1.625-.671 2.436-1.012-.812.091-1.628.284-2.435.248-1.213-.054-2.42-.266-3.627-.424-.038-.005-.056-.16-.084-.246.944-.038 1.89-.079 4.265-.183zm-6.694 10.061c1.392-.511 2.197-.706 2.902-1.086 1.99-1.072 3.952-2.197 5.892-3.356.396-.236.675-.694.946-1.092.057-.083-.179-.518-.247-.51-.462.053-.922.158-1.37.29-2.662.779-5.319 1.576-7.982 2.351-.303.088-.634.084-.951.123l.987 1.091c-.643-.444-1.403-.783-1.907-1.35-1.837-2.063-4.371-3.402-6.169-1.006-2.582 3.441-.551 8.622 2.879 9.082 1.469.197 2.898.696 4.345 1.058-1.455-.088-2.91-.167-4.364-.274-.284-.021-.555-.186-.84-.233-.232-.038-.477 0-.716.004.102.235.148.619.315.681 1.361.509 2.744.957 4.12 1.426l1.501.522c-.422.074-.849.231-1.264.205-1.032-.063-2.058-.209-3.087-.322 1.334.426 2.659.884 4.008 1.256.382.105.834-.06 1.254-.068.198-.004.398.072.597.112-.172.101-.334.26-.518.293-.583.105-1.175.163-1.764.24.796.081 1.6.272 2.386.215.842-.061 1.668-.356 2.501-.549l-.217 1.095 2.434-1.369-1.897-.61-1.226-.407c.087-.081.174-.232.262-.233 1.285-.019 2.571-.003 3.857-.03.375-.008.748-.125 1.121-.191-.365-.144-.742-.265-1.091-.44-.348-.174-.669-.403-1.001-.608.336 0 .672.01 1.008-.003.413-.016.824-.049 1.235-.09.005 0 .033-.256-.025-.311-.418-.392-.857-.764-1.289-1.142.796.082 1.59.193 2.388.233.384.019.774-.096 1.161-.151-.306-.092-.619-.164-.914-.281-.318-.126-.622-.288-.922-.452-.021-.012.038-.242.055-.242.34.014.692.117 1.018.062.71-.121 1.407-.321 2.109-.489-.133-.08-.257-.19-.401-.236-.666-.214-1.337-.411-2.007-.614.764-.074 1.528-.141 2.29-.231.131-.015.318-.1.363-.203.537-1.215 1.082-2.428 1.563-3.666.486-1.252.902-2.531 1.348-3.798-.289.292-.536.651-.875.864-2.675 1.687-5.186 3.926-8.109 4.84-2.577.806-5.63.24-8.452.02-.79-.062-1.514-1.036-2.246-1.62-.041-.033.078-.39.205-.476.125-.085.374-.073.533-.011 1.525.59 3.042 1.199 4.268 1.687zm-47.257-36.562c-2.234 0-2.755-.026-3.266.035-.058.007-.185.608-.065.749.882 1.033 2.721 2.189 2.57 2.986-.454 2.391-1.678 4.636-2.601 6.938-1.959-1.093-3.965-2.112-5.853-3.315-.796-.507-1.343-1.405-2.013-2.116-.009-.01-.193.085-.212.154-.313 1.141-1.228 2.866-.8 3.321 1.243 1.319 2.914 2.415 4.619 3.084 4.985 1.957 10.051 3.327 14.814-.671.114-.096.353-.063.437-.168.054-.067-.067-.277-.109-.422l-.773.47-1.838 1.104c.24-.324.486-.644.716-.975.043-.061.023-.166.032-.25-.156-.009-.323-.059-.465-.02-.737.201-1.469.425-2.202.641.746-.374 1.527-.695 2.225-1.144.359-.231.623-.663.837-1.054.634-1.155 1.223-2.336 1.829-3.507l.62.516c-.113-.49-.19-.994-.361-1.463-.054-.148-.355-.215-.551-.301-.49-.215-1.024-.357-1.47-.64-2.446-1.555-4.872-3.143-6.12-3.952zm-51.042 62.308l-.155-.383c-.056.368-.066.752-.189 1.096-.056.157-.329.303-.518.323-.126.013-.383-.192-.399-.323-.189-1.488-.337-2.981-.515-4.47-.026-.219-.156-.426-.237-.638-.069.074-.18.137-.201.223-.71 2.829-1.413 5.66-2.115 8.491l-.44 1.814c-.122-.583-.238-1.167-.374-1.746-.022-.095-.135-.169-.205-.253-.099.116-.27.222-.286.348-.153 1.199-.278 2.401-.413 3.603-.431 3.821-.872 7.641-1.274 11.465-.03.281.167.63.359.866.073.09.48.021.649-.098 1.369-.961 3.154-1.681 3.965-2.997 1.104-1.792 5.361-1.221 3.453-5.56-1.339-3.044-.74-6.937-1.105-11.761zm114.452-72.814c.259-.025.546-.134.77-.058.414.142.79.392 1.182.597-1.81.509-3.605 1.079-5.437 1.489-.559.125-1.217-.195-1.829-.311.527.4 1.022.858 1.595 1.176.296.164.78.208 1.095.087 2.492-.951 4.957-1.971 7.449-2.92.315-.12 1.037.163 1.07.074.334-.905.751-1.841.785-2.782.064-1.788-.389-3.629-.112-5.366.382-2.394 1.183-4.731 1.934-7.05.232-.718.768-1.636 1.378-1.848.587-.204 1.02.02.659-.878-.383-.952-1.439-1.634-2.201-2.434l-.211.418c-1.783 3.663-3.575 7.321-5.313 11.005-.076.16.291.646.556.809.184.113.551-.114.833-.1.229.011.453.152.678.236-.722.736-1.436 1.481-2.173 2.202-.135.132-.365.167-.551.246.089.076.174.211.268.217.493.03.987.028 1.481.037-.75.16-1.546.212-2.242.503-1.366.57-2.677 1.272-4.011 1.919 1.287.109 2.573.215 3.859.33.197.018.39.076.584.116-.189.084-.373.221-.57.244-.744.087-1.494.118-2.236.216-.142.019-.257.245-.384.375l.995.454c-.497.007-.997.054-1.49.012-1.199-.101-2.393-.261-3.592-.352-.192-.015-.402.205-.604.316.147.097.285.26.444.282 1.777.254 3.559.486 5.341.739zm-120.817-3.402l.424-.196c-.164-.337-.359-.978-.489-.966-2.918.288-5.969.238-8.682 1.167-1.378.472-2.145 2.731-3.188 4.182.214.084.422.19.643.248 2.549.671 5.111 1.296 7.645 2.022.908.26 1.747.76 2.618 1.151-.394-.616-.781-1.237-1.183-1.847-.194-.295-.45-.554-.611-.864-.104-.2-.087-.462-.124-.697.166.028.338.036.497.087.984.32 1.965.649 2.947.976-.25-.721-.461-1.459-.768-2.154-.137-.31-.467-.535-.709-.798.385.18.901.26 1.128.56.554.733.958 1.578 1.457 2.356.184.286.461.514.709.754.011.011.233-.119.237-.19.024-.408.155-.892-.012-1.216-.802-1.55-1.685-3.055-2.539-4.575zm85.818 72.907l.18-1.023c.136.054.293.08.406.165 2.364 1.789 4.678 3.649 7.111 5.338.693.481 1.728.468 2.607.682-.468-.472-.897-.995-1.413-1.407-1.462-1.169-2.981-2.268-4.428-3.454-.328-.269-.456-.782-.676-1.183.495.21 1.007.389 1.482.638.573.3 1.114.658 1.669.992-.351-.328-.714-.646-1.046-.992-.086-.09-.075-.272-.108-.412l.563.059.653.08c-.122-.177-.231-.366-.369-.529-.358-.422-.73-.833-1.096-1.248.512.28 1.011.588 1.54.831.422.194.881.308 1.323.457-.272-.271-.554-.532-.814-.815-.692-.753-1.451-1.458-2.044-2.283-1.461-2.033-2.624-4.752-5.748-2.072-.617.529-1.196 1.115-1.706 1.745-.125.154.061.837.159.85.585.076 1.192-.026 1.78.038.384.041.749.26 1.123.4-.14.278-.227.731-.432.793-.301.091-.719-.029-1.031-.178-1.248-.595-2.474-1.236-3.708-1.861.188 1.097.282 2.222.6 3.28.193.64.664 1.243 1.143 1.732.299.305.847.365 1.284.536-.562-.796-1.144-1.58-1.68-2.393-.325-.493-.579-1.031-.854-1.555l.206-.133c.35.415.707.825 1.024 1.264.373.516.684 1.078 1.072 1.582.289.375.659.688 1.001 1.02l.158-.155c-.212-.356-.453-.695-.656-1.055-.293-.522-.558-1.059-.836-1.589l1.106 1.193.511.541-.056.121zm32.211-134.823c.115-.069.608-.378 1.116-.66.441-.245.899-.46 1.349-.688-1.35-1.214-2.588-2.592-4.075-3.604-2.238-1.522-4.526-3.108-7.022-4.079-3.065-1.192-6.363-1.789-9.569-2.607-.212-.054-.5.194-.753.301.091.13.152.313.277.383 3.479 1.972 7.17 3.648 10.391 5.976 3.302 2.386 8.055 3.961 7.286 9.613-.079.577.655 1.265 1.011 1.902.129-.399.381-.803.366-1.197-.061-1.536-.207-3.068-.377-5.34zm-201.518 146.669l.031.229c-1.399.441-2.93.671-4.135 1.423-.51.318-.334 1.734-.47 2.651.274.011.604.128.815.018 4.463-2.321 8.834-4.838 13.392-6.954 3.372-1.566 7.019-2.526 10.47-3.936 1.736-.709 3.224-2.041 4.97-2.704 5.275-2.003 10.623-3.812 15.937-5.714.517-.185.993-.487 1.488-.734-.846-.081-1.81-.47-2.518-.196-7.429 2.879-14.825 5.841-22.211 8.828-3.867 1.563-7.682 3.254-11.547 4.821-2.045.828-4.146 1.516-6.222 2.268zm162.18-4.784c1.92-.247 2.434-.304 2.944-.381.895-.135 1.787-.282 2.681-.425-.183-.372-.299-1.003-.561-1.071-1.079-.28-2.203-.528-3.311-.527-1.552.002-3.118.441-4.653.334-4.404-.308-8.793-.821-13.194-1.177-.4-.032-.845.486-1.269.748.207.096.406.252.622.281 6.035.808 12.07 1.602 16.741 2.218zm-20.194-68.855c2 .535 3.998 1.08 6.003 1.593.254.065.551-.034.828-.057-.099-.157-.181-.33-.3-.469-3.091-3.607-10.746-4.21-14.795-1.091-.552.425-.782 1.266-1.162 1.915.689-.15 1.377-.31 2.068-.447 2.401-.475 4.803-.943 7.358-1.444zm-1.546 88.292l-.07-.242c-3.79 1.447-7.581 2.892-11.368 4.349-.091.035-.133.197-.197.3.088.03.183.1.264.086 2.387-.421 4.796-.749 7.152-1.302 2.996-.703 5.947-1.598 8.921-2.393 1.136-.303 2.284-.558 3.427-.836-.942-.024-1.884-.036-2.825-.084-.147-.008-.285-.182-.428-.279.283-.107.562-.228.85-.319l1.908-.589-.063-.224c-.732.051-1.48.036-2.189.195-1.803.403-3.589.887-5.382 1.338zm35.994-157.055c.164.373-.002-.319-.16-.317-2.316.027-4.634.104-6.943.284-.374.029-.75.582-1.031.962-.105.141.046.696.103.699 1.222.074 2.453.166 3.67.085.344-.023.653-.582.978-.895-.226.534-.454 1.066-.676 1.602l-.193.532c.172-.042.342-.107.517-.124 2.225-.217 3.638.218 2.274 2.858.16.082.446.148.458.247.069.572.073 1.151.098 1.728 1.333-2.486 2.672-4.97 3.968-7.475.039-.076-.36-.388-.574-.565-.015-.012-.201.172-.3.273l-2.189 2.225v-2.119zm18.602 76.183l-2.561 1.138c.592.271 1.202.508 1.772.819 2.904 1.583 5.833 3.126 8.66 4.838.49.297.532 1.336.78 2.032-.096-1.784.481-4.551-.415-5.164-2.549-1.744-5.699-2.609-8.236-3.663zm-28.838-72.059c.149.158.023-.033-.024-.016-.318.121-.695.214-.914.447-2.762 2.942-5.486 5.92-8.26 8.851-.468.494-1.128.806-1.699 1.201.581.428 1.124 1.074 1.76 1.185.289.05.798-.937 1.145-1.493.648-1.039 1.246-2.111 1.876-3.162.263-.439.53-.88.848-1.278.125-.156.396-.194.601-.286-.184.302-.44.583-.536.911-.161.55-.062 1.233-.352 1.679-.918 1.414-1.979 2.736-2.927 4.132-.056.083.394.509.609.776.138-.163.304-.31.409-.493.592-1.029 1.142-2.082 1.755-3.097 1.861-3.076 3.744-6.139 5.709-9.357zm-122.381 125.854c-.039.771.06 1.29-.089 1.375-1.089.62-2.221 1.167-3.351 1.712-2.469 1.189-4.95 2.355-7.413 3.556-.249.121-.412.416-.616.631.379.005.808.13 1.128-.005 1.38-.583 2.718-1.265 4.089-1.868 2.392-1.052 4.801-2.065 7.183-3.137.102-.046-.099-.657.034-.764.317-.254.75-.363 1.136-.531l-2.101-.969zm125.124 11.626l-.846 1.254-2.732 1.014c1.419.763 2.823 2.058 4.261 2.097.929.025 1.907-1.792 2.863-2.783l-3.546-1.582zm-51.845-123.85c2.892-1.113 6.195-2.38 9.49-3.665.14-.055.215-.278.32-.423-.304-.032-.612-.111-.912-.09-2.426.168-4.924.066-7.246.653-1.197.303-2.082 1.84-3.109 2.819l1.457.706zm63.826 141.682l.466.628c-1.627 1.344-3.253 2.689-4.883 4.031-.401.33-.811.648-1.217.972.694.051 1.727.42 2.026.101 2.016-2.15 3.88-4.443 5.78-6.7.242-.288.451-.623.587-.971.057-.144-.118-.379-.187-.573-.259.433-.505.875-.782 1.297-.158.241-.325.515-.559.659-.38.236-.818.376-1.231.556zm-47.587-165.357l-1.328.498c.158.129.325.38.473.369 1.239-.089 2.475-.226 3.712-.349l-.079.721c.473-.225.926-.563 1.424-.657 2.161-.407 4.333-.762 6.507-1.096 1.009-.155 2.035-.195 3.045-.341.214-.031.394-.299.589-.457-.068-.051-.133-.141-.204-.147-1.505-.111-3.045-.468-4.509-.266-3.488.482-6.94 1.229-9.63 1.725zm44.093 1.863l-.638.543.419 1.198c.178-.31.297-.684.547-.919.586-.55 1.225-1.045 1.863-1.537.393-.303.823-.559 1.237-.836-1.737-.78-3.435-1.679-5.233-2.275-.637-.211-1.519.321-2.29.513.604.296 1.299.488 1.791.913.835.723 1.542 1.593 2.304 2.4zm-77.22 126.718c1.097-.569 1.495-.72 1.482-.777-.169-.745-.161-1.758-.648-2.164-2.276-1.899-4.691-3.629-7.059-5.417-.097-.073-.217-.114-.327-.17-.018.11-.094.266-.047.324 2.219 2.772 4.449 5.536 6.599 8.204zm50.892-40.871c.585.339 1.586.967 2.635 1.503.399.204.922.297 1.355.228.145-.023.392-.866.242-1.056-.867-1.097-1.852-2.1-2.771-3.157-.683-.785-1.328-1.604-1.99-2.408l.529 4.89zm-57.389 44.696l-.796.122c.397.227.854.388 1.18.691 1.903 1.771 3.755 3.598 5.68 5.344.257.233.834.113 1.262.157-.024-.655.196-1.512-.135-1.911-.384-.463-1.325-.411-1.897-.78-1.822-1.176-3.584-2.443-5.294-3.623zm4.855 10.046c.193.143-.556-.404-1.292-.969-.051-.039.001-.211.005-.322.618.315 1.216.686 1.862.928.538.202 1.132.254 1.701.372-.135-.294-.19-.692-.417-.866-1.687-1.294-3.405-2.548-5.123-3.801-.167-.122-.401-.152-.604-.224-.002.175-.08.411.005.515 1.587 1.938 3.19 3.863 4.805 5.777.124.147.37.192.56.284l.354-1.103-1.856-.591zm92.738 27.553c.315-.594.859-1.151.815-1.657-.049-.562-.522-1.241-1.011-1.575-.709-.484-1.699-1.108-2.384-.936-.856.215-1.526 1.176-2.262 1.831-.008.007.246.333.253.328.573-.394 1.13-.811 1.697-1.215.282-.201.582-.378.873-.566-.165.318-.277.684-.508.942-.402.449-.878.833-1.323 1.244.437-.13.868-.29 1.314-.368.121-.021.412.213.407.32-.013.28-.146.555-.232.831.36-.257.704-.543 1.085-.765.467-.271.965-.488 1.45-.729l-.628 1.258-.35.653.804.404zm-98.435-41.952c-.564.846-.993 1.369-.938 1.425.34.352.834.552 1.193.89 1.552 1.464 3.061 2.974 4.624 4.426.197.183.618.123.936.175l-5.815-6.916zm12.24-80.138c.417-.681.732-1.448 1.26-2.015 2.42-2.597 4.9-5.139 7.357-7.702l.229-.296c-.135.028-.308.012-.4.09-2.574 2.167-5.191 4.289-7.674 6.557-.655.598-.884 1.657-1.335 2.489-.077.142-.293.21-.445.312l1.008.565zm68.37-60.161l-2.985 1.264c.154.075.303.199.464.218 3.259.392 6.519.782 9.782 1.137.32.035.665-.155.999-.24-.22-.297-.395-.801-.667-.86-2.62-.568-5.256-1.062-7.593-1.519zm-12.761 150.852l.824-.407c-1.309-.806-2.539-1.963-3.958-2.28-.79-.177-1.893 1.042-2.855 1.632l5.989 1.055zm-1.471-4.076l.226-.847c.077.047.149.119.232.137 1.28.272 2.561.537 3.843.804-.009-.194.051-.513-.039-.564-1.06-.596-2.116-1.5-3.228-1.583-.645-.048-1.629 1.142-1.976 1.976-.147.354.95 1.225 1.481 1.861l-.539-1.784zm2.289 32.322l-.613-.992-.424.3c.48.168.948.417 1.441.488 1.421.205 2.949.699 4.242.354.688-.183.983-1.864 1.424-2.882.03-.069-.277-.385-.312-.367-1.928 1.019-3.843 2.06-5.758 3.099zm-57.451-130.833c-.056.551-.164 1.203-.155 1.854.002.15.542.466.605.416 1.52-1.204 3.008-2.447 4.503-3.683l-4.953 1.413zm-13.512 43.018l-1.049-3.086c-.178.669-.455 1.33-.512 2.01-.105 1.25-.076 2.511-.11 3.767-.021.757-.054 1.513-.082 2.27.414-.78.912-1.528 1.218-2.348.268-.717.321-1.514.535-2.613zm-11.122 41.992l-2.141 2.348c.28.181.725.58.815.511 1.764-1.345 3.494-2.735 5.214-4.138.417-.34.805-.731 1.128-1.158.066-.087-.22-.439-.344-.669-1.193 1.344-2.366 2.707-3.588 4.024-.564.608-1.223 1.128-1.839 1.688.252-.548.516-1.09.748-1.646.055-.136.007-.314.007-.96zm47.789-100.273l-.293-.084c.197-.079.399-.148.589-.241.563-.275 1.12-.56 1.68-.841-.569.149-1.201.188-1.693.471-.901.519-1.686 1.24-2.582 1.769-.96.566-1.993 1.009-2.995 1.505 1.158-.336 2.318-.663 3.473-1.01.652-.196 1.299-.412 1.941-.642 1.187-.426 2.368-.869 3.551-1.305l-3.276.414-.395-.036zm39.721 104.28c1.151-.486 2.329-.774 3.25-1.425 1.232-.872 2.265-2.026 3.384-3.059-.737-.013-1.694-.33-2.17.015-1.646 1.198-3.126 2.624-4.659 3.975-.066.058-.074.256-.027.348.046.092.195.13.222.146zm-32.488 23.864c2.144-.238 4.242-.469 6.339-.709.173-.02.34-.101.509-.154-.165-.112-.335-.327-.496-.321-2.272.086-4.546.168-6.815.323-1.394.095-2.779.313-4.168.476l4.631.385zm38.476-79.042l.527 1.682c.636-1.724 1.28-3.445 1.887-5.179.039-.112-.201-.321-.312-.485l-2.102 3.982zm-121.645 96.751l.16.603c.151-.167.36-.309.443-.504 1.213-2.854 2.411-5.713 3.597-8.578.04-.097-.113-.385-.134-.381-.244.05-.634.077-.694.227-1.134 2.832-2.228 5.681-3.372 8.633zm129.456 5.13l2.965-2.391c-.786.15-1.634.161-2.342.483-1.026.466-1.951 1.156-2.919 1.751l2.296.157zm-4.67-94.394l1.601 3.527c-.1-.953-.205-1.905-.293-2.859l.11-.36c-.032-1.206-.073-2.412-.134-3.617-.002-.043-.241-.073-.369-.11l-.915 3.419zm-67.879-42.977l4.236-3.007c-.064-.054-.154-.169-.188-.155-1.794.774-3.584 1.56-5.374 2.344l1.326.818zm-5.134 115.762c-1.947-1.248-3.543-2.273-5.147-3.284-.021-.013-.149.142-.227.219 1.466 1.183 2.93 2.369 4.409 3.535.052.039.259-.12.965-.47zm-7.927-13.485l4.943 4.187c.174-.414.565-1.143.49-1.194-1.623-1.114-3.298-2.154-4.968-3.2-.036-.022-.138.059-.465.207zm88.042 35.776l3.462-1.706c-.402-.295-.978-.931-1.178-.829-1.088.555-2.083 1.292-3.11 1.966l.826.569zm-67.433-138.344c-.464.128-.677.13-.816.233-1.658 1.225-3.36 2.398-4.933 3.725-.955.806-1.704 1.855-2.545 2.794.863-.718 1.719-1.445 2.591-2.153 1.807-1.464 3.621-2.92 5.703-4.599zm-.741 1.948c-.077-.152-.141-.358-.187-.353-.145.013-.308.074-.419.169-2.062 1.763-4.122 3.53-6.164 5.316-.109.095-.062.368-.087.558l6.857-5.69zm-121.267 117.882l.147-.682c-1.302-.281-2.594-.713-3.909-.799-1.188-.077-2.4.224-3.601.366l.003.15c.983-.044 1.966-.108 2.95-.121.307-.004.618.123.925.201l3.485.885zm207.775-55.645c-.392-.062-.591-.161-.712-.102-1.815.883-3.623 1.782-5.419 2.702-.096.049-.08.318-.115.484 1.744-.667 3.499-1.309 5.223-2.024.342-.142.565-.571 1.023-1.06zm-16.783 67.048l1.24 1.707 1.606-2.105c-.441-.277-.939-.838-1.311-.764-.517.104-.94.682-1.535 1.162zm-.268-167.034l-1.145.104c.086.083.158.192.259.246 2.027 1.085 4.054 2.168 6.09 3.235.175.092.412.067.62.096-.052-.104-.075-.255-.159-.305-2.018-1.212-4.044-2.413-5.665-3.376zm-21.208 167.424c.494-.971.935-1.755 1.266-2.583.046-.116-.449-.447-.693-.679l-1.993 2.224 1.42 1.038zm-5.723-36.241l-1.004.7-4.11 2.784c1.134-.369 2.294-.676 3.389-1.138.422-.178.684-.718 1.042-1.07.203-.199.502-.314.665-.535.098-.132.018-.396.018-.741zm47.16-67.959c.551-.16 1.091-.289 1.609-.475.558-.201 1.096-.456 1.642-.687-.604-.349-1.609-1.109-1.744-.977-.677.661-1.127 1.555-1.507 2.139zm-6.486 34.035l1.197-.671c.118-.893.366-1.794.309-2.675-.038-.593-.509-1.157-.786-1.735-.18 1.365-.358 2.73-.544 4.094-.044.331-.117.658-.176.987zm-50.798-110.13l1.384-.607c-.428-.069-.854-.181-1.285-.199-1.591-.067-3.183-.122-4.775-.135-.343-.003-.688.193-1.032.298.296.139.586.38.89.401 1.644.113 3.291.171 4.818.242zm7.381 99.137c-.092.459-.339 1.125-.304 1.775.016.294.596.557.92.835.108-.157.339-.347.306-.465-.492-1.766-1.019-3.521-1.538-5.28l.616 3.135zm43.139-81.438l-1.079-.577c-.057.736-.331 1.547-.111 2.188.236.685.939 1.209 1.439 1.803l-.249-3.414zm-14.158 127.446c-.148.163-.384.306-.411.481-.038.243-.009.635.146.746.809.577 1.656 1.105 2.515 1.606.358.209.776.32 1.177.441.057.017.173-.165.262-.255-.347-.11-.743-.147-1.032-.343-.851-.574-1.661-1.211-2.486-1.823.105-.021.226-.086.314-.056.359.127.698.347 1.065.405.222.035.482-.166.724-.261l-2.274-.941zm-22.766-120.518l-.74-.92-3.256 3.131c.098.087.257.268.286.249 1.216-.79 2.419-1.597 3.71-2.46zm-.945-8.522c-1.195-.395-2.107-.759-3.051-.974-.309-.071-.706.242-1.063.379.655.468 1.255 1.147 1.982 1.334.521.133 1.211-.393 2.132-.739zm-10.314 50.304l-.701.497c1.147.681 2.292 1.366 3.454 2.022.024.014.234-.3.357-.462l-3.11-2.057zm24.956 82.272l2.135-2.605c-1.154-.891-2.306-1.785-3.472-2.661-.031-.023-.315.182-.301.225.487 1.546.996 3.085 1.638 5.041zm4.827 15.195c-.782.099-1.574.109-2.301.332-.333.102-.509.653-.808.947-.19.186-.476.274-.718.406.249.084.556.307.736.23 1.022-.435 2.006-.958 3.02-1.414.29-.131.634-.141.953-.206l-.882-.295zm-88.07-71.117l.512.968 2.086-2.108c-.57-.199-1.323-.718-1.666-.521-.473.27-.636 1.081-.932 1.661zm91.921 49.81c1.453.713 1.779.993 2.108.999.285.005.576-.3.865-.468l-3.503-1.234.53.703zm-85.535 17.155l-.266.425c.956.779 1.925 1.543 2.892 2.309.14-.252.424-.71.399-.727-.968-.68-1.965-1.319-3.025-2.007zm82.022 2.746l1.853-.555c-.887-.263-1.76-.613-2.665-.75-.449-.068-.957.255-1.439.401l2.251.904zm-45.131-51.6l1.425-.461c-.939-.477-1.871-.969-2.831-1.398-.064-.029-.342.421-.521.648l1.927 1.211zm-31.458 31.271l-1.481-4.637.141 2.342-.052.073c.186.905.367 1.811.582 2.709.016.068.333.156.403.101.154-.122.239-.33.407-.588zm10.012-67.717l-.511-1.045c-.602 1.018-1.222 2.026-1.782 3.066-.068.126.186.424.29.643l2.003-2.664zm-13.954 2.611l3.842-1.334c-.216-.114-.464-.362-.642-.319-1.33.32-2.645.699-3.965 1.059l.765.594zm50.358 55.699l-.398.188c.089.084.164.217.268.246 1.727.472 3.454.949 5.191 1.382.415.103.868.055 1.303.076l-6.169-1.836-.195-.056zm4.329 43.24c-.35-.218-.651-.439-.673-.414-.401.453-.953.893-1.08 1.428-.087.366.43.874.676 1.318l1.077-2.332zm18.428-130.499c1.366-1.547 2.634-2.981 3.889-4.426.015-.017-.131-.173-.202-.264-1.277 1.42-2.555 2.839-3.822 4.267-.033.037.055.181.135.423zm-5.603 44.478c.872-1.006 1.689-1.949 2.495-2.9.006-.007-.202-.215-.208-.21-.992.855-1.975 1.721-2.958 2.586l.671.524zm12.008 11.951c.695-.895 1.312-1.662 1.863-2.474.031-.045-.489-.463-.753-.707-.458.899-.922 1.796-1.363 2.703-.031.063.106.209.253.478zm-81.959 15.171l2.604-1.088c-.911-.609-1.818-1.225-2.75-1.801-.044-.027-.482.35-.455.479.218 1.025.503 2.035.601 2.41zm-3.284-67.855l2.432-.643c-.762-.235-1.514-.587-2.29-.652-.361-.03-.769.499-1.155.775l1.013.52zm-38.377 99.781c-.632-.479-1.048-.948-1.189-.876-.997.507-1.938 1.125-2.896 1.707.193.095.419.308.573.265 1.066-.299 2.117-.652 3.512-1.096zm35.825 15.207l.438 1.444c.004-1.125.062-2.254-.008-3.375-.043-.688-.28-1.364-.43-2.045v3.976zm-39.658-16.442l.376.629c-.508.216-1.027.411-1.523.651-.748.363-1.481.758-2.221 1.139.699-.114 1.474-.076 2.076-.38.756-.381 1.371-1.042 2.047-1.582l-.691-.489-.064.032zm39.813-9.967c0 1.015-.172 1.578.034 1.9.523.821 1.214 1.535 1.838 2.292.036-.112.136-.255.098-.33-.562-1.129-1.142-2.248-1.97-3.862zm22.838-63.415l.442.628c.899-1.278 1.798-2.556 2.67-3.853l-.609-.435-2.503 3.66zm37.715 70.769c-1.38.103-1.644.057-1.843.149-1.206.56-2.398 1.152-3.594 1.733.183.021.392.112.544.053 1.29-.491 2.57-1.011 4.893-1.935zm23.134 19.094l-2.94 3.545.472.389c.865-1.161 1.734-2.319 2.585-3.49.046-.064-.059-.238-.117-.444zm-54.577-117.606l.135-.04c1.879-1.118 3.757-2.236 5.635-3.355l-.148-.23c-1.906 1.066-3.807 2.141-5.702 3.228-.081.046-.095.207-.14.315l.22.082zm-63.947 98.297c-1.22-.495-2.271-.948-3.348-1.326-.131-.046-.401.305-.606.472 1.148.422 2.295.85 3.45 1.251.072.025.218-.166.504-.397zm95.826 38.315l1.936-.433c-.643-.204-1.286-.566-1.929-.566-.585 0-1.171.392-1.756.611l1.749.388zm-76.573-43.405h2.68c-.498-.361-.96-.894-1.51-1.011-.27-.057-.703.66-1.062 1.026l-.108-.015zm17.716-5.087l-2.289-2.898c-.039.08-.133.192-.108.234.621 1.049 1.255 2.091 1.886 3.134l.511-.47zm72.82-122.544l-1.034.327c1.252.394 2.501.797 3.76 1.164.112.033.293-.169.441-.262l-3.167-1.229zm-78.139 113.83l-.521-2.011c-.363.515-.833.994-1.031 1.566-.07.202.495.682.846.925.086.061.472-.314.706-.48zm107.353-46.77l1.036-.368c.039-.644.087-1.288.107-1.932.003-.104-.12-.212-.186-.319-.411.53-.892 1.024-1.197 1.609-.12.232.149.668.24 1.01zm-62.098 3.967l-.137-.286c-.846.419-1.707.812-2.534 1.266-.763.419-1.49.904-2.233 1.36.157.03.356.138.466.079 1.487-.793 2.961-1.609 4.438-2.419zm15.146 61.999c-.229-.11-.361-.229-.429-.199-1.495.659-2.983 1.332-4.468 2.014-.046.021-.037.161-.053.246.937-.369 1.879-.726 2.809-1.11.679-.28 1.344-.595 2.141-.951zm-47.119-25.9l.709-.28c-1.363-.493-2.724-.994-4.096-1.461-.112-.038-.303.16-.458.248l3.845 1.493zm8.356-36.686l1.286 1.54c.454-.753.913-1.503 1.344-2.269.02-.035-.263-.332-.322-.307-.766.318-1.517.673-2.308 1.036zm81.252 56.916c-1.278-.263-2.219-.491-3.172-.635-.323-.049-.677.115-1.018.182.95.237 1.893.508 2.854.693.309.059.662-.109 1.336-.24zm-83.676-58.177l.616 1.126c.351-1.107.706-2.212 1.041-3.324.02-.067-.116-.18-.18-.272l-1.477 2.47zm101.815-58.707l-.396-1.646c-.212 1.048-.43 2.094-.628 3.144-.025.133.049.286.078.429l.946-1.927zm-108.085 21.731l-1.48.865c.155.064.319.198.463.179.983-.13 1.962-.292 2.942-.443l-1.925-.601zm-3.195 120.664l1.072-.435-1.923-1.662c-.116.167-.368.424-.326.488.368.562.788 1.091 1.177 1.609zm43.033-43.733l3.207-2.117c-.146-.081-.368-.27-.428-.228-1.036.725-2.052 1.479-3.072 2.227l.293.118zm20.156-107.393l-1.053.313c.948.443 1.891.897 2.85 1.312.096.042.292-.149.442-.231l-2.239-1.394zm45.233 5.954l-1.133-1.5c-.042.106-.145.235-.116.316.405 1.103.829 2.2 1.248 3.298l.001-2.114zm-93.913 144.776l1.286-.747c-.68-.194-1.352-.434-2.044-.553-.19-.033-.443.293-.667.455l1.425.845zm-23.397-49.553l.805.936c.138-.178.428-.408.388-.524-.281-.81-.63-1.597-.957-2.391l-.236 1.979zm75.569-101.428l.683-.418c-.832-.382-1.656-.783-2.503-1.128-.151-.061-.396.11-.598.174l2.418 1.372zm-26.592 107.945l2.74-1.244c-.26-.211-.678-.651-.754-.599-.757.526-1.458 1.133-2.174 1.718l.188.125zm-13.953 27.829l.993-.339c-.926-.159-1.847-.366-2.779-.449-.303-.027-.634.27-.952.419l2.738.369zm21.274-67.422l-1.892.852c.578.354 1.146.729 1.747 1.038.091.047.505-.24.491-.327-.106-.652-.282-1.294-.346-1.563zm-97.754 71.021c.959 0 1.683.209 2.107-.059.426-.268.554-1.01.796-1.551.003-.006-.284-.201-.34-.164-.759.503-1.501 1.031-2.563 1.774zm120.555 29.165c.268-.555.533-1.064.752-1.591.04-.097-.103-.271-.161-.409l-1.855.963 1.264 1.037zm9.683-16.177l-2.59.453c.38.144.785.453 1.137.401.898-.134 1.771-.429 2.654-.659l-1.201-.195zm-59.648 17.273c.408.083-.031-.042-.477-.077-.142-.011-.448.299-.435.323.425.75.881 1.483 1.332 2.218l-.42-2.464zm29.361-80.386c.567-.779 1.002-1.333 1.366-1.931.051-.083-.248-.379-.385-.576-.428.595-.867 1.184-1.271 1.795-.046.069.101.265.29.712zm25.777 59.761l.713-.522c-.512-.422-1.014-.858-1.555-1.24-.047-.033-.348.292-.531.45l1.373 1.312zm-48.934-61.57l.881-.539-1.032-1.086c-.24.267-.707.58-.664.789.061.302.492.529.815.836zm-13.622-52.279l-.063-.046c-.941.888-1.874 1.784-2.794 2.692-.018.018.116.191.179.291l2.678-2.937zm26.26-49.114l1.8-.393c-1.354.01-2.709.012-4.063.04-.199.004-.395.134-.592.206l2.855.147zm8.018 145.934c-.598.029-.753-.005-.865.048-.871.415-1.733.847-2.599 1.273.217.051.483.209.642.135.822-.382 1.617-.824 2.822-1.456zm-39.759 18.79c-.427-.397-.212-.171.038.007.036.026.237-.179.362-.277l-1.484-1.71 1.084 1.98zm85.903-14.92c.336.029.812.221 1.045.06.478-.328.827-.844 1.212-1.298.006-.008-.287-.308-.306-.294-.657.495-1.298 1.011-1.951 1.532zm13.25-54.879c-.314-.221-.432-.346-.471-.325-.925.498-1.841 1.011-2.759 1.521l.154.227c.964-.436 1.922-.885 3.076-1.423zm-2.499 33.754c1.488.412 2.002.567 2.524.681.057.012.166-.213.251-.328-.485-.314-.963-.641-1.463-.93-.069-.04-.243.1-1.312.577zm-66.994-45.216c.237.046.072-.044-.022.005-.873.451-1.734.927-2.598 1.395l.567.866 2.053-2.266zm49.166 55.784l1.22-.282c-.885-.199-1.767-.413-2.658-.586-.172-.034-.373.087-.561.137l1.999.731zm-28.986 9.839l3.164-1.731c-.117-.069-.278-.227-.344-.194-1.058.525-2.105 1.074-3.154 1.617l.334.308zm55.267-85.125c-.285-.166-.539-.402-.628-.351-.72.411-1.408.877-2.106 1.326.091.091.228.276.266.258.789-.376 1.567-.776 2.468-1.233zm-119.443 64.975c-.178.596-.385.908-.301 1.078.269.55.645 1.047.979 1.565.104-.109.318-.259.295-.319-.255-.67-.546-1.326-.973-2.324zm109.603-49.476l.892-.429c-.549-.16-1.092-.396-1.651-.451-.315-.031-.66.234-.992.366l1.751.514zm-12.145 61.231l-1.019.502c.713.177 1.422.37 2.141.519.148.031.329-.101.495-.158l-1.617-.863zm-78.719-105.877l2.181-1.166c-.395-.026-.83-.17-1.175-.051-.513.176-.961.538-1.437.82l.431.397zm92.132 82.948l1.819-.493c-.55-.2-1.089-.495-1.655-.56-.263-.03-.577.389-.867.604l.703.449zm.162-10.153l-.99-.809c-.172.239-.509.507-.474.709.047.265.354.596.615.672.172.05.461-.296.849-.572zm-12.974-.623c-.31.734-.55 1.263-.741 1.808-.025.071.292.345.306.334.345-.262.837-.498.947-.85.091-.293-.27-.728-.512-1.292zm-17.912-36.962l.381-.152c-.197-.081-.402-.247-.59-.23-1.134.104-2.264.25-3.396.382h3.605zm19.227 35.386l-.991-.658c.023.25.088.504.06.748-.039.339-.147.669-.225 1.003l1.156-1.093zm-20.243-19.357l-.532-.76-1.283 1.114c.424.079.849.214 1.272.208.163-.003.322-.323.543-.562zm36.831-24.738l.688.83c.255-.367.539-.719.742-1.113.044-.085-.202-.319-.315-.485l-1.115.768zm-40.958 7.411l-1.497.238c.979.002 1.959.034 2.936-.005.658-.026 1.312-.152 1.969-.233h-3.408zm4.909-22.178l1.45-2.388-.289-.167c-.489.719-.968 1.446-1.429 2.183-.022.034.12.172.268.372zm29.526 36.793l.517-.318c-.949-.251-1.895-.513-2.849-.74-.122-.029-.287.121-.433.189l2.765.869zm-23.25-42.633l2.574-2.036c-.095-.085-.258-.255-.274-.241-.798.639-1.586 1.293-2.365 1.955-.03.026.029.155.065.322zm-117.942 117.698c.072.314.119.645.231.953.063.173.265.453.348.435.484-.108.951-.291 1.425-.448l-2.004-.94zm153.297-79.781l-.298-.634c-.287.804-.583 1.606-.85 2.417-.028.084.119.226.185.341l.963-2.124zm-98.741-46.87c-.249-.107-.558-.344-.676-.272-.502.308-.947.708-1.414 1.075.163.112.407.358.476.316.532-.323 1.03-.703 1.614-1.119zm-20.706 134.879c.496.172.805.351 1.12.362.191.007.392-.246.588-.383l-.917-1.228-.791 1.249zm114.247-67.846l-1.272-1c-.122.161-.374.435-.346.467.301.349.634.676.995.963.043.034.303-.205.623-.43zm-100.556-31.448c-.305-.165-.42-.273-.472-.248-.937.444-1.866.905-2.797 1.361.095.056.219.183.281.158.933-.383 1.858-.786 2.988-1.271zm85.219 48.59l-.968.28c.237.099.486.302.709.277.937-.104 1.866-.276 2.797-.423l-2.538-.134zm-67.698-26.153c.518-.737 1.032-1.465 1.532-2.202.012-.018-.187-.212-.194-.206-.716.569-1.424 1.15-2.132 1.729l.794.679zm80.537-43.736c-.46-.217-.784-.506-1.024-.449-.304.073-.571.404-.783.678-.054.07.224.509.237.504.46-.189.907-.411 1.57-.733zm2.112 74.15l-.551-1.364c-.26.439-.56.864-.741 1.334-.029.075.452.424.737.506.122.034.348-.29.555-.476zm-41.969-98.517l.869-.606c-.287-.214-.549-.52-.87-.605-.177-.047-.453.274-.685.428l.686.783zm8.038 170.192l-.193.275c.819.599 1.646 1.188 2.479 1.768l.152-.11-2.438-1.933zm-67.649-34.848c.297-.459.593-.766.686-1.126.045-.172-.382-.66-.445-.635-.333.135-.863.386-.864.599-.001.349.353.699.623 1.162zm27.531-12.512l-1.046.824.576.703.952-1.231-.482-.296zm80.857-111.505c.345-.634.641-1.155.898-1.695.019-.04-.338-.309-.342-.304-.405.431-.812.866-1.153 1.347-.033.046.351.387.597.652zm-100.874 45.019c.316-.637.596-1.153.812-1.694.029-.072-.27-.275-.418-.417-.266.562-.541 1.12-.783 1.693-.021.049.172.189.389.418zm54.254 75.833l-.373.447c.684.485 1.367.972 2.06 1.445l.222-.209-1.909-1.683zm26.187-134.433c-.74-.492-1.367-.916-2.009-1.317-.032-.02-.189.158-.287.245.603.457 1.202.921 1.82 1.359.043.03.222-.131.476-.287zm-47.384 98.417l1.159-.954c-.145-.132-.372-.404-.423-.374-.464.269-.897.591-1.339.898l.603.43zm33.534 34.665l.74-.237c-.757-.274-1.509-.567-2.277-.807-.156-.049-.373.099-.562.156l2.099.888zm-68.73-110.9c-.893 0-1.287-.039-1.668.014-.255.036-.492.203-.736.312.617.117 1.232.272 1.855.322.138.011.306-.349.549-.648zm115.851 140.615l1.207-.859c-.624-.038-1.248-.084-1.873-.105-.088-.003-.18.115-.271.178l.937.786zm-24.524-107.41c-.129-.114-.298-.298-.322-.281-.646.473-1.278.966-1.912 1.455.094.089.25.267.271.253.642-.448 1.269-.916 1.963-1.427zm2.658-16.362c.458-.585.848-1.073 1.215-1.579.017-.023-.173-.196-.267-.3-.422.472-.848.94-1.253 1.427-.022.028.138.208.305.452zm-23.833-22.957l1.533-1.27c-.083-.073-.212-.225-.241-.207-.622.369-1.233.757-1.846 1.141l.554.336zm11.244 118.069l.222.739c.321-.479.652-.951.945-1.446.027-.045-.188-.233-.29-.355l-.877 1.062zm-90.123-84.859l-1.139.813c.115.089.265.277.338.251.501-.18.985-.405 1.474-.615l-.673-.449zm104.672 31.868l-1.433-1.364c-.095.111-.284.305-.271.32.436.487.891.956 1.343 1.428l.361-.384zm-7.445 10.73l1.041-.428c-.517-.013-1.035-.053-1.551-.029-.244.011-.483.143-.724.221l1.234.236zm4.08 5.319l.766-.403c-.547-.218-1.083-.472-1.647-.626-.128-.035-.351.281-.531.436l1.412.593zm-86.437-38.68l1.142-.574c-.189-.115-.408-.357-.563-.321-.478.11-.932.326-1.395.502l.816.393zm-7.276 4.171l.618.931c.172-.546.347-1.09.505-1.64.01-.033-.169-.162-.179-.154-.298.26-.587.531-.944.863zm66.684 40.937c-.647-.21-1.039-.401-1.442-.429-.116-.008-.265.452-.398.698.381.046.761.122 1.142.123.154-.001.309-.166.698-.392zm-52.603-30.71l-.398-.617c-.608.684-1.219 1.365-1.819 2.056-.032.037.024.149.038.226l2.179-1.665zm10.835 19.887l-.663.357c.701.185 1.401.38 2.107.546.102.024.236-.091.355-.141l-1.799-.762zm-19.25-40.236l-.551-.827c-.273.354-.552.704-.798 1.076-.012.017.325.361.407.328.313-.128.587-.348.942-.577zm42.888 19.85l1.182-.655c-.26-.179-.581-.552-.766-.494-.344.108-.609.469-.907.724l.491.425zm27.416 90.891c-.5-.426-.869-.774-1.285-1.054-.054-.037-.347.281-.529.434.421.234.835.483 1.27.689.111.054.287-.031.544-.069zm-33.1-45.399l.414-.299c-.632-.259-1.262-.526-1.903-.761-.054-.02-.188.179-.285.276l1.774.784zm-59.381 11.298c-.112.367-.219.543-.175.599.423.538.872 1.055 1.313 1.578.047-.088.158-.217.131-.259-.369-.583-.758-1.154-1.269-1.918zm-10.178-63.255c.29.129.699.339 1.131.48.097.032.403-.25.394-.267-.28-.514-.588-1.013-.892-1.514l-.633 1.301zm4.514 1.045c-.166.414-.311.593-.271.71.162.484.379.95.575 1.422.106-.162.329-.355.296-.481-.123-.479-.33-.936-.6-1.651zm23.243-46.222l-.962.602c.181.086.379.27.539.241.438-.079.859-.248 1.287-.381l-.864-.462zm21.21 72.317l.535-.297c-.494-.269-.975-.57-1.492-.784-.119-.049-.362.197-.547.308l1.504.773zm15.006-18.154c-.7-.459-1.26-.829-1.827-1.187l-.177.147c.499.422.993.851 1.506 1.254.046.037.221-.091.498-.214zm5.276 92.493l-1.046.268c.904.063 1.808.135 2.714.179.171.008.348-.101.522-.155l-2.19-.292zm30.3-104.439l.273.609c.243-.374.525-.731.705-1.133.057-.128-.157-.378-.247-.573l-.731 1.097zm-19.131 103.458l1.026-.505c-.191-.105-.404-.324-.57-.292-.381.072-.74.266-1.108.411l.652.386zm-42.433-81.65l-1.489.955c.111.067.256.218.326.189.58-.241 1.147-.516 1.718-.78l-.555-.364zm86.529-44.026c.361-.502.668-.925.957-1.359.008-.012-.263-.232-.269-.226-.368.383-.724.776-1.064 1.185l.376.4zm-29.783 60.331c.279-.605.512-.97.591-1.365.026-.129-.349-.338-.541-.511-.117.434-.246.866-.34 1.305-.019.087.097.203.29.571zm-10.164 67.142l-.772.524c.204.173.499.533.595.486.287-.141.497-.441.736-.679l-.559-.331zm14.179-34.126c-.464-.238-.7-.454-.935-.453-.232.001-.463.222-.694.347.188.192.365.526.566.542.265.02.549-.21 1.063-.436zm-134.542 1.342l.708-.579c-.186-.174-.447-.529-.543-.488-.295.123-.527.398-.783.613l.618.454zm120.253-132.578l.605-.494c-.178-.142-.383-.425-.53-.397-.349.066-.671.278-1.004.432l.929.459zm37.033 87.801c-.592-.223-.953-.403-1.335-.48-.131-.026-.313.205-.472.319.35.203.685.446 1.058.584.121.045.343-.184.749-.423zm-205.248 81.386c-.479-.239-.771-.462-1.09-.511-.152-.023-.354.283-.534.441.301.142.592.333.909.406.149.034.351-.156.715-.336zm216.762-.014l.987-.634c-.188-.064-.389-.206-.561-.176-.453.078-.893.23-1.338.353l.912.457zm-17.998-64.255c-.302-.123-.455-.241-.52-.204-.502.282-.987.595-1.478.898.07.066.173.202.206.187.543-.252 1.076-.523 1.792-.881zm-66.608-31.241c-.316.735-.504 1.014-.542 1.311-.031.239.12.502.19.754.194-.349.417-.686.566-1.053.054-.138-.065-.346-.214-1.012zm-.174 56.538l2.185-.855c-.086-.055-.195-.176-.253-.155-.736.271-1.465.563-2.196.849l.264.161zm-40.309-41.154l-1.161-.951c-.087.194-.273.54-.245.558.311.204.65.372.996.513.086.035.227-.063.41-.12zm92.808 66.157l.686-.468c-.321-.257-.63-.532-.973-.753-.061-.039-.267.147-.405.229l.692.992zm-81.278-125.478l.889-.345c-.343-.21-.681-.431-1.04-.607-.029-.014-.328.321-.293.417.076.204.288.359.444.535zm-17.901 105.455l.356.783c.099-.179.297-.37.279-.536-.049-.442-.19-.875-.295-1.311l-.34 1.064zm42.352-67.131c.548-.419.997-.761 1.436-1.115.003-.002-.177-.257-.189-.25-.49.279-.973.571-1.444.881-.02.013.085.214.197.484zm75.54-29.641l-.733.39c.269.141.53.37.809.397.235.022.492-.193.739-.303l-.815-.484zm-121.793 29.711c-.522-.23-.788-.42-1.067-.444-.188-.016-.395.204-.594.319.214.18.409.466.648.509.225.041.496-.174 1.013-.384zm78.176 70.582l-.775.447c.184.158.403.474.545.443.302-.068.563-.316.841-.49l-.611-.4zm-10.551-26.706l.551-.311c-.443-.139-.882-.3-1.333-.404-.134-.031-.305.094-.459.148l1.241.567zm-43.777 30.583c-.587-.434-1.013-.754-1.451-1.056-.023-.016-.151.122-.231.188.321.36.623.741.98 1.062.075.067.35-.091.702-.194zm91.896-73.307c-.174-.086-.371-.27-.509-.233-.258.069-.482.267-.72.411l.78.81.449-.988zm-43.529-76.599l.607-.323c-.447-.172-.888-.366-1.346-.5-.119-.035-.293.116-.441.181l1.18.642zm48.749 59.99c.353-.644.668-1.211.964-1.786.013-.025-.205-.207-.214-.2-.473.411-.934.835-1.39 1.265l.64.721zm-155.447 76.429c.244.002.563.083.813-.013.266-.103.467-.374.697-.571l-.863-.521-.647 1.105zm162.186-134.983c-.629-.47-1.136-.855-1.656-1.221-.029-.02-.166.113-.252.174.466.404.924.817 1.407 1.2.057.046.244-.07.501-.153zm-146.578 142.013l-.694-.844c-.122.191-.341.384-.337.573.003.167.227.379.405.475.098.054.303-.09.626-.204zm97.663-16.146c-.415-.19-.698-.418-.976-.411-.174.004-.365.347-.487.571-.024.045.267.369.348.345.336-.099.647-.282 1.115-.505zm27.718 2.332l1.885-.423c-.227-.074-.466-.236-.678-.206-.539.077-1.066.24-1.597.368l.39.261zm-45.782-31.563l1.009-.303c-.227-.131-.468-.389-.679-.365-.391.043-.763.25-1.144.389l.814.279zm-123.673 75.301c-.276-.137-.49-.334-.629-.291-.226.07-.404.297-.602.457.142.164.369.488.411.465.264-.14.486-.359.82-.631zm157.229-27.972l-.705-1.066c-.078.114-.244.254-.22.338.135.461.316.908.481 1.36l.444-.632zm22.514-80.709c-.175.299-.394.503-.359.645.093.379.296.731.455 1.094.167-.294.452-.583.464-.882.011-.242-.309-.497-.56-.857zm17.739-18.649l-.351-.765c-.243.312-.508.612-.702.953-.024.043.326.299.502.456l.551-.644zm-89.529 84.38l1.398-.571c-.125-.07-.269-.221-.37-.196-.524.131-1.036.308-1.552.468l.524.299zm29.041-126.839l.704-.339c-.285-.149-.567-.405-.857-.415-.244-.009-.499.266-.75.416l.903.338zm47.078 71.997l-.735.427c.175.106.396.339.517.295.38-.138.722-.38 1.079-.582l-.861-.14zm-44.289 1.431c0 .202.038.076-.007.03-.208-.214-.5-.612-.649-.568-.435.13-.817.44-1.219.68l1.875-.142zM2.424 155.856c0-3.406-.099-6.415.128-9.399.028-.366 1.799-.858 2.761-.855 12.111.045 24.222.103 36.331.297 9.458.152 18.913.516 28.37.748 3.314.081 6.631.049 9.947.07.226.001.463-.011.675.05.088.025.124.229.184.351-1.719.756-3.429 1.538-5.172 2.235-.205.082-.594-.296-.898-.46l.513-.748.438-.664c-.536.063-1.131-.003-1.597.212-2.676 1.23-5.284 2.615-7.988 3.776-2.976 1.278-6.025 2.39-9.064 3.516-.261.097-.684-.242-1.032-.378.232-.439.352-1.101.714-1.282 3.583-1.797 7.206-3.513 10.812-5.264.111-.054.156-.243.232-.369-.235-.086-.511-.299-.698-.238-4.149 1.352-8.287 2.741-12.431 4.109-2.44.805-4.872 1.641-7.34 2.354-1.316.381-2.699.531-4.052.785.222-.493.358-1.062.698-1.452.214-.246.735-.224 1.118-.322-.068-.105-.154-.308-.2-.299-.497.095-1.039.128-1.473.358-2.949 1.562-5.782 3.382-8.834 4.695-2.809 1.209-5.801 2.113-8.8 2.712-1.662.332-3.517-.458-5.262-.351-3.31.204-6.601.712-9.906 1.027-.385.037-.81-.35-1.216-.54.353-.304.701-.614 1.061-.91.178-.147.378-.267.569-.399-.223-.225-.409-.535-.679-.648-.233-.098-.595-.043-.837.073-.403.194-.756.492-1.13.747-.18-.271-.561-.728-.509-.784.443-.478.909-1.15 1.472-1.267 3.646-.756 7.321-1.374 10.978-2.08.322-.062.586-.429.877-.654-.31-.075-.624-.227-.93-.212-4.781.227-9.562.45-14.338.757-.475.031-.968.554-1.357.945-.492.496-.885 1.089-1.32 1.641l-.815-1.883zm53.318-6.851l.168.406c.49-.258 1.022-.465 1.438-.812.092-.077-.156-.875-.366-.936-.432-.126-.975-.069-1.415.081-.426.145-.747.589-1.172.749-2.849 1.072-5.721 2.085-8.558 3.187-.194.075-.168.716-.244 1.094l.783-.277c3.123-1.163 6.244-2.328 9.366-3.492zm-43.42 8.924l-1.017.749c.204.159.426.473.607.451.749-.09 1.487-.281 2.228-.435l-1.818-.765zm31.187-6.75l1.761-.947c-.119-.06-.255-.193-.355-.17-.817.186-1.628.401-2.44.607l1.034.51zM269.37 16.589c-.323-2.992-.646-5.985-.967-8.978l.005-.274c3.254.056 6.509.12 9.763.205l.297.318c8.086-1.347 3.749 5.128 4.208 7.639.968 5.297.5 10.862.545 16.317.005.6-.486 1.205-.747 1.807l-2.042-1.69c.249-.247.658-.461.716-.746.146-.711.178-1.456.149-2.184-.007-.165-.451-.307-.688-.469l-.486-.366c.163-.209.438-.402.472-.63.217-1.477.382-2.961.564-4.443-.606-.063-1.638-.349-1.742-.15-.366.702-.507 1.563-.562 2.376-.09 1.328-.045 2.665-.057 3.998-.894-1-2.278-1.872-2.578-3.026-.587-2.256-.542-4.672-.826-7.014-.051-.416-.433-.792-.663-1.187-.176.362-.457.71-.505 1.088-.08.631.068 1.293-.026 1.92-.107.714-.374 1.404-.572 2.105-.115-.594-.242-1.187-.343-1.784-.167-.989-.237-2.003-.504-2.963-.155-.558-.615-1.031-.938-1.543-.184.541-.311 1.111-.567 1.615-.319.63-.745 1.206-1.125 1.805l-1.323-3.602.542-.144zm12.164-.035l-1.512-3.225c-.477 1.203-.969 2.4-1.39 3.622-.023.067.585.529.827.476.584-.129 1.125-.454 2.075-.873zm-4.852 7.981l1.185 2.674c.085-.196.27-.408.241-.584-.382-2.288-.795-4.572-1.2-6.856l-.226 4.766zm4.906-3.989c-.528-.735-.825-1.57-1.306-1.694-.438-.114-1.076.542-1.626.859.56.577 1.089 1.191 1.713 1.688.088.07.633-.435 1.219-.853zm-2.309-7.881c.818-.636 1.464-.929 1.442-1.16-.062-.657-.395-1.289-.621-1.931-.571.358-1.353.599-1.636 1.115-.176.318.407 1.054.815 1.976zM159.814 6.964l.107-.682c-.443-.005-.886-.016-1.33-.014l-5.027.023-1.435-.002c.082.548.049 1.153.281 1.627.209.427.711.712 1.083 1.059-.04-.4-.099-.8-.11-1.201-.004-.139.159-.406.165-.404 1.241.477 2.499.922 3.687 1.509.235.116.203.776.294 1.185-.843.019-1.694.108-2.522.007-.212-.026-.35-.651-.523-1.001l-2.32 1.246 1.901.73c-.324.317-.603.828-.98.915-1.061.245-2.822.803-3.14.374-1.925-2.601-2.093-1.169-2.246.787-.005.064-.356.182-.377.152-.164-.227-.364-.471-.409-.735-.513-3-.849-3.169-3.144-1.528-.265-.98-.494-1.971-.805-2.937-.225-.698-.557-1.362-.841-2.042.066.521.163 1.041.176 1.564.003.119-.317.375-.433.346-.576-.143-1.135-.36-1.699-.551.453.682 1.193 1.32 1.305 2.054.341 2.249.449 4.534.626 6.807.021.273-.103.555-.127.835-.006.071.101.194.181.223.238.087.488.14.733.205l-1.255.79c-.154-.262-.427-.518-.44-.787-.056-1.122.048-2.259-.095-3.366-.04-.309-.983-.469-1.068-.81-.234-.929-.164-1.932-.352-2.878-.102-.514-.484-.973-.74-1.456-.009.828 0 1.658-.034 2.485-.024.589-.106 1.175-.163 1.762-.253-.568-.51-1.134-.757-1.704-.1-.23-.18-.467-.27-.701-.029.261-.109.529-.075.782.055.414.274.821.265 1.227-.023 1.06-.133 2.118-.208 3.176-.253-1.405-.451-2.824-.776-4.213-.318-1.362-.859-2.675-1.14-4.042-1.094-5.312 3.453-2.25 4.518-2.335 6.375-.51 12.812-.312 19.226-.232 5.144.065 10.287.288 15.429.484.386.015.758.374 1.137.574-.671.21-1.335.565-2.015.6-1.769.093-3.552.144-5.316.025-1.53-.103-3.038-.493-4.565-.685-.376-.047-.786.18-1.181.281.034.111.047.307.104.321.552.132 1.112.233 1.669.343-1.07.045-2.142.137-3.211.116-.599-.012-1.194-.211-1.791-.325l.033.017zM281.484 161.3l-.161-.354-1.309-2.823c1.079 1.036 2.23 2.008 3.223 3.121 1.902 2.132 3.73 4.331 5.548 6.537.272.33.32.845.471 1.275-.542-.197-1.254-.241-1.596-.619-1.256-1.386-2.578-2.772-3.528-4.364-1.788-2.998-2.699-1.351-3.788.48-.64 1.076-1.363 2.123-2.177 3.073-5.198 6.069 2.537 6.709 4.196 9.87.552 1.053 1.799 1.736 2.704 2.614.115.111.083.373.119.566-.429-.114-.975-.098-1.268-.363-2.274-2.048-4.831-3.899-6.651-6.303-2.046-2.702-2.928-1.371-4.162.459-.573.849-1.323 1.579-1.993 2.363-.109-.106-.33-.275-.311-.308.584-1.027.982-2.289 1.836-3.007 1.975-1.662 1.831-2.903-.047-4.548-1.937-1.696-3.652-3.656-5.383-5.574-1.81-2.004-1.128-5.001 1.74-7.997.154-.161.44-.194.664-.287.017.302.173.734.03.886-5.738 6.091 1.018 8.655 3.515 12.37 2.424 3.606 3.068.11 4.091-1.182 1.498-1.891 2.831-3.912 4.237-5.885zM133.667 32.055c1.003-4.454 1.879-8.352 2.772-12.246.02-.089.238-.133.363-.199l.045.838c.108 2.452.075 4.926.447 7.337.069.449 1.768.645 2.715.959.176.058.475.086.501.185.059.222.062.529-.052.715-1.284 2.105-2.595 4.193-3.895 6.288-.057.092-.07.211-.104.318.192-.098.453-.146.564-.302 1.574-2.202 3.118-4.424 4.698-6.622.201-.28.565-.442.854-.659.029.345.209.779.065 1.022-1.626 2.748-3.179 5.558-5.076 8.11-.347.466-2.159-.12-3.286-.279-2.94-.413-3.435-2.222-1.363-5.063.197-.269.651-.351.752-.402zm-.835 4.719l.229.323c.53-.772 1.199-1.496 1.488-2.349.07-.208-1.111-.839-1.717-1.276v3.302zM131.713 69.124c0-9.77-.008-19.541.038-29.311.001-.306.578-.882.862-.868 1.226.062 2.444.298 3.665.471-.75.432-1.499.866-2.252 1.292-.073.042-.174.035-.262.051.05.097.083.208.151.289.421.499.851.991 1.277 1.485-.694.219-1.398.413-2.077.672-.195.074-.318.336-.474.512.301.139.591.313.905.41.68.209 1.373.379 2.06.564-.263.198-.504.449-.798.573-.178.075-.604-.127-.636-.064-.169.338-.207.741-.369 1.085-.298.632-.65 1.238-.979 1.855.838.315 1.681.618 2.511.953.313.127.844.33.844.498-.001.451-.18.934-.417 1.328-.054.09-.899-.236-.916-.192-.27.701-.554 1.421-.638 2.16-.043.38.338.793.457 1.211.082.29.135.848.043.884-.427.168-.915.171-1.37.281-.281.068-.541.224-.811.341.314.377.657.733.934 1.135.309.448.86.99.787 1.399-.585 3.302-1.345 6.574-1.92 9.878-.13.746.385 1.588.349 2.374-.022.475-.533.928-.824 1.391l-.581-2.622.441-.035zm1.45-12.531c-.288 1.077-.515 1.585-.533 2.101-.015.43.216.868.337 1.303.213-.712.456-1.417.621-2.141.046-.201-.142-.456-.425-1.263zm-1.034-16.68l.796 1.28c.233-.38.496-.747.674-1.151.038-.086-.254-.455-.36-.441-.4.054-.786.213-1.11.312zM136.625 15.745c-1.153 4.785-2.523 10.499-3.927 16.204-.058.237-.43.397-.656.593-.12-.499-.355-1.001-.344-1.498.18-8.285.388-16.57.612-24.854.008-.288.257-.569.394-.854.581.369 1.539.63 1.68 1.124.775 2.704 1.348 5.466 2.241 9.285zm-1.869-1.981c-.517-1.841-.835-3.002-1.174-4.156-.069-.234-.218-.443-.331-.664-.05.24-.136.48-.146.722-.211 5.462-.415 10.924-.612 16.387-.006.172.067.346.103.519.162-.174.443-.331.47-.524.606-4.274 1.183-8.552 1.69-12.284zM156.652 188.873l-.012-2.209c1.191.142 2.424.134 3.565.454 2.811.789 5.345 1.197 7.084-2.032.259-.48 1.879-.187 2.859-.326 3.158-.449 6.31-.948 9.471-1.376.283-.038.616.302.926.466-.306.168-.594.409-.922.493-4.971 1.28-9.949 2.535-14.918 3.823-.228.059-.387.381-.578.581.457.185.912.376 1.373.552.308.118.623.214.936.32-.364.041-.735.147-1.092.113-2.907-.28-5.812-.586-8.717-.884l.025.025zM128.739 117.702c.782 1.369 1.383 2.734 2.262 3.888 1.513 1.986 3.203 3.838 4.805 5.757.091.109.061.318.087.48-1.496-.558-3.656-.685-4.352-1.761-1.53-2.363-2.322-5.203-3.393-7.858-.02-.05.248-.217.591-.506zM267.74 178.66c-.352.118-.499.224-.591.188-.261-.1-.557-.205-.737-.401-1.837-1.992-3.6-4.056-5.536-5.944-.265-.259-1.369.304-2.065.544-.284.098-.515.346-.771.527.032-.315.096-.63.09-.944-.022-1.216-.062-2.432-.108-3.648-.01-.259-.148-.539-.083-.767.039-.135.498-.306.539-.26 3.032 3.475 6.042 6.97 9.262 10.705zM156.626 188.847c-1.865 1.434-3.657 2.98-5.619 4.267-1.584 1.04-3.369 1.776-5.075 2.625-.162.081-.399.012-.601.012.031-.168.006-.434.103-.489 3.733-2.142 7.476-4.265 11.219-6.39l-.027-.025zM92.272 146.28c1.766.496 4.294 1.192 6.807 1.94.198.059.289.48.429.733-.3.075-.608.235-.9.21-1.949-.17-3.928-.225-5.828-.637-1.017-.221-1.896-1.078-2.838-1.648l2.33-.598zM159.781 6.95c1.024.349 2.076.634 3.055 1.081.346.157.512.708.76 1.079l-1.917.21c-.963.108-1.983.447-2.862.224-.396-.101-.507-1.32-.747-2.032l1.746-.545-.035-.017zM250.714 10.526l-5.272-1.61c.241-.113.501-.351.72-.318 1.895.287 3.784.622 5.674.943l-1.122.985zM77.082 151.651l-1.878 4.971c-.191-.174-.576-.407-.544-.515.571-1.909 1.192-3.802 1.802-5.699l.62 1.243zM213.436 199.083l.543-1.277c.234.545.61 1.076.666 1.639.073.738-.106 1.502-.176 2.255l-2.517-.776 1.484-1.841zM150.433 20.463l-1.082.819c-.834-1.241-1.681-2.473-2.474-3.739-.065-.104.242-.442.376-.672l3.18 3.592zM123.393 124.635c0 2.249.009 4.498-.017 6.746-.002.196-.238.389-.366.584-.11-.201-.319-.404-.316-.603.058-3.335.139-6.67.232-10.005.005-.194.151-.384.231-.576.096.182.27.361.275.545.026 1.103.013 2.206.013 3.309h-.052zM142.706 19.166l-2.585 4.741c-.116-.174-.373-.415-.327-.511.772-1.616 1.582-3.214 2.384-4.816l.528.586zM136.532 125.963l.091-1.039c.945 1.189 1.914 2.36 2.812 3.583.144.196-.029.625-.055.946-.391-.436-.801-.857-1.167-1.312-.585-.725-1.14-1.473-1.708-2.212l.027.034zM113.198 147.265l-2.234-.723c.83-.15 1.657-.397 2.49-.42.661-.018 1.33.237 1.996.372l-2.252.771zM150.621 12.716c.581.753 1.154 1.472 1.676 2.227.033.048-.331.371-.51.566l-2.253-2.251 1.087-.542zM133.273 74.511l-.877.989c-.242-.897-.496-1.791-.715-2.694-.033-.134.096-.307.15-.461l1.442 2.166zM89.739 148.924l-2.555-.172c.983-.282 1.955-.626 2.956-.812.335-.062.744.279 1.12.436l-1.521.548zM84.886 146.505l2.773.478c-.331.087-.666.261-.993.245-1.177-.058-2.35-.179-3.525-.277l1.745-.446zM120.668 145.886l-.366-.549c.754-.208 1.502-.44 2.266-.603.132-.028.326.239.492.37l-2.392.782zM117.687 152.885l-1.504-.663c.545-.369 1.076-.761 1.648-1.082.08-.045.535.317.511.393-.125.393-.35.755-.655 1.352zM218.717 199.559l.482-1.145.667 2.247-1.12-.067.249-.922-.278-.113zM178.479 186.803c-1.055.456-1.892.826-2.743 1.162-.047.018-.207-.25-.314-.385.787-.428 1.567-.869 2.371-1.263.081-.04.303.207.686.486zM52.463 154.801l1.45.12c-.571.413-1.127.851-1.732 1.205-.074.044-.412-.363-.628-.561l.91-.764zM137.397 46.93c-.801.386-1.502.757-2.236 1.048-.129.051-.392-.235-.594-.366.794-.465 1.587-.931 2.392-1.376l.438.694zM146.144 15.325l.809-.977c.25.46.528.91.722 1.393.031.077-.406.471-.469.436-.316-.176-.58-.447-1.062-.852zM156.49 10.61l.766.955c-.392.303-.77.631-1.193.88-.061.036-.526-.399-.496-.456.209-.409.5-.775.923-1.379zM141.288 35.703l-1.235 2.31c-.13-.147-.401-.368-.369-.43.394-.746.832-1.468 1.258-2.197l.346.317zM254.999 157.117l1.223.613c-.617.239-1.228.496-1.858.695-.083.026-.26-.245-.393-.378l1.028-.93zM254.126 10.379c-.362.148-.637.361-.763.294-.406-.216-.757-.535-1.13-.814.198-.205.533-.611.572-.585.42.287.792.642 1.321 1.105zM63.351 154.333c-.329.224-.58.502-.695.454-.403-.168-.76-.448-1.134-.685.33-.244.641-.626.999-.677.196-.029.473.498.83.908zM136.503 125.93c-.639-.015-1.321.102-1.902-.089-.446-.146-.764-.68-1.14-1.042.515.212 1.026.434 1.546.632.503.191 1.015.357 1.524.533l-.028-.034zM258.044 167.066c-.46.152-.74.342-.862.268-.46-.275-.869-.636-1.297-.965.151-.137.382-.42.441-.388.514.28.996.616 1.718 1.085zM181.177 187.583c-1.023.476-1.887.887-2.763 1.268-.082.036-.245-.114-.37-.178.921-.402 1.841-.805 2.764-1.199.049-.021.131.036.369.109zM160.556 12.822c-.564.361-.91.612-1.29.792-.057.027-.271-.275-.413-.424.306-.283.59-.598.933-.823.081-.052.363.207.77.455zM180.699 186.962l-.825-.591c.522-.205 1.039-.421 1.569-.6.073-.024.21.142.317.219l-1.061.972zM123.369 116.023c0 1.133.014 1.302-.002 1.468-.086.856-.18 1.71-.271 2.565-.123-.478-.355-.959-.34-1.433.017-.562.247-1.117.613-2.6zM160.581 12.589l-1.187-1.107c.276-.192.534-.486.834-.54.207-.037.668.25.675.407.016.364-.175.736-.322 1.24zM214.037 176.305l.916-1.208c.086.187.284.41.237.553-.151.467-.392.905-.598 1.354l-.555-.699zM244.458 8.269c-.487.241-.745.473-.883.416-.329-.137-.601-.41-.897-.628.223-.117.459-.348.664-.323.297.036.57.259 1.116.535zM138.872 42.624c-.599.436-1.058.779-1.537 1.093-.025.016-.214-.219-.327-.337.44-.4.877-.805 1.333-1.186.02-.018.215.172.531.43zM143.572 29.364c.095.616.207.848.135.976-.207.368-.489.694-.741 1.037-.089-.152-.288-.352-.246-.449.178-.418.427-.805.852-1.564zM212.596 199.28l-.384.408c-.257-.295-.575-.56-.738-.9-.058-.121.263-.423.411-.642l.711 1.134zM217.083 197.475l-.415.559c-.204-.534-.428-1.062-.596-1.607-.036-.115.134-.294.208-.443l.803 1.491zM135.608 79.032l-.435.779c-.193-.405-.419-.8-.554-1.224-.033-.103.237-.301.367-.456l.622.901zM61.625 156.597c-.084-.408-.224-.729-.185-1.026.026-.202.369-.556.454-.525.313.114.577.361.859.558l-1.128.993zM135.532 187.177l.178.256c-.563.411-1.131.817-1.713 1.202-.026.017-.175-.15-.267-.231l1.802-1.227zM182.403 186.466l.639.387c-.316.173-.617.392-.954.498-.146.046-.365-.142-.551-.224l.866-.661zM109.727 146.468c-.452.293-.79.521-1.143.721-.025.014-.165-.175-.251-.27.313-.244.618-.499.949-.717.046-.031.216.125.445.266zM157.472 190.633c-.482.303-.81.529-1.16.708-.051.026-.32-.238-.311-.251.217-.332.453-.653.711-.954.013-.016.251.161.76.497zM236.265 71.397c-5.217-1.199-9.209-2.444-13.292-2.952-3.276-.407-6.707.462-9.99.081-5.074-.589-10.083-1.745-15.102-2.749-.209-.042-.441-1.36-.323-1.421.628-.321 1.364-.431 2.063-.613l-.55.587c.418.047.85.182 1.25.118.421-.068.85-.536 1.21-.47 3.886.714 7.79 2.259 11.628 2.1 7.067-.292 13.904-.788 20.489 2.782 1.562.847 4.135-.18 6.245-.317.236-.015.484.148.727.229-.132.117-.251.316-.397.338-1.558.236-3.12.442-4.681.661-.468.066-.934.144-1.401.217l1.434.443.096-.012 5.281-.161c-1.959.475-3.919.952-4.687 1.139zm-14.283-4.385l.818-.223c-.119-.064-.241-.189-.356-.183-2.903.15-5.805.311-8.707.485-.124.007-.239.149-.358.228.156.015.313.05.469.043 2.708-.117 5.415-.238 8.134-.35zM182.225 128.115c-4.346 1.62-8.693 3.239-13.039 4.86l-.468.197c.173.052.362.177.516.144 3.725-.806 7.445-1.63 11.168-2.447.415-.091.833-.167 1.254-.222.045-.006.115.18.173.278-.405.176-.807.36-1.215.527-.958.391-1.918.775-2.878 1.161.829-.134 1.658-.265 2.486-.402l1.416-.248c-.495.214-.985.438-1.485.64-.654.264-1.315.51-1.973.764l.027-.023c-1.167.307-2.323.669-3.504.903-.958.19-1.946.225-2.92.329.833-.26 1.674-.495 2.493-.794.242-.088.418-.356.627-.537.724-.046 1.445-.096 2.166-.161l.002-.296-2.161.478c-2.855.22-5.707.484-8.566.623-.542.026-1.108-.437-1.662-.674.572.002 1.143.008 1.715.004.456-.003.913-.019 1.369-.029l-1.175-.396-1.226-.426c.403-.032.811-.036 1.208-.102 4.366-.725 8.731-1.455 13.092-2.208.254-.044.473-.294.708-.448-.287.03-.589.012-.859.097-5.759 1.818-11.524 3.514-17.442.628-.337-.164-.519-.644-.774-.978.443-.097.888-.286 1.328-.275 4.06.094 8.12.232 12.18.334.669.017 1.34-.077 2.01-.119-.656.212-1.3.542-1.971.615-2.087.226-4.183.365-6.277.517-.867.063-1.738.075-2.607.11.869.115 1.779.457 2.6.307 4.576-.835 9.131-1.789 13.693-2.703l-.029-.028zM184.256 64.66l-6.495 3.542c-.034-.272-.194-.698-.082-.79.712-.579 1.437-1.174 2.244-1.599 2.966-1.56 5.859-3.984 8.981-4.348 4.156-.484 8.502.65 12.762 1.125.094.011.139.467.207.716-.292-.043-.584-.107-.878-.126-1.289-.08-2.635-.421-3.857-.167-3.681.762-7.314 1.758-10.966 2.658l-.189-.024c-.999.552-1.995 1.112-2.991 1.67l1.261-2.658c2.686-.693 5.372-1.385 8.056-2.087l.044-.228c-.188.011-.386-.013-.562.04-2.512.752-5.023 1.515-7.535 2.276zM213.934 87.138c-2.134-.516-3.988-.921-5.811-1.435-.457-.129-.814-.61-1.217-.93.711-.116 1.419-.253 2.133-.341.35-.043.711.003 1.067.009-.312-.119-.636-.215-.935-.361-.669-.328-1.325-.681-1.987-1.024.838.095 1.674.237 2.515.269.593.023 1.192-.103 1.788-.163-.49-.122-.998-.199-1.466-.377-.624-.237-1.218-.554-1.825-.836.154-.08.317-.244.46-.228 1.545.167 3.086.361 4.626.567.018.002.002.265.002.406.503-.1 1.025-.149 1.503-.32.266-.095.46-.394.687-.601.04.277.211.659.091.807-.238.295-.61.526-.972.665-.664.254-1.36.422-2.043.625.762-.001 1.525.022 2.285-.016.316-.016.624-.167.937-.255l3.394-.96c-1.239.584-2.477 1.172-3.718 1.751-.523.244-1.055.471-1.583.705.484.12.965.27 1.457.33.088.011.176-.456.341-.528 1.767-.773 3.548-1.515 5.333-2.245.077-.031.237.142.358.221-.399.537-.683 1.31-1.216 1.571-2.043.995-4.165 1.825-6.204 2.694zm-1.315-.891l1.238-.3c-.471-.109-.94-.293-1.414-.305-.451-.011-.906.158-1.359.247l1.535.358zM215.658 130.474l-.417 3.997c-.244-.747-.498-1.491-.728-2.242-.155-.503-.276-1.017-.413-1.526-.318.567-.808 1.105-.911 1.708-.149.877.003 1.801-.014 2.705-.017.897-.086 1.794-.132 2.69-.229-.966-.542-1.922-.661-2.902-.112-.916-.147-1.882.018-2.782.207-1.132.653-2.221.996-3.328l2.262 1.68zM172.307 93.869c-1.285 1.864-2.589 3.716-3.846 5.598-.678 1.016-1.248 2.105-1.93 3.119-.16.238-.575.305-.872.451-.012-.316-.162-.737-.014-.934 2.727-3.623 5.476-7.23 8.271-10.801.218-.279.808-.268 1.225-.391l-.615.769-1.954 2.399-.265-.21zM170.216 129.532c-1.991-.316-4.902-.764-7.805-1.26-.307-.053-.564-.395-.844-.603l.947-.01c5.235-.041 10.47-.084 15.705-.12.321-.002.643.042.964.065-.257.21-.49.557-.774.607-2.386.417-4.781.78-8.193 1.321zM153.314 131.536c1.834.544 3.628 1.072 5.418 1.615.09.027.142.181.212.276-.265.036-.548.149-.792.093-1.121-.258-2.231-.563-3.345-.851 1.202.431 2.411.845 3.603 1.301.396.152.751.412 1.125.622-.465.043-.981.235-1.386.099-1.126-.376-2.203-.897-3.308-1.338-.172-.068-.392-.015-.589-.018l.762.685 1.266 1.176c-.493-.22-1.059-.351-1.463-.68-.739-.602-1.392-1.311-2.058-1.998-.188-.194-.298-.463-.444-.698l.999-.284zM225.408 135.169v-2.174c-.165.662-.313 1.328-.502 1.982-.078.269-.245.512-.371.767-.082-.149-.252-.311-.232-.446.355-2.492.719-4.983 1.126-7.466.043-.262.368-.477.562-.714.001.295.047.597-.004.882-.195 1.082-.449 2.155-.616 3.241-.037.242.189.524.294.788.122-.304.275-.6.36-.915.315-1.163.607-2.331.908-3.498-.13 1.011-.269 2.022-.389 3.034-.163 1.377-.296 2.758-.485 4.131-.033.238-.279.447-.427.669l-.224-.281zM178.18 133.366l2.189.024c-.772.346-1.513.838-2.322 1.012-3.24.696-6.5 1.305-9.759 1.908-.279.052-.608-.174-.914-.271.359-.105.715-.225 1.078-.314 3.25-.796 6.501-1.587 9.754-2.38l-.026.021zM180.923 52.302c-1.009.578-1.933.968-2.69 1.569-1.932 1.534-3.786 3.166-5.682 4.746-.15.125-.377.158-.568.233-.012-.216-.118-.556-.022-.628 2.769-2.078 5.557-4.132 8.356-6.171.066-.048.284.112.606.251zM182.253 128.141l-.458-1.248c1.011.301 2.004.716 3.037.875 1.49.229 3.008.277 4.514.391.483.036.969.033 1.453.048-.541.161-1.09.483-1.62.454-2.321-.126-4.637-.354-6.954-.545l.028.025zM180.68 53.929c-1.574 1.143-3.044 2.178-4.475 3.263-.68.516-1.288 1.128-1.929 1.697.474-.728.804-1.642 1.452-2.147 1.388-1.081 2.937-1.957 4.433-2.896.103-.065.315.046.519.083zM224.599 126.556c-.151 1.418-.254 2.598-.408 3.771-.172 1.31-.385 2.615-.597 3.919-.028.17-.141.335-.25.474-.021.027-.308-.088-.304-.118.302-2.566.618-5.13.946-7.692.008-.056.155-.095.613-.354zM176.882 58.849c-.008-.014-.215-.332-.188-.353 1.37-1.078 2.759-2.133 4.16-3.172.022-.016.223.208.34.32l-4.312 3.205zM181.84 57.143c-1.007.874-1.869 1.652-2.781 2.368-.096.076-.482-.217-.733-.339.938-.721 1.869-1.453 2.826-2.148.106-.077.367.057.688.119zM221.616 128.634l-.941 5.457c-.054-.136-.17-.279-.153-.406.262-2.014.541-4.027.816-6.04l.278.989zM220.353 130.393l-.968 3.361c-.087-.313-.294-.649-.241-.936.197-1.063.479-2.11.729-3.163l.48.738zM183.953 126.206l-2.352-.586c.254-.128.526-.393.758-.361.982.133 1.953.353 2.928.541l-1.334.406zM222.159 129.499l.569-1.271c.075.136.234.288.212.406-.141.752-.322 1.496-.49 2.243l-.291-1.378zM216.834 83.127c-.429-.759-.616-1.033-.591-1.054.415-.348.846-.682 1.304-.973.076-.048.291.122.442.191l-1.155 1.836zM178.03 160.992c-.791.51-1.414.922-2.054 1.306-.062.037-.229-.101-.348-.158.503-.502.986-1.027 1.527-1.482.09-.074.437.159.875.334zM181.674 77.901c-.711.374-1.314.694-1.926.998l-.19-.24c.526-.393 1.046-.796 1.591-1.16.047-.031.269.202.525.402zM154.92 131.012c-.126.07-.255.19-.309.163-.725-.371-1.44-.762-2.157-1.148.078-.092.205-.275.227-.264.728.392 1.447.802 2.239 1.249zM204.526 63.652l1.291.516c-.123.068-.256.207-.368.192-.577-.078-1.149-.195-1.722-.299l.799-.409zM173.331 73.122c-.47.337-.849.613-1.24.869-.014.009-.234-.252-.227-.259.33-.338.671-.666 1.029-.973.017-.015.204.167.438.363zM191.777 136.331c-.212.139-.366.293-.416.264-.436-.25-.854-.531-1.266-.82l.195-.331 1.487.887zM178.635 64.814c-.486.292-.834.506-1.195.699-.013.007-.22-.285-.204-.301.266-.26.541-.517.849-.722.058-.038.267.152.55.324zM182.367 77.84l-.452-.402c.248-.219.475-.475.757-.635.082-.047.32.181.486.283l-.791.754zM236.653 121.123l-1.941-1.003c.279-.133.591-.419.832-.369.787.162 1.548.447 2.319.685l-1.21.687zM198.309 151.738c.358-.109.714-.225 1.074-.325.786-.219 1.574-.431 2.362-.645-.043.128-.067.358-.133.37-1.097.215-2.2.403-3.301.596l-.002.004zM142.913 164.222l.378-.961c.101.443.236.882.284 1.331.017.164-.175.351-.271.527l-.391-.897zM260.311 86.2l-2.093-.577c.491-.236.996-.69 1.47-.66.892.057 1.765.394 2.646.614l-2.023.623zM235.583 183.332l-.881 1.122c-.074-.269-.292-.619-.194-.79.292-.516.707-.963 1.075-1.437l-.025 1.136.025-.031z"/></svg>