<?xml version="1.0" encoding="utf-8"?>
<!-- Generator: Adobe Illustrator 22.0.1, SVG Export Plug-In . SVG Version: 6.00 Build 0)  -->
<svg version="1.1" id="Layer_1" xmlns="http://www.w3.org/2000/svg" xmlns:xlink="http://www.w3.org/1999/xlink" x="0px" y="0px"
	 viewBox="0 0 341.9 281.4" style="enable-background:new 0 0 341.9 281.4;" xml:space="preserve">
<style type="text/css">
	.st0{fill:#EDEDED;}
</style>
<g id="_x31_78VYG_1_">
	<g>
		<path class="st0" d="M279.8,243.4c0.6,1.6,1.3,3.2,1.7,4.9c0.3,1.1,0.7,2.3,0.5,3.3c-0.1,0.6-1.7,1.6-2,1.4c-2.7-2-3.8,0.2-5.1,2
			c-2.7-0.8-4.7-3.9-8.4-2.2c1.2,1.5,2.3,2.9,3.4,4.3c-0.2,0.2-0.3,0.5-0.5,0.7c-1.3-0.2-2.6-0.4-4.2-0.7c0.2,1.2,0.4,2.1,0.6,3.6
			c-1.1-0.3-2-0.2-2.7-0.7c-6.2-4.1-13.4-5-20.4-6.4c-11.7-2.4-23.5-4.5-35.3-6.4c-11.3-1.8-22.6-3.4-33.9-4.5
			c-1.8-0.2-4.4,2.1-5.6,4c-1.8,2.7-4.1,3.9-7,4.6c-4.2,1-4.2,1.1-4.2,5.6c0,4.1,0.2,8.1-0.1,12.2c-0.1,1.4-1.1,3.4-2.2,4.1
			c-7.1,4.5-14.8,7.2-23.3,7.6c-28.7,1.4-57.3,0.4-86-0.2c-3.4-0.1-6.8-0.5-10.1-1.1c-5.7-0.9-10.6-6.2-11.1-11.9
			c-0.3-3.8-0.3-7.5-0.3-11.3c0.1-19.5,0.3-39.1,0.5-58.6c0-2-0.3-2.8-2.7-2.7c-3.6,0.3-5.6-1.6-6.1-5.2c-0.5-3.4,0.1-6.5,2.4-9.2
			c3-3.5,2.5-9-0.3-12.5c-0.8-1-1.1-2.8-1.1-4.1c0.1-1.9-0.3-3.1-1.9-4.3c-4.7-3.4-5.5-7.2-3.3-12.6c0.5-1.3,0.2-3.3-0.5-4.7
			c-1.5-2.9-1.9-5.6-0.7-8.7c0.3-0.8-0.1-2.3-0.6-3c-3.8-4.6-5.3-9.9-4.9-15.8c0.3-4,0-7.7-2.4-11.3c-2.4-3.6-2.3-8-1-12
			c1-3,2.5-5.9,4-8.7c1.2-2.3,3.1-3.6,5.8-4c1.1-0.2,2.5-1.3,3-2.4c1.1-2.4,2.4-4.1,5.3-4.5c1-0.1,2.3-1.3,2.6-2.2
			c2.7-9,9.9-11.8,18.1-13.1c2.8-0.4,5.6,0.1,8.5,0c1.3-0.1,3.1-0.5,3.8-1.4c5-5.7,11.3-7.5,18.6-6.8c0.5,0,1.1,0,1.4,0.3
			c2.4,2.5,4.2,0.7,6.4-0.4c6.9-3.5,14.2-5.7,21.7-2.1c4.1,1.9,7.2,5.8,12.3,5.3c3.1,3.3,6.9,3,10.9,2.4c3-0.4,5.7,0.5,8.1,2.6
			c1,0.9,2.2,1.4,3.3,2.1c1.6,0.9,3.4,1.4,4.7,2.5c2.5,2.3,5.1,3.4,8.7,3.4c1.6,0,3.2,2.4,4.8,3.7c1,0.9,1.8,2.1,2.9,2.6
			c2.8,1.3,3.7,2.8,3.1,5.7c-0.1,0.4-0.4,0.9-0.2,1.1c2.6,2.9,1.4,6.6,2.1,9.9c0.3,1.5,0.4,3.3-0.1,4.6c-2.6,6.1-3.9,12.4-4.2,18.9
			c-0.1,1.6,0.8,2,2.1,2.4c3.4,0.8,6.9,1.5,10,2.8c2.6,1.1,4.9,3.2,7,5c1.2,1,2.1,1.6,3.7,1.1c2.6-0.8,5.3-1.3,8-2
			c1.6-0.4,2.4-1,1.3-2.7c-4-6.4-5.2-13.4-5.2-20.8c0-3.9-0.6-7.9-0.8-11.8c-0.1-2,0.1-4.1,0.6-6.1c0.7-2.4,2.5-3.8,5.1-3.6
			c1.7,0.1,2.4-0.6,2.3-2.3c-0.3-8,0-16.1-0.8-24c-0.6-5.9,1.4-10.7,4.1-15.5c2.5-4.4,4.8-8.9,7.7-13c3-4.4,6.3-8.7,10.1-12.4
			c1.7-1.6,4.8-2,7.4-2.5c4.9-0.9,9.8-1.6,14.2-4.5c1.6-1,4-1.2,6-1.2c9.2,0.2,18.4,0.6,27.7,0.9c0.4,0,0.8,0,1.1,0.2
			c6.5,3.1,13.3,5.7,18.1,11.7c3.7,4.6,7.5,9.1,11.1,13.8c3.8,4.8,6.2,10.3,6.4,16.6c0.1,4,0.7,8.1,0.7,12.1c0,2.3-0.4,4.7-0.8,7
			c-0.8,4.5-1.7,9-2.5,13.5c-0.3,1.8,0.6,2.7,2.3,3.2c3.3,0.9,4.8,2.7,4.6,6.1c-0.4,5.4-1.1,10.9-1.7,16.3
			c-0.4,3.8-0.6,7.7-1.4,11.5c-0.5,2.3-1.8,4.6-3.2,6.5c-3,4.3-4.1,9.8-8.6,13.1c-0.4,0.3-0.5,1-0.6,1.5c-1.5,10.7-7,19.4-13.4,27.7
			c-1.8,2.3-1.9,3.9,0,6c1.7,2,3.4,4.1,4.6,6.4c1.6,3,4.2,4,7.2,4.7c7.6,1.8,15.3,3.5,22.7,5.8c8.9,2.7,16.2,7.4,19.6,16.8
			c2.1,5.8,4.7,11.3,7,17c1,2.4,0.6,4.7-0.7,7c-4.3,7.8-10.7,13.5-18.5,17.3c-3.3,1.6-6.3,3.4-9.4,5.1c-2,1.1-5,1.1-7.2,0.6
			c-2.8-0.6-5.1-1.2-7.2,1.3c-1.2,1.4-2.7,1.6-4.3,0.6c-3.3-2-6.6-4-10-5.9c-0.9-0.5-1.8-0.9-2.7-1.4
			C280.2,243.1,280,243.2,279.8,243.4z M237.5,9c1,0,2.1-0.3,3.1-0.1c1.2,0.2,2.8,0.3,3.6,1.1c3.5,3.4,3.6,3.4,7.5,0.3
			c0.7-0.6,1.9-1.3,2.6-1.1c2.9,0.9,5.7,2.1,6.4,4.2c4.4,1.1,8.1,2,11.8,3c4,1.1,7.6,2.8,9.3,7c-3.4,5.8-10.3,5.6-15.4,9.8
			c0.9-2.8,2.2-3.7,5.5-5.2c0.8-0.3,1.8-1.1,2-1.9c0.4-2.1-2.1-6.2-4.1-6.5c-2.4-0.4-4.6-0.4-7-1.3c-2.5-0.9-5.5-0.4-8.2-0.3
			c-0.6,0-1.4,0.6-1.7,1.1c-0.6,0.9-1,2.1-1.4,3.1c5.8-0.1,11.1,2.9,17,1.3c-0.7,1.1-1.6,1.6-2.4,2.2c-2.1,1.3-4.2,2.5-6.2,4
			c-2.1,1.5-5.6,1.4-7.4-0.4c-1.4-1.4-3-2.5-4.4-3.9c-1-0.9-1.7-2.1-2.6-3.1c0.2-0.5-0.1-0.6-0.3-0.6c-1-0.2-2.1-0.4-3.1-0.6
			c0.5-1,0.9-2.1,1.5-3c0.7-1,1.6-1.8,2.4-2.8c-3.7-0.6-5.7,1.7-7.3,3.9c-4.4,5.9-8.5,12-12.8,17.9c-0.9,1.3-2.1,2.4-3.3,3.4
			c-0.5,0.4-1.5,0.3-2.3,0.4c0.1-0.7,0.1-1.6,0.5-2.2c2.6-3.6,5.3-7.1,8-10.6c0.6-0.8,0.8-1.7,1.2-2.6c-0.3-0.2-0.5-0.4-0.8-0.6
			c-1.4,2-4.4,0.2-5.6,3.4c-1.4,3.9-3.5,7.4-5.5,11.1c-0.4,0.7-1.3,1.1-2,1.7c-0.3-0.8-0.9-1.6-1-2.4c-0.5-3.4-0.1-7-1.4-10
			c-1.4-3.2-1.8-6.3-2.1-9.5c-0.1-1.1-0.5-2.2-0.8-3.5c-0.5,0.4-0.8,0.5-0.8,0.6c0.1,2,0.2,3.9,0.4,5.9c0.3,3.5,0.2,3.6-3.5,3.2
			c0.1,1.1-0.1,2.3,0.2,3.3c1.1,4.2,2.2,8.4,3.6,12.5c0.7,2,0.6,2.9-1.7,3.4c-2.5,0.5-5.1,4.2-5.1,6.7c0.2,0.3,0.5,0.5,0.7,0.8
			c1-1.6,1.9-3.3,3-5c0.8,1.1,1.2,1.3,1.2,1.5c0.1,5.5,1.4,10.8,3.6,15.9c0.2,0.4-0.2,1.5-0.5,1.6c-0.7,0.1-1.8,0.1-2.2-0.3
			c-0.6-0.7-0.9-1.8-1.2-2.8c-0.3-0.8-0.4-1.6-0.5-2.5c-0.3,0-0.5,0-0.8,0c-0.2,0.9-0.6,1.8-0.5,2.6c0.3,4.4,0.7,8.8,0.9,13.2
			c0,1-0.5,2.7-1,2.8c-1.9,0.5-1.7,1.6-1.4,3c0.2,0.9,0.7,2,0.4,2.6c-1.1,1.9-2.6,3.6-4,5.4c-0.8-0.5-1.5-0.8-2.8-1.6
			c-0.6,6.1-1.5,11.7,1.7,17c1,1.7,2.1,3.5,3.7,4.6c2,1.3,2.5,2.1,0.9,4.1c-2.8,3.6-2.3,7.3,1.1,10.1c2.9,2.4,5.7,5,6.1,8.9
			c0.5,5.1,3.7,8.9,5.6,13.4c0.9,2,2.1,4.6,1.5,6.4c-1.5,4.5,0.6,7.3,3.3,10.2c0.4,0.5,0.7,1.1,1.1,1.6c6.2,9.3,13.9,15.6,26,13.8
			c0.5-0.1,0.9,0,1.4,0c6.2-0.1,11.6-2.4,15.9-7c3.6-3.8,7.1-7.6,10.2-11.7c7.4-9.7,13.1-20.2,13.7-32.9c0.2-4.8,1.4-9.5,2.2-14.2
			c0.4-2.3,1.4-4.6,1.2-6.9c-0.5-5.9,1-10.9,4.7-15.4c1-1.2,1.6-2.7,2.5-4.1c0.3-0.5,0.8-0.9,1.2-1.3c0.3,0.1,0.7,0.2,1,0.3
			c-0.4,1.6-0.4,3.3-1.1,4.7c-1,2-2.6,3.7-3.6,5.7c-0.4,0.7-0.4,2.1,0,2.7c3.1,3.8,3,9-0.9,11.8c-1.9,1.4-2.7,3-3.2,5
			c-0.5,2-1.1,4-1.4,6.1c-0.3,2-0.3,4.1-0.4,6.2c0.3,0.1,0.6,0.2,0.9,0.3c0.5-0.8,1-1.6,1.5-2.4c1.3-2.5,2.4-5.2,4.1-7.4
			c4.6-5.9,4.6-12.5,3.3-19.4c-0.4-2-1.2-3.9,1.7-4.8c0.3-0.1,0.7-0.7,0.7-1.1c0.2-2.7,0.7-5.5,0.3-8.1c-0.2-1.2-2-2.6-3.4-3.1
			c-1.8-0.7-2.9,0.9-3.4,2.6c-0.2,0.8-0.4,1.7-0.9,2.4c-1,1.2-2.2,2.3-3.3,3.4c-0.7,0.8-1.5,1.5-2.1,2.3c-0.5,0.7-1,1.4-1.5,2.1
			c-0.6-0.5-1.5-1-1.7-1.6c-0.2-0.7,0.1-1.9,0.7-2.3c1.7-1.3,2.3-2.9,1.8-5c-0.8-3.2-1.6-6.4-2.4-9.7c-3.4,0.7-3.7-2-4.2-3.9
			c-0.4-1.5-0.2-4.1,0.8-4.8c4.2-2.9,8.8-5.3,13.3-7.9c0.1,0,0.3,0.2,0,0c-0.6,2.5-1.5,4.7-1.6,7c0,2.1-0.3,3.7-2.2,4.8
			c-0.5,0.3-0.9,0.8-1.6,1.5c4.5-0.9,5.9-2.6,6-6.3c0-1.2-0.3-2.7,0.3-3.6c2.6-3.9,1.5-8.2,1.5-12.4c0-9.7-2.9-18.2-9.2-25.8
			c-2.6-3.1-5.3-5.9-8.2-8.7c-4.7-4.7-9.8-8.6-15.8-11.3c-4.3-1.9-9.1-2-13.3,0.5c-2.5,1.5-4.4,3.3-7.8,3c-3.3-0.3-4.3-0.4-5.4-3.9
			C240.8,5.6,237.8,5.8,237.5,9c-3.5,0.5-7.4,4.1-8,8.2C232.5,14.2,235,11.6,237.5,9z M29.5,157.9c-0.4-0.1-0.8-0.1-1.2-0.2
			c-0.2,1.1-0.6,2.1-0.7,3.2c-0.1,7.5-0.1,14.9-0.2,22.4c0,1.1,0,2.4-0.5,3.3c-0.6,0.9-1.9,1.2-2.9,1.8c-0.3-1-1-2-0.9-2.9
			c0.3-1.8,1.5-3.6,1.5-5.4c0-6.7-0.3-13.4-0.3-20c0-1.3,0.4-3.1,1.3-3.7c2.3-1.5,2.6-3.4,2.7-5.8c0.1-2.5-0.5-5.3,1.9-7.4
			c3.6-3.2,3.7-4.9,1.1-9.1c-1.3-2-1.4-3.3,1.2-4.2c2.7-1,3.6-3.3,2.6-5.7c-1.6-4-1.5-4.8,1.6-7.5c1.5-1.3,2-2.6,1.8-4.7
			c-0.1-1.2,0.7-3.2,1.8-3.9c1.7-1,1.9-2.2,2.1-3.9c0.2-1.2,1.1-3,1.9-3.2c3.9-0.7,6.1-3.3,7.8-6.4c1.1-2.1,2.6-2.5,4.6-1.5
			c2.9,1.5,5.5,0.9,7.7-1.3c0.7-0.7,1.3-1.5,2.2-1.8c0.7-0.3,1.7,0,2.5,0c0,0.9,0.2,1.9-0.2,2.6c-0.3,0.7-1.2,1.1-1.9,1.7
			c-1.7,1.6-1.8,3.3-0.2,4.9c1,1,2.2,1.7,3.5,2.4c3.2,1.6,5.7,0,8.4-1.6c1-0.6,3-1.1,3.7-0.5c5.1,3.7,5.1,3.8,6.8-2.2
			c0.9-3,3.3-4.2,6.1-2.6c1.6,0.9,2.9,2.5,4.5,3.9c1.7-1.8,3.3-3.8,5.2-5.6c0.8-0.7,2.2-1.4,3.1-1.1c2.1,0.6,3.8,0,5.1-1.5
			c1.3-1.5,2.6-1.5,4.3-1c3,1,4,0.4,5.3-2.3c0.4-0.8,1.7-1.2,2.6-1.7c0.8-0.5,2.2-1,2.2-1.6c0.1-4.1,3.4-5.2,6.2-6.5
			c2-1,3.1,0.1,3.2,2.6c-1,0.1-1.9,0.3-3,0.4c1,2.6,1.7,2.8,4.1,1.2c2-1.3,4.1-2.3,6.2-0.7c2,1.5,2.6,3.6,1.1,6
			c-0.3,0.5,0.2,1.5,0.3,2.3c0.6-0.3,1.2-0.6,1.8-0.9c0.3-0.2,0.5-0.5,0.8-0.7c3.3,1.8,3.4,2.2,1.4,5c-1.9,2.6-1.3,4,1.8,4.8
			c0.4,0.1,0.8,0.4,1.3,0.6c-1.8,2.9-2.2,5.8-0.3,8.7c1-1.9,1.4-3.8,1.8-5.7c0.3-1.4,0-3,0.6-4.1c2.4-4.8,2.6-5.3,1.9-9.9
			c-0.1-0.6,0.6-1.4,0.6-2.1c0-1.4,0.3-3.3-0.5-4.1c-1.4-1.3-1.4-2.4-1.1-4c0.3-1.6-0.1-2.8-2-3.4c-1.1-0.4-2-1.6-2.6-2.6
			c-1.8-3.3-4.4-4.2-7.6-2.2c-1.7,1.1-2.3,0.5-3.2-1.1c-0.8-1.4-2-2.7-3.3-3.6c-2.1-1.5-4.6-2.4-6.5-3.9c-3.5-2.7-7.4-2.7-11.3-2
			c-2.3,0.5-4,0.3-5.6-1.5c-1.9-2-4.2-2.8-6.9-2.1c-2.1,0.6-3.4,0-4.1-2.2c-0.3-0.8-1.1-1.5-1.9-1.9c-4.7-2.1-9.5-2.7-14.6-1.2
			c-3.8,1.1-7.1,3-9.8,5.8c-1.4,1.5-2.8,1.9-3.7-0.7C72,53.2,70.7,52,69.7,52c-5.4-0.3-10.6,0.4-14.4,4.9c-1.3,1.6-2.6,3.2-4,4.8
			c-1.2,1.3-2.5,2.1-3.8-0.2c-0.3-0.6-1.3-1.2-2-1.3C40,59.5,34.8,61,29.9,63.7c-3.5,1.9-4.6,5.3-5.3,8.9c-0.3,1.6-1.3,2.5-2.9,2.4
			c-3.3-0.2-5,1.5-5.6,4.7c-0.3,1.9-1.3,3.5-3.6,3c-2.5-0.6-4,0.9-5.1,2.6c-4,6.1-5.2,12.3-1,19.1c1.3,2.1,1.7,5.3,1.4,7.8
			c-0.6,4.6,0,8.8,1.9,12.9c0.8,1.7,2,3.7,3.6,4.6c2.4,1.4,2.4,2.6,0.9,4.4c-1.7,2-1.7,4.2-0.5,6.3c0.8,1.5,2.1,2.7,2.8,4.2
			c0.3,0.6,0.3,2.1-0.1,2.4c-2.3,1.3-3.7,3.3-3.2,5.8c0.5,2.6,2.3,4.6,5,5.3c2,0.5,2.4,1.3,1.7,3.2c-0.8,2.1-0.6,4,1.8,5.3
			c0.8,0.4,1.3,1.8,1.4,2.8c0.2,1.7-0.1,3.4,0,5.1c0.2,2.8-0.6,5-2.3,7.3c-1.3,1.7-2,4.1-2.1,6.2c-0.3,3.3,2.3,4.9,5.4,3.8
			c1-0.4,2.1-0.6,3.4-1c0,2.1,0,3.8,0,5.4c-0.2,22.9-0.5,45.8-0.7,68.7c0,3.8,0.9,7.8,4.7,9.6c2.8,1.4,6.1,2.4,9.2,2.5
			c29.2,1.2,58.4,2.1,87.7,0.6c7.1-0.4,14-1.3,20.6-4.4c3.2-1.5,5.3-3.4,4.7-7.3c-0.2-1.4,0-2.8,0-4.2c0-10.6-0.1-21.3,0.1-31.9
			c0.1-5.4,0.8-10.9,0.8-16.3c0-32.5-0.1-65.1-0.2-97.6c0-1.1-0.6-2.1-0.9-3.2c-0.7,1.1-1.4,2.2-2,3.3c-0.1,0.2,0,0.6,0,0.8
			c0,9.7-0.1,19.4,0.1,29.1c0.6,38.1,2,76.2-0.5,114.3c-0.2,2.6-1.3,5.1-2,7.6c-0.4,0.5,0.3,1.5,0.1,2.1c-0.8,2-7,4.1-9.2,3.2
			c1.1-0.7,2.1-1.4,3.7-2.5c-1.1,0.1-1.5,0-1.9,0.1c-5,1-9.9,2.8-14.9,3c-17,0.8-33.9,1.1-50.9,1.4c-5.8,0.1-11.6-0.7-17.5-0.9
			c-4.9-0.2-9.9-0.8-14.7,0.1c-3.4,0.7-6.2,0.4-9.3-0.4c-4.7-1.3-7.3-7.2-4.5-12c0.6,2.7,0.5,5,1.5,6.5c1,1.6,2.5,3.7,5.8,3.2
			c-0.9-1.2-1.4-2-2.1-2.6c-2.8-2.1-3.4-4.9-3.5-8.2c-0.1-7.6-0.4-15.3-0.5-22.9c-0.4-25.6-0.8-51.1-1.2-76.7
			C29.8,160.1,29.6,159,29.5,157.9z M52.9,222.2c0.6,0.4,1.1,0.6,1.2,0.8c0.7,1.3,1.4,2.9,3.1,1.9c1.1-0.7,2.3-2.2,2.3-3.4
			c0.7-9,1.6-18,1.3-26.9c-0.2-4.7-0.7-9.3-0.2-14.1c0.7-7,0.4-14.1,0.5-21.2c0-1.4,0.6-2.7,0.7-4.1c0.1-1.4,0.1-2.9,0.1-4.4
			c-0.1-1.2-0.5-2.4-0.6-3.6c-0.2-5.1,0.6-10,2.2-14.9c0.8-2.7,0.5-5.8,0.6-8.8c0-0.6-0.2-1.3-0.2-2c0.2-6.3,0.6-12.6,0.4-18.9
			c0-1.8-0.4-4.3-3.3-4.5c-2-0.1-4-0.3-6.4-0.4c-1.1,4.9-8.2,5.6-9.3,11.3c-0.1,0.5-1,0.9-1.4,1.4c-0.5,0.6-0.9,1.2-1.7,2.3
			c1.4,0.1,2.3,0.3,3,0.2c2.7-0.3,3.9,0.8,3.7,3.4c-0.1,1,0.1,2.1,0.1,3.1c0,10.9,0.1,21.8,0,32.7c-0.1,7.8-0.6,15.6-0.9,23.4
			c0,1-0.3,2.2,0,3.1c0.9,2.6,1.6,5-0.2,7.5c-0.2,0.3,0.2,1,0.2,1.6c0.1,1.4,0.5,3,0.1,4.3c-1.3,5.1-2.6,10.2-1.5,15.5
			c0.5,2.6,1.2,5.6,0.5,8c-0.8,3.1-0.7,5.9,0.2,8.8c0.2,0.7,1,1.7,1.7,1.8c0.7,0.1,1.7-0.6,2.2-1.3
			C52.3,224.3,52.5,223.3,52.9,222.2z M210.6,136.1c-0.6-2.3-0.5-4.2-1.5-5.3c-4.6-5.3-9.5-10.3-17.5-8.6c-3.6,0.7-7.1,1.8-10.6,2.9
			c-0.8,0.2-1.8,1.3-1.9,2c-0.2,2.5-0.2,5.1,0,7.6c0,0.5,0.8,1.4,1.3,1.5c0.5,0,1.6-0.6,1.7-1.1c0.2-2,0.9-3.4,3.2-3.5
			c1.7-0.1,3.4-0.5,5-0.7c0.1,0.3,0.2,0.5,0.3,0.8c-1.9,1.9-3.7,3.7-6.1,6c1.8-0.1,2.6-0.1,3.5-0.2c0.1,0.2,0.2,0.4,0.3,0.6
			c-0.9,0.8-1.8,1.7-2.8,2.4c-5.7,4.1-7,9.9-6.2,16.5c0.8,6.2,1.7,12.3,2.5,18.4c0.2,1.6,0.3,3.3,1.1,4.6c4,6.8,16.7,8,20.8-0.2
			c3.7-7.3,7.8-14.3,11.8-21.5c2.3-4.3,2.2-8.5-0.5-12.5c-2.8-4.3-6.6-7.4-11.1-9.8c-0.9-0.5-1.6-1.2-2.4-1.8
			c0.2-0.4,0.4-0.8,0.6-1.2C204.7,133.9,207.2,134.8,210.6,136.1z M217.5,160.8c-4.6,4.3-4.6,5.1-1.2,9.3c0.5,0.6,0.9,1.2,1.4,1.7
			c15.6,17.3,31.2,34.5,46.8,51.8c0.3,0.4,0.8,0.6,2,1.3c0-3.3-0.1-5.9,0-8.5c0.3-8,0.7-16,1.2-24c0.1-2.5-1.4-4-3.2-4.3
			c-2.3-0.3-1.4,2.2-1.6,3.4c-1.1,5.5-2.1,11.1-3.2,16.6c-0.2,0.8-1,1.5-1.5,2.2c-0.4-0.1-0.7-0.3-1.1-0.4c1.8-10.3,3.8-20.5,5-31.5
			c-1.5,0.7-2.1,1-2.8,1.3c-0.8,0.3-1.5,0.8-2.4,0.9c-11.9,1.8-23.3,1.5-31.6-9.2c-1.5-1.9-2.9-3.9-4.3-5.9
			C219.9,164.1,218.8,162.5,217.5,160.8z M91.1,119.5c0.8-0.5,1-0.6,1.1-0.7c0.4-1.7,0.3-4.1,1.4-4.8c1.3-0.9,3.6-0.3,5.5-0.3
			c8.7-0.3,17.4-0.7,26.2-0.7c2.9,0,3.5-1,3.5-3.6c-0.2-5-0.1-10-0.2-15c-0.1-3,1.4-4.7,4.3-5.7c0.7,2.1,1.6,3.9-0.8,5.5
			c-1.3,0.9-1.5,2.1-0.1,3.3c1.8,1.5,1.6,3.1,0.4,4.9c-0.5,0.7-0.7,2.6-0.3,2.9c2.4,1.7,1.8,3.1,0.1,4.8c-0.5,0.5-0.9,1.4-0.7,2
			c0.2,0.5,1.2,0.9,1.8,0.8c2.3-0.1,2.9,1,2.8,3.1c-0.1,6.4-0.1,12.8-0.1,19.2c0,0.9,0.1,1.9,0.2,2.8c0.3,0,0.7,0,1,0
			c0-1.2,0.1-2.5,0-3.7c-0.1-2.2,0.1-3.9,2.9-4.3c0.6-0.1,1.4-1.3,1.5-2c0.5-5.9,0-11.8,1.3-17.8c1.3-5.6,0.3-11.8,0.3-17.7
			c0-0.7-0.2-1.5-0.3-2.2c-0.8,0.6-1,1.1-1,1.7c0,4.3,0.1,8.7,0.1,13c0,1,0.3,2.3-0.2,3c-0.8,1.1-2.2,1.7-3.3,2.6
			c-0.4-1-1-1.9-1-2.9c0.1-2,0.6-3.9,1-6c-3.7-2.3-3.7-2.4,0.1-4.8c0.6-0.4,1.1-1.4,1-2.1c-0.1-0.5-1.1-0.9-1.7-1.3
			c-0.6-0.4-1.8-0.7-1.8-1.1c0-1,0.2-2.3,0.8-3c0.6-0.7,1.8-0.8,2.8-1.3c0.8-0.4,1.9-0.8,2.2-1.4c0.3-0.8-0.3-1.9-0.4-2.9
			c-1,0.3-2.2,0.3-3,0.9c-1.8,1.1-3.3,1.4-5.1-0.2c-1.5-1.4-2.8-0.7-3,1.1c-0.3,2.7-1.5,3.9-4.2,3.7c-0.6,0-1.4,0.6-1.7,1.2
			c-1.2,2.6-3.2,2.8-5.7,2.4c-1-0.2-2,0-3.5,0c2.8,3.1,2.1,6.3,1.8,9.3c-0.1,0.8-1.4,1.4-2.2,2.1c-0.5-0.8-1.5-1.6-1.5-2.4
			c0.1-2.4,0.6-4.9,0.9-7.2c-1.9,0.4-4,0.9-6.1,1.5c-2.2,0.6-3.6,3.5-3.7,5.8c-0.1,1.5-0.9,3.8-2.1,4.3c-1.9,0.9-3.8-0.3-4.7-2.4
			c-0.4-0.8-0.1-2-0.5-2.7c-0.7-1.1-1.7-2-2.6-3c-0.6,0.9-1.6,1.8-1.7,2.8c-0.2,3.3-2.1,4.9-6.4,4.5c-1.3-0.1-2.6-1-4-1.3
			c-0.6-0.1-2,0.5-2,0.8c-0.1,3.1-0.2,6.2,0,9.3c0.1,0.7,1.2,1.6,2,1.9c0.3,0.1,1.4-0.9,1.7-1.6c0.9-2.6,3-1.6,4.5-1.4
			c0.9,0.1,1.9,1.4,2.3,2.4C91.1,116.7,91,118,91.1,119.5z M82.3,218.4c0.2,0,0.4,0,0.5,0c0.2,1.3,0.2,2.6,0.6,3.9
			c0.3,1,1,1.9,1.6,2.8c0.6-1,1.8-2,1.8-3c0-9.5-0.2-18.9-0.2-28.4c0-3.5,0.7-7.1,0.8-10.6c0.1-6.9,0-13.8,0.1-20.6
			c0-1.9,0.6-3.7,0.6-5.6c0.1-4.1,0.1-8.3,0.2-12.4c0.1-6.7,0.2-13.3,0.1-20c0-2.3-1.3-3.5-3.8-3.5c-4.8,0-4.8-0.1-4.7,4.8
			c0,0.8,0.1,1.5,0,2.3c-0.5,9,1.1,18.1-1.2,27c-0.2,0.8,0,1.7,0.1,2.5c0.6,4.6,1.2,9.3,1.8,13.9c0.1,0.8,0,1.7-0.1,2.5
			c-0.2,4-0.4,8-0.6,12c-0.2,4.6-0.4,9.2-0.7,13.8c-0.1,2.1-0.5,4.3-0.5,6.4c0,2.3,0.5,4.7,0.6,7c0.2,3.7,0.1,7.4,0.3,11
			c0,0.6,0.8,1.2,1.3,1.8c0.3-0.6,0.9-1.2,0.9-1.8C82.1,222.2,82.1,220.3,82.3,218.4z M170.9,216.2c-0.2-0.4-0.4-0.7-0.6-1.1
			c0.9-1.3,1.4-3,2.6-3.7c3.9-2.3,5.3-5.6,5.2-9.9c-0.1-2.4,0.1-4.7,0.2-7.1c0.1-2-0.7-3.3-2.4-4.5c-5.2-3.5-11-4.8-17.2-4.4
			c-1.5,0.1-2.2,0.7-2.2,2.2c0,8.9,0,17.7,0.1,26.6c0,0.7,1.1,2,1.7,2C162.5,216.5,166.7,216.3,170.9,216.2z M176.4,145.8
			c-1.3,0.9-2,1.4-2.8,1.9c-2.3,1.5-5.3,0.8-6.2-1.5c-0.2-0.6,0-1.4,0-2.1c0.7,0.1,1.6,0.1,2,0.5c2.2,2,4,1,5.1-1
			c1-1.8,1.9-3.9,2.1-6c0.2-2.8-0.6-5.6-0.8-8.4c-0.3-4.8-2.7-8.2-7.1-10c-2.7-1.2-5.7-2-8.6-2.6c-3.1-0.6-3.4-0.1-3.4,3
			c0,9.1,0.1,18.3,0.1,27.4c0,4.4,1.1,5.3,5.4,4.2c0.9-0.2,2.2-0.3,2.8,0.2C169.5,155.1,175.3,151,176.4,145.8z M169.3,180.8
			c1.4,0,2.6,0.3,3.4-0.1c1.1-0.4,2.6-1.2,2.9-2.1c2.3-5.8,3-11.8,1.5-18c-0.6-2.6-2-4.4-4.6-4.8c-4.7-0.7-9.5-1.1-14.3-1.4
			c-0.5,0-1.6,1.3-1.6,2.1c-0.1,8-0.1,16-0.2,24c0,1.8,0.8,2.5,2.5,2.5c3.2,0,6.4,0.1,9.6,0.2c0.3,0,0.5-0.1,0.9-0.2
			C169.6,182.5,169.5,181.9,169.3,180.8z M138.5,230c-2.1-1-3.2-1.7-4.4-2.2c-1.5-0.7-3.1-1.4-4.7-1.8c-4.4-0.9-8.2,0.4-11.6,3.2
			c-1.3,1-2.4,1.4-4,0.4c-6.7-4-13.4-3.5-19.6,0.9c-2.8,2-5.1,2.1-8,0.3c-2.3-1.4-4.8-2.5-7.4-3.6c-5.4-2.3-10.5-1.4-15.2,2.1
			c-2.2,1.6-4.5,3.2-7.2,0.6c-0.3-0.3-1-0.1-1.5-0.1c-0.1,0.4-0.2,0.6-0.1,0.7c0.2,0.3,0.3,0.8,0.6,0.9c3.5,1.8,3.8,4.8,3.6,8.2
			c-0.1,2-0.1,4,0,5.9c0,0.5,0.3,1.1,0.4,1.6c0.2,0,0.5,0,0.7,0c0.2-1.1,0.5-2.3,0.6-3.4c0.1-2.6,0.1-5.3,0.3-7.9
			c0.1-0.9,0.2-2.2,0.8-2.6c3-1.8,6-4,9.3-4.9c5.2-1.3,9.6,1.8,14.1,4c2.5,1.2,3.9,3.1,3.6,6.1c-0.2,1.8,0,3.6,0,5.5
			c0.3,0,0.6,0,1,0c0.2-2,0.3-4.1,0.5-6.1c0.2-1.2,0.3-2.7,1.1-3.4c5.9-5.6,14.7-8.9,22.3-2.4c1.7,1.4,2.8,1.2,4.3-0.3
			c5.6-5.6,10-6.1,16.7-2.2c1.7,1,2.5,2.2,2.3,4.1c-0.1,1.2,0,2.5,0,3.7c0.3,0.2,0.6,0.3,0.9,0.5c1.7-5.5,5.3-8.3,11.3-8.3
			c-1.4-2.5-3.2-2.2-4.8-1.5c-2.5,1.1-3.5,0-3.7-2.4c-0.1-0.9-0.1-1.9-0.1-2.8c-0.1-8.3-0.2-16.6-0.3-24.9c0-0.8-0.5-1.6-0.8-2.4
			c-0.4,0.1-0.7,0.1-1.1,0.2C138.5,206.9,138.5,218,138.5,230z M274.9,166.3c-2.3,2.8-4.5,4.8-5.7,7.3c-0.5,1.1,1.3,3.3,2.1,5
			c0.7,1.4,1.6,2.8,2.2,4.2c1.5,3.4,3,6.6,6.9,8c1,0.4,1.8,1.6,2.6,2.5c0.8,0.8,1.5,1.8,2.2,2.7
			C284.3,185.4,279.6,176.3,274.9,166.3z M157.7,249.4c0.9-0.3,2.4-0.6,3.8-1.2c0.6-0.2,1.2-0.8,1.8-1.2c-0.5-0.5-1.1-1.1-1.6-1.6
			c-0.7-0.8-1.7-1.7-1.7-2.6c0-0.8,1.3-1.5,2-2.2c0.7-0.7,1.9-1.2,2.1-2.1c1.8-5.4,1.7-10.7-0.8-15.9c-0.4-0.9-1.1-1.9-1.9-2.3
			c-1.1-0.5-2.6-0.8-3.7-0.5c-0.6,0.1-0.9,1.8-1,2.8c-0.2,1.5,0,3-0.1,4.5c-0.1,1.6,0.3,2.7,1.9,3.3c0.6,0.2,1,1,1.4,1.5
			c-0.5,0.4-1.1,0.9-1.6,1.4c-0.5,0.5-1,1-1.6,1.4c0.5,0.5,1,1.1,1.6,1.3c1.9,0.8,1.9,1.9,0.1,2.6c-2.2,1-2,2.8-1.8,4.5
			C156.9,245.1,157.3,247,157.7,249.4z M134,235.1c-1.8-2.7-7.7-4.1-10.2-2.7c-2.3,1.3-3.6,2.9-3.6,5.8c0.1,6.9-0.4,13.8-0.5,20.6
			c0,1.9,0.1,3.8,0.7,5.6c0.5,1.4,1.6,2.6,2.7,3.7c0.4,0.4,1.6,0.1,2.4,0.1c-0.1-0.8,0-1.6-0.2-2.3c-0.5-1.9-1.6-3.7-1.7-5.6
			c-0.2-5.7-0.1-11.5-0.2-17.2c0-3.2,1.6-5.4,4.5-6.5C129.8,235.8,131.8,235.6,134,235.1z M40.7,270.6c0,0.4,0,0.7-0.1,1.1
			c2.7,0,5.3,0,8,0c2.3,0,2.3-1.6,1.2-2.8c-1.3-1.3-3.2-1.8-4.7-3c-1.1-0.9-2.6-2.2-2.7-3.3c-0.4-4.8-0.5-9.6-0.3-14.4
			c0-1.6,0.7-3.5,1.8-4.5c1.4-1.4,3.4-2.2,5.2-3c1.3-0.6,2.9-0.9,2-2.9c-0.9-2.1-4.6-3.2-7.9-2.5c-2.5,0.6-3.4,2.3-3.4,4.8
			c0.1,7.5,0.1,15,0,22.6c0,2.4,0.4,4.4,2.9,5.6c0.5,0.2,0.8,1,1.5,1.9C42.7,270.4,41.7,270.5,40.7,270.6z M105.3,270.7
			c0.1-0.4,0.3-0.7,0.4-1.1c-4.6-0.6-4.8-3.9-5.1-7.2c-0.1-1.4-0.3-2.8-0.2-4.2c0.6-7.5,0.1-15.4,9.1-18.9c1.8-0.7,0.9-2.4-0.5-2.5
			c-2.2-0.2-4.9-0.4-6.8,0.6c-5.5,2.7-6.9,7.6-5.5,15.1c0.8,3.9,1.1,8,1.5,12c0.3,2.9,2.1,5.5,4.9,6.3
			C103.8,270.9,104.6,270.7,105.3,270.7z M192,195.5c-0.1-0.3-0.2-0.6-0.3-1c0.7-0.4,1.5-0.8,2.2-1.2c1.5-0.8,3-1.6,4.4-2.5
			c0.4-0.2,0.6-1.2,0.5-1.5c-0.3-0.4-1-0.9-1.6-0.8c-3.2,0.2-6.4,0.3-9.6,0.7c-5.5,0.8-6,1.5-6,7c0,0.8,0,1.7,0,2.5
			c0,2.5,0.8,3.2,3.3,2.4c3.2-1,6.4-2.2,9.5-3.5c0.9-0.3,1.5-1.3,2.2-1.9c-0.1-0.2-0.3-0.4-0.4-0.7
			C194.7,195.3,193.3,195.4,192,195.5z M65.6,252.7c0.1,0,0.3,0,0.4,0.1c0.2,3.3,0.3,6.6,0.7,9.8c0.1,0.8,1.1,1.5,1.7,2.2
			c0.3-0.8,1-1.5,1-2.3c0.1-2.6,0.1-5.3-0.1-7.9c-0.6-6.2,1.7-10.8,7-14c1.8-1.1,1.6-2.3,0.2-3.5c-3.3-2.9-8.3-1.6-9.3,2.8
			C66.2,244.1,66.1,248.4,65.6,252.7z M293.9,224.9c-1-1-1.9-2.3-3.1-3c-6.2-3.3-12.5-6.5-18.8-9.6c-0.8-0.4-2-0.1-3-0.1
			c0.4,0.9,0.6,2.3,1.3,2.7c6.7,4.1,13.6,8.1,20.4,12.1C292.4,227.9,293.5,227.6,293.9,224.9z M295,241.6c0.3-0.3,0.5-0.6,0.8-0.9
			c-0.7-1-1.3-2.3-2.2-2.9c-7.6-4.3-15.3-8.5-23-12.6c-0.6-0.3-1.7,0.2-2.6,0.4c0.3,0.9,0.3,1.9,0.8,2.7c0.4,0.6,1.2,0.8,1.9,1.2
			c6.5,3.4,13,6.8,19.6,10.1C291.8,240.3,293.4,240.9,295,241.6z M186.5,103.9c-0.3,0.5-0.6,0.8-0.5,0.9c2.7,4.7,5.2,9.5,8.2,14
			c0.8,1.3,2.5,0.6,2.4-1.2c-0.2-3.5,0.4-7.1-2.9-9.9c-2.5-2.2-2.7-7.3-1.1-10c1.9-3.2,1.7-3.8-2-5.9c-1.4,4.3-3.2,8.3-0.7,12.7
			c1.2,2.2,2.4,4.5,3.5,6.8c0.2,0.4-0.1,1.1-0.2,1.7c-0.6-0.2-1.2-0.3-1.7-0.6c-0.5-0.4-0.8-1-1.1-1.6
			C189.1,108.6,187.9,106.3,186.5,103.9z M291.3,212.4c0.1-0.4,0.1-0.7,0.2-1.1c-0.9-1.1-1.7-2.5-2.8-3.2c-5.1-3.1-10.2-6-15.4-8.9
			c-0.8-0.4-2-0.2-3-0.2c0.3,1.1,0.3,2.7,1,3.2c5.8,3.7,11.6,7.3,17.5,10.7C289.4,213.3,290.4,212.6,291.3,212.4z M44.2,125.2
			c-0.4-0.1-0.8-0.1-1.2-0.2c-0.3,1.6-0.7,3.2-0.8,4.8c-0.5,5.7,0.9,11.4,0.2,17.2c-0.7,6.5-0.3,13.2-0.3,19.8
			c0,0.8,0.3,1.6,0.4,2.5c0.5,0,0.9,0,1.4-0.1C44.7,154.5,44.7,139.9,44.2,125.2z M215.4,24.9c2.9-5.3,5.5-10.2,8.4-15.5
			c-2.8,0.3-5.1,0.2-7.3,0.8c-1,0.3-2.2,1.9-2.3,2.9c-0.2,3.3,0,6.6,0.2,9.8C214.4,23.7,215,24.3,215.4,24.9z M176.9,227.6
			c-0.4-1.4-0.8-3.1-1.4-4.8c-0.1-0.4-0.9-0.8-1.3-0.8c-0.3,0-0.9,0.7-0.9,1.1c0.2,6.3-1.4,11.8-5.6,16.6c-0.3,0.4,0.1,1.5,0.2,2.2
			c0.7-0.2,1.6-0.1,2-0.5C173.6,237.7,176.3,233.4,176.9,227.6z M195.5,92.7c1.2-4.9-2.2-12.9-5.8-14.3c-0.9-0.4-2.3,0.1-3.3,0.6
			c-0.3,0.2-0.2,2,0.3,2.6c1.8,2.6,3.8,5.1,5.7,7.7C193.3,90.3,194.3,91.3,195.5,92.7z M75.5,271.9c2.4,0,4.7,0.1,7-0.1
			c0.6,0,1.2-0.8,1.9-1.2c-0.5-0.6-1-1.4-1.6-1.6c-0.8-0.3-1.9-0.1-2.8-0.2c-3.5-0.3-7.1-0.8-10.6-1c-1.2-0.1-3.2,0.5-3.4,1.1
			c-0.5,1.9,1.2,2.5,2.8,2.6C71,271.7,73.3,271.7,75.5,271.9z M293.8,246.9c1.5-2.6,0.7-3.5-0.9-4.3c-5.9-3-11.9-6.1-17.8-9.1
			c-0.5-0.3-1.2-0.3-1.9-0.5c1,2.6,2,3.2,4.2,3.7c1.3,0.3,2.6,1.1,3.8,1.9C285.4,241.3,289.5,244,293.8,246.9z M165.4,218.7
			c1,5.4,1.9,10,2.7,14.6c2.2-4.2,2.5-8.4,0.5-12.5C168.2,219.9,166.7,219.5,165.4,218.7z M189.1,208.1c-5.4,2-11.6,1.8-15.6,6.7
			C179,213.2,185,212.7,189.1,208.1z M284.7,200.2c0.1-0.2,0.3-0.5,0.4-0.7c-1-0.7-1.9-1.6-3-2.2c-2.6-1.5-5.3-2.8-8-4.1
			c-0.7-0.3-1.7-0.2-2.5-0.3c0.4,0.8,0.7,2,1.4,2.4c3.3,1.8,6.7,3.3,10.2,4.9C283.6,200.4,284.2,200.2,284.7,200.2z M142,252.2
			c0.3,0,0.7,0.1,1,0.1c0.2-2.3,0.8-4.7,0.6-7c-0.4-4.1-1-8.1,2.8-11c0.2-0.2,0.2-0.6,0.4-1.3c-3.2,0.7-4.5,2.9-4.7,5.2
			C141.7,242.8,142,247.5,142,252.2z M192.4,201.7c-2.5-0.4-10.1,3-11.3,5.1C183.9,208.3,190.9,205.2,192.4,201.7z M186.4,95.2
			c3.8-3.1,3.2-8.8-1.3-11.4C185.6,87.6,186,91.4,186.4,95.2z M179,177.5c-1.8,3.7-3.7,6.6-8,5.9c3.5,2.5,5.3,2.7,7.2,0.8
			C179.9,182.6,181.1,180.7,179,177.5z M74.9,109.4c0-0.7,0.2-1.4,0-2c-0.3-0.8-1-1.4-1.5-2.2c-0.6,0.7-1.5,1.3-1.7,2.1
			c-0.3,0.9-0.3,2.1,0,3.1c0.3,1,0.9,2.4,1.7,2.6c1.9,0.4,1.5-1.3,1.6-2.5C74.9,110.1,74.9,109.7,74.9,109.4z M102.1,273
			c-3.7-1-5.8-3.7-7.2-7.4C93,270.7,96.5,274.2,102.1,273z M145.4,110.5c0.3,0,0.5,0,0.8,0c1.1-3.3-0.9-7,1.1-10.8
			c0.8,1.3,1.2,2.1,1.8,3.1c0.7-3,0.3-3.5-3.7-5.2C145.4,101.9,145.4,106.2,145.4,110.5z M270.2,217.3c-0.2,0.3-0.5,0.7-0.7,1
			c4.3,3.3,9.5,5.1,14.1,7.9c0.1-0.2,0.3-0.4,0.4-0.6C279.4,222.8,274.8,220.1,270.2,217.3z M202,50.4c-0.1-2,0.1-3.6-0.3-4.9
			c-0.2-0.8-1.4-1.2-2.2-1.8c-0.4,0.8-1.2,1.6-1.3,2.4C198.1,48.2,199.4,49.4,202,50.4z M297,107.1c2-1.8,2.9-5.8,2-7.2
			c-0.2-0.3-0.8-0.7-1.1-0.6c-0.3,0-0.8,0.6-0.8,1C296.9,102.3,297,104.5,297,107.1z M202.6,25.7c-2.9,3.1-3.1,4.6-1.3,6.7
			c0.4-0.9,0.6-2.4,1.3-2.8C205.4,28.2,203.8,27.2,202.6,25.7z M66.9,112.1c0.3,0,0.6,0,0.8,0c0-2.6,0-5.2,0-7.9c-0.3,0-0.6,0-0.8,0
			C66.9,106.8,66.9,109.5,66.9,112.1z M78.1,105.4c-0.4,0-0.8-0.1-1.3-0.1c-1.1,2.3-0.8,4.6-0.3,6.9c0.4,0,0.7,0,1.1,0.1
			C77.9,110,78,107.7,78.1,105.4z M129.2,119.5c1-1,1.7-1.8,2.4-2.5c-0.5-0.4-1.2-1.1-1.6-1c-1.2,0.4-2.3,1.1-3.5,1.7
			C127.3,118.1,128.1,118.6,129.2,119.5z M138.9,251.5c-0.4,0-0.8,0-1.2,0.1c0.1,2.3,0.2,4.7,0.3,7c0.3,0,0.6,0,0.9-0.1
			C138.9,256.2,138.9,253.9,138.9,251.5z M148.9,123.7c0.1,0,0.3-0.1,0.4-0.1c0-3.4,0-6.8,0-10.1c-0.1,0-0.3,0-0.4,0
			C148.9,116.9,148.9,120.3,148.9,123.7z M196.7,71.5c0.8,1,1.4,1.6,1.9,2.3c0.6-1,1.3-1.9,1.6-2.9c0.1-0.4-0.9-1-1.4-1.6
			C198.1,69.9,197.5,70.6,196.7,71.5z M113.9,141.5c-0.5,0-0.9,0-1.4,0c0,2.6,0,5.2,0,7.8c0.3,0,0.6,0,1,0
			C113.6,146.7,113.7,144.1,113.9,141.5z M284.1,213.5c0.2-0.3,0.3-0.6,0.5-0.9c-2.2-1.4-4.5-2.8-6.7-4.2c-0.2,0.3-0.4,0.7-0.6,1
			C279.6,210.8,281.9,212.2,284.1,213.5z M117.9,265.1c-2.5,2.9-2.4,4.3,0,5C117.9,268.6,117.9,267.2,117.9,265.1z"/>
		<path class="st0" d="M337.4,65.6c1.5,0.1,4.3-1,4.5,1.8c0.2,2.5-2.7,1.9-4.2,2c-9.2,1-18.4,1.9-27.6,2.6c-1.1,0.1-2.3-1-3.5-1.5
			c1-0.8,1.8-2.1,2.9-2.2c3.7-0.6,7.5-0.9,11.2-1.3C326.2,66.5,331.6,66.1,337.4,65.6z"/>
		<path class="st0" d="M186.6,27.6c-2.7-1.1-5.3-2.1-7.9-3.2c-8.6-3.7-17.3-7.4-25.9-11.1c-0.7-0.3-1.4-0.6-1.9-1.1
			c-0.4-0.4-0.6-1.2-0.5-1.7c0.1-0.4,0.9-0.8,1.3-0.8c0.9,0,1.9,0.2,2.7,0.6c10.3,4.5,20.6,9,30.9,13.6c0.7,0.3,1.4,0.6,2,1.1
			c0.4,0.4,0.9,1.1,0.8,1.5C188.1,27,187.3,27.2,186.6,27.6z"/>
		<path class="st0" d="M341.1,26.2c-0.9,0.7-1.8,1.5-2.8,1.9c-6.9,2.7-13.9,5.3-20.8,8c-2.5,1-5,2.1-7.6,2.9
			c-0.9,0.3-2.1-0.3-3.2-0.5c0.6-0.8,1-2.1,1.8-2.4c5.4-2.3,10.9-4.5,16.5-6.6c4.1-1.6,8.3-3.1,12.4-4.5c1.1-0.3,2.4,0.1,3.6,0.1
			C341,25.5,341.1,25.8,341.1,26.2z"/>
		<path class="st0" d="M307.9,118c1.6,0.8,2.4,1.2,3.2,1.7c7.4,4.8,14.9,9.5,22.3,14.4c0.9,0.6,1.2,2,1.7,3
			c-1.2-0.1-2.6,0.1-3.5-0.4c-7.6-4.5-15.1-9.2-22.6-13.9c-0.8-0.5-1.8-1.1-2-1.9C306.8,120.2,307.5,119.2,307.9,118z"/>
		<path class="st0" d="M298.4,19.6c-0.6-0.3-1.6-0.5-1.7-1c-0.2-0.7,0.1-1.8,0.6-2.2c1.1-1,2.4-1.8,3.7-2.5
			c5.7-3.1,11.5-6.1,17.2-9.1c0.7-0.3,1.4-0.8,2.1-0.8c0.7,0,1.6,0.4,2.1,0.9c0.2,0.2-0.3,1.3-0.6,1.9c-0.2,0.4-0.7,0.6-1.1,0.9
			c-6.7,3.7-13.3,7.4-20,11.1C300,19.1,299.3,19.2,298.4,19.6z"/>
		<path class="st0" d="M153.2,34.9c9.5,1.6,18.3,3,27.1,4.5c0.8,0.1,1.4,1.2,2,1.9c-0.9,0.4-1.9,1.3-2.7,1.2
			c-7.3-1.1-14.5-2.3-21.7-3.5c-1.5-0.2-3-0.3-4.4-0.8c-0.9-0.3-1.7-1.1-2.5-1.6C151.8,35.9,152.7,35.3,153.2,34.9z"/>
		<path class="st0" d="M338.3,94.7c-5.4-1.2-10.5-2.4-15.5-3.5c-2.5-0.6-5-1.1-7.4-1.9c-1-0.3-1.7-1.4-2.5-2.2
			c1.1-0.5,2.3-1.6,3.2-1.4c7.3,1.6,14.6,3.5,21.9,5.4c0.8,0.2,1.4,1.4,2.2,2.1C339.5,93.7,338.8,94.2,338.3,94.7z"/>
		<path class="st0" d="M309.8,57.5c-0.4-0.3-1.5-0.8-1.4-1.2c0.1-0.7,0.8-1.9,1.4-2c6.8-1.4,13.6-2.7,20.5-3.9
			c0.7-0.1,1.5,0.7,2.2,1.1c-0.8,0.8-1.4,2.1-2.3,2.3c-4.9,1-9.8,1.8-14.7,2.6C313.7,56.8,312,57.1,309.8,57.5z"/>
		<path class="st0" d="M182.5,72c-0.8,0.5-1.6,1.1-2.4,1.4c-5.1,1.5-10.1,2.9-15.2,4.2c-0.9,0.2-2-0.3-3-0.5
			c0.7-0.8,1.3-2.1,2.2-2.4c5-1.4,10-2.6,15-3.8c1-0.2,2.2,0.1,3.2,0.2C182.4,71.4,182.5,71.7,182.5,72z"/>
		<path class="st0" d="M199.4,11.3c-1.2,0.5-2.3,1.3-2.7,1c-4-2.1-7.8-4.4-11.7-6.7c-0.4-0.2-0.3-1.3-0.4-1.9c1-0.1,2.1-0.5,2.9-0.1
			c3.4,1.7,6.8,3.6,10.1,5.5C198.1,9.4,198.5,10.1,199.4,11.3z"/>
		<path class="st0" d="M328.9,108c-0.9,0.5-1.8,1.3-2.3,1.1c-4.4-2-8.8-4.2-13.1-6.4c-0.4-0.2-0.7-1.5-0.4-1.9
			c0.2-0.4,1.4-0.9,1.8-0.6c4.3,2,8.6,4.2,12.9,6.4C328.1,106.7,328.3,107.2,328.9,108z"/>
		<path class="st0" d="M161,58c0.9-0.5,1.7-1.3,2.6-1.4c4.3-0.5,8.6-1,12.9-1.2c0.8-0.1,1.7,0.7,2.6,1c-0.7,0.5-1.4,1.5-2.2,1.6
			c-4.5,0.6-8.9,1-13.4,1.4c-0.7,0.1-1.5-0.3-2.3-0.5C161.2,58.6,161.1,58.3,161,58z"/>
		<path class="st0" d="M228.7,80.2c0.8-2.5,2.3-2.2,4.2-1.1c1,0.6,2.1,0.9,3.1,1.4c0.8,0.5,1.5,1.2,2.3,1.8
			c-0.7,0.6-1.3,1.2-2.4,2.2c1.4,1.6,2.8,3.5,4.5,4.9c2.1,1.8,3.3,3.7,3.4,6.7c0,3.6,1.1,7.2,1.3,10.8c0.1,2.1-0.5,4.2-0.8,6.3
			c-0.3,1.8-1,3.5-0.8,5.2c0.4,4.6,4.5,6.8,8.5,4.7c1-0.5,1.8-1.9,2.7-1.9c3.5-0.2,6.2-1.1,6-5.7c2.7,3.1,1.9,6.1-1.4,7.3
			c-3.8,1.4-7.5,2.7-11.2,4.1c-3.3,1.3-6.6,2.4-10,0.4c-0.3-0.2-0.7-0.2-1.1-0.3c-6-0.7-6.5-1.3-6.1-7.5c0-0.5,0-1.1-0.4-1.9
			c-5.6,4.5-8.5,10.7-11.4,17.9c-0.6-1-1.5-1.9-1.4-2.6c0.4-2.3,1-4.6,2-6.6c1.6-3,3.7-5.9,5.7-8.7c0.7-1,2.1-2.3,3.1-2.2
			c3.8,0.3,5.3-2.7,7.6-4.6c0.4-0.4,0.9-1.6,0.6-1.9c-2.5-3.6-0.5-6.5,1.4-9.3c2.9-4.5,3-4.4-0.1-8.5c-0.7-1-1.3-2.1-2.1-3
			c-0.4-0.5-0.9-1.1-1.4-1.2c-4.7-0.9-9.4-1.7-14.1-2.5c-3.7-0.6-7.3-0.9-10.8,1.1c-0.5,0.3-1.3-0.1-2-0.2c0.2-0.6,0.3-1.5,0.8-1.9
			c4.3-4,9.2-6.3,15.2-5.4C225.2,78.3,226.7,79.4,228.7,80.2z M237.4,118.2c0.3-0.6,0.7-1.2,0.8-1.7c0.1-0.7,0-1.6-0.4-2
			c-0.5-0.4-1.8-0.4-2-0.1c-1,1.5-1.8,3.1-2.3,4.8c-0.2,0.5,0.8,2,1.4,2c1.6,0.2,3.2-0.2,5-0.4c-0.4-0.9-0.4-1.2-0.5-1.3
			C238.7,119.2,238.1,118.7,237.4,118.2z M239,109.1c2.6-1.6,3-3.6,0.8-5.9C239.5,105.2,239.3,107.2,239,109.1z"/>
		<path class="st0" d="M261.8,38.5c-0.4,0.9-0.7,1.7-1.4,3.3c1.9-1.5,3.2-2.6,4.5-3.6c0.2,0.3,0.5,0.5,0.7,0.8
			c-3.5,3.6-7,7.2-10.7,11.1c-1.5-2.6-2.7-3.2-5.3-1.9c-2.1,1.1-5,0.6-7.7,0.9c0.2-0.8,0.3-1.6,0.5-2.5c-1.2-0.5-3.7,2.8-3.6-0.7
			c-1.2-0.4-2.1-0.8-3.1-1c-0.7-0.2-1.4-0.2-2.2-0.3c-1.2-0.1-2.4-0.2-3.6-0.2c0.6-1.2,1.1-2.5,1.9-3.5c2-2.5,4.2-4.9,6.4-7.2
			c1.2-1.3,2.6-2.4,4.2-0.3c0.3,0.4,0.9,0.7,1.4,0.7c3.1-0.2,4.7,1.5,5.7,3.8C253.5,38,257.5,38.3,261.8,38.5z"/>
		<path class="st0" d="M246.1,133.5c6.9,0.8,13.5,1.6,20.1,2.5c0.9,0.1,1.8,0.9,2.3,1.7c0.2,0.4-0.3,1.7-0.9,2.1
			c-4,2.5-7.8,5.3-12.1,7.2c-6.6,2.9-13.2,1.8-19.7-1.3c-3.5-1.6-7.1-3-10.6-4.5c-0.7-0.3-1.4-0.6-1.9-1.1c-0.4-0.4-0.9-1.2-0.8-1.7
			c0.1-0.4,0.9-0.9,1.4-1C231.4,136,238.8,134.7,246.1,133.5z M241.2,144.7c0,0.2,0.1,0.5,0.1,0.7c6.5,1,12.8,1.3,18-3.9
			c0.9-0.9,1.6-2,2.4-3c-1.1-0.6-2.2-1.7-3.3-1.7c-7.8-0.1-15.6,0.1-23.4,0.2c-0.8,0-1.6,0.5-2.4,0.9c-1.4,0.8-1.8,2,0,2.6
			c2.1,0.8,4.3,1.5,6.5,1.6c4.1,0.2,8.3,0,12.4,0.1c1,0,2,0.4,3,0.6c0,0.4,0,0.8,0,1.2C250.1,144.2,245.7,144.4,241.2,144.7z"/>
		<path class="st0" d="M283.4,32.1c-0.6,0.8-1.3,1.6-1.9,2.4c3.1-1.5,7.8,0,9-5.1c0.3,0,0.6,0.1,0.9,0.1c0.1,1,0.5,2,0.2,2.9
			c-0.7,1.9-1,3.4,0.6,5.4c1.4,1.7,1.9,4.3,2.4,6.5c0.4,1.9-1.6,3.9-4,4.3c-1.1,0.2-2.2,0-4.1,0c3.2-2.9-0.9-4.1-0.8-5.6
			c-2.7-1.9-5.1-3.6-7-5c-2.4,0.7-4.8,1.1-6.8,2.2c-2.7,1.5-5.1,3.6-7.6,5.5c-0.7,0.5-1.1,1.3-1.7,1.9c-0.3-0.2-0.7-0.3-1-0.5
			c0.3-0.9,0.5-1.9,1-2.6c4.5-5.3,10.2-9.1,16.4-12.3c1.2-0.6,2.7-0.6,4.1-0.8C283.1,31.5,283.3,31.8,283.4,32.1z"/>
		<path class="st0" d="M287.3,87.1c0,3-1.3,3.9-3.4,2.5c-4.2-2.8-8.7-4.4-13.8-3.7c-2.5,0.4-4.9,1.3-7.4,1.6
			c-1.5,0.2-3.1-0.3-4.7-0.5c0.8-1.3,1.3-3.3,2.4-3.8c4.4-1.9,9-4.5,13.5-4.4c4.3,0.1,9.3,1.6,12.3,5.8
			C286.9,85.6,287.1,86.6,287.3,87.1z"/>
		<path class="st0" d="M300.2,47.5c-0.4,2.8-0.7,5.3-1,7.7c-0.1,0.7-0.3,1.6-0.7,2c-2.6,2.3-5.8,2.9-8.8,3.5c0-2.9,0-5.5,0-8.7
			C292.8,50.7,296.6,49.1,300.2,47.5z"/>
		<path class="st0" d="M234.2,149.8c1.7,0.5,2.7,0.9,3.8,1.1c3.6,0.8,7.3,1.6,10.9,2.3c1.3,0.2,2.7,0,3.9,0.2
			c0.6,0.1,1.2,0.9,1.4,1.5c0.1,0.4-0.5,1.2-1,1.4C248.3,159,237.4,155.6,234.2,149.8z"/>
		<path class="st0" d="M258.6,94.3c3.5-1.5,6-5.4,10.9-3.2c2.8,1.3,5.9,1.7,8.8,2.6c0.7,0.2,1.4,0.7,1.8,1.2c0.3,0.3,0.3,1,0.4,1.5
			c-0.7,0-1.5,0.3-1.9,0c-3.1-2.1-6.4-2.3-9.8-1.6c-0.5,0.1-1.3,0.3-1.7,0c-2.6-1.7-4.9-1.1-7.2,0.5c-0.2,0.1-0.8-0.2-1.2-0.3
			C258.7,94.9,258.6,94.6,258.6,94.3z"/>
		<path class="st0" d="M234,94.1c-0.9-0.3-1.7-0.4-2.1-0.8c-2.1-2.4-4.5-1.2-6.8-0.5c-1.4,0.4-2.8,0.8-4.2,1.1
			c-1.6,0.4-3.2,0.7-4.8,1c-0.7,0.1-1.4-0.1-2-0.2c0.3-0.7,0.4-1.8,0.9-2c4.7-2,9.4-3.9,14.6-3.3C231.8,89.8,232.9,90.9,234,94.1z"
			/>
		<path class="st0" d="M274.3,134.5c-0.3-0.6-0.9-1.1-1-1.8c-1.1-4.9-3.8-8.7-7.4-12c-0.6-0.5-0.6-1.7-0.8-2.6
			c0.8,0.2,1.8,0.2,2.3,0.7c2.1,2,4.2,4,6.1,6.2c2.3,2.7,2.1,6,1.6,9.2C274.9,134.3,274.6,134.4,274.3,134.5z"/>
		<path class="st0" d="M234.1,34.9c-0.4,0.7-0.6,1.3-1.1,1.8c-1.7,2-3.3,4.1-5.1,6c-0.6,0.6-1.8,0.7-2.7,1c-0.1-1.2-0.7-2.9-0.2-3.5
			c1.9-2.3,4.2-4.2,6.5-6.2c0.4-0.3,1.2-0.5,1.7-0.3C233.6,33.7,233.8,34.5,234.1,34.9z"/>
		<path class="st0" d="M276.2,145.9c0.4-1.1,0.9-2.2,1.4-3.3c1.1-2.5,2.3-5,3.5-7.5c0.3-0.6,0.9-1,1.4-1.5c0.4,0.6,1.1,1.2,1,1.6
			c-1.1,4.3-3.5,7.8-6.1,11.2C277,146.3,276.6,146.1,276.2,145.9z"/>
		<path class="st0" d="M263.4,101.4c4.3,0.5,8.5,1.1,12.8,1.6c-1.8,2-11.8,0.9-13-0.5C263.3,102.2,263.3,101.8,263.4,101.4z"/>
		<path class="st0" d="M207.3,95.4c-0.5-1.1-0.8-1.7-1.2-2.5c2.1-0.2,4.4-0.9,4.9,1.5c0.1,0.7-2.5,2.3-4,2.9
			c-1.4,0.5-3.3,0.8-4.6-1.6C204.1,95.7,205.5,95.6,207.3,95.4z"/>
		<path class="st0" d="M216.6,103.5c3.5-2.7,7.6-3,11.8-2.4C224.9,103.9,220.5,102.3,216.6,103.5z"/>
		<path class="st0" d="M288.7,94.2c-0.5,2.5-0.9,4.3-1.3,6.5c-1.5-1-2.9-1.8-4.3-2.8c-0.2-0.2-0.2-1.3,0-1.4
			C284.8,95.7,286.6,95.1,288.7,94.2z"/>
		<path class="st0" d="M245.5,90.3c-2.3-1.6-3-6.3-1.3-7.8c0.4-0.3,1.1-0.6,1.5-0.4c0.4,0.1,0.8,0.9,0.7,1.3
			C246.1,85.6,245.8,87.8,245.5,90.3z"/>
		<path class="st0" d="M255.2,99.3c-2.2-0.9-3.6-2.5-3.5-4.6c0.1-1.4,1.5-2.7,2.5-4.5C254.6,93.8,254.9,96.5,255.2,99.3z"/>
		<path class="st0" d="M251.5,99.8c2.3,2.4,2.2,4.9,0,7.4C251.5,104.4,251.5,102.1,251.5,99.8z"/>
		<path class="st0" d="M257.9,113.7c-2.8,0.8-3.9-0.1-4.5-1.7c-0.1-0.3,0.4-0.9,0.7-1.3C255.2,111.5,256.3,112.4,257.9,113.7z"/>
		<path class="st0" d="M281.6,99.9c1.1,0.7,2.2,1.4,3.5,2.2C282.6,103.2,282,102.9,281.6,99.9z"/>
		<path class="st0" d="M207.7,167.4c-1.8,3.7-3.4,7.5-5.4,11.1c-0.9,1.5-2.6,0.9-3.7-0.2c-4.2-4.3-8.4-8.6-12.5-13
			c-2.2-2.3-2.1-4,0.2-6.4c2.6-2.7,4.8-6.1,9.4-5.1c0.7,0.2,1.7,0.2,2.1,0.7c3.1,3.7,6.1,7.5,9.1,11.3c0.3,0.3,0.2,0.9,0.3,1.4
			C207.4,167.3,207.5,167.3,207.7,167.4z M204.6,168c-0.5-0.6-1-1.3-1.7-2c-2.1-2.2-4.6-4.2-6.2-6.7c-2.5-3.9-3.3-4.2-6.7-1
			c-0.4,0.4-0.8,0.8-1.2,1.2c-1.5,1.4-1.6,3-0.2,4.5c3.6,3.7,7.2,7.4,10.9,11c1,1,2,1,2.6-0.5C203,172.6,203.7,170.6,204.6,168z"/>
		<path class="st0" d="M215.3,150.9c-1.5,0.3-2.6,0.8-3.5,0.6c-0.8-0.2-1.4-1.1-2.1-1.8c-2.9-3-5.9-6.1-8.7-9.2
			c-0.6-0.7-1.3-2.4-0.9-2.9c1.2-1.5,2-0.1,2.9,0.8c3.6,3.5,7.2,7,10.8,10.6C214.2,149.3,214.5,149.8,215.3,150.9z"/>
		<path class="st0" d="M121.3,97.4c0.2,3.6,0.7,7.3-0.9,10.9c-0.3,0.7-1.6,1-2.5,1.5c-0.3-1-1.1-2.6-0.7-2.9c2.8-2.4,2-5.7,2.6-8.6
			c0.1-0.4,0.5-0.7,0.8-1C120.8,97.3,121.1,97.4,121.3,97.4z"/>
		<path class="st0" d="M168.6,207.6c-1-1-2.2-1.6-2.4-2.5c-0.4-1.2,0-2.7,0-4c0-0.2,0.4-0.4,0.7-0.4c1.1-0.2,4.7,4.3,4.2,5.2
			C170.7,206.5,169.7,206.8,168.6,207.6z"/>
		<path class="st0" d="M169.1,141.8c-0.3-0.8-0.8-1.6-0.8-2.4c-0.1-2.5-0.2-5.1,0-7.6c0.1-0.8,0.9-1.6,1.4-2.4
			c0.4,0.7,1.2,1.4,1.2,2.2c0.1,2.6,0.1,5.2-0.1,7.9c0,0.8-0.6,1.5-1,2.3C169.6,141.8,169.4,141.8,169.1,141.8z"/>
		<path class="st0" d="M172.2,164.1c-0.1,0.6,0.1,1.2-0.2,1.6c-0.5,0.8-1.3,1.4-1.9,2.1c-0.5-0.8-1.1-1.5-1.5-2.3
			c-0.2-0.5-0.3-1.2,0-1.6c0.5-1.1,1.3-2.1,2-3.1c0.8,1,1.5,1.9,2.3,2.9C172.6,163.8,172.4,163.9,172.2,164.1z"/>
		<path class="st0" d="M172.3,170.6c-1,0.7-1.5,1.4-2.2,1.5c-0.4,0-1.4-0.9-1.3-1.3c0.1-0.7,0.8-1.3,1.3-1.9
			C170.7,169.4,171.3,169.8,172.3,170.6z"/>
	</g>
</g>
</svg>
